<svg xmlns="http://www.w3.org/2000/svg" viewBox="0 0 396 151.376"><g transform="translate(-34.465 -12600.74)"><g transform="translate(34.465 12600.74)"><rect width="13.402" height="4.467" transform="translate(186.551 115.883)" fill="#fff46a"/><rect width="13.402" height="4.467" transform="translate(199.953 115.883)" fill="#d95b34"/><path d="M36.857,77.233a1.5,1.5,0,0,1-1.35-.844L-1.349.656A1.5,1.5,0,0,1-.656-1.349a1.5,1.5,0,0,1,2.005.692L38.2,75.076a1.5,1.5,0,0,1-1.348,2.157Z" transform="translate(70.958 36.162)" fill="#1ea4d9"/><path d="M0,77.233a1.494,1.494,0,0,1-.655-.152,1.5,1.5,0,0,1-.692-2.005L35.507-.656a1.5,1.5,0,0,1,2.005-.692A1.5,1.5,0,0,1,38.2.656L1.349,76.389A1.5,1.5,0,0,1,0,77.233Z" transform="translate(293.209 36.162)" fill="#1ea4d9"/><g transform="matrix(0.985, -0.174, 0.174, 0.985, 336.807, 58.143)"><path d="M21.807,6.21C21.312,2.308,19.335-.1,15.317,0,12.34.017,4.318,1.639,3.8,4.53c.246,1.027,9.547,1.157,10.764,3.147C16.771,10.87,8.347,10.766,6.072,11c-2.864.407-9.812,1.884-3.508,2.294,4.574.3,11.771-1.637,12.418.055.414,2.232-3.107,3.487-5,4.354C7.627,18.779,4.71,19.157,4.463,20.15c-.675,2.722,9.857,2.081,11.429,1.625,5.106-1.485,8.5-2.7,8.532-8.459-.064-1.684-1.539-2.43-.392-3.615.28-.506,4.544-1.432,4.045-1.724a13.243,13.243,0,0,0-5.313-1.4Z" transform="translate(0 0)" fill="#1ea4d9"/><path d="M1.573,1.936C1.663,1.44.962-.707.139.237-.385.86.7,2.146,1.349,1.956Z" transform="translate(16.81 1.805)" fill="#fff"/><path d="M1.509,2.218C1.423,1.38,1.108.3.238,0-.4,1.047.3,2.646,1.623,2.34Z" transform="translate(13.878 2.003)" fill="#fff"/><path d="M1.053.263c.354.681.735,3.673-.675,2.593C-.546,2.106.44.643,1.037,0Z" transform="translate(19.969 14.655)" fill="#fff"/><path d="M1.058,2.6C1.222,2.084,1.775-.728.55.179c-.587.406-.979,3.053.3,2.6Z" transform="translate(16.106 17.308)" fill="#fff"/><path d="M.46,2.646C.923,2.353,1.65.321.853,0,.191-.117-.4,2.17.348,2.579Z" transform="translate(12.343 18.253)" fill="#fff"/><path d="M.9,1.593C1.067,1.074,1.571-.229.394.035c-.651.188-.47,2.039.355,1.642Z" transform="translate(8.764 19.159)" fill="#fff"/><path d="M1.55,1.464C1.548.915.487-.579.1.24c-.462.839.832,1.247,1.329,1.337Z" transform="translate(10.466 2.482)" fill="#fff"/><path d="M.7.523C.608-.862-.82.964.688.761Z" transform="translate(7.773 3.355)" fill="#fff"/></g><g transform="matrix(0.985, -0.174, 0.174, 0.985, 358.354, 85.819)"><path d="M26.026,7.412C25.435,2.755,23.076-.118,18.281,0,14.727.019,5.154,1.956,4.536,5.407,4.83,6.632,15.93,6.788,17.382,9.162c2.634,3.811-7.421,3.687-10.135,3.967-3.418.485-11.71,2.247-4.187,2.737,5.459.354,14.049-1.954,14.821.065.494,2.664-3.708,4.161-5.973,5.2C9.1,22.411,5.62,22.864,5.327,24.049c-.805,3.249,11.764,2.483,13.64,1.939,6.094-1.772,10.147-3.221,10.183-10.1-.077-2.011-1.836-2.9-.468-4.315.333-.6,5.423-1.709,4.827-2.059a15.809,15.809,0,0,0-6.34-1.674Z" transform="translate(0 0)" fill="#1ea4d9"/><path d="M1.877,2.31C1.985,1.718,1.147-.844.166.283-.46,1.026.833,2.56,1.61,2.335Z" transform="translate(20.062 2.154)" fill="#fff"/><path d="M1.8,2.646C1.7,1.647,1.322.354.284,0-.475,1.249.359,3.158,1.937,2.793Z" transform="translate(16.563 2.39)" fill="#fff"/><path d="M1.256.315c.423.812.878,4.382-.805,3.094-1.1-.9.075-2.64.786-3.408Z" transform="translate(23.832 17.491)" fill="#fff"/><path d="M1.263,3.105c.2-.618.856-3.973-.606-2.892-.7.484-1.168,3.643.36,3.107Z" transform="translate(19.222 20.657)" fill="#fff"/><path d="M.548,3.158C1.1,2.81,1.969.384,1.018.006.228-.139-.475,2.59.415,3.08Z" transform="translate(14.731 21.784)" fill="#fff"/><path d="M1.08,1.9c.193-.618.8-2.174-.61-1.859C-.306.267-.091,2.474.894,2Z" transform="translate(10.46 22.866)" fill="#fff"/><path d="M1.849,1.747C1.847,1.093.581-.69.117.286c-.552,1,.992,1.488,1.586,1.6Z" transform="translate(12.491 2.962)" fill="#fff"/><path d="M.832.624C.726-1.028-.979,1.15.821.908Z" transform="translate(9.276 4.004)" fill="#fff"/></g><g transform="translate(0 82.779)"><path d="M278.553,558.18a3.3,3.3,0,0,1,1.943-1.111c1.352-.372,2.734-.64,4.11-.918a5.231,5.231,0,0,1,1.143-.037,2,2,0,0,0,1.1-.235,1.48,1.48,0,0,1,.307.137c1.839.964,2.259.9,2.745-1.332a1.27,1.27,0,0,1,.093-.307,13.969,13.969,0,0,1,3.981-4.054.585.585,0,0,1,.315-.038c.721.11,1.489.663,2.1-.227a1.493,1.493,0,0,1,.28-.159c.681-.219,1.393-.32,2.062-.595a1.877,1.877,0,0,1,1.823.159c.875.537,2,.443,2.9.964a1.443,1.443,0,0,1,.577,1.123c.194-.44.405-.765.889-.65a.508.508,0,0,1,.241.194c-.308,1.018.84.63,1.083,1.115a1.359,1.359,0,0,1,.126.262c.045.129.082.263.133.391.044.076.089.151.141.223s.127.127.2.187c.038.028.073.058.11.087a1.45,1.45,0,0,1,.215.2.807.807,0,0,1,.092.744.848.848,0,0,1-.4.489,1.2,1.2,0,0,1-.8-.41c-.591-.491-1.068-1.159-2.019-.947-.262.059-.717-.176-.679-.491.093-.776-.7-1.03-.776-1.778-.782.75-1.5,1.129-2.381.369-.307-.266-.749-.016-1.119-.094-.1,0-.141-.2-.222-.131s.123.124.1.234c-.044.369-.17.721-.584.741-.695.034-.564-.691-.843-1.043-.79.15-.768,1.438-1.783,1.227-.053-.011-.059.124-.085.195-.552,1.5-1.293,1.787-2.7,1.046a.548.548,0,0,0-.316-.106c.134.075-.085.006-.034.031,1.3.647,1.6,1.373.117,2.119A5.586,5.586,0,0,0,291,557.382a1.909,1.909,0,0,1-2.05.795,12.569,12.569,0,0,0-7.03.866,1.209,1.209,0,0,0-.379,2.162,4.257,4.257,0,0,0,2.511.977,10.989,10.989,0,0,1,2.633.135c.344.1.589.062.738-.306a.5.5,0,0,1,.461-.292c.472-.029,1.3,1.136,1.551,2.118.2.758-.325.949-.841,1.114a11.337,11.337,0,0,0-2.539.69c-.521.314-1.27.09-1.663.709a1.947,1.947,0,0,1-2.623-.145,2.58,2.58,0,0,0-2.123-.859.633.633,0,0,1-.764-.534c.113-.614-.346-.648-.754-.757-.482-.128-1.241-.059-1.061-.859.2-.885.9-.331,1.546-.276C278.238,561.3,277.138,559.716,278.553,558.18Z" transform="translate(-274.167 -548.475)" fill="#e9f2f9"/><path d="M485.589,615.976a1.3,1.3,0,0,1,.925.458c.894,1.409.8,3.113,1.38,4.615a7.048,7.048,0,0,1-3.3,1.683c-.878.248-1.752.514-2.643.7a16.2,16.2,0,0,1-2.812.393,19.257,19.257,0,0,0-2.706.322,6.5,6.5,0,0,1-1.13.119q-1.889,0-3.779,0c-.5-.512-.3-.765.336-.854-.5-.671-1.375-.285-1.954-.7-.11-.461.267-.469.531-.526a1.153,1.153,0,0,0,.885-.6,1.08,1.08,0,0,1,.21-.241,2.745,2.745,0,0,1,1.847.347,1.151,1.151,0,0,0,1.284-.154,4.5,4.5,0,0,1,.993-.571c.8-.381,1.538-.755,2.057.413a1.837,1.837,0,0,0,.762.678c.132.074.408.156.412.067.06-1.289,1.478-.272,1.812-1.078a.249.249,0,0,1,.312-.083c1.147.882,1.978-.345,2.977-.452.644-.069.692-1.237,1.593-1,.072-.454.044-.9-.512-.976-.78-.111-1.192-.8-1.854-1.1a.63.63,0,0,1-.4-.75.8.8,0,0,1,.843-.148A1.9,1.9,0,0,0,485.589,615.976Z" transform="translate(-436.944 -604.888)" fill="#dfeff8"/><path d="M348.169,645.194c-.129.844-.129.849-.916.918-.255.022-.522-.017-.7.234a.678.678,0,0,1-1.073-.07c-.314-.444-.468.155-.694.023a1.2,1.2,0,0,1-.3-.035,1.881,1.881,0,0,0-.567-.1,3,3,0,0,0-.85.222c-.074.025-.156.024-.224.053-.857.37-1.531-1.074-2.56-.138-.686.624-1.845.357-2.754.664a1.178,1.178,0,0,1-.331-.018,1.442,1.442,0,0,0-1.844.031c-.788.587-1.836.057-2.772.008-.645-.39-1.2-1.162-2.1-.444-.143.115-.391.158-.428.347-.185.958-1.062,1.113-1.719,1.523h-.922a.665.665,0,0,1-.033-.546c.043-.169.383-.539-.211-.291-.177.074-.36-.151-.39-.337-.168-1.042-.866-.864-1.551-.679a1.214,1.214,0,0,1-1.5-.447c.105-.208.239-.452.493-.391.392.094.744-.133,1.12-.07l.149,0c.2-.019.391-.01.586-.011.139-.006.278,0,.417-.006a1.97,1.97,0,0,0,.645-.111,2.03,2.03,0,0,1,.383-.085,2.141,2.141,0,0,0,.5-.119c.081-.037.164-.067.248-.1a1.463,1.463,0,0,0,.586-.355,1.365,1.365,0,0,1,1.547-.361c.95.268,1.921.8,2.956.231a.493.493,0,0,1,.534.11,2.826,2.826,0,0,0,2.1.316,5.82,5.82,0,0,1,1.707.1c.6.112,1.33.69,1.543-.474a.287.287,0,0,1,.274-.182c1.078.171,2.223-.39,3.24.215a1.732,1.732,0,0,0,1.529.17c1.08-.358,2.2-.576,3.273-.953a.771.771,0,0,1,.234.2C347.957,644.544,348.029,644.882,348.169,645.194Z" transform="translate(-313.586 -628.577)" fill="#e6f1f8"/><path d="M467.94,581.4a.474.474,0,0,1,.231-.461c.841-.553,1.3.169,1.856.555a.855.855,0,0,1,.134.762c1.1-1.172,2.475-.523,3.694-.65a6.4,6.4,0,0,0,1.927-.441,5.264,5.264,0,0,1,2.606,1.57,2.17,2.17,0,0,1,.614,1.2c-.33.591-.506,1.557-1.382.366-.3-.409-.846-.092-1.221.169-.279.194-.4.546-.668.76-.306.212-.221.484-.14.774.086.308.217.658-.273.775a.973.973,0,0,1-.882-.786c-.148-.98-1.127-1.465-1.332-2.477-.108-.537-1.014-.459-1.618-.177a2.9,2.9,0,0,1-3.241-.614,1.47,1.47,0,0,1-.422-1.032A.408.408,0,0,1,467.94,581.4Z" transform="translate(-435.201 -575.146)" fill="#e0f0f8"/><path d="M449.788,552.9a1.46,1.46,0,0,1-.617.65c-.3.17-.6.326-.952.074a.922.922,0,0,0-.76-.065c-.438.085-.9.063-1.333.153a.773.773,0,0,1-.629-.122c-.3-.182-.343-.17-.466.211-.082.253-.248.232-.425.262-.538.091-.539.092-.585-.471-.006-.075,0-.152,0-.228a2.5,2.5,0,0,1-.847-1.307A2.689,2.689,0,0,0,441,549.894a1.209,1.209,0,0,1-.308-.14,1.3,1.3,0,0,1-.242-.245,1.613,1.613,0,0,1-.162-.307c-.3-.649-.908-.6-1.465-.595a1.857,1.857,0,0,1-1.794-1.208,2.09,2.09,0,0,1,1.469-.024l.454.009a2.3,2.3,0,0,0,.241.22q.11,0,.22.007c.121.148.34.092.47.223l.452.015q.117.111.236.219c.075,0,.15,0,.225.009.071.082.161.144.237.22.075,0,.149,0,.224.008.121.14.335.092.459.226h0a2.2,2.2,0,0,0,.242.222,7.09,7.09,0,0,1,2.486,2.289,1.45,1.45,0,0,0,1.425.707,5.869,5.869,0,0,1,3.682.931,2.107,2.107,0,0,0,.234.223Z" transform="translate(-409.208 -546.882)" fill="#d3ebf6"/><path d="M261.7,614.766a7.944,7.944,0,0,1,2.241-3.036.816.816,0,0,1,.515-.2c.992.136.571.749.283,1.109-.495.618-.986,1.133-.423,1.985.2.3-.08.656-.312.926-.581.676,0,1.006.462.969a1.3,1.3,0,0,1,1.339.833.731.731,0,0,0,.615.6c.185.038.457.007.533.162.735,1.495,2.312,1.008,3.474,1.483a2,2,0,0,0,1.338-.008c.774-.228,1.126.228.993,1.163a12.494,12.494,0,0,1-1.928-.173c-.782-.126-1.585-.145-2.376-.277-.9-.15-1.793-.322-2.674-.555-.065-.017-.113-.1-.169-.148-1.059-1.127-2.052-2.32-3.168-3.387A2.125,2.125,0,0,1,261.7,614.766Z" transform="translate(-261.223 -601.138)" fill="#d6ebf6"/><path d="M516.557,602.033c.077-.08.2-.147.224-.242a1.345,1.345,0,0,1,1.454-.967c.605-.017.632-.041.862.581.038.1.047.244.19.2a.383.383,0,0,0,.219-.222c.078-.271.178-.495.509-.5.471,1.131.471,1.122,1.736,1.155a4.347,4.347,0,0,1,2.875.916c.082.072.142.166.232.23h0c-.456,1.011-.494,1.039-1.57.9-.4-.052-.8-.136-1.2-.205l-.159-.006a33.8,33.8,0,0,0-4.238-.714,1.539,1.539,0,0,1-.3-.1C517.037,602.779,516.043,603.021,516.557,602.033Z" transform="translate(-476.212 -592.094)" fill="#d8edf6"/><path d="M384.817,656.051a1.521,1.521,0,0,1,.921-.231c.119.146.336.1.461.231h0c.925.547.957,1.385.074,1.937a3.723,3.723,0,0,0-3.073-.273c-.123.058-.54.075-.219.414-.27.3-.634.217-.968.218q-2.927.014-5.853.012c-.956,0-1.913,0-2.869,0a.447.447,0,0,1-.1-.463.9.9,0,0,1,.2-.268.914.914,0,0,1,.3-.14,18.681,18.681,0,0,0,5.368-.74l.23,0a3.246,3.246,0,0,1,1.429,0A6.922,6.922,0,0,0,384.817,656.051Z" transform="translate(-355.305 -638.512)" fill="#d0e9f5"/><path d="M293.941,651.745c.082-.5-.27-.766-.591-1.017-.17-.133-.362.011-.475.177a.311.311,0,0,1-.453.146,5.393,5.393,0,0,0-.978-.223.8.8,0,0,0-.227-.006,2.245,2.245,0,0,1-1.458-.544,1.92,1.92,0,0,1-1.405.022.417.417,0,0,1-.319-.42c.015-.555.017-.548-.348-.708-.344-.151-.725-.256-.889-.654.1-.178.213-.339.459-.23.034.248.142.425.418.447a3.31,3.31,0,0,0,1.434-.155c.305.326.59.625.869.928a2.2,2.2,0,0,0,2.087.589.673.673,0,0,0,.494-.428c.144.04.33.037.425.128a.7.7,0,0,0,.841.1,3.053,3.053,0,0,1,1.558-.2.407.407,0,0,1,.378.36c.019.111.012.227.026.34.078.645.1.661.648.372a1.426,1.426,0,0,1,.307-.138.255.255,0,0,1,.2.052c.034.032.038.167.014.18-.443.243-.51.722-.712,1.115h-1.7A.689.689,0,0,1,293.941,651.745Z" transform="translate(-282.406 -632.131)" fill="#e0eef7"/><path d="M359.159,548.874a4.539,4.539,0,0,1,1.542-1.161,11.447,11.447,0,0,1,5.374-1.833,4.5,4.5,0,0,1,2.211.026c-.707.834-1.834.639-2.435,1.361h0a3.3,3.3,0,0,1-2.305.23h0a6.9,6.9,0,0,0-2.813,2.154c-.284.377-.487.941-1.156.633C359.385,549.828,359.6,549.254,359.159,548.874Z" transform="translate(-343.483 -545.616)" fill="#d4ebf5"/><path d="M344.782,565.764c.22.017.471-.029.615.193a.67.67,0,0,1,.038.546c-.057.217-.122.431-.184.647.327.528-.051.938-.231,1.381-.188.368-.517.688-.549,1.1a1.063,1.063,0,0,1-1.1,1.063c-.669.059-.876-.489-1.106-.969a.972.972,0,0,1-.008-.971,5.054,5.054,0,0,1,1.208-1.775C343.839,566.518,344.133,565.944,344.782,565.764Z" transform="translate(-329.106 -562.506)" fill="#cfe8f5"/><path d="M402.067,546.524c.092-.538.306-.894.96-.838.4.034.657-.446,1.1-.516-.31-.009-.621-.022-.931-.027s-.6,0-.9,0c.13-.07.259-.2.391-.2a9.028,9.028,0,0,1,2.165.016,18.11,18.11,0,0,0,3.18.189c.333.015.7-.084.961.226h-1.126c-.025.2.1.209.169.276.639.639.636.642,1.409.65.191,0,.383-.008.573,0,.811.056.973.237,1.044,1.146a.322.322,0,0,1-.462,0h0c-.15-.161-.374-.062-.531-.141-.345-.174-.622-.54-1.082-.32-.584-.15-1.164-.323-1.754-.446a3.706,3.706,0,0,1-1.847-.757c-.19-.171-.432-.174-.53.134-.089.277-.235.23-.415.107-.228-.156-.415-.164-.522.141-.05.142-.135.349-.3.267C403.069,546.154,402.586,546.582,402.067,546.524Z" transform="translate(-379.7 -544.875)" fill="#dceef7"/><path d="M274.81,613.561l-.459.23c-.154-.218-.313-.433-.459-.656-.095-.144-.236-.242-.379-.17-.366.184-.667-.079-1-.1a.419.419,0,0,1-.451-.418c-.012-.264-.062-.554.26-.689a.8.8,0,0,0,.439-.343c.113-.208.218-.411.042-.634-.071-.09-.157-.169-.225-.261-.4-.548-.344-.992.248-1.3a1.148,1.148,0,0,0,.646-.6,1.023,1.023,0,0,0,.1-.429c-.022-.205-.208-.306-.382-.393.165-.252.451-.322.693-.458.073-.08.165-.141.234-.225l.227-.007a1.614,1.614,0,0,1-.421,1.436.683.683,0,0,0-.059.832,5.919,5.919,0,0,0,.314.728c.238.31.456.575.31,1.012-.048.143.1.354.167.529.084.21.228.433.006.621-.17.144-.355-.018-.532-.062a.927.927,0,0,1-.49-.269.293.293,0,0,0-.4-.073.447.447,0,0,0-.22.484.35.35,0,0,0,.323.272c.485.08.968.168,1.452.249.362.061.4.146.183.539C274.943,613.472,274.867,613.512,274.81,613.561Z" transform="translate(-269.961 -597.404)" fill="#e0eff8"/><path d="M259.12,632.266c.093.064.185.13.279.192.277.183-.059.542.2.719a4.417,4.417,0,0,1,.676.417c.179.178.22.549.415.645a1.282,1.282,0,0,1,.777.753c.122.352.531.506.733.847a1.328,1.328,0,0,0,1.164.8c.155,0,.434-.08.38.231-.025.143-.215.2-.374.21-.114.009-.228.01-.343.015-.076,0-.152,0-.228-.009-.123-.14-.34-.084-.465-.22a6.569,6.569,0,0,1-3.245-2.24,1.531,1.531,0,0,1-.2-1.909c.141-.12.092-.335.23-.456Z" transform="translate(-258.643 -618.637)" fill="#c9e6f3"/><path d="M455.1,656.108c.073-.017.2-.02.21-.052a10.448,10.448,0,0,0,.234-1.168c.036-.31-.321-.393-.442-.621.3,0,.617.018.7-.388.023-.108.1-.2.223-.175.034.008.069.121.064.182-.032.384.187.548.523.593a5.2,5.2,0,0,0,.562.018,9.778,9.778,0,0,1,1.138.013,1.519,1.519,0,0,1,1.344.9.4.4,0,0,1-.058.312.214.214,0,0,1-.3.041c-.1-.057-.182-.136-.278-.2s-.208-.133-.294,0c-.032.047,0,.141.01.212.014.112.033.224.049.337a10.371,10.371,0,0,0-2.459.193,5.963,5.963,0,0,1-1.46.033.186.186,0,0,1-.07-.171c.011-.062.024-.094.041-.094A.181.181,0,0,1,455.1,656.108Z" transform="translate(-424.205 -636.729)" fill="#daedf6"/><path d="M575.839,623.527c-.192-.032-.413-.084-.423-.3a3.766,3.766,0,0,0-.407-1.4,2.918,2.918,0,0,1-.091-1.232.845.845,0,0,0-.41-.861,1.385,1.385,0,0,1-.329-.308c-.186-.2-.108-.343.28-.512.45.273.918.522,1.348.825a2.226,2.226,0,0,1,.7,2.911C576.34,622.979,576.226,623.36,575.839,623.527Z" transform="translate(-524.889 -607.367)" fill="#cbe7f4"/><path d="M356.123,657.152q0,.231,0,.461l-3.225,0c-.037-.166-.191-.359.1-.451.035-.011.077,0,.113-.01.662-.169,1.2-.434,1.2-1.26,0-.353.141-.448.516-.406.3.034.519.02.62-.31.1-.311.305-.264.537-.159a2.356,2.356,0,0,1,1.066.986,1.652,1.652,0,0,1-.692.922h0C356.272,656.994,356.2,657.079,356.123,657.152Z" transform="translate(-338.135 -637.771)" fill="#e0eef7"/><path d="M340.447,583.732c-.042.652.45,1.091.666,1.641a.378.378,0,0,0,.5.152,4.288,4.288,0,0,0,.749-.5.2.2,0,0,0-.011-.3c-.191-.172-.142-.329.012-.478a3.263,3.263,0,0,1,.85-.742,1.422,1.422,0,0,1-.217,1.384,1.125,1.125,0,0,0-.221.38c-.077.238.053.557-.262.7-.276.122-.505-.138-.765-.13a2.848,2.848,0,0,1-1.494-.482.557.557,0,0,1-.27-.469q0-.114.005-.228c.143-.122.086-.339.223-.464A.487.487,0,0,1,340.447,583.732Z" transform="translate(-327.301 -577.48)" fill="#dceef7"/><path d="M436.767,665.354l-.228,0c-.587.3-1.258-.083-1.844.224l-1.145.011-.438-.036c-.128-.251.124-.24.195-.342a2.12,2.12,0,0,1,.3-.348.548.548,0,0,1,.285-.169,4.312,4.312,0,0,1,2.678.383C436.657,665.133,436.7,665.26,436.767,665.354Z" transform="translate(-405.874 -645.974)" fill="#c4e3f3"/><path d="M443.453,669.385a.675.675,0,0,1,.6-.224H445.3c0,.075,0,.149,0,.223Z" transform="translate(-414.632 -649.779)" fill="#d0e9f5"/><path d="M282.326,661.791a.473.473,0,0,1,.465.22A.473.473,0,0,1,282.326,661.791Z" transform="translate(-278.633 -643.558)" fill="#d6ebf6"/><path d="M452.784,549.767a.466.466,0,0,1-.47-.223A.494.494,0,0,1,452.784,549.767Z" transform="translate(-422.111 -548.816)" fill="#dceef7"/><path d="M464.6,554.225a.475.475,0,0,1-.459-.226A.466.466,0,0,1,464.6,554.225Z" transform="translate(-432.091 -552.576)" fill="#dceef7"/><path d="M260.438,632.266a.475.475,0,0,1-.23.456A.457.457,0,0,1,260.438,632.266Z" transform="translate(-259.964 -618.637)" fill="#d6ebf6"/><path d="M340.245,587.916a.473.473,0,0,1-.223.464A.473.473,0,0,1,340.245,587.916Z" transform="translate(-327.331 -581.204)" fill="#e9f2f9"/><path d="M284.05,607.154l-.234.225Z" transform="translate(-279.89 -597.441)" fill="#e9f2f9"/><path d="M517.57,582.277l-.234-.223Z" transform="translate(-476.992 -576.256)" fill="#e0f0f8"/><path d="M569.3,614.738l-.232-.23Z" transform="translate(-520.659 -603.649)" fill="#dfeff8"/><path d="M467.335,555.676l-.242-.222Z" transform="translate(-434.585 -553.804)" fill="#dceef7"/><path d="M461.418,552.753l-.237-.221Z" transform="translate(-429.595 -551.339)" fill="#dceef7"/><path d="M458.461,551.29l-.236-.219Z" transform="translate(-427.1 -550.105)" fill="#dceef7"/><path d="M449.6,548.311l-.241-.22Z" transform="translate(-419.615 -547.589)" fill="#dceef7"/><path d="M324.982,563.006q0,.115,0,.23c-.006.657-.078,1.328.937,1.29.35-.013.36.336.239.616a1.386,1.386,0,0,1-.356.583c-.855.593-.984,1.663-1.628,2.391a1.084,1.084,0,0,0-.085,1.559c.463.517.975.306,1.431-.054a2.19,2.19,0,0,1,1.274-.464,24.218,24.218,0,0,1,3.631-.224c.823.075,1.309.411,1.188,1.313-.069.511.289.956.223,1.465-.153.5-.527.442-.93.393-1.249-.151-2.337.532-3.524.719-.27.043-.424.308-.556.546h0a.436.436,0,0,1-.455-.488c0-.144,0-.289-.006-.433-.468-.115-.468-.115-.549.319-.054.29-.2.41-.446.346a.75.75,0,0,1-.31-.132c-.2-.18-.336-.183-.591-.037a5.109,5.109,0,0,1-2.631.652c-.2,0-.425-.022-.481-.23-.128-.477-.566-.282-.842-.43a3.149,3.149,0,0,1-2.129.015c-.205-.067-.457.19-.47.405-.034.581-.2.772-.652.681a2.028,2.028,0,0,1-.739-.3c-.334-.231-.711.074-.989-.093a.767.767,0,0,0-.852.02.571.571,0,0,1-.547.041,1.074,1.074,0,0,0-.786-.087.671.671,0,0,1-.917-.4c-.138-.258-.254-.228-.535.031-.472.435-.635.463-1.179.132-.128-.078-.259-.26-.386-.2-.584.277-1.045-.036-1.5-.292a.647.647,0,0,0-.915.131,3.018,3.018,0,0,1-.453.345c-.187.207-.508.011-.691.23h0c-.125.134-.342.085-.461.23h-.461c-.187.208-.509.009-.692.229h-.46c-.184-.218-.5-.026-.692-.23h0c.252-.555.8-.516,1.27-.613a6.181,6.181,0,0,0,1.808-.466c.22-.121.392-.295.144-.53a1.032,1.032,0,0,1-.239-.741c-.017-.155-.063-.316-.233-.362-.325-.088-.384-.289-.357-.6.018-.206-.176-.322-.391-.332-.237-.01-.344.135-.373.346-.025.184-.032.371-.045.532-.324.121-.451-.165-.67-.195-.3-.041-.6-.1-.905-.135a1,1,0,0,0-.443-.005,1.306,1.306,0,0,1-1.007-.019c-.2-.083-.371.017-.554.071a.91.91,0,0,1-.867-.155,1.332,1.332,0,0,0-1.151-.385c-.186.041-.342-.158-.445-.319a1.631,1.631,0,0,0-.813-.761c-.324-.119-.4-.838-.092-.969.549-.235.666-.688.839-1.154a.271.271,0,0,1,.461-.125.506.506,0,0,0,.8-.068,1.616,1.616,0,0,1,.914-.407c.655-.165,1.384-.084,1.958-.552a.58.58,0,0,1,.551-.032c.366.107.738.2,1.1.3a1.575,1.575,0,0,0,1.02.025,1.352,1.352,0,0,1,1.309.107.424.424,0,0,0,.6-.113,6.082,6.082,0,0,1,1.182-1.238c.4-.247.131-1.015.851-.924.465.059.638-.495,1.076-.589.311-.067.359-.382.167-.63a5.707,5.707,0,0,0-.388-.424c-.215-.227-.429-.3-.676-.026-.094.1-.211.032-.282-.071a.23.23,0,0,1,.006-.31c.2-.171.424-.316.656-.485.437.269.753.671,1.334.627a2.116,2.116,0,0,0,1.263-.448c.227-.185.26-.349.092-.576a1.367,1.367,0,0,1-.179-.293.368.368,0,0,1,.381-.531.57.57,0,0,1,.415.159c.19.2.415.113.426-.088.035-.657.5-.888.983-1.133.164-.084.3-.326.493-.228.309.154.039.389.022.59a2.092,2.092,0,0,0-.01.343.5.5,0,0,0,.3.454c.232.09.353-.081.429-.263s.115-.361.17-.542c.466.082.888-.369,1.332-.171a6.494,6.494,0,0,1,1.018.71c.025.018.071.008.163.015.416-.315.757-.818,1.34-.96a.4.4,0,0,1,.311.044c.092.08.008.2-.05.292-.141.228-.162.4.156.518.6.224.594.239.51.783-.011.074-.057.143-.07.217a1.247,1.247,0,0,0,0,.213,1.507,1.507,0,0,0,1.5.195c.324-.076.383-.013.532.451.05.156.124.339.255.347C324.46,562.237,324.555,562.84,324.982,563.006Z" transform="translate(-292.243 -556.752)" fill="#eff5fb"/><path d="M461.183,562.816c.228,0,.458-.011.684.012a.771.771,0,0,1,.423.132c.447.406.882.827,1.3,1.266a.714.714,0,0,1,.223.507,1.641,1.641,0,0,0,.471,1.34,1.411,1.411,0,0,1,.129.429.767.767,0,0,1-.606-.271,1.322,1.322,0,0,0-1.237-.421c-.008-.253.041-.526-.23-.691-.069-.084-.154-.153-.23-.23h0q-.112-.118-.23-.23h0c-.134-.125-.085-.341-.231-.46q0-.115,0-.23C461.672,563.512,461.184,563.261,461.183,562.816Z" transform="translate(-429.596 -560.017)" fill="#dceef7"/><path d="M360.683,560.229l.231-1.381a.639.639,0,0,0,.514-.211c.263-.368.512-.745.761-1.123.039-.059.03-.19.07-.2.882-.273,1.407-1.138,2.3-1.381.072-.02.182.1.274.153a3.848,3.848,0,0,1-.993.9,5.424,5.424,0,0,0-1.62,1.535,1.19,1.19,0,0,1-.386.406,1.5,1.5,0,0,0-.813,1.022C360.986,560.063,360.8,560.136,360.683,560.229Z" transform="translate(-344.77 -554.205)" fill="#dceef7"/><path d="M455.465,561.58c.117.262.537.166.587.42a2.1,2.1,0,0,1-.127.733,1.79,1.79,0,0,0-.429-.35c-.146-.058-.248.123-.359.222a.444.444,0,0,1-.426.073c-.219-.054-.391-.365-.253-.52a.967.967,0,0,0,.315-.807h.462a2.084,2.084,0,0,0,.23.23Z" transform="translate(-423.878 -558.78)" fill="#e0f0f8"/><path d="M387.285,555.572a8.084,8.084,0,0,1,2.305-.23c-.182.28-.359.563-.548.838-.16.233-.317.253-.518-.016a.478.478,0,0,0-.647-.218C387.565,556.061,387.409,555.814,387.285,555.572Z" transform="translate(-367.223 -553.692)" fill="#dceef7"/><path d="M446.4,556.769a1.367,1.367,0,0,0,.4-.167c.128-.11.288-.212.36-.052.175.388.624.389.853.68-.635-.166-.647.464-.908.76-.36-.1-.259-.434-.4-.625A3.685,3.685,0,0,1,446.4,556.769Z" transform="translate(-417.118 -554.659)" fill="#e0f0f8"/><path d="M464.137,571.691a.473.473,0,0,1,.231.461A.473.473,0,0,1,464.137,571.691Z" transform="translate(-432.09 -567.509)" fill="#e0f0f8"/><path d="M467.094,576.121l.23.23Z" transform="translate(-434.586 -571.248)" fill="#e0f0f8"/><path d="M465.616,574.644l.23.23Z" transform="translate(-433.338 -570.001)" fill="#e0f0f8"/><path d="M416.323,562.31l-.1-.053.043-.043Z" transform="translate(-391.651 -559.51)" fill="#eff5fb"/><path d="M480.377,623.312a.762.762,0,0,1,.367-.776c.328-.207.635-.5,1.04-.324a.846.846,0,0,0,.831-.121,3.267,3.267,0,0,1,.606-.284c.459-.127.929-.359,1.4.029a.392.392,0,0,0,.594-.136,1.452,1.452,0,0,1,1.5-.323,19.375,19.375,0,0,0,3.745.686.641.641,0,0,0,.7-.243c.351-.44-.1-2.268-.651-2.424a1.345,1.345,0,0,1-.978-1.007c.737-.6,1.427-.044,2.134.087h0a1.8,1.8,0,0,0,1.149.89c.23.081.418.166.486.427a.336.336,0,0,0,.445.252.749.749,0,0,1,.736.165c.235.172.448.326.259.643s.116.58.044.877c-.209.1-.357-.057-.527-.112-.443-.144-.534-.127-.62.335a.711.711,0,0,1-.751.682,2.634,2.634,0,0,0-1.558.644c-.485.412-.708.355-1.262-.159-.116-.107-.213-.235-.386-.148-.149.075-.166.214-.187.377-.051.384-.072.386-.393.292-.257-.075-.507-.179-.767-.239-.18-.041-.289.075-.268.258.018.15.087.293.1.442.007.057-.067.176-.1.176-.263,0-.526-.047-.789-.048-.362,0-.411-.277-.51-.526a.364.364,0,0,0-.454-.245c-.244.051-.37-.036-.317-.3a1.728,1.728,0,0,0,.077-.332.3.3,0,0,0-.4-.274,6.842,6.842,0,0,1-1.442.6c-.2.036-.364.264-.538.412-.673.574-.993.607-1.7.081-.229-.169-.366-.2-.588-.011-.141.116-.281-.014-.357-.159C480.884,623.164,480.649,623.169,480.377,623.312Z" transform="translate(-445.795 -606.695)" fill="#e6f1f8"/><path d="M375.465,658.967a3.18,3.18,0,0,0,.216-.524.464.464,0,0,1,.475-.4,7.317,7.317,0,0,1,2.281.173.513.513,0,0,0,.653-.333c.1-.2.12-.457.4-.5a1.043,1.043,0,0,1,.963.242,6.631,6.631,0,0,0,.54.424.979.979,0,0,1-1.013.713c-.551,0-1.1.216-1.618-.159a.386.386,0,0,0-.317.032,2.463,2.463,0,0,0-.467.315,1.133,1.133,0,0,1-1.348.168A1.55,1.55,0,0,0,375.465,658.967Z" transform="translate(-357.246 -639.815)" fill="#d9ecf6"/><path d="M417.941,652.569c-.2.552-.209.612-.737.541-.35-.047-.422.334-.692.3a.717.717,0,0,0-.635.153.509.509,0,0,1-.536.105c-.508-.2-1.073.1-1.537-.12a7.561,7.561,0,0,0-1.4-.29,3.089,3.089,0,0,1,1.618-.451,1.614,1.614,0,0,0,1.668-.951.317.317,0,0,1,.392-.154.229.229,0,0,1,.162.268.359.359,0,0,0,.257.445A1.923,1.923,0,0,0,417.941,652.569Z" transform="translate(-388.428 -635.029)" fill="#dcedf7"/><path d="M351.817,651.667c.165-.272.438-.222.691-.23C352.343,651.708,352.07,651.659,351.817,651.667Z" transform="translate(-337.286 -634.819)" fill="#e9f2f9"/><path d="M334.083,654.386c.253.008.526-.041.692.23C334.521,654.608,334.249,654.658,334.083,654.386Z" transform="translate(-322.318 -637.308)" fill="#e9f2f9"/><path d="M341.469,654.619c.166-.271.438-.222.692-.229C341.995,654.661,341.722,654.612,341.469,654.619Z" transform="translate(-328.552 -637.311)" fill="#e9f2f9"/><path d="M454.255,656.091a.472.472,0,0,1-.461-.231A.472.472,0,0,1,454.255,656.091Z" transform="translate(-423.36 -638.552)" fill="#daedf6"/><path d="M348.86,653.14a.474.474,0,0,1,.461-.23A.474.474,0,0,1,348.86,653.14Z" transform="translate(-334.79 -636.062)" fill="#e9f2f9"/><path d="M471.488,591.754c.153.022.347.039.39.194.117.429.347.468.769.427a.69.69,0,0,1,.661,1,.745.745,0,0,0,.217,1c.245.227.233.441-.034.671a6.2,6.2,0,0,0-.43.534c-.349.378-.557.392-.922-.017a.549.549,0,0,0-.791-.166,1.079,1.079,0,0,1-1.266-.015,4.857,4.857,0,0,0-1.734-.541c-.4-.065-.809.206-1.238.137a4.81,4.81,0,0,0-.218-.646,1.308,1.308,0,0,1-.1-1.092c.156-.457-.08-.728-.557-.783a3.805,3.805,0,0,1-1.138-.1.516.516,0,0,0-.695.212c-.163.232-.339.3-.556.075a.641.641,0,0,0-.639-.152c-.149.032-.295.142-.436.133a2.838,2.838,0,0,0-2.068.772,1.11,1.11,0,0,1-1.629-.5,1.589,1.589,0,0,1,.381-1.872c.11-.1.262-.166.366-.275.23-.24.347-.5.084-.806a.776.776,0,0,1-.131-.31.317.317,0,0,1,.328-.372,1.253,1.253,0,0,1,.333.078.308.308,0,0,0,.44-.22,3.092,3.092,0,0,0,.168-.426c.054-.28.582-.4.315-.743-.179-.229-.5-.029-.764-.02-.227.007-.331-.167-.372-.364a1.5,1.5,0,0,1,.2-1.1c.068.088.184.171.194.265.047.445.105.848.712.8.1-.008.2.093.3.147.2.107.129.535.4.465.589-.15,1.237.24,1.77-.173a1.343,1.343,0,0,1,1.769-.029c.1.068.282.009.436.009-.017.286-.037.546-.047.806a.419.419,0,0,0,.178.4,1.913,1.913,0,0,1,.992,1.639c.029.4.491.449.664.74a1.967,1.967,0,0,0,2.634.431C470.768,591.794,471.085,591.553,471.488,591.754Z" transform="translate(-427.686 -579.973)" fill="#e9f3fa"/><path d="M518.454,610.45c-.31.215-.688.266-1.005.512a1.306,1.306,0,0,1-1.487.232,1.557,1.557,0,0,0-.45-.057c-.616-.1-.616-.1-.745-.917a.3.3,0,0,0,.147-.38c-.1-.243-.248-.468-.323-.717-.1-.329.086-.488.406-.514.014.182-.034.382.1.533.164.179.343.009.516.005.263-.006.266.2.2.515-.132.229-.1.295-.059.262s.048-.125.053-.2a.272.272,0,0,1,.108-.19c-.078.08-.169.15-.1.132.4-.14.709-.109,1-.229a.545.545,0,0,1,.32-.014c.177.045.118.409.355.334.167-.053.3-.229.505-.216.151.01.363-.023.44.061.416.46.958.376,1.48.406a.7.7,0,0,1,.609.448c-.4.077-.755.226-1.15-.143A.655.655,0,0,0,518.454,610.45Z" transform="translate(-474.652 -598.669)" fill="#def0f8"/><path d="M459.936,561.581l-.23-.23Z" transform="translate(-428.35 -558.782)" fill="#dceef7"/><path d="M288.007,656.872c-.043.052-.079.134-.132.148-.087.024-.144-.049-.1-.123.032-.054.113-.08.175-.113A1.019,1.019,0,0,1,288.007,656.872Z" transform="translate(-283.219 -639.332)" fill="#e0eef7"/><path d="M373.988,667.909l.23-.231Z" transform="translate(-356 -648.528)" fill="#d9ecf6"/><path d="M380.614,578.026c-.292-.165-.666-.246-.684-.685a1.076,1.076,0,0,1,.566-1.149.759.759,0,0,0,.409-.377.85.85,0,0,1,.895-.57c.1,0,.286-.066.3-.126.093-.535.684-.706.841-1.191a1.07,1.07,0,0,1,.805-.743,1.555,1.555,0,0,0,1.268-1.559c.033-.446.147-.531.6-.474.327.041.6.088.788-.254.1-.188.3-.209.49-.25a2.309,2.309,0,0,0,.654-.2c.654-.369,1.186-.414,1.513.416.044.112.235.193.374.235.233.072.256.206.248.425a2.192,2.192,0,0,0,.143.546.468.468,0,0,0,.463.422,1.977,1.977,0,0,1,1.666,1.189,2.518,2.518,0,0,0,.257.377,1.607,1.607,0,0,1,.09,2.1,1.861,1.861,0,0,0-.382,1.293,1.484,1.484,0,0,1-1.158,1.729c-.34.094-.474.7-.977.39a.958.958,0,0,1-.071-.557c.094-1.474.092-1.482-1.392-1.411a1.648,1.648,0,0,1-1.33-.53,1.183,1.183,0,0,0-1.73-.213,1.123,1.123,0,0,1-1.1.167A2.678,2.678,0,0,0,380.614,578.026Z" transform="translate(-361.013 -566.245)" fill="#f6f7fa"/><path d="M384.33,609.726c.042-.515.481-.849.606-1.337a.427.427,0,0,1,.585-.218,1.455,1.455,0,0,0,1.1-.006,1.1,1.1,0,0,1,1.081.2.839.839,0,0,0,1.148-.039,4.178,4.178,0,0,1,.484-.3,1.694,1.694,0,0,1,.489-.266c.229-.043.279.218.4.349a.925.925,0,0,0,.5.256c.153.033.331.1.354.254.062.408.322.406.65.434.6.052,1.105-.287,1.709-.319a2.417,2.417,0,0,1,.251,2.06,4.552,4.552,0,0,1-.145.55c-.015.048-.031.1-.046.146a.6.6,0,0,1-.233.2.817.817,0,0,1-.306.021c-.673-.378-1.131.074-1.616.422a1.763,1.763,0,0,1-.287.13,2.661,2.661,0,0,1-.615.156c-.384-.125-.839-.039-1.142-.416-.12-.15-.393-.265-.512-.155-1.038.966-1.992-.216-2.994-.094a.822.822,0,0,1-.927-.678,2.74,2.74,0,0,0-.542-1.109Z" transform="translate(-364.729 -597.944)" fill="#fbfafb"/><path d="M381.276,621.9a1.641,1.641,0,0,1,.823,1.157.472.472,0,0,0,.6.366c.286-.048.587.052.882-.091.1-.051.288.031.425.082.307.113.153.655.521.649.3,0,.357-.466.692-.522.26-.043.512-.126.77-.179.207-.043.432.032.47.219.125.613.631.522,1.04.622.122-.141.343-.082.461-.23h.23a2.406,2.406,0,0,0,2.074-.46,3.225,3.225,0,0,0,.23-.23c.322-.124.516-.5.922-.461a2.267,2.267,0,0,1-.737.987,1.277,1.277,0,0,0-.481.722c.223.142.357-.061.527-.1.092.072.1.182.126.281a.31.31,0,0,1,.1-.281c.127-.2.289-.192.486-.108a2.737,2.737,0,0,0,.436.108c.036-.251-.1-.532.132-.752.3.047.449.283.608.488.244.314.225.554-.027.932-.063.094-.147.173-.212.266-.306.446-.67.639-1,.335-.346-.318-.706-.243-1.053-.273-.3-.027-.59.044-.82-.243a1.063,1.063,0,0,0-.948-.293,1.714,1.714,0,0,1-1.3-.309.487.487,0,0,0-.422-.1c-.536.261-1.147.07-1.68.309a.91.91,0,0,1-.672.056c-.307-.106-.469.027-.682.239a1.383,1.383,0,0,1-1.992.1c-.384-.3-.761-.613-1.09-.878a.314.314,0,0,1,.154-.357,1.386,1.386,0,0,0,.438-1.828A.8.8,0,0,1,381.276,621.9Z" transform="translate(-361.675 -609.887)" fill="#f6f7fa"/><path d="M477.718,643.59c.027.014.077.031.076.04-.01.061-.013.154-.051.174a1.471,1.471,0,0,1-.3.088.944.944,0,0,1,.107-.186A.869.869,0,0,1,477.718,643.59Z" transform="translate(-443.316 -628.195)" fill="#e6f1f8"/><path d="M445.155,638.143c-.01.111,0,.285-.115.285s-.105-.174-.115-.285Z" transform="translate(-415.873 -623.598)" fill="#f6f7fa"/><path d="M555.327,629.219c-.15.347.038.512.248.7a.458.458,0,0,1,.029.749.225.225,0,0,1-.378-.027.866.866,0,0,1-.163-.3,2.965,2.965,0,0,0-.485-1.248c-.068-.083-.022-.293.025-.426a.309.309,0,0,1,.342-.234.473.473,0,0,1,.254.184A.577.577,0,0,1,555.327,629.219Z" transform="translate(-508.397 -615.401)" fill="#e9f3fa"/><path d="M520.277,615c-.068.073-.126.187-.215.223a.556.556,0,0,1-.7-.632c.022-.129.575-.3.584-.208C519.973,614.636,520.148,614.785,520.277,615Z" transform="translate(-478.697 -603.52)" fill="#d8edf6"/><path d="M430.74,629.89a2.3,2.3,0,0,1-.957.931c-.225.114-.44.14-.584-.114a.607.607,0,0,0-.533-.356c.118-.347.5-.432.7-.692a.447.447,0,0,1,.682-.08A1.162,1.162,0,0,0,430.74,629.89Z" transform="translate(-402.151 -616.266)" fill="#f6f7fa"/><path d="M424.694,635.189a.474.474,0,0,1-.461.23A.474.474,0,0,1,424.694,635.189Z" transform="translate(-398.409 -621.105)" fill="#f6f7fa"/><path d="M442.2,630.759l-.231.23Z" transform="translate(-413.378 -617.365)" fill="#f6f7fa"/><path d="M452.314,638.142l.1.053-.043.043Z" transform="translate(-422.11 -623.597)" fill="#f6f7fa"/></g><g transform="translate(28.527 61.565)"><path d="M278.08,555.358a2.272,2.272,0,0,1,1.337-.764c.93-.256,1.88-.44,2.827-.632a3.6,3.6,0,0,1,.786-.026,1.378,1.378,0,0,0,.759-.161,1.009,1.009,0,0,1,.211.094c1.265.663,1.554.617,1.888-.917a.872.872,0,0,1,.064-.211,9.606,9.606,0,0,1,2.738-2.788.4.4,0,0,1,.217-.026c.5.076,1.024.456,1.446-.156a1.031,1.031,0,0,1,.193-.109c.468-.151.958-.22,1.418-.409a1.291,1.291,0,0,1,1.254.109c.6.37,1.374.3,2,.663a.992.992,0,0,1,.4.772c.133-.3.279-.526.611-.447a.35.35,0,0,1,.166.134c-.212.7.578.433.745.767a.935.935,0,0,1,.087.18c.031.089.057.181.092.269.031.052.061.1.1.153s.087.087.134.129c.026.019.05.04.076.06a1,1,0,0,1,.148.138.555.555,0,0,1,.064.512.584.584,0,0,1-.278.336.823.823,0,0,1-.548-.282c-.407-.337-.734-.8-1.389-.651-.18.04-.493-.121-.467-.338.064-.533-.48-.709-.534-1.223-.538.516-1.035.776-1.638.254-.211-.183-.515-.011-.77-.065-.07,0-.1-.136-.152-.09s.084.086.071.161c-.03.254-.117.5-.4.51-.478.023-.388-.476-.58-.717-.544.1-.528.989-1.227.844-.036-.007-.04.085-.058.134-.38,1.033-.889,1.23-1.859.719a.378.378,0,0,0-.217-.073c.092.052-.058,0-.024.021.9.445,1.1.944.08,1.457a3.841,3.841,0,0,0-1.2,1.12,1.313,1.313,0,0,1-1.41.547,8.645,8.645,0,0,0-4.836.6.832.832,0,0,0-.261,1.487,2.927,2.927,0,0,0,1.727.672,7.567,7.567,0,0,1,1.811.093c.237.067.405.043.508-.21a.341.341,0,0,1,.317-.2c.325-.02.893.781,1.067,1.457.135.521-.223.653-.578.767a7.8,7.8,0,0,0-1.746.475c-.358.216-.874.062-1.144.488a1.339,1.339,0,0,1-1.8-.1,1.774,1.774,0,0,0-1.461-.591.436.436,0,0,1-.525-.368c.078-.422-.238-.446-.519-.52-.332-.088-.854-.04-.73-.591.137-.609.62-.227,1.064-.19C277.863,557.5,277.106,556.415,278.08,555.358Z" transform="translate(-275.063 -548.683)" fill="#e9f2f9"/><path d="M480.687,615.976a.9.9,0,0,1,.636.315c.615.969.549,2.141.949,3.174A4.849,4.849,0,0,1,480,620.623c-.6.171-1.2.353-1.818.482a11.144,11.144,0,0,1-1.934.271,13.264,13.264,0,0,0-1.862.222,4.468,4.468,0,0,1-.777.082h-2.6c-.341-.352-.208-.526.231-.588-.346-.462-.945-.2-1.344-.484-.076-.317.184-.323.366-.362a.793.793,0,0,0,.609-.413.743.743,0,0,1,.145-.166,1.889,1.889,0,0,1,1.27.238.792.792,0,0,0,.883-.106,3.1,3.1,0,0,1,.683-.393c.549-.262,1.058-.52,1.415.284a1.263,1.263,0,0,0,.524.466c.091.051.28.107.283.046.041-.886,1.016-.187,1.247-.741a.171.171,0,0,1,.214-.057c.789.607,1.361-.237,2.048-.311.443-.048.476-.851,1.1-.685.05-.312.03-.617-.352-.671-.537-.076-.82-.55-1.275-.753a.433.433,0,0,1-.273-.516.554.554,0,0,1,.58-.1A1.3,1.3,0,0,0,480.687,615.976Z" transform="translate(-447.228 -608.349)" fill="#dfeff8"/><path d="M340.542,644.834c-.089.581-.089.584-.63.632-.176.015-.359-.011-.48.161a.466.466,0,0,1-.738-.048c-.216-.306-.322.107-.477.016a.818.818,0,0,1-.2-.024,1.3,1.3,0,0,0-.39-.066,2.059,2.059,0,0,0-.585.153c-.051.017-.107.017-.154.037-.589.254-1.053-.739-1.761-.1-.472.429-1.269.245-1.895.457a.813.813,0,0,1-.228-.012.992.992,0,0,0-1.269.021c-.542.4-1.263.039-1.906.005-.444-.268-.826-.8-1.441-.306-.1.079-.269.109-.294.239-.127.659-.73.766-1.183,1.048h-.634a.457.457,0,0,1-.023-.375c.03-.117.264-.371-.145-.2-.122.051-.248-.1-.268-.232-.116-.717-.6-.594-1.067-.467a.835.835,0,0,1-1.033-.307c.072-.143.165-.311.339-.269.27.065.512-.091.771-.048l.1,0c.134-.013.269-.007.4-.008.1,0,.191,0,.287,0a1.352,1.352,0,0,0,.444-.077,1.4,1.4,0,0,1,.263-.058,1.476,1.476,0,0,0,.345-.082c.056-.026.113-.046.171-.066a1.007,1.007,0,0,0,.4-.244.939.939,0,0,1,1.064-.248c.653.184,1.321.551,2.033.159a.339.339,0,0,1,.367.076,1.944,1.944,0,0,0,1.445.217,4,4,0,0,1,1.174.069c.415.077.915.475,1.062-.326a.2.2,0,0,1,.189-.125c.741.117,1.529-.269,2.229.148a1.191,1.191,0,0,0,1.052.117c.743-.247,1.513-.4,2.251-.655a.532.532,0,0,1,.161.135C340.4,644.387,340.446,644.62,340.542,644.834Z" transform="translate(-316.755 -633.405)" fill="#e6f1f8"/><path d="M467.9,581.194a.326.326,0,0,1,.159-.317c.578-.38.893.116,1.277.382a.588.588,0,0,1,.092.524c.759-.806,1.7-.36,2.541-.447a4.4,4.4,0,0,0,1.326-.3,3.62,3.62,0,0,1,1.793,1.08,1.492,1.492,0,0,1,.422.824c-.227.407-.348,1.071-.951.252-.207-.281-.582-.063-.84.116-.192.133-.275.376-.46.523-.21.146-.152.333-.1.533s.15.452-.188.533a.67.67,0,0,1-.606-.54c-.1-.674-.775-1.008-.916-1.7-.075-.369-.7-.315-1.113-.121a1.992,1.992,0,0,1-2.229-.422,1.011,1.011,0,0,1-.29-.71A.281.281,0,0,1,467.9,581.194Z" transform="translate(-445.384 -576.892)" fill="#e0f0f8"/><path d="M445.8,551.139a1,1,0,0,1-.424.447c-.208.117-.414.224-.655.051a.634.634,0,0,0-.523-.045c-.3.059-.617.043-.917.105a.532.532,0,0,1-.432-.084c-.2-.125-.236-.117-.321.145-.056.174-.17.16-.292.18-.37.062-.371.063-.4-.324,0-.052,0-.1,0-.156a1.723,1.723,0,0,1-.582-.9,1.85,1.85,0,0,0-1.5-1.49.833.833,0,0,1-.212-.1.893.893,0,0,1-.167-.169,1.106,1.106,0,0,1-.111-.211c-.209-.446-.624-.411-1.008-.409a1.277,1.277,0,0,1-1.234-.831,1.438,1.438,0,0,1,1.01-.017l.312.006a1.572,1.572,0,0,0,.166.151q.076,0,.151,0c.084.1.234.064.323.154l.311.01q.08.076.162.151c.052,0,.1,0,.155.006.049.057.111.1.163.152.051,0,.1,0,.154.005.083.1.231.063.316.156h0a1.514,1.514,0,0,0,.167.153,4.879,4.879,0,0,1,1.71,1.574,1,1,0,0,0,.98.486,4.037,4.037,0,0,1,2.533.64,1.446,1.446,0,0,0,.161.153Z" transform="translate(-417.892 -546.998)" fill="#d3ebf6"/><path d="M261.7,613.757a5.465,5.465,0,0,1,1.541-2.088.561.561,0,0,1,.354-.136c.682.093.393.515.194.763-.34.425-.678.779-.291,1.366.135.2-.055.452-.214.637-.4.465,0,.692.318.667a.892.892,0,0,1,.921.573.5.5,0,0,0,.423.41c.127.026.314,0,.367.111.505,1.028,1.59.693,2.39,1.02a1.374,1.374,0,0,0,.921-.005c.533-.157.774.157.683.8a8.586,8.586,0,0,1-1.326-.119c-.538-.087-1.09-.1-1.634-.191-.619-.1-1.233-.222-1.84-.382-.045-.012-.078-.067-.116-.1-.728-.775-1.411-1.6-2.179-2.33A1.462,1.462,0,0,1,261.7,613.757Z" transform="translate(-261.372 -604.383)" fill="#d6ebf6"/><path d="M516.512,601.654c.053-.055.135-.1.154-.166a.925.925,0,0,1,1-.665c.417-.012.435-.029.593.4.026.071.032.168.13.135a.264.264,0,0,0,.15-.153c.053-.187.123-.34.35-.343.324.778.324.772,1.194.794a2.991,2.991,0,0,1,1.977.63c.057.049.1.114.159.158h0c-.313.7-.34.714-1.08.618-.276-.036-.55-.094-.824-.141l-.109,0a23.254,23.254,0,0,0-2.915-.491,1.053,1.053,0,0,1-.2-.069C516.842,602.167,516.158,602.334,516.512,601.654Z" transform="translate(-488.761 -594.817)" fill="#d8edf6"/><path d="M381.18,655.977a1.047,1.047,0,0,1,.634-.159c.082.1.231.067.317.159h0c.636.376.658.953.051,1.332a2.56,2.56,0,0,0-2.114-.188c-.085.04-.371.052-.151.285-.186.21-.436.149-.666.15q-2.013.01-4.026.008c-.658,0-1.316,0-1.974,0a.308.308,0,0,1-.071-.319.616.616,0,0,1,.138-.184.626.626,0,0,1,.206-.1,12.853,12.853,0,0,0,3.692-.509l.158,0a2.232,2.232,0,0,1,.983,0A4.759,4.759,0,0,0,381.18,655.977Z" transform="translate(-360.88 -643.912)" fill="#d0e9f5"/><path d="M291.711,650.655c.057-.344-.186-.527-.407-.7-.117-.091-.249.007-.326.122a.214.214,0,0,1-.312.1,3.708,3.708,0,0,0-.673-.153.551.551,0,0,0-.156,0,1.543,1.543,0,0,1-1-.374,1.32,1.32,0,0,1-.967.015.286.286,0,0,1-.219-.289c.011-.381.012-.377-.239-.487s-.5-.176-.611-.45c.07-.123.147-.233.316-.158.023.17.1.293.288.308a2.276,2.276,0,0,0,.986-.106c.21.224.405.43.6.639a1.516,1.516,0,0,0,1.435.405.463.463,0,0,0,.34-.294c.1.027.227.025.292.088a.481.481,0,0,0,.578.067,2.1,2.1,0,0,1,1.071-.141.28.28,0,0,1,.26.247c.013.077.008.156.018.234.054.443.067.454.446.256a.977.977,0,0,1,.211-.095.175.175,0,0,1,.14.035c.024.022.026.115.009.124-.3.167-.351.5-.49.767h-1.167A.474.474,0,0,1,291.711,650.655Z" transform="translate(-283.777 -637.163)" fill="#e0eef7"/><path d="M359.159,547.9a3.123,3.123,0,0,1,1.061-.8,7.874,7.874,0,0,1,3.7-1.261,3.1,3.1,0,0,1,1.52.018c-.487.574-1.261.439-1.675.936h0a2.268,2.268,0,0,1-1.586.158h0a4.748,4.748,0,0,0-1.935,1.481c-.2.259-.335.647-.8.435C359.314,548.556,359.462,548.161,359.159,547.9Z" transform="translate(-348.377 -545.659)" fill="#d4ebf5"/><path d="M343.953,565.764c.152.012.324-.02.423.133a.46.46,0,0,1,.026.375c-.039.149-.084.3-.127.445.225.363-.035.645-.159.95-.129.253-.356.473-.377.76a.731.731,0,0,1-.76.731c-.46.041-.6-.336-.761-.666a.669.669,0,0,1-.006-.668,3.477,3.477,0,0,1,.831-1.221C343.3,566.282,343.506,565.888,343.953,565.764Z" transform="translate(-333.17 -563.523)" fill="#cfe8f5"/><path d="M402.067,546.009c.064-.37.211-.615.66-.577.275.024.452-.307.754-.355-.213-.006-.427-.015-.641-.019s-.413,0-.619,0c.09-.048.178-.135.269-.138a6.216,6.216,0,0,1,1.489.011,12.452,12.452,0,0,0,2.187.13c.229.01.479-.057.661.156h-.774c-.017.139.07.144.116.19.439.439.437.441.969.447.131,0,.263-.006.394,0,.558.039.669.163.718.789a.222.222,0,0,1-.318,0h0c-.1-.111-.257-.042-.365-.1-.237-.12-.428-.372-.744-.22-.4-.1-.8-.222-1.207-.307a2.55,2.55,0,0,1-1.27-.521c-.131-.117-.3-.12-.365.092-.061.19-.162.158-.286.073-.157-.107-.285-.113-.359.1-.035.1-.093.24-.2.183C402.756,545.755,402.424,546.049,402.067,546.009Z" transform="translate(-386.682 -544.875)" fill="#dceef7"/><path d="M273.949,611.547l-.316.158c-.106-.15-.215-.3-.316-.451-.065-.1-.162-.167-.261-.117-.252.126-.459-.054-.688-.07a.288.288,0,0,1-.31-.288c-.009-.182-.042-.381.179-.474a.55.55,0,0,0,.3-.236c.078-.143.15-.283.029-.436-.049-.062-.108-.116-.155-.179-.277-.377-.237-.682.171-.894a.789.789,0,0,0,.444-.41.7.7,0,0,0,.071-.295c-.015-.141-.143-.211-.263-.27.114-.173.31-.222.477-.315.05-.055.113-.1.161-.155l.156,0a1.11,1.11,0,0,1-.29.988.47.47,0,0,0-.041.573,4.063,4.063,0,0,0,.216.5c.164.213.314.4.213.7-.033.1.067.244.115.364.058.145.157.3,0,.427-.117.1-.244-.012-.366-.042a.638.638,0,0,1-.337-.185.2.2,0,0,0-.277-.05.307.307,0,0,0-.151.333.24.24,0,0,0,.222.187c.333.055.666.116,1,.171.249.042.272.1.126.371C274.041,611.486,273.988,611.513,273.949,611.547Z" transform="translate(-270.613 -600.434)" fill="#e0eff8"/><path d="M258.971,632.266c.064.044.127.089.192.132.19.126-.04.373.139.495a3.04,3.04,0,0,1,.465.287c.123.123.151.378.286.444a.881.881,0,0,1,.535.518c.084.242.365.348.5.583a.913.913,0,0,0,.8.552c.106,0,.3-.055.261.159-.017.1-.148.136-.257.144-.078.006-.157.007-.236.01q-.079,0-.157-.006c-.085-.1-.234-.058-.32-.151a4.517,4.517,0,0,1-2.232-1.541,1.054,1.054,0,0,1-.14-1.313c.1-.082.063-.23.158-.313Z" transform="translate(-258.643 -622.892)" fill="#c9e6f3"/><path d="M455,655.357c.05-.012.14-.014.145-.036a7.2,7.2,0,0,0,.161-.8c.025-.213-.221-.271-.3-.427.209,0,.424.012.483-.267.016-.074.068-.139.154-.12.023.005.048.083.044.125-.022.264.128.377.36.408a3.587,3.587,0,0,0,.387.012,6.69,6.69,0,0,1,.783.009,1.045,1.045,0,0,1,.925.617.276.276,0,0,1-.04.214.147.147,0,0,1-.206.028c-.067-.039-.126-.093-.191-.135s-.143-.091-.2,0c-.022.033,0,.1.007.146.01.077.022.154.034.232a7.136,7.136,0,0,0-1.692.133,4.106,4.106,0,0,1-1,.023.128.128,0,0,1-.048-.118c.007-.043.017-.064.028-.065A.125.125,0,0,1,455,655.357Z" transform="translate(-433.755 -642.026)" fill="#daedf6"/><path d="M575.291,622.087c-.132-.022-.284-.058-.291-.207a2.593,2.593,0,0,0-.28-.963,2.006,2.006,0,0,1-.063-.848.581.581,0,0,0-.282-.592.95.95,0,0,1-.226-.212c-.128-.14-.074-.236.193-.352.31.188.632.359.927.567a1.531,1.531,0,0,1,.482,2C575.635,621.71,575.557,621.971,575.291,622.087Z" transform="translate(-540.246 -610.971)" fill="#cbe7f4"/><path d="M355.093,656.46q0,.159,0,.317l-2.219,0c-.025-.114-.131-.247.069-.311.024-.008.053,0,.078-.007.455-.116.822-.3.823-.866,0-.243.1-.308.355-.279.21.023.357.014.426-.214s.21-.182.37-.109a1.62,1.62,0,0,1,.733.678,1.136,1.136,0,0,1-.476.634h0C355.2,656.351,355.148,656.409,355.093,656.46Z" transform="translate(-342.72 -643.128)" fill="#e0eef7"/><path d="M340.3,583.661c-.029.448.31.751.458,1.129a.26.26,0,0,0,.345.1,2.949,2.949,0,0,0,.515-.345.138.138,0,0,0-.007-.205c-.131-.119-.1-.226.009-.329a2.244,2.244,0,0,1,.584-.511.978.978,0,0,1-.149.952.774.774,0,0,0-.152.261c-.053.163.037.383-.18.479-.19.084-.348-.095-.526-.089a1.959,1.959,0,0,1-1.027-.331.383.383,0,0,1-.186-.322q0-.078,0-.157c.1-.084.059-.233.154-.319A.335.335,0,0,1,340.3,583.661Z" transform="translate(-331.261 -579.36)" fill="#dceef7"/><path d="M435.615,665.135l-.157,0c-.4.207-.865-.057-1.268.154l-.787.007-.3-.025c-.088-.173.086-.165.134-.235a1.47,1.47,0,0,1,.2-.24.377.377,0,0,1,.2-.116,2.965,2.965,0,0,1,1.842.263C435.54,664.983,435.57,665.071,435.615,665.135Z" transform="translate(-414.366 -651.805)" fill="#c4e3f3"/><path d="M443.453,669.315a.464.464,0,0,1,.416-.154h.852c0,.051,0,.1,0,.154Z" transform="translate(-423.628 -655.829)" fill="#d0e9f5"/><path d="M282.326,661.791a.325.325,0,0,1,.32.151A.325.325,0,0,1,282.326,661.791Z" transform="translate(-279.785 -649.25)" fill="#d6ebf6"/><path d="M452.637,549.7a.321.321,0,0,1-.323-.154A.339.339,0,0,1,452.637,549.7Z" transform="translate(-431.539 -549.043)" fill="#dceef7"/><path d="M464.455,554.155a.326.326,0,0,1-.316-.156A.321.321,0,0,1,464.455,554.155Z" transform="translate(-442.095 -553.02)" fill="#dceef7"/><path d="M260.366,632.266a.326.326,0,0,1-.158.313A.315.315,0,0,1,260.366,632.266Z" transform="translate(-260.04 -622.892)" fill="#d6ebf6"/><path d="M340.176,587.916a.326.326,0,0,1-.154.319A.326.326,0,0,1,340.176,587.916Z" transform="translate(-331.292 -583.299)" fill="#e9f2f9"/><path d="M283.977,607.154l-.161.155Z" transform="translate(-281.116 -600.473)" fill="#e9f2f9"/><path d="M517.5,582.207l-.161-.154Z" transform="translate(-489.586 -578.066)" fill="#e0f0f8"/><path d="M569.231,614.666l-.16-.158Z" transform="translate(-535.771 -607.039)" fill="#dfeff8"/><path d="M467.26,555.607l-.167-.153Z" transform="translate(-444.732 -554.319)" fill="#dceef7"/><path d="M461.344,552.685l-.163-.152Z" transform="translate(-439.455 -551.711)" fill="#dceef7"/><path d="M458.387,551.222l-.162-.151Z" transform="translate(-436.816 -550.406)" fill="#dceef7"/><path d="M449.523,548.242l-.166-.151Z" transform="translate(-428.899 -547.746)" fill="#dceef7"/><path d="M316.7,561.739q0,.079,0,.158c0,.452-.053.913.645.887.241-.009.248.231.164.423a.954.954,0,0,1-.245.4c-.588.408-.677,1.144-1.12,1.645a.746.746,0,0,0-.059,1.072c.319.356.671.211.984-.037a1.507,1.507,0,0,1,.876-.319,16.678,16.678,0,0,1,2.5-.154c.566.051.9.283.817.9-.047.352.2.657.153,1.008-.105.346-.363.3-.64.271a8.679,8.679,0,0,0-2.424.494c-.186.029-.292.212-.383.375h0a.3.3,0,0,1-.313-.335c0-.1,0-.2,0-.3-.322-.079-.322-.079-.377.219-.037.2-.14.282-.307.238a.515.515,0,0,1-.213-.091c-.136-.124-.231-.126-.406-.025a3.515,3.515,0,0,1-1.81.448c-.136,0-.292-.015-.331-.158-.088-.328-.389-.194-.579-.3a2.165,2.165,0,0,1-1.464.011c-.141-.046-.314.13-.323.279-.023.4-.137.531-.448.468a1.4,1.4,0,0,1-.509-.2c-.23-.159-.489.051-.68-.064a.527.527,0,0,0-.586.013.393.393,0,0,1-.376.028.738.738,0,0,0-.541-.06.462.462,0,0,1-.631-.275c-.095-.178-.175-.157-.368.021-.325.3-.437.318-.811.091-.088-.053-.178-.179-.265-.137-.4.19-.719-.025-1.034-.2a.445.445,0,0,0-.629.09,2.08,2.08,0,0,1-.311.238c-.129.142-.35.008-.476.158h0c-.086.092-.235.058-.317.158h-.317c-.129.143-.35.006-.476.158h-.316c-.126-.15-.346-.018-.476-.158h0c.174-.382.552-.355.874-.422a4.252,4.252,0,0,0,1.243-.321c.152-.083.269-.2.1-.364a.71.71,0,0,1-.164-.51c-.011-.107-.043-.217-.16-.249-.224-.061-.264-.2-.246-.415.012-.141-.121-.222-.269-.228-.163-.007-.237.093-.256.238-.017.127-.022.255-.031.366-.223.083-.31-.113-.461-.134-.208-.028-.414-.067-.623-.093a.691.691,0,0,0-.3,0,.9.9,0,0,1-.693-.013c-.134-.057-.255.012-.381.049a.626.626,0,0,1-.6-.107.916.916,0,0,0-.792-.265c-.128.028-.235-.109-.306-.219a1.122,1.122,0,0,0-.559-.523c-.223-.082-.273-.577-.064-.666.378-.162.458-.473.577-.794a.187.187,0,0,1,.317-.086.348.348,0,0,0,.549-.047,1.112,1.112,0,0,1,.629-.28c.45-.114.952-.058,1.347-.379a.4.4,0,0,1,.379-.022c.252.074.508.135.76.209a1.084,1.084,0,0,0,.7.017.93.93,0,0,1,.9.074.292.292,0,0,0,.415-.077,4.181,4.181,0,0,1,.813-.851c.273-.17.09-.7.585-.636.32.04.439-.34.74-.405.214-.046.247-.263.115-.434a3.932,3.932,0,0,0-.267-.292c-.148-.156-.3-.205-.465-.018-.065.071-.145.022-.194-.049a.158.158,0,0,1,0-.213c.138-.118.292-.217.452-.334.3.185.518.462.918.431a1.456,1.456,0,0,0,.869-.308c.156-.127.179-.24.064-.4a.942.942,0,0,1-.123-.2.253.253,0,0,1,.262-.365.391.391,0,0,1,.285.11c.131.138.286.078.293-.06.024-.452.345-.611.676-.779.113-.057.2-.224.339-.157.213.106.027.267.015.406a1.445,1.445,0,0,0-.007.236.342.342,0,0,0,.208.312c.16.062.243-.056.295-.181s.079-.248.117-.373c.321.057.611-.254.916-.118a4.463,4.463,0,0,1,.7.489c.017.012.049.005.112.011.286-.216.521-.562.922-.66a.274.274,0,0,1,.214.031c.063.055.005.135-.035.2-.1.157-.111.274.108.356.411.154.408.165.351.539-.008.051-.039.1-.048.149a.856.856,0,0,0,0,.147,1.036,1.036,0,0,0,1.033.134c.223-.052.263-.009.366.31.035.107.085.233.175.238C316.341,561.21,316.406,561.624,316.7,561.739Z" transform="translate(-294.181 -557.437)" fill="#eff5fb"/><path d="M461.183,562.816c.157,0,.315-.008.471.008a.532.532,0,0,1,.291.091c.307.28.607.569.892.871a.491.491,0,0,1,.153.349,1.128,1.128,0,0,0,.324.921.972.972,0,0,1,.088.3.527.527,0,0,1-.417-.186.909.909,0,0,0-.851-.289c-.006-.174.028-.362-.159-.476-.048-.058-.106-.105-.158-.158h0q-.077-.081-.158-.158h0c-.092-.086-.059-.235-.159-.317q0-.079,0-.158C461.519,563.294,461.184,563.122,461.183,562.816Z" transform="translate(-439.457 -560.89)" fill="#dceef7"/><path d="M360.683,558.887l.159-.95a.44.44,0,0,0,.353-.145c.181-.253.352-.513.523-.772.027-.041.021-.131.048-.139.607-.188.968-.783,1.582-.95.05-.013.125.068.189.106a2.649,2.649,0,0,1-.683.617,3.731,3.731,0,0,0-1.114,1.056.819.819,0,0,1-.266.28,1.033,1.033,0,0,0-.559.7C360.891,558.772,360.763,558.823,360.683,558.887Z" transform="translate(-349.737 -554.743)" fill="#dceef7"/><path d="M455.135,561.508c.081.18.37.114.4.289a1.44,1.44,0,0,1-.087.5,1.232,1.232,0,0,0-.3-.241c-.1-.04-.171.085-.247.153a.305.305,0,0,1-.293.05c-.15-.037-.269-.251-.174-.358a.665.665,0,0,0,.216-.555h.318a1.431,1.431,0,0,0,.158.158Z" transform="translate(-433.408 -559.583)" fill="#e0f0f8"/><path d="M387.285,555.494a5.565,5.565,0,0,1,1.586-.158c-.125.193-.247.388-.377.576-.11.16-.218.174-.356-.011a.329.329,0,0,0-.445-.15C387.478,555.83,387.371,555.66,387.285,555.494Z" transform="translate(-373.486 -554.201)" fill="#dceef7"/><path d="M446.4,556.674a.939.939,0,0,0,.276-.115c.088-.076.2-.146.248-.036.12.267.429.267.587.468-.437-.114-.445.32-.624.523-.248-.066-.178-.3-.277-.43A2.53,2.53,0,0,1,446.4,556.674Z" transform="translate(-426.258 -555.223)" fill="#e0f0f8"/><path d="M464.137,571.691a.326.326,0,0,1,.159.317A.326.326,0,0,1,464.137,571.691Z" transform="translate(-442.094 -568.815)" fill="#e0f0f8"/><path d="M467.094,576.121l.158.158Z" transform="translate(-444.733 -572.769)" fill="#e0f0f8"/><path d="M465.616,574.644l.158.158Z" transform="translate(-443.414 -571.451)" fill="#e0f0f8"/><path d="M416.293,562.28l-.066-.036.03-.03Z" transform="translate(-399.323 -560.354)" fill="#eff5fb"/><path d="M480.376,621.691a.524.524,0,0,1,.252-.534c.226-.143.437-.343.716-.223a.582.582,0,0,0,.572-.083,2.254,2.254,0,0,1,.417-.2c.316-.087.639-.247.964.02a.27.27,0,0,0,.408-.093,1,1,0,0,1,1.032-.222,13.327,13.327,0,0,0,2.576.472.441.441,0,0,0,.483-.167c.241-.3-.071-1.56-.448-1.667a.925.925,0,0,1-.673-.692c.507-.412.981-.03,1.468.06h0a1.241,1.241,0,0,0,.791.612c.159.056.288.114.334.294a.231.231,0,0,0,.306.174.516.516,0,0,1,.506.113c.162.118.308.224.178.442s.08.4.03.6c-.144.069-.246-.039-.362-.077-.3-.1-.367-.087-.426.23a.489.489,0,0,1-.517.469,1.811,1.811,0,0,0-1.072.443c-.334.283-.487.244-.868-.109-.079-.074-.147-.162-.265-.1-.1.052-.114.147-.129.26-.035.264-.05.265-.27.2-.177-.052-.349-.123-.528-.164-.124-.028-.2.051-.184.177.012.1.06.2.072.3,0,.039-.046.121-.071.121-.181,0-.362-.032-.543-.033-.249,0-.283-.19-.351-.362a.25.25,0,0,0-.312-.169c-.168.035-.255-.025-.218-.207a1.2,1.2,0,0,0,.053-.228.209.209,0,0,0-.275-.189,4.7,4.7,0,0,1-.992.414c-.136.025-.251.182-.37.284-.463.395-.683.417-1.173.056-.157-.116-.251-.134-.4-.008-.1.08-.193-.01-.246-.11C480.725,621.588,480.563,621.591,480.376,621.691Z" transform="translate(-456.589 -610.26)" fill="#e6f1f8"/><path d="M375.465,658.464a2.187,2.187,0,0,0,.149-.36.319.319,0,0,1,.327-.274,5.034,5.034,0,0,1,1.569.119.353.353,0,0,0,.449-.229c.067-.139.082-.315.277-.346a.718.718,0,0,1,.662.166,4.529,4.529,0,0,0,.371.291.673.673,0,0,1-.7.49c-.379,0-.757.148-1.113-.11a.266.266,0,0,0-.218.022,1.706,1.706,0,0,0-.321.217.779.779,0,0,1-.927.115A1.067,1.067,0,0,0,375.465,658.464Z" transform="translate(-362.934 -645.291)" fill="#d9ecf6"/><path d="M416.214,652.294c-.138.38-.144.421-.507.372-.241-.032-.291.23-.476.206a.493.493,0,0,0-.437.105.35.35,0,0,1-.369.072c-.35-.135-.738.067-1.057-.083a5.2,5.2,0,0,0-.96-.2,2.125,2.125,0,0,1,1.113-.31,1.11,1.11,0,0,0,1.148-.654.218.218,0,0,1,.27-.106.157.157,0,0,1,.111.184.247.247,0,0,0,.177.306A1.323,1.323,0,0,0,416.214,652.294Z" transform="translate(-395.914 -640.229)" fill="#dcedf7"/><path d="M351.817,651.6c.114-.187.3-.153.476-.158C352.179,651.624,351.991,651.59,351.817,651.6Z" transform="translate(-341.822 -640.006)" fill="#e9f2f9"/><path d="M334.083,654.386c.174.006.362-.028.476.158C334.384,654.539,334.2,654.573,334.083,654.386Z" transform="translate(-325.991 -642.639)" fill="#e9f2f9"/><path d="M341.469,654.548c.114-.186.3-.153.476-.158C341.831,654.577,341.643,654.543,341.469,654.548Z" transform="translate(-332.584 -642.643)" fill="#e9f2f9"/><path d="M454.111,656.019a.325.325,0,0,1-.317-.159A.325.325,0,0,1,454.111,656.019Z" transform="translate(-432.86 -643.955)" fill="#daedf6"/><path d="M348.86,653.068a.326.326,0,0,1,.317-.158A.326.326,0,0,1,348.86,653.068Z" transform="translate(-339.182 -641.321)" fill="#e9f2f9"/><path d="M467.564,590.1c.105.015.239.027.268.133.08.3.239.322.529.294a.474.474,0,0,1,.455.688.512.512,0,0,0,.149.688c.169.156.161.3-.023.461a4.262,4.262,0,0,0-.3.367c-.24.26-.383.269-.635-.012a.377.377,0,0,0-.544-.114.742.742,0,0,1-.871-.011,3.343,3.343,0,0,0-1.193-.372c-.273-.045-.556.141-.852.094a3.309,3.309,0,0,0-.15-.444.9.9,0,0,1-.069-.751c.108-.314-.055-.5-.383-.539a2.618,2.618,0,0,1-.783-.072.355.355,0,0,0-.478.146c-.112.159-.233.2-.383.051a.441.441,0,0,0-.439-.1c-.1.022-.2.1-.3.092a1.952,1.952,0,0,0-1.422.531.764.764,0,0,1-1.12-.344,1.093,1.093,0,0,1,.262-1.288c.076-.072.18-.114.252-.189.158-.165.239-.344.058-.554a.534.534,0,0,1-.09-.213.218.218,0,0,1,.226-.256.863.863,0,0,1,.229.054.212.212,0,0,0,.3-.151,2.131,2.131,0,0,0,.115-.293c.037-.192.4-.276.217-.511-.123-.158-.346-.02-.525-.014-.156.005-.228-.115-.255-.25a1.03,1.03,0,0,1,.14-.759c.046.061.127.118.134.182.032.306.072.583.49.549.066-.005.14.064.208.1.137.073.088.368.278.32.405-.1.851.165,1.218-.119a.924.924,0,0,1,1.217-.02c.067.047.194.006.3.006-.012.2-.026.376-.032.555a.288.288,0,0,0,.122.273,1.316,1.316,0,0,1,.682,1.127c.02.277.338.309.457.509a1.353,1.353,0,0,0,1.812.3C467.07,590.128,467.287,589.962,467.564,590.1Z" transform="translate(-437.436 -581.997)" fill="#e9f3fa"/><path d="M517.239,609.875c-.213.148-.473.183-.691.353a.9.9,0,0,1-1.023.159,1.071,1.071,0,0,0-.31-.039c-.424-.071-.424-.072-.512-.631a.209.209,0,0,0,.1-.262c-.067-.167-.171-.322-.222-.493-.068-.226.059-.335.279-.354.01.125-.024.263.072.367.113.123.236.006.355,0,.181,0,.183.14.137.354-.091.158-.069.2-.041.181s.033-.086.037-.141a.189.189,0,0,1,.075-.131c-.053.055-.116.1-.07.091.278-.1.488-.075.69-.157a.374.374,0,0,1,.22-.009c.122.031.081.281.244.229.115-.037.206-.158.347-.148.1.007.25-.016.3.042.286.316.659.259,1.018.279a.483.483,0,0,1,.419.308c-.272.053-.519.156-.791-.1A.451.451,0,0,0,517.239,609.875Z" transform="translate(-487.111 -601.771)" fill="#def0f8"/><path d="M459.865,561.509l-.158-.158Z" transform="translate(-438.138 -559.584)" fill="#dceef7"/><path d="M287.93,656.844c-.03.036-.054.092-.091.1-.06.016-.1-.034-.069-.085s.078-.055.12-.078A.691.691,0,0,1,287.93,656.844Z" transform="translate(-284.637 -644.78)" fill="#e0eef7"/><path d="M373.988,667.838l.158-.159Z" transform="translate(-361.615 -654.506)" fill="#d9ecf6"/><path d="M380.4,575.581c-.2-.114-.458-.169-.471-.472a.74.74,0,0,1,.389-.79.521.521,0,0,0,.281-.259.585.585,0,0,1,.615-.392c.069,0,.2-.045.2-.086.064-.368.47-.486.578-.819a.736.736,0,0,1,.554-.511,1.07,1.07,0,0,0,.872-1.073c.022-.307.1-.365.412-.326.225.028.413.06.542-.174.071-.129.206-.144.337-.172a1.59,1.59,0,0,0,.45-.14c.45-.254.816-.285,1.041.286.03.077.162.133.258.162.16.05.176.142.171.293a1.51,1.51,0,0,0,.1.375.322.322,0,0,0,.319.291,1.359,1.359,0,0,1,1.146.818,1.743,1.743,0,0,0,.177.259,1.106,1.106,0,0,1,.062,1.444,1.28,1.28,0,0,0-.263.889,1.021,1.021,0,0,1-.8,1.19c-.234.065-.326.483-.672.269a.658.658,0,0,1-.049-.383c.064-1.014.063-1.02-.958-.97a1.133,1.133,0,0,1-.915-.365.814.814,0,0,0-1.19-.147.773.773,0,0,1-.753.115A1.842,1.842,0,0,0,380.4,575.581Z" transform="translate(-366.917 -567.478)" fill="#f6f7fa"/><path d="M384.33,609.109c.029-.354.33-.584.417-.92a.294.294,0,0,1,.4-.15,1,1,0,0,0,.758,0,.76.76,0,0,1,.743.136.577.577,0,0,0,.79-.027,2.888,2.888,0,0,1,.333-.209,1.162,1.162,0,0,1,.336-.183c.158-.03.192.15.278.24a.636.636,0,0,0,.344.176c.106.023.227.069.243.174.042.28.221.279.447.3.411.036.76-.2,1.175-.22a1.662,1.662,0,0,1,.172,1.417,3.12,3.12,0,0,1-.1.378l-.032.1a.41.41,0,0,1-.16.135.562.562,0,0,1-.211.014c-.463-.26-.778.051-1.112.29a1.219,1.219,0,0,1-.2.089,1.829,1.829,0,0,1-.423.107c-.264-.086-.577-.027-.785-.286-.083-.1-.27-.183-.352-.106-.714.664-1.37-.148-2.059-.065a.565.565,0,0,1-.637-.466,1.885,1.885,0,0,0-.373-.763Z" transform="translate(-370.848 -601.005)" fill="#fbfafb"/><path d="M381.1,621.9a1.129,1.129,0,0,1,.566.8.325.325,0,0,0,.412.252c.2-.033.4.036.607-.063.072-.035.2.022.292.057.211.078.105.45.358.446.2,0,.245-.321.476-.359.179-.029.352-.087.53-.123.142-.029.3.022.323.151.086.422.434.359.716.428.084-.1.236-.056.317-.158h.158a1.655,1.655,0,0,0,1.427-.317,2.212,2.212,0,0,0,.159-.158c.221-.086.355-.347.634-.317a1.56,1.56,0,0,1-.507.679.878.878,0,0,0-.331.5c.153.1.246-.042.362-.066.063.049.067.125.086.194a.213.213,0,0,1,.072-.194c.087-.135.2-.132.334-.074a1.9,1.9,0,0,0,.3.074c.025-.173-.067-.366.091-.517.2.032.309.195.418.336.168.216.155.381-.019.641-.043.065-.1.119-.146.183-.21.307-.461.439-.688.23s-.486-.167-.724-.188c-.209-.019-.406.03-.564-.168a.731.731,0,0,0-.652-.2,1.179,1.179,0,0,1-.9-.212.335.335,0,0,0-.29-.067c-.369.18-.789.048-1.156.212a.625.625,0,0,1-.462.039c-.211-.073-.323.018-.469.164a.951.951,0,0,1-1.37.067c-.264-.208-.523-.422-.75-.6a.216.216,0,0,1,.106-.245.953.953,0,0,0,.3-1.258A.546.546,0,0,1,381.1,621.9Z" transform="translate(-367.617 -613.637)" fill="#f6f7fa"/><path d="M477.63,643.59c.018.01.053.021.052.028-.007.042-.009.106-.035.12a1.011,1.011,0,0,1-.21.06.655.655,0,0,1,.074-.128A.594.594,0,0,1,477.63,643.59Z" transform="translate(-453.968 -633.001)" fill="#e6f1f8"/><path d="M445.083,638.143c-.007.076,0,.2-.079.2s-.073-.12-.079-.2Z" transform="translate(-424.942 -628.138)" fill="#f6f7fa"/><path d="M555.083,628.973c-.1.239.026.352.171.483a.315.315,0,0,1,.02.516.155.155,0,0,1-.26-.019.593.593,0,0,1-.112-.2,2.04,2.04,0,0,0-.334-.858c-.047-.058-.015-.2.017-.293a.213.213,0,0,1,.235-.161.327.327,0,0,1,.174.127A.4.4,0,0,1,555.083,628.973Z" transform="translate(-522.802 -619.469)" fill="#e9f3fa"/><path d="M519.989,614.8c-.047.05-.086.129-.147.153a.382.382,0,0,1-.481-.435c.015-.088.4-.207.4-.143C519.78,614.549,519.9,614.651,519.989,614.8Z" transform="translate(-491.389 -606.903)" fill="#d8edf6"/><path d="M430.093,629.754a1.583,1.583,0,0,1-.658.64c-.155.079-.3.1-.4-.078a.418.418,0,0,0-.367-.245c.081-.239.341-.3.481-.476a.307.307,0,0,1,.469-.055A.8.8,0,0,0,430.093,629.754Z" transform="translate(-410.428 -620.383)" fill="#f6f7fa"/><path d="M424.55,635.189a.326.326,0,0,1-.317.158A.326.326,0,0,1,424.55,635.189Z" transform="translate(-406.47 -625.501)" fill="#f6f7fa"/><path d="M442.126,630.759l-.159.158Z" transform="translate(-422.303 -621.546)" fill="#f6f7fa"/><path d="M452.314,638.142l.066.036-.03.03Z" transform="translate(-431.539 -628.138)" fill="#f6f7fa"/></g><path d="M-55.725,3.593c-.4-7.746-.456-15.948-.456-24.15,0-5.468,0-10.936-.114-16.347l3.759-.285c3.93,8.2,7.746,17.315,11.79,26.2l.8-25.745,5.753-.285c-.74,13.442-1.2,26.828-1.538,41.238a14.966,14.966,0,0,1-1.709.057h-2.278c-4.044-7.917-7.632-17.088-11.335-24.72.171,7.519.057,16.632.285,23.695Zm17.372,6.265c3.873,0,7.576-.513,10.822-.684-.228-14.638-.627-30.131-1.481-44.143-1.709-1.595-2.848-2.392-4.1-3.531l-8.2.4L-41.6-27.278c-1.652-4.044-3.645-6.778-5.24-9.512l-5.468-1.766-5.3.285c.114,14.411.171,28.65.57,42.89A49.217,49.217,0,0,0-54.87,9.631l10.879-.513c.114-1.88,0-5.525,0-10.082C-42.909.8-40.46,5.7-38.352,9.859Zm31.27-34.175a16.617,16.617,0,0,1,.513,4.044c0,.968-.057,1.994-.114,3.3-.057,2.449-.171,5.981-.285,8.487C-7.2-3.7-7.481.916-8.221,2.34-9.247,4.391-10.784,4.9-13.746,4.9c-.513,0-1.082-.057-1.652-.057-2.734-.114-5.525-.456-5.981-3.759a43.747,43.747,0,0,1-.285-5.525c0-1.994.057-4.044.057-5.924v-2.677c0-3.531.228-6.835.456-10.366.171-2.62,1.88-3.873,5.012-3.873a14.717,14.717,0,0,1,1.823-.114C-11.582-27.392-7.652-26.766-7.082-24.316Zm-4.671,4.044a2.128,2.128,0,0,0-2.335-2.335,2.363,2.363,0,0,0-2.506,2.278c-.285,5.753-.968,18.341-.4,19.423A2.537,2.537,0,0,0-14.772.119a1.873,1.873,0,0,0,2.051-1.481C-12.151-3.071-11.7-12.811-11.753-20.272ZM.095,5.644C.379.859.55-6.887.55-11.615c0-2.962,0-5.924-.057-8.658-.057-2.051-6.607-7.632-12.93-8.2-.854-.057-1.595-.114-2.335-.114-5.639,0-7.462,2.278-7.689,5.3-.285,3.93-.342,10.993-.342,14.98,0,3.474.057,9.74.74,12.018.456,1.481,7.12,6.778,11.9,6.949H-9.3C-4.063,10.656-.133,9.175.095,5.644Zm13.157-27.8c-.171,5.753.114,11.62,0,17.6C13.2-.223,16.328-1.077,20.486-.735l-.342,5.069a19.414,19.414,0,0,1-3.133.285A14.81,14.81,0,0,1,9.493,2.682C8.468,1.885,8.3.916,7.784.005,7.1-6.944,7.727-14.406,7.841-22.38c-1.139-.114-2.107-.114-3.247-.228A9.844,9.844,0,0,1,4.48-24.6c0-.8,0-1.652.057-2.506l3.531-.171c-.057-2.848.171-5.639.228-7.234l5.069-.114c0,1.937-.114,4.215-.228,7.519,0,.057,3.987.228,6.778.228.057,1.253.057,2.791.171,4.9C17.581-22.095,15.132-22.095,13.252-22.152ZM21-27.677c.171-2.107.342-4.386.4-5.411l-7.291-2.9-6.892.114c0,1.766-.342,4.386-.342,7.4l-3.3.171c-.057,1.025-.114,2.335-.114,3.588,0,1.025.057,2.051.114,2.791.968,1.253,2.051,2.449,2.962,3.531-.285,9.341-.342,15.55.456,19.936.285,1.595,3.93,7.177,7.4,8.259a19.969,19.969,0,0,0,5.924.74c1.31,0,2.734-.114,4.443-.285.57-2.62,1.025-6.607,1.538-9C24.7.119,22.821-1.02,21.283-1.932c-.854,0-2.221.228-2.62-.285l1.31-14.809c1.709-.114,3.418-.114,5.411-.4.057-2.677.456-5.525.627-7.519A52.156,52.156,0,0,0,21-27.677ZM43.668-10.7c-2.62.285-5.981.74-8.829,1.082,0,.74-.114,4.9,1.595,6.493,1.937,1.823,4.044,2.506,7.063,2.9l.228,5.468C37.8,4.9,36.092,3.65,33.871,1.6,30.8-1.134,30-8.14,29.884-13.437c-.057-1.595-.171-3.474-.171-5.3,0-3.759.57-7.4,3.588-8.373a20.062,20.062,0,0,1,4.443-.57c1.823,0,3.588.4,4.671,1.88,1.139,1.595,1.424,4.158,1.424,7.12C43.839-16.228,43.668-13.551,43.668-10.7ZM39.282-21.354a1.92,1.92,0,0,0-2.051-1.823,1.577,1.577,0,0,0-.513.057c-1.823.342-2.051,2.9-2.051,6.095v2.449c1.025.057,3.3-.228,4.9-.171A32.831,32.831,0,0,0,39.282-21.354ZM50.275-5.862c.285-4.728.57-8.373.57-11.335a22.148,22.148,0,0,0-.285-4.044c-.684-3.873-7.006-7.063-10.879-7.4C39-28.7,38.371-28.7,37.8-28.7a16.756,16.756,0,0,0-4.5.513c-3.987,1.082-4.614,5.468-4.614,9.74,0,1.88.114,3.645.114,5.183C28.859-8.653,30-1.191,32.675,2,35.3,5.131,39.852,9.346,49.99,9.574c.285-3.076.684-6.493.74-8.487C49.706.461,45.719-.678,44.408-1.248c-.4-.057-1.2-.285-1.595-.342a6.486,6.486,0,0,1-.456-2.848A70.366,70.366,0,0,0,50.275-5.862ZM54.718-.109C57-1.134,59.673-1.761,60.129-4.21c.4-2.449-1.025-3.987-2.335-7.746a22.053,22.053,0,0,1-1.538-6.892,7.745,7.745,0,0,1,2.62-5.867,14.721,14.721,0,0,1,6.265-3.133L66.964-23.4a9.061,9.061,0,0,0-4.728,3.474,2.635,2.635,0,0,0-.342,1.424c0,2.051,1.31,5.183,2.506,7.576a15.314,15.314,0,0,1,1.823,6.778,7.648,7.648,0,0,1-5.582,7.746c-1.823.57-3.133.854-4.614,1.367Zm.114,5.753,4.614,4.785c3.19-.854,6.721-1.88,8.715-3.361a10.436,10.436,0,0,0,4.386-8.829,23.48,23.48,0,0,0-1.31-6.949,33.065,33.065,0,0,1-1.823-6.55c-.114-1.88.911-3.759,3.645-4.557l-1.253-7.177c-1.481-.456-5.24-1.709-6.721-2.164-2.221.684-4.955,1.139-7.746,4.158a9.022,9.022,0,0,0-2.449,6.436,20.358,20.358,0,0,0,1.31,6.55c.968,2.791,3.19,5.867,2.221,7.974-.74,1.652-2.791,1.937-5.3,2.962Z" transform="translate(193.781 98.534)" fill="#1ea4d9"/><path d="M5.8-11.369a12.671,12.671,0,0,0-3.4-1.876l-.715.983a12.33,12.33,0,0,1,3.342,1.984ZM4.853-6.794A15.042,15.042,0,0,0,1.369-8.438l-.7,1A15.475,15.475,0,0,1,4.121-5.669ZM4.71-3.917A53.322,53.322,0,0,1,1.333,1.8l1.108.893C3.5,1.032,4.746-1.166,5.675-3.042Zm7.183,5.039V-3.2h4.128V-4.454H11.894V-8.3h4.771V-9.546H12.341l.893-1.09a18.454,18.454,0,0,0-4.128-2.788l-.858,1a16.987,16.987,0,0,1,4.021,2.877H5.961V-8.3h4.575v3.842H6.64V-3.2h3.9V1.122H5.372V2.39H17.04V1.122ZM29.567-11.119a18.414,18.414,0,0,1-.876,1.787l.447.125H24.17l.518-.143a7.7,7.7,0,0,0-.768-1.769Zm4.825,1.912H29.96c.322-.5.679-1.126,1.019-1.769l-.679-.143H33.48v-1.072H27.351v-1.2h-1.3v1.2H19.953v1.072h3.288l-.608.143a8.744,8.744,0,0,1,.751,1.769H19.149v1.09H34.392ZM31.139-5.168h-8.72V-6.223h8.72Zm0,2.019h-8.72v-1.09h8.72Zm1.287-4.074H21.15v5.075h4.324l-.679.661A12.287,12.287,0,0,1,27.762.353l.822-.84a11.986,11.986,0,0,0-2.805-1.662h6.647ZM19.631,2.533A6.618,6.618,0,0,0,22.24-.844l-1.126-.411a5.915,5.915,0,0,1-2.5,3.091Zm5.879-.858c-.929,0-1.072-.089-1.072-.518V-1.13h-1.3V1.157c0,1.287.482,1.608,2.269,1.608h3.377c1.43,0,1.841-.465,1.966-2.448A4.117,4.117,0,0,1,29.62-.129c-.089,1.59-.2,1.8-.965,1.8ZM30.693-.79a13.776,13.776,0,0,1,3.127,3.2l1.072-.661a14.411,14.411,0,0,0-3.181-3.163Zm18.8,0H45.2v-1.34h4.289ZM45.2-4.436h4.289v1.251H45.2ZM40.038-7.6V-8.885H43.88V-7.6Zm9.167-1.287V-7.6h-4V-8.885Zm3.449,5.7H50.813V-5.419H45.2V-6.669h5.325V-9.814H45.2v-1.036h7.112v-1.09H45.2v-1.43H43.88v1.43H36.911v1.09H43.88v1.036H38.77v3.145H43.88v1.251H38.269v.983H43.88v1.251H36.572v1.054H43.88V-.79H38.108V.228H43.88V1.461c0,.3-.107.411-.447.429-.3,0-1.376.018-2.448-.018A4.406,4.406,0,0,1,41.45,3a10.67,10.67,0,0,0,2.966-.214c.536-.2.786-.5.786-1.322V.228h4.289s-.331.6,0,.8,1.322,0,1.322,0V-2.131h1.841Zm16.029-3.7H62.768V-8.6h5.915Zm0,2.716H62.768V-5.9h5.915Zm0,2.734H62.768V-3.185h5.915ZM61.517-9.618V-.4h8.452V-9.618h-4.2c.179-.536.393-1.162.572-1.769h4.324v-1.144H60.642v1.144h4.2c-.107.572-.25,1.215-.393,1.769Zm-.751,5.736-2.573.876v-7.076H60.57v-1.233H54.53v1.233h2.323v7.523c-1.019.322-1.948.625-2.7.858l.536,1.251C56.442-1.058,58.783-1.9,61-2.7Zm2.663,3.77A13.205,13.205,0,0,1,59.194,2a9.989,9.989,0,0,1,.84.947A16.821,16.821,0,0,0,64.591.621Zm2.948.786A21.86,21.86,0,0,1,69.9,2.962l1.054-.8a23,23,0,0,0-3.592-2.2Z" transform="translate(164.851 148.378)" fill="#262626"/><g transform="translate(178.358)"><path d="M281.031,640.766V647.1a3.165,3.165,0,0,0,3.164,3.165h37.978a3.165,3.165,0,0,0,3.164-3.165v-6.329Zm0,0" transform="translate(-281.031 -602.789)" fill="#b5dbff"/><path d="M669.143,640.766v6.33a3.165,3.165,0,0,1-3.165,3.165h2.2a3.164,3.164,0,0,0,3.164-3.165v-6.33Zm0,0" transform="translate(-627.033 -602.789)" fill="#97d0ff"/><path d="M281.031,390.512V419a3.164,3.164,0,0,0,3.164,3.164h37.978A3.164,3.164,0,0,0,325.337,419V390.512Zm0,0" transform="translate(-281.031 -377.853)" fill="#edf5ff"/><path d="M669.143,390.512V419a3.164,3.164,0,0,1-3.165,3.164h2.2A3.164,3.164,0,0,0,671.339,419V390.512Zm0,0" transform="translate(-627.033 -377.853)" fill="#d5e8fe"/><path d="M325.337,307.749v-7.912a3.164,3.164,0,0,0-3.164-3.164H284.2a3.164,3.164,0,0,0-3.164,3.164v7.912Zm0,0" transform="translate(-281.031 -293.508)" fill="#ff435b"/><path d="M354.45,322.3h-1.583a.716.716,0,1,1,0-1.433h1.583a.716.716,0,0,1,0,1.433Zm0,0" transform="translate(-344.956 -315.259)" fill="#e3374e"/><path d="M401.375,322.3h-1.582a.716.716,0,0,1,0-1.433h1.582a.716.716,0,0,1,0,1.433Zm0,0" transform="translate(-387.133 -315.259)" fill="#e3374e"/><path d="M573.424,322.3h-1.583a.716.716,0,0,1,0-1.433h1.583a.716.716,0,0,1,0,1.433Zm0,0" transform="translate(-541.776 -315.259)" fill="#e3374e"/><path d="M620.344,322.3h-1.582a.716.716,0,0,1,0-1.433h1.582a.716.716,0,1,1,0,1.433Zm0,0" transform="translate(-583.949 -315.259)" fill="#e3374e"/><path d="M374.872,271.718a1.582,1.582,0,1,0,3.164,0v-4.747a1.582,1.582,0,1,0-3.165,0v4.747Zm0,0" transform="translate(-365.377 -265.389)" fill="#596c76"/><path d="M593.846,271.718a1.582,1.582,0,1,0,3.165,0v-4.747a1.582,1.582,0,1,0-3.165,0Zm0,0" transform="translate(-562.198 -265.389)" fill="#596c76"/><path d="M668.17,296.673h-2.2a3.165,3.165,0,0,1,3.165,3.164v7.912h2.2v-7.912a3.164,3.164,0,0,0-3.164-3.164Zm0,0" transform="translate(-627.028 -293.508)" fill="#e3374e"/><rect width="44.307" height="1.433" transform="translate(0 10.36)" fill="#e3374e"/><path d="M436.829,468.9H422.587a.791.791,0,0,1-.791-.792v-2a1.585,1.585,0,0,1,.167-.708l1.248-2.5a1.584,1.584,0,0,0,.167-.708V459.4a6.329,6.329,0,1,1,12.659,0V462.2a1.585,1.585,0,0,0,.167.708l1.248,2.5a1.58,1.58,0,0,1,.167.708v2a.791.791,0,0,1-.791.792Zm0,0" transform="translate(-407.555 -434.087)" fill="#ffda2d"/><path d="M497.984,465.4l-1.248-2.5a1.585,1.585,0,0,1-.167-.708V459.4a6.33,6.33,0,0,0-6.329-6.33,6.4,6.4,0,0,0-1.1.1,6.331,6.331,0,0,1,5.231,6.233V462.2a1.581,1.581,0,0,0,.167.708l1.248,2.5a1.586,1.586,0,0,1,.167.708v2a.792.792,0,0,1-.791.792h2.2a.791.791,0,0,0,.791-.792v-2a1.58,1.58,0,0,0-.167-.708Zm0,0" transform="translate(-468.086 -434.087)" fill="#fdbf00"/><path d="M479.217,609.47a2.373,2.373,0,1,1-2.723,1.963,2.373,2.373,0,0,1,2.723-1.963Zm0,0" transform="translate(-456.691 -574.631)" fill="#fdbf00"/><path d="M421.963,571.507a1.579,1.579,0,0,0-.167.708v.343H437.62v-.343a1.585,1.585,0,0,0-.167-.708l-.191-.382H422.154Zm0,0" transform="translate(-407.555 -540.193)" fill="#fdbf00"/></g></g></g></svg>