<svg xmlns="http://www.w3.org/2000/svg" viewBox="0 0 396.001 142.895"><g transform="translate(-16 -6829.511)"><path d="M-71.275-.846l-.94-33.135c4.183-.282,9.118-.329,13.912-.47l.047,4.042-9.165.564c-.141,3.9.188,5.734.141,7.708a10.889,10.889,0,0,0,.188,2.068l6.486.282-.047,3.948-6.486.329c.235,5.452.188,10.2.235,14.993Zm17.766-32.2a24.616,24.616,0,0,0-3.854-2.444c-3.055.047-13.207.376-15.933.611L-72.31-.047c.8,1.5,1.6,3.1,2.35,4.512a82.938,82.938,0,0,0,9.447-.8c-.094-5.264-.141-9.447-.423-13.959,1.739-.047,3.525-.564,5.687-.8.094-2.068.282-3.525.282-5.264a12.76,12.76,0,0,0-.047-1.316,44.161,44.161,0,0,0-4.747-3.2,6.356,6.356,0,0,1-1.551-.235c-.047-1.457-.094-2.538-.047-3.713,2.3,0,4.794-.235,7.614-.423Zm13.489,20.492c-2.162.235-4.935.611-7.285.893,0,.611-.094,4.042,1.316,5.358a9.53,9.53,0,0,0,5.828,2.4l.188,4.512C-44.862.329-46.272-.7-48.1-2.4c-2.538-2.256-3.2-8.037-3.29-12.408-.047-1.316-.141-2.867-.141-4.371,0-3.1.47-6.11,2.961-6.909a16.554,16.554,0,0,1,3.666-.47A4.479,4.479,0,0,1-41.055-25c.94,1.316,1.175,3.431,1.175,5.875C-39.88-17.108-40.021-14.9-40.021-12.549Zm-3.619-8.789a1.584,1.584,0,0,0-1.692-1.5,1.3,1.3,0,0,0-.423.047c-1.5.282-1.692,2.4-1.692,5.029v2.021c.846.047,2.726-.188,4.042-.141A27.09,27.09,0,0,0-43.64-21.338Zm9.071,12.784c.235-3.9.47-6.909.47-9.353a18.275,18.275,0,0,0-.235-3.337c-.564-3.2-5.781-5.828-8.977-6.11-.564-.047-1.081-.047-1.551-.047a13.826,13.826,0,0,0-3.713.423c-3.29.893-3.807,4.512-3.807,8.037,0,1.551.094,3.008.094,4.277.047,3.807.987,9.964,3.2,12.6C-46.93.517-43.17,4-34.8,4.183c.235-2.538.564-5.358.611-7-.846-.517-4.136-1.457-5.217-1.927-.329-.047-.987-.235-1.316-.282a5.352,5.352,0,0,1-.376-2.35A58.063,58.063,0,0,0-34.569-8.554Zm17.061-14.194c.376,1.128.423,5.17.423,9.917,0,4.23,0,9.071.282,13.066-1.034,0-1.974.047-2.82.047a8.6,8.6,0,0,1-1.6-.094l-.141-2.444A11.777,11.777,0,0,1-26.156-.8a3.3,3.3,0,0,1-2.35-.846A6.553,6.553,0,0,1-30.2-6.486a7.48,7.48,0,0,1,.846-3.713c1.175-2.021,5.358-3.055,8.037-3.1-.094-2.4.141-7.52-.846-8.131-1.222-.752-4.653-.846-5.922-.846-.047-1.175-.188-1.739-.188-2.82,0-.282.047-.564.047-.893a22.574,22.574,0,0,1,2.585-.141c2.444,0,4.982.376,6.439,1.269A4.779,4.779,0,0,1-17.507-22.748ZM-21.456-10.2a10.928,10.928,0,0,0-3.572,1.034,2.477,2.477,0,0,0-1.457,2.4c0,1.363.517,1.88,1.739,1.88a11.7,11.7,0,0,0,3.384-.752A37.517,37.517,0,0,0-21.456-10.2Zm1.034,13.207,1.5,2.068c2.209-.141,4.042-.282,6.533-.517.235-4.559.423-8.225.658-12.784.188-3.619.282-6.345.282-9.964,0-2.773-3.055-5.123-4.653-6.251a14.169,14.169,0,0,0-8.695-2.632,24.057,24.057,0,0,0-4.277.282l.141,5.17c.47,1.175,1.222,2.961,1.786,4.23A14.823,14.823,0,0,1-22.3-16.4c.047.517,0,1.269,0,2.162-6.11.705-7.661,2.961-8.178,3.948a7.357,7.357,0,0,0-.8,3.525A11.18,11.18,0,0,0-29.916-1.6c.8,1.551,3.008,5.828,6.063,5.593A6.063,6.063,0,0,0-20.422,3.008ZM-.776-22.372C-1.1-17.014-1.058-12.032-1.152-7.1-1.2-3.525,1.668-4.277,5.569-4L5.334-.141a24.174,24.174,0,0,1-3.1.235A12.253,12.253,0,0,1-4.207-1.5,5.288,5.288,0,0,1-5.523-3.76c-.564-5.64,0-12.173.188-18.612-.94-.047-1.974-.047-2.961-.141,0-1.457.047-2.82.094-3.76l2.961-.141c0-1.927.235-4.559.235-6.11l4.465.188c-.094,1.457-.094,3.572-.094,5.875,0,.047,2.961.188,5.311.188a3.2,3.2,0,0,1,.094.846c0,.517-.047,1.175-.047,1.833a10.223,10.223,0,0,0,.047,1.222C2.7-22.466.775-22.325-.776-22.372ZM3.642-27.4c-.047-1.5-.047-3.713-.188-4.606l-3.2-1.41-6.345-.094c0,1.692,0,4.042-.141,6.063l-3.055.188c.047.8.047,2.068.047,3.525V-21.9c.611,1.175,2.115,3.807,2.632,4.7-.235,7.99-.329,11.139.376,14.8.235,1.269,3.055,6.533,6.58,7.05a43.6,43.6,0,0,0,5.781.282c.94,0,1.927,0,2.914-.047.141-3.008.517-6.11.564-7.943-1.034-.705-2.162-1.222-3.29-1.88a5.885,5.885,0,0,1-1.88-.282c-.423-4.418-.235-8.6-.282-11.7,1.175-.094,2.726-.141,4.935-.376v-1.645c0-2.773-.141-5.17-.235-6.768-.752-.282-2.115-.987-3.2-1.551Zm10.2,22.7c-.376-3.478-.893-14.382-.893-20.586l3.854-.282c.235,5.781.423,12.079,1.081,18.189.141,1.41.846,1.927,1.692,1.927a5.231,5.231,0,0,0,2.773-1.222l.141-18.894c1.222-.047,2.256-.141,3.149-.141a8.32,8.32,0,0,1,1.081.047c.047,2.914.094,5.875.094,8.883,0,5.358-.094,10.951-.141,17.2C25.451.564,23.947.47,22.49.564l-.329-2.679a10.18,10.18,0,0,1-4.23,1.081A3.726,3.726,0,0,1,13.842-4.7ZM25.169,4.935c1.692-.188,4.183-.329,6.721-.517.517-10.481.8-19.881.846-27.542-2.4-1.692-3.9-2.679-5.311-3.478H23.618c-.8,0-1.551,0-2.162.047l.047,4.371L17.414-26.7l-5.593.47c.094,6.345.47,16.074,1.222,23.03.094,1.034,3.243,7,5.781,7.1h1.034a5.661,5.661,0,0,0,3.76-1.034A13.965,13.965,0,0,1,25.169,4.935ZM40.631-26.649c.047,1.739.235,3.525.235,4.465,2.538-.329,4.512-.517,7.379-.658.188,1.081.376,2.4.423,3.149-2.632.7-4.606,1.081-7.52,1.692.282,7.567.564,13.348.752,18.142-1.6,0-3.525-.282-4.512-.376-.376-8.413-.329-17.108-.423-25.944Zm4.935,2.961c-.047-.752-.094-1.41-.188-2.444a35,35,0,0,1-4.371-1.6l-5.029.611c.094,7.8.235,20.821.47,27.965.752,1.081,1.457,2.256,2.679,3.9,2.632-.282,6.345-.752,8.46-1.034-.423-7.285-.705-11.327-.846-17.014L52.9-15.228c.094-1.363.141-2.585.141-3.76s-.047-2.256-.047-3.384a38.65,38.65,0,0,1-4.324-1.6C47.446-23.876,46.412-23.735,45.566-23.688Zm21.15-.7c.94,1.41,1.128,3.525,1.128,5.687,0,1.645-.094,3.29-.094,4.794l-.094.94c-2.068.094-5.311.376-7.661.564,0,1.786-.235,5.029,1.128,6.392C63-4.794,64.883-4.794,66.717-4.7V-.188H65.683C62.769-.188,60-.423,58.4-1.974,56.377-3.948,56-8.319,56-12.267c0-.752.047-1.5.047-5.17,0-3.619.282-7.473,3.2-8.272a21.85,21.85,0,0,1,3.337-.376A4.758,4.758,0,0,1,66.717-24.393Zm-2.632,3.619a2.038,2.038,0,0,0-2.162-1.833c-1.927,0-1.88,4.183-1.833,5.828a40.08,40.08,0,0,0,4.089.141C64.179-18,64.132-19.411,64.085-20.774Zm8.6,11.891c.329-3.243.752-6.533.752-9.212a17.308,17.308,0,0,0-.141-2.3c-.47-3.2-5.64-6.063-8.789-6.439a22.305,22.305,0,0,0-2.35-.141A14.961,14.961,0,0,0,59.2-26.7c-3.995.94-4.23,5.781-4.23,9.729v3.2c0,3.807.329,9.118,2.021,11.562C60.607,3.055,64.6,4,69.631,4c.752,0,1.5,0,2.3-.047.141-2.538.329-4.747.423-7.285-1.833-.987-3.572-1.739-5.076-2.4-.235.047-.893-.047-1.222,0a10.692,10.692,0,0,1-.658-3.29C67.61-8.977,70.054-8.93,72.686-8.883Z" transform="translate(213 6924.966)" fill="#7ebf41"/><g transform="translate(-715.5 4470.343)"><rect width="12" height="4" transform="translate(916.499 2470.623)" fill="#1ea4d9"/><rect width="12" height="4" transform="translate(928.499 2470.623)" fill="#d95b34"/></g><path d="M-61.53-10.02l-1.155-.735a5.471,5.471,0,0,1-1.155.09h-7.47c-.66,0-1.275-.015-1.695-.045.03.36.06.75.06,1.11V-6.4c0,.33-.03.675-.06,1.08h1.725a10.529,10.529,0,0,1-.045-1.08v-2.79h7.8a11.219,11.219,0,0,1-1.4,4.8,9.475,9.475,0,0,1-5.55,3.72L-69.165.66A10.794,10.794,0,0,0-63.48-3.6a14.646,14.646,0,0,0,1.71-5.595A4.613,4.613,0,0,1-61.53-10.02Zm5.175-1.155-1.095,1.17a32.535,32.535,0,0,1,3.75,3.18l1.185-1.215A31.476,31.476,0,0,0-56.355-11.175ZM-57.9-1.14-56.895.405A16.539,16.539,0,0,0-51.15-1.83a15.337,15.337,0,0,0,5.265-5.43L-46.8-8.895A14.282,14.282,0,0,1-52-3.24,15.586,15.586,0,0,1-57.9-1.14Zm23.1-10.725h-1.71a11.543,11.543,0,0,1,.135,1.365c.015.36.03.81.045,1.305h-5.235a11.771,11.771,0,0,1-1.5-.105v1.59q.742-.045,1.53-.045h4.575a18.291,18.291,0,0,1-6.765,5.52L-42.645-1a20.78,20.78,0,0,0,6.375-5.37c.03,1.83.045,3.7.045,4.83,0,.4-.15.6-.555.6a15.257,15.257,0,0,1-2.055-.165l.12,1.545c.795.045,1.665.09,2.49.09,1.005,0,1.515-.48,1.515-1.35-.015-1.935-.075-4.71-.12-6.93h2.19c.375,0,.915.015,1.32.03V-9.3a12.071,12.071,0,0,1-1.395.105H-34.86c0-.51-.015-.945-.015-1.305A8.332,8.332,0,0,1-34.8-11.865Zm6.405,5.175v1.86c.51-.045,1.41-.075,2.235-.075H-18c.66,0,1.35.06,1.68.075V-6.69c-.375.03-.96.09-1.68.09h-8.16C-26.97-6.6-27.9-6.66-28.395-6.69Zm17.805-4.995-.855,1.29c.93.525,2.535,1.59,3.3,2.145l.885-1.29C-7.965-10.05-9.66-11.16-10.59-11.685ZM-13.065-.99-12.18.555A17.575,17.575,0,0,0-7.2-1.3a17.857,17.857,0,0,0,5.865-5.37l-.915-1.59A15.428,15.428,0,0,1-7.995-2.7,16.472,16.472,0,0,1-13.065-.99Zm.195-7.29-.855,1.29a37.54,37.54,0,0,1,3.345,2.1l.87-1.335C-10.215-6.72-11.925-7.785-12.87-8.28ZM5.73-9.33l-1.6.39a4.118,4.118,0,0,1,.39.96c.09.315.255.885.45,1.59-.825.15-1.455.27-1.665.3-.48.075-.87.135-1.305.165l.36,1.44c.42-.09,1.6-.345,2.955-.615C5.865-3,6.54-.48,6.75.255A7.221,7.221,0,0,1,6.99,1.44l1.62-.405C8.5.75,8.34.2,8.25-.075,8.025-.78,7.335-3.285,6.75-5.4c1.89-.39,3.72-.75,4.08-.825A14.191,14.191,0,0,1,8.415-3.3l1.305.66a21.729,21.729,0,0,0,3.21-4.515l-.96-.675a3.256,3.256,0,0,1-.645.21c-.54.12-2.895.57-4.92.96-.2-.7-.36-1.29-.45-1.635C5.865-8.67,5.775-9.03,5.73-9.33Zm12.615-1.845-1.095,1.17A32.534,32.534,0,0,1,21-6.825L22.185-8.04A31.476,31.476,0,0,0,18.345-11.175ZM16.8-1.14l1,1.545A16.539,16.539,0,0,0,23.55-1.83a15.337,15.337,0,0,0,5.265-5.43L27.9-8.895a14.282,14.282,0,0,1-5.2,5.655A15.586,15.586,0,0,1,16.8-1.14ZM43.59-5.265a5.552,5.552,0,0,0-5.88-5.655A6.5,6.5,0,0,0,31-4.68c0,2.505,1.365,4.155,2.85,4.155s2.73-1.7,3.63-4.755a29.869,29.869,0,0,0,.9-4.215,3.988,3.988,0,0,1,3.63,4.185,4.314,4.314,0,0,1-3.63,4.26,9.271,9.271,0,0,1-1.335.21L37.935.57C41.58.045,43.59-2.115,43.59-5.265ZM32.52-4.83a5.014,5.014,0,0,1,4.275-4.635,23.881,23.881,0,0,1-.825,3.87c-.69,2.31-1.4,3.285-2.07,3.285C33.255-2.31,32.52-3.105,32.52-4.83ZM51.54-3.135A10.83,10.83,0,0,1,53.325-.75l1.11-.72A10.727,10.727,0,0,0,52.59-3.78Zm7.68-3.78V-8.2H55.65V-9.84h2.9V-11.1h-2.9v-1.5H54.27v1.5h-2.8v1.26h2.8V-8.2H50.58v1.29h5.505V-5.31H51.12L51-6.15l-1.575.465V-8.34h1.4V-9.66h-1.4v-2.925h-1.29V-9.66H47.16c.12-.63.195-1.29.27-1.935l-1.2-.21a17.387,17.387,0,0,1-.93,4.89,10.521,10.521,0,0,1,1.005.63A13,13,0,0,0,46.92-8.34h1.215v3.015c-1.035.3-1.98.555-2.73.735l.36,1.335,2.37-.705V1.17h1.29V-4.365l1.44-.45v.8h5.22V-.48c0,.21-.075.27-.315.27-.24.015-1.05.015-1.89-.015a5.545,5.545,0,0,1,.435,1.4A8.08,8.08,0,0,0,56.79.945C57.3.7,57.465.3,57.465-.45V-4.02H59.1V-5.31H57.465V-6.915ZM62.79-12.6A11.127,11.127,0,0,1,60.3-9.69a10.2,10.2,0,0,1,.72,1.065,14.912,14.912,0,0,0,3.03-3.51Zm1.485,5.1h5.04v-3.825h-.99V-8.6H67.35v-3.99H66.21V-8.6h-.945V-11.34h-.99v2.22l-1.2-.435a14.209,14.209,0,0,1-2.925,4.11,11.486,11.486,0,0,1,.78,1.26,14.041,14.041,0,0,0,1.095-1.29V1.17H63.3V-7.32c.36-.585.69-1.185.975-1.77Zm8.115-.975a19.641,19.641,0,0,1-.735,4.17,24.348,24.348,0,0,1-.765-3.75c.045-.135.09-.285.135-.42Zm1.9,0V-9.66H71.37c.21-.87.39-1.785.54-2.715l-1.29-.21a14.879,14.879,0,0,1-1.86,6.09l.03.03h-4.5v1.11h1.9v1.23H64.53v1.08h1.665v1.44c-.84.075-1.62.135-2.235.18L64.14-.21c1.44-.165,3.4-.36,5.265-.585V-1.89c-.675.06-1.365.12-2.025.18V-3.045h1.71v-1.08H67.38v-1.23h1.8v-.66a6.2,6.2,0,0,1,.435.615c.195-.285.375-.6.555-.93a20.406,20.406,0,0,0,.855,3.54A7.006,7.006,0,0,1,67.935.27a5.719,5.719,0,0,1,.885.945,8.5,8.5,0,0,0,2.79-2.61,6.964,6.964,0,0,0,1.98,2.52,4.165,4.165,0,0,1,.855-1.05,6.212,6.212,0,0,1-2.16-2.7,18.3,18.3,0,0,0,1.335-5.85Z" transform="translate(215 6970.966)" fill="#383838"/><g transform="translate(191.596 6829.511)"><path d="M5203.349,3123h0a2.666,2.666,0,1,0,3.961,2.777A5.8,5.8,0,0,0,5203.349,3123Z" transform="translate(-5190.603 -3084.564)" fill="#7ebf41"/><path d="M5322.9,2714.172l.042-.038.029-.027,0-.019c-.435-3.974-1.733-4.3-3.259-4.3s-2.823.323-3.257,4.291l0,.025.071.065A13.647,13.647,0,0,1,5322.9,2714.172Z" transform="translate(-5298.495 -2706.123)" fill="#fedd78"/><path d="M5202.169,3006.783v-.013l.021,0,.094-.075a13.62,13.62,0,0,1-4.614-4.622c-2.55,3.16-1.912,4.305-.8,5.417S5199.1,3009.231,5202.169,3006.783Z" transform="translate(-5188.062 -2973.867)" fill="#fedd78"/><path d="M5150.587,2886.493l.065-.071a13.644,13.644,0,0,1,0-6.378l-.064-.07c-3.99.432-4.317,1.732-4.317,3.26s.323,2.824,4.3,3.258Z" transform="translate(-5142.603 -2862.019)" fill="#fedd78"/><path d="M5199.693,2763.215a13.563,13.563,0,0,1,2.591-2.025c-3.16-2.55-4.3-1.912-5.417-.8s-1.749,2.257.8,5.417A13.516,13.516,0,0,1,5199.693,2763.215Z" transform="translate(-5188.061 -2751.582)" fill="#fedd78"/><path d="M5240.514,2818.008a9.877,9.877,0,1,0,0-13.975A9.818,9.818,0,0,0,5240.514,2818.008Z" transform="translate(-5226.288 -2789.806)" fill="#fff67f"/><path d="M5443.162,2765.782c2.55-3.16,1.912-4.305.8-5.417s-2.257-1.752-5.417.8a13.51,13.51,0,0,1,4.617,4.617Z" transform="translate(-5410.342 -2751.559)" fill="#fedd78"/><path d="M5441.182,3004.661a13.665,13.665,0,0,1-2.587,2.029c3.156,2.549,4.3,1.91,5.413.8s1.749-2.257-.8-5.417A13.521,13.521,0,0,1,5441.182,3004.661Z" transform="translate(-5410.387 -2973.867)" fill="#fedd78"/><path d="M5412.931,3123a2.666,2.666,0,1,0,4.679,1.228A5.8,5.8,0,0,0,5412.931,3123Z" transform="translate(-5383.249 -3084.562)" fill="#7ebf41"/><path d="M5512.17,2879.969l-.066.071a13.659,13.659,0,0,1,0,6.379l.066.071.026,0c3.967-.435,4.29-1.732,4.29-3.257S5516.161,2880.4,5512.17,2879.969Z" transform="translate(-5477.726 -2862.016)" fill="#fedd78"/><path d="M5322.913,3075.691a13.654,13.654,0,0,1-6.389,0l-.066.06c.432,3.987,1.732,4.315,3.259,4.315s2.828-.328,3.259-4.317l-.028-.026Z" transform="translate(-5298.503 -3041.307)" fill="#fedd78"/><path d="M5139.59,2680.762c1.439-2.418,2.156-5.5-.8-8.45-2.976-2.976-6.056-2.238-8.452-.8-.581-2.368-2.107-5.409-6.548-5.409s-5.973,3.048-6.551,5.415c-2.419-1.44-5.5-2.156-8.451.8s-2.237,6.032-.8,8.45c-2.389.587-5.415,2.124-5.415,6.55,0,4.446,3.046,5.971,5.415,6.551-1.44,2.418-2.156,5.5.8,8.45.052.051.1.1.154.147a9.52,9.52,0,0,0-1.905,1.732l-.674.8.353.989a9.5,9.5,0,0,0,7.241,6.166,9.312,9.312,0,0,0,1.645.146,9.519,9.519,0,0,0,6.354-2.451v2.708h3.667v-2.708a9.517,9.517,0,0,0,6.354,2.451,9.322,9.322,0,0,0,1.645-.146,9.5,9.5,0,0,0,7.241-6.166l.352-.989-.673-.8a9.53,9.53,0,0,0-1.906-1.732c.051-.049.1-.1.154-.147,2.954-2.955,2.238-6.032.8-8.45,2.367-.579,5.415-2.1,5.415-6.551S5141.966,2681.344,5139.59,2680.762Zm-3.392-5.856c1.111,1.112,1.749,2.256-.8,5.417a13.517,13.517,0,0,0-4.616-4.616C5133.941,2673.153,5135.085,2673.791,5136.2,2674.905Zm-15.664-.849c.435-3.967,1.732-4.29,3.258-4.29s2.823.323,3.258,4.3l0,.019-.029.027-.042.038a13.653,13.653,0,0,0-6.379,0l-.07-.065Zm3.258,3.379a9.877,9.877,0,1,1-6.988,2.89A9.852,9.852,0,0,1,5123.792,2677.435Zm-12.407-2.53c1.111-1.111,2.256-1.749,5.417.8a13.5,13.5,0,0,0-4.617,4.617C5109.635,2677.162,5110.272,2676.017,5111.385,2674.905Zm-5.14,12.407c0-1.528.328-2.828,4.316-3.26l.065.07a13.645,13.645,0,0,0,0,6.378l-.066.071-.019,0C5106.568,2690.136,5106.245,2688.838,5106.245,2687.312Zm5.94,6.99a13.6,13.6,0,0,0,4.615,4.622l-.094.075-.021,0v.013c-3.071,2.448-4.2,1.808-5.3.7S5109.635,2697.462,5112.185,2694.3Zm2.42,14.239a2.666,2.666,0,1,1,.718-4.006h0a2.666,2.666,0,1,1-.718,4.006Zm9.187-3.683c-1.528,0-2.827-.329-3.26-4.315l.067-.06a13.644,13.644,0,0,0,6.388,0l.035.033.028.026C5126.62,2704.53,5125.319,2704.858,5123.792,2704.858Zm9.185,3.683a2.666,2.666,0,1,1,3.961-2.777A5.8,5.8,0,0,1,5132.977,2708.541Zm3.221-8.822c-1.113,1.113-2.257,1.752-5.413-.8a13.6,13.6,0,0,0,4.612-4.62C5137.947,2697.462,5137.31,2698.607,5136.2,2699.719Zm.849-9.149-.026,0-.065-.071a13.658,13.658,0,0,0,0-6.378l.065-.07c3.991.432,4.316,1.732,4.316,3.26S5141.015,2690.135,5137.047,2690.569Z" transform="translate(-5102.578 -2666.098)" fill="#231815"/></g><path d="M33,69.31a1.5,1.5,0,0,1-1.35-.844l-33-67.81A1.5,1.5,0,0,1-.656-1.349a1.5,1.5,0,0,1,2.005.692l33,67.81A1.5,1.5,0,0,1,33,69.31Z" transform="translate(93.387 6874.061)" fill="#7ebf41"/><path d="M0,69.31a1.494,1.494,0,0,1-.655-.152,1.5,1.5,0,0,1-.692-2.005l33-67.81a1.5,1.5,0,0,1,2.005-.692A1.5,1.5,0,0,1,34.349.656l-33,67.81A1.5,1.5,0,0,1,0,69.31Z" transform="translate(298.557 6874.061)" fill="#7ebf41"/><g transform="matrix(0.985, -0.174, 0.174, 0.985, 359, 6893.743)"><path d="M19.525,5.56C19.082,2.067,17.312-.089,13.715,0,11.049.015,3.867,1.468,3.4,4.056c.221.919,8.548,1.036,9.638,2.818,1.976,2.859-5.567,2.766-7.6,2.976C2.873,10.214-3.349,11.536,2.3,11.9c4.1.266,10.539-1.466,11.119.049.371,2-2.782,3.122-4.481,3.9-2.106.963-4.718,1.3-4.938,2.192-.6,2.437,8.826,1.864,10.233,1.455,4.572-1.329,7.613-2.417,7.639-7.574-.057-1.508-1.378-2.176-.351-3.237.251-.453,4.069-1.282,3.622-1.544a11.858,11.858,0,0,0-4.757-1.257Z" transform="translate(0 0)" fill="#1ea4d9"/><path d="M1.409,1.733C1.489,1.289.861-.633.124.212c-.469.558.5,1.709,1.083,1.539Z" transform="translate(15.051 1.616)" fill="#fff"/><path d="M1.351,1.986C1.274,1.236.992.266.213,0c-.569.937.057,2.369,1.24,2.095Z" transform="translate(12.426 1.793)" fill="#fff"/><path d="M.942.236c.317.61.658,3.288-.6,2.321C-.489,1.886.394.576.928,0Z" transform="translate(17.88 13.122)" fill="#fff"/><path d="M.948,2.33C1.094,1.866,1.59-.651.492.16c-.526.364-.876,2.733.27,2.33Z" transform="translate(14.421 15.498)" fill="#fff"/><path d="M.412,2.369C.826,2.107,1.477.287.763,0,.171-.105-.357,1.943.311,2.31Z" transform="translate(11.052 16.343)" fill="#fff"/><path d="M.81,1.426C.955.962,1.407-.205.353.031-.23.2-.068,1.857.671,1.5Z" transform="translate(7.847 17.155)" fill="#fff"/><path d="M1.387,1.31C1.386.82.436-.518.088.215c-.414.751.745,1.116,1.19,1.2Z" transform="translate(9.371 2.222)" fill="#fff"/><path d="M.624.468C.545-.771-.734.863.616.681Z" transform="translate(6.96 3.004)" fill="#fff"/></g><g transform="matrix(0.985, -0.174, 0.174, 0.985, 378.293, 6918.523)"><path d="M23.3,6.637C22.774,2.466,20.662-.106,16.368,0,13.186.017,4.615,1.751,4.062,4.841c.263,1.1,10.2,1.237,11.5,3.363,2.358,3.412-6.644,3.3-9.075,3.552C3.428,12.19-4,13.768,2.74,14.206c4.888.317,12.579-1.75,13.271.059.443,2.385-3.32,3.726-5.348,4.653-2.513,1.15-5.631,1.555-5.893,2.616C4.049,24.442,15.3,23.757,16.983,23.27c5.457-1.586,9.086-2.884,9.118-9.039-.069-1.8-1.644-2.6-.419-3.864.3-.542,4.856-1.53,4.322-1.843a14.155,14.155,0,0,0-5.677-1.5Z" transform="translate(0 0)" fill="#1ea4d9"/><path d="M1.68,2.069c.1-.53-.653-2.824-1.532-1.815-.561.665.6,2.039,1.293,1.837Z" transform="translate(17.963 1.929)" fill="#fff"/><path d="M1.613,2.369C1.521,1.474,1.184.317.254,0-.425,1.118.322,2.827,1.735,2.5Z" transform="translate(14.83 2.14)" fill="#fff"/><path d="M1.125.282c.378.727.786,3.924-.721,2.77C-.584,2.25.471.688,1.108,0Z" transform="translate(21.339 15.661)" fill="#fff"/><path d="M1.131,2.78C1.306,2.226,1.9-.777.588.191-.04.624-.458,3.453.91,2.973Z" transform="translate(17.211 18.496)" fill="#fff"/><path d="M.491,2.827C.987,2.516,1.763.344.911,0,.2-.125-.426,2.319.372,2.758Z" transform="translate(13.19 19.505)" fill="#fff"/><path d="M.967,1.7C1.14,1.149,1.679-.244.421.037c-.695.2-.5,2.178.38,1.754Z" transform="translate(9.366 20.474)" fill="#fff"/><path d="M1.656,1.564C1.654.978.52-.618.1.256c-.494.9.888,1.333,1.42,1.429Z" transform="translate(11.184 2.652)" fill="#fff"/><path d="M.745.559C.65-.921-.876,1.03.735.813Z" transform="translate(8.306 3.585)" fill="#fff"/></g><g transform="translate(16 6915.801)"><path d="M278.395,557.235a2.957,2.957,0,0,1,1.74-.995c1.211-.333,2.448-.573,3.68-.822a4.685,4.685,0,0,1,1.023-.034,1.794,1.794,0,0,0,.988-.21,1.32,1.32,0,0,1,.275.123c1.647.863,2.023.8,2.458-1.193a1.138,1.138,0,0,1,.083-.275,12.508,12.508,0,0,1,3.565-3.63.524.524,0,0,1,.282-.034c.646.1,1.334.594,1.883-.2a1.336,1.336,0,0,1,.251-.142c.609-.2,1.247-.287,1.846-.533a1.681,1.681,0,0,1,1.632.142c.784.481,1.788.4,2.6.863a1.292,1.292,0,0,1,.517,1.005c.174-.394.363-.685.8-.582a.456.456,0,0,1,.216.174c-.276.911.752.564.969,1a1.219,1.219,0,0,1,.113.234c.041.116.074.235.119.35.04.068.08.136.126.2s.114.114.175.167c.034.025.065.052.1.078a1.3,1.3,0,0,1,.193.179.723.723,0,0,1,.083.666.759.759,0,0,1-.362.438,1.07,1.07,0,0,1-.713-.367c-.529-.439-.956-1.038-1.808-.848-.235.053-.642-.157-.608-.439.083-.694-.624-.922-.695-1.592-.7.671-1.347,1.01-2.132.33-.275-.238-.67-.014-1-.084-.092,0-.126-.177-.2-.117s.11.111.092.209c-.039.331-.152.646-.523.664-.622.031-.505-.619-.755-.934-.708.135-.687,1.287-1.6,1.1-.047-.01-.053.111-.076.174-.495,1.345-1.158,1.6-2.42.936a.491.491,0,0,0-.283-.1c.12.068-.076.006-.031.028,1.168.579,1.436,1.229.1,1.9a5,5,0,0,0-1.566,1.457,1.709,1.709,0,0,1-1.836.712,11.254,11.254,0,0,0-6.295.775,1.083,1.083,0,0,0-.339,1.936,3.811,3.811,0,0,0,2.248.875,9.839,9.839,0,0,1,2.358.121c.308.087.527.055.661-.274a.444.444,0,0,1,.412-.261c.423-.026,1.162,1.017,1.389,1.9.175.678-.291.85-.753,1a10.15,10.15,0,0,0-2.273.618c-.467.281-1.137.081-1.489.635a1.743,1.743,0,0,1-2.349-.129,2.31,2.31,0,0,0-1.9-.769.567.567,0,0,1-.684-.479c.1-.55-.31-.58-.675-.678-.432-.115-1.111-.053-.95-.769.179-.793.807-.3,1.385-.247C278.112,560.028,277.127,558.61,278.395,557.235Z" transform="translate(-274.467 -548.545)" fill="#e9f2f9"/><path d="M483.946,615.976a1.168,1.168,0,0,1,.828.41c.8,1.261.715,2.787,1.236,4.132a6.311,6.311,0,0,1-2.954,1.507c-.786.222-1.569.46-2.366.628a14.509,14.509,0,0,1-2.518.352,17.253,17.253,0,0,0-2.423.288,5.816,5.816,0,0,1-1.012.107q-1.692,0-3.383,0c-.444-.458-.27-.685.3-.765-.451-.6-1.231-.255-1.75-.63-.1-.413.239-.42.476-.471a1.032,1.032,0,0,0,.792-.537.964.964,0,0,1,.188-.215,2.458,2.458,0,0,1,1.653.31,1.031,1.031,0,0,0,1.149-.138,4.033,4.033,0,0,1,.889-.511c.715-.341,1.377-.676,1.842.369a1.645,1.645,0,0,0,.682.607c.118.067.365.14.369.06.054-1.154,1.323-.243,1.623-.965a.223.223,0,0,1,.279-.075c1.027.79,1.771-.309,2.666-.4.576-.062.619-1.107,1.427-.891.065-.406.039-.8-.458-.874-.7-.1-1.067-.716-1.66-.981a.564.564,0,0,1-.355-.672.721.721,0,0,1,.755-.132A1.7,1.7,0,0,0,483.946,615.976Z" transform="translate(-440.39 -606.048)" fill="#dfeff8"/><path d="M345.613,645.074c-.116.756-.115.761-.82.822-.229.02-.468-.015-.624.209a.607.607,0,0,1-.961-.062c-.281-.4-.419.139-.621.021a1.075,1.075,0,0,1-.265-.031,1.683,1.683,0,0,0-.508-.086,2.682,2.682,0,0,0-.761.2c-.066.022-.14.022-.2.048-.767.331-1.371-.962-2.292-.124-.614.559-1.652.32-2.466.594a1.054,1.054,0,0,1-.3-.016,1.291,1.291,0,0,0-1.651.028c-.706.525-1.644.051-2.482.007-.577-.349-1.075-1.04-1.876-.4-.128.1-.35.142-.383.311-.166.857-.951,1-1.54,1.364h-.825a.6.6,0,0,1-.029-.489c.039-.152.343-.483-.189-.261-.159.066-.323-.135-.35-.3-.151-.933-.776-.774-1.389-.608a1.087,1.087,0,0,1-1.345-.4c.094-.187.214-.4.441-.35.351.084.666-.119,1-.063l.133,0c.175-.017.35-.009.524-.01.124-.005.249,0,.373-.005a1.765,1.765,0,0,0,.578-.1,1.815,1.815,0,0,1,.343-.076,1.916,1.916,0,0,0,.449-.107c.073-.033.147-.06.222-.086a1.31,1.31,0,0,0,.525-.318,1.223,1.223,0,0,1,1.385-.323c.85.24,1.72.718,2.647.207a.442.442,0,0,1,.478.1,2.53,2.53,0,0,0,1.881.283,5.211,5.211,0,0,1,1.529.09c.541.1,1.191.618,1.382-.425a.257.257,0,0,1,.246-.163c.965.153,1.991-.349,2.9.193a1.551,1.551,0,0,0,1.369.153c.967-.321,1.969-.516,2.931-.853a.69.69,0,0,1,.21.176C345.424,644.491,345.488,644.794,345.613,645.074Z" transform="translate(-314.648 -630.195)" fill="#e6f1f8"/><path d="M467.927,581.331a.424.424,0,0,1,.206-.412c.753-.495,1.162.151,1.662.5a.766.766,0,0,1,.12.683c.988-1.049,2.216-.468,3.307-.582a5.731,5.731,0,0,0,1.726-.4,4.713,4.713,0,0,1,2.333,1.405,1.943,1.943,0,0,1,.55,1.073c-.3.529-.453,1.395-1.238.328-.269-.366-.758-.083-1.094.151-.249.174-.358.489-.6.681-.274.19-.2.433-.125.693.077.275.195.589-.244.694a.871.871,0,0,1-.789-.7c-.133-.878-1.009-1.312-1.192-2.218-.1-.481-.908-.411-1.449-.158a2.593,2.593,0,0,1-2.9-.55,1.316,1.316,0,0,1-.378-.924A.366.366,0,0,1,467.927,581.331Z" transform="translate(-438.614 -575.731)" fill="#e0f0f8"/><path d="M448.453,552.311a1.308,1.308,0,0,1-.552.582c-.27.152-.539.292-.853.067a.826.826,0,0,0-.681-.058c-.392.076-.8.056-1.193.137a.692.692,0,0,1-.563-.109c-.264-.163-.307-.152-.418.189-.073.227-.222.208-.38.235-.482.081-.482.082-.523-.422-.006-.068,0-.136,0-.2a2.242,2.242,0,0,1-.758-1.17,2.408,2.408,0,0,0-1.948-1.939,1.086,1.086,0,0,1-.276-.125,1.162,1.162,0,0,1-.217-.22,1.444,1.444,0,0,1-.145-.275c-.273-.581-.813-.535-1.312-.533a1.662,1.662,0,0,1-1.606-1.082,1.871,1.871,0,0,1,1.315-.022l.407.008a2.06,2.06,0,0,0,.216.2q.1,0,.2.006c.109.133.3.083.42.2l.4.013q.1.1.211.2c.067,0,.134,0,.2.008.063.074.144.129.212.2.067,0,.134,0,.2.007.108.126.3.082.411.2h0a1.961,1.961,0,0,0,.217.2,6.348,6.348,0,0,1,2.226,2.049,1.3,1.3,0,0,0,1.276.633,5.254,5.254,0,0,1,3.3.833,1.88,1.88,0,0,0,.21.2Z" transform="translate(-412.118 -546.921)" fill="#d3ebf6"/><path d="M261.7,614.428a7.112,7.112,0,0,1,2.007-2.718.731.731,0,0,1,.461-.177c.888.121.511.67.253.993-.443.554-.883,1.014-.379,1.778.176.267-.072.588-.279.829-.52.605,0,.9.414.868a1.161,1.161,0,0,1,1.2.746.655.655,0,0,0,.551.534c.166.034.409.006.477.145.658,1.338,2.07.9,3.111,1.328a1.788,1.788,0,0,0,1.2-.007c.693-.2,1.008.2.889,1.041a11.172,11.172,0,0,1-1.727-.155c-.7-.113-1.419-.13-2.127-.248-.806-.135-1.605-.288-2.395-.5-.058-.016-.1-.087-.151-.132-.948-1.009-1.837-2.078-2.837-3.033A1.9,1.9,0,0,1,261.7,614.428Z" transform="translate(-261.273 -602.225)" fill="#d6ebf6"/><path d="M516.542,601.906c.069-.071.175-.132.2-.217a1.2,1.2,0,0,1,1.3-.866c.542-.015.566-.037.771.521.034.092.042.218.17.176a.343.343,0,0,0,.2-.2c.07-.243.16-.443.456-.446.422,1.013.422,1.005,1.555,1.034a3.893,3.893,0,0,1,2.574.82c.074.064.128.148.208.206h0c-.408.906-.442.93-1.406.8-.36-.047-.716-.122-1.073-.184l-.142-.006a30.261,30.261,0,0,0-3.795-.639,1.38,1.38,0,0,1-.266-.09C516.972,602.574,516.081,602.791,516.542,601.906Z" transform="translate(-480.418 -593.006)" fill="#d8edf6"/><path d="M383.6,656.026a1.361,1.361,0,0,1,.825-.207c.106.131.3.087.413.207h0c.828.49.857,1.24.066,1.734a3.334,3.334,0,0,0-2.752-.244c-.11.052-.483.067-.2.371-.242.273-.568.194-.867.2q-2.62.012-5.241.01c-.856,0-1.713,0-2.569,0a.4.4,0,0,1-.093-.415.8.8,0,0,1,.179-.24.818.818,0,0,1,.268-.125,16.73,16.73,0,0,0,4.806-.663l.206,0a2.905,2.905,0,0,1,1.279,0A6.2,6.2,0,0,0,383.6,656.026Z" transform="translate(-357.173 -640.322)" fill="#d0e9f5"/><path d="M293.194,651.38c.074-.447-.242-.686-.53-.911-.152-.119-.324.01-.425.159a.279.279,0,0,1-.406.13,4.831,4.831,0,0,0-.876-.2.711.711,0,0,0-.2-.006,2.01,2.01,0,0,1-1.306-.487,1.719,1.719,0,0,1-1.258.02.373.373,0,0,1-.285-.376c.014-.5.016-.491-.311-.634-.308-.135-.65-.229-.8-.585.091-.16.191-.3.411-.206.03.222.127.381.374.4a2.963,2.963,0,0,0,1.284-.138c.273.292.528.56.778.831a1.973,1.973,0,0,0,1.868.527.6.6,0,0,0,.442-.383c.129.036.3.033.38.114a.626.626,0,0,0,.753.087,2.733,2.733,0,0,1,1.395-.183.364.364,0,0,1,.338.322c.017.1.011.2.023.3.07.577.088.591.581.333a1.274,1.274,0,0,1,.275-.123.228.228,0,0,1,.182.046c.031.028.034.15.012.162-.4.218-.456.646-.637,1h-1.519A.617.617,0,0,1,293.194,651.38Z" transform="translate(-282.866 -633.817)" fill="#e0eef7"/><path d="M359.159,548.547a4.065,4.065,0,0,1,1.381-1.04,10.25,10.25,0,0,1,4.812-1.642,4.027,4.027,0,0,1,1.979.023c-.633.747-1.642.572-2.18,1.218h0a2.952,2.952,0,0,1-2.064.206h0a6.182,6.182,0,0,0-2.518,1.928c-.255.337-.436.843-1.035.566C359.361,549.4,359.554,548.888,359.159,548.547Z" transform="translate(-345.123 -545.63)" fill="#d4ebf5"/><path d="M344.5,565.764c.2.015.422-.026.551.173a.6.6,0,0,1,.034.489c-.051.194-.109.386-.165.579.293.473-.045.84-.207,1.237-.168.329-.463.616-.492.989a.952.952,0,0,1-.989.952c-.6.053-.785-.438-.99-.867a.871.871,0,0,1-.007-.869,4.526,4.526,0,0,1,1.081-1.589C343.66,566.439,343.923,565.925,344.5,565.764Z" transform="translate(-330.468 -562.847)" fill="#cfe8f5"/><path d="M402.067,546.352c.083-.482.274-.8.859-.751.359.031.588-.4.981-.462-.278-.008-.556-.019-.834-.024s-.537,0-.806,0c.117-.063.232-.176.35-.18a8.086,8.086,0,0,1,1.938.014,16.218,16.218,0,0,0,2.847.169c.3.013.623-.075.861.2h-1.008c-.022.181.091.188.151.247.572.572.569.574,1.261.582.171,0,.343-.008.513,0,.726.05.871.212.934,1.026a.288.288,0,0,1-.414,0h0c-.134-.144-.335-.055-.476-.126-.309-.156-.557-.484-.969-.286-.523-.135-1.042-.289-1.571-.4a3.318,3.318,0,0,1-1.653-.678c-.17-.153-.386-.156-.475.12-.079.248-.21.206-.372.1-.2-.14-.371-.147-.468.126-.045.127-.121.312-.266.239C402.964,546.02,402.532,546.4,402.067,546.352Z" transform="translate(-382.04 -544.875)" fill="#dceef7"/><path d="M274.522,612.887l-.411.206c-.138-.2-.28-.388-.411-.588-.085-.129-.211-.217-.339-.153-.328.164-.6-.071-.9-.091a.375.375,0,0,1-.4-.375c-.011-.237-.055-.5.233-.616a.715.715,0,0,0,.393-.307c.1-.186.2-.368.037-.568-.064-.081-.141-.151-.2-.234-.361-.49-.308-.888.222-1.164a1.028,1.028,0,0,0,.578-.534.915.915,0,0,0,.093-.384c-.02-.184-.186-.274-.342-.352.148-.226.4-.288.62-.41.065-.072.147-.126.209-.2l.2-.006a1.445,1.445,0,0,1-.377,1.286.611.611,0,0,0-.053.745,5.3,5.3,0,0,0,.281.652c.213.278.408.515.278.906-.043.128.088.317.15.474.075.188.2.388.005.556-.152.129-.318-.016-.476-.055a.831.831,0,0,1-.439-.241.262.262,0,0,0-.361-.065.4.4,0,0,0-.2.434.313.313,0,0,0,.289.243c.434.072.867.15,1.3.223.325.055.354.131.164.483C274.641,612.807,274.572,612.842,274.522,612.887Z" transform="translate(-270.179 -598.42)" fill="#e0eff8"/><path d="M259.07,632.266c.083.058.166.116.25.172.248.164-.052.486.181.644a3.955,3.955,0,0,1,.605.373c.16.16.2.492.372.578a1.147,1.147,0,0,1,.7.674c.109.315.475.453.656.758a1.189,1.189,0,0,0,1.042.719c.138,0,.389-.072.34.207-.022.128-.193.177-.334.188-.1.008-.2.009-.307.013q-.1,0-.2-.008c-.11-.126-.3-.075-.417-.2a5.882,5.882,0,0,1-2.906-2.006,1.371,1.371,0,0,1-.183-1.709c.126-.107.082-.3.206-.408Z" transform="translate(-258.643 -620.063)" fill="#c9e6f3"/><path d="M455.067,655.856c.065-.015.182-.018.188-.046a9.364,9.364,0,0,0,.209-1.046c.033-.278-.287-.352-.4-.556.272,0,.552.016.629-.348.02-.1.088-.181.2-.156.031.007.062.108.057.163-.029.344.167.49.468.531a4.646,4.646,0,0,0,.5.016,8.76,8.76,0,0,1,1.019.012,1.36,1.36,0,0,1,1.2.8.359.359,0,0,1-.052.279.191.191,0,0,1-.268.036c-.087-.051-.163-.121-.249-.176s-.186-.119-.263,0c-.028.043,0,.126.009.19.013.1.029.2.044.3a9.287,9.287,0,0,0-2.2.173,5.339,5.339,0,0,1-1.307.03.166.166,0,0,1-.063-.153c.01-.056.021-.084.036-.084A.162.162,0,0,1,455.067,655.856Z" transform="translate(-427.406 -638.504)" fill="#daedf6"/><path d="M575.656,623.045c-.172-.029-.37-.075-.379-.27a3.375,3.375,0,0,0-.365-1.253,2.613,2.613,0,0,1-.081-1.1.756.756,0,0,0-.367-.771,1.239,1.239,0,0,1-.295-.276c-.166-.182-.1-.307.251-.458.4.245.822.467,1.207.738a1.993,1.993,0,0,1,.628,2.606C576.1,622.554,576,622.894,575.656,623.045Z" transform="translate(-530.036 -608.575)" fill="#cbe7f4"/><path d="M355.778,656.92q0,.206,0,.413l-2.888,0c-.033-.149-.171-.322.09-.4.032-.01.069,0,.1-.009.593-.151,1.07-.388,1.071-1.128,0-.316.126-.4.462-.364.273.03.464.018.555-.278.085-.278.273-.237.481-.143a2.109,2.109,0,0,1,.955.883,1.479,1.479,0,0,1-.619.826h0C355.911,656.778,355.85,656.854,355.778,656.92Z" transform="translate(-339.672 -639.566)" fill="#e0eef7"/><path d="M340.4,583.708c-.038.584.4.977.6,1.469a.339.339,0,0,0,.449.136,3.839,3.839,0,0,0,.67-.449.179.179,0,0,0-.009-.268c-.171-.154-.127-.294.011-.428a2.921,2.921,0,0,1,.761-.665,1.273,1.273,0,0,1-.194,1.24,1.007,1.007,0,0,0-.2.34c-.069.213.048.5-.234.624-.247.109-.453-.123-.685-.116a2.55,2.55,0,0,1-1.337-.431.5.5,0,0,1-.242-.42q0-.1,0-.2c.128-.109.077-.3.2-.415A.436.436,0,0,1,340.4,583.708Z" transform="translate(-328.628 -578.11)" fill="#dceef7"/><path d="M436.381,665.281l-.2,0c-.526.27-1.126-.074-1.651.2l-1.025.009-.392-.032c-.114-.225.111-.215.174-.306a1.9,1.9,0,0,1,.266-.312.491.491,0,0,1,.255-.151,3.861,3.861,0,0,1,2.4.343C436.283,665.083,436.323,665.2,436.381,665.281Z" transform="translate(-408.72 -647.928)" fill="#c4e3f3"/><path d="M443.453,669.361a.6.6,0,0,1,.542-.2H445.1c0,.067,0,.133,0,.2Z" transform="translate(-417.647 -651.806)" fill="#d0e9f5"/><path d="M282.326,661.791a.423.423,0,0,1,.417.2A.423.423,0,0,1,282.326,661.791Z" transform="translate(-279.019 -645.465)" fill="#d6ebf6"/><path d="M452.734,549.744a.418.418,0,0,1-.42-.2A.442.442,0,0,1,452.734,549.744Z" transform="translate(-425.27 -548.892)" fill="#dceef7"/><path d="M464.55,554.2a.425.425,0,0,1-.411-.2A.418.418,0,0,1,464.55,554.2Z" transform="translate(-435.444 -552.725)" fill="#dceef7"/><path d="M260.414,632.266a.425.425,0,0,1-.206.408A.409.409,0,0,1,260.414,632.266Z" transform="translate(-259.99 -620.063)" fill="#d6ebf6"/><path d="M340.222,587.916a.424.424,0,0,1-.2.416A.424.424,0,0,1,340.222,587.916Z" transform="translate(-328.658 -581.906)" fill="#e9f2f9"/><path d="M284.025,607.154l-.209.2Z" transform="translate(-280.301 -598.457)" fill="#e9f2f9"/><path d="M517.546,582.254l-.21-.2Z" transform="translate(-481.213 -576.862)" fill="#e0f0f8"/><path d="M569.279,614.714l-.208-.206Z" transform="translate(-525.724 -604.785)" fill="#dfeff8"/><path d="M467.31,555.653l-.217-.2Z" transform="translate(-437.986 -553.977)" fill="#dceef7"/><path d="M461.393,552.73l-.212-.2Z" transform="translate(-432.899 -551.464)" fill="#dceef7"/><path d="M458.436,551.267l-.211-.2Z" transform="translate(-430.356 -550.206)" fill="#dceef7"/><path d="M449.573,548.288l-.216-.2Z" transform="translate(-422.726 -547.642)" fill="#dceef7"/><path d="M322.207,562.582q0,.1,0,.206c-.005.589-.07,1.189.839,1.155.313-.012.323.3.214.551a1.24,1.24,0,0,1-.319.522c-.766.531-.881,1.489-1.458,2.141a.971.971,0,0,0-.076,1.4c.415.463.873.274,1.281-.048a1.961,1.961,0,0,1,1.141-.415,21.694,21.694,0,0,1,3.251-.2c.737.067,1.172.368,1.064,1.175-.061.458.259.856.2,1.312-.137.45-.472.4-.833.352-1.119-.135-2.093.476-3.155.644-.242.038-.38.276-.5.489h0a.39.39,0,0,1-.407-.437c0-.129,0-.258-.005-.387-.419-.1-.419-.1-.491.286-.049.259-.183.367-.4.31a.67.67,0,0,1-.277-.118c-.176-.161-.3-.164-.529-.033a4.574,4.574,0,0,1-2.356.584c-.177,0-.38-.019-.43-.206-.115-.428-.507-.253-.754-.385a2.819,2.819,0,0,1-1.906.014c-.184-.06-.409.17-.42.363-.03.52-.178.691-.584.61a1.816,1.816,0,0,1-.662-.266c-.3-.207-.637.067-.885-.083a.687.687,0,0,0-.762.018.511.511,0,0,1-.49.037.962.962,0,0,0-.7-.078.6.6,0,0,1-.821-.357c-.123-.231-.228-.2-.479.027-.423.39-.569.414-1.056.118-.115-.07-.232-.233-.345-.179-.523.248-.935-.032-1.346-.262a.579.579,0,0,0-.819.117,2.7,2.7,0,0,1-.405.309c-.168.185-.455.01-.619.206h0c-.112.12-.306.076-.413.206h-.413c-.167.186-.456.008-.619.205h-.412c-.164-.195-.451-.023-.619-.206h0c.226-.5.718-.462,1.137-.549a5.535,5.535,0,0,0,1.619-.417c.2-.108.351-.264.129-.474a.924.924,0,0,1-.214-.663c-.015-.139-.056-.283-.209-.324-.291-.079-.344-.259-.32-.54.016-.184-.158-.289-.35-.3-.212-.009-.308.121-.334.31-.022.165-.029.332-.04.476-.29.109-.4-.148-.6-.174-.271-.037-.54-.087-.81-.121a.9.9,0,0,0-.4,0,1.169,1.169,0,0,1-.9-.017c-.175-.074-.332.015-.5.064a.814.814,0,0,1-.776-.139,1.193,1.193,0,0,0-1.031-.344c-.167.037-.306-.142-.4-.285a1.46,1.46,0,0,0-.728-.681c-.29-.106-.356-.751-.083-.868.491-.211.6-.616.751-1.034a.243.243,0,0,1,.413-.112.453.453,0,0,0,.714-.061,1.447,1.447,0,0,1,.818-.364c.586-.148,1.239-.076,1.753-.494a.519.519,0,0,1,.493-.029c.328.1.661.176.989.272a1.411,1.411,0,0,0,.913.023,1.21,1.21,0,0,1,1.172.1.38.38,0,0,0,.54-.1,5.447,5.447,0,0,1,1.058-1.108c.356-.221.117-.909.762-.828.417.053.572-.443.963-.528.279-.06.322-.342.15-.564a5.1,5.1,0,0,0-.347-.38c-.193-.2-.384-.267-.605-.024-.084.093-.189.029-.253-.063a.206.206,0,0,1,.006-.278c.18-.153.38-.283.588-.434.392.241.674.6,1.195.562a1.9,1.9,0,0,0,1.131-.4c.2-.166.233-.313.083-.516a1.227,1.227,0,0,1-.16-.262.33.33,0,0,1,.341-.476.51.51,0,0,1,.372.143c.17.18.372.1.382-.079.032-.589.45-.795.881-1.014.147-.075.265-.292.442-.2.277.138.035.348.02.528a1.872,1.872,0,0,0-.009.307.445.445,0,0,0,.271.406c.208.08.316-.072.384-.235s.1-.323.153-.485c.418.074.8-.331,1.192-.153a5.815,5.815,0,0,1,.912.636c.023.016.063.007.146.014.372-.282.678-.732,1.2-.859a.357.357,0,0,1,.279.04c.082.072.007.176-.045.261-.126.2-.145.357.14.464.535.2.531.214.457.7-.01.066-.051.128-.063.194a1.116,1.116,0,0,0,0,.191,1.349,1.349,0,0,0,1.345.174c.29-.068.343-.011.476.4.045.14.111.3.228.31C321.739,561.893,321.824,562.433,322.207,562.582Z" transform="translate(-292.893 -556.982)" fill="#eff5fb"/><path d="M461.183,562.816c.2,0,.41-.01.613.01a.691.691,0,0,1,.379.118c.4.364.79.741,1.161,1.134a.64.64,0,0,1,.2.454,1.47,1.47,0,0,0,.421,1.2,1.264,1.264,0,0,1,.115.384.686.686,0,0,1-.543-.242,1.184,1.184,0,0,0-1.108-.377c-.007-.227.037-.471-.206-.619-.062-.075-.138-.137-.206-.206h0q-.1-.106-.206-.206h0c-.12-.112-.076-.305-.206-.412q0-.1,0-.206C461.621,563.439,461.184,563.214,461.183,562.816Z" transform="translate(-432.901 -560.31)" fill="#dceef7"/><path d="M360.683,559.779l.207-1.237a.572.572,0,0,0,.46-.189c.236-.329.458-.667.681-1.005.035-.053.027-.17.062-.181.79-.245,1.26-1.019,2.059-1.237.065-.018.163.089.245.137a3.445,3.445,0,0,1-.889.8,4.857,4.857,0,0,0-1.451,1.375,1.066,1.066,0,0,1-.346.364,1.345,1.345,0,0,0-.728.915C360.954,559.63,360.787,559.7,360.683,559.779Z" transform="translate(-346.434 -554.386)" fill="#dceef7"/><path d="M455.354,561.556c.105.234.481.149.525.376a1.877,1.877,0,0,1-.113.656,1.6,1.6,0,0,0-.385-.314c-.131-.052-.222.111-.321.2a.4.4,0,0,1-.381.066c-.2-.048-.351-.327-.226-.466a.866.866,0,0,0,.282-.723h.413a1.863,1.863,0,0,0,.206.206Z" transform="translate(-427.072 -559.049)" fill="#e0f0f8"/><path d="M387.285,555.545a7.238,7.238,0,0,1,2.064-.206c-.163.25-.321.5-.491.75-.144.208-.284.227-.464-.014a.428.428,0,0,0-.579-.2C387.536,555.984,387.4,555.763,387.285,555.545Z" transform="translate(-369.322 -553.863)" fill="#dceef7"/><path d="M446.4,556.737a1.225,1.225,0,0,0,.359-.15c.114-.1.258-.19.322-.047.156.347.558.348.764.609-.569-.149-.579.416-.813.681-.322-.086-.232-.389-.36-.56A3.3,3.3,0,0,1,446.4,556.737Z" transform="translate(-420.181 -554.848)" fill="#e0f0f8"/><path d="M464.137,571.691a.424.424,0,0,1,.206.412A.424.424,0,0,1,464.137,571.691Z" transform="translate(-435.442 -567.947)" fill="#e0f0f8"/><path d="M467.094,576.121l.206.206Z" transform="translate(-437.986 -571.758)" fill="#e0f0f8"/><path d="M465.616,574.644l.206.206Z" transform="translate(-436.715 -570.487)" fill="#e0f0f8"/><path d="M416.313,562.3l-.086-.047.039-.039Z" transform="translate(-394.222 -559.793)" fill="#eff5fb"/><path d="M480.377,622.769a.682.682,0,0,1,.329-.695c.294-.186.568-.446.932-.29a.757.757,0,0,0,.744-.108,2.929,2.929,0,0,1,.543-.254c.411-.114.831-.321,1.255.026a.351.351,0,0,0,.532-.121,1.3,1.3,0,0,1,1.344-.289,17.349,17.349,0,0,0,3.353.615.574.574,0,0,0,.629-.218c.314-.394-.093-2.03-.583-2.171a1.2,1.2,0,0,1-.876-.9c.66-.536,1.278-.039,1.911.078h0a1.616,1.616,0,0,0,1.029.8c.206.073.374.149.435.382a.3.3,0,0,0,.4.226.671.671,0,0,1,.659.148c.21.154.4.292.232.575s.1.52.039.785c-.187.09-.32-.051-.472-.1-.4-.129-.478-.113-.555.3a.636.636,0,0,1-.673.611,2.358,2.358,0,0,0-1.4.576c-.434.369-.634.318-1.13-.142-.1-.1-.191-.21-.345-.133-.134.067-.149.192-.168.338-.045.344-.065.345-.352.261-.23-.067-.454-.161-.687-.214-.161-.037-.259.067-.24.231.016.134.077.262.093.4.006.051-.06.158-.092.157-.236,0-.471-.042-.706-.043-.324,0-.368-.248-.457-.471a.326.326,0,0,0-.407-.22c-.218.046-.331-.033-.283-.27a1.551,1.551,0,0,0,.069-.3.272.272,0,0,0-.358-.246,6.125,6.125,0,0,1-1.291.539c-.177.032-.326.237-.482.369-.6.514-.889.543-1.526.073-.2-.151-.327-.175-.527-.01-.126.1-.252-.013-.32-.143C480.831,622.636,480.62,622.64,480.377,622.769Z" transform="translate(-449.412 -607.89)" fill="#e6f1f8"/><path d="M375.465,658.8a2.847,2.847,0,0,0,.194-.469.415.415,0,0,1,.426-.357,6.553,6.553,0,0,1,2.042.155.459.459,0,0,0,.585-.3c.088-.18.107-.41.361-.451a.934.934,0,0,1,.862.217,5.9,5.9,0,0,0,.483.379.876.876,0,0,1-.907.638c-.493,0-.986.193-1.449-.143a.346.346,0,0,0-.284.028,2.209,2.209,0,0,0-.418.282,1.015,1.015,0,0,1-1.207.15A1.389,1.389,0,0,0,375.465,658.8Z" transform="translate(-359.152 -641.651)" fill="#d9ecf6"/><path d="M417.362,652.477c-.18.494-.187.548-.66.484-.313-.042-.378.3-.62.269a.642.642,0,0,0-.568.137.455.455,0,0,1-.48.094c-.455-.176-.96.087-1.376-.107a6.773,6.773,0,0,0-1.25-.26,2.765,2.765,0,0,1,1.449-.4,1.445,1.445,0,0,0,1.494-.852.284.284,0,0,1,.351-.138.205.205,0,0,1,.145.24.321.321,0,0,0,.23.4A1.722,1.722,0,0,0,417.362,652.477Z" transform="translate(-390.937 -636.772)" fill="#dcedf7"/><path d="M351.817,651.643c.148-.243.392-.2.619-.206C352.288,651.68,352.044,651.635,351.817,651.643Z" transform="translate(-338.806 -636.557)" fill="#e9f2f9"/><path d="M334.083,654.386c.227.007.471-.037.619.206C334.475,654.585,334.231,654.629,334.083,654.386Z" transform="translate(-323.549 -639.094)" fill="#e9f2f9"/><path d="M341.469,654.6c.149-.243.392-.2.619-.205C341.94,654.633,341.7,654.589,341.469,654.6Z" transform="translate(-329.903 -639.098)" fill="#e9f2f9"/><path d="M454.207,656.067a.423.423,0,0,1-.412-.207A.423.423,0,0,1,454.207,656.067Z" transform="translate(-426.544 -640.363)" fill="#daedf6"/><path d="M348.86,653.116a.425.425,0,0,1,.413-.206A.425.425,0,0,1,348.86,653.116Z" transform="translate(-336.262 -637.825)" fill="#e9f2f9"/><path d="M470.173,591.2c.137.019.311.035.349.173.1.384.311.419.689.383a.618.618,0,0,1,.592.9.667.667,0,0,0,.194.9c.22.2.209.4-.03.6a5.538,5.538,0,0,0-.385.478c-.313.338-.5.351-.826-.015a.491.491,0,0,0-.708-.149.966.966,0,0,1-1.134-.014,4.35,4.35,0,0,0-1.552-.484c-.356-.059-.724.184-1.109.123a4.308,4.308,0,0,0-.2-.578,1.172,1.172,0,0,1-.09-.978c.14-.409-.072-.652-.5-.7a3.408,3.408,0,0,1-1.019-.094.462.462,0,0,0-.622.19c-.146.207-.3.265-.5.067a.574.574,0,0,0-.572-.136c-.133.029-.264.128-.391.119a2.54,2.54,0,0,0-1.852.692.994.994,0,0,1-1.459-.447,1.423,1.423,0,0,1,.342-1.677c.1-.093.234-.149.328-.246.206-.215.311-.448.075-.722a.7.7,0,0,1-.117-.278.284.284,0,0,1,.294-.333,1.123,1.123,0,0,1,.3.07.276.276,0,0,0,.394-.2,2.767,2.767,0,0,0,.15-.381c.048-.25.521-.359.282-.665-.16-.206-.451-.026-.684-.018-.2.007-.3-.149-.333-.326a1.34,1.34,0,0,1,.182-.989c.06.079.165.153.174.237.042.4.094.759.638.715.086-.007.182.083.271.131.178.1.115.479.362.417.528-.134,1.107.215,1.585-.155a1.2,1.2,0,0,1,1.584-.026c.087.061.253.008.39.008-.016.257-.034.489-.042.722a.375.375,0,0,0,.159.356,1.713,1.713,0,0,1,.888,1.468c.026.36.439.4.594.662a1.761,1.761,0,0,0,2.358.386C469.529,591.235,469.812,591.02,470.173,591.2Z" transform="translate(-430.954 -580.651)" fill="#e9f3fa"/><path d="M518.047,610.258c-.277.192-.616.238-.9.459a1.17,1.17,0,0,1-1.332.208,1.393,1.393,0,0,0-.4-.051c-.552-.092-.551-.094-.667-.821a.272.272,0,0,0,.131-.341c-.088-.218-.222-.419-.289-.642-.088-.295.077-.437.364-.461.013.163-.031.342.093.477.147.16.307.008.462,0,.236-.005.239.183.179.461-.119.205-.09.264-.053.235s.043-.112.048-.183a.244.244,0,0,1,.1-.17c-.07.072-.151.134-.092.118.362-.125.635-.1.9-.205a.487.487,0,0,1,.287-.012c.158.041.106.366.318.3.15-.048.268-.205.452-.193.135.009.325-.021.394.054.372.411.858.337,1.325.363a.629.629,0,0,1,.545.4c-.354.069-.676.2-1.029-.128A.587.587,0,0,0,518.047,610.258Z" transform="translate(-478.828 -599.709)" fill="#def0f8"/><path d="M459.912,561.557l-.206-.206Z" transform="translate(-431.63 -559.05)" fill="#dceef7"/><path d="M287.981,656.862c-.039.046-.07.12-.119.133-.078.021-.129-.044-.089-.11.029-.048.1-.072.157-.1A.906.906,0,0,1,287.981,656.862Z" transform="translate(-283.694 -641.158)" fill="#e0eef7"/><path d="M373.988,667.885l.206-.206Z" transform="translate(-357.882 -650.531)" fill="#d9ecf6"/><path d="M380.542,577.207c-.261-.148-.6-.221-.613-.614a.963.963,0,0,1,.507-1.029.679.679,0,0,0,.366-.337.761.761,0,0,1,.8-.51c.09,0,.256-.059.266-.112.083-.479.612-.633.753-1.066a.958.958,0,0,1,.721-.665,1.392,1.392,0,0,0,1.135-1.4c.029-.4.131-.476.537-.425.293.037.538.079.705-.227.092-.168.268-.187.439-.223a2.067,2.067,0,0,0,.586-.182c.586-.33,1.062-.371,1.355.372.04.1.211.173.335.211.209.064.229.185.222.381a1.962,1.962,0,0,0,.128.489.419.419,0,0,0,.415.378,1.77,1.77,0,0,1,1.492,1.065,2.255,2.255,0,0,0,.23.337,1.439,1.439,0,0,1,.081,1.879,1.666,1.666,0,0,0-.342,1.157,1.329,1.329,0,0,1-1.037,1.549c-.3.084-.424.629-.875.35a.858.858,0,0,1-.064-.5c.084-1.32.082-1.327-1.247-1.263a1.476,1.476,0,0,1-1.19-.474,1.06,1.06,0,0,0-1.549-.191,1.006,1.006,0,0,1-.981.15A2.4,2.4,0,0,0,380.542,577.207Z" transform="translate(-362.991 -566.658)" fill="#f6f7fa"/><path d="M384.33,609.519c.037-.461.43-.76.543-1.2a.382.382,0,0,1,.524-.2,1.3,1.3,0,0,0,.987-.005.989.989,0,0,1,.968.177.751.751,0,0,0,1.028-.035,3.747,3.747,0,0,1,.434-.272,1.516,1.516,0,0,1,.437-.238c.205-.039.25.2.362.313a.828.828,0,0,0,.448.229c.137.029.3.09.317.227.055.365.288.363.582.389.535.047.99-.257,1.53-.286a2.164,2.164,0,0,1,.225,1.844,4.073,4.073,0,0,1-.13.493l-.041.131a.533.533,0,0,1-.209.175.73.73,0,0,1-.274.018c-.6-.339-1.013.067-1.447.378a1.576,1.576,0,0,1-.257.116,2.386,2.386,0,0,1-.551.14c-.344-.112-.751-.035-1.022-.373-.108-.134-.351-.238-.458-.138-.929.865-1.784-.193-2.681-.084a.736.736,0,0,1-.83-.607,2.454,2.454,0,0,0-.485-.993Z" transform="translate(-366.779 -598.97)" fill="#fbfafb"/><path d="M381.217,621.9a1.469,1.469,0,0,1,.737,1.036.423.423,0,0,0,.536.328c.256-.043.525.046.79-.081.094-.045.258.028.38.073.275.1.137.586.467.581.264,0,.319-.417.62-.467.232-.038.459-.113.69-.16.185-.038.387.029.421.2.112.549.565.468.931.557.109-.126.307-.073.413-.206h.206a2.154,2.154,0,0,0,1.857-.412,2.855,2.855,0,0,0,.206-.206c.288-.111.462-.451.826-.412a2.03,2.03,0,0,1-.66.883,1.143,1.143,0,0,0-.431.646c.2.127.32-.055.472-.086.082.064.087.163.112.252a.278.278,0,0,1,.094-.252c.114-.176.258-.172.435-.1a2.449,2.449,0,0,0,.39.1c.032-.225-.087-.476.118-.673.266.042.4.254.544.437.218.281.2.5-.024.834-.056.084-.132.155-.189.238-.274.4-.6.572-.9.3s-.633-.218-.943-.245c-.272-.024-.528.039-.734-.218a.952.952,0,0,0-.849-.263,1.534,1.534,0,0,1-1.165-.276.435.435,0,0,0-.378-.087c-.48.234-1.027.063-1.5.276a.814.814,0,0,1-.6.05c-.275-.1-.42.024-.61.214a1.238,1.238,0,0,1-1.784.088c-.344-.271-.681-.549-.976-.786a.281.281,0,0,1,.138-.319,1.241,1.241,0,0,0,.392-1.637A.712.712,0,0,1,381.217,621.9Z" transform="translate(-363.666 -611.144)" fill="#f6f7fa"/><path d="M477.688,643.59c.024.012.069.028.068.036-.009.055-.012.138-.045.156a1.318,1.318,0,0,1-.273.079.844.844,0,0,1,.1-.166A.778.778,0,0,1,477.688,643.59Z" transform="translate(-446.886 -629.806)" fill="#e6f1f8"/><path d="M445.13,638.143c-.009.1,0,.256-.1.256s-.094-.156-.1-.256Z" transform="translate(-418.912 -625.12)" fill="#f6f7fa"/><path d="M555.245,629.136c-.134.311.034.459.222.628a.41.41,0,0,1,.026.671.2.2,0,0,1-.338-.025.774.774,0,0,1-.146-.265,2.655,2.655,0,0,0-.434-1.117c-.061-.075-.02-.262.022-.381a.277.277,0,0,1,.306-.21.424.424,0,0,1,.227.165A.517.517,0,0,1,555.245,629.136Z" transform="translate(-513.225 -616.765)" fill="#e9f3fa"/><path d="M520.181,614.932c-.061.066-.112.168-.192.2a.5.5,0,0,1-.626-.566c.02-.115.515-.27.523-.187C519.908,614.607,520.065,614.74,520.181,614.932Z" transform="translate(-482.95 -604.654)" fill="#d8edf6"/><path d="M430.523,629.844a2.062,2.062,0,0,1-.857.833c-.2.1-.394.126-.523-.1a.544.544,0,0,0-.477-.319c.105-.311.444-.387.626-.62a.4.4,0,0,1,.611-.072A1.04,1.04,0,0,0,430.523,629.844Z" transform="translate(-404.924 -617.646)" fill="#f6f7fa"/><path d="M424.646,635.189a.424.424,0,0,1-.413.206A.424.424,0,0,1,424.646,635.189Z" transform="translate(-401.11 -622.578)" fill="#f6f7fa"/><path d="M442.174,630.759l-.206.206Z" transform="translate(-416.369 -618.767)" fill="#f6f7fa"/><path d="M452.314,638.142l.086.047-.039.039Z" transform="translate(-425.27 -625.119)" fill="#f6f7fa"/></g><g transform="translate(41.543 6896.806)"><path d="M277.97,554.708a2.034,2.034,0,0,1,1.2-.684c.833-.229,1.684-.394,2.531-.566a3.22,3.22,0,0,1,.7-.023,1.234,1.234,0,0,0,.68-.144.908.908,0,0,1,.189.085c1.133.594,1.391.552,1.691-.821a.782.782,0,0,1,.057-.189,8.6,8.6,0,0,1,2.452-2.5.36.36,0,0,1,.194-.023c.444.068.917.409,1.3-.14a.925.925,0,0,1,.173-.1c.419-.135.858-.2,1.27-.366a1.156,1.156,0,0,1,1.123.1c.539.331,1.23.273,1.788.594a.889.889,0,0,1,.355.691c.119-.271.25-.471.547-.4a.314.314,0,0,1,.149.12c-.19.627.518.388.667.687a.834.834,0,0,1,.078.161c.028.08.051.162.082.241.027.047.055.093.087.137s.078.078.12.115c.023.017.045.036.068.054a.9.9,0,0,1,.133.123.5.5,0,0,1,.057.458.523.523,0,0,1-.249.3.736.736,0,0,1-.49-.252c-.364-.3-.658-.714-1.244-.583-.161.036-.441-.108-.418-.3.057-.478-.43-.635-.478-1.095-.482.462-.926.7-1.467.227-.189-.164-.461-.01-.689-.058-.063,0-.087-.121-.137-.08s.075.077.063.144c-.027.227-.1.444-.359.456-.428.021-.348-.426-.519-.642-.487.093-.473.885-1.1.756-.032-.007-.036.076-.052.12-.34.925-.8,1.1-1.664.644a.338.338,0,0,0-.194-.065c.082.046-.052,0-.021.019.8.4.988.845.072,1.3a3.439,3.439,0,0,0-1.077,1,1.176,1.176,0,0,1-1.263.49,7.74,7.74,0,0,0-4.33.533.745.745,0,0,0-.233,1.332,2.621,2.621,0,0,0,1.546.6,6.776,6.776,0,0,1,1.622.083c.212.06.363.038.455-.188a.305.305,0,0,1,.284-.18c.291-.018.8.7.955,1.3.12.467-.2.585-.518.686a6.985,6.985,0,0,0-1.564.425c-.321.193-.782.056-1.024.437a1.2,1.2,0,0,1-1.615-.089,1.589,1.589,0,0,0-1.308-.529.39.39,0,0,1-.47-.329c.069-.378-.213-.4-.464-.466-.3-.079-.764-.036-.653-.529.123-.545.555-.2.952-.17C277.776,556.63,277.1,555.654,277.97,554.708Z" transform="translate(-275.27 -548.731)" fill="#e9f2f9"/><path d="M479.558,615.976a.8.8,0,0,1,.57.282c.55.867.491,1.917.85,2.842a4.341,4.341,0,0,1-2.032,1.036c-.541.153-1.079.316-1.628.432a9.975,9.975,0,0,1-1.732.242,11.876,11.876,0,0,0-1.667.2,4,4,0,0,1-.7.074H470.9c-.305-.315-.186-.471.207-.526-.31-.413-.847-.175-1.2-.433-.068-.284.165-.289.327-.324a.71.71,0,0,0,.545-.37.666.666,0,0,1,.13-.148,1.691,1.691,0,0,1,1.137.214.709.709,0,0,0,.791-.095,2.775,2.775,0,0,1,.612-.351c.491-.235.947-.465,1.267.254a1.131,1.131,0,0,0,.469.418c.081.046.251.1.254.041.037-.794.91-.167,1.116-.664a.153.153,0,0,1,.192-.051c.706.543,1.218-.212,1.833-.279.4-.043.426-.762.981-.613.044-.28.027-.552-.315-.6-.481-.068-.734-.493-1.142-.675a.388.388,0,0,1-.244-.462.5.5,0,0,1,.519-.091A1.167,1.167,0,0,0,479.558,615.976Z" transform="translate(-449.599 -609.147)" fill="#dfeff8"/><path d="M338.784,644.752c-.08.52-.079.523-.564.566-.157.014-.322-.01-.429.144a.417.417,0,0,1-.661-.043c-.193-.274-.288.1-.427.014a.735.735,0,0,1-.182-.022,1.157,1.157,0,0,0-.349-.059,1.844,1.844,0,0,0-.523.137c-.046.015-.1.015-.138.033-.528.228-.943-.661-1.576-.085-.422.384-1.136.22-1.7.409a.728.728,0,0,1-.2-.011.888.888,0,0,0-1.136.019c-.486.361-1.131.035-1.707,0-.4-.24-.74-.716-1.29-.274-.088.071-.241.1-.264.214-.114.59-.654.685-1.059.938h-.568a.409.409,0,0,1-.02-.336c.027-.1.236-.332-.13-.179-.109.045-.222-.093-.24-.208-.1-.642-.534-.532-.955-.418a.748.748,0,0,1-.925-.275c.065-.128.147-.278.3-.241.242.058.458-.082.69-.043l.092,0c.12-.011.241-.006.361-.007.086,0,.171,0,.257,0a1.212,1.212,0,0,0,.4-.069,1.246,1.246,0,0,1,.236-.052,1.32,1.32,0,0,0,.309-.073c.05-.023.1-.041.153-.059a.9.9,0,0,0,.361-.219.841.841,0,0,1,.953-.222c.585.165,1.183.494,1.82.142a.3.3,0,0,1,.329.068,1.741,1.741,0,0,0,1.294.195,3.581,3.581,0,0,1,1.052.062c.372.069.819.425.951-.292a.177.177,0,0,1,.169-.112c.664.105,1.369-.24,2,.133a1.067,1.067,0,0,0,.942.1c.665-.221,1.355-.355,2.016-.587a.476.476,0,0,1,.144.121C338.654,644.351,338.7,644.559,338.784,644.752Z" transform="translate(-317.486 -634.518)" fill="#e6f1f8"/><path d="M467.895,581.146a.292.292,0,0,1,.142-.284c.518-.34.8.1,1.143.342a.527.527,0,0,1,.083.47c.679-.722,1.524-.322,2.275-.4a3.941,3.941,0,0,0,1.187-.272,3.241,3.241,0,0,1,1.605.967,1.336,1.336,0,0,1,.378.738c-.2.364-.312.959-.851.226-.185-.251-.521-.057-.752.1-.172.119-.246.336-.412.468-.188.131-.136.3-.086.477s.134.405-.168.477a.6.6,0,0,1-.543-.484c-.091-.6-.694-.9-.82-1.525-.067-.331-.625-.282-1-.109a1.783,1.783,0,0,1-2-.378.905.905,0,0,1-.26-.635A.252.252,0,0,1,467.895,581.146Z" transform="translate(-447.732 -577.294)" fill="#e0f0f8"/><path d="M444.886,550.732a.9.9,0,0,1-.38.4c-.186.1-.371.2-.586.046a.568.568,0,0,0-.468-.04c-.269.053-.552.039-.821.094a.477.477,0,0,1-.387-.075c-.182-.112-.211-.1-.287.13-.05.156-.153.143-.262.161-.332.056-.332.057-.36-.29,0-.046,0-.094,0-.14a1.542,1.542,0,0,1-.521-.805,1.656,1.656,0,0,0-1.34-1.334.749.749,0,0,1-.19-.086.8.8,0,0,1-.149-.151.988.988,0,0,1-.1-.189c-.188-.4-.559-.368-.9-.366a1.143,1.143,0,0,1-1.1-.744,1.287,1.287,0,0,1,.9-.015l.28.006a1.4,1.4,0,0,0,.148.135q.068,0,.135,0c.075.091.209.057.289.138l.279.009q.072.068.145.135c.046,0,.092,0,.139.006.044.051.1.089.146.136.046,0,.092,0,.138,0,.075.086.206.057.283.139h0a1.348,1.348,0,0,0,.149.137,4.368,4.368,0,0,1,1.531,1.41.893.893,0,0,0,.877.435,3.615,3.615,0,0,1,2.268.573,1.293,1.293,0,0,0,.144.137Z" transform="translate(-419.894 -547.025)" fill="#d3ebf6"/><path d="M261.7,613.525a4.893,4.893,0,0,1,1.38-1.87.5.5,0,0,1,.317-.122c.611.083.351.461.174.683-.3.381-.607.7-.261,1.223.121.183-.049.4-.192.57-.358.416,0,.62.284.6a.8.8,0,0,1,.824.513.45.45,0,0,0,.379.367c.114.024.281,0,.328.1.453.921,1.424.621,2.14.913a1.23,1.23,0,0,0,.824,0c.477-.14.693.141.612.716a7.7,7.7,0,0,1-1.188-.106c-.481-.078-.976-.089-1.463-.171-.554-.093-1.1-.2-1.647-.342-.04-.011-.07-.06-.1-.091-.652-.694-1.264-1.429-1.951-2.086A1.309,1.309,0,0,1,261.7,613.525Z" transform="translate(-261.407 -605.131)" fill="#d6ebf6"/><path d="M516.5,601.566c.047-.049.121-.091.138-.149a.828.828,0,0,1,.9-.6c.373-.01.389-.026.531.358.023.064.029.15.117.121a.236.236,0,0,0,.135-.137c.048-.167.11-.3.313-.307.29.7.29.691,1.069.711a2.677,2.677,0,0,1,1.77.564c.051.044.088.1.143.142h0c-.281.623-.3.64-.967.554-.247-.032-.492-.084-.738-.127l-.1,0a20.822,20.822,0,0,0-2.61-.439.943.943,0,0,1-.183-.062C516.8,602.026,516.185,602.175,516.5,601.566Z" transform="translate(-491.655 -595.445)" fill="#d8edf6"/><path d="M380.341,655.959a.937.937,0,0,1,.568-.143c.073.09.207.06.284.142h0c.57.337.589.853.046,1.193a2.293,2.293,0,0,0-1.893-.168c-.076.036-.332.046-.135.255-.166.188-.39.133-.6.134q-1.8.009-3.6.007c-.589,0-1.178,0-1.767,0a.276.276,0,0,1-.064-.285.552.552,0,0,1,.123-.165.563.563,0,0,1,.184-.086,11.508,11.508,0,0,0,3.306-.456l.141,0a2,2,0,0,1,.88,0A4.262,4.262,0,0,0,380.341,655.959Z" transform="translate(-362.165 -645.157)" fill="#d0e9f5"/><path d="M291.2,650.4c.051-.308-.166-.472-.364-.627-.1-.082-.223.007-.292.109a.192.192,0,0,1-.279.09,3.324,3.324,0,0,0-.6-.137.492.492,0,0,0-.14,0,1.382,1.382,0,0,1-.9-.335,1.182,1.182,0,0,1-.865.014.257.257,0,0,1-.2-.259c.009-.342.011-.338-.214-.436s-.447-.157-.547-.4c.063-.11.131-.209.283-.142.021.152.087.262.258.275a2.037,2.037,0,0,0,.883-.1c.188.2.363.385.535.572a1.357,1.357,0,0,0,1.285.363.415.415,0,0,0,.3-.263c.089.025.2.023.262.079a.431.431,0,0,0,.518.06,1.88,1.88,0,0,1,.959-.126.251.251,0,0,1,.233.221c.012.069.008.14.016.209.048.4.06.407.4.229a.879.879,0,0,1,.189-.085.156.156,0,0,1,.125.032c.021.019.023.1.008.111-.273.15-.314.445-.438.686h-1.045A.425.425,0,0,1,291.2,650.4Z" transform="translate(-284.093 -638.323)" fill="#e0eef7"/><path d="M359.159,547.675a2.8,2.8,0,0,1,.95-.715,7.05,7.05,0,0,1,3.31-1.129,2.77,2.77,0,0,1,1.361.016c-.436.514-1.129.393-1.5.838h0a2.031,2.031,0,0,1-1.42.142h0a4.251,4.251,0,0,0-1.732,1.326c-.175.232-.3.58-.712.39C359.3,548.263,359.43,547.909,359.159,547.675Z" transform="translate(-349.505 -545.669)" fill="#d4ebf5"/><path d="M343.762,565.764c.136.011.29-.018.379.119a.412.412,0,0,1,.023.336c-.035.134-.075.266-.113.4.2.325-.031.578-.142.851-.116.226-.319.424-.338.68a.655.655,0,0,1-.68.655c-.412.036-.54-.3-.681-.6a.6.6,0,0,1-.005-.6,3.114,3.114,0,0,1,.744-1.093C343.181,566.228,343.362,565.875,343.762,565.764Z" transform="translate(-334.108 -563.758)" fill="#cfe8f5"/><path d="M402.067,545.891c.057-.332.189-.551.591-.516.247.021.4-.275.675-.318-.191-.006-.382-.013-.574-.017s-.37,0-.554,0c.08-.043.159-.121.241-.124a5.562,5.562,0,0,1,1.333.01,11.153,11.153,0,0,0,1.958.116c.205.009.429-.051.592.139h-.693c-.015.124.063.129.1.17.393.393.392.4.868.4.118,0,.236-.005.353,0,.5.034.6.146.643.706a.2.2,0,0,1-.284,0h0c-.092-.1-.23-.038-.327-.087-.212-.107-.383-.333-.667-.2-.36-.093-.717-.2-1.08-.274a2.283,2.283,0,0,1-1.137-.466c-.117-.105-.266-.107-.326.083-.055.171-.145.142-.256.066-.14-.1-.255-.1-.322.087-.031.088-.083.215-.183.164C402.684,545.663,402.387,545.926,402.067,545.891Z" transform="translate(-388.292 -544.875)" fill="#dceef7"/><path d="M273.751,611.083l-.283.142c-.095-.134-.193-.267-.283-.4-.058-.089-.145-.149-.233-.1-.225.113-.411-.049-.616-.063a.258.258,0,0,1-.278-.258c-.008-.163-.038-.341.16-.424a.492.492,0,0,0,.27-.211c.07-.128.134-.253.026-.391-.044-.055-.1-.1-.138-.161-.248-.337-.212-.611.153-.8a.707.707,0,0,0,.4-.367.63.63,0,0,0,.064-.264c-.013-.127-.128-.189-.235-.242.1-.155.278-.2.427-.282.045-.049.1-.087.144-.139l.14,0a.994.994,0,0,1-.26.885.42.42,0,0,0-.037.513,3.645,3.645,0,0,0,.193.449c.147.191.281.354.191.624-.029.088.06.218.1.326.052.129.14.267,0,.383-.1.088-.219-.011-.328-.038a.571.571,0,0,1-.3-.166.18.18,0,0,0-.248-.045.275.275,0,0,0-.135.3.215.215,0,0,0,.2.167c.3.049.6.1.894.154.223.037.244.09.113.332C273.833,611.028,273.786,611.053,273.751,611.083Z" transform="translate(-270.764 -601.133)" fill="#e0eff8"/><path d="M258.937,632.266c.057.04.114.08.172.118.17.113-.036.334.124.443a2.721,2.721,0,0,1,.416.257c.11.11.136.338.256.4a.789.789,0,0,1,.479.464c.075.217.327.312.452.522a.818.818,0,0,0,.717.495c.1,0,.267-.049.234.143-.015.088-.133.122-.23.129-.07.005-.141.006-.211.009q-.07,0-.141-.006c-.076-.086-.209-.052-.286-.135a4.045,4.045,0,0,1-2-1.379.943.943,0,0,1-.126-1.176c.087-.074.057-.206.142-.281Z" transform="translate(-258.644 -623.872)" fill="#c9e6f3"/><path d="M454.982,655.183c.045-.01.125-.012.13-.032a6.443,6.443,0,0,0,.144-.719c.022-.191-.2-.242-.272-.383.187,0,.38.011.432-.239.014-.066.061-.124.138-.108.021,0,.043.075.039.112-.02.237.115.337.322.365a3.215,3.215,0,0,0,.346.011,6,6,0,0,1,.7.008.935.935,0,0,1,.828.552.247.247,0,0,1-.036.192.132.132,0,0,1-.184.025c-.06-.035-.112-.084-.171-.121s-.128-.082-.181,0c-.02.029,0,.087.006.131.009.069.02.138.03.207a6.39,6.39,0,0,0-1.515.119,3.676,3.676,0,0,1-.9.021.114.114,0,0,1-.043-.105c.007-.038.015-.058.025-.058A.112.112,0,0,1,454.982,655.183Z" transform="translate(-435.956 -643.247)" fill="#daedf6"/><path d="M575.165,621.755c-.118-.02-.254-.052-.261-.186a2.321,2.321,0,0,0-.251-.862,1.8,1.8,0,0,1-.056-.759.52.52,0,0,0-.253-.53.851.851,0,0,1-.2-.19c-.114-.125-.066-.211.173-.315.277.168.566.321.83.508a1.371,1.371,0,0,1,.432,1.793C575.473,621.417,575.4,621.652,575.165,621.755Z" transform="translate(-543.786 -611.802)" fill="#cbe7f4"/><path d="M354.856,656.3q0,.142,0,.284l-1.987,0c-.023-.1-.117-.221.062-.278.022-.007.047,0,.07-.006.408-.1.736-.267.737-.776,0-.217.087-.276.318-.25.188.021.319.013.382-.191s.188-.163.331-.1a1.451,1.451,0,0,1,.657.607,1.017,1.017,0,0,1-.426.568h0C354.947,656.2,354.9,656.255,354.856,656.3Z" transform="translate(-343.777 -644.363)" fill="#e0eef7"/><path d="M340.27,583.644c-.026.4.277.672.41,1.011a.233.233,0,0,0,.309.093,2.642,2.642,0,0,0,.461-.309.123.123,0,0,0-.007-.184c-.117-.106-.087-.2.008-.294a2.011,2.011,0,0,1,.523-.457.876.876,0,0,1-.134.853.692.692,0,0,0-.136.234c-.047.146.033.343-.161.429-.17.075-.311-.085-.471-.08a1.754,1.754,0,0,1-.92-.3.343.343,0,0,1-.166-.289q0-.07,0-.14c.088-.075.053-.209.138-.286A.3.3,0,0,1,340.27,583.644Z" transform="translate(-332.174 -579.794)" fill="#dceef7"/><path d="M435.35,665.085l-.14,0c-.362.186-.775-.051-1.136.138l-.705.006-.27-.022c-.079-.155.077-.148.12-.211a1.314,1.314,0,0,1,.183-.214.338.338,0,0,1,.176-.1,2.655,2.655,0,0,1,1.649.236C435.282,664.949,435.31,665.027,435.35,665.085Z" transform="translate(-416.324 -653.149)" fill="#c4e3f3"/><path d="M443.453,669.3a.416.416,0,0,1,.373-.138h.763c0,.046,0,.092,0,.138Z" transform="translate(-425.703 -657.224)" fill="#d0e9f5"/><path d="M282.326,661.791a.291.291,0,0,1,.286.135A.291.291,0,0,1,282.326,661.791Z" transform="translate(-280.052 -650.562)" fill="#d6ebf6"/><path d="M452.6,549.682a.287.287,0,0,1-.289-.138A.3.3,0,0,1,452.6,549.682Z" transform="translate(-433.713 -549.096)" fill="#dceef7"/><path d="M464.422,554.138a.292.292,0,0,1-.283-.139A.287.287,0,0,1,464.422,554.138Z" transform="translate(-444.402 -553.123)" fill="#dceef7"/><path d="M260.35,632.266a.292.292,0,0,1-.142.281A.282.282,0,0,1,260.35,632.266Z" transform="translate(-260.058 -623.872)" fill="#d6ebf6"/><path d="M340.159,587.916a.291.291,0,0,1-.138.286A.291.291,0,0,1,340.159,587.916Z" transform="translate(-332.206 -583.782)" fill="#e9f2f9"/><path d="M283.96,607.154l-.144.139Z" transform="translate(-281.399 -601.172)" fill="#e9f2f9"/><path d="M517.48,582.191l-.144-.137Z" transform="translate(-492.49 -578.483)" fill="#e0f0f8"/><path d="M569.214,614.65l-.143-.142Z" transform="translate(-539.255 -607.82)" fill="#dfeff8"/><path d="M467.242,555.591l-.149-.137Z" transform="translate(-447.072 -554.438)" fill="#dceef7"/><path d="M461.327,552.669l-.146-.136Z" transform="translate(-441.728 -551.797)" fill="#dceef7"/><path d="M458.37,551.206l-.145-.135Z" transform="translate(-439.056 -550.476)" fill="#dceef7"/><path d="M449.505,548.226l-.148-.136Z" transform="translate(-431.04 -547.782)" fill="#dceef7"/><path d="M314.791,561.447c0,.047,0,.095,0,.142,0,.4-.048.818.577.794.216-.008.222.207.147.379a.854.854,0,0,1-.219.359c-.527.365-.606,1.024-1,1.473a.668.668,0,0,0-.052.96c.285.318.6.189.881-.033a1.35,1.35,0,0,1,.785-.286,14.941,14.941,0,0,1,2.236-.138c.507.046.806.253.732.808-.042.315.178.589.137.9-.094.309-.325.272-.573.242a7.771,7.771,0,0,0-2.17.443c-.167.026-.261.189-.343.336h0a.268.268,0,0,1-.28-.3c0-.089,0-.178,0-.266-.288-.071-.288-.071-.338.2-.033.178-.126.253-.275.213a.461.461,0,0,1-.191-.081c-.121-.111-.207-.113-.364-.023a3.147,3.147,0,0,1-1.621.4c-.122,0-.262-.013-.3-.141-.079-.294-.349-.174-.519-.265a1.939,1.939,0,0,1-1.311.01c-.126-.041-.281.117-.289.25-.021.358-.123.475-.4.419a1.249,1.249,0,0,1-.456-.183c-.206-.142-.438.046-.609-.057a.472.472,0,0,0-.524.012.352.352,0,0,1-.337.025.661.661,0,0,0-.484-.054.414.414,0,0,1-.565-.246c-.085-.159-.157-.14-.329.019-.291.268-.391.285-.726.081-.079-.048-.16-.16-.238-.123-.36.171-.643-.022-.926-.18a.4.4,0,0,0-.563.081,1.863,1.863,0,0,1-.279.213c-.115.127-.313.007-.426.141h0c-.077.082-.21.052-.284.142h-.284c-.115.128-.313.005-.426.141H302.3c-.113-.134-.31-.016-.426-.142h0c.155-.342.494-.318.782-.377a3.807,3.807,0,0,0,1.113-.287c.136-.074.241-.182.088-.326a.636.636,0,0,1-.147-.456c-.01-.1-.039-.195-.143-.223-.2-.054-.236-.178-.22-.371.011-.127-.108-.2-.241-.2s-.212.083-.23.213c-.015.113-.02.228-.028.328-.2.075-.278-.1-.413-.12-.186-.025-.371-.06-.557-.083a.618.618,0,0,0-.273,0,.8.8,0,0,1-.62-.012c-.12-.051-.229.011-.341.044a.56.56,0,0,1-.534-.1.82.82,0,0,0-.709-.237c-.115.025-.211-.1-.274-.2a1,1,0,0,0-.5-.469c-.2-.073-.245-.516-.057-.6.338-.145.41-.424.516-.711a.167.167,0,0,1,.284-.077.311.311,0,0,0,.491-.042,1,1,0,0,1,.563-.251c.4-.1.852-.052,1.206-.34a.357.357,0,0,1,.339-.02c.226.066.455.121.68.187a.971.971,0,0,0,.628.016.832.832,0,0,1,.806.066.261.261,0,0,0,.371-.069,3.745,3.745,0,0,1,.728-.762c.245-.152.081-.625.524-.569.287.036.393-.3.662-.363.192-.041.221-.235.1-.388a3.508,3.508,0,0,0-.239-.261c-.133-.14-.264-.184-.416-.016-.058.064-.13.02-.174-.043a.142.142,0,0,1,0-.191c.124-.105.261-.195.4-.3.269.166.464.413.822.386a1.3,1.3,0,0,0,.778-.276c.14-.114.16-.215.057-.355a.845.845,0,0,1-.11-.18.227.227,0,0,1,.235-.327.35.35,0,0,1,.256.1c.117.124.256.07.263-.054.022-.4.309-.547.606-.7.1-.051.182-.2.3-.14.191.095.024.24.013.363a1.293,1.293,0,0,0-.006.211.306.306,0,0,0,.186.279c.143.055.218-.05.264-.162s.071-.222.1-.334c.287.051.547-.227.82-.105a4,4,0,0,1,.627.438c.016.011.044,0,.1.009.256-.194.466-.5.825-.591a.245.245,0,0,1,.192.027c.057.049,0,.121-.031.18-.087.141-.1.246.1.319.368.138.366.147.314.482-.007.046-.035.088-.043.134a.767.767,0,0,0,0,.131.928.928,0,0,0,.925.12c.2-.047.236-.008.328.278.031.1.076.209.157.214C314.47,560.973,314.528,561.344,314.791,561.447Z" transform="translate(-294.628 -557.595)" fill="#eff5fb"/><path d="M461.183,562.816c.141,0,.282-.007.422.007a.476.476,0,0,1,.26.081c.275.25.543.509.8.78a.44.44,0,0,1,.137.312,1.011,1.011,0,0,0,.29.825.87.87,0,0,1,.079.264.472.472,0,0,1-.373-.167.814.814,0,0,0-.762-.259c-.005-.156.025-.324-.142-.426-.043-.052-.095-.094-.142-.142h0q-.069-.073-.142-.142h0c-.083-.077-.053-.21-.142-.284q0-.071,0-.141C461.484,563.244,461.184,563.089,461.183,562.816Z" transform="translate(-441.73 -561.091)" fill="#dceef7"/><path d="M360.683,558.578l.142-.85a.394.394,0,0,0,.316-.13c.162-.227.315-.459.468-.692.024-.036.019-.117.043-.125.543-.168.866-.7,1.416-.851.044-.012.112.061.169.095a2.37,2.37,0,0,1-.612.552,3.342,3.342,0,0,0-1,.946.733.733,0,0,1-.238.25.925.925,0,0,0-.5.629C360.87,558.475,360.755,558.52,360.683,558.578Z" transform="translate(-350.883 -554.867)" fill="#dceef7"/><path d="M455.059,561.492c.072.161.331.1.361.258a1.29,1.29,0,0,1-.078.451,1.1,1.1,0,0,0-.265-.216c-.09-.036-.153.076-.221.137a.274.274,0,0,1-.262.045c-.135-.033-.241-.225-.156-.32a.6.6,0,0,0,.194-.5h.284a1.277,1.277,0,0,0,.142.142Z" transform="translate(-435.606 -559.768)" fill="#e0f0f8"/><path d="M387.285,555.476a4.982,4.982,0,0,1,1.42-.142c-.112.172-.221.347-.338.516-.1.143-.2.156-.319-.01a.294.294,0,0,0-.4-.134C387.458,555.777,387.362,555.625,387.285,555.476Z" transform="translate(-374.93 -554.318)" fill="#dceef7"/><path d="M446.4,556.653a.842.842,0,0,0,.247-.1c.079-.068.177-.13.222-.032.108.239.384.24.525.419-.391-.1-.4.286-.559.468-.222-.059-.16-.268-.248-.385A2.262,2.262,0,0,1,446.4,556.653Z" transform="translate(-428.366 -555.353)" fill="#e0f0f8"/><path d="M464.137,571.691a.292.292,0,0,1,.142.284A.292.292,0,0,1,464.137,571.691Z" transform="translate(-444.4 -569.115)" fill="#e0f0f8"/><path d="M467.094,576.121l.142.141Z" transform="translate(-447.073 -573.12)" fill="#e0f0f8"/><path d="M465.616,574.644l.142.142Z" transform="translate(-445.737 -571.785)" fill="#e0f0f8"/><path d="M416.286,562.273l-.059-.033.027-.027Z" transform="translate(-401.092 -560.548)" fill="#eff5fb"/><path d="M480.376,621.317a.469.469,0,0,1,.226-.478c.2-.128.391-.307.641-.2a.521.521,0,0,0,.512-.074,2.017,2.017,0,0,1,.374-.175c.283-.078.572-.221.863.018a.241.241,0,0,0,.366-.084.894.894,0,0,1,.924-.2,11.938,11.938,0,0,0,2.306.423.4.4,0,0,0,.433-.15c.216-.271-.064-1.4-.4-1.493a.829.829,0,0,1-.6-.62c.454-.369.879-.027,1.315.053h0a1.112,1.112,0,0,0,.708.548c.142.05.257.1.3.263a.207.207,0,0,0,.274.155.462.462,0,0,1,.453.1c.145.106.276.2.159.4s.072.357.027.54c-.129.062-.22-.035-.324-.069-.273-.089-.329-.078-.382.206a.438.438,0,0,1-.463.42,1.622,1.622,0,0,0-.96.4c-.3.253-.436.219-.777-.1-.071-.066-.131-.145-.238-.091s-.1.132-.115.232c-.031.237-.044.237-.242.18-.158-.046-.312-.111-.473-.147-.111-.025-.178.046-.165.159.011.092.053.18.064.272,0,.035-.041.109-.063.108-.162,0-.324-.029-.486-.03-.223,0-.253-.17-.314-.324a.224.224,0,0,0-.28-.151c-.15.031-.228-.023-.195-.185a1.072,1.072,0,0,0,.047-.2.187.187,0,0,0-.246-.169,4.213,4.213,0,0,1-.888.37c-.122.022-.224.163-.331.254-.414.353-.612.374-1.05.05-.141-.1-.225-.12-.362-.007-.087.072-.173-.009-.22-.1C480.688,621.225,480.543,621.228,480.376,621.317Z" transform="translate(-459.078 -611.082)" fill="#e6f1f8"/><path d="M375.465,658.348a1.957,1.957,0,0,0,.133-.323.286.286,0,0,1,.293-.245,4.507,4.507,0,0,1,1.4.107.316.316,0,0,0,.4-.2c.06-.124.074-.282.248-.31a.643.643,0,0,1,.593.149,4.045,4.045,0,0,0,.333.261.6.6,0,0,1-.624.439c-.339,0-.678.133-1-.1a.238.238,0,0,0-.2.02,1.526,1.526,0,0,0-.288.194.7.7,0,0,1-.83.1A.955.955,0,0,0,375.465,658.348Z" transform="translate(-364.245 -646.554)" fill="#d9ecf6"/><path d="M415.815,652.23c-.124.34-.129.377-.454.333-.216-.029-.26.206-.426.185a.442.442,0,0,0-.391.094.313.313,0,0,1-.33.065c-.313-.121-.661.06-.946-.074a4.652,4.652,0,0,0-.86-.179,1.9,1.9,0,0,1,1-.278.994.994,0,0,0,1.028-.586.2.2,0,0,1,.242-.1.141.141,0,0,1,.1.165.221.221,0,0,0,.158.274A1.185,1.185,0,0,0,415.815,652.23Z" transform="translate(-397.64 -641.428)" fill="#dcedf7"/><path d="M351.817,651.579c.1-.167.27-.137.426-.142C352.141,651.6,351.973,651.574,351.817,651.579Z" transform="translate(-342.868 -641.202)" fill="#e9f2f9"/><path d="M334.083,654.386c.156.005.324-.025.426.142C334.353,654.523,334.185,654.553,334.083,654.386Z" transform="translate(-326.837 -643.868)" fill="#e9f2f9"/><path d="M341.469,654.531c.1-.167.27-.137.426-.141C341.793,654.557,341.625,654.527,341.469,654.531Z" transform="translate(-333.514 -643.872)" fill="#e9f2f9"/><path d="M454.078,656a.291.291,0,0,1-.284-.142A.291.291,0,0,1,454.078,656Z" transform="translate(-435.051 -645.201)" fill="#daedf6"/><path d="M348.86,653.052a.292.292,0,0,1,.284-.142A.292.292,0,0,1,348.86,653.052Z" transform="translate(-340.195 -642.534)" fill="#e9f2f9"/><path d="M466.66,589.719c.094.013.214.024.24.119.072.264.214.288.474.263a.425.425,0,0,1,.407.616.459.459,0,0,0,.134.616c.151.14.144.272-.021.413a3.808,3.808,0,0,0-.265.329c-.215.233-.343.241-.568-.011a.338.338,0,0,0-.487-.1.664.664,0,0,1-.78-.009,2.994,2.994,0,0,0-1.068-.333c-.245-.04-.5.127-.763.084a2.959,2.959,0,0,0-.134-.4.806.806,0,0,1-.062-.673c.1-.281-.049-.448-.343-.482a2.345,2.345,0,0,1-.7-.064.318.318,0,0,0-.428.13c-.1.143-.209.182-.342.046a.4.4,0,0,0-.393-.094c-.092.02-.181.088-.269.082a1.748,1.748,0,0,0-1.274.476.684.684,0,0,1-1-.308.979.979,0,0,1,.235-1.153c.068-.064.161-.1.226-.169.142-.148.214-.308.052-.5a.478.478,0,0,1-.081-.191.2.2,0,0,1,.2-.229.774.774,0,0,1,.205.048.19.19,0,0,0,.271-.135,1.909,1.909,0,0,0,.1-.262c.033-.172.358-.247.194-.458-.11-.141-.31-.018-.47-.012-.14,0-.2-.1-.229-.224a.922.922,0,0,1,.125-.68c.042.054.114.105.12.163.029.274.065.522.439.492.059,0,.125.057.187.09.122.066.079.33.249.287.363-.092.762.148,1.09-.107a.827.827,0,0,1,1.09-.018c.06.042.174.006.268.006-.011.177-.023.336-.029.5a.258.258,0,0,0,.109.245,1.178,1.178,0,0,1,.611,1.01c.018.248.3.276.409.456a1.212,1.212,0,0,0,1.622.266C466.217,589.744,466.412,589.6,466.66,589.719Z" transform="translate(-439.684 -582.463)" fill="#e9f3fa"/><path d="M516.959,609.743c-.191.132-.424.164-.619.316a.8.8,0,0,1-.916.143.959.959,0,0,0-.277-.035c-.38-.063-.379-.065-.459-.565a.187.187,0,0,0,.09-.234c-.06-.15-.153-.288-.2-.442-.061-.2.053-.3.25-.317.009.112-.021.235.064.328.1.11.211.005.318,0,.162,0,.164.126.123.317-.082.141-.062.181-.037.162s.03-.077.033-.126a.168.168,0,0,1,.067-.117c-.048.05-.1.093-.063.081.249-.086.437-.067.617-.141a.334.334,0,0,1,.2-.008c.109.028.073.252.219.206.1-.033.184-.141.311-.133.093.006.224-.014.271.037.256.283.59.232.912.25a.432.432,0,0,1,.375.276c-.243.047-.465.139-.708-.088A.4.4,0,0,0,516.959,609.743Z" transform="translate(-489.983 -602.487)" fill="#def0f8"/><path d="M459.848,561.493l-.142-.142Z" transform="translate(-440.395 -559.768)" fill="#dceef7"/><path d="M287.912,656.838c-.027.032-.048.082-.082.091-.053.015-.088-.03-.061-.076s.069-.049.108-.069A.625.625,0,0,1,287.912,656.838Z" transform="translate(-284.964 -646.035)" fill="#e0eef7"/><path d="M373.988,667.821l.142-.142Z" transform="translate(-362.91 -655.884)" fill="#d9ecf6"/><path d="M380.35,575.018c-.18-.1-.41-.152-.421-.422a.663.663,0,0,1,.349-.708.467.467,0,0,0,.252-.232.524.524,0,0,1,.551-.351c.062,0,.176-.041.183-.077.057-.329.421-.435.518-.733a.659.659,0,0,1,.5-.458.958.958,0,0,0,.781-.96c.02-.275.09-.327.369-.292.2.025.37.054.485-.156.063-.116.184-.129.3-.154a1.423,1.423,0,0,0,.4-.125c.4-.227.731-.255.932.256.027.069.145.119.231.145.144.044.158.127.153.262a1.351,1.351,0,0,0,.088.336.288.288,0,0,0,.285.26,1.217,1.217,0,0,1,1.026.732,1.561,1.561,0,0,0,.158.232.99.99,0,0,1,.056,1.293,1.146,1.146,0,0,0-.235.8.914.914,0,0,1-.713,1.065c-.209.058-.292.433-.6.24a.589.589,0,0,1-.044-.343c.058-.908.057-.913-.858-.869a1.015,1.015,0,0,1-.819-.326.729.729,0,0,0-1.065-.131.692.692,0,0,1-.675.1A1.649,1.649,0,0,0,380.35,575.018Z" transform="translate(-368.279 -567.762)" fill="#f6f7fa"/><path d="M384.33,608.967c.026-.317.3-.523.373-.823a.263.263,0,0,1,.36-.134.9.9,0,0,0,.679,0,.68.68,0,0,1,.666.122.517.517,0,0,0,.707-.024,2.584,2.584,0,0,1,.3-.187,1.042,1.042,0,0,1,.3-.164c.141-.027.172.134.249.215a.57.57,0,0,0,.308.157c.095.02.2.062.218.156.038.251.2.25.4.268.368.032.681-.177,1.052-.2a1.488,1.488,0,0,1,.154,1.269,2.8,2.8,0,0,1-.089.339l-.028.09a.367.367,0,0,1-.144.121.5.5,0,0,1-.189.013c-.415-.233-.7.046-1,.26a1.1,1.1,0,0,1-.176.08,1.641,1.641,0,0,1-.379.1c-.237-.077-.517-.024-.7-.256-.074-.092-.242-.163-.315-.1-.639.595-1.227-.133-1.844-.058a.506.506,0,0,1-.571-.417,1.688,1.688,0,0,0-.334-.683Z" transform="translate(-372.258 -601.711)" fill="#fbfafb"/><path d="M381.059,621.9a1.011,1.011,0,0,1,.507.712.291.291,0,0,0,.369.225c.176-.029.361.032.543-.056.065-.031.177.02.262.051.189.069.094.4.321.4.182,0,.22-.287.426-.321.16-.026.315-.078.474-.11.127-.026.266.02.289.135.077.378.389.322.641.383.075-.087.211-.05.284-.142h.142a1.482,1.482,0,0,0,1.278-.284,2,2,0,0,0,.142-.142c.2-.077.318-.31.568-.284a1.4,1.4,0,0,1-.454.608.787.787,0,0,0-.3.444c.137.087.22-.038.324-.059.057.044.06.112.077.173a.191.191,0,0,1,.065-.173c.078-.121.178-.118.3-.067a1.682,1.682,0,0,0,.268.067c.022-.155-.06-.328.081-.463.183.029.276.175.374.3.15.194.139.341-.017.574-.039.058-.091.107-.13.164-.188.275-.413.393-.616.206s-.435-.15-.648-.168c-.187-.017-.363.027-.5-.15a.655.655,0,0,0-.584-.181,1.055,1.055,0,0,1-.8-.19.3.3,0,0,0-.26-.06c-.33.161-.706.043-1.035.19a.56.56,0,0,1-.414.035c-.189-.066-.289.016-.42.147a.852.852,0,0,1-1.227.06c-.236-.186-.469-.377-.671-.541a.193.193,0,0,1,.1-.22.853.853,0,0,0,.27-1.126A.487.487,0,0,1,381.059,621.9Z" transform="translate(-368.988 -614.501)" fill="#f6f7fa"/><path d="M477.61,643.59c.017.009.048.019.047.025-.006.038-.008.095-.031.107a.907.907,0,0,1-.188.054.585.585,0,0,1,.066-.114A.532.532,0,0,1,477.61,643.59Z" transform="translate(-456.424 -634.109)" fill="#e6f1f8"/><path d="M445.066,638.143c-.006.068,0,.176-.071.176s-.065-.107-.071-.176Z" transform="translate(-427.033 -629.185)" fill="#f6f7fa"/><path d="M555.026,628.916c-.092.214.023.316.153.432a.282.282,0,0,1,.018.462.139.139,0,0,1-.233-.017.532.532,0,0,1-.1-.182,1.825,1.825,0,0,0-.3-.768c-.042-.052-.013-.181.015-.262a.191.191,0,0,1,.211-.144.293.293,0,0,1,.156.113A.356.356,0,0,1,555.026,628.916Z" transform="translate(-526.123 -620.407)" fill="#e9f3fa"/><path d="M519.923,614.752c-.042.045-.077.115-.132.137a.342.342,0,0,1-.431-.389c.014-.079.354-.186.36-.128C519.736,614.529,519.843,614.62,519.923,614.752Z" transform="translate(-494.315 -607.682)" fill="#d8edf6"/><path d="M429.944,629.723a1.418,1.418,0,0,1-.589.573c-.138.071-.271.086-.36-.07a.374.374,0,0,0-.328-.219c.072-.214.305-.266.431-.426a.275.275,0,0,1,.42-.05A.714.714,0,0,0,429.944,629.723Z" transform="translate(-412.336 -621.332)" fill="#f6f7fa"/><path d="M424.517,635.189a.292.292,0,0,1-.284.142A.292.292,0,0,1,424.517,635.189Z" transform="translate(-408.329 -626.515)" fill="#f6f7fa"/><path d="M442.11,630.759l-.142.142Z" transform="translate(-424.36 -622.51)" fill="#f6f7fa"/><path d="M452.314,638.142l.059.033-.027.027Z" transform="translate(-433.713 -629.184)" fill="#f6f7fa"/></g></g></svg>