<svg
  xmlns="http://www.w3.org/2000/svg" width="139.705" height="63.168" viewBox="0 0 139.705 63.168">
  <title>カップルが乗る二人乗りボート</title>
  <g transform="translate(21.141 1.578)"><path d="M462.457,1463.42s1.61,3.941,5.228,5.242,9.532-5.663,4.384-9.6S462.457,1463.42,462.457,1463.42Z" transform="translate(-457.976 -1418.111)" fill="#2f1d5c" /><path d="M773.464,1383.977s5.437,9.224,9.005,16.265c0,0-2.39,1.287-3.215.657-4.66-3.553-9.231-10.926-9.231-10.926Z" transform="translate(-741.934 -1349.774)" fill="#262626" /><path d="M551.719,1384.05s12.786-9.444,19.594-9.417c0,0,2.772,2.743,1.2,4.628-8.464,10.179-20.8,12.6-20.8,12.6Z" transform="translate(-540.387 -1341.146)" fill="#262626" /><path d="M456.912,1479.746s-3.85,4.711-5.8,5.515-2.929-4.1-2.9-4.807S456.912,1479.746,456.912,1479.746Z" transform="translate(-444.823 -1438.192)" fill="#fff" /><path d="M411.482,1032.222a17.794,17.794,0,0,0,1.956,1.874,10.119,10.119,0,0,1,1.361.985c.351.41.433,1.043-.261.976-.47-.045-.686-.517-1.032-.789-.4-.313-.706-.394-1.106-.087-.248.19-.094.347-.446.417-.262.052-.514-.147-.74-.23a9.575,9.575,0,0,0-3.234-.746c-1.544-.015-2.613-.164-3.472,1.218a3.062,3.062,0,0,0-.416,1.94,8.715,8.715,0,0,0,.69,1.936c.413,1.4-.437,2.366-.52,3.687a3.133,3.133,0,0,0,2.01,3.155c1.712.463,2.817-2.793,3.349-3.881a7.285,7.285,0,0,1,1.49-2.414c.845-.71,1.661.309,2.332-.788.038-.066.075-.134.107-.2.219-.476.37-.9.886-1.105.558-.219.9-.124,1.364-.547.794-.725,1.214-1.219,2.351-1.218.689,0,1.043.107,1.208-.574.131-.54,0-.753.5-1.134a12.823,12.823,0,0,1,2.2-.89c.585-.286,1.442-.846,1.555-1.518.117-.7-.464-1.336-.527-2.01-.059-.647.3-.93.743-1.31a1.6,1.6,0,0,0,.564-1.789,1.678,1.678,0,0,0-.921-.69,4.028,4.028,0,0,1-.954-.6,4.349,4.349,0,0,1-.955-.857,7.5,7.5,0,0,0-.785-1.075,2.6,2.6,0,0,0-1.4-.683,2,2,0,0,0-.946.309,5.224,5.224,0,0,1-2.525.582,4.169,4.169,0,0,0-2.5.937,2.157,2.157,0,0,0-.706.873c-.184.424-.016.537,0,.964a1.454,1.454,0,0,1-.43,1.341c-.363.272-.852.278-1.175.579a1.874,1.874,0,0,0-.575,1.339A2.994,2.994,0,0,0,411.482,1032.222Z" transform="translate(-404.081 -1016.749)" fill="#4d1f03" /><g transform="translate(2.422)"><g transform="translate(10.446)"><path d="M589.926,1309.059s0,3.631.769,4.271c.277.231.354,2.236,7.849-.8,1.2-.487,6.165-2.521,6.034-4.065l-.6-2.174a15.816,15.816,0,0,1-5.5,2.473A37.678,37.678,0,0,1,589.926,1309.059Z" transform="translate(-588.529 -1278.048)" fill="#294bd9" /><path d="M743.423,1292.718a.357.357,0,0,0-.022.083c.224,1.984,1.471,1.77,1.471,1.77a2.1,2.1,0,0,0,1.951-1.206c.329-.554.578-.626.419-1.15,0,0,.534-.592.137-.849,0,0,.464-.565.167-.837,0,0,.588-.839-.511-.851C746.43,1289.673,745.239,1290.173,743.423,1292.718Z" transform="translate(-730.224 -1262.714)" fill="#fb9588" /><path d="M753.356,1321.525s-.37,1.134.97.823c1.406-.326,1.549-.6,1.549-.6l-.738-.781-.446-.239Z" transform="translate(-739.372 -1291.375)" fill="#ed7277" /><path d="M743.4,1280.965a7.649,7.649,0,0,1,1.221-2.532s1.535-1.138,1.78-1.392,1.023-.378.511.575a9.751,9.751,0,0,1-.683.758,4.907,4.907,0,0,1-.855,2.213A1.913,1.913,0,0,1,743.4,1280.965Z" transform="translate(-730.225 -1250.878)" fill="#ed7277" /><path d="M853.034,953.623s-.5-5.664.743-8.968,3.6-7.7,7.139-5.839c2.689,1.411,1.071,5.8-.271,8.091C859.166,949.429,855.212,952.436,853.034,953.623Z" transform="translate(-831.351 -938.373)" fill="#22183b" /><path d="M572.634,1107.619l23.86-48.953a.406.406,0,0,0-.73-.356l-24.034,49.308Z" transform="translate(-571.73 -1048.894)" fill="#060525" /><path d="M757.535,1324.852a.465.465,0,0,1,.214.681c-.116.253-2.062.46-2.062.46s-.405-.013-.282-.459C755.511,1325.146,757.535,1324.852,757.535,1324.852Z" transform="translate(-741.285 -1295.187)" fill="#fb9588" /><path d="M763.11,1311.992a.465.465,0,0,1,.38.6c-.05.274-1.879.967-1.879.967s-.4.09-.389-.373C761.227,1312.789,763.11,1311.992,763.11,1311.992Z" transform="translate(-746.677 -1283.314)" fill="#fb9588" /><path d="M764.391,1301.445a.466.466,0,0,1,.38.605c-.049.274-1.879.967-1.879.967s-.395.09-.388-.373C762.508,1302.242,764.391,1301.445,764.391,1301.445Z" transform="translate(-747.86 -1273.576)" fill="#fb9588" /><path d="M769.124,1290.625a.465.465,0,0,1,.288.653c-.089.264-2,.683-2,.683s-.4.031-.33-.426C767.146,1291.139,769.124,1290.625,769.124,1290.625Z" transform="translate(-752.08 -1263.587)" fill="#fb9588" /></g><path d="M517.121,1158.637s.56,1.941-1.727,4.308a9.8,9.8,0,0,0,5.184,1.47s-1.93-1.79.933-3.907C523.008,1159.4,517.121,1158.637,517.121,1158.637Z" transform="translate(-509.272 -1141.73)" fill="#ed7277" /><g transform="translate(5.059 7.136)"><path d="M553.223,1054.356c-.155-.045-.293,0-.447-.044-.064-.018-.33-.078-.3-.077-.072-.011-.146-.02-.219-.025-.048.007-.262.021-.32.031-.133.024-.267.048-.4.083-.031.008-.086.026-.124.038a3.154,3.154,0,0,0-.392.189l-.09.069a3.282,3.282,0,0,0-.251.227l-.013.017c-.034.042-.065.084-.1.127a4.168,4.168,0,0,0-.272.425c-.012.022-.032.06-.05.095q-.127.28-.226.572a17.837,17.837,0,0,1-.941,2.7,3.434,3.434,0,0,1-.981,1.154,5.955,5.955,0,0,0,2.329,3.547c.772.566,3.309,1.385,3.75.779a12.285,12.285,0,0,0-.543-9.858C553.475,1054.377,553.381,1054.4,553.223,1054.356Z" transform="translate(-544.529 -1052.456)" fill="#fb9588" /><path d="M505.567,1039.871c.389-.039.437-.869.837-.931.3-.047.437.97.675.764a1.3,1.3,0,0,0,.333-1.4c-.111-.211-.679-1.758-.07-1.734.279.012.7.436.953.55a1.012,1.012,0,0,0,.8.028,1.962,1.962,0,0,0,.782-.574c.263-.34.075-.547.115-.918s.257-.192.565-.284.149-.324.307-.512.491-.1.675-.258c.293-.244.193-1.067.094-1.4a1.8,1.8,0,0,0-1.178-1.07c-.631-.238-1.361-.368-2.025-.547a4.181,4.181,0,0,0-1.091-.237,8.871,8.871,0,0,0-1.473.2,6.058,6.058,0,0,0-1.934,1.03,2.355,2.355,0,0,0-1.24,1.538,11.354,11.354,0,0,0-.269,1.435,4.947,4.947,0,0,1-.373,1.505c-.289.63-.674,1.551-.243,2.2.118.175.265.332.372.513a2.946,2.946,0,0,0,.194.415c.262.313,1.845.448,1.644,1.01-.055.154-.3.2-.426.317a.643.643,0,0,0-.206.4c-.027.164.062.4-.035.539-.065.092-.286.107-.373.228-.159.219-.043.532-.171.743-.12.195-.366.175-.575.27a1,1,0,0,0-.655,1.061c.1.438,1.164.2,1.529.166a4.827,4.827,0,0,1,1.885.121c.326.1.583.277.8-.045a.978.978,0,0,0,.036-.908,1.948,1.948,0,0,1-.164-1.177,5.983,5.983,0,0,1,.393-1.112c.3-.8-.288-1.239-.4-1.962" transform="translate(-501.552 -1031.34)" fill="#4d1f03" /><path d="M539.3,1124.867s-2.042-1.172-2.115.245,1.807,2.536,2.228,2.11Z" transform="translate(-534.453 -1117.268)" fill="#fb9588" /><path d="M633.955,1117.925s1.073-.25.939-.476a10.987,10.987,0,0,1-1.027-2.476Z" transform="translate(-623.711 -1108.554)" fill="#fb9588" /></g><path d="M463.812,1205.988a7.292,7.292,0,0,1,4.425,1.779c-1.094-.908,6.8,7.753,3.01,10.051a54.726,54.726,0,0,0-3.282,6.68s-4.708,6.116-7.778,4.2a54.655,54.655,0,0,0-.253-9.564C459.607,1217.069,456.4,1209.288,463.812,1205.988Z" transform="translate(-457.174 -1185.447)" fill="#fe9929" /><path d="M448.243,1252.524s2.049-3.2,2.256.383c.231,3.979-1.238,9.427-2.5,11.072-2.42,3.152-9.365,5.094-10.835,2.749a10.762,10.762,0,0,1-1.526-6.2,41.56,41.56,0,0,1,2.538-12.784C439.331,1245.017,448.243,1252.524,448.243,1252.524Z" transform="translate(-435.637 -1223.447)" fill="#fe9929" /><path d="M483.978,1234.344s-2.816-3.517-.257-5.856,6.506,4.719,4.376,6.46S483.978,1234.344,483.978,1234.344Z" transform="translate(-479.038 -1205.785)" fill="#294bd9" /><path d="M653.172,1415.281l.194-.1,1.439.688a7.823,7.823,0,0,1,1.908,1.038,1.125,1.125,0,0,1,.306.459c.06.2-.035.289-.12.455s-.031.295-.087.449c-.115.326-.528.475-.706.765-.093.15-.048.32-.105.47s-.232.25-.316.367-.077.26-.178.365c-.4.418-.867-.191-1.111-.468a4.9,4.9,0,0,0-.928-.772,8.635,8.635,0,0,1-1.316-1.83Z" transform="translate(-635.533 -1378.582)" fill="#fb9588" /><path d="M496.6,1393.2a19.9,19.9,0,0,0,9.3,1.687,3.912,3.912,0,0,1-.591,2.993s-2.511.263-3.88.341a17.932,17.932,0,0,1-8.652-1.387C491.291,1396.244,494.892,1393.81,496.6,1393.2Z" transform="translate(-488.067 -1358.292)" fill="#294bd9" /><path d="M469.281,1248.576l.49,1.7s-1.692,3.65-1.511,4.607.867,1.493.915,2.3-.739-.406-4.07,2.842a4.026,4.026,0,0,1-.916-.637c-1.329-1.8-3.231-9.757.214-14.373C464.4,1245.012,468.824,1245.046,469.281,1248.576Z" transform="translate(-460.395 -1221.475)" fill="#294bd9" /></g><path d="M552.239,1649.778a20.283,20.283,0,0,0,.191-4.462s-2.132,1.988-4.567,4.462Z" transform="translate(-536.827 -1591.053)" fill="#22183b" /><g transform="translate(10.982 43.62)"><path d="M572.506,1521.765l7.361-15.105h-.9l-7.363,15.105Z" transform="translate(-569.725 -1506.66)" fill="#060525" /><path d="M551.606,1648.682a20.531,20.531,0,0,0,.2-4.553s-2.183,2.037-4.656,4.553Z" transform="translate(-547.152 -1633.577)" fill="#22183b" /></g></g><g transform="translate(69.853 0)"><g transform="translate(9.949 29.706)"><path d="M2110.055,1230.09s-1.318,2.986-.916,3.791c.143.29-.521,1.967,6.746,2.188,1.162.035,5.982.163,6.435-1.155l.295-2.006a14.21,14.21,0,0,1-5.416.04A33.985,33.985,0,0,1,2110.055,1230.09Z" transform="translate(-2109.063 -1230.09)" fill="#262626" /><path d="M2173.184,1244.046a.292.292,0,0,0-.047.061c-.536,1.713.566,1.99.566,1.99a1.893,1.893,0,0,0,2.043-.285c.472-.335.7-.3.763-.794,0,0,.654-.292.421-.648,0,0,.586-.3.44-.627,0,0,.787-.477-.112-.885C2176.762,1242.632,2175.6,1242.611,2173.184,1244.046Z" transform="translate(-2162.123 -1240.593)" fill="#fb9588" /><path d="M2176.6,1251.929s-.715.8.5,1.03c1.275.242,1.492.064,1.492.064l-.323-.911-.281-.358Z" transform="translate(-2164.947 -1248.071)" fill="#ed7277" /><path d="M2173.855,1240.149a6.879,6.879,0,0,1,1.924-1.64s1.674-.378,1.968-.5.979.06.213.658a9.017,9.017,0,0,1-.837.376s-.839,1.312-1.507,1.509A1.719,1.719,0,0,1,2173.855,1240.149Z" transform="translate(-2162.84 -1236.635)" fill="#ed7277" /></g><path d="M2069.025,1173.267a.364.364,0,0,0,.107.5h0a.366.366,0,0,0,.506-.108l32.845-50.9a.365.365,0,0,0-.11-.505h0a.366.366,0,0,0-.5.108Z" transform="translate(-2065.835 -1110.839)" fill="#060525" /><path d="M2179.36,1253.816a.419.419,0,0,1-.071.638c-.187.166-1.863-.371-1.863-.371s-.33-.157-.065-.48C2177.59,1253.324,2179.36,1253.816,2179.36,1253.816Z" transform="translate(-2155.717 -1219.829)" fill="#fb9588" /><path d="M2182.677,1250.885a.418.418,0,0,1,.093.636c-.139.207-1.9.113-1.9.113s-.357-.068-.185-.448C2180.838,1250.858,2182.677,1250.885,2182.677,1250.885Z" transform="translate(-2158.525 -1217.643)" fill="#fb9588" /><path d="M2184.879,1247.185a.419.419,0,0,1,.093.635c-.14.207-1.9.112-1.9.112s-.359-.07-.185-.447C2183.04,1247.158,2184.879,1247.185,2184.879,1247.185Z" transform="translate(-2160.352 -1214.573)" fill="#fb9588" /><path d="M2188.883,1243.636a.417.417,0,0,1,0,.641c-.169.187-1.893-.163-1.893-.163s-.343-.121-.118-.469C2187.07,1243.34,2188.883,1243.636,2188.883,1243.636Z" transform="translate(-2163.633 -1211.52)" fill="#fb9588" /><path d="M2077.027,1282.645s1.446,3.542,4.7,4.712,8.566-5.091,3.94-8.633S2077.027,1282.645,2077.027,1282.645Z" transform="translate(-2072.526 -1239.958)" fill="#2f1d5c" /><path d="M2204.925,1247.731s4.888,8.292,8.093,14.619c0,0-2.146,1.157-2.888.591-4.189-3.193-8.3-9.82-8.3-9.82Z" transform="translate(-2176.113 -1215.026)" fill="#294bd9" /><path d="M2113.242,1252.4s11.493-8.489,17.612-8.465c0,0,2.491,2.466,1.081,4.161a35.853,35.853,0,0,1-18.693,11.321Z" transform="translate(-2102.583 -1211.878)" fill="#294bd9" /><path d="M2093.509,1267.32a1.413,1.413,0,0,1,.274-.126,14.533,14.533,0,0,0,.55-13.116c-.1.012-.2.031-.31.056-2.451.554-8.182,3.972-8.182,3.972s-9.678,3.765-8.987,5.536,4.028,4.655,5.225,5,11.46-1.375,11.46-1.375S2093.53,1267.284,2093.509,1267.32Z" transform="translate(-2072.353 -1220.294)" fill="#d95b34" /><path d="M2079.063,1286.594s-3.461,4.235-5.214,4.957-2.631-3.69-2.605-4.321S2079.063,1286.594,2079.063,1286.594Z" transform="translate(-2067.724 -1247.282)" fill="#d95b34" /><g transform="translate(32.582)"><path d="M2242.2,1073.1s.222-6.995,2.222-10.85,5.525-8.879,9.58-6.086c3.078,2.12.457,7.247-1.519,9.847C2250.306,1068.875,2245.032,1071.969,2242.2,1073.1Z" transform="translate(-2242.199 -1055.354)" fill="#22183b" /></g><path d="M2100.014,1150.473a5.824,5.824,0,0,1-1.5,4.861,8.8,8.8,0,0,0,4.657,1.322s-1.733-1.61.84-3.512C2105.354,1152.148,2100.014,1150.473,2100.014,1150.473Z" transform="translate(-2090.358 -1134.302)" fill="#ed7277" /><g transform="translate(7.106 7.133)"><path d="M2116.375,1114.044c-.14-.04-.264,0-.4-.039-.055-.016-.3-.07-.268-.068a1.928,1.928,0,0,0-.2-.022c-.043.006-.237.018-.288.027-.12.021-.24.043-.36.074l-.111.035a3.3,3.3,0,0,0-.353.169c-.026.022-.055.042-.079.062a2.492,2.492,0,0,0-.226.2.083.083,0,0,0-.014.017c-.029.036-.057.074-.084.113a3.914,3.914,0,0,0-.246.381c-.01.021-.029.056-.045.086-.075.167-.144.339-.2.514a16.189,16.189,0,0,1-.845,2.429,3.072,3.072,0,0,1-.883,1.037,5.366,5.366,0,0,0,2.094,3.189c.695.508,2.975,1.245,3.371.7a11.034,11.034,0,0,0-.488-8.859C2116.6,1114.062,2116.517,1114.084,2116.375,1114.044Z" transform="translate(-2108.468 -1111.092)" fill="#fb9588" /><path d="M2125.08,1144.881a2.232,2.232,0,0,1,.43.911,1.612,1.612,0,0,0,.845.861,1.2,1.2,0,0,0,.529.1,3.627,3.627,0,0,0,.912-.017,1.732,1.732,0,0,1,.533-.121c.2,0,.327-.046.328.189a10.627,10.627,0,0,1-.169,1.071c-.035.382.058.615-.283.868a1.912,1.912,0,0,1-2.11.113,3.152,3.152,0,0,1-1.07-.763,2.524,2.524,0,0,1-.342-1.41c-.032-.37-.069-.752-.083-1.118-.017-.408.3-.452.5-.739l.015-.017" transform="translate(-2119.115 -1136.738)" fill="#0f0b2a" /><path d="M2096.047,1106.224c.4-.039.372-.9.8-.835.111.018.43.438.547.543.185.163.36.536.644.506s.5-.381.551-.621c.107-.529-.906-1.61-.205-2,.245-.136.618-.011.894-.135a.806.806,0,0,0,.549-.619c.064-.391-.163-.7.337-.793.3-.058.619.1.9.035.391-.094.3-.447.518-.653a4.643,4.643,0,0,1,.936-.438,1.984,1.984,0,0,0,1.163-2.269,1.248,1.248,0,0,0-.9-.8c-.394-.029-.585.33-.934.373-.762.092-1.194-.97-1.815-1.155a2.323,2.323,0,0,0-1.823.516c-.479.312-.711.207-1.24-.008-.907-.368-1.8-.482-2.458.412a8.932,8.932,0,0,0-.4.852,2.318,2.318,0,0,1-.853.688.779.779,0,0,0-.412.833c.024.641-.305,1.213-.345,1.857a4.98,4.98,0,0,0,.207,1.28,2.313,2.313,0,0,1-.13,1.31,3.764,3.764,0,0,0-.187,1.458.056.056,0,0,1-.041-.054,2.514,2.514,0,0,1,.566.337c.248.214.2.317.271.589.136.494.513.584.973.583.328,0,1.02.125,1.163-.24.089-.226-.234-.561-.143-.8.113-.286.578-.1.9-.261.211-.105.448-.377.068-.49" transform="translate(-2092.348 -1097.314)" fill="#0f0b2a" /><path d="M2109.249,1142.809s-1.833-1.053-1.9.221,1.625,2.278,2,1.9Z" transform="translate(-2104.797 -1134.735)" fill="#fb9588" /><path d="M2146.659,1141.219s.962-.224.844-.427a9.884,9.884,0,0,1-.925-2.226Z" transform="translate(-2137.358 -1131.553)" fill="#fb9588" /></g><path d="M2063.188,1161.111c0-1.2.145-2.611-.54-3.672-.854-1.32-2.357-1.308-3.754-1.435s-2.816-.116-4.229-.1a11.869,11.869,0,0,0-2.26.257,3.722,3.722,0,0,0-1.341.3c-.6.464-.555,2.117-.46,2.788a5.207,5.207,0,0,0,1.632,2.695,3.166,3.166,0,0,1,.674,1.177,2.135,2.135,0,0,0,.459.917,1.533,1.533,0,0,0,1.2.269c.352-.126.6-.667.813-.991.336-.52.265-1.3.66-1.775a4.737,4.737,0,0,1,1.405-.8,5.446,5.446,0,0,1,4.243-.233c.5.186.953.51,1.443.706" transform="translate(-2050.548 -1138.802)" fill="#294bd9" /><path d="M2079.963,1175.5a6.564,6.564,0,0,1,3.978,1.6c-.983-.816,2.34.95,3.089,6.318,0,0-1.837,5.117-3.335,8.721,0,0-4.231,5.5-6.991,3.771a49.127,49.127,0,0,0-.226-8.6C2076.183,1185.46,2073.3,1178.467,2079.963,1175.5Z" transform="translate(-2071.346 -1155.075)" fill="#fe9929" /><path d="M2075.145,1197.722s3.837-3.506,4.023-.285c.206,3.576-.79,8.573-1.924,10.052-2.174,2.832-8.416,4.578-9.739,2.47a9.693,9.693,0,0,1-1.371-5.572,37.377,37.377,0,0,1,2.282-11.491C2069.454,1190.446,2075.145,1197.722,2075.145,1197.722Z" transform="translate(-2063.484 -1169.095)" fill="#fe9929" /><path d="M2086.747,1194.078s-3.991-.688-3.664-3.786,7.191-.7,6.795,1.738S2086.747,1194.078,2086.747,1194.078Z" transform="translate(-2077.536 -1166.132)" fill="#294bd9" /><path d="M2200.274,1190.155a2.191,2.191,0,0,1,.335-.6c.125-.214.245-.442.36-.667.129-.252.178-.532.292-.79a1.766,1.766,0,0,1,.905-.945,10.759,10.759,0,0,0,1.264-.474c-.043.105-.2.273-.2.316a3.482,3.482,0,0,0,.812-.3c.208-.17.521-.656.758-.792.755-.427-.209,1.2-.333,1.52a7.728,7.728,0,0,1-.458,1.421,4.356,4.356,0,0,0-.3.479,2.376,2.376,0,0,1-.639.918,2.464,2.464,0,0,1-.719.534c-.342.189-.654.527-.965.683-.23-.24-.473-.473-.709-.71-.149-.148-.407-.259-.413-.5A.434.434,0,0,1,2200.274,1190.155Z" transform="translate(-2174.813 -1163.65)" fill="#fb9588" /><path d="M2135.945,1211.082s7.048-1.208,9.917-4.34a3.515,3.515,0,0,1,1.386,2.365s-1.532,1.673-2.407,2.543c-3.047,3.024-8.093,3.723-9.3,4.158C2134.184,1216.293,2135.155,1212.51,2135.945,1211.082Z" transform="translate(-2120.528 -1181.005)" fill="#294bd9" /><path d="M2088.847,1196.138l1.339.849s1.036,3.465,1.73,4,1.472.488,1.986,1-.74.167-1.046,4.338a3.674,3.674,0,0,1-1,.118c-1.964-.417-7.988-4.641-8.42-9.8C2083.441,1196.646,2086.434,1194.035,2088.847,1196.138Z" transform="translate(-2077.849 -1171.524)" fill="#294bd9" /></g><g transform="translate(0 43.875)"><path d="M1766.938,1313.438l139.705.273s-1.856,19.286-42.6,18.584C1814.591,1331.446,1771.891,1339.082,1766.938,1313.438Z" transform="translate(-1766.938 -1313.438)" fill="#d95b34" /><path d="M1861.887,1321.154s44.336-.138,46.124,0,.413,3.715-4.264,4.953-38.321.55-41.86,0-5.776-1.569-8.578-2.16-60.723.233-64.85.921a34.007,34.007,0,0,1-8.529.137s-3.438-4.127-3.438-4.814S1861.887,1321.154,1861.887,1321.154Z" transform="translate(-1774.868 -1318.904)" fill="#feb52c" /><path d="M1827.429,1383.263s6.915,2.528,7.017,3.044-7.481-.723-10.009-2.528S1827.429,1383.263,1827.429,1383.263Z" transform="translate(-1814.112 -1371.022)" fill="#fee884" /><path d="M2540.886,1323.448s-2.887,6.242-7.169,8.615C2532.117,1332.887,2540.2,1321.293,2540.886,1323.448Z" transform="translate(-2403.187 -1321.524)" fill="#fee884" /></g>
</svg>