<svg xmlns="http://www.w3.org/2000/svg"
  viewBox="0 0 188.915 198.281"
  >
  <g transform="translate(0)">
  <title>マングローブの木</title>
  <desc>マングローブの木</desc>
  <path d="M87.786,124.859s7.344.26,10.654-.848l.748-.06a22.209,22.209,0,0,1,12.805,1.015,20.656,20.656,0,0,0,15.386-.486,5.533,5.533,0,0,1,5.051.1c8.867,3.98,19.812,1.778,25.465-5,.95-1.139,1.909-1.079,3.389-.751,10.96,2.43,18.869-1.993,19.566-10.969a3.591,3.591,0,0,1,2.04-2.937c4.374-2.64,5.805-6.294,6.017-10.542.126-2.552-1.34-4.328-3.306-5.98-1.147-.964-1.535-1.7-.6-3.06,3.578-5.2,2.71-10.219-2.643-14.374-1.963-1.524-2.735-2.935-2.209-5.082,1.322-5.388-1.215-9.522-6.919-12.3-1.67-.813-1.489-1.5-1.276-2.818.631-3.9.708-7.765-3.433-10.77-1.447-1.05-2.982-2.082-4.833-2.069-3.831.028-4.659-1.758-5.344-4.337-1.586-5.968-5.494-10.21-13.8-10.564-1.754-.075-2.781-.668-3.308-2.217-2.29-6.737-8.264-9.673-16.533-9.922a3.31,3.31,0,0,1-3.022-1.625c-5.878-8.228-16.732-10.522-26.966-5.611-1.495.717-2.1.664-3.249-.3C85.386-1.725,78-.712,71.4,4.206c-2.9,2.161-5.194,3.284-9.287,2.422-3.568-.751-6.782.947-9.023,3.266a9.071,9.071,0,0,1-4.867,2.5c-4.172.95-7.522,2.937-8.743,6.427-.57,1.629-1.484,1.937-3.3,2C26.875,21.144,20.449,28,22.854,35.2c.521,1.557-.086,2.039-1.441,2.79-6.712,3.72-8.651,7.878-6.771,14.465.336,1.176.382,1.805-1.411,1.931-6.853.479-9.587,8.448-6.843,12.924,1.015,1.655,1.238,2.224-.913,3.458-6.711,3.851-7.313,13.333-1.467,18.8,1.2,1.128,2.291,1.936.611,3.49C-.488,97.789.732,105.283,7.447,108.309c2.619,1.18,4.6,2.3,5.995,4.486,4.324,6.779,12.007,7.619,20.209,6.729a7.573,7.573,0,0,1,6.487,1.776c5.272,4.191,12.282,4.832,19.278,4.642a22.364,22.364,0,0,0,13.072-4.266,2.893,2.893,0,0,1,3.279-.2c3.7,1.85,7.878,2.567,12.019,3.381l1.174-.093" transform="translate(0 0)" fill="#7ebf41" /><path d="M38.493,2.428c17.741,0,16.9,15.729,16.9,35.113S32.765,60.462,15.024,60.462-35.164,66.2-35.164,46.815,20.753,2.428,38.493,2.428Z" transform="translate(121.627 58.732)" fill="#77af42" /><path d="M-21063.295-2423.967s2.439-6.182,13.809-2.376,5.652,14.549,5.652,14.549-4.986,11.883-15.77,6.631S-21063.295-2423.967-21063.295-2423.967Z" transform="translate(21160.313 2471.116)" fill="#fff46a" /><path d="M-21063.887-2424.9s1.811-4.584,10.238-1.762,4.189,10.788,4.189,10.788-3.693,8.811-11.691,4.917S-21063.887-2424.9-21063.887-2424.9Z" transform="translate(21190.188 2494.874)" fill="#14d9a5" /><path d="M1.33,2.1S2.748-1.491,9.345.719s3.281,8.445,3.281,8.445-2.892,6.9-9.153,3.849S1.33,2.1,1.33,2.1Z" transform="matrix(0.454, 0.891, -0.891, 0.454, 127.73, 30.584)" fill="#14d9a5" /><path d="M-21064.254-2425.483s1.416-3.589,8.014-1.379,3.279,8.446,3.279,8.446-2.889,6.9-9.152,3.849S-21064.254-2425.483-21064.254-2425.483Z" transform="translate(21208.176 2478.011)" fill="#d95b34" /><path d="M-21063.59-2424.434s2.127-5.383,12.021-2.068,4.922,12.668,4.922,12.668-4.336,10.348-13.729,5.774S-21063.59-2424.434-21063.59-2424.434Z" transform="translate(21219.42 2507.395)" fill="#fff46a" /><path d="M-21064.006-2425.088s1.686-4.264,9.525-1.639,3.895,10.034,3.895,10.034-3.436,8.2-10.875,4.573S-21064.006-2425.088-21064.006-2425.088Z" transform="translate(21196.916 2523.69)" fill="#14d9a5" /><path d="M162.183,191.042c-5.3-6.067-13.058-9.136-20.744-11.791-3.236.557-5.7-1.537-8.507-2.418-6.463-2.027-12.885-4.181-19.348-6.209-1.908-.6-3.392-1.5-3.295-3.646.282-6.26-.988-12.476-.806-18.73.028-.991.09-1.982.2-2.976-.28-9.021,1.847-12.333,10.565-14.943,9.959-2.98,17.586-16.279,16-28.062-.184-1.361-.847-2.617-2.452-2.687-1.51-.066-2.058,1.191-2.308,2.36-.574,2.674-.844,5.417-1.505,8.066-1.791,7.169-5.807,12.731-12.652,16.1-.965.476-2.22,1.222-3.065.632-.941-.655-.216-1.961-.059-3,1.008-6.706,3.581-17.366,3.124-24.158-.128-1.9-.8-3.219-2.993-3.284-2.131-.064-2.648,1.381-2.853,3-.448,3.545-2.673,11.029-2.622,14.614.054,3.807.007,7.622-.207,11.423-.124,2.2-1.565,3.262-3.359,1.551-2.389-2.279-5.033-4.5-5.459-8.173-.586-5.058-1.772-10.045-.819-15.214.413-2.241-.228-4.573-3.005-4.869-2.567-.274-2.646,2.038-2.849,3.751-.966,8.126-1.121,16.165,3.275,23.583l.184.417c-.151-.05-.3-.1-.456-.147-5.461-.253-9.242-2.726-11.743-7.628-1.961-3.844-3.494-7.545-2.393-11.913.495-1.961-.824-2.843-2.514-3.256-1.922-.47-3.045.487-3.486,2.224a13.9,13.9,0,0,0-.427,4.95c1.095,10.177,6.7,16.809,16.557,19.775,5.055,1.521,6.561,5.158,7.153,9.6a30.483,30.483,0,0,1-.011,4.279,6.043,6.043,0,0,1,.7,3.224c-.055,2.037-.711,4.117-.187,6.217l-5.161,19.074c-6.488,1.831-12.834,4.15-19.225,6.306a16.583,16.583,0,0,1-5.765.507l-11.223,6.277-3.859,2.271a13.925,13.925,0,0,1-1.047.953c-5.268,3.957-11.638,6.21-16.975,10.063q1.752,1.253,3.683,2.436c.368-.229.74-.454,1.12-.675.5-.291,1.2-.691,1.586-.067a2.167,2.167,0,0,1,.04,1.679c-.069.184-.125.37-.187.555q1.637.91,3.376,1.772a12.928,12.928,0,0,1,1.723-4.6c.066-.156.148-.292.218-.443l-.217-.007c1.7-4.111,4.9-6.48,9.015-7.775.007-.025.016-.05.023-.074l.026.023-.026-.023.11-.245-.058.292c-.026.009-.05.019-.075.027-.063.227-.142.447-.211.672.071-.023.139-.05.211-.073.007-.025.016-.048.023-.073l.11-.24-.058.287-.075.026a38.538,38.538,0,0,1-3.287,7.83c-.682,2.276-1.391,4.546-2.064,6.827q2.069.857,4.251,1.644,1.735-4.3,3.446-8.614c.036-.147.083-.289.123-.435l-.123-.015c.932-3.786,2.788-7.2,4.4-10.7,1.222-2.657,4.039-2.716,7.444-4.007-.2.32-.393.627-.59.94.195-.066.391-.136.59-.21-3.381,5.363-6.632,9.709-8.282,14.84a100.9,100.9,0,0,0-1.571,10.012q2.314.7,4.727,1.334c.149-3.608-.076-7.255,1.2-10.748.028-.144.066-.283.1-.425l-.1-.005c1.066-5.539,4.58-9.389,8.8-12.75,2.464-3.375,4.91-6.767,8.926-8.511,3.844-2.525,8.33-2.929,12.665-3.817.578-.118,1.249-.125,1.492.613a1.25,1.25,0,0,1-.013.869c0,.01.009.018.013.028a1.2,1.2,0,0,1-.635,1.51c-1.7.875-3.2,2.155-5.185,2.449a82.164,82.164,0,0,0-11.218,8.751,64.576,64.576,0,0,0-7.64,11.686c-1.173,3.84-2.855,7.553-3.326,11.568q2.553.559,5.193,1.036c1.078-4.212,1.736-8.536,3.516-12.559.031-.147.077-.279.111-.423l-.111,0c2.09-9.956,10.275-13.65,18.527-18.166q-.042.411-.084.813l.084-.045c-.41,3.942-.689,7.156-4.748,8.661-4.6,1.706-7.742,5.182-10.413,9.1-1.7,4.262-3.62,8.475-3.759,13.146q2.315.364,4.687.662c1.053-4.837,1.312-9.919,4.713-14,.089-.138.189-.259.284-.389-.095-.015-.189-.02-.284-.037,1.535-2.421,3.857-3.675,6.544-4.757a2.744,2.744,0,0,1,.061.875c.187,1.78-1.5,2.726-1.347,4.2-.656,3.346-1.257,6.706-1.985,10.039a16.979,16.979,0,0,0-.391,4.83q3.832.294,7.775.408a47.153,47.153,0,0,0-.112-8.244,18.634,18.634,0,0,1,.521-6.006c.352-1.23.979-2.249,2.534-1.977,1.519.266,1.326,1.487,1.315,2.538-.047,4.6-1.1,9.144-.91,13.754.522,0,1.043.009,1.567.009q1.072,0,2.137-.013c.053-.239.1-.481.15-.721,1.052-5.168.282-10.4.576-15.6a13.831,13.831,0,0,0-2.507-6.573,5.119,5.119,0,0,1-.532-2.762c-.106-2.745,1.152-6.468,2.886-7.318,1.091-.534,2.126.279,2.937.937a27.619,27.619,0,0,1,5.826,6.851,2.447,2.447,0,0,1,.428,1.679,2.4,2.4,0,0,1-.589,1.864c-1.235,1.6-2.438,3.217-3.656,4.826a37.281,37.281,0,0,0-3.536,16.775c1.129-.027,2.251-.069,3.368-.118.322-5.436.346-10.942,4.213-15.47.592-.694.963-2,2.026-1.688,1.309.38,1.438,1.78,1.557,2.988.454,4.605-.947,9.117-.769,13.707q3.393-.3,6.684-.734l0-.041c.118-1.394.244-2.787.368-4.18-.382-1.2-.017-2.3.446-3.918a11.674,11.674,0,0,1,4.409,7.36q1.853-.311,3.666-.665c-.627-4.255-2.258-8.1-6.41-10.737-1.3-.825-2.776-1.584-2.739-3.46l-2.733-8.213c.083.053.168.1.252.152l-.252-.772c4.533,2.975,9.768,3.242,11.818,8.374h-.217c.072.153.151.3.217.46a11.486,11.486,0,0,1,.64,2.367,79.754,79.754,0,0,0,1.864,11.33q2.336-.5,4.6-1.064c-.007-.508-.015-1.05-.015-1.648a7.211,7.211,0,0,1,.884,1.426q1.625-.419,3.207-.871a23.964,23.964,0,0,0-5.844-10.852c-2.9-8.22-10.3-11.182-17.54-14.146-2.743-1.123-4.842-2.533-6.06-5.167a4.074,4.074,0,0,1-2.023-3.537l.147.039a7.1,7.1,0,0,1-.147-.93c3.2.894,6.338,1.379,9.106,3.1a6.547,6.547,0,0,1,2.4.686c7.419,6.12,15.091,12,20.377,20.268l-.321-.039c.106.158.217.311.321.471a34.542,34.542,0,0,1,1.867,9.422q2.255-.695,4.414-1.459c-.095-1.058-.212-2.119-.376-3.188a3.59,3.59,0,0,1,3.4,2.063q1.726-.673,3.375-1.392a17.547,17.547,0,0,0-4.162-4.661,11,11,0,0,1-7.268-5.6c-2.061-3.486-5.179-6.37-7.844-9.512l-.037-.013-.227-.131.241.117.023.027c.288.1.575.2.862.3-.291-.334-.58-.67-.862-1.01l-.037-.013-.227-.133.241.119.023.028c7.014,2.429,13.9,5.147,19.994,9.49a9.181,9.181,0,0,1,3.718,5.578l-.115,0c.039.14.083.276.115.419a17.025,17.025,0,0,1,.959,2.429,67.194,67.194,0,0,0,8.206-5.01A41.9,41.9,0,0,1,162.183,191.042Zm-66.014-66.7c.087-.093.178-.186.272-.275l.184.425C96.473,124.444,96.322,124.393,96.169,124.345Z" transform="translate(-9.894 -18.493)" fill="#ffd086" /><path d="M-22640.85-3386.265c-.646-7.889-2.488,30.672-6.861,34.473,4.883-.871,7.193-1.136,8.152,0C-22640.451-3354.167-22641.641-3378.309-22640.85-3386.265Z" transform="translate(22739.797 3503.997)" fill="#d8af6f" /><path d="M1.33,2.1S2.748-1.491,9.345.719s3.281,8.445,3.281,8.445-2.892,6.9-9.153,3.849S1.33,2.1,1.33,2.1Z" transform="matrix(0.985, 0.174, -0.174, 0.985, 25.173, 50.442)" fill="#14d9a5" /><path d="M1.33,2.1S2.748-1.491,9.345.719s3.281,8.445,3.281,8.445-2.892,6.9-9.153,3.849S1.33,2.1,1.33,2.1Z" transform="matrix(0.545, 0.839, -0.839, 0.545, 39.45, 77.31)" fill="#14d9a5" /><path d="M-21064.254-2425.483s1.416-3.589,8.014-1.379,3.279,8.446,3.279,8.446-2.889,6.9-9.152,3.849S-21064.254-2425.483-21064.254-2425.483Z" transform="translate(21112.381 2526.721)" fill="#14d9a5" /><path d="M-21064.254-2425.483s1.416-3.589,8.014-1.379,3.279,8.446,3.279,8.446-2.889,6.9-9.152,3.849S-21064.254-2425.483-21064.254-2425.483Z" transform="translate(21137.23 2479.087)" fill="#14d9a5" /><path d="M-21063.59-2424.434s2.125-5.383,12.023-2.068,4.92,12.668,4.92,12.668-4.34,10.347-13.729,5.774S-21063.59-2424.434-21063.59-2424.434Z" transform="translate(21111.209 2460.395)" fill="#fff46a" /><path d="M2.042,3.222S4.219-2.289,14.351,1.1s5.038,12.97,5.038,12.97S14.948,24.667,5.333,19.985,2.042,3.222,2.042,3.222Z" transform="matrix(0.309, 0.951, -0.951, 0.309, 94.899, 16.019)" fill="#14d9a5" /><path d="M-21063.91-2424.936s1.787-4.525,10.105-1.739,4.137,10.649,4.137,10.649-3.646,8.7-11.543,4.854S-21063.91-2424.936-21063.91-2424.936Z" transform="translate(21081.701 2519.387)" fill="#fff46a" /><path d="M-21064.254-2425.483s1.416-3.589,8.014-1.379,3.279,8.446,3.279,8.446-2.889,6.9-9.152,3.849S-21064.254-2425.483-21064.254-2425.483Z" transform="translate(21116.461 2491.803)" fill="#d95b34" /><path d="M19.312,0C29.9,0,38.331,3.154,38.331,4.874S29.9,6.23,19.312,6.23,0,6.595,0,4.874,8.727,0,19.312,0Z" transform="translate(28.53 32.342) rotate(-31)" fill="#fff" /></g>
</svg>