<svg xmlns="http://www.w3.org/2000/svg" width="27.256" height="27.25" viewBox="0 0 27.256 27.25"><path d="M13.626,8.876a6.987,6.987,0,1,0,6.987,6.987A6.975,6.975,0,0,0,13.626,8.876Zm0,11.529a4.542,4.542,0,1,1,4.542-4.542A4.55,4.55,0,0,1,13.626,20.4Zm8.9-11.815a1.63,1.63,0,1,1-1.63-1.63A1.626,1.626,0,0,1,22.528,8.59Zm4.627,1.654a8.064,8.064,0,0,0-2.2-5.71,8.117,8.117,0,0,0-5.71-2.2c-2.25-.128-8.993-.128-11.243,0a8.106,8.106,0,0,0-5.71,2.2,8.091,8.091,0,0,0-2.2,5.71c-.128,2.25-.128,8.993,0,11.243a8.064,8.064,0,0,0,2.2,5.71A8.128,8.128,0,0,0,8,29.392c2.25.128,8.993.128,11.243,0a8.064,8.064,0,0,0,5.71-2.2,8.117,8.117,0,0,0,2.2-5.71c.128-2.25.128-8.987,0-11.237ZM24.249,23.9a4.6,4.6,0,0,1-2.59,2.59c-1.794.711-6.05.547-8.032.547s-6.245.158-8.032-.547A4.6,4.6,0,0,1,3,23.9c-.711-1.794-.547-6.05-.547-8.032S2.3,9.618,3,7.83a4.6,4.6,0,0,1,2.59-2.59c1.794-.711,6.05-.547,8.032-.547s6.245-.158,8.032.547a4.6,4.6,0,0,1,2.59,2.59c.711,1.794.547,6.05.547,8.032S24.96,22.107,24.249,23.9Z" transform="translate(0.005 -2.238)" fill="#fff"/></svg>