<svg xmlns="http://www.w3.org/2000/svg" width="27.25" height="27.25" viewBox="0 0 27.25 27.25"><path d="M16.551,12.724v4.325a.192.192,0,0,1-.195.195h-.693a.2.2,0,0,1-.158-.079l-1.983-2.676v2.567a.192.192,0,0,1-.195.195h-.693a.192.192,0,0,1-.195-.195V12.73a.192.192,0,0,1,.195-.195h.687a.183.183,0,0,1,.158.085L15.462,15.3V12.73a.192.192,0,0,1,.195-.195h.693a.192.192,0,0,1,.2.189Zm-4.988-.195H10.87a.192.192,0,0,0-.195.195v4.325a.192.192,0,0,0,.195.195h.693a.192.192,0,0,0,.195-.195V12.724a.2.2,0,0,0-.195-.195ZM9.89,16.155H8V12.724A.192.192,0,0,0,7.8,12.53H7.111a.192.192,0,0,0-.195.195v4.325a.179.179,0,0,0,.055.134.205.205,0,0,0,.134.055h2.78a.192.192,0,0,0,.195-.195v-.693a.2.2,0,0,0-.189-.195ZM20.2,12.53h-2.78a.2.2,0,0,0-.195.195v4.325a.2.2,0,0,0,.195.195H20.2a.192.192,0,0,0,.195-.195v-.693a.192.192,0,0,0-.195-.195H18.309v-.73H20.2a.192.192,0,0,0,.195-.195v-.7a.192.192,0,0,0-.195-.195H18.309v-.73H20.2a.192.192,0,0,0,.195-.195v-.693a.2.2,0,0,0-.195-.195Zm7.05-5.31V24.573A4.954,4.954,0,0,1,22.281,29.5H4.927A4.958,4.958,0,0,1,0,24.531V7.177A4.958,4.958,0,0,1,4.969,2.25H22.323A4.954,4.954,0,0,1,27.25,7.219ZM23.5,14.677c0-4.44-4.452-8.053-9.921-8.053s-9.921,3.613-9.921,8.053c0,3.978,3.528,7.311,8.3,7.944,1.162.249,1.028.675.766,2.238-.043.249-.2.979.858.535a32.061,32.061,0,0,0,7.8-5.76A7.186,7.186,0,0,0,23.5,14.677Z" transform="translate(0 -2.25)" fill="#fff"/></svg>