<svg xmlns="http://www.w3.org/2000/svg" width="28.233" height="28.231" viewBox="0 0 28.233 28.231"><g transform="translate(0)"><path d="M34.674,24.158a29.011,29.011,0,0,0,4.911-9.821l.4-1.427a2.42,2.42,0,0,0-2.314-3.08,2.37,2.37,0,0,0-.671.1l-1.427.4a29.2,29.2,0,0,0-9.821,4.911Z" transform="translate(-14.784 -6.893)" fill="#fff"/><path d="M19,33l4.643,4.643a1.219,1.219,0,0,0,1.674,0l.474-.474a1.193,1.193,0,0,0,0-1.674l-4.643-4.643a1.181,1.181,0,0,0-1.674,0L19,31.322a1.2,1.2,0,0,0-.348.837A1.179,1.179,0,0,0,19,33Z" transform="translate(-11.264 -17.142)" fill="#fff"/><path d="M4.494,27.733,4.1,29.16a2.4,2.4,0,0,0,2.98,2.98l1.427-.4a29.32,29.32,0,0,0,14.1-8.909L25.472,25.7a.922.922,0,0,0-.025.237l.02,2.193a1.177,1.177,0,0,0,.348.8L28.28,31.4a1.13,1.13,0,0,0,.721.343.548.548,0,0,0,.091.005.98.98,0,0,0,.691-.277L31.951,29.3a.972.972,0,0,0,.277-.781,1.13,1.13,0,0,0-.343-.721L29.42,25.328a1.14,1.14,0,0,0-.8-.343l-2.193-.025a.733.733,0,0,0-.232.03h-.005L11.25,10.047a.924.924,0,0,0,.025-.237L11.25,7.617a1.149,1.149,0,0,0-.343-.8L8.442,4.35a1.069,1.069,0,0,0-1.5-.071L4.766,6.452a.986.986,0,0,0-.272.781,1.13,1.13,0,0,0,.343.721L7.3,10.42a1.176,1.176,0,0,0,.8.348l2.193.02h.01a.812.812,0,0,0,.222-.03L13.4,13.632a29.344,29.344,0,0,0-8.909,14.1ZM14.542,17.05l4.643,4.643a2.118,2.118,0,0,1,0,2.995l-.474.474a2.118,2.118,0,0,1-2.995,0l-4.643-4.643a2.118,2.118,0,0,1,0-2.995l.474-.474a2.118,2.118,0,0,1,2.995,0Z" transform="translate(-4 -4.005)" fill="#fff"/></g></svg>