<svg xmlns="http://www.w3.org/2000/svg" width="33.917" height="31.858" viewBox="0 0 33.917 31.858"><path d="M3554.649,4226.937a2.515,2.515,0,0,0-2.523-2.2h-1.453a2.515,2.515,0,0,0-2.523,2.2c-.129.875-.569,3.735-.573,3.764a.688.688,0,0,0,.576.785.645.645,0,0,0,.105.009.689.689,0,0,0,.68-.584c0-.029.445-2.892.575-3.772,0-.008,0-.016,0-.025l.087,4.573L3549,4238.3a.89.89,0,0,0,1.773.163l.593-6.479h.068l.593,6.479a.89.89,0,0,0,.885.809.784.784,0,0,0,.083,0,.889.889,0,0,0,.8-.967l-.605-6.613.087-4.574,0,.025c.13.88.57,3.743.575,3.772a.689.689,0,0,0,.68.584.649.649,0,0,0,.105-.009.688.688,0,0,0,.576-.785C3555.218,4230.672,3554.778,4227.813,3554.649,4226.937Z" transform="translate(-3535.199 -4207.414)" fill="#fff"/><path d="M3588.51,4106.253a2.245,2.245,0,1,0-2.245,2.244A2.244,2.244,0,0,0,3588.51,4106.253Z" transform="translate(-3570.065 -4091.941)" fill="#fff"/><path d="M3295.1,3997.976a3.746,3.746,0,0,0-4.043-3.24h-2.185a20.754,20.754,0,0,1-4.562-.321c-1.494-.325-2.656-.645-3.277-.825a1.118,1.118,0,0,0-1.165-.273,32.965,32.965,0,0,1-3.677.959,22.27,22.27,0,0,1-4.72.32h-2.267a4.52,4.52,0,0,0-4.681,3.535c-.252,1.419-1.107,6.054-1.115,6.1a1.117,1.117,0,1,0,2.2.405c.008-.047.865-4.689,1.118-6.115a1.754,1.754,0,0,1,.1-.343l.141,7.341-.982,10.723a1.443,1.443,0,1,0,2.874.263l.961-10.5h.111l.962,10.5a1.443,1.443,0,0,0,1.435,1.311c.044,0,.088,0,.133-.006a1.443,1.443,0,0,0,1.305-1.568l-.982-10.723.167-8.7a19.055,19.055,0,0,0,3.7-.354,36.441,36.441,0,0,0,3.834-1c.651.189,1.85.518,3.409.858a16.394,16.394,0,0,0,3.095.34l.374,6.5-1.851,4.161a1.055,1.055,0,0,0,.964,1.484h.7l-.687,7.633a1.3,1.3,0,1,0,2.6.234l.709-7.867h.894l.709,7.867a1.3,1.3,0,0,0,1.3,1.187c.039,0,.079,0,.118-.005a1.3,1.3,0,0,0,1.181-1.415l-.688-7.633h.7a1.055,1.055,0,0,0,.964-1.484l-1.851-4.161.234-4.071c.482,1.9,1.627,5.3,1.683,5.468a.977.977,0,0,0,1.853-.625C3296.455,4002.657,3295.293,3999.094,3295.1,3997.976Z" transform="translate(-3263.392 -3986.008)" fill="#fff"/><circle cx="3.086" cy="3.086" r="3.086" transform="translate(2.12 4.364) rotate(-45)" fill="#fff"/><path d="M3819.346,3859.9c-.946-.451-1.4-1.55-1.981-1.877a4,4,0,0,0-2.165-.149,3.08,3.08,0,1,0,.3,1.328,3.039,3.039,0,0,0-.046-.511c.4.422.7,1.183,1.046,1.5.541.487,1.4.55,2.8.168A.244.244,0,0,0,3819.346,3859.9Z" transform="translate(-3785.571 -3854.84)" fill="#fff"/></svg>