<svg xmlns="http://www.w3.org/2000/svg" width="23.495" height="32.142" viewBox="0 0 23.495 32.142"><path d="M510.878,456.337l4.869-1.069h0l.011,0a.665.665,0,0,0,.5-.8,5.52,5.52,0,0,1,.422-3.289,10.929,10.929,0,0,0,.526-1.825,11.913,11.913,0,0,0,.023-4.115,10.216,10.216,0,0,0-1.419-3.671,5.122,5.122,0,0,0-2.648-2.248,4.234,4.234,0,0,0-3.291.308,4.123,4.123,0,0,0-2.027,2.71,13.385,13.385,0,0,0-.323,4.677,21.27,21.27,0,0,0,.963,4.851,33.467,33.467,0,0,0,1.632,4.057A.666.666,0,0,0,510.878,456.337Zm-1.131-4.875a19.925,19.925,0,0,1-.9-4.549,12.129,12.129,0,0,1,.271-4.2,2.873,2.873,0,0,1,1.339-1.893,2.947,2.947,0,0,1,2.281-.24,3.835,3.835,0,0,1,1.945,1.7,8.879,8.879,0,0,1,1.232,3.192,10.606,10.606,0,0,1-.023,3.662,9.961,9.961,0,0,1-.469,1.607,7.154,7.154,0,0,0-.58,3.369l-3.728.818A30.558,30.558,0,0,1,509.747,451.462Z" transform="translate(-507.456 -439.115)" fill="#fff"/><path d="M732.909,870.074l-4.594-1.476h0a.664.664,0,0,0-.778.3,13.428,13.428,0,0,0-1.221,2.7,6.821,6.821,0,0,0-.318,2.66,3.218,3.218,0,0,0,.811,1.94,2.8,2.8,0,0,0,1.591.846,3.458,3.458,0,0,0,1.768-.176,3.758,3.758,0,0,0,1.911-1.574,8,8,0,0,0,.832-1.943,13.489,13.489,0,0,0,.459-2.587h0A.665.665,0,0,0,732.909,870.074Zm-1.274,2.907a6.689,6.689,0,0,1-.691,1.625,2.422,2.422,0,0,1-1.234,1.011,2.123,2.123,0,0,1-1.086.113,1.476,1.476,0,0,1-.842-.44,1.921,1.921,0,0,1-.462-1.159,5.517,5.517,0,0,1,.266-2.144,11.186,11.186,0,0,1,.841-1.957l3.561,1.144A11.442,11.442,0,0,1,731.635,872.981Z" transform="translate(-713.954 -844.947)" fill="#fff"/><path d="M761.222,574.518a4.123,4.123,0,0,0-1.852-2.832,4.234,4.234,0,0,0-3.263-.517,5.127,5.127,0,0,0-2.786,2.078,10.211,10.211,0,0,0-1.646,3.572,11.91,11.91,0,0,0-.238,4.109,10.919,10.919,0,0,0,.409,1.853,5.527,5.527,0,0,1,.214,3.313.666.666,0,0,0,.448.828l.008,0h0l4.792,1.374a.666.666,0,0,0,.78-.346,33.6,33.6,0,0,0,1.9-3.967,21.268,21.268,0,0,0,1.266-4.78A13.384,13.384,0,0,0,761.222,574.518Zm-1.291,4.5a19.953,19.953,0,0,1-1.187,4.483,30.582,30.582,0,0,1-1.584,3.365l-3.667-1.052a7.148,7.148,0,0,0-.365-3.4,9.966,9.966,0,0,1-.367-1.635,10.607,10.607,0,0,1,.207-3.656,8.888,8.888,0,0,1,1.433-3.109,3.829,3.829,0,0,1,2.047-1.568,2.946,2.946,0,0,1,2.263.381,2.873,2.873,0,0,1,1.217,1.973A12.144,12.144,0,0,1,759.931,579.023Z" transform="translate(-737.945 -563.782)" fill="#fff"/><path d="M573.163,742.27a.665.665,0,0,0-.757-.351h0l-4.678,1.182a.666.666,0,0,0-.5.707,13.469,13.469,0,0,0,.291,2.564,8.006,8.006,0,0,0,.708,1.993,3.755,3.755,0,0,0,1.808,1.691,3.454,3.454,0,0,0,1.753.286,2.8,2.8,0,0,0,1.639-.743h0a3.218,3.218,0,0,0,.933-1.886,6.813,6.813,0,0,0-.15-2.673A13.434,13.434,0,0,0,573.163,742.27Zm-.116,5.235a1.919,1.919,0,0,1-.533,1.126h0a1.48,1.48,0,0,1-.869.386,2.128,2.128,0,0,1-1.077-.182,2.422,2.422,0,0,1-1.167-1.088,6.7,6.7,0,0,1-.588-1.665,11.431,11.431,0,0,1-.24-1.825l3.627-.917a11.174,11.174,0,0,1,.717,2A5.519,5.519,0,0,1,573.047,747.505Z" transform="translate(-563.936 -725.246)" fill="#fff"/></svg>