<svg xmlns="http://www.w3.org/2000/svg" width="29.902" height="27.13" viewBox="0 0 29.902 27.13"><path d="M2552.4,193.17a113.1,113.1,0,0,1-27.948-.014.865.865,0,0,0-.954,1.041l.387,1.79a2.154,2.154,0,0,0,1.8,1.676c.159.023.317.044.476.066a92.054,92.054,0,0,0,24.541.022l.491-.071a2.148,2.148,0,0,0,1.781-1.672l.389-1.8A.864.864,0,0,0,2552.4,193.17Z" transform="translate(-2523.483 -193.149)" fill="#fff"/><path d="M2602.514,303.04h-1.787a.791.791,0,0,1-.791-.755l-.122-2.61a.594.594,0,0,1,.527-.617c.852-.1,1.56-.192,2.1-.272a1.778,1.778,0,0,0,1.092-.606.442.442,0,0,0-.028-.6l-.041-.041a.442.442,0,0,0-.367-.126,92.484,92.484,0,0,1-11.242.675h0a91.721,91.721,0,0,1-11.472-.713.439.439,0,0,0-.366.125h0a.445.445,0,0,0-.038.586,1.784,1.784,0,0,0,1.163.686q1.059.153,2.093.269a.593.593,0,0,1,.525.616l-.122,2.627a.791.791,0,0,1-.791.755h-1.787a1.036,1.036,0,0,0-1.036,1.036v.586a1.036,1.036,0,0,0,1.036,1.036h1.59a.791.791,0,0,1,.791.828l-.522,11.246a1.017,1.017,0,0,0,.989,1.064l1.218.032a1.018,1.018,0,0,0,1.044-1c.053-3.564.079-7.794.092-11.38a.791.791,0,0,1,.791-.788h9.47a.791.791,0,0,1,.791.788c.013,3.586.039,7.816.092,11.38a1.018,1.018,0,0,0,1.044,1l1.218-.032a1.017,1.017,0,0,0,.989-1.064l-.522-11.246a.791.791,0,0,1,.79-.828h1.591a1.036,1.036,0,0,0,1.035-1.036v-.586A1.036,1.036,0,0,0,2602.514,303.04Zm-15.453,0a.791.791,0,0,1-.791-.793c0-.911,0-1.691,0-2.29a.593.593,0,0,1,.634-.59,78.742,78.742,0,0,0,9.768.008.591.591,0,0,1,.627.591c0,.6,0,1.375,0,2.282a.791.791,0,0,1-.791.793Z" transform="translate(-2576.835 -291.737)" fill="#fff"/></svg>