<svg xmlns="http://www.w3.org/2000/svg" width="29.055" height="28.231" viewBox="0 0 29.055 28.231"><g transform="translate(0 0)"><path d="M570.166,120.265l-11.9-9.284a3.369,3.369,0,0,0-3.937,0l-11.838,9.277c-1.082.848-.87,1.541.471,1.541h2.874V136.2a2.39,2.39,0,0,0,2.383,2.383H564.5a2.39,2.39,0,0,0,2.383-2.383V121.8H569.7C571.039,121.8,571.25,121.111,570.166,120.265Z" transform="translate(-541.804 -110.348)" fill="#fff"/></g><g transform="translate(11.309 11.914)"><rect width="7.174" height="6.615" fill="#1b95d4"/><g transform="translate(1.048 1.071)"><line y2="4.472" transform="translate(2.562)" fill="none"/><line x2="5.078" transform="translate(0 2.236)" fill="none"/></g></g></svg>