<svg xmlns="http://www.w3.org/2000/svg" xmlns:xlink="http://www.w3.org/1999/xlink" viewBox="0 0 221 141"><defs><linearGradient id="a" x1="0.5" y1="1" x2="0.5" gradientUnits="objectBoundingBox"><stop offset="0" stop-color="#1e2971"/><stop offset="0.034" stop-color="#1d357c"/><stop offset="0.125" stop-color="#1c5397"/><stop offset="0.226" stop-color="#1c6bad"/><stop offset="0.34" stop-color="#1b7ebe"/><stop offset="0.475" stop-color="#1b8bca"/><stop offset="0.648" stop-color="#1b92d1"/><stop offset="1" stop-color="#1b95d4"/></linearGradient><radialGradient id="b" cx="0.492" cy="0.477" r="0.5" gradientUnits="objectBoundingBox"><stop offset="0" stop-color="#f7f8f8"/><stop offset="0.351" stop-color="#1b95d4"/><stop offset="1" stop-color="#1e2971"/></radialGradient><clipPath id="e"><path d="M39.639,45.9a11.97,11.97,0,1,1-11.97-11.97A11.97,11.97,0,0,1,39.639,45.9Z" transform="translate(-15.698 -33.931)" fill="none"/></clipPath><radialGradient id="f" cx="0.507" cy="0.486" r="0.491" gradientUnits="objectBoundingBox"><stop offset="0" stop-color="#5eb0e3"/><stop offset="0.23" stop-color="#5eb0e3"/><stop offset="0.397" stop-color="#5aabe0"/><stop offset="0.567" stop-color="#509fd7"/><stop offset="0.739" stop-color="#3f8bca"/><stop offset="0.911" stop-color="#276eb7"/><stop offset="1" stop-color="#195dab"/></radialGradient><radialGradient id="g" cx="0.5" cy="0.5" r="0.483" gradientTransform="translate(-0.038) scale(1.075 1)" gradientUnits="objectBoundingBox"><stop offset="0" stop-color="#c0dd98"/><stop offset="1" stop-color="#93c530"/></radialGradient><radialGradient id="h" cx="0.486" cy="0" r="0.991" gradientTransform="translate(-4.193) scale(0.86 1.125)" gradientUnits="objectBoundingBox"><stop offset="0" stop-color="#fff"/><stop offset="0.086" stop-color="#f7f7f7"/><stop offset="0.218" stop-color="#e2e1e1"/><stop offset="0.379" stop-color="#c0bfbf"/><stop offset="0.563" stop-color="#908e8e"/><stop offset="0.766" stop-color="#535050"/><stop offset="0.983" stop-color="#0a0606"/><stop offset="1" stop-color="#040000"/></radialGradient><radialGradient id="i" cx="0.497" cy="0.978" r="1.139" gradientTransform="translate(0.197) scale(0.603 1)" gradientUnits="objectBoundingBox"><stop offset="0" stop-color="#4875b9"/><stop offset="0.668" stop-color="#fff"/></radialGradient><clipPath id="j"><ellipse cx="18.666" cy="15.145" rx="18.666" ry="15.145" transform="matrix(0.035, -0.999, 0.999, 0.035, 0, 37.309)" fill="none"/></clipPath><linearGradient id="k" x1="0.915" y1="-0.085" x2="0.398" y2="1.145" gradientUnits="objectBoundingBox"><stop offset="0" stop-color="#1e2971"/><stop offset="0.698" stop-color="#1b95d4"/><stop offset="0.98" stop-color="#fff" stop-opacity="0"/></linearGradient></defs><g transform="translate(16579 5271)"><rect width="221" height="141" rx="38" transform="translate(-16579 -5271)" fill="#fff"/><path d="M38,7A31.035,31.035,0,0,0,7,38v65a31.035,31.035,0,0,0,31,31H183a31.035,31.035,0,0,0,31-31V38A31.035,31.035,0,0,0,183,7H38m0-7H183a38,38,0,0,1,38,38v65a38,38,0,0,1-38,38H38A38,38,0,0,1,0,103V38A38,38,0,0,1,38,0Z" transform="translate(-16579 -5271)" fill="#1b95d4"/><g transform="translate(-16565.309 -5214.46)" style="isolation:isolate"><path d="M2.378,63.3a1.6,1.6,0,0,1-.989-2.858c4.2-3.269,12.11-8.174,21.746-8.174,14.453,0,19.425,6.682,38.7,6.682s33.412-6.839,42.893-14.92c5.128-3.885,15.851-13.987,32.326-13.987,15.584,0,35.087,5.565,54.543,28.954a2.545,2.545,0,0,1-1.94,4.18Z" transform="translate(-0.131 -17.76)" fill="url(#a)"/><ellipse cx="5.135" cy="5.135" rx="5.135" ry="5.135" transform="translate(121.941 14.2)" fill="url(#b)"/><ellipse cx="3.885" cy="3.885" rx="3.885" ry="3.885" transform="translate(119.926 24.464)" fill="url(#b)"/><ellipse cx="2.597" cy="2.597" rx="2.597" ry="2.597" transform="translate(113.767 29.988)" fill="url(#b)"/><path d="M12.962-2.122A15.056,15.056,0,1,1,7.094-.939a15.056,15.056,0,0,1,5.868-1.183Zm0,26.64A11.554,11.554,0,1,0,4.8,21.134a11.554,11.554,0,0,0,8.166,3.383Z" transform="translate(75.73 14.375)" fill="#1e2971"/><path d="M66.215,33.415q0,.333-.665.3H64.475q-.429,0-.509.184a4.256,4.256,0,0,0-.083,1.125V54.389q0,1.781-.027,2.08t-.16.3q-.16,0-.374-.372L59.9,50.1q-2.974-5.508-7.236-13.758V55.19a.56.56,0,0,0,.406.557,8.8,8.8,0,0,0,1.813.153q.351,0,.352.27,0,.333-.7.333-.24,0-1.527-.1-.429-.033-.832-.034.025,0-.468.067A12.332,12.332,0,0,1,50.2,56.5h-.267q-.617,0-.616-.3t.536-.3a4.185,4.185,0,0,0,1.831-.254q.254-.22.254-1.433V37.595q0-2.8-.911-3.507a2.556,2.556,0,0,0-1.527-.333q-.7,0-.7-.355,0-.319.4-.319.536,0,1.365.067t.891.064q.083,0,.749-.033a14.2,14.2,0,0,0,1.714-.1l9.24,17.332V35.433q0-1.043-.027-1.262a.444.444,0,0,0-.214-.333,3.69,3.69,0,0,0-1.286-.118q-.963,0-.963-.3,0-.333.636-.333h4.311q.588,0,.589.333Z" transform="translate(-8.188 -18.27)" fill="#1e2971"/><path d="M85.654,51.026q0,.135-.053,1.654t-.05,2.891v1.111q-2.625-.2-10.39-.2H71.809q-.509,0-.509-.271a.188.188,0,0,1,.16-.211q.083,0,1.018-.09.7-.067.844-.372a4.911,4.911,0,0,0,.148-1.587V34.974q0-.978-.228-1.165a3.153,3.153,0,0,0-1.459-.186q-.429,0-.429-.286t.589-.286H83.3a7.476,7.476,0,0,0,1.473-.135q.053,1.448.24,4.005l.108,1.447a2.952,2.952,0,0,1,.027.438q0,.333-.242.333-.3,0-.429-.846-.509-3.054-1.664-3.863-.858-.609-4.5-.609h-2.19v9.9h.636q3,0,3.656-.573t.9-3.329q.053-.706.3-.706.3,0,.3.606T81.847,41.5q-.055,1.178-.055,1.781,0,3.6.083,4.948.02.333.022.573,0,.438-.293.438-.187,0-.254-.286t-.226-1.868q-.2-1.976-1.3-2.452a8.871,8.871,0,0,0-2.505-.2h-1.2V55.706a41.241,41.241,0,0,0,6.908-.3q1.767-.5,2.008-4.255.053-.832.347-.832.267,0,.268.706Z" transform="translate(-11.963 -18.242)" fill="#1e2971"/><path d="M172.444,51.026q0,.135-.053,1.654t-.053,2.9v1.111q-2.625-.2-10.39-.2H158.6q-.509,0-.509-.271a.188.188,0,0,1,.16-.211q.083,0,1.018-.09.7-.067.844-.372a4.91,4.91,0,0,0,.148-1.587V34.974q0-.978-.228-1.165a3.153,3.153,0,0,0-1.459-.186q-.429,0-.429-.286t.589-.286h11.355a7.477,7.477,0,0,0,1.473-.135q.054,1.448.241,4.005l.107,1.447a2.957,2.957,0,0,1,.027.438q0,.333-.242.333-.3,0-.429-.846-.509-3.054-1.664-3.863-.858-.609-4.5-.609H162.9v9.9h.636q3,0,3.656-.573t.9-3.329q.053-.706.3-.706.3,0,.3.606T168.63,41.5q-.055,1.178-.055,1.781,0,3.6.083,4.948.02.333.022.573,0,.438-.293.438-.187,0-.254-.286t-.226-1.868q-.212-1.986-1.307-2.457a8.869,8.869,0,0,0-2.505-.2h-1.2V55.7a41.243,41.243,0,0,0,6.908-.3q1.767-.5,2.008-4.255.053-.832.347-.832.267,0,.268.706Z" transform="translate(-26.523 -18.242)" fill="#1e2971"/><path d="M193.178,56.164q0,.288-.4.288a3.18,3.18,0,0,1-.482-.033l-3.4-.135-3.4.135a2.321,2.321,0,0,1-.4.033q-.536,0-.536-.352,0-.382.723-.382,2.356-.033,2.356-.593a2.416,2.416,0,0,0-.055-.263l-.219-.891-.137-.47q-.242-1.045-1.177-4.616h-5.726a43.3,43.3,0,0,0-1.6,6.194q0,.472.321.573.083.034,1.339.135.776.034.776.333,0,.337-.7.333-1.232,0-2.865-.135-.4-.033-.832-.034a3.079,3.079,0,0,0-.832.112,1.45,1.45,0,0,1-.347.056q-.374,0-.374-.3t.844-.338a2.171,2.171,0,0,0,1.219-.321,2,2,0,0,0,.589-1.1q3.452-12.434,5.615-19.966a4.582,4.582,0,0,1,.254-.891l.117-.606c.053-.254.127-.37.214-.37q.08,0,.134.2.347,1.312,1.582,5.486.963,3.266,4.793,16.394a1.63,1.63,0,0,0,.55.97,3.181,3.181,0,0,0,1.379.243q.7.033.7.319Zm-7.253-8.06-1.444-5.017-1.288-4.67q-1.13,3.724-2.715,9.683h5.446Z" transform="translate(-29.396 -18.181)" fill="#1e2971"/><path d="M212.528,33.417q0,.333-.665.3h-1.074q-.429,0-.509.184a4.251,4.251,0,0,0-.083,1.125V54.391q0,1.781-.027,2.08t-.16.3q-.16,0-.374-.372l-3.423-6.3q-2.976-5.511-7.24-13.762V55.192a.56.56,0,0,0,.406.557,8.8,8.8,0,0,0,1.813.153q.351,0,.352.27,0,.333-.7.333-.24,0-1.527-.1-.429-.033-.832-.034.025,0-.468.067a12.329,12.329,0,0,1-1.513.067h-.267q-.617,0-.616-.3t.536-.3a4.185,4.185,0,0,0,1.831-.254q.255-.22.255-1.433V37.6q0-2.8-.911-3.507a2.556,2.556,0,0,0-1.527-.333q-.7,0-.7-.355,0-.319.4-.319.536,0,1.365.067t.884.067q.083,0,.749-.033a14.209,14.209,0,0,0,1.714-.1l9.237,17.335V35.439q0-1.043-.027-1.262a.444.444,0,0,0-.214-.333,3.69,3.69,0,0,0-1.286-.118q-.963,0-.963-.3,0-.333.636-.333h4.311q.588,0,.589.333Z" transform="translate(-32.736 -18.272)" fill="#1e2971"/><path d="M141.347,48.9q0-.067-.053.908-.107,1.952-.107,3.77,0,.2.053.824t.053,1.5v.3c0,.291-.071.438-.214.438s-.268-.167-.374-.509a3.621,3.621,0,0,0-.749-1.447,6.045,6.045,0,0,1-4.633,2.121,7.844,7.844,0,0,1-6.521-3.451,14.111,14.111,0,0,1-2.584-8.7,14.613,14.613,0,0,1,2.372-8.633,7.2,7.2,0,0,1,6.119-3.349,6.791,6.791,0,0,1,2.183.286,8.454,8.454,0,0,1,2.022,1.166,1.793,1.793,0,0,0,.884.438q.242,0,.455-.538.347-.942.562-.943t.215.27a2.863,2.863,0,0,1-.053.438,40.405,40.405,0,0,0-.3,6.059,1.781,1.781,0,0,1-.083.741.254.254,0,0,1-.214.1q-.268,0-.347-.636a13.551,13.551,0,0,0-.991-4.005,4.326,4.326,0,0,0-4.124-2.694,3.957,3.957,0,0,0-3.428,1.818q-2.276,3.266-2.276,9.559a16.9,16.9,0,0,0,1.87,8.718,4.915,4.915,0,0,0,4.339,2.694,4.161,4.161,0,0,0,2.545-.858,5.451,5.451,0,0,0,1.767-2.34,16.1,16.1,0,0,0,.991-3.736q.107-.808.347-.808.267,0,.268.509Z" transform="translate(-21.174 -18.202)" fill="#1e2971"/><path d="M166.469,62.927a.916.916,0,0,1,.416-.111.785.785,0,0,1,.578.313,2.424,2.424,0,0,0,.326.024c.337,0,1.654-.061,2.284-.1.088,0,.141-.05.254-.135s.223-.178.272-.178c.167,0,.715.5.676.65-.018.074-.174.127-.254.16-.055.024-.083.067-.127.153a6.214,6.214,0,0,1-4.513,4.035l-.028-.1a6.476,6.476,0,0,0,3.7-4.1l.011-.042c.009-.037.006-.074-.055-.074H170c-.832.037-1.952.226-2.135.246h-.083a.474.474,0,0,1-.284-.093c-.05.2-.167,1.135-.2,1.248-.112.442-.2.644-.457.644s-.443-.338-.359-.665c.02-.083.141-.319.167-.424a2.632,2.632,0,0,0,.078-1.145.4.4,0,0,0-.271-.263l.009-.037Z" transform="translate(-27.911 -23.245)" fill="#fff"/><path d="M177.546,63.567a9.692,9.692,0,0,1-4.315,3.662c-.333.16-.351.326-.509.326-.4,0-.8-.644-.714-.987a.655.655,0,0,1,.285-.424.394.394,0,0,0,.444.43,10.824,10.824,0,0,0,4.731-3.054l.083.05Zm-4.681-.411c.944,0,1.813.276,1.654.926a.636.636,0,0,1-.6.466.382.382,0,0,1-.35-.338,1.517,1.517,0,0,0-.749-.968l.046-.083Z" transform="translate(-28.856 -23.316)" fill="#fff"/><path d="M180.428,65.474a.921.921,0,0,1,.845-.674.509.509,0,0,1,.509.674.921.921,0,0,1-.845.674.509.509,0,0,1-.509-.674Z" transform="translate(-30.267 -23.592)" fill="#fff"/><path d="M184.855,63.634c.066.368.22.392.636.392.509,0,1.265-.083,1.725-.127.047-.159.1-.4.117-.509.083-.43.116-.607.027-.665a.6.6,0,0,0-.37-.061.749.749,0,0,1,.569-.313c.382,0,.855.254.784.539-.036.141-.167.16-.308.588-.018.05-.083.307-.1.363.533-.05.682-.083.933-.319.524.083.854.263.788.52-.046.184-.28.209-.408.209-.239,0-.486-.042-.921-.042-.127,0-.3,0-.495.018-.118.442-.207.846-.346,1.447-.037.172-.09.43-.149.687-.065.333-.041.453-.071.576-.1.393-.464.822-.777.822a.22.22,0,0,1-.234-.263c0-.254-.153-.49-.794-.963l.052-.061a5.882,5.882,0,0,0,.928.215c.055,0,.083-.018.113-.111.017-.042.312-1.043.382-1.386a8.422,8.422,0,0,1-3.288,1.7l-.033-.067a10.712,10.712,0,0,0,3.054-2.484c-.363.05-.713.1-1,.167-.263.05-.338.148-.5.148a.611.611,0,0,1-.566-.674.655.655,0,0,1,.216-.35h.036Z" transform="translate(-30.806 -23.18)" fill="#fff"/><path d="M193.28,65.7c-.4,0-1.235.037-1.471.067a2.108,2.108,0,0,0-.445.111.929.929,0,0,1-.288.074.793.793,0,0,1-.636-.816.681.681,0,0,1,.242-.422h.043c0,.4.462.4.891.4h2.575a6.676,6.676,0,0,0,.72-.061h.013c.363.024.891.117.822.382-.043.172-.275.263-.588.263h-1.869Z" transform="translate(-31.949 -23.576)" fill="#fff"/><path d="M197.487,67.583a.939.939,0,0,1-.682-.944.636.636,0,0,1,.3-.448c.02.307.16.435.382.435a.975.975,0,0,0,.3-.055,11.222,11.222,0,0,0,4.446-2.845l.061.05a9.654,9.654,0,0,1-4.273,3.471,1.041,1.041,0,0,0-.23.135c-.067.05-.153.2-.3.2h-.013Zm-.346-3.274a4.055,4.055,0,0,1,.461-.025c.779,0,1.117.263,1.018.657a.518.518,0,0,1-.527.382c-.178,0-.242-.135-.308-.263a1.509,1.509,0,0,0-.7-.665Zm1.055-1.361c.118,0,.23-.013.341-.013.883,0,1.263.27,1.165.674a.489.489,0,0,1-.487.4c-.263,0-.322-.159-.4-.35a1.469,1.469,0,0,0-.672-.644l.053-.067Z" transform="translate(-33.02 -23.279)" fill="#fff"/><path d="M204.359,64.3a.576.576,0,0,1,.492-.319c.411,0,.763.127.727.254-.009.037-.1.209-.112.254a5.156,5.156,0,0,0-.042.636c.47-.111.939-.22,1.209-.3a.534.534,0,0,0,.254-.127c.094-.083.144-.127.223-.127.135,0,.545.393.509.539-.013.055-.075.083-.2.127a.439.439,0,0,0-.209.127,6.574,6.574,0,0,1-1.294.95l-.061-.05a6.794,6.794,0,0,0,.813-1.158c0-.018,0-.031-.017-.031-.042,0-.864.239-1.224.355a15.4,15.4,0,0,0,.074,1.606,1.942,1.942,0,0,1,.064.453c-.083.319-.214.509-.5.509-.209,0-.277-.093-.224-.665.02-.254.071-1.036.066-1.748a4.333,4.333,0,0,0-.716.288c-.139.083-.209.172-.318.172a.546.546,0,0,1-.471-.6.588.588,0,0,1,.167-.275h.017c0,.083.009.254.3.254a6.014,6.014,0,0,0,1.018-.188c-.028-.938-.15-.962-.352-.962a.467.467,0,0,0-.174.037l-.009-.018Z" transform="translate(-34.122 -23.454)" fill="#fff"/><path d="M214.694,63.567a9.692,9.692,0,0,1-4.315,3.662c-.333.16-.351.326-.509.326-.4,0-.8-.644-.714-.987a.655.655,0,0,1,.285-.424.394.394,0,0,0,.444.43,10.824,10.824,0,0,0,4.731-3.054l.083.05Zm-4.681-.411c.944,0,1.813.276,1.654.926a.636.636,0,0,1-.6.466.382.382,0,0,1-.35-.338,1.518,1.518,0,0,0-.749-.968l.046-.083Z" transform="translate(-35.088 -23.316)" fill="#fff"/><g transform="translate(13.063 15.518)" clip-path="url(#e)"><path d="M39.639,45.9a11.97,11.97,0,1,1-11.97-11.97A11.97,11.97,0,0,1,39.639,45.9Z" transform="translate(-15.698 -33.931)" fill="url(#f)"/><path d="M27.66,57.9a12,12,0,1,1,8.489-3.51A12,12,0,0,1,27.66,57.9Zm0-23.941a11.939,11.939,0,1,0,8.441,3.5,11.939,11.939,0,0,0-8.441-3.5Z" transform="translate(-15.691 -33.924)" fill="#cde9f2"/><path d="M28.406,33.85c.067.055.018,0,.083,0a.159.159,0,0,1,.108.025c.028.028,0,.039-.015.046-.037.017-.05.028,0,.083a.192.192,0,0,0,.163.074,1.081,1.081,0,0,1,.27.031c.076.027.1.076.05.083S29,34.168,29,34.216s.01.045-.1.045a1.466,1.466,0,0,0-.235-.006c-.074.013-.029.055-.1.061a.459.459,0,0,0-.167.025.272.272,0,0,1-.127.031,1.53,1.53,0,0,1-.172-.01c-.059,0-.017.029-.059.025s-.062-.027-.083,0-.02.039-.112.041-.083-.015-.117.013-.076.023-.2.028a.7.7,0,0,1-.221-.032c-.067-.011-.071-.018-.031-.036s.009-.052-.009-.031a.066.066,0,0,1-.078.013c-.025-.011-.022-.023-.017-.046s-.024-.011-.034.015-.037.017-.064.025.02.036-.055.051-.141.02-.139-.056.022-.076-.006-.127-.052-.045-.083-.023-.031-.031-.1-.029-.074,0-.064-.018.061-.028,0-.031a.232.232,0,0,1-.115-.028c-.022-.013-.034-.009-.057.006s-.05-.028-.02-.052.083-.042-.031-.052-.224,0-.066-.074a1.291,1.291,0,0,1,.424-.074,4.971,4.971,0,0,1,.891-.052c.492,0,.682-.009.749.046Zm.874.434a.748.748,0,0,0-.209,0,.261.261,0,0,1-.187.037,1.164,1.164,0,0,0-.3.023c-.108.017-.143.013-.193.027s-.062.045.039.074a1.459,1.459,0,0,0,.281.066c.113.013.145-.045.172-.011a.087.087,0,0,0,.1.045.2.2,0,0,1,.113.01.158.158,0,0,0,.113-.011c.037-.013.036-.037,0-.059s-.02-.056.033-.02.059.051.027.073-.013.069.083.047a.576.576,0,0,1,.188-.023c.061,0,.018-.006.083-.036s.088-.011.083-.047-.01-.034-.061-.042-.1-.037-.074-.061.018.006.088.027.109.064.191.045a.12.12,0,0,1,.127.025c.041.042.056.07.1.064s.042-.042.023-.065.015-.041.065-.036.074.033.064.059-.013.025-.055.029-.036.055.038.074.083-.02.1.025.01.055.083.036.056-.055.083-.07.006-.059-.05-.067-.041-.018-.055-.047-.093-.025-.12-.042a1.457,1.457,0,0,0-.137-.093,1.537,1.537,0,0,0-.218-.073c-.09-.038-.083-.047-.167-.041s-.115.032-.05.05.09.032.171.052.127.038.117.064-.042.018-.135-.011a1.018,1.018,0,0,1-.182-.074.228.228,0,0,0-.145-.045.548.548,0,0,0-.163.02l-.083.009Zm.347.333c.045,0,.036-.027,0-.029s-.045.025,0,.025Zm.185-.1c-.034.009-.056.023-.034.052a.056.056,0,0,0,.083,0c.027-.02.065-.02.088-.047s-.013-.051-.071-.027a.493.493,0,0,1-.065.013Zm.041.1c-.029.029-.036.056,0,.071a.083.083,0,0,0,.094-.015c.018-.02.025,0,.059,0s.041-.027.02-.045.015-.013.009-.034-.027-.025-.09-.025a.148.148,0,0,0-.094.042Zm.342.083c.033,0,.006-.018.036-.023s.037-.039-.02-.027S30.161,34.694,30.2,34.7Zm-.127-.071a.014.014,0,1,0,0-.027c-.037,0-.023.019,0,.022Zm.127.137c-.038,0-.023-.018-.065-.02s-.067.025-.038.027.018.015.059.032.032-.018.059-.018.042.02.076.047.038.006.056-.009.036-.006.011-.036-.042-.034-.1-.034C30.232,34.751,30.235,34.76,30.2,34.762Zm.254-.052c-.067.011-.045.047.009.052a.6.6,0,0,0,.127.011c.047,0,.05-.029.07-.009s0,.042-.036.05-.013.038-.047.042-.025-.027-.05-.032,0,.032-.027.036-.052-.02-.074,0,.025.036.15.093a.949.949,0,0,0,.209.083c.055.009.05-.047.038-.093s.028-.018.059-.009.029-.032-.006-.059-.052-.036-.036-.045.042.009.083.029.052,0,0-.033-.079-.029-.141-.067-.076-.061-.127-.093-.048-.028-.076,0a.255.255,0,0,1-.127.045Zm.9-.093c.037.042.011.083-.088.088a.519.519,0,0,1-.22-.009c-.056-.023-.043-.025-.1-.023s-.079.015-.02.045a.709.709,0,0,0,.167.045c.07.018.14.009.163.074s-.033.079-.1.09-.07.025-.052.108.083.1.193.106a.476.476,0,0,1,.193.056.509.509,0,0,0,.214.047c.117,0,.179.006.094-.047a.789.789,0,0,0-.2-.094c-.052-.015-.025-.027.029-.02s.056,0,.052-.025.023,0,.055.023.047.02.083,0-.011-.036-.023-.064.045,0,.083.05.05.038.108.033.02-.033.029-.059.025.009.056.009.088-.013,0-.064a2.041,2.041,0,0,1-.212-.127c-.083-.059-.052-.052-.112-.112a.4.4,0,0,0-.115-.094c-.045-.025-.015-.083.073-.015a2.08,2.08,0,0,1,.188.184.254.254,0,0,0,.2.088c.106.013.214.023.12.029s-.071,0,.006.076.106.135.029.094-.167-.059-.127.009.061.076,0,.094-.064.064.02.076.1.061.065.083-.079.011-.15,0-.083.047.015.1.1.059.117.127a.215.215,0,0,0,.078.135c.056.056-.018.052-.083.09s-.042.045-.109.059-.023.076-.083.1-.05.083-.167.1-.115.045-.187.073-.041.093-.013.211.032.127.1.173.052.1,0,.14-.01.055.1.078a1.589,1.589,0,0,1,.254.05.254.254,0,0,0,.193,0c.083-.02.106-.015.1.064s-.07.112-.1.065-.062-.032-.1-.01,0,.083,0,.16.041.088.076.083c.059,0,.059-.041.106,0s.061.065.146.032.076-.052.1-.106.01-.1.065-.083.033.056.108.076.127.093.083.158-.059.045-.094.059-.018.052.045.1a.338.338,0,0,1,.127.16c.042.083.078.042.182.109a.433.433,0,0,0,.188.1c.1.025.127-.02.218,0s.07.055.137.052.029-.074.1-.074.036-.042.1-.047.029-.018.09.038a1.342,1.342,0,0,1,.144.188c.052.067.034.045.045.137s.047.1.02.127-.041.034-.02.1.056.083.029.127-.052.038-.045.115.036.07.071.023,0-.055.013-.115a.582.582,0,0,0,0-.117c0-.052.038-.052.02-.127s.02-.09-.006-.158-.043-.065-.047-.14-.045-.074-.067-.167a.62.62,0,0,0-.074-.215c-.041-.059-.02-.042-.093-.067s-.083-.027-.109-.1.013-.109.07-.083.041.047.071.038.02-.034-.025-.094-.064-.074-.029-.083.045-.047-.023-.071-.127-.059-.1-.108.071-.047.093.009.038.059.076-.025.059-.041.059-.093.025-.059.071-.052.02-.015.061-.045.052-.018.139,0a.483.483,0,0,0,.16,0,.486.486,0,0,1,.232.065c.1.056.127,0,.232.056s.127.076.158.055,0-.033-.036-.065-.038-.059.018-.055.093.056.171.1.083.013.155.036.115.032.193.05a.693.693,0,0,0,.215,0,.382.382,0,0,1,.254.127c.055.056,0,.067.127.153a4.179,4.179,0,0,1,.481.388c.184.173.439.393.677.636a5.329,5.329,0,0,0,.422.4c.064.05.043,0-.042-.1s-.407-.487-.65-.744-.448-.449-.612-.616a10.827,10.827,0,0,0-.9-.79,11.89,11.89,0,0,0-1.1-.756,12.259,12.259,0,0,0-1.122-.636c-.445-.207-1.272-.456-1.6-.589s-.445-.2-.536-.225-.1-.009-.056.025.088.064-.013.028a1.614,1.614,0,0,0-.234-.07,1.29,1.29,0,0,0-.191-.02c-.112-.01-.127-.023-.163-.059s.055-.009.093,0,0-.05-.127-.061-.141-.05-.285-.061a2.448,2.448,0,0,1-.275-.041,2.188,2.188,0,0,1-.254-.055.555.555,0,0,0-.173-.032c-.127-.006-.15-.006-.061.027a2.065,2.065,0,0,1,.2.1c.083.038.1.006.127.056s.029.07.07.093.045.032.083.032.041-.02.006-.029,0-.027.067-.011.16.042.073.047-.1.032-.025.047.079,0,.1.027.02.029.07.038a.953.953,0,0,0,.1.025c.055.006.1,0,.176.006a.953.953,0,0,0,.187.015c.064,0,.127-.013.073-.042s-.018-.036.076-.029.127-.011.144.032.013.061-.043.083a.44.44,0,0,1-.24.018,1.641,1.641,0,0,1-.17-.032c-.1-.02-.167-.029-.137.006s.052.025.146.059.059.029.1.059a.43.43,0,0,0,.127.052c.052.02.15-.015.182.01s.025.059.073.05.05-.052.094-.061-.023-.047.067-.052a.228.228,0,0,1,.2.088Zm-.691,2.247a.979.979,0,0,0,.146-.127c.052-.059-.071-.1-.153-.029-.123.115-.029.188.009.157Zm4.835.293c.037,0,.01-.041-.071-.064a.49.49,0,0,1-.186-.083c-.057-.045-.088-.028-.055.017a.536.536,0,0,0,.31.127Zm-1.207.615c.067,0-.013-.155-.1-.223s-.071-.056-.055.037c.02.115.088.182.155.186Zm-1.145.127c.1.017.083-.1.017-.108s-.121.088-.017.107Zm.989.813c.039-.02.034-.05-.024-.031s-.017.048.024.028Zm-.034.112c.031.006.02.013.037.083s.033.017.039-.055-.014-.117-.078-.108-.031.071,0,.078Zm-.057.078c-.006.031.02.027.027.067s.027.088.045.027,0-.115-.047-.127c-.02,0-.017,0-.023.027Zm0,.209c.023.006.045-.041.02-.047s-.047.039-.023.046ZM34,39.188c.017.013.024-.028,0-.034s-.02.019,0,.033Zm-.083.09c-.02-.013-.037.006-.013.031s.033-.015.013-.032Zm-.055.115c.037-.017.015-.059-.017-.033s-.02.05.015.033Zm-.083-.045c0-.041-.045-.02-.047.031s0,.055-.02.071.037.034.055-.01A.24.24,0,0,0,33.781,39.348Zm-.148.223c.047-.017.042-.083,0-.071s-.046.087,0,.07Zm-.127.061c.041,0,.018-.056-.01-.045s-.029.046.011.042Zm-.347.108a.023.023,0,1,0,0-.045.021.021,0,1,0,0,.042Zm-.034.094c.034.006.031-.036,0-.031s-.033.023,0,.029Zm-.163-.023c0-.041-.019-.056-.033-.01s.031.05.034.009Zm-.59.031c.051.013.053-.078.01-.074s-.059.06,0,.074Zm.135.041c.031,0,.02-.051-.01-.051s-.018.045.011.05Zm-1.036-.288c-.071-.067-.094-.039-.045.027.1.127.117.039.046-.028Zm-.573-.763c.032.015,0-.045.032-.093s.038-.067.038,0,.015.056.065.042.02-.076.045-.127a.139.139,0,0,1,.215-.033c.083.074.093.055.088,0s.018-.059.041-.167.1-.127.127-.214.052-.059.083-.135.045-.056.137-.052.061-.055-.02-.109a2.027,2.027,0,0,1-.237-.16c-.047-.05-.039-.07-.006-.139s-.011-.073-.07-.127-.023-.083.006-.071.083.038.061-.006.028-.052.083.011.083.032.1-.011.093-.042.136,0,.041.038.127.055.143.029.172,0-.029-.09-.1-.144-.05-.038-.011-.065.036-.083-.043-.114-.094-.067-.207-.064-.12.027-.074.1-.025.009-.1-.055-.127-.033-.27-.064a2.321,2.321,0,0,0-.328,0,2.183,2.183,0,0,0-.445-.018c-.2.013-.243.02-.254.106s-.047.074-.071.015-.09-.036-.109.027-.112.079-.237.093a.235.235,0,0,1-.223-.05.689.689,0,0,0-.193-.106.333.333,0,0,0-.317.055c-.127.074-.139.055-.184,0s-.1-.02-.15-.088a.16.16,0,0,0-.188-.064.615.615,0,0,1-.275-.036c-.1-.025-.127-.045-.083-.05s.07-.009.041-.064-.059-.025-.135-.074-.1.013-.094.1.033.038.011.127-.064.1-.163.127a.313.313,0,0,1-.22.02c-.065-.025-.065-.056-.115,0s-.013.1-.067.1-.108-.034-.14-.158.015-.055.041-.137-.038-.074-.158-.14-.177-.045-.188.032-.074.056-.167.041-.117-.032-.1-.052.042-.038-.038-.067a.8.8,0,0,0-.215-.027c-.079-.009-.076-.066-.013-.076s.05-.042-.015-.056-.022-.071.025-.071a.209.209,0,0,0,.127-.065c.07-.056.036-.127-.027-.173s-.1,0-.173-.013.032-.055.013-.117-.083-.061-.179-.041-.146.088-.254.1-.064-.05-.16-.052-.171.009-.272.011a1.1,1.1,0,0,1-.187,0c-.127-.009-.167.013-.163.083s-.055.05-.14.033-.094-.074-.179-.083-.076,0-.146.1-.079.141-.117.127,0-.047.006-.115,0-.076-.059-.07-.056,0-.011-.047.061-.088,0-.1-.047.067-.148.1-.167.083-.211.059.009-.074.1-.1.127-.02.15-.07,0-.083-.065-.083-.076.047-.191.083-.16-.006-.27.023-.137.056-.234.187-.127.167-.155.108.009-.059.05-.141.05-.074.038-.144.009-.055.059-.12.013-.1-.052-.045a1.309,1.309,0,0,0-.177.17c-.088.1-.137.009-.094-.009s.065-.056.02-.064-.036.032-.073-.032-.094-.061-.025-.076.083-.045,0-.07-.1-.011-.146-.056-.12-.041-.074-.07.071-.015.127-.07.025-.093-.05-.041-.167.032-.254.1-.1.029-.14-.027-.088-.071-.14-.015-.112.1-.144.059.023-.059.074-.115-.029-.056-.083.015-.076.093-.106.067-.015-.047.028-.07.052-.042.127-.093.059-.056.141-.067a.3.3,0,0,0,.179-.076c.076-.056.178-.083.115-.02s-.083.076-.167.16,0,.093.109.083.07-.042.191-.09a.807.807,0,0,1,.31-.045c.112,0,.12-.093.209-.127a.773.773,0,0,1,.3-.069c.117,0,.076-.083.02-.127s-.083,0-.127-.011-.059-.02-.127.032-.167.07-.171.023.041-.032.083-.041.018-.065.061-.1.055-.038.09-.009.083-.041.14-.09.055-.079.055-.148.083-.052.036-.112-.127-.018-.215-.015-.153-.045-.276-.009-.218.032-.177,0,.061-.067,0-.074a.616.616,0,0,0-.244.065,2.093,2.093,0,0,0-.293.1c-.141.07-.2.137-.308.179s-.127.01-.266.106-.214.065-.366.193-.036.15-.011.115a.262.262,0,0,1,.127-.106c.092-.052.127-.023.223-.038s.127-.083.2-.127a.948.948,0,0,1,.317-.088c.088-.009.047.006.144.034s.106-.025.187-.034.09.036-.009.09-.088.045-.214.033-.1-.029-.211.006a1.117,1.117,0,0,0-.375.127c-.176.106-.187.141-.214.237s-.117.109-.167.163-.052-.065,0-.127.074-.065.042-.093-.088.009-.207.127-.12.052-.12.052c0-.027.071-.07.115-.117s-.064-.025-.153.036-.155.112-.176.083.05-.076.05-.076c.05-.041.167-.127.232-.177s-.041,0-.509.3A15.123,15.123,0,0,0,19.3,37.2a5.63,5.63,0,0,0-.819.865,4.1,4.1,0,0,0-.462.636c-.045.118.057.033,0,.1a2.705,2.705,0,0,0-.674.776,12.65,12.65,0,0,0-.944,1.772,11.3,11.3,0,0,0-.517,1.49,3.026,3.026,0,0,0-.2.868c.027.2.074.159.088.094s.006-.083.033-.017.1.037.127-.055.074-.055.1.006.074.078.088,0,.017-.1.037-.041.045.045.064-.041.055-.088.061-.037.051.006.071-.1.047-.135.071-.083.043.034.064-.055.088-.108.155-.206a.749.749,0,0,0,.041-.439.809.809,0,0,1,.127-.462c.083-.159,0-.145-.071-.051s-.111.155-.155.083a.2.2,0,0,1-.041-.186,1.166,1.166,0,0,1,.127-.274c.047-.1,0-.083,0-.083a1.582,1.582,0,0,1,.074-.209,5.431,5.431,0,0,1,.215-.533c.078-.135.127-.127.071.02a2.371,2.371,0,0,1-.127.317,1.113,1.113,0,0,0-.1.486c-.027.266.037.225.092.186s.061.045-.006.141-.047.145-.027.29.043.112.064.23.118.135.233.294.112.064.118.223a5.829,5.829,0,0,1-.017.6c-.017.254,0,.148-.02.374s.057.237.127.226.09.01.067.115a1.839,1.839,0,0,0-.135.458,5.393,5.393,0,0,0-.092,1.191,8.743,8.743,0,0,0,.053,1.112c.017.212.151.172.163.083s.127-.055.179.067.013.118-.017.416.017.276.112.27.127-.092.108-.27a3.045,3.045,0,0,0-.055-.435,1,1,0,0,1-.064-.374.534.534,0,0,1,.112-.333.864.864,0,0,0,.071-.368c.01-.145.031-.212.083-.239s.045.02.083.031.013-.037.078-.037.051.031.108-.01,0-.108.057-.135.067-.023.167-.061a.706.706,0,0,0,.223-.163c.1-.08.071-.083.226-.071s.182-.078.179-.167a.1.1,0,0,1,.155-.083c.064.055.02.047.139.094a.642.642,0,0,1,.206.1c.127.083.127.071.172-.037s.064-.127.064-.051a2.9,2.9,0,0,0,.006.321c.013.186.051.209.094.243s.083.017.051.094-.013.1.013.167a.877.877,0,0,1,.017.327c-.006.172-.02.094-.083.206s0,.112.051.2.112.071.151.031a1.488,1.488,0,0,1,.141-.1c.083-.061.158-.037.155.112s.006.344.017.517.071.067.061.215a1.761,1.761,0,0,0-.01.321c.01.115-.061.067-.064.209a.552.552,0,0,1-.064.254.338.338,0,0,0,.017.266c.037.064.023-.037.057.034s.135.266.2.374.028.139.006.294a.345.345,0,0,0,.083.3c.061.088,0,.078.057.182s.182.243.127.192a1.036,1.036,0,0,0-.219-.151c-.088-.045-.09-.051-.145-.151a3.026,3.026,0,0,0-.243-.3.382.382,0,0,1-.1-.22c-.02-.088-.094-.074-.167-.094a.367.367,0,0,1-.186-.127c-.088-.087-.074.02-.023.162s.034.083.163.239.135.167.155.254.034.1.127.186a.284.284,0,0,1,.112.226c.01.1.013.1.127.28a2.728,2.728,0,0,1,.167.3c.094.172.037.139.118.3a2.487,2.487,0,0,0,.254.361,1.868,1.868,0,0,0,.456.416c.127.078.145.074.139-.02a1.85,1.85,0,0,1,.061-.345c.013-.083.051-.051.112-.09s0-.078-.083-.145-.027-.1-.083-.167-.09-.061-.127.034-.067.045-.057-.037.013-.094-.041-.135a.416.416,0,0,0-.172-.071c-.078-.02-.078-.118-.037-.135s.047-.051.027-.127.027-.078.1-.067.09,0,.045-.051a.359.359,0,0,1-.088-.209c-.023-.127-.047-.074-.108-.2s-.01-.141,0-.284a.3.3,0,0,0-.083-.294c-.1-.108-.179-.27-.254-.344s-.1-.037-.153-.108-.027-.139-.031-.233-.055-.064-.057-.127a.182.182,0,0,0-.071-.159c-.057-.041-.033-.127-.013-.2a1.018,1.018,0,0,1,.127-.28.337.337,0,0,0,.078-.239c.006-.127.067-.127.127-.09s.045.067.023.162.1.074.167.1.034.083.083.127a.191.191,0,0,1,.078.167c.006.1,0,.1.064.127q.061.027.023.074c-.037.047.09.045.151.115s.1.1.023.266.045.155.09.1.055-.064.127-.067a.174.174,0,0,0,.176-.118c.034-.09.083-.074.179-.1a.523.523,0,0,0,.3-.179.877.877,0,0,0,.061-.337,1.623,1.623,0,0,0-.037-.435.431.431,0,0,0-.108-.226c-.064-.1-.108-.135-.176-.243a.548.548,0,0,1-.074-.23c-.023-.088-.094-.041-.09-.135a.356.356,0,0,1,.127-.286c.1-.071.078-.1.179-.135s.1-.074.2-.1a.2.2,0,0,1,.2.064c.045.037.1.031.09.1s-.034.067.013.158-.051.088-.127.1-.108.031-.167.145.055.167.141.186.127-.013.2-.083.055-.09.115-.148,0-.083-.041-.167.027-.135.051-.2.047-.013.22-.02a.853.853,0,0,0,.333-.064.961.961,0,0,0,.193-.088c.083-.051.083.045.233.034a.569.569,0,0,0,.31-.112,1.223,1.223,0,0,0,.317-.237c.1-.112.115-.1.192-.118s.031-.088.057-.186.047-.1.127-.188.141-.108.233-.206.064-.127.115-.2a.333.333,0,0,0,.1-.223c.037-.182.033-.239,0-.294a.218.218,0,0,1-.017-.2.458.458,0,0,0,.017-.284c-.031-.127-.064-.186-.148-.135s-.1.031-.176-.057-.078-.112-.006-.172a1.332,1.332,0,0,1,.182-.172c.115-.083.2-.139.263-.1s.108.023.115-.034-.013-.1-.088-.1-.1-.006-.1-.074-.041-.108-.1-.034a.466.466,0,0,1-.2.135c-.074.034-.088-.074-.02-.071s.051-.067,0-.088.013-.041-.033-.064-.1-.01-.1-.078.055-.108.127-.127.037-.094.155-.167a2.646,2.646,0,0,0,.226-.139c.1-.071.108-.034.139.027s.041.074-.057.148-.01.067-.045.127-.074.151-.01.118.064-.057.2-.127.223-.088.282-.055.127.034.163.074.031.1-.039.233c-.037.071-.01.107.038.116a.225.225,0,0,1,.167.12c.042.113-.062.1-.078.143s.028.05.052.1-.179.327-.146.382a.229.229,0,0,0,.22.039c.05-.014.083-.07.127-.083a.457.457,0,0,0,.2-.069c.083-.045.14-.2.071-.458a1.713,1.713,0,0,0-.254-.408.117.117,0,0,1,.047-.145c.067-.051.139-.078.226-.141a.307.307,0,0,0,.155-.2c.02-.1.031-.094.083-.127a.167.167,0,0,0,.083-.083c.027-.043.037-.013.1-.067s.083-.088.127-.027a.127.127,0,0,0,.159.064.673.673,0,0,0,.307-.151,2.389,2.389,0,0,0,.2-.254c.1-.115.135-.141.209-.223a.44.44,0,0,0,.127-.212.749.749,0,0,1,.151-.233.482.482,0,0,0,.074-.3.925.925,0,0,1,.045-.321c.041-.112.151-.041.186.112s.013.254.039.4a1.582,1.582,0,0,1,.006.416c-.01.151.061.1.061.031s0-.067.034-.074a.106.106,0,0,1,.127.061c.031.064.041.051.031-.02s-.041-.047-.078-.127-.108-.078-.118-.158.051-.151.067-.243.057-.074.115-.041.055.045.034-.045-.055-.067-.078-.167-.09-.176-.118-.266,0-.162-.028-.254-.006-.1-.033-.188-.074-.083-.09-.031.031.041.031.1-.037.071-.112.071-.083-.017-.159-.078-.067-.107-.179-.09-.057.139-.112.141-.078,0-.083-.074-.028-.057-.047,0-.083,0-.051-.064,0-.064-.074-.051-.108,0-.115-.041.041-.055.115-.094.1-.1.167-.155.108-.167.182-.2a.271.271,0,0,0,.159-.151c.013-.061.031-.083.108-.139s.127-.127.233-.135a1.342,1.342,0,0,1,.2-.017c.071.01.09-.034.148-.013s.172.01.2-.045.051-.057.112-.047.051.034.127.017.127.01.064.041-.02.078.037.071a.254.254,0,0,0,.127-.045c.033-.046.02-.046.1-.046s.09-.074.047-.083-.074.006-.074-.067a.244.244,0,0,1,.083-.176c.047-.051.041-.167.1-.212a.254.254,0,0,1,.179-.045c.067,0,.1-.006.1.045s.039.061.067.127.071,0,.115-.067a.234.234,0,0,0,.064-.2c-.017-.1.024-.1.033-.055a.791.791,0,0,1,.057.188c.006.094-.031.074-.083.135s0,.094-.028.172-.055.064-.083.192-.074.127-.151.2-.023.083-.037.141a.449.449,0,0,0-.055.233c0,.167.092.266.188.456a3.179,3.179,0,0,1,.2.4c.028.09.083.067.1-.017s.071-.083.094-.155-.051-.1-.039-.155a.094.094,0,0,1,.139-.074c.061.034.061-.01.013-.064a.15.15,0,0,1-.051-.135c0-.067.039-.1.115-.088s.09-.071.033-.115-.057-.078-.057-.141.02-.1.057-.067.045.017.041-.037-.041-.071-.083-.1-.047-.09-.045-.148-.051-.074-.074-.02-.057-.023-.071-.083.013-.074.023-.112a.127.127,0,0,0-.01-.112c-.028-.037,0-.053.027-.074a.083.083,0,0,1,.1-.008Zm.036.155c.013-.064-.05-.1-.074-.02-.056.186.062.083.076.019Zm1.433-1.407c.038-.013.027-.036.09-.038s.093-.023.064-.045a.192.192,0,0,0-.182.02c-.059.036-.009.076.029.064Zm-3.794-.858c.052.011.1,0,.111-.041s-.032-.05-.158-.059-.109.023-.041.065a.277.277,0,0,0,.088.033Zm-.337-.127c-.045-.006-.023-.029-.083-.038s-.029.032-.074.034-.025-.056-.083-.045a.107.107,0,0,0-.083.127c.023.055.047.056.109.079s.045-.02.09-.006.036-.013.067-.006a.143.143,0,0,0,.146-.047c.065-.064.056-.106-.036-.112-.032,0-.011.018-.056.011Zm-.388.07c.034,0,.036-.055,0-.052a.027.027,0,1,0,0,.052Zm-1.207-.484c.033-.015.014-.059-.023-.036s-.011.052.023.037Zm-.291-.112c-.061.032-.045.052.018.038a.7.7,0,0,1,.167,0c.073,0,.093-.02.083-.071s-.045-.1-.1-.067a1.925,1.925,0,0,1-.173.1Zm.209-.22c-.013-.028.009-.045.05-.056s.038-.027.047-.064-.059-.05-.112-.032-.088.041-.15.059-.071.015-.1.05,0,.061.032.055.023.02-.006.045.023.059.061.079a.09.09,0,0,0,.12-.025c.045-.045.061-.034.083-.067s-.006-.025-.015-.042Zm-.749-.606c-.034-.023-.067-.02-.083.042s.006.093.05.073.038-.036.064,0,.047,0,.079.023.05.02.109,0,.011-.032-.047-.045,0-.064.056-.065.079-.038.045-.045a.2.2,0,0,0-.187.009c-.05.027-.052.034-.083.011Zm-.106-.065c-.064.083-.006.083.018.052s.05-.047.074-.029.015.036.056.029.056-.083.015-.127-.1-.009-.167.071Zm-.083-.533a.612.612,0,0,0-.237,0c-.14.023-.064.056.034.055s.127-.006.137.02-.033.034-.127.032-.127.034-.071.047a.286.286,0,0,0,.15-.013c.052-.013.088-.018.15-.036s.115-.013.061.01-.045.07.029.071a.182.182,0,0,0,.146-.033c.059-.038.027-.093.078-.127s.032-.093-.064-.083a.776.776,0,0,0-.214.052c-.032.011-.023.009-.079,0Zm-1.638,1.186a1.1,1.1,0,0,1,.461-.112,1.248,1.248,0,0,1,.481,0c.109.034.2.065.263.029s.028-.067-.088-.071-.042-.056-.266-.076a2.1,2.1,0,0,0-.646.07c-.22.047-.342.074-.4.179s.011.127.083.064a.447.447,0,0,1,.112-.083Zm-.6.032c.041.006.05,0,.07-.034s.037-.062-.042-.038-.067.065-.028.071ZM30.6,40.69c.028-.033-.009-.076-.041-.018s-.013.059-.055.083-.032.076.013.073.059-.112.083-.14Zm-1.87,1.554c-.013.027.01.057,0,.094a.066.066,0,0,1-.108.017c-.037-.037-.074,0-.057.013s.024.037.041.057-.045.02-.088.061a.069.069,0,0,0,0,.115c.037.033.027.037.017.083s.023.074.045.033.017-.055.057-.041.088,0,.064-.034-.071-.031-.108-.061-.013-.067.023-.088.051-.023.055.027.039.033.067-.013.023-.051.083-.031a.569.569,0,0,1,.148.1c.055.041.083.047.083.01a.219.219,0,0,1,.02-.1.158.158,0,0,1,.127-.1.464.464,0,0,0,.145-.037c.051-.023.033-.023-.017-.057s-.033-.051-.02-.088.039-.083-.006-.047a.176.176,0,0,1-.151.031.468.468,0,0,1-.209-.127c-.074-.061-.083-.127-.135-.148s-.055.017-.041.083a.416.416,0,0,1,.006.219c-.006.02-.017.01-.031.037Zm.836-.219c-.017.047.013.055.055-.013s.041-.047.09-.09.031-.076-.055-.017a.283.283,0,0,0-.09.127Zm-.2.127c-.033.045-.01.067,0,.047a.313.313,0,0,1,.064-.083c.041-.037.031-.083-.006-.047a.457.457,0,0,1-.059.084Zm.435-.3c.031-.02.019-.066-.013-.045s-.018.067.009.045Zm.167-.127c.041-.051.043-.108-.006-.061s-.033.112.008.061Zm-1.375,1.066c-.024,0-.013.051-.024.078-.018.05-.041.02-.047.1s.02.088.034.135,0,.067-.041.155-.02.135-.067.186-.09.061-.108.108-.023.051-.083.09-.1.02-.127.064-.088.037-.094,0,.006-.078.041-.083.014-.055-.034-.045-.047.031-.051.1.01.047-.061.118-.051.1-.064.159-.094.051-.135.034a.127.127,0,0,0-.109,0c-.067.013-.186.017-.29.027s-.115.064-.163.118a.416.416,0,0,1-.179.118c-.074.027-.006.074.045.074s.083.02.118.006.027-.037.083-.045.1-.041.172-.051a.254.254,0,0,0,.127-.031.191.191,0,0,1,.148-.031c.061.013.1.027.057.083s-.039.083,0,.108,0,.051.047.064.083.027.083-.02,0-.033.037-.1.037-.047.09-.051.028-.027-.01-.057-.027-.045,0-.083.041-.051.041,0,.013.041.041.031.033-.034.045,0,.061.023.108.017.055,0,.09-.064.067-.051.064.027.037.045.045-.006.013-.074.055-.094.045.01.074-.057.071-.013.031.041-.023.083.023.057.051-.071.074-.094.041-.045,0-.083.013-.045.006-.127.045-.141.037-.225,0-.139.031-.158.041-.034.055-.115.071-.1.061-.192-.071-.118-.108-.167,0-.1-.01-.139a.042.042,0,0,0-.078-.017c-.023.031-.017.041.017.041s.028.023.01.057-.061.023-.067-.023c0-.009-.006-.045-.037-.041Zm-.307.7c.017-.02.019-.065-.01-.041s-.006.061.011.042Zm-.9.382c.027,0,.045-.051,0-.047s-.025.045,0,.05Zm-.127.523a.167.167,0,0,0-.02.127c.006.078.078.083.083.055a.347.347,0,0,1,.047-.1c.02-.037.112-.061.127-.027s.047.037.055,0a.09.09,0,0,1,.055-.078c.047-.031.013-.067-.02-.074s-.055-.033-.1-.023-.057.057-.1.057a.127.127,0,0,0-.118.064Zm.391-.127c.02,0,.045-.066.017-.064s-.037.061-.014.061Zm-.858.127c-.045-.006-.112.037-.094.061s.006.071.033.108.047.031.088.013.051.031.027.088a.569.569,0,0,0-.037.163c-.013.083.041.127.055.051s.034-.045.031.023.041.055.061-.01.071-.057.083-.127a.264.264,0,0,1,.045-.151.149.149,0,0,0-.006-.167c-.023-.052-.083-.017-.115-.061s-.028-.059-.088,0c-.013.013-.033.02-.078.013Zm.1.725c.033-.023.042-.113.017-.1s-.047.12-.014.1Zm-.276.456c.037-.031.032-.1-.023-.051s-.011.079.025.05Zm-.266.338c.047-.083,0-.09-.047-.027s0,.109.05.025Zm-.583.368c.027,0,.039-.064,0-.047s-.025.046,0,.046Zm-.274.083c.078.017.088-.078.013-.074s-.09.053-.013.07Zm-.772.172c-.023.127.074.127.1.188s.057.083.064.023a.191.191,0,0,1,.041-.127,1.969,1.969,0,0,0,.141-.266c.057-.127.083-.223.031-.254s-.083-.006-.233.148a.519.519,0,0,0-.141.282ZM24.664,47.9c-.023.083-.01.127-.045.127s-.037-.041-.064-.051-.023.067-.006.192.033.141.064.159.037.055.064.045.02-.057.051-.041.031.057-.023.083-.045.064-.013.088.064,0,.057.037.067.037.083,0,.071-.01.1-.023-.031-.041-.045-.1-.006-.112-.045-.135-.023-.057.013-.1.017-.1.064-.127a.228.228,0,0,0,.127-.1.157.157,0,0,0,0-.182.117.117,0,0,1-.006-.141c.027-.047.02-.1-.045-.055s-.074-.006-.127-.055-.167-.045-.188.141a1.465,1.465,0,0,1-.023.226Zm.061.931c.031.094.112.031.115-.037a.179.179,0,0,0-.112-.179c-.09-.051-.127-.041-.074.055a.852.852,0,0,1,.069.162Zm-.188.109c.031-.045-.031-.151-.041-.127-.028.1.01.176.041.129Zm.391-.254c.028.017.028-.071,0-.074s-.027.061,0,.078Zm.013.179c.027,0,.023-.056,0-.055s-.027.057,0,.057Zm.127.027c.023-.006.013-.043-.013-.039s-.01.051.013.045Zm-.155.307c-.031.071.017.088.045.047s.047-.017.061.024.057.02.045-.017a.1.1,0,0,1,.055-.108c.045-.027.045-.064.01-.064a.185.185,0,0,1-.094-.037.367.367,0,0,1-.1-.083c-.027-.034-.018,0-.006.083a.263.263,0,0,1-.013.155Zm-.6.006c-.055.047-.055.051-.127.115a2.291,2.291,0,0,0-.254.2c-.067.078-.051.229-.041.179a.206.206,0,0,1,.088-.148,1.948,1.948,0,0,1,.182-.127c.078-.047.067-.094.139-.127s.083-.055.151-.055.057-.031.013-.041-.055-.041-.051-.118-.027-.075-.057.037c-.01.037.006.051-.047.1Zm.87-.55c.024.047.01.061.051.094s.037.01.064.057.061.057.064.017,0-.047-.047-.074.006-.033-.051-.078-.017-.064.047-.067.031-.027-.031-.045-.083.057-.108.01-.006-.067-.047-.1-.057,0-.127.031-.051.047-.02.078.017.02.051.078.047.02.017-.047-.006-.078.037-.045a.277.277,0,0,1,.094.088Zm.233-.01c.033.006.015-.106-.017-.1s-.018.1.015.1Zm-.192.307c.017-.033.055.017.115.055s-.01-.061-.061-.108-.071-.083-.1-.013.02.1.043.064Zm.31.1a.059.059,0,0,1-.055.088c-.041,0-.041-.028-.031-.067s-.02-.051-.047.031.006.057.041.108.047.006.051.088,0,.078.055.078.031-.037.01-.078a.127.127,0,0,1-.02-.1c0-.064.037-.057.092-.02s.051-.02.02-.061-.01-.057-.006-.108,0-.055-.034-.1-.067-.02-.127-.034-.067-.034-.071.02.1.1.127.151Zm-.361.382c-.037.071-.045.051-.037-.017a.239.239,0,0,1,.074-.135c.031-.041.024-.1-.023-.1s-.061.023-.083.112-.031.1-.09.09-.028.061,0,.115.057.01.071.045.037.051.074.031.013-.034.031-.078a.305.305,0,0,1,.09-.127c.047-.041.045-.033.051-.108s-.039-.094-.064.013c-.013.057-.057.092-.094.163Zm.192.061c.083,0,.057-.117,0-.108-.109.02-.085.107,0,.111Zm.307-.083c.006-.055,0-.083-.037-.013s.031.073.037.018Zm.108.037c.013-.045-.018-.037-.031-.01s.015.059.031.015Zm-.159.186c-.017.041-.061.055-.083.023s-.045-.055-.057,0,0,.051-.071.061-.051.071-.127.061-.023-.067-.071-.1-.074,0-.1.047-.064.037-.127.051-.047.047-.064.112-.045.037-.045.09.027.01.055-.034.045-.1.083-.108.041.006.045.064.031.006.055-.041.031,0,.055.028.031-.047.061-.057.057.034.1.088.02.045-.01.127.01.112.078.163.108.094.139.051.041-.006.041.045.039.055.039.031,0-.031.037-.067.027-.043-.024-.1-.037-.083-.01-.1.045,0,.064-.041.023-.061.031.006.055.1.083.051a.316.316,0,0,0,.061-.127c.023-.09-.031-.074-.031-.135s.013-.051-.017-.067-.047-.057-.013-.067.031-.037-.017-.078-.047-.071-.09-.115-.071-.027-.055.031a.2.2,0,0,1,0,.1Zm-.732.472c.041.01.033-.064-.013-.061s-.028.056.013.064Zm-.206.1c.037.006.037-.05,0-.055s-.038.052,0,.059Zm-.206.141c.051-.013.033-.083-.006-.067-.059.033-.046.087,0,.074Zm1.43.317c.013-.064-.018-.093-.047-.023s.033.093.046.029Zm-.286.127c.028,0,.027-.052,0-.047-.052.013-.029.05,0,.053Zm-1.8-.884c-.034.01-.017-.057-.051-.067s-.01.051-.078.145-.027.09-.088.115-.047.074-.092.1-.061.01-.111,0-.074.055-.141.057-.037.017-.1.1-.135.155-.209.155-.2-.045-.263-.013-.031.074-.037.176-.078.067-.167.041a.291.291,0,0,1-.151-.112c-.041-.041-.071.037-.127.118s-.023.094.01.172.041.051.02.127.006.088.045.139.023.094.057.078.033-.028.061.01a.6.6,0,0,1,.013.27c-.006.135.064.145.212.148s.127.006.141.067.045.078.067.033.051-.023.083.013.064-.01.092-.051.013.006.051.031a.167.167,0,0,0,.127.045.139.139,0,0,1,.145.139c.01.1.034.088.09.055a.382.382,0,0,1,.167-.051c.071-.01.045.071.078.088s.074-.037.078-.118-.045-.034-.047-.094.051-.047.064-.139-.037-.057-.023-.127.071-.083.135-.1.092-.028.064-.127a.167.167,0,0,1,.034-.176c.031-.047.118-.023.188-.006s.1-.023.071-.047-.061-.057-.139-.127-.088-.09-.061-.115.045-.031.013-.074-.051-.013-.061-.1a.307.307,0,0,1,.041-.223c.041-.041.088-.047.172-.023s.051-.033.013-.061-.1-.017-.112-.047.028-.055.1-.051.1.013.108-.017-.013-.045-.088-.083-.057-.045-.1-.088-.092-.023-.127-.064.017-.055-.01-.1-.051-.045-.051-.118-.033-.089-.061.01c-.006.023,0,.051-.037.061Zm-1.72.27c0-.088-.025-.112-.051-.02s.05.112.05.029Zm-.078,1.431c.118.02.1-.154,0-.163a.084.084,0,0,0,0,.168Zm-.425.478c-.064-.01-.034.051.057.09s.071.017.112.061.006.055.115.078.071.051.192.112.127.013.282.051.127.074.276.141a1.136,1.136,0,0,0,.358.1c.141.023.057-.037.118,0s.159.078.239.127.034-.006.006-.041.047-.034.01-.061-.041-.078-.167-.1-.186-.047-.176-.1.071-.02.167-.017.1-.037-.047-.055a.992.992,0,0,1-.314-.074c-.135-.051-.115-.09-.192-.112s-.034.051-.108.055a.65.65,0,0,1-.239-.047c-.1-.034-.083-.074-.2-.127s-.2-.083-.3-.139-.15-.048-.118.023c.013.031-.01.045-.074.033Zm1.855.739c.028.02.01.045.057.047s0-.031.055-.041.01-.042-.088-.064-.055.042-.027.064Zm.29.108c.078,0,.062-.116-.006-.112-.1.013-.074.117,0,.117Zm.288.057c.094-.013.083-.023-.006-.061s-.109-.078-.163-.031c-.083.078.074.1.167.09Zm.071-.127c-.024-.033-.041-.013-.083-.017s-.033.041.017.055.083.01.118.055.047.027.094.034.09-.071.017-.083a.553.553,0,0,1-.162-.041Zm.382.358c.057.041.057.078.139.074s-.006-.051-.071-.1-.1-.1-.2-.1-.083.048-.017.083c.031.017.088,0,.145.041Zm.337-.148c.1,0,.2-.055.083-.051a1.375,1.375,0,0,1-.317-.074c-.135-.027-.155.037-.112.064a2.615,2.615,0,0,0,.344.061Zm.294-.051c.031-.006.023-.047-.045-.045s-.047.055-.017.078.031-.028.061-.034Zm.083.037c.02.01.025-.047-.006-.041-.052.015-.015.034,0,.045Zm.327,0c.061,0,.039-.045-.067-.051s-.1.031-.055.047a.844.844,0,0,0,.127,0Zm.321-.083c.067-.02,0-.052-.108-.017-.083.031.038.039.106.02Zm-.3.167c-.037.034-.074.037-.172.055s-.145.051-.139.139.1.061.188.023.1-.1.158-.141a.3.3,0,0,1,.206-.02c.078.006.047-.047.1-.047s.127-.045.074-.055a1.032,1.032,0,0,0-.254-.01.219.219,0,0,0-.163.057ZM24.7,51.3c.1.028.145-.02.282.017s.127.055.209.078a.2.2,0,0,0,.209-.064c.031-.051.094-.057.118-.127s-.037-.067-.088,0a.21.21,0,0,1-.2.088c-.092,0-.061-.013-.155-.031a1.541,1.541,0,0,1-.209-.047c-.094-.027-.118.006-.155-.051s-.074-.074-.1-.01-.037.071-.127.083-.057.057-.071.139-.041.09-.067.172a.665.665,0,0,0-.051.2c-.017.127-.006.045-.074.115s-.01.127.027.158.047-.01.1.045.02.139,0,.226,0,.162.078.176.083-.092.088-.182.006-.127.013-.2-.045-.071-.027-.115.051-.09.1-.088.083.055.064.139,0,.094.061.139.051.051.055.118a.056.056,0,0,0,.1.031c.024-.031.037-.041.094-.028s.071,0,.047-.045-.067-.047-.1-.127.024-.094-.031-.139a1.4,1.4,0,0,1-.141-.167c-.051-.057.024-.051.083-.067a.3.3,0,0,0,.127-.051c.037-.031.092-.1.037-.115s-.127.034-.182.028-.074-.028-.112.047-.083.031-.135.013,0-.057-.041-.088-.074-.061-.074-.09a.314.314,0,0,1,.061-.2.271.271,0,0,1,.186.01Zm.372.3a.334.334,0,0,1,.061.041c.041.031.036-.078-.031-.092s-.047.043-.031.05Zm.013.127c.051.01.083-.067,0-.067-.064,0-.053.059,0,.069Zm.1.037c.017.006.031-.066,0-.064s-.02.059,0,.066Zm-.067.49c0-.02-.017-.043-.045,0s.037.018.041,0Zm-.135.094c-.041.006-.034.071-.017.09s.027,0,.047-.031.02.027.01.083.045.047.045.023,0-.041.045-.045-.006-.045-.027-.078.02-.017.033-.041-.009,0-.061-.017a.364.364,0,0,0-.074.013Zm.543-.509c.064,0,.033-.055-.067-.064s-.1.031-.057.047a.531.531,0,0,0,.121.018Zm.226.274c-.027.034.02.09.115.108s.135-.027.1-.051-.045-.071-.127-.074c0,0-.064-.017-.09.017Zm.337-.266c.071.02.083-.052,0-.071s-.075.052,0,.073Zm-.071-.28c-.041,0-.047.037-.017.064s.047,0,.057-.031c0,0,0-.031-.039-.034Zm.057-.088c0,.071.023.067.041.112a.139.139,0,0,0,.071.083c.031.013-.013-.041-.017-.078s-.051-.074-.045-.108,0-.078.051-.057.064.031.092.013.006-.037-.031-.051-.061-.064-.01-.061.055-.022.061-.064c.01-.067.01-.108-.031-.074s-.055.088-.1.115a.8.8,0,0,0-.083.047c-.028.02-.017.041,0,.064a.067.067,0,0,1,0,.057Zm.188-.431c.017-.055-.015-.06-.055,0s.033.056.05,0Zm-.192.243c.045.006.067-.031.067-.083s-.013-.116-.078-.041c-.045.051-.034.118.01.127Zm.543.644c.067.01.051-.076-.006-.067-.109.018-.066.059,0,.069Zm-.268.225c.017.006,0,.031.064.039s.061.013.051-.02.006-.017.067,0a.352.352,0,0,1,.172.108c.067.064.078-.02.024-.083a.218.218,0,0,0-.153-.088.349.349,0,0,0-.155-.017c-.051,0-.108-.01-.2-.006s-.112.031-.067.047.037-.01.057.028,0,.055-.071.047.033.037.094.031.033-.057.071-.074a.054.054,0,0,1,.041-.01Zm.492-.7c.01-.037,0-.076-.034-.041s.019.079.029.042Zm-.179.127c.031.034.067.047.145.031s.055-.074-.013-.074c-.108,0-.163.01-.127.045Zm.037.145c.031.031,0,.031.064.074s.047.037.139.027.083.006.1.083.064.064.141.067a2.206,2.206,0,0,0,.3,0c.057-.01.027-.078.034-.155s-.017-.112-.108-.127-.127-.037-.237-.057-.127.051-.174.057-.074-.017-.1.023-.047.061-.057.034a.12.12,0,0,0-.083-.071c-.045-.013-.047.017-.017.047Zm.636.337c-.051-.041-.074-.02-.127.02s-.031.013-.1-.013-.094.02-.045.047.024,0,.071.034a.182.182,0,0,1,.083.162c0,.09.1,0,.127-.078s.023,0,.094.057.074.017.148.057a1.166,1.166,0,0,0,.374.127.546.546,0,0,1,.364.186.528.528,0,0,1,.2.274c.045.1.013.071-.047.045a.148.148,0,0,0-.2.055c-.071.094-.127.1.01.127s.182.013.237-.037.139-.023.233-.006.1.141.23.179.051.01.115,0,.145.071.192.027a1.178,1.178,0,0,1,.127-.127c.064-.047.061.02.118-.006s.061-.078.083-.141.051-.031.083-.071.041-.041.09-.01a.394.394,0,0,0,.2.041c.083,0,.094.108.254.239s.2.127.29.118a2.544,2.544,0,0,1,.255.013c.047,0-.017.061.114.055.075,0,.092-.05.057-.074a.583.583,0,0,0-.115-.041c-.075-.028-.051-.037-.1-.064s0-.071-.033-.09-.013.023-.127-.01-.071-.061-.176-.151-.108-.071-.155-.172-.033-.1.051-.09.108.02.112-.037-.064-.061-.172-.09-.1-.034-.2-.061-.037-.055-.067-.127-.083-.055-.223-.127a.818.818,0,0,0-.4-.094c-.23-.023-.3-.135-.425-.145A1.469,1.469,0,0,1,28.579,52c-.151-.045-.209-.1-.321-.1s-.083.055-.159.1-.112.01-.151.083a.458.458,0,0,1-.155.145.15.15,0,0,1-.2-.027.913.913,0,0,1-.1-.127c-.027-.047-.055-.048-.083.01-.013.027-.031.057-.083.017Zm.22.841c.074.01.094-.088.055-.186s-.036-.162-.09-.061-.043.238.029.248Zm-.735.112c0,.047-.023.01-.051.083s.045.047.067,0,.074-.057.108-.127,0-.088-.064-.027c0,0-.064.02-.061.067Zm-.276.041c.045.01.028-.064-.02-.064S26.5,53.055,26.542,53.065ZM27.856,51.8c.01.041.061.031.09.017s-.027-.064-.088-.1-.115-.023-.055.02a.117.117,0,0,1,.051.064Zm.1.127c.094,0,.039-.067-.1-.045-.1.017.011.043.106.043Zm2.278-.024c.127-.013.127-.051,0-.051s-.1.047-.013.055m.809-.02c-.1-.047-.167-.018-.135.02s.083,0,.172.027a.909.909,0,0,1,.254.115c.083.055.1.027.108.127s.083.127.083.031,0-.1-.127-.167a3.11,3.11,0,0,0-.354-.148Zm.215.3c-.027-.013-.057.027-.023.071s.031.027.094.055.067-.013.057-.064-.033-.094-.083-.067a.042.042,0,0,1-.047.006Zm-.192.263c-.057.041-.057.031-.148.045s-.2-.006-.323,0-.023.041.041.078.088.01.163.034a.206.206,0,0,0,.186-.02.393.393,0,0,1,.162-.071c.071-.013.041-.074.092-.09s.094.01.088-.027a.083.083,0,0,0-.1-.064c-.088.01-.1.078-.155.118Zm.907.083a.065.065,0,0,0,.1.047q.051-.031-.01-.09c-.041-.041-.045-.047-.1-.112s-.108-.061-.061.045a.255.255,0,0,1,.071.112Zm.4.09c.061.017.115,0,.057-.017s-.037-.027-.127-.074-.139-.047-.057.027a.416.416,0,0,0,.127.062Zm.492.115c.033-.02-.047-.083-.163-.112s-.1-.028-.02.045c.031.028.148.088.182.067Zm-.408.1c.045.041.074.034.074,0s-.055-.083-.118-.1-.115,0-.034.051a.225.225,0,0,1,.078.051Zm.665.031c.1.078.1.023.055-.02s-.033-.033-.071-.1-.078-.127-.083-.006c0,0,0,.051.1.127Zm-.1.083c.051-.013-.006-.078-.127-.071s-.108.047-.01.071a.4.4,0,0,0,.131.005Zm.29.127c.037,0,.037-.051-.028-.064s-.145-.006-.083.037a.434.434,0,0,0,.109.023Zm.789.636a.083.083,0,0,0-.027-.127c-.051-.02-.025-.093-.055.013-.02.074.055.145.083.108Zm.047.108c.037.013.051-.061-.006-.057s-.031.039.006.053Zm.115.179c.047,0,.034-.078-.017-.064s-.032.064.015.06Zm-.023-.347c.034.01.037-.046,0-.041s-.034.027,0,.037Zm.1.5c.041,0,.037-.051,0-.045s-.041.033,0,.037Zm0,.108c.034,0,.033-.051-.01-.045s-.031.033,0,.037Zm1.387-.725c-.1.1.047.067.155,0s.09-.163,0-.118a.321.321,0,0,0-.16.111Zm.254-.243c.02.023.071-.01.153-.083s.083-.106-.034-.057c-.064.028-.139.118-.118.141Zm-2.409,1.332c-.139-.1-.2-.112-.159,0s.167.112.288.167.225.037.1-.034l-.229-.127Zm.382-.057c.027-.023,0-.048-.031-.031s0,.047.025.023Zm.074,1.957a.574.574,0,0,1-.2.141c-.094.045-.039.078.02.057s.037.023-.037.083-.088.064-.027.051a1.131,1.131,0,0,0,.3-.186c.172-.127.078-.071.145-.145s.148-.078.254-.148.074-.1.037-.09-.043.045-.127.094-.155.055-.127.01.013-.1-.028-.057-.055.067-.083.031.017-.041.031-.1-.033-.057-.083-.067-.051-.047-.057.027.051.112.051.151a.209.209,0,0,1-.061.148Zm-.826.609c-.206.108-.452.188-.682.321s-.233.158-.112.141a.5.5,0,0,0,.307-.094c.192-.115.23-.135.23-.135l.182-.108a4.2,4.2,0,0,0,.458-.277c.1-.083.074-.1.017-.083s-.067.045-.055.017-.01-.037-.088.017a.653.653,0,0,1-.263.209Zm-3.435-2.926a1.184,1.184,0,0,1-.112-.061c-.078-.048-.083.051-.151-.02s-.067-.023-.047-.115.006-.083-.037-.148a.764.764,0,0,1-.078-.145c-.034-.074.006-.127-.078-.127s-.083.067-.1.145-.074.071-.083.2a1.248,1.248,0,0,0-.031.28.481.481,0,0,1-.088.355c-.083.148-.148.192-.254.186a.229.229,0,0,1-.182-.1c-.051-.055-.135-.028-.232-.1s-.064-.061-.186-.083a.416.416,0,0,1-.22-.1c-.1-.067-.127-.074-.112-.127s.013-.051.055-.083.01-.083.051-.127a.347.347,0,0,1,.1-.1c.064-.037.112-.061.057-.094s-.064.023-.127.051-.047-.02-.135-.067-.057.02-.172,0a1.373,1.373,0,0,1-.23-.045c-.127-.041-.127-.057-.266-.1a.5.5,0,0,0-.3-.023c-.139.013-.192.057-.167.094s.1,0,.206,0,.017-.045.088-.037a.228.228,0,0,1,.179.071c.045.057-.013.045-.118.041a.48.48,0,0,0-.29.051c-.057.051-.118.09-.083.145s-.041.071-.127.127-.083.027-.145.1-.141.127-.163.055,0-.074-.071-.148-.074-.061-.167-.078-.027.034-.083.051-.02-.047-.083-.01-.027.051-.088.051-.1.033-.083.083-.078.02-.155.051.017.115-.023.167-.051-.028-.127-.051-.013.067,0,.135-.047.074-.09-.006-.067-.074-.135-.037-.045.094-.027.135,0,.064-.078.108-.02.083-.112.145-.071.031-.226.041a1.415,1.415,0,0,0-.321.047c-.1.028-.3-.037-.4,0s-.135.088-.232.088-.055.1-.094.1-.037-.094-.064-.078-.034.083.006.145-.017.071-.031.127.01.112.1.192.115.186.071.172-.1-.037-.045.037a2.724,2.724,0,0,0,.27.314c.118.127.047.078.127.2a.715.715,0,0,0,.163.182.374.374,0,0,1,.045.22c-.01.094-.041,0-.055.037s.031.047.108.061.027.045.1.083a.891.891,0,0,0,.382.047.665.665,0,0,0,.209-.083,1.332,1.332,0,0,1,.382.034c.1.02.182.064.294,0s.037-.074.141-.09.115,0,.182-.031.118.02.351,0a1.126,1.126,0,0,0,.229-.037c.092-.013.223,0,.294-.006a.7.7,0,0,1,.254.057c.1.037.1-.01.148.027s.061.02.155.023.047.013.1.027.067.027.02.041.043.043.083.051.088.074.139.155.057.057.1,0a.34.34,0,0,1,.155-.094.277.277,0,0,0,.159-.09c.071-.074.055-.01.02.064s-.037.027-.047.083-.02.061-.09.071.045.031.112.01.023-.047.061-.074.055.031.074.083,0,.037-.064.057a.2.2,0,0,1-.139,0c-.071-.013-.094.01-.1.045s.045.013.145.01.034,0,.176-.055.071-.013.139.031a.144.144,0,0,1,.074.135c.006.057.088.067.176.088a2.06,2.06,0,0,0,.223.013.4.4,0,0,0,.266,0c.135-.045.151-.1.209-.064a.254.254,0,0,0,.219.071.5.5,0,0,0,.254-.115c.088-.055.159,0,.3-.055s.108-.127.206-.254a1.693,1.693,0,0,1,.347-.327.749.749,0,0,0,.254-.254,1.635,1.635,0,0,0,.162-.254c.047-.1.037-.09,0-.172s.013-.071.01-.186.017-.115.067-.151.057-.078.02-.1-.013.034-.061.083-.263-.1-.321-.148-.02-.078-.071-.158-.115.006-.188-.013-.071-.127-.112-.215-.172-.139-.314-.179-.212-.1-.229-.188,0-.115-.034-.172a.333.333,0,0,1-.074-.223.136.136,0,0,0-.083-.159ZM28,54.189a.046.046,0,0,0,0-.092c-.069-.01-.061.081,0,.085Zm1.384,3.467c-.117-.013-.094.032-.045.076s.018.059.1.127.144.009.225-.036a.382.382,0,0,0,.167-.139c.059-.083-.023-.052-.1-.028a1,1,0,0,1-.346,0Zm.481-.09c.045,0,.037-.055-.009-.055s-.039.047,0,.047ZM15.444,44.647c-.055.431-.09,1.145-.036.827a8.4,8.4,0,0,1,.27-.9c.036-.144-.1-.195-.136-.559C15.542,44.018,15.5,44.216,15.444,44.647Z" transform="translate(-15.644 -33.91)" fill="url(#g)"/><ellipse cx="9.239" cy="7.945" rx="9.239" ry="7.945" transform="translate(2.752 -0.713)" fill="url(#h)" style="mix-blend-mode:screen;isolation:isolate"/><path d="M40.689,57.055c0,4.46-6,8.073-13.4,8.073s-13.4-3.616-13.4-8.073,6-8.073,13.4-8.073S40.689,52.6,40.689,57.055Z" transform="translate(-15.395 -36.457)" fill="url(#i)" style="mix-blend-mode:multiply;isolation:isolate"/></g><path d="M157.083.705H0V-1.061H157.083Z" transform="translate(18.1 8.767)" fill="#1e2971"/><path d="M1.888,21.17.042,26.349a.713.713,0,0,0,.672.952h15.1a.709.709,0,0,0,.174-.022c.473-.118,2.683-.733,3.385-2.077.665-1.281-1.552-3.321-2.233-3.9a.7.7,0,0,0-.439-.167L2.575,20.7a.713.713,0,0,0-.693.473Z" transform="translate(0 -16.193)" fill="#1d2088"/><path d="M227.767,27.879l1.574-4.411a1.09,1.09,0,0,0-1.028-1.457H213.8a1.055,1.055,0,0,0-.266.033c-.553.143-2.659.763-3.34,2.065-.636,1.219,1.344,3.124,2.124,3.809a1.082,1.082,0,0,0,.682.267l13.7.422a1.092,1.092,0,0,0,1.061-.724Z" transform="translate(-35.245 -16.412)" fill="#1d2088"/><g transform="translate(81.031 0)" clip-path="url(#j)"><path d="M104.987,28.206c.054.156-.012.276,0,.395.008.056,0,.123.07.144s.1-.038.123-.088a11.43,11.43,0,0,1,.884-1.34c.185-.236.324-.506.615-.625.157-.062.3-.163.45-.231a2.178,2.178,0,0,0,.973-1.168,4.582,4.582,0,0,1,.8-1.027,3.273,3.273,0,0,1,1.23-.854,3.418,3.418,0,0,0,.788-.525c.818-.6,1.518-1.358,2.389-1.9a2.773,2.773,0,0,0,.462-.395.647.647,0,0,0,.2-.657A2.383,2.383,0,0,1,113.9,19a.383.383,0,0,1,.07-.2c.034-.037.067-.079.123-.057s.044.062.044.1a.73.73,0,0,0,.028.29c.019.047.047.089.1.091s.072-.051.094-.094a6.7,6.7,0,0,0,.507-1.874,5.88,5.88,0,0,1,.532-1.668c.178-.346.3-.722.466-1.076.553-1.168,1.068-2.363,1.585-3.543a.6.6,0,0,1,.511-.788.813.813,0,0,0,.4-.158.337.337,0,0,1,.151-.078,4.621,4.621,0,0,1,2.356.038,3.382,3.382,0,0,1,1.367.951,6.928,6.928,0,0,0,.8.923.777.777,0,0,1,.147.983c-.338.836-.675,1.666-1.045,2.488a7.143,7.143,0,0,1-2.629,3.227,8.641,8.641,0,0,1-1.748.876c-.487.175-.971.369-1.462.549-.123.047-.185.153-.272.237-.993.979-1.953,1.988-3.022,2.9a10.725,10.725,0,0,1-3.613,3.812,7.96,7.96,0,0,1-1.095,1.611c-.154.233-.425.354-.585.586-.214.307-.314.675-.5,1a3.718,3.718,0,0,1-.414.649c-.366.422-.664.9-1.054,1.3a5.457,5.457,0,0,1-.523.542c-.562.44-1.06.966-1.64,1.389a.819.819,0,0,0-.359.42c-.028.1-.1.09-.175.081a15.774,15.774,0,0,1-1.783-.273A14.3,14.3,0,0,0,98,33.851c-.406,0-.587-.05-.661-.353a2.616,2.616,0,0,0-.246-.562.773.773,0,0,1-.047-.787,8.3,8.3,0,0,0,.675-1.99,3.376,3.376,0,0,1,.344-.723.326.326,0,0,1,.191-.142,1.049,1.049,0,0,0,.531-.405,2.948,2.948,0,0,1,.684-.548,6.8,6.8,0,0,0,1.168-1.024c.073-.072-.021-.414-.136-.5s-.188.032-.262.1a7.608,7.608,0,0,1-1.094.777c-.041.025-.088.072-.129.029a.113.113,0,0,1,.012-.158c.4-.394.562-1,1.155-1.222a.648.648,0,0,0,.317-.389c.025-.056.068-.13.144-.1s.031.1.027.153c-.01.113,0,.225.119.269s.148-.075.215-.128a1.961,1.961,0,0,0,.492-.84c.1-.236.168-.514.273-.767a2.151,2.151,0,0,1,.235-.426,1.033,1.033,0,0,0,.19-.856.665.665,0,0,1,.028-.41,3.317,3.317,0,0,0,.185-.809,5.149,5.149,0,0,1,.51-1.258c.094-.2.346-.293.492-.492A5.514,5.514,0,0,0,104.1,19c.173-.464.416-.9.615-1.35.25-.578.588-1.109.865-1.674a2.347,2.347,0,0,1,.431-1.181.984.984,0,0,1,.347-.394c.26-.158.267-.25.048-.468-.035-.035-.072-.065-.113-.1-.147-.146-.13-.216.073-.286.155-.052.4-.127.345-.271-.068-.185-.28,0-.431.012a.365.365,0,0,0-.241.16,3.1,3.1,0,0,1-.6.636.331.331,0,0,0-.107.24c-.007.053,0,.13-.072.134s-.091-.062-.123-.112a.731.731,0,0,1,.184-.788c.437-.492.888-.965,1.311-1.462a3.535,3.535,0,0,0,.747-1.608,2.111,2.111,0,0,1,.425-.975,11.44,11.44,0,0,1,1.088-3.387,13.949,13.949,0,0,1,1.723-2.635,5.233,5.233,0,0,0,.577-.828c.349-.632.533-.788,1.013-.578a1.6,1.6,0,0,0,.518.137,2.762,2.762,0,0,1,2.238,1.521,1.034,1.034,0,0,0,.246.605c.355.352.264.58-.1,1-.113.129-.2.273-.3.408-.212.285-.386.593-.59.882-.307.436-.606.881-.927,1.309a8.386,8.386,0,0,1-.91,1.066c-.267.255-.506.563-.756.84s-.571.533-.856.8a18.546,18.546,0,0,0-2.138,2.224,1.378,1.378,0,0,0-.579.645c-.089.267-.317.45-.424.706A10.349,10.349,0,0,1,106.6,15.94a7.931,7.931,0,0,0-.923,2.321c-.213.777-.318,1.575-.524,2.355-.079.3-.217.576-.315.868a11.024,11.024,0,0,0-.307,1.818,7.355,7.355,0,0,1-.669,2.484,19.515,19.515,0,0,1-.805,1.821c-.088.177-.225.324-.312.492a5.377,5.377,0,0,0-.719,1.721c-.028.2.036.27.225.273a1.1,1.1,0,0,0,.675-.293c.682-.516,1.377-1.012,2.043-1.6Z" transform="translate(-94.276 -2.435)" fill="url(#k)"/></g><path d="M12.962-2.122A15.056,15.056,0,1,1,7.094-.939a15.056,15.056,0,0,1,5.868-1.183Zm0,26.64A11.554,11.554,0,1,0,4.8,21.134a11.554,11.554,0,0,0,8.166,3.383Z" transform="translate(12.155 14.375)" fill="#1e2971"/></g><path d="M-60.886-11.494c.462.392.574.8.644,1.75a.825.825,0,0,0,.84.84,1.029,1.029,0,0,0,1.022-1.12c0-.924-.966-1.54-2.464-1.582C-60.928-11.606-60.956-11.55-60.886-11.494Zm.322,6.09A.991.991,0,0,0-59.556-6.51c0-.756-.84-1.442-2.338-1.428-.084,0-.1.056-.042.112a1.973,1.973,0,0,1,.574,1.54C-61.348-5.726-61.054-5.4-60.564-5.4Zm1.6,2.142c.238-1.386.826-4.228,1.47-7.266.014-.084-.126-.126-.154-.042C-58.7-7.532-59.6-5.152-60.312-3.4c-.2.476-.364.756-.784.756-.14,0-.336-.014-.518-.028-.084,0-.1.14-.014.168a1.446,1.446,0,0,1,1.12,1.33c0,.406-.084,1.106-.084,1.428,0,.532.28.924,1.008.924A1.108,1.108,0,0,0-58.338.07c0-.714-.7-1.526-.7-2.324A5.327,5.327,0,0,1-58.968-3.262ZM-52.78-8.4v-2.492c.378-.21.518-.308.518-.462,0-.2-.168-.336-2.31-.532A34.157,34.157,0,0,1-54.488-8.4h-1.106a5.522,5.522,0,0,0-1.932-.532c.056.658.056,1.218.056,2.072,0,1.5-.112,2.954-.112,3.262,0,.35.1.49.6.49.742,0,1.078-.168,1.078-.56V-4.13h1.4C-54.53-.518-54.6.5-54.6.756c0,.448.126.5.742.5.784,0,1.162-.182,1.162-.588,0-.238-.056-1.19-.084-4.8h1.512v.406c0,.434.14.532.756.532.77,0,1.092-.182,1.092-.574,0-.294-.1-1.736-.1-3.22v-.476c.392-.322.448-.378.448-.5s-.056-.21-.658-.7-.672-.5-.812-.5-.182.042-.882.77Zm0,3.99V-8.12h1.512v3.71Zm-3.122,0V-7.966c.126-.07.224-.112.28-.154h1.134v2.058L-54.5-4.41Zm9.828-4.7a2.323,2.323,0,0,1,.728,1.75c.042.476.224.756.7.756a.856.856,0,0,0,.826-.91,1.4,1.4,0,0,0-.588-1.148c.56-.658,1.064-1.274,1.6-1.918.518-.14.616-.21.616-.434s-.21-.35-2.03-.882a5.82,5.82,0,0,1-.084.644c-.182.938-.336,1.61-.532,2.324A3.481,3.481,0,0,0-46-9.254C-46.088-9.268-46.144-9.156-46.074-9.114Zm3.43,5.586A2.5,2.5,0,0,1-42.28-1.75c-.014.546.238.784.6.784.448,0,.784-.308.784-.98,0-.742-.6-1.47-1.75-1.792V-4.69c.168-.126.224-.2.224-.308,0-.042-.014-.084-.112-.112l.308-.112v.266c-.014.532.238.784.616.784A.813.813,0,0,0-40.8-5.1c0-.8-.7-1.484-1.848-1.764-.084-.014-.14.07-.084.126a1.7,1.7,0,0,1,.476,1.106c-.56.014-1.008.014-1.47,0,.826-1.008,1.428-1.778,2.142-2.786.434-.1.574-.168.574-.336,0-.2-.126-.308-1.75-.98a9.384,9.384,0,0,1-.294.91c-.49,1.344-.854,2.268-1.26,3.178-.28,0-.588-.014-.924-.028s-.728-.042-1.064-.07c.56,1.792.616,1.9.812,1.9.1,0,.154-.07.308-.392.406-.126.77-.252,1.12-.364v1.484a10.391,10.391,0,0,0-1.442-.56,7.588,7.588,0,0,1-.056.882,13.324,13.324,0,0,1-.7,3.4c-.042.07.07.14.126.084A9.743,9.743,0,0,0-44.3-2.59a1.5,1.5,0,0,0,.238-.084c-.014,1.652-.07,3.108-.07,3.416,0,.392.112.532.56.532.84,0,.994-.266.994-.658,0-.308-.07-1.722-.07-3.262Zm6.16,1.26h1.316V-2.1c0,.434.112.518.532.518.826,0,1.12-.266,1.12-.672,0-.308-.084-1.414-.084-2.17v-.434c.42-.336.448-.378.448-.5s-.07-.224-.588-.644c-.672-.532-.728-.546-.868-.546s-.182.042-.756.672h-1.12V-7.434h1.008v.1c0,.35.126.448.56.448.672,0,1.106-.168,1.106-.63,0-.35-.084-1.428-.084-1.974v-.77c.294-.21.322-.252.322-.364s-.028-.182-.518-.546c-.658-.49-.7-.5-.84-.5s-.182.028-.7.658h-3.08a6.539,6.539,0,0,0-1.708-.588c.042.462.042.882.042,2.03,0,1.05-.07,2.324-.07,2.6,0,.35.056.406.462.406.728,0,1.05-.084,1.05-.49v-.378H-38V-5.88h-.966c-.126-.14-.518-.266-1.75-.56.056.826.07,1.344.07,2.212,0,1.05-.07,2.142-.07,2.366,0,.434.1.518.588.518.6,0,.91-.182.91-.728v-.2h1.19c-.014,1.246-.028,1.862-.028,2.044,0,1.078.406,1.316,2.576,1.316,2.422,0,2.8-.322,2.8-.91a1.124,1.124,0,0,0-.21-.616,1.006,1.006,0,0,1-.154-.686,9.727,9.727,0,0,1,.14-1.022c.014-.084-.07-.1-.112-.028A7.288,7.288,0,0,1-33.7-.994c-.336.462-.616.518-1.806.518-.882,0-.98-.07-.98-.49Zm-2.73-.28V-3.934h1.2l-.014,1.386Zm1.2-1.666h-1.2V-5.39a.839.839,0,0,0,.252-.21H-38ZM-35.168-5.6v1.386h-1.316V-5.6Zm-1.316,3.052V-3.934h1.316v1.386Zm-2.45-6.538H-38v1.372h-.938Zm.924-1.652c.014.21.014.56.014,1.372h-.938v-1.2a1.059,1.059,0,0,0,.238-.168Zm2.534,0v1.372h-1.008v-1.092c.168-.112.21-.154.21-.28Zm-1.008,3.024V-9.086h1.008v1.372Zm14.658-3.962a1.411,1.411,0,0,1,.574,1.092c.042.518.266.742.7.742a.786.786,0,0,0,.826-.854c0-.812-1.036-1.148-2.044-1.106C-21.854-11.8-21.9-11.718-21.826-11.676Zm4.3,1.974c.1-.014.154-.07.154-.154s-.056-.154-.6-.574c-.616-.476-.658-.476-.8-.476-.112,0-.154.028-.868,1.232l-2.268.322a5.985,5.985,0,0,1-.434-1.484c.308-.14.406-.224.406-.42,0-.168-.308-.392-2.254-.42a8.836,8.836,0,0,1,.322,1.3,8.094,8.094,0,0,0,.35,1.246l-.658.1c-.294.042-.994.112-1.736.14l.238.462A13.262,13.262,0,0,1-24.15-8.75l.742-.112a6.427,6.427,0,0,0,.952,1.582,5.369,5.369,0,0,0,1.134.966l-.154.168h-4.242a3.692,3.692,0,0,0-1.3-.42c.406-.07.63-.224.63-.518,0-.14-.014-.6-.014-1.036v-.924c.35-.14.406-.224.406-.322s-.126-.21-.6-.294c.308-.322.588-.644.854-.98.5-.084.574-.168.574-.336s-.21-.322-2.072-.924a7.605,7.605,0,0,1-.35.854A12.584,12.584,0,0,1-30.464-7.1c-.07.056.028.154.1.126A11.446,11.446,0,0,0-28-8.4l-.014.224c-.028.434-.084,1.008-.084,1.288,0,.238.14.322.406.336.042.6.042,1.316.042,2.478,0,.966-.084,2.2-.084,2.632,0,.364.084.49.616.49.714,0,1.05-.154,1.12-.532h.28a2.577,2.577,0,0,1-.364.392,10.41,10.41,0,0,1-4.13,2.2c-.084.014-.056.14.028.14A14.947,14.947,0,0,0-24.626-.07c.56,0,.714-.084.714-.266s-.112-.294-1.582-1.148h4.116c.014.182.042.294.14.364-.574-.056-1.274-.07-2.114-.07-.084,0-.1.154-.014.168A7.953,7.953,0,0,1-19.894.784a1.44,1.44,0,0,0,1.022.532A.825.825,0,0,0-18.018.49c0-.574-.546-1.106-1.68-1.386-.252-.056-.532-.112-.854-.154.742-.028,1.008-.224,1.008-.63,0-.35-.1-1.414-.1-2.674v-.812a3.386,3.386,0,0,0,.35-.308,5.4,5.4,0,0,0,.924.084c.672,0,1.008-.308,1.008-.812a.775.775,0,0,0-.252-.56.712.712,0,0,1-.294-.588,6.874,6.874,0,0,1,.224-1.316c.014-.084-.07-.126-.112-.056-.756,1.274-1.022,1.484-1.358,1.484a1.955,1.955,0,0,1-.546-.1A3.4,3.4,0,0,1-21.35-8.484a3.142,3.142,0,0,1-.434-.6ZM-25.984-4.69v-.994a.83.83,0,0,0,.252-.182h4.354V-4.69Zm0,1.456V-4.41h4.606v1.176Zm0,.28h4.606v1.19h-4.606Zm14.658-3.71,3.752-1.19c.1-.028.126-.07.126-.182s-.112-.168-.714-.5c-.686-.392-.77-.406-.868-.406s-.126.084-.728,1.47l-1.568.5v-3.122c.42-.154.588-.266.588-.476s-.364-.364-2.226-.63a36.772,36.772,0,0,1,.07,3.724v.994l-.308.1c-.406.126-.938.28-1.568.42l.28.392A13.463,13.463,0,0,1-13.118-6.1l.224-.07c-.014,1.652-.056,2.772-.056,3.136,0,1.288.476,1.6,2,1.6,2.086,0,2.73-.378,2.73-1.092a.836.836,0,0,0-.266-.658c-.182-.224-.2-.336-.182-.8.014-.322.042-.658.1-1.288.014-.084-.07-.1-.112-.028a14.038,14.038,0,0,1-.826,1.582,1.374,1.374,0,0,1-1.316.6c-.406,0-.5-.1-.5-.49Zm3.626-3.3a15.046,15.046,0,0,1-1.61-.1l.14.476a13.621,13.621,0,0,1,1.47-.1h.532c.1,3.822-.126,5.768-.728,7.21a6.588,6.588,0,0,1-3.766,3.542c-.084.028-.042.168.042.154A7.645,7.645,0,0,0-6.65-1.9c.9-1.442,1.33-3.36,1.316-7.434.28-.112.364-.21.364-.35h1.162a47.743,47.743,0,0,1-.378,7.77c-.2.952-.49,1.148-.91,1.2a7.457,7.457,0,0,1-1.61-.014c-.084,0-.084.126,0,.154A1.915,1.915,0,0,1-5.292.812c.07.28.224.392.56.392A2.153,2.153,0,0,0-2.618-.5c.406-1.246.5-3.024.56-8.582.35-.266.406-.35.406-.462s-.042-.224-.546-.644c-.644-.546-.728-.56-.868-.56s-.2.042-.868.784Zm14.35.952c.476-.518.868-.994,1.428-1.652.5-.2.6-.28.6-.49s-.1-.322-2.534-.784c0,.266-.014.546-.028.714-.07.854-.168,1.526-.28,2.212h-.28c-.112-.182-.546-.378-2.114-.728C3.5-8.918,3.5-8.358,3.5-4.8c0,3.64-.056,5.236-.056,5.46,0,.434.126.518.714.518.8,0,1.148-.182,1.148-.728V-.1h5.068v.63c0,.434.112.518.728.518.952,0,1.274-.266,1.274-.672,0-.308-.084-1.5-.084-6.762v-1.75c.434-.378.462-.406.462-.546s-.028-.2-.714-.728-.756-.56-.924-.56c-.14,0-.2.028-.952.952ZM5.306-.378v-2.7h5.068v2.7Zm5.068-5.53V-3.36H5.306V-5.908Zm0-2.828v2.548H5.306V-8.526a.839.839,0,0,0,.252-.21Zm16.366-2c.434.238.6.532.812,1.246.154.546.406.728.784.728a.828.828,0,0,0,.812-.84c0-.728-.8-1.372-2.38-1.26C26.684-10.864,26.67-10.78,26.74-10.738Zm-7.462,8.2A1.988,1.988,0,0,1,18.256-.6a.944.944,0,0,0-.518.882.88.88,0,0,0,.91.868A1.418,1.418,0,0,0,20.1-.434a3.688,3.688,0,0,0-.672-2.156C19.39-2.66,19.278-2.618,19.278-2.534Zm1.946.364c-.084-.028-.168.056-.112.112A2.51,2.51,0,0,1,21.476-.21c-.014.154-.042.336-.042.476a.783.783,0,0,0,.84.826A1.046,1.046,0,0,0,23.324-.07C23.324-.854,22.736-1.736,21.224-2.17Zm2.6-.154c-.084-.014-.154.056-.1.112A2.865,2.865,0,0,1,24.542.126a.839.839,0,0,0,.9.924A1.052,1.052,0,0,0,26.446-.1C26.446-1.008,25.7-1.96,23.828-2.324Zm2.7.056c-.084,0-.154.1-.084.14A3,3,0,0,1,27.9.21a.885.885,0,0,0,.924.882,1.046,1.046,0,0,0,1.05-1.134C29.876-1.26,28.742-2.114,26.53-2.268Zm3.542-5.18a.137.137,0,0,0,.154-.14c0-.084-.028-.126-.448-.546-.714-.728-.77-.742-.882-.742s-.14.014-.938,1.148H26.334c.028-.294.056-.6.056-.91.014-1.008.042-1.582.042-2.226.378-.182.448-.28.448-.434,0-.2-.154-.364-2.1-.574.042.462.07,1.008.07,2.436a13.124,13.124,0,0,1-.112,1.708H23.576c.126-.294.252-.6.364-.924.49-.35.518-.392.518-.5,0-.14-.042-.224-.616-.686-.644-.518-.714-.56-.854-.56s-.21.056-.91.882h-1.19c.252-.378.49-.77.7-1.162.434-.126.5-.182.5-.35s-.252-.322-2.282-.854a4.006,4.006,0,0,1-.154.9,12.3,12.3,0,0,1-2.548,5.166c-.056.056.028.14.1.1a9.878,9.878,0,0,0,1.4-1.106,1.265,1.265,0,0,1,.42.9,3.322,3.322,0,0,1,.042.63.625.625,0,0,0,.672.644.687.687,0,0,0,.448-.168A9.393,9.393,0,0,1,17.08-2.212c-.07.042-.014.154.07.126a9.822,9.822,0,0,0,6.3-5.362H24.7c-.42,2.6-1.722,4.4-3.878,5.082-.084.028-.042.168.042.154a6.02,6.02,0,0,0,5.432-5.236h.028A6.369,6.369,0,0,0,26.866-4.2a4.161,4.161,0,0,0,1.582,1.806.768.768,0,0,0,.406.154.279.279,0,0,0,.238-.154,2.745,2.745,0,0,1,1.316-1.232c.084-.028.1-.1.014-.126a7.593,7.593,0,0,1-2.464-1.4,3.894,3.894,0,0,1-1.512-2.3Zm-11.326.49a15.749,15.749,0,0,0,1.218-1.316.881.881,0,0,1,.35.63,3.207,3.207,0,0,1,.042.546.521.521,0,0,0,.574.588.619.619,0,0,0,.336-.1,11.9,11.9,0,0,1-.812,1.4,1.069,1.069,0,0,0,.07-.378C20.524-6.244,19.852-6.846,18.746-6.958ZM22.232-9.24a15.017,15.017,0,0,1-.56,1.694c-.084-.49-.616-.868-1.568-.91.21-.252.406-.518.588-.784ZM45.64-7.91a.122.122,0,0,0,.14-.126c0-.126-.07-.2-.574-.7-.742-.756-.784-.77-.924-.77s-.168.028-1.12,1.316H41.776v-2.716c.434-.2.56-.294.56-.462,0-.224-.252-.35-2.324-.49a18.517,18.517,0,0,1,.112,2.492V-8.19H38.472a13.407,13.407,0,0,1-1.568-.1l.14.476a8.847,8.847,0,0,1,1.428-.1h.84a15.5,15.5,0,0,1-2.884,6.384V-7.07c.35-.14.434-.238.434-.364,0-.154-.154-.28-.966-.588a19.194,19.194,0,0,0,1.358-2.324c.5-.14.63-.252.63-.448s-.252-.364-2.17-1.092a9.144,9.144,0,0,1-.322,1.344A22.911,22.911,0,0,1,32.844-4.83c-.056.07.056.168.126.112A12.061,12.061,0,0,0,34.8-6.566l-.042,4.088c-.028,1.946-.084,2.9-.084,3.262s.084.476.616.476c.756,0,1.162-.21,1.162-.6,0-.238-.014-.686-.014-1.946a10.935,10.935,0,0,0,3.71-4.242L40.1-2.436h-.35a12,12,0,0,1-1.666-.1l.14.476a12.787,12.787,0,0,1,1.526-.1h.336C40.054-.49,40.026.378,40.026.714c0,.406.1.518.742.518.854,0,1.092-.182,1.092-.6,0-.308-.028-1.008-.07-2.786H43.3c.126,0,.168-.056.168-.154s-.042-.14-.35-.546c-.462-.616-.5-.616-.616-.616s-.126.028-.714,1.036L41.706-7.91h.056a14.6,14.6,0,0,0,1.386,4.676,7.241,7.241,0,0,0,1.386,1.89.5.5,0,0,0,.322.182.4.4,0,0,0,.308-.224A2.886,2.886,0,0,1,46.4-2.548c.084-.028.1-.112.028-.154a9.165,9.165,0,0,1-2.072-1.6A9.3,9.3,0,0,1,42.028-7.91Zm3.57,4.4a1.992,1.992,0,0,1-.294,1.694,1.43,1.43,0,0,0-.308.868.6.6,0,0,0,.6.63.934.934,0,0,0,.854-1.05,3.672,3.672,0,0,0-.714-2.184C49.294-3.626,49.2-3.6,49.21-3.514ZM51.3-1.666a1.744,1.744,0,0,0-1.218-1.666c-.084-.028-.126,0-.07.07A1.766,1.766,0,0,1,50.3-2.114c-.014.308-.042.49-.042.644,0,.364.168.574.434.574C51.03-.9,51.3-1.218,51.3-1.666ZM51.45-2c.042.364.2.56.448.56.336,0,.546-.266.546-.644,0-.588-.392-1.274-1.54-1.47-.084-.014-.14.028-.07.084A2.084,2.084,0,0,1,51.45-2Zm2.968-5.012c-.49-.476-.532-.49-.63-.49s-.14.014-.784.882h-.2V-8.47h1.778c.112,0,.168-.042.168-.14s-.028-.14-.434-.532c-.49-.476-.532-.49-.63-.49s-.14.014-.784.882h-.1v-1.582c.2-.056.28-.14.28-.266h1.834a.126.126,0,0,0,.14-.14c0-.084-.014-.126-.434-.518-.546-.518-.588-.532-.7-.532s-.154.028-.868.91h-2c-.042-.168-.322-.28-1.792-.644.056.77.056,1.19.056,3.388,0,1.848-.1,3.71-.1,3.99,0,.378.07.518.546.518.6,0,.924-.168.938-.574H53.27c0,.308,0,.616-.014.9-.21-.322-.7-.532-1.554-.532-.084,0-.112.056-.042.1a1.743,1.743,0,0,1,.882,1.12c.1.28.2.364.434.364a.344.344,0,0,0,.21-.07,7.465,7.465,0,0,1-.224,1.246.734.734,0,0,1-.63.616,10.333,10.333,0,0,1-1.666.042c-.084,0-.084.112,0,.14.686.252.966.574,1.078,1.05.112.42.182.476.518.476A1.934,1.934,0,0,0,54.068.112a9.818,9.818,0,0,0,.63-3.7,1.952,1.952,0,0,0,.35-.35c-.014.448-.042.672-.042.84,0,.35.112.406.462.406.56,0,.882-.112.882-.518v-.266h.672a5.162,5.162,0,0,1-3.57,4.606c-.084.028-.042.154.042.14C56.168.9,58.086-.588,58.52-3.472h.042a6.59,6.59,0,0,0,.532,2.8,4.416,4.416,0,0,0,1.288,1.708.417.417,0,0,0,.21.07c.112,0,.14-.014.252-.224a2.5,2.5,0,0,1,1.19-1.3.079.079,0,0,0,0-.154,6.112,6.112,0,0,1-2.156-1.274,3.832,3.832,0,0,1-1.134-1.624h.672v.112c0,.35.126.448.56.448.6,0,1.022-.168,1.022-.63,0-.35-.084-.98-.084-1.484v-.21c.378-.308.392-.336.392-.448s-.028-.168-.532-.56c-.588-.462-.644-.476-.77-.476s-.168.028-.742.742H58.6V-7.07c.238-.14.294-.21.294-.322h.77c.1,0,.154-.056.154-.126s-.028-.126-.378-.5c-.42-.448-.462-.462-.546-.462s-.126.014-.672.812h-.868a10.747,10.747,0,0,1-1.47-.1,10.153,10.153,0,0,0,2.422-3.024A7.436,7.436,0,0,0,59.6-8.05a4.518,4.518,0,0,0,1.218,1.092.306.306,0,0,0,.2.07c.084,0,.126-.042.182-.168A2.413,2.413,0,0,1,62.2-8.3c.07-.042.084-.112,0-.14a7.865,7.865,0,0,1-1.792-.77,6.043,6.043,0,0,1-1.876-1.708c.294-.056.406-.126.406-.28,0-.2-.252-.322-2.156-.8a8.858,8.858,0,0,1-.35,1.358,11.244,11.244,0,0,1-1.946,3.7Zm1.568-.28a10.6,10.6,0,0,1,1.092-.1c.028.28.028.658.042,1.414h-.56A4.252,4.252,0,0,0,55.034-6.5c.042.462.042.8.042,1.5,0,.28,0,.518-.014.714a3.506,3.506,0,0,0-.462-.448c-.532-.462-.6-.49-.728-.49s-.168.028-.742.742h-.322V-6.342h1.876c.112,0,.168-.042.168-.14,0-.07-.014-.112-.252-.35a6.664,6.664,0,0,0,1.26-.9Zm3.43,1.6v1.946h-.868A7.817,7.817,0,0,0,58.6-4.76V-5.7ZM56.35-3.752V-5.544a1.427,1.427,0,0,0,.224-.154h.546v.812a9.922,9.922,0,0,1-.056,1.134Zm-4.928-5h-.714v-1.68c.112-.07.182-.126.238-.168h.448c.028.294.028.588.028.868Zm-.714,2.408h.714V-4.48h-.714Zm.714-.28h-.714V-8.47h.714ZM-69.832,13.546c.9-.378,1.582-.686,2.366-1.078a4.91,4.91,0,0,1,1.3-.434.481.481,0,0,0,.406-.518c0-.308-.224-.588-.9-1.176s-.938-.728-1.078-.728a.561.561,0,0,0-.392.14,1.652,1.652,0,0,1-.518.126c-2,.238-3.556.378-5.712.6-.322.028-.476.056-.756.056a1.765,1.765,0,0,1-1.036-.392.288.288,0,0,0-.126-.07c-.042,0-.056.042-.07.112a2.986,2.986,0,0,0-.042.518,1.323,1.323,0,0,0,.476.812c.49.49.714.616.924.616a.834.834,0,0,0,.392-.14,2.3,2.3,0,0,1,.714-.238,38.466,38.466,0,0,1,5.32-.728c.112,0,.168.028.168.1a.408.408,0,0,1-.084.21,9.247,9.247,0,0,1-1.512,1.89,3.639,3.639,0,0,0-.77-.518,2.477,2.477,0,0,0-1.036-.406c-.126,0-.294.056-.728.336-.056.042-.084.056-.084.084s.014.042.1.084c.532.28.658.448.658.728a10.465,10.465,0,0,1-.714,3.15,9.271,9.271,0,0,1-2.688,3.836.1.1,0,0,0-.042.084c0,.042.042.07.1.07a.152.152,0,0,0,.07-.014,8.318,8.318,0,0,0,3.654-3.052,11.1,11.1,0,0,0,1.33-3.318,1.237,1.237,0,0,1,.182-.42A.554.554,0,0,0-69.832,13.546Zm16.17-3.738c-.112,0-.154.014-.168.056s.042.07.112.112a3.347,3.347,0,0,1,1.092,1.484c.14.35.336.476.574.476a.607.607,0,0,0,.658-.616,1.225,1.225,0,0,0-.7-1.036A3.23,3.23,0,0,0-53.662,9.808Zm1.386-1.19c-.1,0-.154.014-.154.056s.028.084.112.126a3.266,3.266,0,0,1,1.162,1.274c.154.322.308.462.588.462a.584.584,0,0,0,.616-.63c0-.392-.2-.658-.728-.952A3.807,3.807,0,0,0-52.276,8.618Zm-3.528,5.1a4.835,4.835,0,0,1,1.918,1.722,1.206,1.206,0,0,0,.938.63.9.9,0,0,0,.91-.938c0-.994-1.316-1.834-3.766-1.834,0-.532,0-1.078.014-1.624.014-.9.112-1.022.2-1.148a.66.66,0,0,0,.14-.35c0-.182-.126-.35-.644-.714a2.155,2.155,0,0,0-.98-.49,2.287,2.287,0,0,0-.882.308c-.1.056-.112.07-.112.1s.028.07.112.112c.49.28.644.49.658.938.014.616.014,1.554.014,3.318,0,1.694-.028,3.514-.084,4.2a1.342,1.342,0,0,1-.126.56.832.832,0,0,0-.1.364,1.967,1.967,0,0,0,.252.98c.28.56.574.742.938.742s.644-.294.644-.854c0-1.106-.014-1.9-.028-3.318C-55.8,15.072-55.8,14.61-55.8,13.714Zm18.242-2.8c-.112,0-.154.028-.154.07s.042.07.112.112a3.738,3.738,0,0,1,1.19,1.26c.21.378.336.5.616.5a.553.553,0,0,0,.546-.6,1.112,1.112,0,0,0-.756-.994A3.626,3.626,0,0,0-37.562,10.914Zm1.134-1.148c0,.056.014.07.112.112a2.666,2.666,0,0,1,1.2,1.148c.182.322.308.42.574.42a.541.541,0,0,0,.546-.588c0-.49-.252-.714-.742-.952a2.97,2.97,0,0,0-1.176-.224C-36.3,9.682-36.428,9.724-36.428,9.766ZM-34.16,17.9a.712.712,0,0,0,.8-.728,2.329,2.329,0,0,0-1.386-1.736c-.084-.028-.21-.07-.476-.168a28.583,28.583,0,0,1-4.578-2.73,1.859,1.859,0,0,0-.91-.406,1.3,1.3,0,0,0-.84.364c-.714.588-1.582,1.3-2.772,2.226a.57.57,0,0,1-.392.168,1.189,1.189,0,0,1-.6-.224c-.1-.056-.1-.056-.126-.056s-.056.028-.07.1a1.208,1.208,0,0,0-.028.35.944.944,0,0,0,.448.742c.728.588,1.05.714,1.316.714.21,0,.322-.084.6-.406.9-1.022,1.484-1.75,2.142-2.408a.993.993,0,0,1,.364-.28c.14,0,.364.154.672.42,1.064.924,2.338,2.044,3.346,2.8C-35.28,17.676-34.65,17.9-34.16,17.9Zm9.6-5.376c0-1.008-1.176-1.764-3.108-1.764a4.308,4.308,0,0,0-.462.028c-.07.014-.1.056-.1.084a.077.077,0,0,0,.042.07,4.558,4.558,0,0,1,1.736,1.89c.28.476.518.7.98.7A.908.908,0,0,0-24.556,12.524Zm-1.68,6.706a.6.6,0,0,0,.378-.14c.168-.112.322-.238.546-.392a25.245,25.245,0,0,0,7.392-7.21.084.084,0,0,0,.014-.056.1.1,0,0,0-.1-.1.173.173,0,0,0-.112.056,30.793,30.793,0,0,1-7.854,5.684,1.927,1.927,0,0,1-.784.224,1.488,1.488,0,0,1-.91-.322c-.084-.056-.126-.084-.154-.084-.056,0-.07.014-.084.112-.014.182-.028.434-.028.56a1.159,1.159,0,0,0,.294.574,7.2,7.2,0,0,0,.938.91A.651.651,0,0,0-26.236,19.23Zm14.98,1.4a7.011,7.011,0,0,0,3.528-3.178,9.228,9.228,0,0,0,.91-3.108c.6-.042,1.19-.07,1.694-.084.448,0,.77,0,1.148.028a9.625,9.625,0,0,0,1.022.084c.448,0,.63-.126.63-.462,0-.308-.154-.5-.812-.84a1.82,1.82,0,0,0-.91-.308,1.284,1.284,0,0,0-.448.168,2.219,2.219,0,0,1-.882.2c-.378.028-.84.084-1.344.14.014-.308.014-.42.042-.63a.819.819,0,0,0,.056-.266c0-.252-.07-.35-.714-.7a2.5,2.5,0,0,0-.336-.168c.588-.154,1.134-.308,1.624-.49.238-.084.56-.2.84-.28s.364-.2.364-.392-.14-.392-.854-.84a2.667,2.667,0,0,0-1.176-.532,1.145,1.145,0,0,0-.294.042c-.084.028-.084.042-.084.07s0,.028.042.084a.664.664,0,0,1,.2.406c0,.1-.056.168-.224.28a20.854,20.854,0,0,1-4.886,2.156.094.094,0,0,0-.056.1.1.1,0,0,0,.1.1,30.707,30.707,0,0,0,3.43-.476,1.124,1.124,0,0,1,.294.924c0,.266,0,.532-.014.784-.938.112-1.862.224-2.618.308a10.437,10.437,0,0,1-1.218.112,1.787,1.787,0,0,1-1.036-.238c-.07-.042-.07-.042-.1-.042s-.042.028-.056.07a1.449,1.449,0,0,0-.084.336c0,.084.084.252.462.616.5.5.714.644.938.644a.665.665,0,0,0,.35-.1,2.274,2.274,0,0,1,.756-.252c.8-.168,1.68-.294,2.534-.392a11.141,11.141,0,0,1-.518,2.478,7.913,7.913,0,0,1-2.38,3.514.084.084,0,0,0-.042.084c0,.028.028.056.1.056ZM7.588,13.574a2.62,2.62,0,0,1-.056-.518.778.778,0,0,1,.042-.21.768.768,0,0,0,.07-.238c0-.168-.21-.308-.7-.532a2.066,2.066,0,0,0-.77-.224,1.613,1.613,0,0,0-.77.448c-.042.042-.084.084-.084.126,0,.07.042.1.154.126.49.14.574.21.714.7.126.448.252.9.378,1.358-.476.126-.966.266-1.456.392a7.383,7.383,0,0,1-.9.2,1.056,1.056,0,0,1-.5-.182.225.225,0,0,0-.154-.056c-.056,0-.07.042-.07.154a1.012,1.012,0,0,0,.476.966c.378.294.574.406.784.406A.318.318,0,0,0,5,16.36a.513.513,0,0,1,.224-.14q.777-.336,1.6-.63c.266,1.05.518,2.086.728,3.066a2.527,2.527,0,0,1,.1.6,1.659,1.659,0,0,0,.042.336c.252.616.6,1.022,1.064,1.022a.533.533,0,0,0,.5-.588,3.15,3.15,0,0,0-.2-1.008c-.35-1.26-.714-2.548-1.05-3.836.756-.252,1.526-.476,2.254-.686a.208.208,0,0,1,.084-.014c.042,0,.07.014.07.056a.208.208,0,0,1-.014.084A9.306,9.306,0,0,1,9.38,16.4a.2.2,0,0,0-.028.084c0,.042.014.084.07.084a.329.329,0,0,0,.112-.028,21.006,21.006,0,0,0,2-1.246,3.258,3.258,0,0,1,.658-.308c.322-.126.378-.21.378-.434s-.182-.42-.728-.854-.8-.574-.966-.574c-.14,0-.238.112-.336.21a.681.681,0,0,1-.294.2c-.826.252-1.652.49-2.478.742Zm19.88.378a3.662,3.662,0,0,0-.532.042c-.364.042-.5.056-.854.084-1.918.126-3.08.21-5.5.336-.294.014-.574.028-.91.028a1.342,1.342,0,0,1-1.022-.392c-.056-.042-.056-.042-.084-.042s-.056.028-.07.1a3.1,3.1,0,0,0-.056.532c0,.2.182.476.686,1.008a1.233,1.233,0,0,0,.756.476.777.777,0,0,0,.406-.112,1.45,1.45,0,0,1,.7-.182c2.044-.224,4.2-.336,5.432-.336.546,0,1.456.014,1.806.014.462,0,.826-.182.826-.616,0-.294-.168-.546-.7-.77A2.6,2.6,0,0,0,27.468,13.952Zm10.164-3.808c-.056,0-.1.014-.1.056s0,.028.028.056a3.9,3.9,0,0,1,.91,2.282c.056.574.364.826.84.826a.945.945,0,0,0,.9-1.022c0-1.092-.98-1.918-2.534-2.2ZM37.2,13.336c0-1.12-1.2-2-2.73-2.17-.084,0-.112.028-.112.07s0,.028.028.056a3.473,3.473,0,0,1,1.05,2.128c.112.714.434.91.84.91A.933.933,0,0,0,37.2,13.336Zm7.378-1.666c0-.238-.154-.42-.8-.882a3.071,3.071,0,0,0-1.246-.63,1.725,1.725,0,0,0-.686.2c-.084.042-.084.056-.084.084s0,.042.084.1c.42.28.574.56.574.77a2.494,2.494,0,0,1-.2.924,20.562,20.562,0,0,1-5.418,7.98.142.142,0,0,0-.056.1.1.1,0,0,0,.112.1.2.2,0,0,0,.1-.028c2.674-1.358,4.886-3.29,6.986-7.588a2.131,2.131,0,0,1,.406-.644A.64.64,0,0,0,44.576,11.67Zm12.152,1.876c.9-.378,1.582-.686,2.366-1.078a4.91,4.91,0,0,1,1.3-.434.481.481,0,0,0,.406-.518c0-.308-.224-.588-.9-1.176s-.938-.728-1.078-.728a.561.561,0,0,0-.392.14,1.652,1.652,0,0,1-.518.126c-2,.238-3.556.378-5.712.6-.322.028-.476.056-.756.056a1.765,1.765,0,0,1-1.036-.392.288.288,0,0,0-.126-.07c-.042,0-.056.042-.07.112a2.986,2.986,0,0,0-.042.518,1.323,1.323,0,0,0,.476.812c.49.49.714.616.924.616a.834.834,0,0,0,.392-.14,2.3,2.3,0,0,1,.714-.238A38.466,38.466,0,0,1,58,11.026c.112,0,.168.028.168.1a.408.408,0,0,1-.084.21,9.247,9.247,0,0,1-1.512,1.89,3.639,3.639,0,0,0-.77-.518,2.477,2.477,0,0,0-1.036-.406c-.126,0-.294.056-.728.336-.056.042-.084.056-.084.084s.014.042.1.084c.532.28.658.448.658.728A10.464,10.464,0,0,1,54,16.682a9.271,9.271,0,0,1-2.688,3.836.1.1,0,0,0-.042.084c0,.042.042.07.1.07a.152.152,0,0,0,.07-.014,8.318,8.318,0,0,0,3.654-3.052,11.1,11.1,0,0,0,1.33-3.318,1.237,1.237,0,0,1,.182-.42A.554.554,0,0,0,56.728,13.546Zm18.2.406a3.662,3.662,0,0,0-.532.042c-.364.042-.5.056-.854.084-1.918.126-3.08.21-5.5.336-.294.014-.574.028-.91.028a1.342,1.342,0,0,1-1.022-.392c-.056-.042-.056-.042-.084-.042s-.056.028-.07.1a3.1,3.1,0,0,0-.056.532c0,.2.182.476.686,1.008a1.233,1.233,0,0,0,.756.476.777.777,0,0,0,.406-.112,1.45,1.45,0,0,1,.7-.182c2.044-.224,4.2-.336,5.432-.336.546,0,1.456.014,1.806.014.462,0,.826-.182.826-.616,0-.294-.168-.546-.7-.77A2.6,2.6,0,0,0,74.928,13.952Z" transform="translate(-16469.764 -5240.23)" fill="#383838"/><path d="M-67.792-11c2.717-.361,5.681-.608,6.422-.608.228,0,.3.038.3.19a2.77,2.77,0,0,1-.133.741C-62.7-5.6-64.79-2.185-67.564.19c-.076.076-.1.114-.1.171a.13.13,0,0,0,.133.133.234.234,0,0,0,.133-.038c3.648-1.862,6.365-4.674,8.569-10.583a1.328,1.328,0,0,1,.589-.836.6.6,0,0,0,.323-.551c0-.3-.342-.684-1.159-1.349-.76-.57-1.083-.76-1.349-.76a.643.643,0,0,0-.437.171,1.44,1.44,0,0,1-.817.3c-1.938.171-4.465.4-7.068.646a2.857,2.857,0,0,0-1.406-.513,2.291,2.291,0,0,0-.684.133c-.114.038-.152.076-.152.114,0,.057,0,.057.114.152a2.3,2.3,0,0,1,.817,1.026,5.5,5.5,0,0,1,.152,1.349c.019.589.019.741.019,1.786,0,.418-.019.76-.019.931a2.036,2.036,0,0,0,.551,1.083,1.06,1.06,0,0,0,.741.361.745.745,0,0,0,.646-.323c.19-.228.266-.494.266-1.292C-67.7-8.018-67.754-9.443-67.792-11Zm23.731.855c0-1.368-1.6-2.394-4.218-2.394a5.846,5.846,0,0,0-.627.038c-.1.019-.133.076-.133.114a.1.1,0,0,0,.057.1,6.186,6.186,0,0,1,2.356,2.565c.38.646.7.95,1.33.95A1.232,1.232,0,0,0-44.061-10.146Zm-2.28,9.1a.811.811,0,0,0,.513-.19c.228-.152.437-.323.741-.532a34.261,34.261,0,0,0,10.032-9.785.114.114,0,0,0,.019-.076.13.13,0,0,0-.133-.133.235.235,0,0,0-.152.076A41.791,41.791,0,0,1-45.98-3.971a2.616,2.616,0,0,1-1.064.3A2.02,2.02,0,0,1-48.279-4.1c-.114-.076-.171-.114-.209-.114-.076,0-.1.019-.114.152-.019.247-.038.589-.038.76a1.573,1.573,0,0,0,.4.779,9.777,9.777,0,0,0,1.273,1.235A.884.884,0,0,0-46.341-1.045ZM-20.615-6c0,1.216.019,2.964.019,3.629,0,.3-.114.437-.513.437A12.057,12.057,0,0,1-23.5-2.185c-.095,0-.114.038-.114.1,0,.038.019.1.114.152.7.437,1.083.741,1.444,1.007A4.171,4.171,0,0,1-21,.171.9.9,0,0,0-20.216.7,1.483,1.483,0,0,0-19-.114,3.148,3.148,0,0,0-18.449-1.8c-.057-.836-.076-1.368-.152-3.325-.038-1.1-.076-2.489-.095-4.161.4-.019.741-.038,1.007-.038.532,0,1.121.019,1.729.057.57.038,1.064.057,1.349.057a.582.582,0,0,0,.57-.646c0-.4-.152-.684-.817-1.026a3,3,0,0,0-1.273-.437,1.23,1.23,0,0,0-.608.209,2.829,2.829,0,0,1-.969.266c-.551.076-.7.1-.988.133v-.513c0-1.026.038-1.33.228-1.558a.8.8,0,0,0,.209-.494c0-.247-.171-.475-.95-1.026a2.33,2.33,0,0,0-1.292-.551,3.221,3.221,0,0,0-1.235.608c-.1.076-.133.114-.133.152,0,.057.057.076.152.114.646.247.988.494,1.007,1.064l.019,2.432c-1.14.133-2.28.247-3.325.342-1.33.114-2.166.19-2.641.19a2.375,2.375,0,0,1-1.444-.456.253.253,0,0,0-.133-.057c-.038,0-.057,0-.095.133a2.233,2.233,0,0,0-.1.551c0,.266.323.627.627.931.608.589.931.836,1.273.836a1.371,1.371,0,0,0,.608-.152,4.264,4.264,0,0,1,1.007-.3c.931-.171,1.9-.323,2.85-.456a21.969,21.969,0,0,1-7.277,7.372c-.1.057-.114.1-.114.152,0,.076.038.1.171.1a16.476,16.476,0,0,0,8.7-6.213Zm25.688-2.2a4.97,4.97,0,0,0-.722.057c-.494.057-.684.076-1.159.114-2.6.171-4.18.285-7.467.456-.4.019-.779.038-1.235.038A1.821,1.821,0,0,1-6.9-8.075c-.076-.057-.076-.057-.114-.057s-.076.038-.095.133a4.2,4.2,0,0,0-.076.722c0,.266.247.646.931,1.368a1.673,1.673,0,0,0,1.026.646,1.054,1.054,0,0,0,.551-.152,1.968,1.968,0,0,1,.95-.247c2.774-.3,5.7-.456,7.372-.456.741,0,1.976.019,2.451.019.627,0,1.121-.247,1.121-.836,0-.4-.228-.741-.95-1.045A3.528,3.528,0,0,0,5.073-8.208ZM16.3-13.053a5.835,5.835,0,0,1,2.166,2.09,1.4,1.4,0,0,0,1.159.779,1.144,1.144,0,0,0,1.216-1.273c0-1.235-1.463-1.919-3.61-1.919a7.58,7.58,0,0,0-.912.057c-.114.019-.152.057-.152.114S16.188-13.11,16.3-13.053Zm2.679,5.624c0-1.159-1.254-1.881-3.23-1.938H15.39a4.008,4.008,0,0,0-.893.076c-.1.019-.133.057-.133.133,0,.057.038.114.152.171a4.718,4.718,0,0,1,1.957,1.8c.418.665.779.912,1.349.912A1.078,1.078,0,0,0,18.981-7.429ZM17.841-.551a.878.878,0,0,0,.646-.266c5.054-3.23,8.265-6.042,11.1-9.861a.171.171,0,0,0,.019-.1.127.127,0,0,0-.114-.133.263.263,0,0,0-.171.1A57.125,57.125,0,0,1,18.3-3.458a2.392,2.392,0,0,1-1.007.3,1.685,1.685,0,0,1-1.254-.684q-.114-.114-.171-.114c-.038,0-.076.057-.1.133a4.337,4.337,0,0,0-.152,1.045c0,.247.19.608.741,1.2C17.157-.8,17.461-.551,17.841-.551ZM42.5-8.721a3.555,3.555,0,0,1-.076-.7,1.056,1.056,0,0,1,.057-.285,1.043,1.043,0,0,0,.1-.323c0-.228-.285-.418-.95-.722a2.8,2.8,0,0,0-1.045-.3,2.189,2.189,0,0,0-1.045.608c-.057.057-.114.114-.114.171,0,.1.057.133.209.171.665.19.779.285.969.95.171.608.342,1.216.513,1.843-.646.171-1.311.361-1.976.532a10.02,10.02,0,0,1-1.216.266,1.433,1.433,0,0,1-.684-.247.306.306,0,0,0-.209-.076c-.076,0-.1.057-.1.209a1.373,1.373,0,0,0,.646,1.311c.513.4.779.551,1.064.551a.432.432,0,0,0,.342-.171.7.7,0,0,1,.3-.19q1.054-.456,2.166-.855c.361,1.425.7,2.831.988,4.161a3.43,3.43,0,0,1,.133.817,2.252,2.252,0,0,0,.057.456c.342.836.817,1.387,1.444,1.387a.724.724,0,0,0,.684-.8A4.275,4.275,0,0,0,44.5-1.33c-.475-1.71-.969-3.458-1.425-5.206,1.026-.342,2.071-.646,3.059-.931a.282.282,0,0,1,.114-.019c.057,0,.1.019.1.076a.282.282,0,0,1-.019.114,12.63,12.63,0,0,1-1.387,2.413.27.27,0,0,0-.038.114c0,.057.019.114.1.114a.447.447,0,0,0,.152-.038,28.508,28.508,0,0,0,2.717-1.691,4.422,4.422,0,0,1,.893-.418c.437-.171.513-.285.513-.589s-.247-.57-.988-1.159c-.722-.57-1.083-.779-1.311-.779-.19,0-.323.152-.456.285a.925.925,0,0,1-.4.266c-1.121.342-2.242.665-3.363,1.007Zm20.786-1.425c0-1.368-1.6-2.394-4.218-2.394a5.846,5.846,0,0,0-.627.038c-.1.019-.133.076-.133.114a.1.1,0,0,0,.057.1,6.186,6.186,0,0,1,2.356,2.565c.38.646.7.95,1.33.95A1.232,1.232,0,0,0,63.289-10.146Zm-2.28,9.1a.811.811,0,0,0,.513-.19c.228-.152.437-.323.741-.532A34.261,34.261,0,0,0,72.3-11.552a.114.114,0,0,0,.019-.076.13.13,0,0,0-.133-.133.235.235,0,0,0-.152.076A41.791,41.791,0,0,1,61.37-3.971a2.616,2.616,0,0,1-1.064.3A2.02,2.02,0,0,1,59.071-4.1c-.114-.076-.171-.114-.209-.114-.076,0-.1.019-.114.152-.019.247-.038.589-.038.76a1.573,1.573,0,0,0,.4.779,9.777,9.777,0,0,0,1.273,1.235A.884.884,0,0,0,61.009-1.045Z" transform="translate(-16469.764 -5145.862)" fill="#383838"/></g></svg>