<svg xmlns="http://www.w3.org/2000/svg" xmlns:xlink="http://www.w3.org/1999/xlink" viewBox="0 0 186.018 107.613"><defs><linearGradient id="a" x1="0.5" y1="1" x2="0.5" gradientUnits="objectBoundingBox"><stop offset="0" stop-color="#1e2971"/><stop offset="0.034" stop-color="#1d357c"/><stop offset="0.125" stop-color="#1c5397"/><stop offset="0.226" stop-color="#1c6bad"/><stop offset="0.34" stop-color="#1b7ebe"/><stop offset="0.475" stop-color="#1b8bca"/><stop offset="0.648" stop-color="#1b92d1"/><stop offset="1" stop-color="#1b95d4"/></linearGradient><radialGradient id="b" cx="0.492" cy="0.477" r="0.5" gradientUnits="objectBoundingBox"><stop offset="0" stop-color="#f7f8f8"/><stop offset="0.351" stop-color="#1b95d4"/><stop offset="1" stop-color="#1e2971"/></radialGradient><clipPath id="e"><path d="M35.928,44.046A10.115,10.115,0,1,1,25.813,33.931,10.115,10.115,0,0,1,35.928,44.046Z" transform="translate(-15.698 -33.931)" fill="none"/></clipPath><radialGradient id="f" cx="0.507" cy="0.486" r="0.491" gradientUnits="objectBoundingBox"><stop offset="0" stop-color="#5eb0e3"/><stop offset="0.23" stop-color="#5eb0e3"/><stop offset="0.397" stop-color="#5aabe0"/><stop offset="0.567" stop-color="#509fd7"/><stop offset="0.739" stop-color="#3f8bca"/><stop offset="0.911" stop-color="#276eb7"/><stop offset="1" stop-color="#195dab"/></radialGradient><radialGradient id="g" cx="0.5" cy="0.5" r="0.483" gradientTransform="translate(-0.038) scale(1.075 1)" gradientUnits="objectBoundingBox"><stop offset="0" stop-color="#c0dd98"/><stop offset="1" stop-color="#93c530"/></radialGradient><radialGradient id="h" cx="0.486" cy="0" r="0.991" gradientTransform="translate(-4.193) scale(0.86 1.125)" gradientUnits="objectBoundingBox"><stop offset="0" stop-color="#fff"/><stop offset="0.086" stop-color="#f7f7f7"/><stop offset="0.218" stop-color="#e2e1e1"/><stop offset="0.379" stop-color="#c0bfbf"/><stop offset="0.563" stop-color="#908e8e"/><stop offset="0.766" stop-color="#535050"/><stop offset="0.983" stop-color="#0a0606"/><stop offset="1" stop-color="#040000"/></radialGradient><radialGradient id="i" cx="0.497" cy="0.978" r="1.139" gradientTransform="translate(0.197) scale(0.603 1)" gradientUnits="objectBoundingBox"><stop offset="0" stop-color="#4875b9"/><stop offset="0.668" stop-color="#fff"/></radialGradient><clipPath id="j"><ellipse cx="15.773" cy="12.798" rx="15.773" ry="12.798" transform="matrix(0.035, -0.999, 0.999, 0.035, 0, 31.527)" fill="none"/></clipPath><linearGradient id="k" x1="0.915" y1="-0.085" x2="0.398" y2="1.145" gradientUnits="objectBoundingBox"><stop offset="0" stop-color="#1e2971"/><stop offset="0.698" stop-color="#1b95d4"/><stop offset="0.98" stop-color="#fff" stop-opacity="0"/></linearGradient></defs><g transform="translate(22036 5584.091)"><path d="M17.858,0h150.3c9.863,0,17.858,7.227,17.858,16.142V91.471c0,8.915-8,16.142-17.858,16.142H17.858C8,107.613,0,100.386,0,91.471V16.142C0,7.227,8,0,17.858,0Z" transform="translate(-22036 -5584.091)" fill="#fff"/><path d="M17.858,4.52a13.493,13.493,0,0,0-9.092,3.4A11.014,11.014,0,0,0,5,16.142V91.471A11.015,11.015,0,0,0,8.766,99.69a13.493,13.493,0,0,0,9.092,3.4h150.3a13.493,13.493,0,0,0,9.092-3.4,11.015,11.015,0,0,0,3.766-8.218V16.142a11.014,11.014,0,0,0-3.766-8.218,13.493,13.493,0,0,0-9.092-3.4H17.858m0-4.52h150.3c9.863,0,17.858,7.227,17.858,16.142V91.471c0,8.915-8,16.142-17.858,16.142H17.858C8,107.613,0,100.386,0,91.471V16.142C0,7.227,8,0,17.858,0Z" transform="translate(-22036 -5584.091)" fill="#1b95d4"/><path d="M2.13,58.142a1.351,1.351,0,0,1-.835-2.415C4.842,52.965,11.528,48.82,19.67,48.82c12.213,0,16.415,5.647,32.7,5.647s28.234-5.779,36.245-12.607c4.333-3.282,13.394-11.819,27.316-11.819,13.169,0,29.649,4.7,46.089,24.467a2.15,2.15,0,0,1-1.64,3.532Z" transform="translate(-22024.658 -5559.886)" fill="url(#a)"/><ellipse cx="4.339" cy="4.339" rx="4.339" ry="4.339" transform="translate(-21921.387 -5528.224)" fill="url(#b)"/><ellipse cx="3.282" cy="3.282" rx="3.282" ry="3.282" transform="translate(-21923.09 -5519.551)" fill="url(#b)"/><ellipse cx="2.194" cy="2.194" rx="2.194" ry="2.194" transform="translate(-21928.293 -5514.883)" fill="url(#b)"/><path d="M10.626-2.122a12.722,12.722,0,1,1-4.959,1,12.722,12.722,0,0,1,4.959-1Zm0,22.511a9.764,9.764,0,1,0-6.9-2.859,9.764,9.764,0,0,0,6.9,2.859Z" transform="translate(-21960.107 -5527.747)" fill="#1e2971"/><path d="M63.517,33.363q0,.282-.562.256h-.909q-.362,0-.43.156a3.6,3.6,0,0,0-.07.95V51.086q0,1.505-.023,1.758t-.135.255q-.135,0-.316-.314L58.18,47.462q-2.513-4.654-6.114-11.626V51.763a.473.473,0,0,0,.343.471,7.44,7.44,0,0,0,1.532.129q.3,0,.3.228,0,.282-.588.282-.2,0-1.29-.085-.362-.028-.7-.029.021,0-.4.057a10.422,10.422,0,0,1-1.278.057h-.226q-.521,0-.52-.257t.453-.257a3.536,3.536,0,0,0,1.547-.215q.215-.186.215-1.211V36.895q0-2.365-.77-2.963a2.16,2.16,0,0,0-1.29-.282q-.588,0-.588-.3,0-.27.34-.27.453,0,1.154.057t.753.054q.07,0,.633-.028a12,12,0,0,0,1.448-.085l7.808,14.646V35.068q0-.882-.023-1.067a.375.375,0,0,0-.181-.282,3.118,3.118,0,0,0-1.087-.1q-.814,0-.814-.256,0-.282.538-.282h3.643q.5,0,.5.282Z" transform="translate(-22038.91 -5560.788)" fill="#1e2971"/><path d="M83.429,48.219q0,.114-.045,1.4t-.042,2.443V53q-2.218-.171-8.78-.171H71.73q-.43,0-.43-.229a.159.159,0,0,1,.135-.178q.07,0,.86-.076.588-.057.713-.314a4.15,4.15,0,0,0,.125-1.341V34.655q0-.827-.192-.985a2.664,2.664,0,0,0-1.233-.157q-.362,0-.362-.242t.5-.242h9.594a6.317,6.317,0,0,0,1.245-.114q.045,1.224.2,3.385l.091,1.222a2.493,2.493,0,0,1,.023.37q0,.282-.2.282-.249,0-.362-.715-.43-2.58-1.406-3.264-.725-.515-3.8-.515h-1.85v8.367h.538q2.532,0,3.089-.484t.758-2.813q.045-.6.249-.6.249,0,.249.512t-.045,1.505q-.046,1-.046,1.505,0,3.044.07,4.181.017.282.018.484,0,.37-.247.37-.158,0-.215-.242T79.6,44.89q-.171-1.67-1.1-2.072a7.5,7.5,0,0,0-2.117-.171H75.373v9.526a34.849,34.849,0,0,0,5.837-.253q1.493-.421,1.7-3.6.045-.7.294-.7.226,0,.227.6Z" transform="translate(-22045.586 -5560.739)" fill="#1e2971"/><path d="M170.219,48.219q0,.114-.045,1.4t-.045,2.447V53q-2.218-.171-8.78-.171h-2.831q-.43,0-.43-.229a.159.159,0,0,1,.135-.178q.07,0,.86-.076.588-.057.713-.314a4.15,4.15,0,0,0,.125-1.341V34.655q0-.827-.192-.985a2.664,2.664,0,0,0-1.233-.157q-.362,0-.362-.242t.5-.242h9.595a6.319,6.319,0,0,0,1.245-.114q.045,1.224.2,3.385l.09,1.222a2.494,2.494,0,0,1,.023.37q0,.282-.2.282-.249,0-.362-.715-.43-2.58-1.406-3.264-.725-.515-3.8-.515h-1.855v8.367h.538q2.532,0,3.089-.484t.758-2.813q.045-.6.249-.6.249,0,.249.512T167,40.17q-.046,1-.046,1.505,0,3.044.07,4.181.017.282.018.484,0,.37-.247.37-.158,0-.215-.242t-.191-1.578q-.18-1.678-1.1-2.076a7.5,7.5,0,0,0-2.117-.171h-1.014v9.526a34.851,34.851,0,0,0,5.837-.253q1.493-.421,1.7-3.6.045-.7.294-.7.226,0,.227.6Z" transform="translate(-22071.342 -5560.739)" fill="#1e2971"/><path d="M190.392,52.506q0,.243-.34.243a2.688,2.688,0,0,1-.407-.028l-2.874-.114-2.874.114a1.963,1.963,0,0,1-.34.028q-.453,0-.453-.3,0-.323.611-.323,1.991-.028,1.991-.5a2.03,2.03,0,0,0-.046-.223l-.185-.753-.116-.4q-.2-.883-.995-3.9h-4.838a36.592,36.592,0,0,0-1.356,5.234q0,.4.271.484.07.029,1.131.114.656.029.656.282,0,.285-.588.282-1.041,0-2.421-.114-.34-.028-.7-.029a2.6,2.6,0,0,0-.7.095,1.225,1.225,0,0,1-.294.047q-.316,0-.316-.257t.713-.286a1.834,1.834,0,0,0,1.03-.271,1.688,1.688,0,0,0,.5-.928q2.917-10.507,4.745-16.872a3.871,3.871,0,0,1,.215-.753l.1-.512c.045-.215.108-.313.181-.313q.068,0,.113.171.294,1.108,1.336,4.636.814,2.76,4.05,13.854a1.377,1.377,0,0,0,.464.819,2.688,2.688,0,0,0,1.166.205q.588.028.588.27Zm-6.128-6.811-1.22-4.239-1.088-3.946q-.955,3.147-2.294,8.182h4.6Z" transform="translate(-22076.422 -5560.632)" fill="#1e2971"/><path d="M209.829,33.365q0,.282-.562.256h-.907q-.362,0-.43.156a3.591,3.591,0,0,0-.07.95V51.088q0,1.505-.023,1.758t-.135.255q-.135,0-.316-.314l-2.892-5.323q-2.515-4.657-6.118-11.629V51.765a.473.473,0,0,0,.343.471,7.438,7.438,0,0,0,1.532.129q.3,0,.3.228,0,.282-.588.282-.2,0-1.29-.085-.362-.028-.7-.029.021,0-.4.057a10.416,10.416,0,0,1-1.278.057h-.226q-.522,0-.52-.257t.453-.257a3.536,3.536,0,0,0,1.547-.215q.215-.186.215-1.211V36.9q0-2.365-.77-2.963a2.16,2.16,0,0,0-1.29-.282q-.588,0-.588-.3,0-.27.34-.27.453,0,1.154.057t.747.057q.07,0,.633-.028a12.008,12.008,0,0,0,1.448-.085l7.806,14.648V35.073q0-.882-.023-1.067a.375.375,0,0,0-.181-.282,3.118,3.118,0,0,0-1.087-.1q-.814,0-.814-.256,0-.282.538-.282h3.643q.5,0,.5.282Z" transform="translate(-22082.33 -5560.79)" fill="#1e2971"/><path d="M139,46.383q0-.057-.045.768-.09,1.649-.09,3.186,0,.171.045.7t.045,1.265v.256c0,.246-.06.37-.181.37s-.227-.141-.316-.43a3.06,3.06,0,0,0-.633-1.222,5.108,5.108,0,0,1-3.915,1.792,6.628,6.628,0,0,1-5.51-2.916,11.923,11.923,0,0,1-2.184-7.352,12.348,12.348,0,0,1,2-7.3,6.087,6.087,0,0,1,5.171-2.83,5.738,5.738,0,0,1,1.845.242,7.144,7.144,0,0,1,1.708.985,1.515,1.515,0,0,0,.747.37q.2,0,.385-.455.294-.8.475-.8t.182.228a2.42,2.42,0,0,1-.045.37,34.143,34.143,0,0,0-.249,5.12,1.505,1.505,0,0,1-.07.626.215.215,0,0,1-.181.085q-.227,0-.294-.538a11.45,11.45,0,0,0-.838-3.385,3.656,3.656,0,0,0-3.485-2.276,3.344,3.344,0,0,0-2.9,1.536q-1.923,2.76-1.923,8.078a14.283,14.283,0,0,0,1.58,7.367A4.153,4.153,0,0,0,134,52.5a3.516,3.516,0,0,0,2.15-.725,4.606,4.606,0,0,0,1.493-1.977,13.607,13.607,0,0,0,.838-3.157q.09-.683.294-.683.226,0,.227.43Z" transform="translate(-22061.881 -5560.667)" fill="#1e2971"/><path d="M166.451,62.9a.774.774,0,0,1,.352-.094.663.663,0,0,1,.488.264,2.049,2.049,0,0,0,.275.02c.285,0,1.4-.052,1.93-.088.074,0,.119-.042.215-.114s.188-.151.23-.151c.141,0,.6.421.571.549-.015.062-.147.108-.215.135-.046.02-.07.057-.108.129a5.251,5.251,0,0,1-3.814,3.409l-.024-.088A5.472,5.472,0,0,0,169.48,63.4l.01-.035c.008-.031.005-.062-.046-.062h-.011c-.7.031-1.649.191-1.8.208h-.07a.4.4,0,0,1-.24-.078c-.042.166-.141.959-.167,1.055-.095.373-.168.544-.386.544s-.374-.286-.3-.562c.017-.07.119-.27.141-.358a2.225,2.225,0,0,0,.066-.968.339.339,0,0,0-.229-.223l.008-.031Z" transform="translate(-22073.795 -5569.589)" fill="#fff"/><path d="M176.686,63.5A8.189,8.189,0,0,1,173.04,66.6c-.282.135-.3.275-.43.275-.337,0-.676-.544-.6-.834a.554.554,0,0,1,.241-.358.333.333,0,0,0,.375.363,9.147,9.147,0,0,0,4-2.58l.07.042Zm-3.956-.347c.8,0,1.532.233,1.4.783a.538.538,0,0,1-.5.394.323.323,0,0,1-.3-.286,1.282,1.282,0,0,0-.633-.818l.039-.07Z" transform="translate(-22075.469 -5569.714)" fill="#fff"/><path d="M180.424,65.369a.778.778,0,0,1,.714-.57.43.43,0,0,1,.43.57.778.778,0,0,1-.714.57.43.43,0,0,1-.43-.57Z" transform="translate(-22077.963 -5570.202)" fill="#fff"/><path d="M184.663,63.435c.056.311.186.331.538.331.43,0,1.069-.07,1.458-.108.04-.134.081-.342.1-.43.07-.363.1-.513.023-.562a.5.5,0,0,0-.313-.052.633.633,0,0,1,.481-.264c.323,0,.723.215.662.456-.03.119-.141.135-.26.5-.015.042-.07.259-.083.306.451-.042.576-.07.788-.27.443.07.721.223.666.44-.039.156-.237.176-.345.176-.2,0-.411-.035-.778-.035-.108,0-.254,0-.418.015-.1.373-.175.715-.292,1.222-.031.145-.076.363-.126.581-.055.282-.034.383-.06.487-.084.332-.392.695-.657.695a.186.186,0,0,1-.2-.223c0-.215-.129-.414-.671-.814l.044-.052a4.973,4.973,0,0,0,.784.182c.046,0,.07-.015.1-.094.014-.035.263-.882.323-1.171a7.117,7.117,0,0,1-2.778,1.441l-.028-.057a9.051,9.051,0,0,0,2.58-2.1c-.306.042-.6.088-.848.141-.223.042-.286.125-.421.125a.516.516,0,0,1-.478-.57.554.554,0,0,1,.183-.3h.03Z" transform="translate(-22078.918 -5569.474)" fill="#fff"/><path d="M192.84,65.548c-.337,0-1.044.031-1.243.057a1.781,1.781,0,0,0-.376.094.784.784,0,0,1-.243.062.67.67,0,0,1-.538-.689.575.575,0,0,1,.2-.357h.037c0,.342.39.342.753.342h2.176a5.644,5.644,0,0,0,.609-.052h.011c.306.02.753.1.695.323-.037.145-.232.223-.5.223h-1.579Z" transform="translate(-22080.941 -5570.175)" fill="#fff"/><path d="M197.381,66.863a.793.793,0,0,1-.576-.8.538.538,0,0,1,.256-.378c.017.259.135.368.323.368a.823.823,0,0,0,.255-.046,9.482,9.482,0,0,0,3.757-2.4l.052.042a8.157,8.157,0,0,1-3.61,2.933.88.88,0,0,0-.195.114c-.057.042-.129.166-.251.171h-.011Zm-.292-2.766a3.423,3.423,0,0,1,.389-.021c.658,0,.944.223.86.555a.438.438,0,0,1-.445.323c-.15,0-.2-.114-.26-.223a1.275,1.275,0,0,0-.588-.562Zm.891-1.15c.1,0,.195-.011.288-.011.746,0,1.068.228.985.57a.413.413,0,0,1-.412.337c-.223,0-.272-.134-.335-.3a1.241,1.241,0,0,0-.568-.544l.045-.057Z" transform="translate(-22082.832 -5569.648)" fill="#fff"/><path d="M204.211,64.251a.487.487,0,0,1,.416-.27c.347,0,.645.108.614.215-.008.031-.086.176-.095.215a4.355,4.355,0,0,0-.035.538c.4-.094.793-.186,1.021-.249a.452.452,0,0,0,.215-.108c.08-.07.121-.107.188-.107.114,0,.46.332.43.456-.011.046-.063.07-.168.108a.371.371,0,0,0-.176.108,5.552,5.552,0,0,1-1.093.8l-.052-.042a5.739,5.739,0,0,0,.687-.978c0-.015,0-.026-.014-.026-.035,0-.73.2-1.034.3a13.005,13.005,0,0,0,.062,1.357,1.641,1.641,0,0,1,.054.383c-.07.27-.181.43-.421.43-.176,0-.234-.078-.189-.562.017-.215.06-.875.056-1.477a3.661,3.661,0,0,0-.605.243c-.117.07-.176.145-.269.145a.461.461,0,0,1-.4-.5.5.5,0,0,1,.141-.232h.014c0,.07.008.215.252.215a5.085,5.085,0,0,0,.86-.159c-.024-.792-.127-.813-.3-.813a.394.394,0,0,0-.147.031l-.008-.015Z" transform="translate(-22084.787 -5569.958)" fill="#fff"/><path d="M213.834,63.5a8.19,8.19,0,0,1-3.646,3.094c-.282.135-.3.275-.43.275-.336,0-.676-.544-.6-.834a.554.554,0,0,1,.241-.358.333.333,0,0,0,.375.363,9.147,9.147,0,0,0,4-2.58l.07.042Zm-3.956-.347c.8,0,1.532.233,1.4.783a.537.537,0,0,1-.5.394.323.323,0,0,1-.3-.286,1.283,1.283,0,0,0-.633-.818l.039-.07Z" transform="translate(-22086.492 -5569.714)" fill="#fff"/><g transform="translate(-22013.389 -5527.11)" clip-path="url(#e)"><path d="M35.928,44.046A10.115,10.115,0,1,1,25.813,33.931,10.115,10.115,0,0,1,35.928,44.046Z" transform="translate(-15.698 -33.931)" fill="url(#f)"/><path d="M25.8,54.177a10.142,10.142,0,1,1,7.174-2.966A10.142,10.142,0,0,1,25.8,54.177Zm0-20.23A10.088,10.088,0,1,0,32.933,36.9,10.088,10.088,0,0,0,25.8,33.947Z" transform="translate(-15.687 -33.919)" fill="#cde9f2"/><path d="M26.387,33.845c.057.046.015,0,.07,0a.134.134,0,0,1,.091.022c.024.024,0,.033-.013.039-.031.014-.042.024,0,.07a.162.162,0,0,0,.138.062.914.914,0,0,1,.228.026c.065.023.085.064.042.07s-.054-.019-.056.022.009.038-.084.038a1.239,1.239,0,0,0-.2-.005c-.062.011-.025.046-.088.052a.388.388,0,0,0-.141.021.23.23,0,0,1-.108.026,1.293,1.293,0,0,1-.145-.009c-.049,0-.014.025-.049.022s-.053-.023-.07,0-.017.033-.095.034-.07-.013-.1.011-.065.019-.17.024a.591.591,0,0,1-.187-.027c-.057-.01-.06-.015-.026-.03s.008-.044-.008-.026a.056.056,0,0,1-.066.011c-.022-.01-.018-.019-.014-.039s-.02-.01-.029.013-.031.014-.054.022.017.03-.046.043-.119.017-.117-.047.018-.065-.005-.108-.044-.038-.07-.019-.026-.026-.083-.025-.062,0-.054-.015.052-.024,0-.026a.2.2,0,0,1-.1-.024c-.018-.011-.029-.008-.048.005s-.042-.024-.017-.044.07-.035-.026-.044-.189,0-.056-.062A1.091,1.091,0,0,1,25,33.863a4.2,4.2,0,0,1,.753-.044c.416,0,.576-.008.633.039Zm.739.367a.631.631,0,0,0-.176,0,.22.22,0,0,1-.158.031.983.983,0,0,0-.253.019c-.091.014-.12.011-.163.023s-.053.038.033.062a1.232,1.232,0,0,0,.238.056c.1.011.123-.038.145-.01a.074.074,0,0,0,.083.038.165.165,0,0,1,.1.009.133.133,0,0,0,.1-.01c.031-.011.03-.031,0-.049s-.017-.047.028-.017.049.043.023.061-.011.058.07.04a.487.487,0,0,1,.159-.019c.052,0,.015-.005.07-.03s.074-.01.07-.04-.009-.029-.052-.035-.088-.031-.062-.052.015.005.074.023.092.054.161.038a.1.1,0,0,1,.108.022c.034.035.047.059.087.054s.035-.035.019-.055.013-.034.055-.03.062.028.054.049-.011.021-.046.025-.03.046.032.062.07-.017.086.021.009.046.07.03.047-.046.07-.059.005-.049-.042-.057-.034-.015-.046-.04-.078-.022-.1-.035a1.23,1.23,0,0,0-.116-.078,1.3,1.3,0,0,0-.184-.061c-.076-.032-.07-.04-.141-.034s-.1.027-.042.042.076.027.144.044.108.032.1.054-.035.015-.114-.01a.86.86,0,0,1-.154-.062.192.192,0,0,0-.123-.038.463.463,0,0,0-.138.017l-.07.008Zm.294.282c.038,0,.03-.023,0-.025s-.038.022,0,.022Zm.156-.087c-.029.008-.047.019-.029.044a.047.047,0,0,0,.07,0c.023-.017.055-.017.074-.04s-.011-.043-.06-.023a.417.417,0,0,1-.055.011Zm.034.084c-.025.025-.03.047,0,.06a.07.07,0,0,0,.08-.013c.015-.017.022,0,.049,0s.034-.023.017-.038.013-.011.008-.029-.023-.022-.076-.022a.125.125,0,0,0-.08.035Zm.289.07c.028,0,.005-.015.03-.019s.031-.033-.017-.023S27.87,34.558,27.9,34.56Zm-.108-.06a.012.012,0,1,0,0-.023c-.031,0-.019.016,0,.018Zm.108.116c-.032,0-.019-.015-.055-.017s-.057.022-.032.023.015.013.049.027.027-.015.049-.015.035.017.065.04.032.005.047-.008.03-.005.01-.03-.035-.029-.087-.029C27.93,34.606,27.932,34.614,27.9,34.616Zm.215-.044c-.057.01-.038.04.008.044a.506.506,0,0,0,.108.01c.04,0,.042-.025.059-.008s0,.035-.03.042-.011.032-.04.035-.022-.023-.042-.027,0,.027-.023.03-.044-.017-.062,0,.022.03.127.078a.8.8,0,0,0,.176.07c.046.008.042-.04.032-.078s.024-.015.049-.008.025-.027-.005-.049-.044-.03-.03-.038.035.008.07.025.044,0,0-.028-.067-.025-.119-.057-.065-.052-.108-.078-.041-.024-.065,0a.215.215,0,0,1-.108.038Zm.76-.078c.031.035.01.07-.074.074a.439.439,0,0,1-.186-.008c-.047-.019-.037-.022-.086-.019s-.067.013-.017.038a.6.6,0,0,0,.141.038c.059.015.118.008.138.062s-.028.067-.087.076-.059.022-.044.091.07.084.163.089a.4.4,0,0,1,.163.047.43.43,0,0,0,.181.04c.1,0,.152.005.08-.04a.667.667,0,0,0-.168-.08c-.044-.013-.022-.023.025-.017s.047,0,.044-.021.019,0,.046.019.04.017.07,0-.01-.03-.019-.054.038,0,.07.042.042.032.091.028.017-.028.025-.049.022.008.047.008.074-.011,0-.054a1.723,1.723,0,0,1-.18-.108c-.07-.049-.044-.044-.095-.095a.341.341,0,0,0-.1-.08c-.038-.021-.013-.07.061-.013a1.758,1.758,0,0,1,.159.156.215.215,0,0,0,.173.074c.089.011.181.019.1.025s-.06,0,.005.065.089.114.025.08-.141-.049-.108.008.052.065,0,.08-.054.054.017.065.087.052.055.07-.067.01-.127,0-.07.04.013.087.082.049.1.108a.182.182,0,0,0,.066.114c.047.047-.015.044-.07.076s-.035.038-.092.049-.019.065-.07.086-.042.07-.141.084-.1.038-.158.061-.034.078-.011.178.027.108.085.146.044.084,0,.118-.009.046.084.066a1.343,1.343,0,0,1,.215.042.215.215,0,0,0,.163,0c.07-.017.089-.013.088.054s-.059.095-.088.055-.053-.027-.082-.009,0,.07,0,.135.034.074.065.07c.049,0,.049-.034.089,0s.052.055.124.027.065-.044.084-.089.009-.087.055-.07.028.047.091.065.108.078.07.133-.049.038-.08.049-.015.044.038.081a.286.286,0,0,1,.108.135c.035.07.066.035.154.092a.366.366,0,0,0,.159.082c.082.022.108-.017.184,0s.059.046.116.044.025-.062.086-.062.03-.035.084-.04.025-.015.076.032a1.134,1.134,0,0,1,.122.159c.044.057.029.038.038.116s.04.082.017.108-.034.029-.017.084.047.07.025.108-.044.032-.038.1.03.059.06.019,0-.046.011-.1a.492.492,0,0,0,0-.1c0-.044.032-.044.017-.108s.017-.076-.005-.133-.037-.055-.04-.118-.038-.062-.057-.141a.524.524,0,0,0-.062-.182c-.034-.049-.017-.035-.078-.057s-.07-.023-.092-.087.011-.092.059-.07.034.04.06.032.017-.029-.022-.08-.054-.062-.025-.07.038-.04-.019-.06-.108-.049-.087-.091.06-.04.078.008.032.049.065-.021.049-.034.049-.078.021-.049.06-.044.017-.013.052-.038.044-.015.117,0a.408.408,0,0,0,.135,0,.411.411,0,0,1,.2.055c.086.047.108,0,.2.047s.108.065.133.046,0-.028-.03-.055-.032-.049.015-.046.078.047.144.086.07.011.131.03.1.027.163.042a.586.586,0,0,0,.182,0,.323.323,0,0,1,.215.108c.046.047,0,.057.108.129a3.53,3.53,0,0,1,.406.328c.156.146.371.332.572.538a4.5,4.5,0,0,0,.357.337c.054.042.037,0-.035-.087s-.344-.412-.549-.629-.378-.38-.517-.52a9.149,9.149,0,0,0-.759-.668,10.047,10.047,0,0,0-.926-.639,10.358,10.358,0,0,0-.948-.538c-.376-.175-1.075-.385-1.355-.5s-.376-.171-.453-.19-.087-.008-.047.022.074.054-.011.024a1.364,1.364,0,0,0-.2-.059,1.091,1.091,0,0,0-.161-.017c-.095-.009-.108-.019-.138-.049s.046-.008.078,0,0-.042-.108-.052-.119-.042-.241-.052a2.066,2.066,0,0,1-.232-.034,1.847,1.847,0,0,1-.215-.046.469.469,0,0,0-.146-.027c-.108-.005-.127-.005-.052.023a1.746,1.746,0,0,1,.169.086c.07.032.082.005.108.047s.025.059.059.078.038.027.07.027.034-.017.005-.025,0-.023.057-.01.135.035.061.04-.082.027-.021.04.067,0,.082.023.017.025.059.032a.807.807,0,0,0,.084.022c.046.005.084,0,.148.005a.805.805,0,0,0,.158.013c.054,0,.108-.011.061-.035s-.015-.03.065-.025.108-.01.122.027.011.052-.037.07a.372.372,0,0,1-.2.015,1.385,1.385,0,0,1-.144-.027c-.082-.017-.141-.025-.116.005s.044.022.124.049.049.025.082.049a.364.364,0,0,0,.108.044c.044.017.127-.013.154.009s.022.049.061.042.042-.044.08-.052-.019-.04.057-.044a.192.192,0,0,1,.169.074Zm-.584,1.9a.827.827,0,0,0,.124-.108c.044-.049-.06-.084-.129-.025-.1.1-.025.159.008.132Zm4.086.247c.031,0,.009-.034-.06-.054a.414.414,0,0,1-.157-.07c-.048-.038-.074-.024-.046.014a.453.453,0,0,0,.262.108Zm-1.02.519c.057,0-.011-.131-.086-.188s-.06-.047-.046.031c.017.1.074.154.131.157Zm-.968.108c.086.014.07-.088.014-.091s-.1.074-.014.09Zm.835.687c.033-.017.029-.042-.02-.026s-.014.041.02.024Zm-.029.095c.026.005.017.011.031.07s.028.014.033-.046-.012-.1-.066-.091-.026.06,0,.066Zm-.048.066c-.005.026.017.023.023.057s.023.074.038.023,0-.1-.04-.108c-.017,0-.014,0-.019.023Zm0,.176c.019.005.038-.034.017-.04s-.04.033-.019.039Zm-.031.066c.014.011.02-.024,0-.029s-.017.016,0,.028Zm-.07.076c-.017-.011-.031.005-.011.026s.028-.013.011-.027Zm-.046.1c.031-.014.013-.049-.014-.028s-.017.042.013.028Zm-.07-.038c0-.034-.038-.017-.04.026s0,.046-.017.06.031.029.046-.009A.2.2,0,0,0,30.929,38.491Zm-.125.188c.04-.014.035-.07,0-.06s-.039.073,0,.059Zm-.108.052c.034,0,.015-.047-.009-.038s-.025.039.01.035Zm-.294.091a.019.019,0,1,0,0-.038.018.018,0,1,0,0,.035Zm-.029.08c.029.005.026-.03,0-.026s-.028.019,0,.025Zm-.138-.019c0-.034-.016-.047-.028-.009s.026.042.029.008Zm-.5.026c.043.011.045-.066.009-.062s-.049.051,0,.062Zm.114.034c.026,0,.017-.043-.009-.043s-.015.038.01.042Zm-.875-.243c-.06-.057-.08-.033-.038.023.082.108.1.033.039-.024Zm-.484-.645c.027.013,0-.038.027-.078s.032-.057.032,0,.013.047.055.035.017-.065.038-.108a.117.117,0,0,1,.182-.028c.07.062.078.046.074,0s.015-.049.034-.141.082-.108.108-.181.044-.049.07-.114.038-.047.116-.044.052-.046-.017-.092a1.713,1.713,0,0,1-.2-.135c-.04-.042-.033-.059-.005-.117s-.01-.061-.059-.108-.019-.07.005-.06.07.032.052-.005.024-.044.07.01.07.027.086-.01.078-.035.115,0,.034.032.108.046.12.025.145,0-.025-.076-.087-.121-.042-.032-.01-.055.03-.07-.037-.1-.08-.057-.175-.054-.1.023-.062.082-.022.008-.082-.046-.108-.028-.228-.054a1.962,1.962,0,0,0-.277,0,1.844,1.844,0,0,0-.376-.015c-.173.011-.205.017-.215.089s-.04.062-.06.013-.076-.03-.092.023-.095.067-.2.078a.2.2,0,0,1-.188-.042.582.582,0,0,0-.163-.089.282.282,0,0,0-.268.046c-.108.062-.117.046-.156,0s-.084-.017-.127-.074a.135.135,0,0,0-.159-.054.519.519,0,0,1-.232-.03c-.085-.022-.108-.038-.07-.042s.059-.008.034-.054-.049-.022-.114-.062-.084.011-.08.082.028.032.01.108-.054.082-.138.108a.264.264,0,0,1-.186.017c-.055-.022-.055-.047-.1,0s-.011.087-.057.086-.091-.029-.118-.133.013-.046.034-.116-.032-.062-.133-.118-.149-.038-.159.027-.062.047-.141.034-.1-.027-.082-.044.035-.032-.032-.057a.674.674,0,0,0-.182-.023c-.067-.008-.065-.056-.011-.065s.042-.035-.013-.047-.018-.06.022-.06a.176.176,0,0,0,.108-.055c.059-.047.03-.108-.023-.146s-.086,0-.146-.011.027-.046.011-.1-.07-.052-.152-.034-.124.074-.215.086-.054-.042-.135-.044-.144.008-.23.01a.93.93,0,0,1-.158,0c-.108-.008-.141.011-.138.07s-.046.042-.118.028-.08-.062-.152-.07-.065,0-.124.086-.067.119-.1.108,0-.04.005-.1,0-.065-.049-.059-.047,0-.01-.04.052-.074,0-.082-.04.057-.125.087-.141.07-.178.049.008-.062.087-.086.108-.017.127-.059,0-.07-.055-.07-.065.04-.161.07-.135-.005-.228.019-.116.047-.2.158-.108.141-.131.091.008-.049.042-.119.042-.062.032-.122.008-.046.049-.1.011-.082-.044-.038a1.106,1.106,0,0,0-.149.144c-.074.081-.116.008-.08-.008s.055-.047.017-.054-.03.027-.061-.027-.08-.052-.022-.065.07-.038,0-.059-.082-.01-.124-.047-.1-.034-.062-.059.06-.013.108-.059.021-.078-.042-.034-.141.027-.215.084-.087.025-.118-.023-.074-.06-.118-.013-.095.084-.121.049.019-.049.062-.1-.025-.047-.07.013-.065.078-.089.057-.013-.04.024-.059.044-.035.108-.078.049-.047.119-.057a.251.251,0,0,0,.152-.065c.065-.047.151-.07.1-.017s-.07.065-.141.135,0,.078.092.07.059-.035.161-.076a.682.682,0,0,1,.262-.038c.095,0,.1-.078.176-.108a.654.654,0,0,1,.249-.058c.1,0,.065-.07.017-.108s-.07,0-.108-.01-.049-.017-.108.027-.141.059-.144.019.034-.027.07-.034.015-.055.052-.087.046-.032.076-.008.07-.034.118-.076.046-.067.046-.125.07-.044.03-.095-.108-.015-.182-.013-.129-.038-.233-.008-.184.027-.149,0,.052-.057,0-.062a.52.52,0,0,0-.206.055,1.769,1.769,0,0,0-.247.086c-.119.059-.171.116-.26.152s-.108.009-.225.089-.181.055-.31.163-.03.127-.01.1a.222.222,0,0,1,.108-.089c.077-.044.108-.019.188-.032s.108-.07.171-.108a.8.8,0,0,1,.268-.074c.074-.008.04.005.121.029s.089-.021.158-.029.076.03-.008.076-.074.038-.181.028-.087-.025-.178.005a.943.943,0,0,0-.317.107c-.148.089-.158.119-.181.2s-.1.092-.141.138-.044-.055,0-.108.062-.055.035-.078-.074.008-.175.108-.1.044-.1.044c0-.023.06-.059.1-.1s-.054-.021-.129.03-.131.095-.148.07.042-.065.042-.065c.042-.034.141-.108.2-.149s-.034,0-.43.249a12.779,12.779,0,0,0-1.56,1.211,4.758,4.758,0,0,0-.692.731,3.465,3.465,0,0,0-.39.538c-.038.1.048.028,0,.083a2.286,2.286,0,0,0-.57.656,10.69,10.69,0,0,0-.8,1.5A9.549,9.549,0,0,0,15.8,41.44a2.557,2.557,0,0,0-.168.733c.023.171.062.134.074.08s.005-.07.028-.014.088.031.108-.046.062-.046.086.005.062.066.074,0,.014-.088.031-.034.038.038.054-.034.046-.074.052-.031.043.005.06-.083.04-.114.06-.07.037.029.054-.046.074-.091.131-.174a.633.633,0,0,0,.034-.371.684.684,0,0,1,.108-.39c.07-.134,0-.123-.06-.043s-.094.131-.131.07a.166.166,0,0,1-.034-.157.985.985,0,0,1,.108-.231c.04-.088,0-.07,0-.07a1.336,1.336,0,0,1,.062-.176,4.589,4.589,0,0,1,.182-.45c.066-.114.108-.108.06.017a2,2,0,0,1-.108.268.941.941,0,0,0-.081.411c-.023.225.031.19.077.157s.052.038-.005.119-.04.123-.023.245.037.095.054.195.1.114.2.248.095.054.1.188a4.924,4.924,0,0,1-.014.51c-.014.215,0,.125-.017.316s.048.2.108.191.076.009.057.1a1.554,1.554,0,0,0-.114.387,4.557,4.557,0,0,0-.077,1.006,7.388,7.388,0,0,0,.045.94c.014.18.128.145.138.07s.108-.046.152.057.011.1-.014.352.014.233.095.228.108-.077.091-.228a2.572,2.572,0,0,0-.046-.368A.844.844,0,0,1,17.336,45a.452.452,0,0,1,.095-.282.73.73,0,0,0,.06-.311c.009-.123.026-.18.07-.2s.038.017.07.026.011-.031.066-.031.043.026.091-.009,0-.091.048-.114.057-.019.141-.052a.6.6,0,0,0,.188-.138c.081-.068.06-.07.191-.06s.154-.066.152-.141a.081.081,0,0,1,.131-.07c.054.046.017.04.117.08a.543.543,0,0,1,.174.086c.108.07.108.06.145-.031s.054-.108.054-.043a2.453,2.453,0,0,0,.005.271c.011.157.043.176.08.205s.07.014.043.08-.011.083.011.141a.741.741,0,0,1,.014.276c-.005.145-.017.08-.07.174s0,.095.043.171.095.06.128.026a1.258,1.258,0,0,1,.119-.083c.07-.052.133-.031.131.095s.005.29.014.437.06.057.052.182a1.488,1.488,0,0,0-.009.271c.009.1-.052.057-.054.176a.467.467,0,0,1-.054.215.286.286,0,0,0,.014.225c.031.054.019-.031.048.029s.114.225.168.316.024.117.005.248a.291.291,0,0,0,.07.252c.052.074,0,.066.048.154s.154.205.108.162a.876.876,0,0,0-.185-.128c-.074-.038-.076-.043-.123-.128a2.558,2.558,0,0,0-.205-.254.323.323,0,0,1-.086-.186c-.017-.074-.08-.062-.141-.08a.31.31,0,0,1-.157-.108c-.074-.073-.062.017-.019.137s.029.07.138.2.114.141.131.215.029.086.108.157a.24.24,0,0,1,.095.191c.009.083.011.086.108.237a2.3,2.3,0,0,1,.141.254c.08.145.031.117.1.254a2.1,2.1,0,0,0,.215.305,1.578,1.578,0,0,0,.385.352c.108.066.123.062.117-.017a1.563,1.563,0,0,1,.052-.291c.011-.07.043-.043.095-.076s0-.066-.07-.123-.023-.081-.07-.141-.076-.052-.108.029-.057.038-.048-.031.011-.08-.034-.114a.352.352,0,0,0-.145-.06c-.066-.017-.066-.1-.031-.114s.04-.043.023-.108.023-.066.088-.057.076,0,.038-.043a.3.3,0,0,1-.074-.176c-.019-.108-.04-.062-.091-.168s-.009-.119,0-.24a.253.253,0,0,0-.07-.248c-.082-.091-.152-.228-.215-.29s-.088-.031-.129-.091-.023-.117-.026-.2-.046-.054-.048-.108a.154.154,0,0,0-.06-.134c-.048-.034-.028-.108-.011-.171a.861.861,0,0,1,.108-.237.285.285,0,0,0,.066-.2c.005-.108.057-.108.108-.076s.038.057.019.137.088.062.141.088.029.07.07.108a.161.161,0,0,1,.066.141c.005.083,0,.086.054.108q.052.023.019.062c-.031.04.076.038.128.1s.081.088.019.225.038.131.076.086.046-.054.108-.057a.147.147,0,0,0,.148-.1c.029-.076.07-.062.152-.081a.442.442,0,0,0,.252-.152.741.741,0,0,0,.052-.285,1.371,1.371,0,0,0-.031-.368.364.364,0,0,0-.091-.191c-.054-.086-.091-.114-.148-.205a.463.463,0,0,1-.062-.195c-.019-.074-.08-.034-.076-.114a.3.3,0,0,1,.108-.242c.083-.06.066-.083.152-.114s.081-.062.166-.086a.172.172,0,0,1,.171.054c.038.031.086.026.076.083s-.029.057.011.133-.043.074-.108.086-.091.026-.141.123.046.141.119.157.108-.011.168-.07.046-.076.1-.125,0-.07-.034-.141.023-.114.043-.171.04-.011.186-.017a.72.72,0,0,0,.282-.054.812.812,0,0,0,.163-.074c.07-.043.07.038.2.029a.48.48,0,0,0,.262-.095,1.033,1.033,0,0,0,.268-.2c.083-.095.1-.083.162-.1s.026-.074.048-.157.04-.083.108-.159.119-.091.2-.174.054-.108.1-.171a.282.282,0,0,0,.088-.188c.031-.154.028-.2,0-.248a.184.184,0,0,1-.014-.168.387.387,0,0,0,.014-.24c-.026-.108-.054-.157-.125-.114s-.083.026-.148-.048-.066-.095-.005-.145a1.126,1.126,0,0,1,.154-.145c.1-.07.168-.117.223-.088s.091.019.1-.029-.011-.083-.074-.083-.088-.005-.088-.062-.034-.091-.083-.029a.394.394,0,0,1-.171.114c-.062.029-.074-.062-.017-.06s.043-.057,0-.074.011-.034-.028-.054-.088-.009-.088-.066.046-.091.108-.108.031-.08.131-.141a2.236,2.236,0,0,0,.191-.117c.084-.06.091-.029.117.023s.034.062-.048.125-.009.057-.038.108-.062.128-.009.1.054-.048.166-.108.188-.074.239-.046.108.029.138.062.026.081-.033.2c-.031.06-.009.09.032.1a.19.19,0,0,1,.141.1c.035.1-.053.087-.066.12s.024.042.044.082-.152.276-.124.323a.193.193,0,0,0,.186.033c.042-.012.07-.059.108-.07a.386.386,0,0,0,.167-.058c.07-.038.118-.167.06-.387a1.447,1.447,0,0,0-.215-.345.1.1,0,0,1,.04-.123c.057-.043.117-.066.191-.119a.259.259,0,0,0,.131-.171c.017-.083.026-.08.07-.108a.141.141,0,0,0,.07-.07c.023-.037.031-.011.083-.057s.07-.074.108-.023a.108.108,0,0,0,.134.054A.569.569,0,0,0,25.812,41a2.019,2.019,0,0,0,.168-.215c.083-.1.114-.119.176-.188a.372.372,0,0,0,.108-.18.633.633,0,0,1,.128-.2.408.408,0,0,0,.062-.254.782.782,0,0,1,.038-.271c.034-.095.128-.034.157.095s.011.215.033.339a1.336,1.336,0,0,1,.005.352c-.009.128.052.085.052.026s0-.057.029-.062a.089.089,0,0,1,.108.052c.026.054.034.043.026-.017s-.034-.04-.066-.108-.091-.066-.1-.133.043-.128.057-.205.048-.062.1-.034.046.038.029-.038-.046-.057-.066-.141-.076-.148-.1-.225,0-.137-.024-.215-.005-.081-.028-.159-.062-.07-.076-.026.026.034.026.083-.031.06-.095.06-.07-.014-.134-.066-.057-.09-.152-.076-.048.117-.095.119-.066,0-.07-.062-.024-.048-.04,0-.07,0-.043-.054,0-.054-.062-.043-.091,0-.1-.034.034-.046.1-.08.085-.086.141-.131.091-.141.154-.168a.229.229,0,0,0,.134-.128c.011-.052.026-.07.091-.117s.108-.108.2-.114a1.135,1.135,0,0,1,.171-.014c.06.009.076-.029.125-.011s.145.009.166-.038.043-.048.095-.04.043.029.108.014.108.009.054.034-.017.066.031.06a.215.215,0,0,0,.108-.038c.028-.039.017-.039.082-.039s.076-.062.04-.07-.062.005-.062-.057a.207.207,0,0,1,.07-.148c.04-.043.034-.141.086-.18a.215.215,0,0,1,.152-.038c.057,0,.088-.005.086.038s.033.052.057.108.06,0,.1-.057a.2.2,0,0,0,.054-.172c-.014-.088.02-.088.028-.046a.668.668,0,0,1,.048.159c.005.08-.026.062-.07.114s0,.08-.024.145-.046.054-.07.162-.062.108-.128.171-.019.07-.031.119a.38.38,0,0,0-.046.2c0,.141.077.225.159.385a2.686,2.686,0,0,1,.168.337c.024.076.07.057.083-.014s.06-.07.08-.131-.043-.086-.033-.131a.08.08,0,0,1,.117-.062c.052.029.052-.009.011-.054a.127.127,0,0,1-.043-.114c0-.057.033-.083.1-.074s.076-.06.028-.1-.048-.066-.048-.119.017-.086.048-.057.038.014.034-.031-.034-.06-.07-.081-.04-.076-.038-.125-.043-.062-.062-.017-.048-.019-.06-.07.011-.062.019-.095a.108.108,0,0,0-.009-.095c-.024-.031,0-.045.023-.062a.07.07,0,0,1,.086-.006Zm.03.131c.011-.054-.042-.084-.062-.017-.047.157.053.07.065.016ZM29.733,37c.032-.011.023-.03.076-.032s.078-.019.054-.038a.162.162,0,0,0-.154.017c-.049.03-.008.065.025.054Zm-3.206-.725c.044.01.082,0,.094-.034s-.027-.042-.133-.049-.092.019-.034.055a.234.234,0,0,0,.074.028Zm-.285-.108c-.038-.005-.019-.025-.07-.032s-.025.027-.062.029-.021-.047-.07-.038a.09.09,0,0,0-.07.108c.019.046.04.047.092.067s.038-.017.076-.005.03-.011.057-.005a.12.12,0,0,0,.124-.04c.055-.054.047-.089-.03-.095-.027,0-.01.015-.047.01Zm-.328.059c.029,0,.03-.046,0-.044a.023.023,0,1,0,0,.044Zm-1.02-.409c.028-.013.012-.049-.019-.03s-.01.044.019.031Zm-.246-.095c-.052.027-.038.044.015.032a.6.6,0,0,1,.141,0c.061,0,.078-.017.07-.06s-.038-.086-.084-.057a1.629,1.629,0,0,1-.146.085Zm.176-.186c-.011-.024.008-.038.042-.047s.032-.023.04-.054-.049-.042-.095-.027-.074.034-.127.049-.06.013-.087.042,0,.052.027.046.019.017-.005.038.019.049.052.067a.076.076,0,0,0,.1-.021c.038-.038.052-.029.07-.057s-.005-.022-.013-.035Zm-.633-.512c-.029-.019-.057-.017-.07.035s.005.078.042.061.032-.03.054,0,.04,0,.067.019.042.017.092,0,.01-.027-.04-.038,0-.054.047-.055.067-.032.038-.038a.172.172,0,0,0-.158.008c-.042.023-.044.029-.07.01Zm-.089-.055c-.054.07-.005.07.015.044s.042-.04.062-.025.013.03.047.025.047-.07.013-.108-.086-.008-.141.06Zm-.07-.45a.517.517,0,0,0-.2,0c-.118.019-.054.047.029.046s.108-.005.116.017-.028.029-.108.027-.108.029-.06.04a.242.242,0,0,0,.127-.011c.044-.011.074-.015.127-.03s.1-.011.052.009-.038.059.025.06a.154.154,0,0,0,.124-.028c.049-.032.023-.078.066-.108s.027-.078-.054-.07a.656.656,0,0,0-.181.044c-.027.01-.019.008-.067,0Zm-1.384,1a.933.933,0,0,1,.389-.095,1.055,1.055,0,0,1,.406,0c.092.029.166.055.223.025s.024-.057-.074-.06-.035-.047-.225-.065a1.778,1.778,0,0,0-.546.059c-.186.04-.289.062-.341.152s.01.108.07.054a.378.378,0,0,1,.095-.07Zm-.505.027c.034.005.042,0,.059-.029s.031-.053-.035-.032-.057.055-.024.06Zm6.1,4.079c.024-.028-.008-.065-.034-.015s-.011.049-.046.07-.027.065.011.061.049-.095.07-.118Zm-1.58,1.313c-.011.023.009.048,0,.08a.056.056,0,0,1-.091.014c-.031-.031-.062,0-.048.011s.02.031.034.048-.038.017-.074.052a.058.058,0,0,0,0,.1c.031.028.023.031.014.07s.019.062.038.028.014-.046.048-.034.074,0,.054-.029-.06-.026-.091-.052-.011-.057.019-.074.043-.019.046.023.033.028.057-.011.019-.043.07-.026a.481.481,0,0,1,.125.083c.046.034.07.04.07.009a.185.185,0,0,1,.017-.085.133.133,0,0,1,.108-.086.393.393,0,0,0,.123-.031c.043-.019.028-.019-.014-.048s-.028-.043-.017-.074.033-.07-.005-.04a.148.148,0,0,1-.128.026.4.4,0,0,1-.176-.108c-.062-.052-.07-.108-.114-.125s-.046.014-.034.07a.352.352,0,0,1,.005.185c-.005.017-.014.009-.026.031Zm.706-.185c-.014.04.011.046.046-.011s.034-.04.076-.076.026-.065-.046-.014a.239.239,0,0,0-.076.108Zm-.168.108c-.028.038-.009.057,0,.04a.264.264,0,0,1,.054-.07c.034-.031.026-.07-.005-.04a.387.387,0,0,1-.049.071Zm.368-.257c.026-.017.016-.056-.011-.038s-.015.057.008.038Zm.141-.108c.034-.043.037-.091-.005-.052s-.028.095.006.052Zm-1.162.9c-.02,0-.011.043-.02.066-.015.042-.034.017-.04.083s.017.074.029.114,0,.057-.034.131-.017.114-.057.157-.076.052-.091.091-.019.043-.07.076-.083.017-.108.054-.074.031-.08,0,.005-.066.034-.07.012-.046-.029-.038-.04.026-.043.086.009.04-.052.1-.043.083-.054.134-.08.043-.114.029a.108.108,0,0,0-.092,0c-.057.011-.157.014-.245.023s-.1.054-.138.1a.352.352,0,0,1-.152.1c-.062.023-.005.062.038.062s.07.017.1.005.023-.031.07-.038.083-.034.145-.043a.215.215,0,0,0,.108-.026.161.161,0,0,1,.125-.026c.052.011.081.023.048.07s-.033.07,0,.091,0,.043.04.054.07.023.07-.017,0-.028.031-.081.031-.04.076-.043.024-.023-.009-.048-.023-.038,0-.07.034-.043.034,0,.011.034.034.026.028-.029.038,0,.052.019.091.014.046,0,.076-.054.057-.043.054.023.031.038.038-.005.011-.062.046-.08.038.009.062-.048.06-.011.026.034-.019.07.019.048.043-.06.062-.08.034-.038,0-.07.011-.038.005-.108.038-.119.031-.19,0-.117.026-.133.034-.029.046-.1.06-.086.052-.162-.06-.1-.091-.141,0-.083-.009-.117a.035.035,0,0,0-.066-.014c-.019.026-.014.034.014.034s.024.019.009.048-.052.019-.057-.019c0-.008-.005-.038-.031-.034Zm-.259.59c.014-.017.016-.055-.009-.034s-.005.052.01.035Zm-.762.323c.023,0,.038-.043,0-.04s-.022.038,0,.042Zm-.108.442a.141.141,0,0,0-.017.108c.005.066.066.07.07.046a.293.293,0,0,1,.04-.088c.017-.031.095-.052.108-.023s.04.031.046,0a.076.076,0,0,1,.046-.066c.04-.026.011-.057-.017-.062s-.046-.028-.085-.019-.048.048-.085.048a.108.108,0,0,0-.1.054Zm.33-.108c.017,0,.038-.056.014-.054s-.031.052-.012.052Zm-.725.108c-.038-.005-.095.031-.08.052s.005.06.028.091.04.026.074.011.043.026.023.074a.481.481,0,0,0-.031.138c-.011.07.034.108.046.043s.029-.038.026.019.034.046.052-.009.06-.048.07-.108a.223.223,0,0,1,.038-.128.126.126,0,0,0-.005-.141c-.019-.044-.07-.014-.1-.052s-.024-.049-.074,0c-.011.011-.028.017-.066.011Zm.086.613c.028-.019.035-.1.014-.083s-.04.1-.012.083Zm-.233.385c.031-.026.027-.082-.019-.043s-.01.067.022.042Zm-.225.286c.04-.07,0-.076-.04-.023s0,.092.042.022Zm-.492.311c.023,0,.033-.054,0-.04s-.022.039,0,.039Zm-.231.07c.066.014.074-.066.011-.062s-.076.045-.011.059Zm-.653.145c-.019.108.062.108.083.159s.048.07.054.019a.161.161,0,0,1,.034-.108,1.664,1.664,0,0,0,.119-.225c.048-.108.07-.188.026-.215s-.07-.005-.2.125a.439.439,0,0,0-.119.239Zm-.046,1.16c-.019.07-.009.108-.038.108s-.031-.034-.054-.043-.019.057-.005.162.028.119.054.134.031.046.054.038.017-.048.043-.034.026.048-.019.07-.038.054-.011.074.054,0,.048.031.057.031.07,0,.06-.009.088-.019-.026-.034-.038-.086-.005-.095-.038-.114-.019-.048.011-.083.014-.086.054-.108a.192.192,0,0,0,.108-.083.132.132,0,0,0,0-.154.1.1,0,0,1-.005-.119c.023-.04.017-.086-.038-.046s-.062-.005-.108-.046-.141-.038-.159.119a1.238,1.238,0,0,1-.019.191Zm.052.787c.026.08.095.026.1-.031a.152.152,0,0,0-.095-.152c-.076-.043-.108-.034-.062.046a.721.721,0,0,1,.058.137Zm-.159.092c.026-.038-.026-.128-.034-.108-.024.081.009.148.034.109Zm.33-.215c.024.014.024-.06,0-.062s-.023.052,0,.066Zm.011.152c.023,0,.019-.047,0-.046s-.023.048,0,.048Zm.108.023c.019-.005.011-.037-.011-.033s-.009.043.011.038Zm-.131.259c-.026.06.014.074.038.04s.04-.014.052.02.048.017.038-.014a.083.083,0,0,1,.046-.091c.038-.023.038-.054.009-.054a.156.156,0,0,1-.08-.031.31.31,0,0,1-.083-.07c-.023-.029-.015,0-.005.07a.223.223,0,0,1-.011.131Zm-.5.005c-.046.04-.046.043-.108.1a1.935,1.935,0,0,0-.215.166c-.057.066-.043.194-.034.152a.174.174,0,0,1,.074-.125,1.644,1.644,0,0,1,.154-.108c.066-.04.057-.08.117-.108s.07-.046.128-.046.048-.026.011-.034-.046-.034-.043-.1-.023-.063-.048.031c-.009.031.005.043-.04.083Zm.735-.464c.02.04.009.052.043.08s.031.009.054.048.052.048.054.014,0-.04-.04-.062.005-.028-.043-.066-.014-.054.04-.057.026-.023-.026-.038-.07.048-.091.009-.005-.057-.04-.083-.048,0-.108.026-.043.04-.017.066.014.017.043.066.04.017.014-.04-.005-.066.031-.038a.234.234,0,0,1,.08.074Zm.2-.009c.028.005.013-.089-.014-.083s-.015.081.013.086Zm-.162.259c.014-.028.046.014.1.046s-.009-.052-.052-.091-.06-.07-.083-.011.017.083.037.054Zm.262.086a.049.049,0,0,1-.046.074c-.034,0-.034-.024-.026-.057s-.017-.043-.04.026.005.048.034.091.04.005.043.074,0,.066.046.066.026-.031.009-.066a.107.107,0,0,1-.017-.081c0-.054.031-.048.077-.017s.043-.017.017-.052-.009-.048-.005-.091,0-.046-.029-.086-.057-.017-.108-.029-.057-.029-.06.017.083.086.108.128Zm-.305.323c-.031.06-.038.043-.031-.014a.2.2,0,0,1,.062-.114c.026-.034.02-.083-.019-.088s-.052.019-.07.095-.026.083-.076.076-.024.052,0,.1.048.009.06.038.031.043.062.026.011-.029.026-.066a.258.258,0,0,1,.076-.108c.04-.034.038-.028.043-.091s-.033-.08-.054.011c-.011.048-.048.077-.08.138Zm.162.052c.07,0,.048-.1,0-.091-.092.017-.072.09,0,.094Zm.259-.07c.005-.046,0-.07-.031-.011s.026.061.031.015Zm.091.031c.011-.038-.015-.031-.026-.009s.013.049.026.013Zm-.134.157c-.014.034-.052.046-.07.019s-.038-.046-.048,0,0,.043-.06.052-.043.06-.108.052-.019-.057-.06-.083-.062,0-.088.04-.054.031-.108.043-.04.04-.054.095-.038.031-.038.076.023.009.046-.029.038-.088.07-.091.034.005.038.054.026.005.046-.034.026,0,.046.024.026-.04.052-.048.048.029.081.074.017.038-.009.108.009.095.066.138.091.08.117.043.034-.005.034.038.033.046.033.026,0-.026.031-.057.023-.037-.02-.085-.031-.07-.009-.083.038,0,.054-.034.019-.052.026.005.046.088.07.043a.267.267,0,0,0,.052-.108c.019-.076-.026-.062-.026-.114s.011-.043-.014-.057-.04-.048-.011-.057.026-.031-.014-.066-.04-.06-.076-.1-.06-.023-.046.026a.172.172,0,0,1,0,.088Zm-.618.4c.034.009.028-.054-.011-.052s-.024.047.011.054Zm-.174.085c.031.005.031-.042,0-.046s-.032.044,0,.049Zm-.174.119c.043-.011.028-.07-.005-.057-.049.028-.039.073,0,.062Zm1.208.268c.011-.054-.015-.078-.04-.019s.028.078.039.025Zm-.242.108c.024,0,.023-.044,0-.04-.044.011-.025.042,0,.045Zm-1.525-.747c-.029.009-.014-.048-.043-.057s-.009.043-.066.123-.023.076-.074.1-.04.062-.077.088-.052.009-.094,0-.062.046-.119.048-.031.014-.088.088-.114.131-.176.131-.166-.038-.223-.011-.026.062-.031.148-.066.057-.141.034a.246.246,0,0,1-.128-.095c-.034-.034-.06.031-.108.1s-.019.08.009.145.034.043.017.108.005.074.038.117.019.08.048.066.028-.024.052.009a.5.5,0,0,1,.011.228c-.005.114.054.123.18.125s.108.005.119.057.038.066.057.028.043-.019.07.011.054-.009.077-.043.011.005.043.026a.141.141,0,0,0,.108.038.117.117,0,0,1,.123.117c.009.081.029.074.076.046a.323.323,0,0,1,.141-.043c.06-.009.038.06.066.074s.062-.031.066-.1-.038-.029-.04-.08.043-.04.054-.117-.031-.048-.019-.108.06-.07.114-.086.077-.024.054-.108a.141.141,0,0,1,.029-.148c.026-.04.1-.019.159-.005s.081-.019.06-.04-.052-.048-.117-.108-.074-.076-.052-.1.038-.026.011-.062-.043-.011-.052-.081a.259.259,0,0,1,.034-.188c.034-.034.074-.04.145-.019s.043-.028.011-.052-.086-.014-.095-.04.024-.046.088-.043.086.011.091-.014-.011-.038-.074-.07-.048-.038-.088-.074-.077-.019-.108-.054.014-.046-.009-.083-.043-.038-.043-.1-.028-.075-.052.009c-.005.019,0,.043-.031.052Zm-1.454.228c0-.074-.022-.095-.043-.017s.042.095.042.025Zm-.066,1.21c.1.017.086-.13,0-.138a.071.071,0,0,0,0,.142Zm-.359.4c-.054-.009-.029.043.048.076s.06.014.095.052.005.046.1.066.06.043.162.095.108.011.239.043.108.062.233.119a.96.96,0,0,0,.3.088c.119.019.048-.031.1,0s.134.066.2.108.029-.005.005-.034.04-.029.009-.052-.034-.066-.141-.088-.157-.04-.148-.081.06-.017.141-.014.083-.031-.04-.046a.839.839,0,0,1-.266-.062c-.114-.043-.1-.076-.162-.095s-.029.043-.091.046a.55.55,0,0,1-.2-.04c-.088-.029-.07-.062-.168-.108s-.166-.07-.252-.117-.127-.041-.1.019c.011.026-.009.038-.062.028Zm1.568.625c.024.017.009.038.048.04s0-.026.046-.034.009-.035-.074-.054-.046.035-.023.054Zm.245.091c.066,0,.053-.1-.005-.095-.088.011-.062.1,0,.1Zm.243.048c.08-.011.07-.019-.005-.052s-.092-.066-.138-.026c-.07.066.062.088.141.076Zm.06-.108c-.02-.028-.034-.011-.07-.014s-.028.034.014.046.07.009.1.046.04.023.08.029.076-.06.014-.07a.467.467,0,0,1-.137-.034Zm.323.3c.048.034.048.066.117.062s-.005-.043-.06-.083-.086-.083-.166-.086-.07.041-.014.07c.026.014.074,0,.123.034Zm.285-.125c.088,0,.171-.046.07-.043a1.162,1.162,0,0,1-.268-.062c-.114-.023-.131.031-.095.054a2.21,2.21,0,0,0,.29.052Zm.248-.043c.026-.005.019-.04-.038-.038s-.04.046-.014.066.026-.024.052-.029Zm.07.031c.017.009.022-.04-.005-.034-.044.013-.013.029,0,.038Zm.276,0c.052,0,.033-.038-.057-.043s-.085.026-.046.04a.713.713,0,0,0,.108,0Zm.271-.07c.057-.017,0-.044-.091-.014-.07.026.032.033.089.017Zm-.251.141c-.031.029-.062.031-.145.046s-.123.043-.117.117.083.052.159.019.086-.086.133-.119a.252.252,0,0,1,.174-.017c.066.005.04-.04.088-.04s.108-.038.062-.046a.872.872,0,0,0-.215-.009.185.185,0,0,0-.138.048Zm-.713-1.568c.081.024.123-.017.239.014s.108.046.176.066a.168.168,0,0,0,.176-.054c.026-.043.08-.048.1-.108s-.031-.057-.074,0a.177.177,0,0,1-.166.074c-.077,0-.052-.011-.131-.026a1.3,1.3,0,0,1-.176-.04c-.08-.023-.1.005-.131-.043s-.062-.062-.088-.009-.031.06-.108.07-.048.048-.06.117-.034.076-.057.145a.562.562,0,0,0-.043.171c-.014.108-.005.038-.062.1s-.009.108.023.133.04-.009.081.038.017.117,0,.191,0,.137.066.148.07-.077.074-.154.005-.108.011-.168-.038-.06-.023-.1.043-.076.083-.074.07.046.054.117,0,.08.052.117.043.043.046.1a.048.048,0,0,0,.086.026c.02-.026.031-.034.08-.024s.06,0,.04-.038-.057-.04-.081-.108.02-.08-.026-.117a1.183,1.183,0,0,1-.119-.141c-.043-.048.02-.043.07-.057a.256.256,0,0,0,.108-.043c.031-.026.077-.086.031-.1s-.108.029-.154.024-.062-.024-.095.04-.07.026-.114.011,0-.048-.034-.074-.062-.052-.062-.076a.266.266,0,0,1,.052-.166.229.229,0,0,1,.157.009Zm.314.257a.282.282,0,0,1,.052.034c.034.026.03-.066-.026-.077s-.04.037-.026.042Zm.011.108c.043.009.07-.057,0-.057-.054,0-.045.049,0,.058Zm.083.031c.014.005.026-.056,0-.054s-.017.049,0,.056Zm-.057.414c0-.017-.014-.037-.038,0s.031.015.034,0Zm-.114.08c-.034.005-.029.06-.014.076s.023,0,.04-.026.017.023.009.07.038.04.038.019,0-.034.038-.038-.005-.038-.023-.066.017-.014.028-.034-.008,0-.052-.014a.308.308,0,0,0-.062.011Zm.459-.43c.054,0,.028-.046-.057-.054s-.081.026-.048.04a.449.449,0,0,0,.1.015Zm.191.231c-.023.029.017.076.1.091s.114-.023.086-.043-.038-.06-.108-.062c0,0-.054-.014-.076.014Zm.285-.225c.06.017.07-.044,0-.06s-.063.044,0,.061Zm-.06-.237c-.034,0-.04.031-.014.054s.04,0,.048-.026c0,0,0-.026-.033-.029Zm.048-.074c0,.06.019.057.034.095a.117.117,0,0,0,.06.07c.026.011-.011-.034-.014-.066s-.043-.062-.038-.091,0-.066.043-.048.054.026.077.011.005-.031-.026-.043-.052-.054-.009-.052.046-.018.052-.054c.009-.057.009-.091-.026-.062s-.046.074-.086.1a.669.669,0,0,0-.07.04c-.024.017-.014.034,0,.054a.057.057,0,0,1,0,.048Zm.159-.364c.014-.046-.013-.051-.046,0s.028.047.042,0Zm-.162.205c.038.005.057-.026.057-.07s-.011-.1-.066-.034c-.038.043-.029.1.009.108Zm.459.544c.057.009.043-.065-.005-.057-.092.015-.056.049,0,.058Zm-.227.19c.014.005,0,.026.054.033s.052.011.043-.017.005-.014.057,0a.3.3,0,0,1,.145.091c.057.054.066-.017.02-.07a.184.184,0,0,0-.129-.074.294.294,0,0,0-.131-.014c-.043,0-.091-.009-.166-.005s-.095.026-.057.04.031-.009.048.024,0,.046-.06.04.028.031.08.026.028-.048.06-.062a.046.046,0,0,1,.034-.009Zm.416-.59c.009-.031,0-.065-.029-.034s.016.067.025.035Zm-.152.108c.026.029.057.04.123.026s.046-.062-.011-.062c-.091,0-.138.009-.108.038Zm.031.123c.026.026,0,.026.054.062s.04.031.117.023.07.005.083.07.054.054.119.057a1.864,1.864,0,0,0,.254,0c.048-.009.023-.066.029-.131s-.014-.095-.091-.108-.108-.031-.2-.048-.108.043-.147.048-.062-.014-.083.019-.04.052-.048.029a.1.1,0,0,0-.07-.06c-.038-.011-.04.014-.014.04Zm.538.285c-.043-.034-.062-.017-.108.017s-.026.011-.083-.011-.08.017-.038.04.02,0,.06.029a.154.154,0,0,1,.07.137c0,.076.088,0,.108-.066s.019,0,.08.048.062.014.125.048a.985.985,0,0,0,.316.108.461.461,0,0,1,.307.157.446.446,0,0,1,.168.231c.038.081.011.06-.04.038a.125.125,0,0,0-.171.046c-.06.08-.108.088.009.108s.154.011.2-.031.117-.019.2-.005.088.119.195.152.043.009.1,0,.123.06.162.023a1,1,0,0,1,.108-.108c.054-.04.052.017.1-.005s.052-.066.07-.119.043-.026.07-.06.034-.034.076-.009a.333.333,0,0,0,.171.034c.07,0,.08.091.215.2s.171.108.245.1a2.15,2.15,0,0,1,.215.011c.039,0-.014.052.1.046.063,0,.077-.042.048-.062a.492.492,0,0,0-.1-.034c-.063-.024-.043-.031-.088-.054s0-.06-.028-.076-.011.019-.108-.009-.06-.052-.148-.128-.091-.06-.131-.145-.028-.083.043-.076.091.017.095-.031-.054-.052-.145-.076-.088-.029-.171-.052-.031-.046-.057-.108-.07-.046-.188-.108a.691.691,0,0,0-.342-.08c-.195-.019-.254-.114-.359-.123a1.241,1.241,0,0,1-.291-.057c-.128-.038-.176-.088-.271-.088s-.07.046-.134.088-.095.009-.128.07a.387.387,0,0,1-.131.123.127.127,0,0,1-.166-.023.772.772,0,0,1-.086-.108c-.023-.04-.046-.041-.07.009-.011.023-.026.048-.07.014Zm.186.711c.062.009.08-.074.046-.157s-.03-.137-.076-.052-.037.2.025.21Zm-.621.095c0,.04-.019.009-.043.07s.038.04.057,0,.062-.048.091-.108,0-.074-.054-.023c0,0-.054.017-.052.057Zm-.233.034c.038.009.024-.054-.017-.054S24.776,50.074,24.812,50.082Zm1.111-1.069c.009.034.052.026.076.014s-.023-.054-.074-.086-.1-.019-.046.017a.1.1,0,0,1,.043.054Zm.086.108c.08,0,.033-.057-.088-.038-.084.014.01.037.089.037Zm1.925-.02c.108-.011.108-.043,0-.043s-.083.04-.011.046m.684-.017c-.081-.04-.141-.015-.114.017s.07,0,.145.023a.768.768,0,0,1,.215.1c.07.046.083.023.091.108s.07.108.07.026,0-.083-.108-.141a2.628,2.628,0,0,0-.3-.125Zm.182.251c-.023-.011-.048.023-.019.06s.026.023.08.046.057-.011.048-.054-.028-.08-.07-.057a.035.035,0,0,1-.04.005Zm-.162.223c-.048.034-.048.026-.125.038s-.168-.005-.273,0-.019.034.034.066.074.009.138.029a.174.174,0,0,0,.157-.017.332.332,0,0,1,.137-.06c.06-.011.034-.062.077-.076s.08.009.074-.023a.07.07,0,0,0-.085-.054c-.074.009-.083.066-.131.1Zm.767.07a.055.055,0,0,0,.086.04q.043-.026-.009-.076c-.034-.034-.038-.04-.086-.095s-.091-.052-.052.038a.215.215,0,0,1,.06.095Zm.339.076c.052.014.1,0,.048-.014s-.031-.023-.108-.062-.117-.04-.048.023a.352.352,0,0,0,.108.053Zm.416.1c.028-.017-.04-.07-.138-.095s-.086-.024-.017.038c.026.024.125.074.154.057Zm-.345.086c.038.034.062.029.062,0s-.046-.07-.1-.088-.1,0-.029.043a.19.19,0,0,1,.066.043Zm.562.026c.081.066.086.019.046-.017s-.028-.028-.06-.086-.066-.108-.07-.005c0,0,0,.043.083.108Zm-.085.07c.043-.011-.005-.066-.108-.06s-.091.04-.009.06a.337.337,0,0,0,.111,0Zm.245.108c.031,0,.031-.043-.024-.054s-.123-.005-.07.031a.366.366,0,0,0,.092.019Zm.667.538a.07.07,0,0,0-.023-.108c-.043-.017-.022-.079-.046.011-.017.062.046.123.07.091Zm.04.091c.031.011.043-.052-.005-.048s-.026.033.005.045Zm.1.152c.04,0,.029-.066-.014-.054s-.027.054.013.051Zm-.019-.294c.029.009.031-.039,0-.034s-.029.023,0,.031ZM31.4,51c.034,0,.031-.043,0-.038s-.034.028,0,.031Zm0,.091c.029,0,.028-.043-.009-.038s-.026.028,0,.031Zm1.172-.613c-.083.083.04.057.131,0s.076-.138,0-.1a.271.271,0,0,0-.135.094Zm.215-.205c.017.019.06-.009.129-.07s.07-.089-.029-.048c-.054.024-.117.1-.1.119ZM30.748,51.4c-.117-.086-.171-.095-.134,0s.141.095.243.141.19.031.085-.029l-.194-.108Zm.323-.048c.023-.019,0-.041-.026-.026s0,.04.021.019ZM31.133,53a.485.485,0,0,1-.166.119c-.08.038-.033.066.017.048s.031.019-.031.07-.074.054-.023.043a.956.956,0,0,0,.254-.157c.145-.108.066-.06.123-.123s.125-.066.215-.125.062-.081.031-.076-.037.038-.108.08-.131.046-.108.009.011-.081-.024-.048-.046.057-.07.026.014-.034.026-.083-.028-.048-.07-.057-.043-.04-.048.023.043.095.043.128a.176.176,0,0,1-.052.125Zm-.7.515c-.174.091-.382.159-.576.271s-.2.133-.095.119a.421.421,0,0,0,.259-.08c.162-.1.195-.114.195-.114l.154-.091a3.554,3.554,0,0,0,.387-.234c.083-.07.062-.088.014-.07s-.057.038-.046.014-.009-.031-.074.014a.552.552,0,0,1-.223.176Zm-2.9-2.473a1,1,0,0,1-.095-.052c-.066-.041-.07.043-.128-.017s-.057-.019-.04-.1.005-.07-.031-.125a.646.646,0,0,1-.066-.123c-.029-.062.005-.108-.066-.108s-.07.057-.085.123-.062.06-.07.166a1.055,1.055,0,0,0-.026.237.406.406,0,0,1-.074.3c-.07.125-.125.162-.215.157a.193.193,0,0,1-.154-.083c-.043-.046-.114-.024-.2-.081s-.054-.052-.157-.07a.352.352,0,0,1-.186-.088c-.086-.057-.108-.062-.095-.108s.011-.043.046-.07.009-.07.043-.108a.294.294,0,0,1,.088-.084c.054-.031.095-.052.048-.08s-.054.019-.108.043-.04-.017-.114-.057-.048.017-.145,0a1.158,1.158,0,0,1-.195-.038c-.108-.034-.108-.048-.225-.088a.421.421,0,0,0-.252-.019c-.117.011-.162.048-.141.08s.083,0,.174,0,.014-.038.074-.031a.192.192,0,0,1,.152.06c.038.048-.011.038-.1.034a.405.405,0,0,0-.245.043c-.048.043-.1.076-.07.123s-.034.06-.108.108-.07.023-.123.083-.119.108-.138.046,0-.062-.06-.125-.062-.052-.141-.066-.023.029-.07.043-.017-.04-.07-.009-.023.043-.074.043-.081.028-.07.07-.066.017-.131.043.014.1-.019.141-.043-.024-.108-.043-.011.057,0,.114-.04.062-.076-.005-.057-.062-.114-.031-.038.08-.023.114,0,.054-.066.091-.017.07-.095.123-.06.026-.191.034a1.2,1.2,0,0,0-.271.04c-.086.024-.252-.031-.342,0s-.114.074-.2.074-.046.088-.08.083-.031-.08-.054-.066-.029.07.005.123-.014.06-.026.108.009.095.083.162.1.157.06.145-.081-.031-.038.031a2.3,2.3,0,0,0,.228.266c.1.108.04.066.108.171a.6.6,0,0,0,.138.154.316.316,0,0,1,.038.186c-.009.08-.034,0-.046.031s.026.04.091.052.023.038.088.07a.753.753,0,0,0,.323.04.562.562,0,0,0,.176-.07,1.126,1.126,0,0,1,.323.029c.086.017.154.054.248,0s.031-.062.119-.076.1,0,.154-.026.1.017.3,0a.951.951,0,0,0,.194-.031c.077-.011.188,0,.248-.005a.591.591,0,0,1,.215.048c.086.031.083-.009.125.023s.052.017.131.019.04.011.083.023.057.023.017.034.037.037.07.043.074.062.117.131.048.048.088,0a.287.287,0,0,1,.131-.08.234.234,0,0,0,.134-.076c.06-.062.046-.009.017.054s-.031.023-.04.07-.017.052-.076.06.038.026.095.009.019-.04.052-.062.046.026.062.07,0,.031-.054.048a.166.166,0,0,1-.117,0c-.06-.011-.08.009-.083.038s.038.011.123.009.029,0,.148-.046.06-.011.117.026a.122.122,0,0,1,.062.114c.005.048.074.057.148.074a1.739,1.739,0,0,0,.188.011.338.338,0,0,0,.225,0c.114-.038.128-.083.176-.054a.215.215,0,0,0,.185.06.421.421,0,0,0,.215-.1c.074-.046.134,0,.251-.046s.091-.108.174-.215a1.43,1.43,0,0,1,.294-.276.633.633,0,0,0,.215-.215,1.381,1.381,0,0,0,.137-.215c.04-.083.031-.076,0-.145s.011-.06.009-.157.014-.1.057-.128.048-.066.017-.088-.011.029-.052.07-.223-.083-.271-.125-.017-.066-.06-.133-.1.005-.159-.011-.06-.108-.095-.182-.145-.117-.266-.152-.18-.083-.194-.159,0-.1-.029-.145a.282.282,0,0,1-.062-.188.115.115,0,0,0-.07-.134Zm-1.487-.015a.039.039,0,1,0,0-.077c-.058-.009-.052.069,0,.072Zm1.17,2.93c-.1-.011-.08.027-.038.065s.015.049.084.108.121.008.19-.03a.322.322,0,0,0,.141-.117c.049-.07-.019-.044-.084-.024a.844.844,0,0,1-.292,0Zm.406-.076c.038,0,.031-.046-.008-.046s-.033.04,0,.04ZM15.435,42.969c-.046.364-.076.968-.03.7a7.1,7.1,0,0,1,.228-.76c.03-.121-.081-.164-.115-.472C15.518,42.437,15.48,42.6,15.435,42.969Z" transform="translate(-15.604 -33.895)" fill="url(#g)"/><ellipse cx="7.807" cy="6.713" rx="7.807" ry="6.713" transform="translate(2.326 -0.602)" fill="url(#h)" style="mix-blend-mode:screen;isolation:isolate"/><path d="M36.536,55.8c0,3.768-5.068,6.822-11.323,6.822S13.892,59.57,13.892,55.8s5.068-6.822,11.323-6.822S36.536,52.037,36.536,55.8Z" transform="translate(-15.162 -38.398)" fill="url(#i)" style="mix-blend-mode:multiply;isolation:isolate"/></g><path d="M132.737.431H0V-1.061H132.737Z" transform="translate(-22009.133 -5532.65)" fill="#1e2971"/><path d="M1.6,21.1.035,25.474a.6.6,0,0,0,.568.8H13.361a.6.6,0,0,0,.147-.018c.4-.1,2.268-.619,2.86-1.755.562-1.083-1.312-2.806-1.887-3.3a.593.593,0,0,0-.371-.141L2.176,20.7a.6.6,0,0,0-.586.4Z" transform="translate(-22024.428 -5557.115)" fill="#1d2088"/><path d="M225.023,26.97l1.33-3.728a.921.921,0,0,0-.869-1.231H213.22a.891.891,0,0,0-.225.028c-.468.12-2.247.645-2.822,1.745-.538,1.03,1.135,2.64,1.794,3.219a.914.914,0,0,0,.576.226l11.581.357a.923.923,0,0,0,.9-.612Z" transform="translate(-22086.768 -5557.503)" fill="#1d2088"/><g transform="translate(-21955.955 -5540.223)" clip-path="url(#j)"><path d="M103.743,24.144c.046.132-.01.233,0,.334.007.048,0,.1.059.122s.081-.032.1-.074a9.657,9.657,0,0,1,.747-1.132c.156-.2.274-.428.52-.529.133-.052.252-.138.38-.195a1.84,1.84,0,0,0,.822-.987,3.872,3.872,0,0,1,.675-.868,2.765,2.765,0,0,1,1.039-.722,2.888,2.888,0,0,0,.665-.444c.691-.51,1.282-1.147,2.019-1.6a2.343,2.343,0,0,0,.391-.334.547.547,0,0,0,.17-.555,2.014,2.014,0,0,1-.056-.8.323.323,0,0,1,.059-.173c.029-.031.057-.067.1-.048s.037.052.037.088a.616.616,0,0,0,.024.245c.016.04.04.075.087.077s.061-.043.08-.08a5.664,5.664,0,0,0,.429-1.584,4.969,4.969,0,0,1,.45-1.41c.15-.293.252-.61.394-.909.468-.987.9-2,1.339-2.994a.507.507,0,0,1,.432-.665.687.687,0,0,0,.34-.133.285.285,0,0,1,.127-.066,3.9,3.9,0,0,1,1.991.032,2.858,2.858,0,0,1,1.155.8,5.854,5.854,0,0,0,.675.78.657.657,0,0,1,.125.831c-.285.706-.57,1.408-.883,2.1a6.036,6.036,0,0,1-2.222,2.726,7.3,7.3,0,0,1-1.477.741c-.412.148-.82.312-1.236.464-.1.04-.156.129-.23.2-.839.827-1.65,1.68-2.553,2.449a9.062,9.062,0,0,1-3.053,3.221,6.726,6.726,0,0,1-.925,1.361c-.13.2-.359.3-.494.5-.181.26-.265.57-.419.845a3.141,3.141,0,0,1-.35.549c-.309.356-.561.761-.891,1.1a4.611,4.611,0,0,1-.442.458c-.475.372-.9.817-1.386,1.174a.692.692,0,0,0-.3.355c-.024.085-.086.076-.148.068a13.33,13.33,0,0,1-1.507-.231,12.081,12.081,0,0,0-2.765-.322c-.343,0-.5-.042-.559-.3a2.211,2.211,0,0,0-.208-.475.653.653,0,0,1-.04-.665,7.012,7.012,0,0,0,.57-1.682,2.851,2.851,0,0,1,.291-.611.276.276,0,0,1,.162-.12.886.886,0,0,0,.449-.342,2.491,2.491,0,0,1,.578-.463,5.75,5.75,0,0,0,.987-.865c.062-.061-.018-.35-.115-.42s-.159.027-.222.083a6.43,6.43,0,0,1-.924.657c-.034.021-.074.061-.109.025a.1.1,0,0,1,.01-.133c.337-.333.475-.846.976-1.032a.548.548,0,0,0,.268-.329c.021-.048.057-.11.122-.087s.027.085.023.129c-.009.1,0,.19.1.227s.125-.064.182-.108a1.657,1.657,0,0,0,.415-.71c.087-.2.142-.434.231-.648a1.818,1.818,0,0,1,.2-.36.873.873,0,0,0,.161-.723.562.562,0,0,1,.024-.346,2.8,2.8,0,0,0,.156-.684A4.352,4.352,0,0,1,102,17.869c.08-.171.293-.247.415-.415A4.659,4.659,0,0,0,103,16.369c.146-.392.352-.761.52-1.141.211-.489.5-.937.731-1.415a1.983,1.983,0,0,1,.364-1,.832.832,0,0,1,.293-.333c.22-.133.225-.211.041-.4-.029-.029-.061-.055-.1-.085-.125-.124-.11-.183.062-.241.131-.044.337-.107.292-.229-.057-.156-.237,0-.364.01a.309.309,0,0,0-.2.135,2.618,2.618,0,0,1-.511.537.279.279,0,0,0-.09.2c-.006.045,0,.11-.061.113s-.077-.052-.1-.1a.618.618,0,0,1,.156-.665c.369-.415.75-.816,1.108-1.236a2.987,2.987,0,0,0,.631-1.358,1.784,1.784,0,0,1,.359-.824,9.666,9.666,0,0,1,.919-2.862A11.788,11.788,0,0,1,108.5,3.262a4.42,4.42,0,0,0,.488-.7c.295-.534.451-.665.856-.489a1.354,1.354,0,0,0,.437.116,2.334,2.334,0,0,1,1.891,1.285.874.874,0,0,0,.208.511c.3.3.223.491-.086.846-.1.109-.169.231-.255.345-.179.241-.326.5-.5.745-.26.369-.512.744-.783,1.107a7.087,7.087,0,0,1-.769.9c-.225.216-.428.475-.639.71s-.483.451-.723.675a15.672,15.672,0,0,0-1.806,1.879,1.165,1.165,0,0,0-.49.545c-.075.225-.268.38-.358.6a8.742,8.742,0,0,1-.865,1.442,6.7,6.7,0,0,0-.78,1.961c-.18.657-.269,1.331-.443,1.99-.067.252-.183.487-.266.734A9.32,9.32,0,0,0,103.36,20a6.215,6.215,0,0,1-.566,2.1,16.488,16.488,0,0,1-.681,1.539c-.074.149-.19.274-.263.415a4.544,4.544,0,0,0-.607,1.454c-.024.167.03.228.19.231a.931.931,0,0,0,.57-.247c.576-.436,1.164-.856,1.726-1.351Z" transform="translate(-94.692 -2.368)" fill="url(#k)"/></g><path d="M10.626-2.122a12.722,12.722,0,1,1-4.959,1,12.722,12.722,0,0,1,4.959-1Zm0,22.511a9.764,9.764,0,1,0-6.9-2.859,9.764,9.764,0,0,0,6.9,2.859Z" transform="translate(-22013.828 -5527.747)" fill="#1e2971"/><path d="M-52.188-9.852c.4.336.492.684.552,1.5a.707.707,0,0,0,.72.72.882.882,0,0,0,.876-.96c0-.792-.828-1.32-2.112-1.356C-52.224-9.948-52.248-9.9-52.188-9.852Zm.276,5.22a.85.85,0,0,0,.864-.948c0-.648-.72-1.236-2-1.224-.072,0-.084.048-.036.1a1.691,1.691,0,0,1,.492,1.32C-52.584-4.908-52.332-4.632-51.912-4.632ZM-50.544-2.8c.2-1.188.708-3.624,1.26-6.228.012-.072-.108-.108-.132-.036-.9,2.6-1.668,4.644-2.28,6.144-.168.408-.312.648-.672.648-.12,0-.288-.012-.444-.024-.072,0-.084.12-.012.144a1.24,1.24,0,0,1,.96,1.14c0,.348-.072.948-.072,1.224,0,.456.24.792.864.792A.95.95,0,0,0-50,.06c0-.612-.6-1.308-.6-1.992A4.566,4.566,0,0,1-50.544-2.8Zm5.3-4.4V-9.336c.324-.18.444-.264.444-.4,0-.168-.144-.288-1.98-.456A29.276,29.276,0,0,1-46.7-7.2h-.948a4.733,4.733,0,0,0-1.656-.456c.048.564.048,1.044.048,1.776,0,1.284-.1,2.532-.1,2.8,0,.3.084.42.516.42.636,0,.924-.144.924-.48v-.4h1.2C-46.74-.444-46.8.432-46.8.648c0,.384.108.432.636.432.672,0,1-.156,1-.5,0-.2-.048-1.02-.072-4.116h1.3v.348c0,.372.12.456.648.456.66,0,.936-.156.936-.492,0-.252-.084-1.488-.084-2.76V-6.4c.336-.276.384-.324.384-.432s-.048-.18-.564-.6-.576-.432-.7-.432-.156.036-.756.66Zm0,3.42V-6.96h1.3v3.18Zm-2.676,0V-6.828c.108-.06.192-.1.24-.132h.972V-5.2l-.012,1.416Zm8.424-4.032a1.992,1.992,0,0,1,.624,1.5c.036.408.192.648.6.648a.734.734,0,0,0,.708-.78,1.2,1.2,0,0,0-.5-.984c.48-.564.912-1.092,1.368-1.644.444-.12.528-.18.528-.372s-.18-.3-1.74-.756a4.988,4.988,0,0,1-.072.552c-.156.8-.288,1.38-.456,1.992a2.983,2.983,0,0,0-1-.276C-39.5-7.944-39.552-7.848-39.492-7.812Zm2.94,4.788A2.14,2.14,0,0,1-36.24-1.5c-.012.468.2.672.516.672.384,0,.672-.264.672-.84,0-.636-.516-1.26-1.5-1.536V-4.02c.144-.108.192-.168.192-.264,0-.036-.012-.072-.1-.1l.264-.1v.228c-.012.456.2.672.528.672a.7.7,0,0,0,.7-.792c0-.684-.6-1.272-1.584-1.512-.072-.012-.12.06-.072.108a1.455,1.455,0,0,1,.408.948c-.48.012-.864.012-1.26,0,.708-.864,1.224-1.524,1.836-2.388.372-.084.492-.144.492-.288,0-.168-.108-.264-1.5-.84a8.043,8.043,0,0,1-.252.78c-.42,1.152-.732,1.944-1.08,2.724-.24,0-.5-.012-.792-.024s-.624-.036-.912-.06c.48,1.536.528,1.632.7,1.632.084,0,.132-.06.264-.336.348-.108.66-.216.96-.312v1.272A8.907,8.907,0,0,0-39-3.144a6.5,6.5,0,0,1-.048.756,11.421,11.421,0,0,1-.6,2.916c-.036.06.06.12.108.072a8.351,8.351,0,0,0,1.572-2.82,1.286,1.286,0,0,0,.2-.072c-.012,1.416-.06,2.664-.06,2.928,0,.336.1.456.48.456.72,0,.852-.228.852-.564,0-.264-.06-1.476-.06-2.8Zm5.28,1.08h1.128V-1.8c0,.372.1.444.456.444.708,0,.96-.228.96-.576,0-.264-.072-1.212-.072-1.86v-.372c.36-.288.384-.324.384-.432s-.06-.192-.5-.552c-.576-.456-.624-.468-.744-.468s-.156.036-.648.576h-.96V-6.372h.864v.084c0,.3.108.384.48.384.576,0,.948-.144.948-.54,0-.3-.072-1.224-.072-1.692V-8.8c.252-.18.276-.216.276-.312s-.024-.156-.444-.468c-.564-.42-.6-.432-.72-.432s-.156.024-.6.564h-2.64a5.6,5.6,0,0,0-1.464-.5c.036.4.036.756.036,1.74,0,.9-.06,1.992-.06,2.232,0,.3.048.348.4.348.624,0,.9-.072.9-.42v-.324h.8V-5.04H-33.4c-.108-.12-.444-.228-1.5-.48.048.708.06,1.152.06,1.9,0,.9-.06,1.836-.06,2.028,0,.372.084.444.5.444.516,0,.78-.156.78-.624v-.168h1.02c-.012,1.068-.024,1.6-.024,1.752,0,.924.348,1.128,2.208,1.128,2.076,0,2.4-.276,2.4-.78a.964.964,0,0,0-.18-.528A.862.862,0,0,1-28.32-.96a8.338,8.338,0,0,1,.12-.876c.012-.072-.06-.084-.1-.024a6.247,6.247,0,0,1-.588,1.008c-.288.4-.528.444-1.548.444-.756,0-.84-.06-.84-.42Zm-2.34-.24V-3.372h1.032l-.012,1.188Zm1.032-1.428h-1.032V-4.62A.719.719,0,0,0-33.4-4.8h.828ZM-30.144-4.8v1.188h-1.128V-4.8Zm-1.128,2.616V-3.372h1.128v1.188Zm-2.1-5.6h.8v1.176h-.8ZM-32.58-9.2c.012.18.012.48.012,1.176h-.8V-9.06a.908.908,0,0,0,.2-.144Zm2.172,0v1.176h-.864v-.936c.144-.1.18-.132.18-.24Zm-.864,2.592V-7.788h.864v1.176Zm12.564-3.4a1.21,1.21,0,0,1,.492.936c.036.444.228.636.6.636a.674.674,0,0,0,.708-.732c0-.7-.888-.984-1.752-.948C-18.732-10.116-18.768-10.044-18.708-10.008Zm3.684,1.692c.084-.012.132-.06.132-.132s-.048-.132-.516-.492c-.528-.408-.564-.408-.684-.408-.1,0-.132.024-.744,1.056l-1.944.276a5.13,5.13,0,0,1-.372-1.272c.264-.12.348-.192.348-.36,0-.144-.264-.336-1.932-.36a7.574,7.574,0,0,1,.276,1.116,6.937,6.937,0,0,0,.3,1.068l-.564.084c-.252.036-.852.1-1.488.12l.2.4A11.367,11.367,0,0,1-20.7-7.5l.636-.1a5.509,5.509,0,0,0,.816,1.356,4.6,4.6,0,0,0,.972.828l-.132.144h-3.636a3.165,3.165,0,0,0-1.116-.36c.348-.06.54-.192.54-.444,0-.12-.012-.516-.012-.888v-.792c.3-.12.348-.192.348-.276s-.108-.18-.516-.252c.264-.276.5-.552.732-.84.432-.072.492-.144.492-.288s-.18-.276-1.776-.792a6.519,6.519,0,0,1-.3.732,10.786,10.786,0,0,1-2.46,3.384c-.06.048.024.132.084.108A9.811,9.811,0,0,0-24-7.2l-.012.192c-.024.372-.072.864-.072,1.1,0,.2.12.276.348.288.036.516.036,1.128.036,2.124,0,.828-.072,1.884-.072,2.256,0,.312.072.42.528.42.612,0,.9-.132.96-.456h.24a2.209,2.209,0,0,1-.312.336A8.923,8.923,0,0,1-25.9.948c-.072.012-.048.12.024.12A12.811,12.811,0,0,0-21.108-.06c.48,0,.612-.072.612-.228s-.1-.252-1.356-.984h3.528c.012.156.036.252.12.312-.492-.048-1.092-.06-1.812-.06-.072,0-.084.132-.012.144A6.817,6.817,0,0,1-17.052.672a1.234,1.234,0,0,0,.876.456A.707.707,0,0,0-15.444.42c0-.492-.468-.948-1.44-1.188-.216-.048-.456-.1-.732-.132.636-.024.864-.192.864-.54,0-.3-.084-1.212-.084-2.292v-.7a2.9,2.9,0,0,0,.3-.264,4.625,4.625,0,0,0,.792.072c.576,0,.864-.264.864-.7A.664.664,0,0,0-15.1-5.8a.61.61,0,0,1-.252-.5,5.892,5.892,0,0,1,.192-1.128c.012-.072-.06-.108-.1-.048C-15.9-6.384-16.128-6.2-16.416-6.2a1.676,1.676,0,0,1-.468-.084A2.911,2.911,0,0,1-18.3-7.272a2.693,2.693,0,0,1-.372-.516Zm-7.248,4.3v-.852a.712.712,0,0,0,.216-.156h3.732V-4.02Zm0,1.248V-3.78h3.948v1.008Zm0,.24h3.948v1.02h-3.948Zm12.564-3.18,3.216-1.02c.084-.024.108-.06.108-.156S-6.48-7.032-7-7.32c-.588-.336-.66-.348-.744-.348s-.108.072-.624,1.26l-1.344.432V-8.652c.36-.132.5-.228.5-.408s-.312-.312-1.908-.54a31.519,31.519,0,0,1,.06,3.192v.852l-.264.084c-.348.108-.8.24-1.344.36l.24.336a11.54,11.54,0,0,1,1.176-.456l.192-.06C-11.064-3.876-11.1-2.916-11.1-2.6c0,1.1.408,1.368,1.716,1.368,1.788,0,2.34-.324,2.34-.936a.717.717,0,0,0-.228-.564c-.156-.192-.168-.288-.156-.684.012-.276.036-.564.084-1.1.012-.072-.06-.084-.1-.024a12.033,12.033,0,0,1-.708,1.356,1.178,1.178,0,0,1-1.128.516c-.348,0-.432-.084-.432-.42ZM-6.6-8.544a12.9,12.9,0,0,1-1.38-.084l.12.408A11.675,11.675,0,0,1-6.6-8.3h.456c.084,3.276-.108,4.944-.624,6.18A5.647,5.647,0,0,1-10,.912c-.072.024-.036.144.036.132A6.553,6.553,0,0,0-5.7-1.632C-4.932-2.868-4.56-4.512-4.572-8c.24-.1.312-.18.312-.3h1a40.923,40.923,0,0,1-.324,6.66c-.168.816-.42.984-.78,1.032a6.392,6.392,0,0,1-1.38-.012c-.072,0-.072.108,0,.132A1.642,1.642,0,0,1-4.536.7c.06.24.192.336.48.336A1.846,1.846,0,0,0-2.244-.432c.348-1.068.432-2.592.48-7.356.3-.228.348-.3.348-.4s-.036-.192-.468-.552c-.552-.468-.624-.48-.744-.48s-.168.036-.744.672Zm12.3.816c.408-.444.744-.852,1.224-1.416.432-.168.516-.24.516-.42s-.084-.276-2.172-.672c0,.228-.012.468-.024.612-.06.732-.144,1.308-.24,1.9h-.24c-.1-.156-.468-.324-1.812-.624C3-7.644,3-7.164,3-4.116,3-1,2.952.372,2.952.564c0,.372.108.444.612.444.684,0,.984-.156.984-.624V-.084H8.892v.54c0,.372.1.444.624.444.816,0,1.092-.228,1.092-.576,0-.264-.072-1.284-.072-5.8v-1.5c.372-.324.4-.348.4-.468s-.024-.168-.612-.624-.648-.48-.792-.48c-.12,0-.168.024-.816.816ZM4.548-.324V-2.64H8.892V-.324Zm4.344-4.74V-2.88H4.548V-5.064Zm0-2.424V-5.3H4.548v-2a.719.719,0,0,0,.216-.18ZM22.92-9.2c.372.2.516.456.7,1.068.132.468.348.624.672.624a.709.709,0,0,0,.7-.72c0-.624-.684-1.176-2.04-1.08C22.872-9.312,22.86-9.24,22.92-9.2Zm-6.4,7.032a1.7,1.7,0,0,1-.876,1.656A.809.809,0,0,0,15.2.24a.754.754,0,0,0,.78.744A1.216,1.216,0,0,0,17.232-.372a3.161,3.161,0,0,0-.576-1.848C16.62-2.28,16.524-2.244,16.524-2.172Zm1.668.312c-.072-.024-.144.048-.1.1A2.151,2.151,0,0,1,18.408-.18c-.012.132-.036.288-.036.408a.671.671,0,0,0,.72.708.9.9,0,0,0,.9-1C19.992-.732,19.488-1.488,18.192-1.86Zm2.232-.132c-.072-.012-.132.048-.084.1a2.456,2.456,0,0,1,.7,2A.719.719,0,0,0,21.8.9a.9.9,0,0,0,.864-.984C22.668-.864,22.032-1.68,20.424-1.992Zm2.316.048c-.072,0-.132.084-.072.12a2.569,2.569,0,0,1,1.248,2,.758.758,0,0,0,.792.756.9.9,0,0,0,.9-.972C25.608-1.08,24.636-1.812,22.74-1.944Zm3.036-4.44a.117.117,0,0,0,.132-.12c0-.072-.024-.108-.384-.468-.612-.624-.66-.636-.756-.636s-.12.012-.8.984H22.572c.024-.252.048-.516.048-.78.012-.864.036-1.356.036-1.908.324-.156.384-.24.384-.372,0-.168-.132-.312-1.8-.492.036.4.06.864.06,2.088a11.249,11.249,0,0,1-.1,1.464h-1c.108-.252.216-.516.312-.792.42-.3.444-.336.444-.432,0-.12-.036-.192-.528-.588-.552-.444-.612-.48-.732-.48s-.18.048-.78.756H17.9c.216-.324.42-.66.6-1,.372-.108.432-.156.432-.3s-.216-.276-1.956-.732a3.434,3.434,0,0,1-.132.768,10.542,10.542,0,0,1-2.184,4.428c-.048.048.024.12.084.084a8.467,8.467,0,0,0,1.2-.948,1.085,1.085,0,0,1,.36.768,2.847,2.847,0,0,1,.036.54A.535.535,0,0,0,16.92-4,.588.588,0,0,0,17.3-4.14,8.051,8.051,0,0,1,14.64-1.9c-.06.036-.012.132.06.108a8.419,8.419,0,0,0,5.4-4.6h1.068c-.36,2.232-1.476,3.768-3.324,4.356-.072.024-.036.144.036.132a5.16,5.16,0,0,0,4.656-4.488h.024A5.459,5.459,0,0,0,23.028-3.6a3.567,3.567,0,0,0,1.356,1.548.658.658,0,0,0,.348.132.239.239,0,0,0,.2-.132,2.353,2.353,0,0,1,1.128-1.056c.072-.024.084-.084.012-.108a6.508,6.508,0,0,1-2.112-1.2,3.337,3.337,0,0,1-1.3-1.968Zm-9.708.42a13.5,13.5,0,0,0,1.044-1.128.755.755,0,0,1,.3.54,2.748,2.748,0,0,1,.036.468.447.447,0,0,0,.492.5.531.531,0,0,0,.288-.084,10.2,10.2,0,0,1-.7,1.2.916.916,0,0,0,.06-.324C17.592-5.352,17.016-5.868,16.068-5.964ZM19.056-7.92a12.872,12.872,0,0,1-.48,1.452c-.072-.42-.528-.744-1.344-.78.18-.216.348-.444.5-.672ZM39.12-6.78a.1.1,0,0,0,.12-.108c0-.108-.06-.168-.492-.6-.636-.648-.672-.66-.792-.66s-.144.024-.96,1.128H35.808V-9.348c.372-.168.48-.252.48-.4,0-.192-.216-.3-1.992-.42a15.871,15.871,0,0,1,.1,2.136V-7.02H32.976A11.491,11.491,0,0,1,31.632-7.1l.12.408a7.583,7.583,0,0,1,1.224-.084h.72a13.289,13.289,0,0,1-2.472,5.472V-6.06c.3-.12.372-.2.372-.312,0-.132-.132-.24-.828-.5a16.452,16.452,0,0,0,1.164-1.992c.432-.12.54-.216.54-.384s-.216-.312-1.86-.936a7.838,7.838,0,0,1-.276,1.152,19.638,19.638,0,0,1-2.184,4.9c-.048.06.048.144.108.1a10.338,10.338,0,0,0,1.572-1.584l-.036,3.5c-.024,1.668-.072,2.484-.072,2.8s.072.408.528.408c.648,0,1-.18,1-.516,0-.2-.012-.588-.012-1.668a9.373,9.373,0,0,0,3.18-3.636l-.048,2.652h-.3a10.281,10.281,0,0,1-1.428-.084l.12.408a10.96,10.96,0,0,1,1.308-.084h.288C34.332-.42,34.308.324,34.308.612c0,.348.084.444.636.444.732,0,.936-.156.936-.516,0-.264-.024-.864-.06-2.388h1.3c.108,0,.144-.048.144-.132s-.036-.12-.3-.468c-.4-.528-.432-.528-.528-.528s-.108.024-.612.888L35.748-6.78H35.8a12.511,12.511,0,0,0,1.188,4.008,6.207,6.207,0,0,0,1.188,1.62A.432.432,0,0,0,38.448-1a.343.343,0,0,0,.264-.192,2.474,2.474,0,0,1,1.056-1c.072-.024.084-.1.024-.132a7.856,7.856,0,0,1-1.776-1.368,7.972,7.972,0,0,1-1.992-3.1Zm3.06,3.768a1.708,1.708,0,0,1-.252,1.452,1.226,1.226,0,0,0-.264.744.518.518,0,0,0,.516.54.8.8,0,0,0,.732-.9A3.147,3.147,0,0,0,42.3-3.048C42.252-3.108,42.168-3.084,42.18-3.012Zm1.788,1.584a1.5,1.5,0,0,0-1.044-1.428c-.072-.024-.108,0-.06.06a1.514,1.514,0,0,1,.252.984c-.012.264-.036.42-.036.552,0,.312.144.492.372.492C43.74-.768,43.968-1.044,43.968-1.428Zm.132-.288c.036.312.168.48.384.48.288,0,.468-.228.468-.552,0-.5-.336-1.092-1.32-1.26-.072-.012-.12.024-.06.072A1.786,1.786,0,0,1,44.1-1.716Zm2.544-4.3c-.42-.408-.456-.42-.54-.42s-.12.012-.672.756h-.168V-7.26h1.524c.1,0,.144-.036.144-.12s-.024-.12-.372-.456c-.42-.408-.456-.42-.54-.42s-.12.012-.672.756h-.084V-8.856c.168-.048.24-.12.24-.228h1.572a.108.108,0,0,0,.12-.12c0-.072-.012-.108-.372-.444-.468-.444-.5-.456-.6-.456s-.132.024-.744.78H43.764c-.036-.144-.276-.24-1.536-.552.048.66.048,1.02.048,2.9,0,1.584-.084,3.18-.084,3.42,0,.324.06.444.468.444.516,0,.792-.144.8-.492h2.2c0,.264,0,.528-.012.768-.18-.276-.6-.456-1.332-.456-.072,0-.1.048-.036.084a1.494,1.494,0,0,1,.756.96c.084.24.168.312.372.312a.3.3,0,0,0,.18-.06A6.4,6.4,0,0,1,45.4-.924a.63.63,0,0,1-.54.528,8.857,8.857,0,0,1-1.428.036c-.072,0-.072.1,0,.12.588.216.828.492.924.9.1.36.156.408.444.408A1.657,1.657,0,0,0,46.344.1a8.416,8.416,0,0,0,.54-3.168,1.673,1.673,0,0,0,.3-.3c-.012.384-.036.576-.036.72,0,.3.1.348.4.348.48,0,.756-.1.756-.444v-.228h.576A4.425,4.425,0,0,1,45.816.972c-.072.024-.036.132.036.12A4.6,4.6,0,0,0,50.16-2.976H50.2a5.648,5.648,0,0,0,.456,2.4,3.785,3.785,0,0,0,1.1,1.464.357.357,0,0,0,.18.06c.1,0,.12-.012.216-.192A2.14,2.14,0,0,1,53.172-.36a.067.067,0,0,0,0-.132,5.239,5.239,0,0,1-1.848-1.092,3.284,3.284,0,0,1-.972-1.392h.576v.1c0,.3.108.384.48.384.516,0,.876-.144.876-.54,0-.3-.072-.84-.072-1.272v-.18c.324-.264.336-.288.336-.384s-.024-.144-.456-.48c-.5-.4-.552-.408-.66-.408s-.144.024-.636.636h-.564V-6.06c.2-.12.252-.18.252-.276h.66c.084,0,.132-.048.132-.108s-.024-.108-.324-.432c-.36-.384-.4-.4-.468-.4s-.108.012-.576.7h-.744A9.212,9.212,0,0,1,47.9-6.66,8.7,8.7,0,0,0,49.98-9.252a6.373,6.373,0,0,0,1.1,2.352,3.872,3.872,0,0,0,1.044.936.262.262,0,0,0,.168.06c.072,0,.108-.036.156-.144a2.068,2.068,0,0,1,.864-1.068c.06-.036.072-.1,0-.12A6.741,6.741,0,0,1,51.78-7.9,5.179,5.179,0,0,1,50.172-9.36c.252-.048.348-.108.348-.24,0-.168-.216-.276-1.848-.684a7.591,7.591,0,0,1-.3,1.164A9.638,9.638,0,0,1,46.7-5.952Zm1.344-.24a9.088,9.088,0,0,1,.936-.084c.024.24.024.564.036,1.212h-.48a3.645,3.645,0,0,0-1.308-.444c.036.4.036.684.036,1.284,0,.24,0,.444-.012.612a3.005,3.005,0,0,0-.4-.384c-.456-.4-.516-.42-.624-.42s-.144.024-.636.636h-.276v-1.6h1.608c.1,0,.144-.036.144-.12,0-.06-.012-.1-.216-.3a5.711,5.711,0,0,0,1.08-.768Zm2.94,1.368v1.668h-.744a6.7,6.7,0,0,0,.048-.864v-.8ZM48.3-3.216V-4.752a1.223,1.223,0,0,0,.192-.132h.468v.7a8.5,8.5,0,0,1-.048.972ZM44.076-7.5h-.612V-8.94c.1-.06.156-.108.2-.144h.384c.024.252.024.5.024.744Zm-.612,2.064h.612v1.6h-.612Zm.612-.24h-.612V-7.26h.612ZM-59.856,11.468c.768-.324,1.356-.588,2.028-.924a4.208,4.208,0,0,1,1.116-.372.412.412,0,0,0,.348-.444c0-.264-.192-.5-.768-1.008s-.8-.624-.924-.624a.481.481,0,0,0-.336.12,1.416,1.416,0,0,1-.444.108c-1.716.2-3.048.324-4.9.516-.276.024-.408.048-.648.048a1.513,1.513,0,0,1-.888-.336.247.247,0,0,0-.108-.06c-.036,0-.048.036-.06.1a2.559,2.559,0,0,0-.036.444,1.134,1.134,0,0,0,.408.7c.42.42.612.528.792.528a.715.715,0,0,0,.336-.12,1.968,1.968,0,0,1,.612-.2,32.97,32.97,0,0,1,4.56-.624c.1,0,.144.024.144.084a.35.35,0,0,1-.072.18,7.926,7.926,0,0,1-1.3,1.62,3.119,3.119,0,0,0-.66-.444,2.123,2.123,0,0,0-.888-.348c-.108,0-.252.048-.624.288-.048.036-.072.048-.072.072s.012.036.084.072c.456.24.564.384.564.624a8.97,8.97,0,0,1-.612,2.7,7.947,7.947,0,0,1-2.3,3.288.086.086,0,0,0-.036.072c0,.036.036.06.084.06a.13.13,0,0,0,.06-.012,7.129,7.129,0,0,0,3.132-2.616A9.512,9.512,0,0,0-60.12,12.1a1.06,1.06,0,0,1,.156-.36A.475.475,0,0,0-59.856,11.468ZM-46,8.264c-.1,0-.132.012-.144.048s.036.06.1.1a2.869,2.869,0,0,1,.936,1.272c.12.3.288.408.492.408a.52.52,0,0,0,.564-.528,1.05,1.05,0,0,0-.6-.888A2.769,2.769,0,0,0-46,8.264Zm1.188-1.02c-.084,0-.132.012-.132.048s.024.072.1.108a2.8,2.8,0,0,1,1,1.092c.132.276.264.4.5.4a.5.5,0,0,0,.528-.54c0-.336-.168-.564-.624-.816A3.264,3.264,0,0,0-44.808,7.244Zm-3.024,4.368a4.144,4.144,0,0,1,1.644,1.476,1.034,1.034,0,0,0,.8.54.776.776,0,0,0,.78-.8c0-.852-1.128-1.572-3.228-1.572,0-.456,0-.924.012-1.392.012-.768.1-.876.168-.984a.565.565,0,0,0,.12-.3c0-.156-.108-.3-.552-.612a1.847,1.847,0,0,0-.84-.42,1.961,1.961,0,0,0-.756.264c-.084.048-.1.06-.1.084s.024.06.1.1c.42.24.552.42.564.8.012.528.012,1.332.012,2.844,0,1.452-.024,3.012-.072,3.6a1.15,1.15,0,0,1-.108.48.713.713,0,0,0-.084.312,1.686,1.686,0,0,0,.216.84c.24.48.492.636.8.636s.552-.252.552-.732c0-.948-.012-1.632-.024-2.844C-47.832,12.776-47.832,12.38-47.832,11.612Zm15.636-2.4c-.1,0-.132.024-.132.06s.036.06.1.1a3.2,3.2,0,0,1,1.02,1.08c.18.324.288.432.528.432a.474.474,0,0,0,.468-.516.953.953,0,0,0-.648-.852A3.108,3.108,0,0,0-32.2,9.212Zm.972-.984c0,.048.012.06.1.1a2.285,2.285,0,0,1,1.032.984c.156.276.264.36.492.36a.464.464,0,0,0,.468-.5c0-.42-.216-.612-.636-.816a2.545,2.545,0,0,0-1.008-.192C-31.116,8.156-31.224,8.192-31.224,8.228ZM-29.28,15.2a.61.61,0,0,0,.684-.624,2,2,0,0,0-1.188-1.488c-.072-.024-.18-.06-.408-.144a24.5,24.5,0,0,1-3.924-2.34,1.593,1.593,0,0,0-.78-.348,1.111,1.111,0,0,0-.72.312c-.612.5-1.356,1.116-2.376,1.908a.489.489,0,0,1-.336.144,1.02,1.02,0,0,1-.516-.192c-.084-.048-.084-.048-.108-.048s-.048.024-.06.084a1.035,1.035,0,0,0-.024.3.809.809,0,0,0,.384.636c.624.5.9.612,1.128.612.18,0,.276-.072.516-.348.768-.876,1.272-1.5,1.836-2.064a.851.851,0,0,1,.312-.24c.12,0,.312.132.576.36.912.792,2,1.752,2.868,2.4C-30.24,15.008-29.7,15.2-29.28,15.2Zm8.232-4.608c0-.864-1.008-1.512-2.664-1.512a3.692,3.692,0,0,0-.4.024c-.06.012-.084.048-.084.072a.066.066,0,0,0,.036.06,3.907,3.907,0,0,1,1.488,1.62c.24.408.444.6.84.6A.778.778,0,0,0-21.048,10.592Zm-1.44,5.748a.512.512,0,0,0,.324-.12c.144-.1.276-.2.468-.336A21.638,21.638,0,0,0-15.36,9.7a.072.072,0,0,0,.012-.048.082.082,0,0,0-.084-.084.148.148,0,0,0-.1.048,26.394,26.394,0,0,1-6.732,4.872,1.652,1.652,0,0,1-.672.192,1.276,1.276,0,0,1-.78-.276c-.072-.048-.108-.072-.132-.072-.048,0-.06.012-.072.1-.012.156-.024.372-.024.48a.994.994,0,0,0,.252.492,6.175,6.175,0,0,0,.8.78A.558.558,0,0,0-22.488,16.34Zm12.84,1.2a6.01,6.01,0,0,0,3.024-2.724,7.91,7.91,0,0,0,.78-2.664c.516-.036,1.02-.06,1.452-.072.384,0,.66,0,.984.024a8.25,8.25,0,0,0,.876.072c.384,0,.54-.108.54-.4,0-.264-.132-.432-.7-.72a1.56,1.56,0,0,0-.78-.264,1.1,1.1,0,0,0-.384.144,1.9,1.9,0,0,1-.756.168c-.324.024-.72.072-1.152.12.012-.264.012-.36.036-.54a.7.7,0,0,0,.048-.228c0-.216-.06-.3-.612-.6a2.144,2.144,0,0,0-.288-.144c.5-.132.972-.264,1.392-.42.2-.072.48-.168.72-.24s.312-.168.312-.336-.12-.336-.732-.72a2.286,2.286,0,0,0-1.008-.456.981.981,0,0,0-.252.036c-.072.024-.072.036-.072.06s0,.024.036.072a.569.569,0,0,1,.168.348c0,.084-.048.144-.192.24a17.875,17.875,0,0,1-4.188,1.848.08.08,0,0,0-.048.084.082.082,0,0,0,.084.084,26.32,26.32,0,0,0,2.94-.408.963.963,0,0,1,.252.792c0,.228,0,.456-.012.672-.8.1-1.6.192-2.244.264a8.946,8.946,0,0,1-1.044.1,1.532,1.532,0,0,1-.888-.2c-.06-.036-.06-.036-.084-.036s-.036.024-.048.06a1.242,1.242,0,0,0-.072.288c0,.072.072.216.4.528.432.432.612.552.8.552a.57.57,0,0,0,.3-.084,1.949,1.949,0,0,1,.648-.216c.684-.144,1.44-.252,2.172-.336a9.55,9.55,0,0,1-.444,2.124A6.783,6.783,0,0,1-9.72,17.42a.072.072,0,0,0-.036.072c0,.024.024.048.084.048ZM6.5,11.492a2.246,2.246,0,0,1-.048-.444.667.667,0,0,1,.036-.18.659.659,0,0,0,.06-.2c0-.144-.18-.264-.6-.456a1.771,1.771,0,0,0-.66-.192,1.382,1.382,0,0,0-.66.384c-.036.036-.072.072-.072.108,0,.06.036.084.132.108.42.12.492.18.612.6.108.384.216.768.324,1.164-.408.108-.828.228-1.248.336a6.328,6.328,0,0,1-.768.168.905.905,0,0,1-.432-.156.193.193,0,0,0-.132-.048c-.048,0-.06.036-.06.132a.867.867,0,0,0,.408.828c.324.252.492.348.672.348a.273.273,0,0,0,.216-.108.439.439,0,0,1,.192-.12q.666-.288,1.368-.54c.228.9.444,1.788.624,2.628a2.166,2.166,0,0,1,.084.516,1.422,1.422,0,0,0,.036.288c.216.528.516.876.912.876a.457.457,0,0,0,.432-.5,2.7,2.7,0,0,0-.168-.864c-.3-1.08-.612-2.184-.9-3.288.648-.216,1.308-.408,1.932-.588a.178.178,0,0,1,.072-.012c.036,0,.06.012.06.048a.178.178,0,0,1-.012.072,7.977,7.977,0,0,1-.876,1.524.171.171,0,0,0-.024.072c0,.036.012.072.06.072a.282.282,0,0,0,.1-.024,18.005,18.005,0,0,0,1.716-1.068,2.793,2.793,0,0,1,.564-.264c.276-.108.324-.18.324-.372s-.156-.36-.624-.732-.684-.492-.828-.492c-.12,0-.2.1-.288.18a.584.584,0,0,1-.252.168c-.708.216-1.416.42-2.124.636Zm17.04.324a3.139,3.139,0,0,0-.456.036c-.312.036-.432.048-.732.072-1.644.108-2.64.18-4.716.288-.252.012-.492.024-.78.024a1.15,1.15,0,0,1-.876-.336c-.048-.036-.048-.036-.072-.036s-.048.024-.06.084a2.655,2.655,0,0,0-.048.456c0,.168.156.408.588.864a1.057,1.057,0,0,0,.648.408.666.666,0,0,0,.348-.1,1.243,1.243,0,0,1,.6-.156c1.752-.192,3.6-.288,4.656-.288.468,0,1.248.012,1.548.012.4,0,.708-.156.708-.528,0-.252-.144-.468-.6-.66A2.228,2.228,0,0,0,23.544,11.816Zm8.712-3.264c-.048,0-.084.012-.084.048s0,.024.024.048a3.339,3.339,0,0,1,.78,1.956c.048.492.312.708.72.708a.81.81,0,0,0,.768-.876c0-.936-.84-1.644-2.172-1.884Zm-.372,2.736c0-.96-1.032-1.716-2.34-1.86-.072,0-.1.024-.1.06s0,.024.024.048a2.977,2.977,0,0,1,.9,1.824c.1.612.372.78.72.78A.8.8,0,0,0,31.884,11.288ZM38.208,9.86c0-.2-.132-.36-.684-.756a2.632,2.632,0,0,0-1.068-.54,1.479,1.479,0,0,0-.588.168c-.072.036-.072.048-.072.072s0,.036.072.084c.36.24.492.48.492.66a2.137,2.137,0,0,1-.168.792,17.625,17.625,0,0,1-4.644,6.84.121.121,0,0,0-.048.084.085.085,0,0,0,.1.084.173.173,0,0,0,.084-.024c2.292-1.164,4.188-2.82,5.988-6.5a1.827,1.827,0,0,1,.348-.552A.549.549,0,0,0,38.208,9.86Zm10.416,1.608c.768-.324,1.356-.588,2.028-.924a4.208,4.208,0,0,1,1.116-.372.412.412,0,0,0,.348-.444c0-.264-.192-.5-.768-1.008s-.8-.624-.924-.624a.481.481,0,0,0-.336.12,1.416,1.416,0,0,1-.444.108c-1.716.2-3.048.324-4.9.516-.276.024-.408.048-.648.048a1.513,1.513,0,0,1-.888-.336.247.247,0,0,0-.108-.06c-.036,0-.048.036-.06.1a2.559,2.559,0,0,0-.036.444,1.134,1.134,0,0,0,.408.7c.42.42.612.528.792.528a.715.715,0,0,0,.336-.12,1.968,1.968,0,0,1,.612-.2,32.97,32.97,0,0,1,4.56-.624c.1,0,.144.024.144.084a.35.35,0,0,1-.072.18,7.926,7.926,0,0,1-1.3,1.62,3.119,3.119,0,0,0-.66-.444,2.123,2.123,0,0,0-.888-.348c-.108,0-.252.048-.624.288-.048.036-.072.048-.072.072s.012.036.084.072c.456.24.564.384.564.624a8.97,8.97,0,0,1-.612,2.7,7.947,7.947,0,0,1-2.3,3.288.086.086,0,0,0-.036.072c0,.036.036.06.084.06a.13.13,0,0,0,.06-.012,7.129,7.129,0,0,0,3.132-2.616A9.512,9.512,0,0,0,48.36,12.1a1.06,1.06,0,0,1,.156-.36A.475.475,0,0,0,48.624,11.468Zm15.6.348a3.139,3.139,0,0,0-.456.036c-.312.036-.432.048-.732.072-1.644.108-2.64.18-4.716.288-.252.012-.492.024-.78.024a1.15,1.15,0,0,1-.876-.336c-.048-.036-.048-.036-.072-.036s-.048.024-.06.084a2.655,2.655,0,0,0-.048.456c0,.168.156.408.588.864a1.057,1.057,0,0,0,.648.408.666.666,0,0,0,.348-.1,1.243,1.243,0,0,1,.6-.156c1.752-.192,3.6-.288,4.656-.288.468,0,1.248.012,1.548.012.4,0,.708-.156.708-.528,0-.252-.144-.468-.6-.66A2.228,2.228,0,0,0,64.224,11.816Z" transform="translate(-21943 -5560.149)" fill="#383838"/><path d="M-61.251-10.562c1.925-.256,4.024-.431,4.549-.431.162,0,.215.027.215.135a1.962,1.962,0,0,1-.094.525c-1.063,3.594-2.544,6.016-4.509,7.7-.054.054-.067.081-.067.121a.092.092,0,0,0,.094.094.166.166,0,0,0,.094-.027c2.584-1.319,4.509-3.311,6.07-7.5a.941.941,0,0,1,.417-.592.426.426,0,0,0,.229-.39c0-.215-.242-.485-.821-.956-.538-.4-.767-.538-.956-.538a.456.456,0,0,0-.31.121,1.02,1.02,0,0,1-.579.215c-1.373.121-3.163.283-5.007.458a2.024,2.024,0,0,0-1-.363,1.623,1.623,0,0,0-.485.094c-.081.027-.108.054-.108.081s0,.04.081.108a1.627,1.627,0,0,1,.579.727,3.9,3.9,0,0,1,.108.956c.013.417.013.525.013,1.265,0,.3-.013.538-.013.659a1.442,1.442,0,0,0,.39.767.751.751,0,0,0,.525.256.528.528,0,0,0,.458-.229c.135-.162.188-.35.188-.915C-61.184-8.449-61.224-9.458-61.251-10.562Zm16.81.606c0-.969-1.131-1.7-2.988-1.7a4.141,4.141,0,0,0-.444.027c-.067.013-.094.054-.094.081a.074.074,0,0,0,.04.067A4.382,4.382,0,0,1-46.258-9.66c.269.458.5.673.942.673A.873.873,0,0,0-44.441-9.956Zm-1.615,6.447a.574.574,0,0,0,.363-.135c.162-.108.31-.229.525-.377a24.269,24.269,0,0,0,7.106-6.931.081.081,0,0,0,.013-.054.092.092,0,0,0-.094-.094.166.166,0,0,0-.108.054A29.6,29.6,0,0,1-45.8-5.582a1.853,1.853,0,0,1-.754.215,1.431,1.431,0,0,1-.875-.31c-.081-.054-.121-.081-.148-.081-.054,0-.067.013-.081.108-.013.175-.027.417-.027.538a1.114,1.114,0,0,0,.283.552,6.926,6.926,0,0,0,.9.875A.626.626,0,0,0-46.056-3.509Zm18.223-3.513c0,.861.013,2.1.013,2.571,0,.215-.081.31-.363.31a8.54,8.54,0,0,1-1.7-.175c-.067,0-.081.027-.081.067s.013.067.081.108c.5.31.767.525,1.023.713a2.955,2.955,0,0,1,.754.781.639.639,0,0,0,.552.377,1.051,1.051,0,0,0,.861-.579,2.23,2.23,0,0,0,.39-1.2c-.04-.592-.054-.969-.108-2.355-.027-.781-.054-1.763-.067-2.947.283-.013.525-.027.713-.027.377,0,.794.013,1.225.04.4.027.754.04.956.04a.412.412,0,0,0,.4-.458c0-.283-.108-.485-.579-.727a2.126,2.126,0,0,0-.9-.31.871.871,0,0,0-.431.148,2,2,0,0,1-.686.188c-.39.054-.5.067-.7.094v-.363c0-.727.027-.942.162-1.1a.568.568,0,0,0,.148-.35c0-.175-.121-.336-.673-.727a1.651,1.651,0,0,0-.915-.39,2.282,2.282,0,0,0-.875.431c-.067.054-.094.081-.094.108s.04.054.108.081c.458.175.7.35.713.754l.013,1.723c-.808.094-1.615.175-2.355.242-.942.081-1.534.135-1.871.135a1.682,1.682,0,0,1-1.023-.323.179.179,0,0,0-.094-.04c-.027,0-.04,0-.067.094a1.582,1.582,0,0,0-.067.39c0,.188.229.444.444.659.431.417.659.592.9.592a.971.971,0,0,0,.431-.108,3.02,3.02,0,0,1,.713-.215c.659-.121,1.346-.229,2.019-.323A15.562,15.562,0,0,1-34.01-3.873c-.067.04-.081.067-.081.108s.027.067.121.067a11.671,11.671,0,0,0,6.164-4.4Zm18.2-1.561a3.521,3.521,0,0,0-.511.04c-.35.04-.485.054-.821.081-1.844.121-2.961.2-5.289.323-.283.013-.552.027-.875.027a1.29,1.29,0,0,1-.982-.377c-.054-.04-.054-.04-.081-.04s-.054.027-.067.094a2.977,2.977,0,0,0-.054.511c0,.188.175.458.659.969a1.185,1.185,0,0,0,.727.458.747.747,0,0,0,.39-.108,1.394,1.394,0,0,1,.673-.175C-13.9-7-11.83-7.1-10.646-7.1c.525,0,1.4.013,1.736.013.444,0,.794-.175.794-.592,0-.283-.162-.525-.673-.74A2.5,2.5,0,0,0-9.636-8.583Zm7.954-3.432a4.133,4.133,0,0,1,1.534,1.48.994.994,0,0,0,.821.552.81.81,0,0,0,.861-.9c0-.875-1.036-1.359-2.557-1.359a5.369,5.369,0,0,0-.646.04c-.081.013-.108.04-.108.081S-1.763-12.056-1.682-12.015Zm1.9,3.984c0-.821-.888-1.332-2.288-1.373h-.256a2.839,2.839,0,0,0-.633.054c-.067.013-.094.04-.094.094s.027.081.108.121A3.342,3.342,0,0,1-1.561-7.857c.3.471.552.646.956.646A.763.763,0,0,0,.215-8.032ZM-.592-3.16a.622.622,0,0,0,.458-.188,27.287,27.287,0,0,0,7.86-6.985.121.121,0,0,0,.013-.067.09.09,0,0,0-.081-.094.186.186,0,0,0-.121.067A40.465,40.465,0,0,1-.269-5.219,1.694,1.694,0,0,1-.982-5a1.194,1.194,0,0,1-.888-.485q-.081-.081-.121-.081c-.027,0-.054.04-.067.094a3.072,3.072,0,0,0-.108.74c0,.175.135.431.525.848C-1.077-3.334-.861-3.16-.592-3.16Zm17.47-5.787a2.519,2.519,0,0,1-.054-.5.748.748,0,0,1,.04-.2.739.739,0,0,0,.067-.229c0-.162-.2-.3-.673-.511a1.986,1.986,0,0,0-.74-.215,1.551,1.551,0,0,0-.74.431c-.04.04-.081.081-.081.121,0,.067.04.094.148.121.471.135.552.2.686.673.121.431.242.861.363,1.306-.458.121-.929.256-1.4.377a7.1,7.1,0,0,1-.861.188,1.015,1.015,0,0,1-.485-.175A.217.217,0,0,0,13-7.614c-.054,0-.067.04-.067.148a.972.972,0,0,0,.458.929c.363.283.552.39.754.39a.306.306,0,0,0,.242-.121A.493.493,0,0,1,14.6-6.4q.747-.323,1.534-.606c.256,1.009.5,2.005.7,2.947a2.429,2.429,0,0,1,.094.579,1.6,1.6,0,0,0,.04.323c.242.592.579.982,1.023.982a.513.513,0,0,0,.485-.565,3.028,3.028,0,0,0-.188-.969c-.336-1.211-.686-2.45-1.009-3.688.727-.242,1.467-.458,2.167-.659a.2.2,0,0,1,.081-.013c.04,0,.067.013.067.054a.2.2,0,0,1-.013.081A8.947,8.947,0,0,1,18.6-6.228a.191.191,0,0,0-.027.081c0,.04.013.081.067.081a.317.317,0,0,0,.108-.027,20.194,20.194,0,0,0,1.925-1.2,3.132,3.132,0,0,1,.633-.3c.31-.121.363-.2.363-.417s-.175-.4-.7-.821-.767-.552-.929-.552c-.135,0-.229.108-.323.2a.655.655,0,0,1-.283.188c-.794.242-1.588.471-2.382.713ZM31.6-9.956c0-.969-1.131-1.7-2.988-1.7a4.141,4.141,0,0,0-.444.027c-.067.013-.094.054-.094.081a.074.074,0,0,0,.04.067A4.382,4.382,0,0,1,29.785-9.66c.269.458.5.673.942.673A.873.873,0,0,0,31.6-9.956ZM29.986-3.509a.574.574,0,0,0,.363-.135c.162-.108.31-.229.525-.377a24.269,24.269,0,0,0,7.106-6.931.081.081,0,0,0,.013-.054A.092.092,0,0,0,37.9-11.1a.166.166,0,0,0-.108.054,29.6,29.6,0,0,1-7.55,5.464,1.853,1.853,0,0,1-.754.215,1.431,1.431,0,0,1-.875-.31c-.081-.054-.121-.081-.148-.081-.054,0-.067.013-.081.108-.013.175-.027.417-.027.538a1.114,1.114,0,0,0,.283.552,6.926,6.926,0,0,0,.9.875A.626.626,0,0,0,29.986-3.509Z" transform="translate(-21929.646 -5483)" fill="#383838"/></g></svg>