<svg xmlns="http://www.w3.org/2000/svg" width="72" height="72" viewBox="0 0 72 72"><g transform="translate(-647 -1127)"><g transform="translate(337.115 252.115)"><circle cx="36" cy="36" r="36" transform="translate(309.885 874.885)" fill="#1ea4d9"/></g><g transform="translate(664.242 1144.244)"><path d="M18.758,11.376a9.617,9.617,0,1,0,9.617,9.617A9.6,9.6,0,0,0,18.758,11.376Zm0,15.87a6.252,6.252,0,1,1,6.252-6.252,6.264,6.264,0,0,1-6.252,6.252ZM31.011,10.982a2.243,2.243,0,1,1-2.243-2.243A2.238,2.238,0,0,1,31.011,10.982Zm6.369,2.277c-.142-3-.829-5.667-3.03-7.86S29.5,2.52,26.491,2.37c-3.1-.176-12.379-.176-15.476,0-3,.142-5.658.829-7.859,3.022S.277,10.246.127,13.251c-.176,3.1-.176,12.379,0,15.476.142,3,.829,5.667,3.03,7.86s4.854,2.879,7.859,3.03c3.1.176,12.379.176,15.476,0,3-.142,5.666-.829,7.859-3.03s2.879-4.855,3.03-7.86c.176-3.1.176-12.371,0-15.468Zm-4,18.791a6.33,6.33,0,0,1-3.566,3.566c-2.469.979-8.328.753-11.056.753s-8.6.218-11.056-.753A6.33,6.33,0,0,1,4.136,32.05c-.979-2.469-.753-8.328-.753-11.057s-.218-8.6.753-11.057A6.33,6.33,0,0,1,7.7,6.37c2.469-.979,8.328-.753,11.056-.753s8.6-.218,11.056.753A6.33,6.33,0,0,1,33.38,9.936c.979,2.469.753,8.328.753,11.057S34.359,29.589,33.38,32.05Z" transform="translate(0.005 -2.238)" fill="#fff"/></g></g></svg>