<svg xmlns="http://www.w3.org/2000/svg" width="72" height="72" viewBox="0 0 72 72"><g transform="translate(-984 -1127)"><g transform="translate(674.115 252.115)"><circle cx="36" cy="36" r="36" transform="translate(309.885 874.885)" fill="#1ea4d9"/></g><g transform="translate(1001.244 1144.244)"><path d="M22.783,16.668v5.953a.265.265,0,0,1-.268.268H21.56a.277.277,0,0,1-.218-.109L18.613,19.1V22.63a.265.265,0,0,1-.268.268h-.955a.265.265,0,0,1-.268-.268V16.677a.265.265,0,0,1,.268-.268h.946a.253.253,0,0,1,.218.117l2.73,3.684V16.677a.265.265,0,0,1,.268-.268h.955a.265.265,0,0,1,.276.26ZM15.917,16.4h-.955a.265.265,0,0,0-.268.268v5.953a.265.265,0,0,0,.268.268h.955a.265.265,0,0,0,.268-.268V16.668A.27.27,0,0,0,15.917,16.4Zm-2.3,4.99h-2.6V16.668a.265.265,0,0,0-.268-.268H9.788a.265.265,0,0,0-.268.268v5.953a.246.246,0,0,0,.075.184.282.282,0,0,0,.184.075h3.826a.265.265,0,0,0,.268-.268v-.955a.268.268,0,0,0-.26-.268ZM27.806,16.4H23.98a.27.27,0,0,0-.268.268v5.953a.27.27,0,0,0,.268.268h3.826a.265.265,0,0,0,.268-.268v-.955a.265.265,0,0,0-.268-.268H25.2v-1h2.6a.265.265,0,0,0,.268-.268v-.963a.265.265,0,0,0-.268-.268H25.2v-1h2.6a.265.265,0,0,0,.268-.268v-.955a.282.282,0,0,0-.268-.268Zm9.7-7.31V32.979a6.82,6.82,0,0,1-6.841,6.782H6.782A6.825,6.825,0,0,1,0,32.92V9.032A6.825,6.825,0,0,1,6.841,2.25H30.729A6.82,6.82,0,0,1,37.511,9.091ZM32.353,19.356c0-6.112-6.129-11.086-13.656-11.086S5.041,13.244,5.041,19.356c0,5.476,4.856,10.064,11.421,10.935,1.6.343,1.415.929,1.055,3.081-.059.343-.276,1.348,1.181.737s7.862-4.63,10.734-7.929A9.892,9.892,0,0,0,32.353,19.356Z" transform="translate(0 -2.25)" fill="#fff"/></g></g></svg>