<svg xmlns="http://www.w3.org/2000/svg" width="2732" height="47.507" viewBox="0 0 2732 47.507"><g transform="translate(24900 6539.033)"><path d="M22908,5434.508v-27.426c34.156,0,34.156-20.081,68.309-20.081s34.148,20.081,68.3,20.081,34.148-20.081,68.3-20.081,34.148,20.081,68.3,20.081,34.152-20.081,68.3-20.081,34.148,20.081,68.3,20.081,34.148-20.081,68.3-20.081,34.148,20.081,68.3,20.081S23488.543,5387,23522.7,5387s34.148,20.081,68.3,20.081v27.426Zm-683,0v-27.426c34.152,0,34.152-20.081,68.3-20.081s34.152,20.081,68.3,20.081,34.148-20.081,68.3-20.081,34.148,20.081,68.3,20.081,34.148-20.081,68.3-20.081,34.148,20.081,68.3,20.081,34.148-20.081,68.3-20.081,34.148,20.081,68.3,20.081,34.152-20.081,68.3-20.081,34.152,20.081,68.3,20.081v27.426Z" transform="translate(-47125 -11926.034)" fill="#FFF"/><path d="M22908,5434.508v-27.426c34.156,0,34.156-20.081,68.309-20.081s34.148,20.081,68.3,20.081,34.148-20.081,68.3-20.081,34.148,20.081,68.3,20.081,34.152-20.081,68.3-20.081,34.148,20.081,68.3,20.081,34.148-20.081,68.3-20.081,34.148,20.081,68.3,20.081S23488.543,5387,23522.7,5387s34.148,20.081,68.3,20.081v27.426Zm-683,0v-27.426c34.152,0,34.152-20.081,68.3-20.081s34.152,20.081,68.3,20.081,34.148-20.081,68.3-20.081,34.148,20.081,68.3,20.081,34.148-20.081,68.3-20.081,34.148,20.081,68.3,20.081,34.148-20.081,68.3-20.081,34.148,20.081,68.3,20.081,34.152-20.081,68.3-20.081,34.152,20.081,68.3,20.081v27.426Z" transform="translate(-45759 -11926.034)" fill="#FFF"/></g></svg>