<svg xmlns="http://www.w3.org/2000/svg" width="182.537" height="29.396" viewBox="0 0 182.537 29.396"><g transform="translate(69.885 11.255)" opacity="0.429"><g transform="translate(-69.885 -11.255)"><path d="M11.246,18.506l.535.4c-.141.3-.274.568-.4.8s-.287.5-.47.827-.324.565-.422.729Q9.27,23.383,8.2,23.384a1.019,1.019,0,0,1-.777-.355,1.4,1.4,0,0,1-.324-.973,6.831,6.831,0,0,1,.624-2.4,30.81,30.81,0,0,1,1.929-3.752q1.3-2.229,3.281-5.049T17.388,4.91A23.435,23.435,0,0,0,14,4.7a28.422,28.422,0,0,0-5.015.5A38.66,38.66,0,0,0,4.173,6.36q-2.051.656-2.05.964a.158.158,0,0,0,.082.155.881.881,0,0,0,.268.063c.123.017.282.037.477.057q1.9.261,1.9.584,0,.163-.827.154T2.026,8.33A8.636,8.636,0,0,1,.688,8.256a.809.809,0,0,1-.551-.276A1.125,1.125,0,0,1,0,7.357a9.113,9.113,0,0,1,.162-1.2A7.923,7.923,0,0,1,1.11,3.4,4.658,4.658,0,0,1,3.072,1.71,13.3,13.3,0,0,1,6.709.665,39.493,39.493,0,0,1,13.142,0a22.427,22.427,0,0,1,2.966.153,4.71,4.71,0,0,1,1.6.447,1.553,1.553,0,0,1,.648.575,8.842,8.842,0,0,1,.364.981l.5,1.491c.031.1.059.175.08.235a1.539,1.539,0,0,1,.057.185.708.708,0,0,1,.025.179A2.261,2.261,0,0,1,19.1,5.379,15.6,15.6,0,0,1,18.06,6.886q-.754,1-1.11,1.572A113.932,113.932,0,0,0,11.246,18.506Z" fill="#fff"/><path d="M23.7,14.232v1.085a8.553,8.553,0,0,1-1.719,1.3,3.817,3.817,0,0,1-1.864.26q-2.108,2.5-3.71,2.5a2.58,2.58,0,0,1-1.653-.6,4.156,4.156,0,0,1-1.191-1.636,5.812,5.812,0,0,1-.447-2.319,4.882,4.882,0,0,1,.69-2.3,10.266,10.266,0,0,1,1.783-2.359,10.105,10.105,0,0,1,2.342-1.767,4.946,4.946,0,0,1,2.317-.671,2.564,2.564,0,0,1,1.2.234.724.724,0,0,1,.438.657,1.211,1.211,0,0,1-.372.746,1.371,1.371,0,0,1,.842.43,1.9,1.9,0,0,1,.227,1.094,6.9,6.9,0,0,1-.364,1.96,9.75,9.75,0,0,1-1,2.22l.293.293h.243a1.178,1.178,0,0,0,.543-.138,3.465,3.465,0,0,0,.478-.293Q22.984,14.768,23.7,14.232ZM20.359,9.97q-1.344.811-2.3,1.467a11.135,11.135,0,0,0-1.621,1.329,3.582,3.582,0,0,0-.891,1.353q-.406,1.816-.4,1.962,0,1.07,1.491,1.068a5.1,5.1,0,0,0,2.332-1.2,4.263,4.263,0,0,1-.276-1.459,5.588,5.588,0,0,1,.422-2.08A17.238,17.238,0,0,1,20.359,9.97Z" transform="translate(4.013 2.362)" fill="#fff"/><path d="M33.5,16.318v1.088a34.041,34.041,0,0,1-3.047,3.215A3.481,3.481,0,0,1,28.4,21.715a2.36,2.36,0,0,1-1.434-.47,4.514,4.514,0,0,1-1.151-1.3,24.387,24.387,0,0,1-1.208-2.3q-.827,1.023-1.49,1.9t-.923,1.175a.7.7,0,0,1-.471.291c-.29,0-.5-.185-.631-.559A5.189,5.189,0,0,1,20.9,18.83a11.17,11.17,0,0,1,.349-2.812,12.743,12.743,0,0,1,1-2.633,24.4,24.4,0,0,1,1.686-2.763q1.028-1.483,2.308-3.1,1.769-2.235,3.047-3.655a17.458,17.458,0,0,1,2.228-2.138A2.859,2.859,0,0,1,33.1,1c.52,0,.778.232.778.7q0,.6-2.868,4.319T22.646,16.173v1.395a78.314,78.314,0,0,1,5.923-5.851Q30.814,9.8,32.045,9.8a.857.857,0,0,1,.777.592,3.211,3.211,0,0,1,.276,1.37,4.084,4.084,0,0,1-1.361,2.941,24.1,24.1,0,0,1-4.18,3.1,5.692,5.692,0,0,0,.858,1.063,1.373,1.373,0,0,0,.94.33,2.167,2.167,0,0,0,1.085-.34A8.176,8.176,0,0,0,31.631,18Q32.24,17.487,33.5,16.318Zm-6.4.827a12.317,12.317,0,0,0,1.532-1.255A11.508,11.508,0,0,0,30.2,14.124a2.873,2.873,0,0,0,.648-1.532q0-.259-.227-.259A4.573,4.573,0,0,0,28.5,13.515a17.293,17.293,0,0,0-2.925,3.03A2.974,2.974,0,0,1,27.1,17.144Z" transform="translate(6.394 0.308)" fill="#fff"/><path d="M38.145,13.273Q35.8,16.386,34.572,17.7t-2,1.314a1.589,1.589,0,0,1-1.134-.511,3.354,3.354,0,0,1-.8-1.378,5.92,5.92,0,0,1-.283-1.856,5.135,5.135,0,0,1,.121-1.166,4.61,4.61,0,0,1,.462-1.141,10.641,10.641,0,0,1,.9-1.354q.558-.731,1.37-1.652.486-.568.818-.957a1.892,1.892,0,0,1,.649-.526A2.788,2.788,0,0,1,35.7,8.331a3.5,3.5,0,0,1,.989.137c.313.091.471.187.471.283A2.608,2.608,0,0,1,36.678,9.8,12.025,12.025,0,0,1,35.14,11.66a21.382,21.382,0,0,1-2.455,2.148,5.187,5.187,0,0,0-.308,1.457c0,.466.178.7.535.7a1.419,1.419,0,0,0,.648-.333q.453-.331,1.531-1.28t1.937-1.677a11.45,11.45,0,0,0,1.467-1.644q.835-1.1,1.353-1.646,1.2-1.264,1.638-1.646a1.31,1.31,0,0,1,.842-.38.55.55,0,0,1,.526.243,2.322,2.322,0,0,1,.137.989,1.881,1.881,0,0,1-.065.551,2.49,2.49,0,0,1-.266.543c-.135.222-.407.628-.819,1.222s-.9,1.3-1.457,2.107a8.455,8.455,0,0,0-.794,1.418,3.234,3.234,0,0,0-.341,1.158q0,.844.665.844a2.515,2.515,0,0,0,1.28-.454q.729-.453,2.236-1.636v1.085q-1.9,1.751-2.8,2.544a11.919,11.919,0,0,1-1.571,1.2,2.454,2.454,0,0,1-1.264.4q-1.361,0-1.362-1.619a4.931,4.931,0,0,1,.4-1.663Q37.238,15.251,38.145,13.273Z" transform="translate(9.287 2.251)" fill="#fff"/><path d="M41.56,12.655l.453-1.281,3-1.361A10.712,10.712,0,0,1,48.884,8.75c.627,0,.94.285.94.858a3.376,3.376,0,0,1-.251,1q-.251.69-.844,1.968t-1.369,2.91q-.778,1.63-1.621,3.346Q46.955,18,47.872,17.3t2.147-1.774l.033,1.151q-3.113,2.69-5.77,5.348a31.442,31.442,0,0,1-2.835,4.716q-1.232,1.589-1.848,1.588c-.293,0-.438-.286-.438-.858a5.181,5.181,0,0,1,.47-2.116,9.8,9.8,0,0,1,1.442-2.236,24.12,24.12,0,0,1,2.3-2.391q2.057-4.051,2.908-5.89a7.962,7.962,0,0,0,.851-2.407q0-.357-.341-.357a19.907,19.907,0,0,0-2.415,1.045,10.313,10.313,0,0,1-2.788,1.046c-.226,0-.34-.125-.34-.374A4.974,4.974,0,0,1,41.56,12.655ZM51.948,4.26a3.811,3.811,0,0,1-.374,1.361,5.72,5.72,0,0,1-.721,1.572,1.17,1.17,0,0,1-.964.389q-1.395,0-1.393-.923a4.481,4.481,0,0,1,.859-2.092,3,3,0,0,1,.727-.9,1.768,1.768,0,0,1,.892-.17Q51.947,3.5,51.948,4.26Z" transform="translate(11.983 1.071)" fill="#fff"/><path d="M57.846,14.232v1.085a8.553,8.553,0,0,1-1.717,1.3,3.822,3.822,0,0,1-1.865.26q-2.106,2.5-3.71,2.5a2.574,2.574,0,0,1-1.652-.6,4.158,4.158,0,0,1-1.192-1.636,5.834,5.834,0,0,1-.445-2.319,4.878,4.878,0,0,1,.688-2.3,10.341,10.341,0,0,1,1.783-2.359,10.16,10.16,0,0,1,2.342-1.767,4.951,4.951,0,0,1,2.318-.671,2.572,2.572,0,0,1,1.2.234.727.727,0,0,1,.438.657,1.207,1.207,0,0,1-.374.746,1.372,1.372,0,0,1,.844.43,1.912,1.912,0,0,1,.227,1.094,6.907,6.907,0,0,1-.366,1.96,9.746,9.746,0,0,1-1,2.22l.291.293H55.9a1.173,1.173,0,0,0,.542-.138,3.316,3.316,0,0,0,.478-.293Q57.133,14.768,57.846,14.232ZM54.508,9.97q-1.346.811-2.3,1.467a11.066,11.066,0,0,0-1.621,1.329,3.586,3.586,0,0,0-.892,1.353q-.406,1.816-.4,1.962,0,1.07,1.491,1.068a5.1,5.1,0,0,0,2.332-1.2,4.294,4.294,0,0,1-.276-1.459,5.615,5.615,0,0,1,.422-2.08A17.261,17.261,0,0,1,54.508,9.97Z" transform="translate(14.462 2.362)" fill="#fff"/><path d="M90.64,16.5v1.117q-1.54,1.442-2.617,2.326a25.153,25.153,0,0,1-2.147,1.588A11.961,11.961,0,0,1,84.1,22.538a3.213,3.213,0,0,1-1.207.3,2.459,2.459,0,0,1-1.962-.891,3.416,3.416,0,0,1-.761-2.3,8.337,8.337,0,0,1,.657-3.209,16.466,16.466,0,0,1,1.87-3.282q1.217-1.693,3.047-3.8A8.4,8.4,0,0,0,87.107,7.6a.271.271,0,0,0-.081-.195.249.249,0,0,0-.179-.081A6.488,6.488,0,0,0,84.952,8.69a56.247,56.247,0,0,0-4.076,4q-2.49,2.639-5.372,6.287c-.108.129-.452.571-1.03,1.32a15.114,15.114,0,0,1-1.224,1.467.988.988,0,0,1-.615.341q-.454,0-.786-.917a5.687,5.687,0,0,1-.332-1.952,2.785,2.785,0,0,1,.413-1.361q.413-.731,1.8-2.617t2.293-3.184q.909-1.3,1.993-3.144.762-1.281,1.127-2.043a3.188,3.188,0,0,0,.364-1.345c0-.334-.1-.5-.293-.5q-.615,0-2.317,1.646a47.5,47.5,0,0,0-4.205,4.886q-2.5,3.24-5.227,7.5-.891,1.457-1.263,1.96a1.044,1.044,0,0,1-.827.5q-.568,0-1.062-1.207a5.467,5.467,0,0,1-.495-1.952.984.984,0,0,1,.2-.535Q66.154,14.993,67.53,13t2.447-3.783a25.208,25.208,0,0,0,1.557-2.95,5.112,5.112,0,0,0,.486-1.823q0-.7-.633-.7a4.62,4.62,0,0,0-1.766.665q-1.248.664-3.151,1.814T63.415,7.984a4.251,4.251,0,0,1-1.719.609q-.535,0-.535-.6a11.931,11.931,0,0,1,.227-1.563,7.577,7.577,0,0,1,.47-1.728A6.487,6.487,0,0,1,63.6,2.985a8.609,8.609,0,0,1,1.548-1.068q.129,0,.129.114c0,.043-.043.107-.129.193a10.585,10.585,0,0,0-.989.875,1.515,1.515,0,0,0-.406.746,37.668,37.668,0,0,1,5.309-2.715A10.834,10.834,0,0,1,72.31.2a1.1,1.1,0,0,1,.859.607,6.387,6.387,0,0,1,.69,1.41,4.37,4.37,0,0,1,.283,1.029A5.718,5.718,0,0,1,73.721,5.2Q73.3,6.326,72.578,7.814t-1.79,3.727q.842-1.085,1.605-2.009t1.515-1.8q.754-.876,1.532-1.767A21.333,21.333,0,0,1,77.8,3.642,20.837,20.837,0,0,1,80.26,1.827a4.008,4.008,0,0,1,1.549-.705,1.252,1.252,0,0,1,1.012.624,2.255,2.255,0,0,1,.445,1.337,5.549,5.549,0,0,1-.616,1.8q-.615,1.33-1.8,3.4t-3.128,5.348q1.847-1.961,3.841-4.034T84.53,6.567a19.5,19.5,0,0,1,1.621-1.459q.891-.682,1.79-1.467L89.36,2.4a6.6,6.6,0,0,1,.923-.7,1.477,1.477,0,0,1,.746-.244q.421,0,1.062.972a3.567,3.567,0,0,1,.64,1.249,1.391,1.391,0,0,1-.381.81q-.38.472-1.58,1.75a39.1,39.1,0,0,0-3.825,4.772,26.379,26.379,0,0,0-2.455,4.393,8.767,8.767,0,0,0-.833,3.136,1.62,1.62,0,0,0,.268,1.037,1.018,1.018,0,0,0,.835.324,2.415,2.415,0,0,0,.964-.193,6.983,6.983,0,0,0,.989-.552q.543-.357,1.029-.68.68-.406,1.336-.867c.438-.307.778-.551,1.021-.729S90.521,16.576,90.64,16.5Z" transform="translate(18.714 0.061)" fill="#fff"/><path d="M85.581,11.543A19.663,19.663,0,0,1,90.36,8.22a9.349,9.349,0,0,1,3.582-1.085.889.889,0,0,1,.631.283,2.125,2.125,0,0,1,.462.656,1.545,1.545,0,0,1,.171.551.469.469,0,0,1-.227.43,4.42,4.42,0,0,1-.794.332c.074.174.172.394.291.665s.21.488.276.657a1.237,1.237,0,0,1,.1.445,3.4,3.4,0,0,1-.785,1.45q-.788,1.062-1.1,1.565a2.271,2.271,0,0,0-.316,1.232q0,1.2,1.1,1.2,1.134,0,3.548-2.122v.989q-4.1,4.553-5.866,4.553a.987.987,0,0,1-.9-.413,2.265,2.265,0,0,1-.268-1.224,11.574,11.574,0,0,1,.923-3.712Q88.823,17.3,87.67,18.406a3.164,3.164,0,0,1-1.9,1.11q-.357,0-.891-.615a5.949,5.949,0,0,1-.948-1.6,5.187,5.187,0,0,1-.414-2.035A4.662,4.662,0,0,1,83.669,14a3.089,3.089,0,0,1,.565-1.046A14.461,14.461,0,0,1,85.581,11.543ZM93.342,9.76a35.134,35.134,0,0,0-6,3.273A3.652,3.652,0,0,0,85.548,15.8a1.794,1.794,0,0,0,.178.852.541.541,0,0,0,.487.332,1.761,1.761,0,0,0,.631-.227,12.7,12.7,0,0,0,3.112-2.617Q91.366,12.533,93.342,9.76Z" transform="translate(25.556 2.183)" fill="#fff"/><path d="M93.907,15.083v-.389q4.182-4.408,5.754-6.173.357-1.994,1.717-1.994a1.634,1.634,0,0,1,.73.2l.1.307a1.829,1.829,0,0,0-.065.551,5.132,5.132,0,0,0,.236,1.143q.233.835.364,1.4a5.863,5.863,0,0,1,.129,1.281,4.539,4.539,0,0,1-.487,2.049,6.959,6.959,0,0,1-1.409,1.881,15.421,15.421,0,0,1-2.382,1.839,5.9,5.9,0,0,0,.923.1,3.631,3.631,0,0,0,1.434-.333,8.813,8.813,0,0,0,1.572-.892q.8-.558,1.873-1.45v1.085a24.321,24.321,0,0,1-3.712,3.072,5.509,5.509,0,0,1-2.82,1.045,3.934,3.934,0,0,1-2.821-1.3,3.478,3.478,0,0,1-.947-1.49A7.864,7.864,0,0,1,93.907,15.083ZM99.952,12.6l-.291-2.366q-1,1.134-4.3,4.359a2.732,2.732,0,0,1,1.329.568A8.95,8.95,0,0,1,97.7,16.542,3.924,3.924,0,0,0,99.393,15.3a3.493,3.493,0,0,0,.592-2.147c0-.107,0-.206-.008-.293S99.963,12.69,99.952,12.6Z" transform="translate(28.734 1.997)" fill="#fff"/><path d="M103.82,11.543A19.689,19.689,0,0,1,108.6,8.22a9.361,9.361,0,0,1,3.582-1.085.894.894,0,0,1,.632.283,2.143,2.143,0,0,1,.461.656,1.545,1.545,0,0,1,.171.551.469.469,0,0,1-.227.43,4.42,4.42,0,0,1-.794.332c.074.174.174.394.291.665s.212.488.276.657a1.241,1.241,0,0,1,.1.445,3.413,3.413,0,0,1-.786,1.45q-.786,1.062-1.1,1.565a2.272,2.272,0,0,0-.316,1.232q0,1.2,1.1,1.2,1.134,0,3.55-2.122v.989q-4.1,4.553-5.868,4.553a.989.989,0,0,1-.9-.413,2.265,2.265,0,0,1-.268-1.224,11.575,11.575,0,0,1,.923-3.712q-2.364,2.627-3.517,3.736a3.161,3.161,0,0,1-1.9,1.11c-.236,0-.534-.205-.889-.615a5.916,5.916,0,0,1-.949-1.6,5.185,5.185,0,0,1-.413-2.035A4.668,4.668,0,0,1,101.908,14a3.072,3.072,0,0,1,.567-1.046A14.257,14.257,0,0,1,103.82,11.543Zm7.761-1.783a35.111,35.111,0,0,0-6,3.273,3.654,3.654,0,0,0-1.792,2.771,1.8,1.8,0,0,0,.178.852.541.541,0,0,0,.487.332,1.773,1.773,0,0,0,.632-.227,12.715,12.715,0,0,0,3.111-2.617Q109.606,12.533,111.582,9.76Z" transform="translate(31.138 2.183)" fill="#fff"/><path d="M123.158,11.244q-2.854,3.175-2.852,4.423c0,.466.188.7.568.7a2.445,2.445,0,0,0,1.222-.495q.754-.494,2.359-1.757V15.23q-2.3,2.268-3.533,3.274a3.589,3.589,0,0,1-2.01,1q-1.328,0-1.329-1.749a3.309,3.309,0,0,1,.163-1.023,6.613,6.613,0,0,1,.445-1.043q.282-.545.867-1.557t1.344-2.293a10.278,10.278,0,0,0-2.317,1.864,18.126,18.126,0,0,0-1.54,1.661q-.631.786-1.353,1.75a13.391,13.391,0,0,1-1.054,1.3.958.958,0,0,1-.671.332q-.519,0-.957-1.087a6.758,6.758,0,0,1-.437-2.527,3.816,3.816,0,0,1,.2-1.393,9.284,9.284,0,0,1,.8-1.426,15.871,15.871,0,0,1,1.928-2.521,2.3,2.3,0,0,1,1.557-.8,1.7,1.7,0,0,1,.833.178.588.588,0,0,1,.317.551.709.709,0,0,1-.1.341,1.854,1.854,0,0,1-.219.324c-.08.1-.251.287-.509.568q-2.56,2.835-2.561,3.678c0,.313.1.47.308.47.131,0,.38-.208.754-.623s.854-.961,1.443-1.638a26.049,26.049,0,0,1,2.09-2.114A22.635,22.635,0,0,1,121.667,8.6a2.708,2.708,0,0,1,1.427-.6c.172,0,.341.239.509.713a4.321,4.321,0,0,1,.252,1.442C123.856,10.4,123.623,10.757,123.158,11.244Z" transform="translate(34.293 2.449)" fill="#fff"/><path d="M123.414,11.543a19.688,19.688,0,0,1,4.78-3.322,9.349,9.349,0,0,1,3.582-1.085.889.889,0,0,1,.631.283,2.126,2.126,0,0,1,.462.656,1.545,1.545,0,0,1,.171.551.469.469,0,0,1-.227.43,4.421,4.421,0,0,1-.794.332c.074.174.172.394.291.665s.21.488.276.657a1.237,1.237,0,0,1,.1.445,3.4,3.4,0,0,1-.785,1.45q-.787,1.062-1.1,1.565a2.272,2.272,0,0,0-.316,1.232q0,1.2,1.1,1.2,1.134,0,3.548-2.122v.989q-4.1,4.553-5.866,4.553a.987.987,0,0,1-.9-.413,2.265,2.265,0,0,1-.268-1.224,11.574,11.574,0,0,1,.923-3.712q-2.365,2.627-3.517,3.736a3.164,3.164,0,0,1-1.9,1.11q-.357,0-.891-.615a5.949,5.949,0,0,1-.948-1.6,5.187,5.187,0,0,1-.414-2.035A4.663,4.663,0,0,1,121.5,14a3.09,3.09,0,0,1,.565-1.046A14.461,14.461,0,0,1,123.414,11.543Zm7.761-1.783a35.135,35.135,0,0,0-6,3.273,3.652,3.652,0,0,0-1.791,2.771,1.8,1.8,0,0,0,.178.852.541.541,0,0,0,.487.332,1.761,1.761,0,0,0,.631-.227,12.7,12.7,0,0,0,3.112-2.617Q129.2,12.533,131.175,9.76Z" transform="translate(37.132 2.183)" fill="#fff"/><path d="M142.25,14.232v1.085a8.553,8.553,0,0,1-1.719,1.3,3.822,3.822,0,0,1-1.865.26q-2.106,2.5-3.709,2.5a2.58,2.58,0,0,1-1.653-.6,4.143,4.143,0,0,1-1.191-1.636,5.812,5.812,0,0,1-.447-2.319,4.894,4.894,0,0,1,.688-2.3,10.309,10.309,0,0,1,1.784-2.359,10.1,10.1,0,0,1,2.342-1.767,4.942,4.942,0,0,1,2.317-.671,2.568,2.568,0,0,1,1.2.234.724.724,0,0,1,.438.657,1.211,1.211,0,0,1-.372.746,1.371,1.371,0,0,1,.842.43,1.912,1.912,0,0,1,.227,1.094,6.945,6.945,0,0,1-.364,1.96,9.806,9.806,0,0,1-1,2.22l.293.293h.243a1.169,1.169,0,0,0,.542-.138,3.407,3.407,0,0,0,.479-.293Q141.535,14.768,142.25,14.232ZM138.91,9.97q-1.346.811-2.3,1.467a11.135,11.135,0,0,0-1.621,1.329,3.6,3.6,0,0,0-.892,1.353q-.405,1.816-.4,1.962,0,1.07,1.49,1.068a5.1,5.1,0,0,0,2.334-1.2,4.263,4.263,0,0,1-.276-1.459,5.589,5.589,0,0,1,.422-2.08A17.241,17.241,0,0,1,138.91,9.97Z" transform="translate(40.288 2.362)" fill="#fff"/></g></g></svg>