<svg xmlns="http://www.w3.org/2000/svg" width="288" height="100" viewBox="0 0 288 100"><g transform="translate(-71.596 -523.188)"><g transform="translate(68.402 519.956)"><text transform="translate(147.194 80.232)" fill="#fff684" font-size="72" font-family="mplus-1c-medium, 'M\+ \31 c'" font-weight="500" opacity="0.473"><tspan x="-144" y="0">タノシム</tspan></text><path d="M-122.924-58.016l9.182.643-.1,1.025c-.161,1.613-.425,3.394-.787,5.308H-81.44v3.88a73.109,73.109,0,0,1-2.9,21.683,38.645,38.645,0,0,1-8.792,15.442A41.192,41.192,0,0,1-108.317-.362a80.42,80.42,0,0,1-21.92,4.6l-.926.077-1.39-8.806,1.057-.1c8.262-.8,15.142-2.329,20.449-4.536A33.3,33.3,0,0,0-103.97-13.1a27.574,27.574,0,0,0,4.641-4.351c-7.763-3.908-14.783-7.248-20.881-9.933l-.978-.431,4.384-8.4.858.38c7.618,3.376,14.81,6.775,21.4,10.112A53.9,53.9,0,0,0-91.477-42.2h-25.538a54.175,54.175,0,0,1-5.575,11.158A56.982,56.982,0,0,1-131.218-20.8l-.676.637-6.586-6.03.775-.739a47.124,47.124,0,0,0,9.87-13.644,51.12,51.12,0,0,0,4.8-16.49Zm6.975,2.493-5.215-.365A53.144,53.144,0,0,1-126.036-39.7a49.286,49.286,0,0,1-9.524,13.473l3.641,3.334a54.723,54.723,0,0,0,7.656-9.24,52.225,52.225,0,0,0,5.6-11.392l.234-.671h29.037l-.039,1.038c-.291,7.67-1.529,14.135-3.678,19.216l-.419.99-.957-.489c-6.571-3.354-13.77-6.777-21.413-10.18l-2.528,4.846c6.191,2.752,13.285,6.148,21.1,10.1l1.076.544-.734.957a31.8,31.8,0,0,1-13.3,9.89,72.794,72.794,0,0,1-19.967,4.573l.77,4.874A77.335,77.335,0,0,0-109.033-2.23a39.218,39.218,0,0,0,14.459-9.191,36.671,36.671,0,0,0,8.326-14.654A71.135,71.135,0,0,0-83.44-47.16v-1.88h-33.633l.245-1.2C-116.441-52.138-116.146-53.91-115.949-55.523ZM98.245-55.95l9.664,1.806-.23,1.013A354.351,354.351,0,0,1,94.511-8.539c10.944-.894,21.191-2.04,30.5-3.41-3.222-6.7-5.9-12.19-7.974-16.332l-.459-.917,8.717-4.086.439.863c5.406,10.621,10.452,21.149,15,31.293l.417.931-8.984,3.812-.392-.916c-.285-.664-.779-1.786-1.47-3.334-.527-1.181-.981-2.168-1.355-2.946a466.777,466.777,0,0,1-51.66,4.942l-1,.036-.279-8.843,1-.031C78.43-7.524,80.7-7.632,83.75-7.8A383.562,383.562,0,0,0,98.026-55.021Zm7.253,3.39-5.744-1.074A384.544,384.544,0,0,1,85.391-6.486l-.23.608-.649.037c-2.743.155-4.9.263-6.441.325l.153,4.84A468.145,468.145,0,0,0,129.38-5.669l.718-.108.325.649c.436.873,1.012,2.11,1.711,3.676.442.991.805,1.81,1.085,2.448l5.275-2.238c-4.3-9.551-9.037-19.435-14.1-29.41l-5.107,2.394c2.137,4.292,4.864,9.892,8.117,16.665l.586,1.22-1.338.2C116.5-8.639,105.214-7.376,93.1-6.419L91.534-6.3l.554-1.473A350.579,350.579,0,0,0,105.5-52.56Zm-93.117-3.3.955.155c6.8,1.1,15.046,2.629,24.518,4.543l.974.2-1.752,8.947-.986-.2c-9.447-1.909-17.67-3.432-24.442-4.529l-1.02-.165Zm24.1,6.462c-8.6-1.729-16.166-3.132-22.512-4.177l-.983,5.02C19.342-47.51,26.9-46.106,35.5-44.379ZM-22.15-55.083l10.273.893-.086,1a93.942,93.942,0,0,1-4.361,22.134,50.5,50.5,0,0,1-8.792,16.185A48.462,48.462,0,0,1-39.22-3.613,82.839,82.839,0,0,1-59.381,3.852l-.873.211L-63.67-5.465l1.085-.26c9.052-2.169,16.436-5.207,21.947-9.029a37.138,37.138,0,0,0,7.283-6.625,39.083,39.083,0,0,0,5.379-8.46c2.959-6.271,4.89-14.429,5.74-24.247Zm8.1,2.712-6.288-.547a94.485,94.485,0,0,1-2.039,12.783,57.133,57.133,0,0,1-3.795,11.149,41.086,41.086,0,0,1-5.655,8.892A39.136,39.136,0,0,1-39.5-13.11a52.937,52.937,0,0,1-9.99,5.332A84.335,84.335,0,0,1-61.036-4.045l2.057,5.739a79.892,79.892,0,0,0,18.8-7.063A46.477,46.477,0,0,0-26.651-16.158a48.515,48.515,0,0,0,8.434-15.549A90.707,90.707,0,0,0-14.047-52.371Zm72.635,6.146,9.172,1.559-.176.992A74.68,74.68,0,0,1,61.34-23.659,43.894,43.894,0,0,1,50.69-9.608,48.707,48.707,0,0,1,34.741-.836,92.987,92.987,0,0,1,12.686,3.516L11.75,3.6,10.373-5.586l1.062-.09A87.547,87.547,0,0,0,31.009-9.347a40.019,40.019,0,0,0,13.419-7.077,34.814,34.814,0,0,0,8.691-11.544,65.8,65.8,0,0,0,5.3-17.277Zm6.846,3.193-5.228-.889a66.676,66.676,0,0,1-5.29,16.827,36.793,36.793,0,0,1-9.2,12.2A41.989,41.989,0,0,1,31.631-7.447,87.961,87.961,0,0,1,12.666-3.779l.783,5.218A89.808,89.808,0,0,0,34.09-2.728a46.729,46.729,0,0,0,15.3-8.4A41.911,41.911,0,0,0,59.548-24.545,71.668,71.668,0,0,0,65.435-43.032Zm-56.291,4.8.967.172c6.457,1.148,14.411,2.676,23.639,4.54l.974.2-1.753,8.948-.987-.2C23.3-26.346,15.36-27.871,8.393-29.111l-1-.178ZM32.38-31.76c-8.348-1.682-15.621-3.08-21.651-4.162L9.745-30.9c6.471,1.162,13.744,2.56,21.651,4.161Z" transform="translate(144 77)" fill="#fff"/></g></g></svg>