<svg xmlns="http://www.w3.org/2000/svg" width="288" height="100" viewBox="0 0 288 100"><g transform="translate(-71.596 -250.724)"><g transform="translate(68.402 247.492)"><text transform="translate(147.194 80.232)" fill="#fff684" font-size="72" font-family="mplus-1c-medium, 'M\+ \31 c'" font-weight="500" opacity="0.473"><tspan x="-144" y="0">オキナワ</tspan></text><path d="M-101.656-58.456h9.416v11.232h15.48V-38.6H-92.24V-8.784c0,5-.656,7.975-2.064,9.354s-4.382,2.014-9.376,2.014a121.721,121.721,0,0,1-12.2-.725l-.957-.1.56-8.772,1.041.114a102.846,102.846,0,0,0,10.835.714c2,0,2.374-.341,2.389-.355s.355-.407.355-2.461V-29.577a165.641,165.641,0,0,1-14.283,12.423A146.3,146.3,0,0,1-132.922-5.827l-.875.5-4.363-7.8.87-.489a140.123,140.123,0,0,0,17.657-11.814A156.747,156.747,0,0,0-104.9-38.6h-32.9v-8.624h36.144Zm7.416,2h-5.416v11.232H-135.8V-40.6h35.619l-1.626,1.693A159.89,159.89,0,0,1-118.4-23.855a142.445,142.445,0,0,1-17.043,11.49l2.405,4.3a144.732,144.732,0,0,0,15.876-10.672,164.971,164.971,0,0,0,15.8-13.937l1.707-1.707V-9c0,2.029-.29,3.224-.941,3.875s-1.824.941-3.8.941A100.052,100.052,0,0,1-114.413-4.8l-.3,4.764c4.2.411,7.914.619,11.037.619,5.659,0,7.426-.9,7.976-1.442s1.464-2.277,1.464-7.926V-40.6h15.48v-4.624H-94.24Zm60.594-1.493,1.011,12.132,24.088-.865.372,8.841-23.72.791,1.207,14.923,25.022-.865.372,8.838-24.656.863,1.509,18.681-9.913.721-1.587-19.119-26.392.865-.372-8.838,26.024-.863-1.206-14.849-21.566.793-.372-8.838,21.2-.791-.933-11.7Zm-.824,14.2-1.005-12.06-5.929.431.939,11.772-21.278.793.2,4.842,21.49-.791,1.53,18.847-26.1.865.2,4.842,26.312-.863,1.581,19.041L-30.6,3.54l-1.515-18.759,24.736-.865-.2-4.842-24.946.863L-34.057-38.98l23.8-.793-.2-4.839ZM33.56-57.52h9.92v14.04H67.24v9.2H43.48v.8a59.862,59.862,0,0,1-1.634,14.757A29.7,29.7,0,0,1,36.865-7.959,27.181,27.181,0,0,1,27.994-.648a48.784,48.784,0,0,1-13.1,4.508l-.841.174L10.755-4.844l1.136-.239a41.725,41.725,0,0,0,10.475-3.51,19.018,19.018,0,0,0,6.5-5.191c3.112-4.074,4.691-10.7,4.691-19.7v-.8H4.76v-9.2h28.8Zm7.92,2H35.56v14.04H6.76v5.2h28.8v2.8a53.038,53.038,0,0,1-1.252,12.258,23.066,23.066,0,0,1-3.85,8.653,20.987,20.987,0,0,1-7.176,5.753,42.2,42.2,0,0,1-9.849,3.441l1.891,5.1A45.861,45.861,0,0,0,27.05-2.412a25.2,25.2,0,0,0,8.229-6.765A27.73,27.73,0,0,0,39.91-19.221,57.888,57.888,0,0,0,41.48-33.48v-2.8H65.24v-5.2H41.48ZM80-52.84h56.36V-37.8a49.356,49.356,0,0,1-2.739,17.068,32.8,32.8,0,0,1-8.285,12.676A38.435,38.435,0,0,1,111.594.025,69.642,69.642,0,0,1,92.577,3.518l-.907.052L90.285-5.391l1.091-.071a63.808,63.808,0,0,0,16.1-2.884A29.371,29.371,0,0,0,118.3-14.482a24.218,24.218,0,0,0,6.2-9.651A40.736,40.736,0,0,0,126.584-37.8v-5.84H89.56v18.36H80Zm54.36,2H82v23.56h5.56V-45.64h41.024v7.84a42.71,42.71,0,0,1-2.209,14.341,26.2,26.2,0,0,1-6.711,10.437A31.341,31.341,0,0,1,108.113-6.45,64.332,64.332,0,0,1,92.594-3.543l.774,5.008a66.653,66.653,0,0,0,17.562-3.327,36.456,36.456,0,0,0,13.034-7.651,30.813,30.813,0,0,0,7.78-11.912A47.378,47.378,0,0,0,134.36-37.8Z" transform="translate(144 77)" fill="#fff"/></g></g></svg>