<svg xmlns="http://www.w3.org/2000/svg" width="288.899" height="100" viewBox="0 0 288.899 100"><g transform="translate(-70.698 -386.956)"><g transform="translate(68.402 383.724)"><text transform="translate(147.194 80.232)" fill="#fff684" font-size="72" font-family="mplus-1c-medium, 'M\+ \31 c'" font-weight="500" opacity="0.473"><tspan x="-144" y="0">ボウケン</tspan></text><path d="M-78.231-62.515l.472.813c2.256,3.888,4.252,7.564,5.934,10.927l.452.9-7.212,3.511h.386v8.84h-24.84v31.4c0,4.6-.6,7.367-1.9,8.72s-4,2-8.462,2a84.456,84.456,0,0,1-11.733-.946l-.965-.138,1.025-8.755,1.015.145a66.42,66.42,0,0,0,9,.782,6.812,6.812,0,0,0,1.912-.174,11.535,11.535,0,0,0,.184-2.642V-37.52h-26.28v-8.84h26.28V-57.88h9.92v11.52h13.582c-1.711-3.326-3.639-6.868-5.73-10.528l-.519-.908,7.1-3.647.478.819c2.017,3.458,3.966,7.063,5.791,10.713l.447.894L-87.2-46.36h8.568l-.441-.838c-1.429-2.716-3.412-6.342-5.892-10.778l-.511-.914Zm4.161,11.731c-1.443-2.839-3.1-5.893-4.949-9.1l-3.694,1.847c2.007,3.6,3.668,6.634,4.952,9.051Zm-10.507.873c-1.53-3.019-3.142-6-4.8-8.886l-3.554,1.825c1.73,3.051,3.344,6.015,4.81,8.836Zm-20.464-5.97h-5.92v11.52h-26.28v4.84h26.28V-7.128c0,2.618-.244,3.464-.61,3.93-.495.629-1.5.886-3.486.886a64.516,64.516,0,0,1-8.269-.661l-.56,4.781A80.025,80.025,0,0,0-113.4,2.6c4.953,0,6.523-.867,7.018-1.384s1.342-2.173,1.342-7.336v-33.4H-80.2v-4.84h-24.84Zm63.72-3.08h9.56V-47.8H-7.64v13.6a41.736,41.736,0,0,1-2.708,15.481A31.077,31.077,0,0,1-18.52-7,38.539,38.539,0,0,1-31.85.595,67.859,67.859,0,0,1-49.983,3.878l-.922.052L-52.113-4.9l1.079-.063a59.361,59.361,0,0,0,14.96-2.6A30.305,30.305,0,0,0-25.55-13.283,22.821,22.821,0,0,0-19.3-22.1a32.483,32.483,0,0,0,2.1-12.1v-4.976H-55.016V-22.4H-64.36V-47.8h23.04Zm7.56,2h-5.56V-45.8H-62.36v21.4h5.344V-41.176H-15.2V-34.2a34.46,34.46,0,0,1-2.245,12.846,24.8,24.8,0,0,1-6.792,9.58A32.282,32.282,0,0,1-35.449-5.656,60.039,60.039,0,0,1-49.84-3.031l.664,4.856A64.869,64.869,0,0,0-32.5-1.3,36.558,36.558,0,0,0-19.856-8.484a29.094,29.094,0,0,0,7.65-10.975A39.756,39.756,0,0,0-9.64-34.2V-45.8H-33.76Zm49.8-1.055,9.326.64-.1,1.028a76.435,76.435,0,0,1-1.387,8.907H67.6v8.84H50.311a73.225,73.225,0,0,1-1.829,16.147A37,37,0,0,1,43.046-9.828,29.331,29.331,0,0,1,33.63-1.321,43.5,43.5,0,0,1,20.061,3.5l-.866.167L16.41-4.872l1.114-.214A33.926,33.926,0,0,0,28.145-8.839a21.1,21.1,0,0,0,6.991-6.41,29.078,29.078,0,0,0,4-9.954,66.529,66.529,0,0,0,1.4-13.4H21.21A57.34,57.34,0,0,1,10.761-21.59l-.571.653L2.541-25.913l.725-.865A54.131,54.131,0,0,0,11.731-40.67a60.667,60.667,0,0,0,4.2-16.4Zm7.123,2.494L17.8-55.89A62.291,62.291,0,0,1,13.577-39.9,56.088,56.088,0,0,1,5.514-26.365l4.307,2.8a54.842,54.842,0,0,0,9.761-16.386l.242-.651H42.548l0,1a70.178,70.178,0,0,1-1.455,14.83,31.042,31.042,0,0,1-4.3,10.638,23.082,23.082,0,0,1-7.643,7.018A34.971,34.971,0,0,1,19.01-3.349l1.537,4.713A40.811,40.811,0,0,0,32.629-3.053,27.345,27.345,0,0,0,41.41-10.98a35.023,35.023,0,0,0,5.129-11.945A72.616,72.616,0,0,0,48.32-39.6l0-1H65.6v-4.84H21.327l.311-1.243A68.18,68.18,0,0,0,23.16-55.521Zm61.871.991.87.422c8.1,3.93,15.587,7.941,22.252,11.921l.841.5-4.8,8.427-.873-.513c-7.957-4.669-15.3-8.654-21.821-11.844l-.926-.453Zm21.255,13.56c-6.161-3.643-13.011-7.311-20.388-10.915l-2.6,4.929c6.091,3.013,12.862,6.691,20.156,10.949Zm24.331-6.738L139.75-45.7l-.165.944a63.919,63.919,0,0,1-6.23,18.885,47.918,47.918,0,0,1-11.278,14.158A53.3,53.3,0,0,1,105.816-2.4,82.258,82.258,0,0,1,84.688,2.076l-.94.083-1.37-9.318,1.047-.1a75.415,75.415,0,0,0,18.376-3.9,44.719,44.719,0,0,0,13.656-7.673,39.906,39.906,0,0,0,9.4-11.715,57.568,57.568,0,0,0,5.56-16.153Zm6.827,3.55-5.267-1.159A58.79,58.79,0,0,1,126.62-29.6a41.9,41.9,0,0,1-9.875,12.3,46.707,46.707,0,0,1-14.262,8.023,76.315,76.315,0,0,1-17.82,3.909L85.451,0a79.4,79.4,0,0,0,19.674-4.27,51.308,51.308,0,0,0,15.654-8.962,45.927,45.927,0,0,0,10.808-13.571A61.286,61.286,0,0,0,137.444-44.158ZM-88.515-33.106l.417.835c4.309,8.618,8.315,17.286,11.906,25.761l.4.933L-84.7-1.941l-.384-.91C-88.856-11.767-92.8-20.4-96.8-28.5l-.472-.956ZM-78.429-6.662c-3.356-7.866-7.065-15.889-11.041-23.879l-5.066,2.111c3.723,7.583,7.387,15.611,10.9,23.892Zm-50.793-26.051,9.015,3.1-.4.981c-3.547,8.629-7.558,17.208-11.92,25.5l-.437.831L-141.7-6.217l.49-.941c4.24-8.146,8.152-16.455,11.63-24.7Zm6.356,4.3-5.241-1.8c-3.271,7.69-6.915,15.431-10.846,23.04l5.087,2.279C-129.865-12.561-126.169-20.464-122.866-28.415Z" transform="translate(144 77)" fill="#fff"/></g></g></svg>