<svg xmlns="http://www.w3.org/2000/svg" width="326.522" height="117.715" viewBox="0 0 326.522 117.715"><g transform="translate(-180.479 -5621.083)"><g transform="translate(180.479 5621.083)"><rect width="262.235" height="70.568" rx="35.284" transform="translate(20.272 17.176)" fill="#fff"/><path d="M373.489,119.922a21.646,21.646,0,0,0-14.432-5.509H138.264A19.689,19.689,0,0,0,118.575,134.1v29.126a21.637,21.637,0,0,0,3.837,12.325,21.645,21.645,0,0,0,14.432,5.509H357.637a19.688,19.688,0,0,0,19.689-19.688V132.247A21.643,21.643,0,0,0,373.489,119.922Z" transform="translate(-94.818 -93.317)" fill="#7ebf41"/><g transform="translate(24.685 26.135)" style="mix-blend-mode:multiply;isolation:isolate"><path d="M374.289,124.264c-.185-.164-.386-.311-.577-.469a21.651,21.651,0,0,1,.929,6.261v27.06a21.754,21.754,0,0,1-21.754,21.754H134.16a21.6,21.6,0,0,1-13.856-5.04,21.7,21.7,0,0,0,2.908,6.065,21.642,21.642,0,0,0,14.432,5.509H356.372a21.754,21.754,0,0,0,21.754-21.754V136.59A21.643,21.643,0,0,0,374.289,124.264Z" transform="translate(-120.304 -123.795)" fill="#3ad1fc"/></g><g transform="translate(27.893 15.507)"><path d="M127.948,111.267a1.67,1.67,0,0,1-.959-3.038,23.282,23.282,0,0,1,13.421-4.223h39.65a1.67,1.67,0,1,1,0,3.34H140.41a19.959,19.959,0,0,0-11.505,3.619A1.661,1.661,0,0,1,127.948,111.267Z" transform="translate(-126.276 -104.006)" fill="#222d3d"/></g><g transform="translate(18.602 28.466)"><path d="M127.476,188.522a1.661,1.661,0,0,1-.378-.044,23.311,23.311,0,0,1-18.12-22.82V138.6a23.254,23.254,0,0,1,1.994-9.47,1.67,1.67,0,1,1,3.054,1.352,19.919,19.919,0,0,0-1.708,8.117v27.061a19.987,19.987,0,0,0,15.533,19.567,1.67,1.67,0,0,1-.375,3.3Z" transform="translate(-108.978 -128.134)" fill="#222d3d"/></g><g transform="translate(51.205 86.074)"><path d="M266.944,238.731H171.35a1.67,1.67,0,1,1,0-3.34h95.594a1.67,1.67,0,1,1,0,3.34Z" transform="translate(-169.68 -235.391)" fill="#222d3d"/></g><g transform="translate(193.15 86.074)"><path d="M442.6,238.731h-6.969a1.67,1.67,0,0,1,0-3.34H442.6a1.67,1.67,0,1,1,0,3.34Z" transform="translate(-433.958 -235.391)" fill="#222d3d"/></g><g transform="translate(237.669 15.507)"><path d="M525.484,107.346h-6.969a1.67,1.67,0,0,1,0-3.34h6.969a1.67,1.67,0,1,1,0,3.34Z" transform="translate(-516.845 -104.006)" fill="#222d3d"/></g><g transform="translate(96.241 15.507)"><path d="M259.257,107.346H255.2a1.67,1.67,0,1,1,0-3.34h4.057a1.67,1.67,0,1,1,0,3.34Z" transform="translate(-253.53 -104.006)" fill="#222d3d"/></g><g transform="translate(210.138 86.074)"><path d="M500.044,238.731H467.258a1.67,1.67,0,1,1,0-3.34h32.786a1.67,1.67,0,1,1,0,3.34Z" transform="translate(-465.588 -235.391)" fill="#222d3d"/></g><g transform="translate(252.611 15.507)"><path d="M552.807,177.913a1.67,1.67,0,0,1,0-3.34,20.106,20.106,0,0,0,20.084-20.083V127.429a20.106,20.106,0,0,0-20.084-20.083h-6.472a1.67,1.67,0,1,1,0-3.34h6.472a23.45,23.45,0,0,1,23.424,23.423V154.49A23.45,23.45,0,0,1,552.807,177.913Z" transform="translate(-544.665 -104.006)" fill="#222d3d"/></g><g transform="translate(136.345 15.507)"><path d="M420.621,107.346H329.867a1.67,1.67,0,1,1,0-3.34h90.754a1.67,1.67,0,1,1,0,3.34Z" transform="translate(-328.197 -104.006)" fill="#222d3d"/></g><g transform="translate(108.466 15.507)"><path d="M297.127,107.346H277.961a1.67,1.67,0,0,1,0-3.34h19.167a1.67,1.67,0,1,1,0,3.34Z" transform="translate(-276.291 -104.006)" fill="#222d3d"/></g><g transform="translate(165.895 86.074)"><path d="M404.051,238.731H384.884a1.67,1.67,0,1,1,0-3.34h19.167a1.67,1.67,0,1,1,0,3.34Z" transform="translate(-383.214 -235.391)" fill="#222d3d"/></g><g transform="translate(228.769 37.309)"><g transform="translate(11.527 9.514)"><path d="M565.926,165.946a4.7,4.7,0,0,0-.069,6.719l4.363,4.363-6.406-6.406a4.965,4.965,0,0,0-6.92-.178,4.859,4.859,0,0,0-.065,6.935L562,182.547l-7.281-7.282a5.016,5.016,0,0,0-6.993-.18,4.91,4.91,0,0,0-.066,7.008l6.776,6.776L535.6,170.034c-4.84-4.84-8.2-4.7-10.22-2.489a5.405,5.405,0,0,0,.268,7.3l28.875,28.874L552.2,201.4l-8.99-1.6a4.58,4.58,0,0,0-4.694,2.939l-.012.033c-.906,2.488,1.6,4.821,3.832,6.464a63.546,63.546,0,0,0,28,12.077,6.862,6.862,0,0,0,5.848-1.959l18.032-18.032a7.273,7.273,0,0,0,1.357-8.38,52.11,52.11,0,0,0-9.839-13.7L572.62,166.126A4.808,4.808,0,0,0,565.926,165.946Z" transform="translate(-522.824 -163.406)" fill="#fff"/><path d="M594.028,201.125,576,219.157a8.162,8.162,0,0,1-6.937,2.318,64.914,64.914,0,0,1-28.568-12.312c-1.4-1.029-5.643-4.159-4.274-7.926a5.874,5.874,0,0,1,6.013-3.805c.039,0,.078.009.116.016l5,.891-23.685-23.685a6.715,6.715,0,0,1-.307-9.063,5.549,5.549,0,0,1,4.015-1.888c2.407-.054,5.115,1.4,8.046,4.336l8.521,8.521a6.175,6.175,0,0,1,1.819-3.485,6.247,6.247,0,0,1,7.33-.893,6.1,6.1,0,0,1,9.079-4.651,5.91,5.91,0,0,1,1.8-3.6,6.093,6.093,0,0,1,8.478.2l13.112,13.112a53.272,53.272,0,0,1,10.079,14.035A8.543,8.543,0,0,1,594.028,201.125Zm-54.666-.192a3.185,3.185,0,0,0-.738,1.15c-.493,1.355.615,2.991,3.38,5.028a62.358,62.358,0,0,0,27.431,11.843,5.6,5.6,0,0,0,4.759-1.6l18.032-18.032a6,6,0,0,0,1.116-6.913,50.739,50.739,0,0,0-9.6-13.364l-13.112-13.112a3.53,3.53,0,0,0-4.91-.161h0a3.362,3.362,0,0,0-1.054,2.438,3.4,3.4,0,0,0,1,2.46l4.363,4.363a1.275,1.275,0,1,1-1.8,1.8l-6.406-6.406a3.685,3.685,0,0,0-5.134-.161,3.506,3.506,0,0,0-1.1,2.549,3.558,3.558,0,0,0,1.049,2.567l5.167,5.167a1.275,1.275,0,0,1-1.8,1.8l-7.281-7.282a3.737,3.737,0,0,0-5.207-.163,3.635,3.635,0,0,0-.049,5.189l6.776,6.776a1.274,1.274,0,1,1-1.8,1.8l-18.836-18.836c-3.015-3.015-5.029-3.616-6.187-3.59a2.927,2.927,0,0,0-2.191,1.06,4.107,4.107,0,0,0,.228,5.54l28.875,28.874a1.275,1.275,0,0,1-1.8,1.8l-2.038-2.038-8.533-1.522A3.348,3.348,0,0,0,539.362,200.933Z" transform="translate(-521.737 -162.312)" fill="#222d3d"/><g transform="translate(47.786 32.452)"><path d="M5.8,0H32.6a5.8,5.8,0,0,1,5.8,5.8v4.352a5.8,5.8,0,0,1-5.8,5.8H5.8a5.8,5.8,0,0,1-5.8-5.8V5.8A5.8,5.8,0,0,1,5.8,0Z" transform="matrix(0.707, -0.707, 0.707, 0.707, 0, 27.155)" fill="#7ebf41"/><path d="M647.86,237.139l-22.746,22.746a4.4,4.4,0,0,1-6.211,0l-6.877-6.877a4.4,4.4,0,0,1,0-6.211l22.746-22.746a4.4,4.4,0,0,1,6.211,0l6.877,6.877A4.4,4.4,0,0,1,647.86,237.139ZM613.829,248.6a1.844,1.844,0,0,0,0,2.605l6.876,6.877a1.845,1.845,0,0,0,2.606,0l22.746-22.746a1.845,1.845,0,0,0,0-2.606l-6.877-6.877a1.844,1.844,0,0,0-2.605,0Z" transform="translate(-610.724 -222.748)" fill="#222d3d"/></g><g transform="translate(72.046 41.312)"><path d="M660.416,240.008a2.66,2.66,0,1,0,0,3.762A2.66,2.66,0,0,0,660.416,240.008Z" transform="translate(-655.875 -239.229)" fill="#222d3d"/></g></g><g transform="translate(3.172 4.421)"><path d="M508.5,153.19a1.387,1.387,0,0,0-1.866,2.051l3.823,3.478a1.387,1.387,0,0,0,1.866-2.052Z" transform="translate(-506.181 -152.828)" fill="#fff"/></g><g transform="translate(0 17.65)"><path d="M505.082,177.462l-3.485.164a1.387,1.387,0,1,0,.13,2.77l3.485-.164a1.387,1.387,0,1,0-.13-2.77Z" transform="translate(-500.275 -177.46)" fill="#fff"/></g><g transform="translate(4.088 26.165)"><path d="M511.724,193.766l-3.478,3.823a1.387,1.387,0,1,0,2.051,1.866l3.478-3.823a1.387,1.387,0,0,0-2.051-1.866Z" transform="translate(-507.885 -193.312)" fill="#fff"/></g><g transform="translate(15.825 30.623)"><path d="M531.06,201.615a1.387,1.387,0,0,0-1.32,1.451l.185,3.923a1.387,1.387,0,1,0,2.77-.131l-.185-3.924A1.387,1.387,0,0,0,531.06,201.615Z" transform="translate(-529.739 -201.613)" fill="#fff"/></g><g transform="translate(30.471 14.806)"><path d="M562.107,172.167l-3.777.178a1.387,1.387,0,1,0,.131,2.77l3.777-.178a1.387,1.387,0,1,0-.131-2.77Z" transform="translate(-557.008 -172.165)" fill="#fff"/></g><g transform="translate(25.512 2.616)"><path d="M553.572,149.829a1.387,1.387,0,0,0-1.959.093l-3.478,3.823a1.387,1.387,0,1,0,2.052,1.866l3.478-3.823A1.387,1.387,0,0,0,553.572,149.829Z" transform="translate(-547.774 -149.468)" fill="#fff"/></g><g transform="translate(16.208)"><path d="M531.772,144.6a1.386,1.386,0,0,0-1.32,1.451l.165,3.485a1.387,1.387,0,0,0,2.77-.131l-.165-3.485A1.387,1.387,0,0,0,531.772,144.6Z" transform="translate(-530.451 -144.598)" fill="#fff"/></g></g><path d="M121.549,120.3a1.872,1.872,0,1,0-1.872,1.872A1.873,1.873,0,0,0,121.549,120.3Z" transform="translate(-94.461 -95.174)" fill="#222d3d"/><g transform="translate(0 3.745)"><g transform="translate(5.228)"><path d="M85.747,95.9a1.67,1.67,0,0,1-1.67-1.67V83.778a1.67,1.67,0,1,1,3.34,0V94.233A1.67,1.67,0,0,1,85.747,95.9Z" transform="translate(-84.077 -82.108)" fill="#222d3d"/></g><g transform="translate(0 5.227)"><path d="M86.469,95.179H76.014a1.67,1.67,0,0,1,0-3.34H86.469a1.67,1.67,0,1,1,0,3.34Z" transform="translate(-74.344 -91.839)" fill="#222d3d"/></g></g><g transform="translate(300.405 42.991)"><g transform="translate(5.228)"><path d="M645.053,168.972a1.67,1.67,0,0,1-1.67-1.67V156.848a1.67,1.67,0,1,1,3.34,0V167.3A1.67,1.67,0,0,1,645.053,168.972Z" transform="translate(-643.383 -155.178)" fill="#222d3d"/></g><g transform="translate(0 5.228)"><path d="M645.775,168.252H635.32a1.67,1.67,0,0,1,0-3.34h10.455a1.67,1.67,0,0,1,0,3.34Z" transform="translate(-633.65 -164.912)" fill="#222d3d"/></g></g><g transform="translate(24.149)"><path d="M124.72,85.964a5.414,5.414,0,1,1,5.415-5.413A5.419,5.419,0,0,1,124.72,85.964Zm0-7.489a2.075,2.075,0,1,0,2.075,2.075A2.077,2.077,0,0,0,124.72,78.475Z" transform="translate(-119.306 -75.135)" fill="#222d3d"/></g><g transform="translate(293.921 24.721)"><path d="M626.993,131.991a5.414,5.414,0,1,1,5.414-5.413A5.42,5.42,0,0,1,626.993,131.991Zm0-7.489a2.075,2.075,0,1,0,2.075,2.075A2.077,2.077,0,0,0,626.993,124.5Z" transform="translate(-621.578 -121.162)" fill="#222d3d"/></g></g><text transform="translate(245 5682)" fill="#262626" font-size="22" font-family="NotoSansCJKjp-Bold, Noto Sans CJK JP" font-weight="700"><tspan x="0" y="0">ご</tspan><tspan y="0">予約</tspan><tspan y="0">はこちら</tspan></text></g></svg>