<svg xmlns="http://www.w3.org/2000/svg" viewBox="0 0 391.503 168.243"><g transform="translate(-16 -12648.619)"><g transform="translate(-18.465 180.304)"><rect width="13.25" height="4.417" transform="translate(218.897 12602.122)" fill="#fff46a"/><rect width="13.25" height="4.417" transform="translate(232.147 12602.122)" fill="#d95b34"/><path d="M36.438,76.372a1.5,1.5,0,0,1-1.35-.844L-1.349.656A1.5,1.5,0,0,1-.656-1.349a1.5,1.5,0,0,1,2.005.692L37.786,74.216a1.5,1.5,0,0,1-1.348,2.157Z" transform="translate(104.617 12523.307)" fill="#1ea4d9"/><path d="M0,76.372a1.494,1.494,0,0,1-.655-.152,1.5,1.5,0,0,1-.692-2.005L35.088-.656a1.5,1.5,0,0,1,2.005-.692A1.5,1.5,0,0,1,37.786.656L1.349,75.528A1.5,1.5,0,0,1,0,76.372Z" transform="translate(324.344 12523.307)" fill="#1ea4d9"/><g transform="matrix(0.985, -0.174, 0.174, 0.985, 367.447, 12545.038)"><path d="M21.559,6.139C21.07,2.282,19.115-.1,15.143,0,12.2.016,4.269,1.621,3.758,4.478,4,5.494,13.2,5.623,14.4,7.59c2.182,3.157-6.146,3.054-8.4,3.285-2.831.4-9.7,1.862-3.468,2.268,4.523.293,11.637-1.619,12.277.054.409,2.206-3.072,3.447-4.947,4.3-2.325,1.064-5.209,1.438-5.453,2.42-.667,2.691,9.745,2.058,11.3,1.606,5.048-1.468,8.405-2.668,8.435-8.363-.063-1.665-1.521-2.4-.388-3.574.277-.5,4.492-1.415,4-1.7A13.093,13.093,0,0,0,22.505,6.5Z" transform="translate(0 0)" fill="#1ea4d9"/><path d="M1.555,1.914C1.644,1.424.951-.7.137.235c-.518.616.553,1.887,1.2,1.7Z" transform="translate(16.619 1.784)" fill="#fff"/><path d="M1.492,2.192C1.407,1.365,1.1.293.235,0-.393,1.035.3,2.616,1.6,2.313Z" transform="translate(13.72 1.98)" fill="#fff"/><path d="M1.041.26c.35.673.727,3.631-.667,2.563C-.54,2.082.435.636,1.025,0Z" transform="translate(19.742 14.489)" fill="#fff"/><path d="M1.046,2.573c.162-.512.709-3.292-.5-2.4-.581.4-.967,3.018.3,2.573Z" transform="translate(15.923 17.112)" fill="#fff"/><path d="M.455,2.615C.912,2.326,1.631.317.843,0,.189-.116-.394,2.145.344,2.55Z" transform="translate(12.203 18.045)" fill="#fff"/><path d="M.894,1.575c.16-.513.659-1.8-.5-1.54C-.254.221-.075,2.05.741,1.658Z" transform="translate(8.665 18.941)" fill="#fff"/><path d="M1.532,1.447C1.531.9.482-.572.1.237-.36,1.066.919,1.47,1.411,1.559Z" transform="translate(10.347 2.454)" fill="#fff"/><path d="M.689.517C.6-.852-.811.953.68.752Z" transform="translate(7.684 3.317)" fill="#fff"/></g><g transform="matrix(0.985, -0.174, 0.174, 0.985, 388.749, 12572.399)"><path d="M25.73,7.328C25.146,2.723,22.814-.117,18.073,0,14.559.019,5.1,1.934,4.485,5.345c.291,1.212,11.264,1.365,12.7,3.713,2.6,3.768-7.336,3.645-10.02,3.921-3.38.479-11.577,2.222-4.139,2.706,5.4.35,13.889-1.932,14.653.065.489,2.633-3.666,4.114-5.9,5.137C9,22.157,5.557,22.6,5.267,23.776c-.8,3.212,11.63,2.455,13.485,1.917,6.025-1.752,10.032-3.184,10.067-9.981-.076-1.988-1.815-2.868-.463-4.266.329-.6,5.361-1.69,4.772-2.035a15.629,15.629,0,0,0-6.268-1.655Z" transform="translate(0 0)" fill="#1ea4d9"/><path d="M1.855,2.284C1.963,1.7,1.134-.834.164.28c-.619.734.66,2.251,1.427,2.028Z" transform="translate(19.834 2.13)" fill="#fff"/><path d="M1.781,2.616C1.68,1.628,1.307.35.28,0c-.75,1.235.075,3.122,1.635,2.761Z" transform="translate(16.375 2.363)" fill="#fff"/><path d="M1.242.311c.418.8.868,4.332-.8,3.059C-.644,2.484.52.76,1.223,0Z" transform="translate(23.562 17.292)" fill="#fff"/><path d="M1.248,3.07c.194-.611.846-3.928-.6-2.859C-.044.689-.506,3.813,1,3.283Z" transform="translate(19.004 20.423)" fill="#fff"/><path d="M.542,3.122C1.09,2.778,1.947.38,1.006.005.226-.138-.47,2.561.41,3.045Z" transform="translate(14.564 21.536)" fill="#fff"/><path d="M1.068,1.879c.191-.611.786-2.149-.6-1.838C-.3.264-.09,2.446.884,1.978Z" transform="translate(10.341 22.606)" fill="#fff"/><path d="M1.828,1.727C1.826,1.08.574-.682.116.283c-.545.991.981,1.471,1.568,1.578Z" transform="translate(12.349 2.928)" fill="#fff"/><path d="M.822.617c-.1-1.634-1.79.52-.011.28Z" transform="translate(9.171 3.959)" fill="#fff"/></g><g transform="translate(34.465 12569.394)"><path d="M278.536,558.078a3.265,3.265,0,0,1,1.921-1.1c1.337-.368,2.7-.633,4.063-.908a5.173,5.173,0,0,1,1.13-.037,1.981,1.981,0,0,0,1.091-.232,1.458,1.458,0,0,1,.3.136c1.818.953,2.233.886,2.714-1.317a1.257,1.257,0,0,1,.092-.3,13.812,13.812,0,0,1,3.936-4.008.578.578,0,0,1,.311-.037c.713.109,1.472.656,2.079-.224a1.475,1.475,0,0,1,.277-.157c.673-.217,1.377-.317,2.038-.588a1.856,1.856,0,0,1,1.8.157c.866.531,1.975.438,2.87.953a1.427,1.427,0,0,1,.571,1.11c.192-.435.4-.756.879-.643a.5.5,0,0,1,.239.192c-.3,1.006.831.623,1.07,1.1a1.344,1.344,0,0,1,.125.259c.045.128.081.26.132.386.044.075.088.15.139.22s.126.125.193.185c.038.028.072.057.109.086a1.434,1.434,0,0,1,.213.2.8.8,0,0,1,.091.736.838.838,0,0,1-.4.483,1.182,1.182,0,0,1-.787-.405c-.584-.485-1.056-1.146-2-.936-.259.058-.708-.174-.671-.485.092-.767-.69-1.018-.767-1.757-.774.741-1.487,1.116-2.354.364-.3-.263-.74-.016-1.106-.093-.1,0-.14-.2-.219-.129s.121.123.1.231c-.043.365-.168.713-.577.733-.687.034-.558-.684-.834-1.031-.781.149-.759,1.421-1.763,1.213-.052-.011-.058.122-.084.192-.546,1.485-1.278,1.767-2.672,1.034a.543.543,0,0,0-.312-.1c.132.075-.084.006-.034.031,1.29.64,1.586,1.357.115,2.095a5.522,5.522,0,0,0-1.729,1.609,1.887,1.887,0,0,1-2.027.786,12.426,12.426,0,0,0-6.95.856,1.2,1.2,0,0,0-.374,2.138,4.209,4.209,0,0,0,2.482.966,10.863,10.863,0,0,1,2.6.134c.34.1.582.061.73-.3a.49.49,0,0,1,.455-.288c.467-.029,1.283,1.123,1.534,2.094.193.749-.321.939-.831,1.1a11.206,11.206,0,0,0-2.51.682c-.515.31-1.256.089-1.644.7a1.925,1.925,0,0,1-2.593-.143,2.551,2.551,0,0,0-2.1-.849.626.626,0,0,1-.755-.529c.111-.607-.342-.641-.745-.748-.477-.127-1.227-.058-1.049-.849.2-.875.891-.327,1.529-.273C278.224,561.162,277.137,559.6,278.536,558.078Z" transform="translate(-274.2 -548.483)" fill="#e9f2f9"/><path d="M485.41,615.976a1.29,1.29,0,0,1,.915.453c.883,1.393.789,3.077,1.365,4.562a6.969,6.969,0,0,1-3.261,1.664c-.868.245-1.732.508-2.613.693a16.015,16.015,0,0,1-2.78.389,19.048,19.048,0,0,0-2.676.318,6.425,6.425,0,0,1-1.117.118q-1.868,0-3.736,0c-.49-.506-.3-.756.332-.845-.5-.664-1.359-.282-1.932-.7-.109-.456.264-.464.525-.52a1.14,1.14,0,0,0,.875-.593,1.062,1.062,0,0,1,.208-.238,2.714,2.714,0,0,1,1.826.343,1.138,1.138,0,0,0,1.269-.152,4.455,4.455,0,0,1,.982-.564c.789-.377,1.52-.747,2.034.408a1.816,1.816,0,0,0,.753.67c.131.074.4.154.407.067.059-1.274,1.461-.269,1.792-1.066a.246.246,0,0,1,.308-.083c1.134.872,1.956-.341,2.943-.447.636-.069.684-1.223,1.575-.984.071-.449.044-.886-.506-.965-.771-.11-1.179-.791-1.832-1.083a.623.623,0,0,1-.392-.741.8.8,0,0,1,.834-.146A1.873,1.873,0,0,0,485.41,615.976Z" transform="translate(-437.318 -605.014)" fill="#dfeff8"/><path d="M347.891,645.181c-.128.835-.127.84-.905.908-.252.022-.516-.016-.689.231a.67.67,0,0,1-1.061-.069c-.31-.439-.463.153-.686.023a1.186,1.186,0,0,1-.293-.035,1.859,1.859,0,0,0-.561-.1,2.958,2.958,0,0,0-.84.22c-.073.025-.154.024-.221.053-.847.366-1.513-1.062-2.531-.137-.678.617-1.824.353-2.723.656a1.163,1.163,0,0,1-.328-.018,1.426,1.426,0,0,0-1.823.031c-.78.58-1.816.057-2.74.008-.638-.385-1.187-1.149-2.071-.439-.142.114-.387.156-.423.343-.183.947-1.05,1.1-1.7,1.506h-.911a.657.657,0,0,1-.032-.54c.043-.168.379-.533-.209-.288-.176.073-.356-.149-.386-.334-.166-1.03-.857-.854-1.534-.672a1.2,1.2,0,0,1-1.485-.442c.1-.206.237-.447.487-.386.388.093.735-.131,1.108-.07l.147,0c.193-.018.386-.01.579-.011.137-.006.275,0,.412-.006a1.949,1.949,0,0,0,.638-.11,2,2,0,0,1,.378-.084,2.116,2.116,0,0,0,.5-.118c.08-.037.162-.066.245-.095a1.447,1.447,0,0,0,.579-.351,1.35,1.35,0,0,1,1.529-.357c.939.264,1.9.792,2.922.228a.487.487,0,0,1,.528.108,2.794,2.794,0,0,0,2.077.313,5.754,5.754,0,0,1,1.688.1c.6.111,1.315.682,1.526-.469a.283.283,0,0,1,.271-.18c1.066.169,2.2-.386,3.2.213a1.712,1.712,0,0,0,1.512.168c1.068-.354,2.174-.57,3.236-.942a.763.763,0,0,1,.232.194C347.682,644.538,347.753,644.872,347.891,645.181Z" transform="translate(-313.702 -628.753)" fill="#e6f1f8"/><path d="M467.938,581.393a.468.468,0,0,1,.228-.455c.831-.547,1.283.167,1.835.549a.846.846,0,0,1,.133.754c1.091-1.159,2.446-.517,3.652-.643a6.326,6.326,0,0,0,1.905-.436,5.205,5.205,0,0,1,2.577,1.552,2.145,2.145,0,0,1,.607,1.185c-.326.584-.5,1.54-1.367.362-.3-.4-.837-.091-1.207.167-.275.192-.4.54-.661.752-.3.21-.218.478-.138.766.085.3.215.65-.27.766a.962.962,0,0,1-.872-.777c-.147-.969-1.114-1.449-1.317-2.449-.107-.531-1-.453-1.6-.175a2.863,2.863,0,0,1-3.2-.607,1.453,1.453,0,0,1-.417-1.02A.4.4,0,0,1,467.938,581.393Z" transform="translate(-435.571 -575.21)" fill="#e0f0f8"/><path d="M449.643,552.838a1.444,1.444,0,0,1-.61.643c-.3.168-.595.322-.941.073a.912.912,0,0,0-.751-.064c-.433.084-.887.062-1.318.151a.764.764,0,0,1-.622-.12c-.292-.18-.34-.168-.461.209-.081.25-.245.23-.42.259-.532.09-.533.091-.578-.466-.006-.075,0-.15,0-.225a2.476,2.476,0,0,1-.837-1.292,2.659,2.659,0,0,0-2.151-2.141,1.2,1.2,0,0,1-.3-.138,1.283,1.283,0,0,1-.239-.242,1.6,1.6,0,0,1-.16-.3c-.3-.641-.9-.591-1.448-.588a1.835,1.835,0,0,1-1.773-1.195,2.066,2.066,0,0,1,1.452-.024l.449.009a2.279,2.279,0,0,0,.238.217q.109,0,.218.006c.12.146.336.091.464.221l.447.015q.115.11.233.217c.074,0,.148,0,.223.009.07.081.159.143.234.218.074,0,.148,0,.222.008.12.139.331.091.454.224h0a2.169,2.169,0,0,0,.24.22A7.009,7.009,0,0,1,444.36,551a1.433,1.433,0,0,0,1.409.7,5.8,5.8,0,0,1,3.641.92,2.073,2.073,0,0,0,.232.221Z" transform="translate(-409.523 -546.886)" fill="#d3ebf6"/><path d="M261.7,614.73a7.853,7.853,0,0,1,2.216-3,.807.807,0,0,1,.509-.2c.981.134.564.74.279,1.1-.489.611-.975,1.12-.419,1.963.194.294-.079.649-.308.916-.574.668,0,.995.457.958a1.282,1.282,0,0,1,1.323.824.723.723,0,0,0,.608.59c.183.038.452.007.527.16.726,1.478,2.285,1,3.435,1.466a1.975,1.975,0,0,0,1.323-.008c.765-.225,1.113.226.982,1.15a12.34,12.34,0,0,1-1.906-.171c-.773-.125-1.567-.143-2.349-.274-.89-.149-1.773-.318-2.644-.549-.064-.017-.112-.1-.167-.146-1.047-1.114-2.029-2.294-3.132-3.349A2.1,2.1,0,0,1,261.7,614.73Z" transform="translate(-261.229 -601.256)" fill="#d6ebf6"/><path d="M516.555,602.019c.076-.079.193-.146.222-.239a1.33,1.33,0,0,1,1.437-.956c.6-.017.625-.041.852.575.037.1.046.241.188.195a.378.378,0,0,0,.216-.22c.077-.268.176-.489.5-.492.466,1.119.466,1.11,1.717,1.142a4.3,4.3,0,0,1,2.842.906c.081.071.141.164.229.227h0c-.45,1-.488,1.027-1.552.889-.4-.051-.79-.134-1.185-.2l-.157-.006a33.411,33.411,0,0,0-4.19-.705,1.524,1.524,0,0,1-.294-.1C517.03,602.757,516.047,603,516.555,602.019Z" transform="translate(-476.669 -592.193)" fill="#d8edf6"/><path d="M384.685,656.048a1.5,1.5,0,0,1,.911-.229c.118.144.332.1.455.228h0c.915.541.946,1.37.073,1.915a3.681,3.681,0,0,0-3.038-.27c-.122.057-.533.074-.216.41-.267.3-.627.214-.957.216q-2.893.014-5.787.011c-.946,0-1.891,0-2.837,0a.442.442,0,0,1-.1-.458.887.887,0,0,1,.2-.265.9.9,0,0,1,.3-.138,18.473,18.473,0,0,0,5.307-.732l.227,0a3.209,3.209,0,0,1,1.412,0A6.843,6.843,0,0,0,384.685,656.048Z" transform="translate(-355.508 -638.708)" fill="#d0e9f5"/><path d="M293.86,651.705c.082-.494-.267-.757-.585-1.006-.168-.131-.358.01-.469.175a.308.308,0,0,1-.448.144,5.337,5.337,0,0,0-.967-.22.786.786,0,0,0-.225-.006,2.219,2.219,0,0,1-1.442-.538,1.9,1.9,0,0,1-1.389.022.412.412,0,0,1-.315-.416c.015-.548.017-.542-.344-.7-.34-.149-.717-.253-.879-.646.1-.176.211-.335.454-.227.033.245.14.421.413.442a3.271,3.271,0,0,0,1.418-.153c.3.322.583.618.859.918a2.179,2.179,0,0,0,2.063.582.666.666,0,0,0,.488-.423c.143.039.326.036.42.126a.692.692,0,0,0,.831.1,3.018,3.018,0,0,1,1.54-.2.4.4,0,0,1,.374.356c.019.11.012.224.026.336.078.637.1.653.641.368a1.408,1.408,0,0,1,.3-.136.252.252,0,0,1,.2.051c.034.031.038.165.014.178-.438.24-.5.714-.7,1.1h-1.677A.681.681,0,0,1,293.86,651.705Z" transform="translate(-282.456 -632.314)" fill="#e0eef7"/><path d="M359.159,548.838a4.488,4.488,0,0,1,1.524-1.148A11.317,11.317,0,0,1,366,545.877a4.446,4.446,0,0,1,2.185.025c-.7.825-1.813.631-2.407,1.345h0a3.259,3.259,0,0,1-2.279.228h0a6.825,6.825,0,0,0-2.781,2.129c-.281.372-.482.93-1.143.625C359.382,549.782,359.595,549.214,359.159,548.838Z" transform="translate(-343.661 -545.618)" fill="#d4ebf5"/><path d="M344.752,565.764c.218.017.466-.028.608.191a.662.662,0,0,1,.037.539c-.056.215-.121.427-.182.64.323.522-.05.927-.228,1.365-.186.363-.512.68-.543,1.092a1.051,1.051,0,0,1-1.092,1.051c-.662.058-.866-.483-1.093-.958a.961.961,0,0,1-.008-.96,5,5,0,0,1,1.194-1.755C343.82,566.509,344.11,565.942,344.752,565.764Z" transform="translate(-329.254 -562.543)" fill="#cfe8f5"/><path d="M402.067,546.505c.091-.532.3-.884.949-.829.4.034.65-.441,1.083-.51-.307-.009-.614-.022-.921-.027s-.593,0-.89,0c.129-.069.256-.195.386-.2a8.927,8.927,0,0,1,2.14.016,17.905,17.905,0,0,0,3.144.187c.329.015.688-.083.951.223H407.8c-.024.2.1.207.167.273.631.632.629.634,1.393.642.189,0,.379-.008.566,0,.8.055.961.234,1.032,1.133a.318.318,0,0,1-.457,0h0c-.148-.159-.369-.061-.525-.139-.341-.172-.615-.534-1.07-.316-.578-.149-1.151-.32-1.734-.441a3.664,3.664,0,0,1-1.826-.749c-.188-.169-.427-.172-.524.133-.088.274-.232.227-.41.105-.225-.154-.41-.162-.516.139-.05.141-.133.345-.293.264C403.058,546.139,402.58,546.562,402.067,546.505Z" transform="translate(-379.954 -544.875)" fill="#dceef7"/><path d="M274.779,613.488l-.454.227c-.152-.216-.309-.428-.454-.649-.093-.142-.233-.24-.375-.168-.362.182-.66-.078-.989-.1a.414.414,0,0,1-.446-.414c-.012-.261-.061-.548.257-.681a.79.79,0,0,0,.434-.339c.112-.205.216-.407.041-.627-.07-.089-.155-.167-.222-.258-.4-.541-.34-.98.246-1.285a1.135,1.135,0,0,0,.638-.59,1.01,1.01,0,0,0,.1-.424c-.022-.2-.206-.3-.378-.389.163-.249.446-.318.685-.453.072-.079.163-.14.231-.223l.224-.007a1.6,1.6,0,0,1-.417,1.42.675.675,0,0,0-.059.823,5.857,5.857,0,0,0,.31.72c.235.307.451.568.307,1-.047.141.1.35.166.523.083.208.225.428.006.614-.168.142-.351-.017-.526-.061a.917.917,0,0,1-.485-.266.289.289,0,0,0-.4-.072.442.442,0,0,0-.217.479.346.346,0,0,0,.32.269c.479.079.957.166,1.436.246.358.06.391.144.181.533C274.91,613.4,274.835,613.439,274.779,613.488Z" transform="translate(-269.984 -597.515)" fill="#e0eff8"/><path d="M259.115,632.266c.092.064.183.128.276.19.274.181-.058.536.2.711a4.373,4.373,0,0,1,.668.412c.177.176.218.543.411.638a1.267,1.267,0,0,1,.768.745c.121.348.525.5.725.837a1.312,1.312,0,0,0,1.15.794c.153,0,.429-.079.376.229-.025.141-.213.2-.369.208-.113.009-.226.01-.339.015q-.113,0-.226-.009c-.122-.139-.336-.083-.46-.217a6.5,6.5,0,0,1-3.209-2.214,1.514,1.514,0,0,1-.2-1.887c.14-.118.091-.331.228-.451Z" transform="translate(-258.643 -618.792)" fill="#c9e6f3"/><path d="M455.095,656.081c.072-.017.2-.02.208-.051a10.336,10.336,0,0,0,.231-1.155c.036-.307-.317-.389-.437-.614.3,0,.61.018.694-.384.022-.107.1-.2.221-.173.034.007.068.12.063.18-.032.38.184.541.517.586a5.144,5.144,0,0,0,.556.018,9.665,9.665,0,0,1,1.125.013,1.5,1.5,0,0,1,1.329.886.4.4,0,0,1-.057.308.211.211,0,0,1-.3.04c-.1-.056-.18-.134-.275-.195s-.206-.131-.29,0c-.031.047,0,.139.01.21.014.111.032.222.049.333a10.252,10.252,0,0,0-2.431.191,5.9,5.9,0,0,1-1.443.033.183.183,0,0,1-.069-.169c.01-.062.024-.093.04-.093A.179.179,0,0,1,455.095,656.081Z" transform="translate(-424.553 -636.921)" fill="#daedf6"/><path d="M575.819,623.475c-.19-.032-.408-.083-.418-.3a3.725,3.725,0,0,0-.4-1.384,2.885,2.885,0,0,1-.09-1.219.835.835,0,0,0-.406-.851,1.369,1.369,0,0,1-.325-.3c-.184-.2-.106-.339.277-.506.445.27.908.516,1.333.815a2.2,2.2,0,0,1,.693,2.878C576.314,622.933,576.2,623.309,575.819,623.475Z" transform="translate(-525.448 -607.498)" fill="#cbe7f4"/><path d="M356.086,657.127q0,.228,0,.456l-3.189,0c-.036-.164-.189-.355.1-.446.035-.011.076,0,.112-.01.654-.167,1.182-.429,1.183-1.245,0-.349.139-.443.51-.4.3.033.513.02.613-.307.094-.307.3-.261.531-.157a2.329,2.329,0,0,1,1.054.975,1.633,1.633,0,0,1-.684.912h0C356.233,656.97,356.165,657.054,356.086,657.127Z" transform="translate(-338.302 -637.966)" fill="#e0eef7"/><path d="M340.442,583.73c-.042.644.445,1.079.658,1.622a.374.374,0,0,0,.5.15,4.239,4.239,0,0,0,.74-.5.2.2,0,0,0-.01-.3c-.188-.17-.14-.325.012-.472a3.224,3.224,0,0,1,.84-.734,1.405,1.405,0,0,1-.215,1.369,1.113,1.113,0,0,0-.218.375c-.076.235.053.551-.259.689-.273.121-.5-.136-.756-.129a2.815,2.815,0,0,1-1.477-.476.55.55,0,0,1-.267-.463q0-.113.005-.226c.142-.12.085-.336.221-.459A.481.481,0,0,1,340.442,583.73Z" transform="translate(-327.445 -577.548)" fill="#dceef7"/><path d="M436.725,665.346l-.225,0c-.58.3-1.243-.082-1.823.221l-1.132.01-.433-.036c-.126-.248.123-.238.192-.338a2.1,2.1,0,0,1,.294-.344.542.542,0,0,1,.282-.167,4.263,4.263,0,0,1,2.647.378C436.617,665.127,436.661,665.253,436.725,665.346Z" transform="translate(-406.183 -646.186)" fill="#c4e3f3"/><path d="M443.453,669.382a.668.668,0,0,1,.6-.222h1.225c0,.074,0,.147,0,.221Z" transform="translate(-414.959 -649.999)" fill="#d0e9f5"/><path d="M282.326,661.791a.467.467,0,0,1,.46.217A.467.467,0,0,1,282.326,661.791Z" transform="translate(-278.674 -643.765)" fill="#d6ebf6"/><path d="M452.778,549.765a.461.461,0,0,1-.464-.221A.488.488,0,0,1,452.778,549.765Z" transform="translate(-422.454 -548.824)" fill="#dceef7"/><path d="M464.593,554.223a.469.469,0,0,1-.454-.224A.461.461,0,0,1,464.593,554.223Z" transform="translate(-432.455 -552.592)" fill="#dceef7"/><path d="M260.436,632.266a.47.47,0,0,1-.228.451A.452.452,0,0,1,260.436,632.266Z" transform="translate(-259.967 -618.792)" fill="#d6ebf6"/><path d="M340.243,587.916a.468.468,0,0,1-.221.459A.468.468,0,0,1,340.243,587.916Z" transform="translate(-327.475 -581.28)" fill="#e9f2f9"/><path d="M284.047,607.154l-.231.223Z" transform="translate(-279.935 -597.552)" fill="#e9f2f9"/><path d="M517.568,582.275l-.232-.221Z" transform="translate(-477.451 -576.322)" fill="#e0f0f8"/><path d="M569.3,614.735l-.229-.227Z" transform="translate(-521.209 -603.772)" fill="#dfeff8"/><path d="M467.333,555.674l-.24-.22Z" transform="translate(-434.954 -553.823)" fill="#dceef7"/><path d="M461.415,552.751l-.235-.218Z" transform="translate(-429.953 -551.352)" fill="#dceef7"/><path d="M458.458,551.288l-.233-.217Z" transform="translate(-427.453 -550.116)" fill="#dceef7"/><path d="M449.6,548.308l-.238-.218Z" transform="translate(-419.952 -547.595)" fill="#dceef7"/><path d="M324.681,562.96q0,.114,0,.228c-.006.65-.077,1.313.927,1.275.346-.013.356.332.236.609a1.369,1.369,0,0,1-.352.576c-.846.586-.972,1.644-1.61,2.364a1.072,1.072,0,0,0-.084,1.542c.458.511.964.3,1.414-.053a2.165,2.165,0,0,1,1.26-.459,23.951,23.951,0,0,1,3.59-.221c.814.074,1.294.406,1.175,1.3-.068.506.286.945.22,1.448-.151.5-.521.437-.919.389-1.235-.149-2.311.526-3.484.711-.267.042-.419.3-.55.54h0a.431.431,0,0,1-.45-.482c0-.143,0-.285-.006-.428-.462-.114-.462-.114-.543.315-.054.286-.2.406-.441.342a.74.74,0,0,1-.306-.131c-.195-.178-.332-.181-.584-.036a5.051,5.051,0,0,1-2.6.644c-.2,0-.42-.021-.475-.227-.127-.472-.56-.279-.833-.425a3.113,3.113,0,0,1-2.1.015c-.2-.066-.452.187-.464.4-.034.574-.2.763-.644.673a2.005,2.005,0,0,1-.731-.293c-.331-.228-.7.074-.977-.091a.758.758,0,0,0-.842.019.564.564,0,0,1-.541.041,1.062,1.062,0,0,0-.777-.086.664.664,0,0,1-.907-.395c-.136-.256-.251-.225-.529.03-.467.43-.628.458-1.165.131-.127-.077-.256-.257-.381-.2-.577.274-1.033-.035-1.486-.289a.64.64,0,0,0-.9.129,2.979,2.979,0,0,1-.448.342c-.185.2-.5.011-.683.227h0c-.124.132-.338.084-.456.227h-.456c-.185.206-.5.009-.684.227h-.455c-.182-.215-.5-.026-.684-.227h0c.25-.549.793-.51,1.256-.606a6.109,6.109,0,0,0,1.787-.461c.218-.12.387-.292.142-.524a1.02,1.02,0,0,1-.236-.732c-.016-.154-.062-.312-.23-.358-.322-.087-.38-.286-.353-.6.017-.2-.174-.319-.386-.328-.234-.01-.34.134-.368.342-.025.182-.031.366-.044.526-.321.12-.446-.163-.662-.193-.3-.04-.6-.1-.895-.134a.99.99,0,0,0-.438-.005,1.291,1.291,0,0,1-1-.019c-.193-.082-.367.017-.547.071a.9.9,0,0,1-.857-.153,1.317,1.317,0,0,0-1.138-.38c-.184.041-.338-.156-.44-.315a1.613,1.613,0,0,0-.8-.752c-.32-.118-.393-.829-.091-.958.543-.233.658-.68.829-1.141a.268.268,0,0,1,.456-.123.5.5,0,0,0,.789-.067,1.6,1.6,0,0,1,.9-.4c.647-.163,1.368-.083,1.935-.545a.573.573,0,0,1,.544-.032c.362.106.73.194,1.092.3a1.558,1.558,0,0,0,1.008.025,1.337,1.337,0,0,1,1.294.106.419.419,0,0,0,.6-.111,6.016,6.016,0,0,1,1.168-1.224c.393-.244.129-1,.841-.914.46.058.631-.489,1.063-.582.308-.066.355-.378.165-.623a5.628,5.628,0,0,0-.384-.419c-.213-.224-.424-.295-.668-.026-.093.1-.209.032-.279-.07a.227.227,0,0,1,.006-.307c.2-.169.419-.313.649-.48.432.266.745.664,1.319.62a2.092,2.092,0,0,0,1.249-.442c.224-.183.257-.345.091-.57a1.354,1.354,0,0,1-.177-.289.364.364,0,0,1,.377-.525.563.563,0,0,1,.41.157c.188.2.411.112.421-.087.035-.65.5-.878.972-1.12.162-.083.292-.323.488-.225.306.152.039.384.022.583a2.068,2.068,0,0,0-.01.339.491.491,0,0,0,.3.449c.23.089.349-.08.424-.26s.113-.356.168-.536c.461.081.878-.365,1.317-.169a6.418,6.418,0,0,1,1.007.7c.025.018.07.008.161.015.411-.311.749-.808,1.325-.949a.394.394,0,0,1,.308.044c.091.079.008.195-.05.288-.139.226-.16.394.155.512.591.221.587.236.5.774-.011.073-.056.141-.069.215a1.231,1.231,0,0,0,0,.211,1.49,1.49,0,0,0,1.485.192c.321-.075.378-.012.526.446.05.154.123.336.252.343C324.165,562.2,324.258,562.8,324.681,562.96Z" transform="translate(-292.314 -556.777)" fill="#eff5fb"/><path d="M461.183,562.816c.226,0,.453-.011.677.011a.762.762,0,0,1,.418.13c.442.4.872.818,1.282,1.252a.706.706,0,0,1,.22.5,1.623,1.623,0,0,0,.465,1.325,1.394,1.394,0,0,1,.127.424.758.758,0,0,1-.6-.268,1.307,1.307,0,0,0-1.223-.416c-.008-.251.041-.52-.228-.684-.068-.083-.152-.151-.228-.227h0q-.111-.117-.228-.228h0c-.133-.123-.084-.337-.228-.455q0-.114,0-.227C461.666,563.5,461.184,563.256,461.183,562.816Z" transform="translate(-429.955 -560.049)" fill="#dceef7"/><path d="M360.683,560.181l.228-1.365a.632.632,0,0,0,.508-.208c.26-.364.506-.737.752-1.11.039-.059.03-.188.069-.2.872-.27,1.391-1.125,2.274-1.365.071-.019.18.1.271.152a3.8,3.8,0,0,1-.982.887,5.363,5.363,0,0,0-1.6,1.518,1.176,1.176,0,0,1-.382.4,1.485,1.485,0,0,0-.8,1.011C360.982,560.016,360.8,560.088,360.683,560.181Z" transform="translate(-344.95 -554.225)" fill="#dceef7"/><path d="M455.453,561.578c.116.259.531.165.58.415a2.072,2.072,0,0,1-.125.725,1.771,1.771,0,0,0-.425-.346c-.145-.057-.246.122-.354.22a.439.439,0,0,1-.421.072c-.216-.053-.387-.361-.25-.514a.956.956,0,0,0,.311-.8h.457a2.06,2.06,0,0,0,.228.228Z" transform="translate(-424.225 -558.81)" fill="#e0f0f8"/><path d="M387.285,555.569a7.99,7.99,0,0,1,2.279-.227c-.18.277-.355.557-.542.829-.159.23-.313.25-.512-.016a.472.472,0,0,0-.639-.216C387.562,556.053,387.408,555.809,387.285,555.569Z" transform="translate(-367.451 -553.711)" fill="#dceef7"/><path d="M446.4,556.765a1.353,1.353,0,0,0,.4-.165c.126-.109.285-.209.356-.051.173.384.617.385.843.672-.628-.164-.639.459-.9.752-.356-.095-.257-.429-.4-.618A3.639,3.639,0,0,1,446.4,556.765Z" transform="translate(-417.451 -554.679)" fill="#e0f0f8"/><path d="M464.137,571.691a.468.468,0,0,1,.228.455A.468.468,0,0,1,464.137,571.691Z" transform="translate(-432.454 -567.557)" fill="#e0f0f8"/><path d="M467.094,576.121l.228.227Z" transform="translate(-434.955 -571.304)" fill="#e0f0f8"/><path d="M465.616,574.644l.228.228Z" transform="translate(-433.705 -570.054)" fill="#e0f0f8"/><path d="M416.322,562.309l-.1-.052.043-.043Z" transform="translate(-391.93 -559.541)" fill="#eff5fb"/><path d="M480.377,623.253a.753.753,0,0,1,.363-.767c.325-.2.628-.493,1.029-.32a.836.836,0,0,0,.822-.12,3.235,3.235,0,0,1,.6-.281c.454-.125.918-.355,1.386.028a.388.388,0,0,0,.587-.134,1.435,1.435,0,0,1,1.484-.32,19.152,19.152,0,0,0,3.7.679.634.634,0,0,0,.695-.241c.347-.435-.1-2.242-.643-2.4a1.33,1.33,0,0,1-.967-1c.728-.592,1.411-.044,2.11.086h0a1.784,1.784,0,0,0,1.136.88c.228.08.413.164.48.422a.332.332,0,0,0,.44.249.741.741,0,0,1,.728.163c.232.17.443.323.256.635s.115.574.043.867c-.206.1-.353-.056-.521-.111-.438-.142-.528-.125-.613.331a.7.7,0,0,1-.743.674,2.6,2.6,0,0,0-1.541.636c-.479.407-.7.351-1.248-.157-.114-.106-.211-.232-.381-.146-.148.074-.164.212-.185.373-.05.38-.071.381-.388.288-.254-.074-.5-.177-.758-.236-.178-.04-.286.074-.265.255.017.148.086.289.1.437.007.056-.066.174-.1.174-.26,0-.52-.047-.78-.048-.358,0-.406-.274-.5-.52a.36.36,0,0,0-.449-.242c-.241.051-.366-.036-.313-.3a1.713,1.713,0,0,0,.076-.328.3.3,0,0,0-.4-.271,6.766,6.766,0,0,1-1.426.595c-.2.035-.36.261-.532.408-.665.567-.982.6-1.685.08-.226-.167-.361-.193-.582-.011-.139.115-.278-.014-.353-.158C480.879,623.107,480.646,623.111,480.377,623.253Z" transform="translate(-446.187 -606.825)" fill="#e6f1f8"/><path d="M375.465,658.949a3.141,3.141,0,0,0,.214-.518.459.459,0,0,1,.47-.394,7.236,7.236,0,0,1,2.255.171.507.507,0,0,0,.645-.329c.1-.2.118-.452.4-.5a1.032,1.032,0,0,1,.952.239,6.5,6.5,0,0,0,.534.419.968.968,0,0,1-1,.7c-.544,0-1.089.214-1.6-.157a.382.382,0,0,0-.313.031,2.438,2.438,0,0,0-.462.312,1.12,1.12,0,0,1-1.332.166A1.532,1.532,0,0,0,375.465,658.949Z" transform="translate(-357.453 -640.015)" fill="#d9ecf6"/><path d="M417.878,652.559c-.2.546-.206.605-.728.535-.346-.046-.418.331-.684.3a.709.709,0,0,0-.627.152.5.5,0,0,1-.53.1c-.5-.194-1.06.1-1.519-.119a7.479,7.479,0,0,0-1.38-.287,3.054,3.054,0,0,1,1.6-.446,1.6,1.6,0,0,0,1.649-.94.313.313,0,0,1,.388-.152.226.226,0,0,1,.16.265.355.355,0,0,0,.254.44A1.9,1.9,0,0,0,417.878,652.559Z" transform="translate(-388.7 -635.219)" fill="#dcedf7"/><path d="M351.817,651.664c.164-.269.433-.22.684-.227C352.337,651.7,352.067,651.656,351.817,651.664Z" transform="translate(-337.451 -635.008)" fill="#e9f2f9"/><path d="M334.083,654.386c.251.008.52-.041.684.227C334.516,654.606,334.247,654.655,334.083,654.386Z" transform="translate(-322.452 -637.502)" fill="#e9f2f9"/><path d="M341.469,654.617c.164-.268.433-.219.684-.227C341.989,654.658,341.72,654.609,341.469,654.617Z" transform="translate(-328.699 -637.505)" fill="#e9f2f9"/><path d="M454.249,656.088a.467.467,0,0,1-.455-.228A.467.467,0,0,1,454.249,656.088Z" transform="translate(-423.705 -638.749)" fill="#daedf6"/><path d="M348.86,653.137a.469.469,0,0,1,.456-.227A.469.469,0,0,1,348.86,653.137Z" transform="translate(-334.95 -636.253)" fill="#e9f2f9"/><path d="M471.345,591.694c.151.021.344.039.385.191.115.424.343.462.761.422a.682.682,0,0,1,.654.989.736.736,0,0,0,.214.989c.243.224.231.436-.033.663a6.11,6.11,0,0,0-.425.528c-.345.373-.551.387-.912-.017a.542.542,0,0,0-.782-.164,1.066,1.066,0,0,1-1.252-.015,4.8,4.8,0,0,0-1.714-.535c-.393-.065-.8.2-1.224.136a4.761,4.761,0,0,0-.216-.639,1.294,1.294,0,0,1-.1-1.08c.155-.452-.079-.72-.551-.774a3.762,3.762,0,0,1-1.125-.1.51.51,0,0,0-.687.209c-.161.229-.335.292-.55.074a.634.634,0,0,0-.631-.151c-.147.032-.291.141-.431.132a2.8,2.8,0,0,0-2.045.764,1.1,1.1,0,0,1-1.611-.494,1.571,1.571,0,0,1,.377-1.851c.109-.1.259-.164.362-.272.228-.237.343-.495.083-.8a.767.767,0,0,1-.129-.307.313.313,0,0,1,.325-.368,1.241,1.241,0,0,1,.33.077.3.3,0,0,0,.435-.217,3.06,3.06,0,0,0,.166-.421c.053-.276.575-.4.311-.735-.177-.227-.5-.028-.755-.02-.224.007-.327-.165-.367-.36a1.48,1.48,0,0,1,.2-1.091c.067.087.182.169.192.262.046.44.1.838.7.789.1-.008.2.092.3.145.2.106.127.529.4.46.583-.148,1.223.237,1.75-.171a1.328,1.328,0,0,1,1.749-.028c.1.067.279.009.431.009-.017.283-.037.54-.046.8a.414.414,0,0,0,.176.393,1.892,1.892,0,0,1,.98,1.621c.029.4.485.443.656.731a1.945,1.945,0,0,0,2.6.426C470.634,591.733,470.947,591.495,471.345,591.694Z" transform="translate(-428.041 -580.046)" fill="#e9f3fa"/><path d="M518.409,610.429c-.306.212-.68.263-.994.507a1.291,1.291,0,0,1-1.471.229,1.537,1.537,0,0,0-.445-.057c-.609-.1-.609-.1-.736-.907a.3.3,0,0,0,.145-.376c-.1-.241-.245-.463-.319-.709-.1-.325.085-.482.4-.509.014.18-.034.377.1.527.162.176.339.009.51.005.26-.006.263.2.2.509-.131.227-.1.291-.059.259s.047-.124.053-.2a.269.269,0,0,1,.107-.188c-.077.08-.167.148-.1.13.4-.138.7-.108.991-.226a.539.539,0,0,1,.317-.014c.175.045.117.4.351.33.165-.053.3-.227.5-.213.149.01.359-.023.435.06.411.454.947.372,1.463.4a.694.694,0,0,1,.6.443c-.391.076-.746.224-1.136-.141A.648.648,0,0,0,518.409,610.429Z" transform="translate(-475.105 -598.782)" fill="#def0f8"/><path d="M459.934,561.578l-.228-.228Z" transform="translate(-428.706 -558.811)" fill="#dceef7"/><path d="M288,656.871c-.043.051-.078.132-.131.146-.086.023-.142-.048-.1-.122.032-.053.111-.079.173-.111A1.013,1.013,0,0,1,288,656.871Z" transform="translate(-283.271 -639.53)" fill="#e0eef7"/><path d="M373.988,667.907l.228-.228Z" transform="translate(-356.204 -648.745)" fill="#d9ecf6"/><path d="M380.606,577.938c-.288-.163-.659-.244-.677-.678a1.064,1.064,0,0,1,.56-1.136.75.75,0,0,0,.4-.372.841.841,0,0,1,.884-.563c.1,0,.283-.065.293-.124.092-.529.676-.7.831-1.177a1.058,1.058,0,0,1,.8-.735,1.537,1.537,0,0,0,1.253-1.542c.032-.441.145-.525.592-.469.323.041.594.087.779-.251.1-.185.3-.207.484-.247a2.281,2.281,0,0,0,.647-.2c.647-.365,1.173-.41,1.5.411.044.111.232.191.37.233.231.071.253.2.246.42a2.166,2.166,0,0,0,.141.54.462.462,0,0,0,.458.418,1.954,1.954,0,0,1,1.647,1.176,2.486,2.486,0,0,0,.254.372,1.589,1.589,0,0,1,.089,2.075,1.84,1.84,0,0,0-.378,1.278,1.468,1.468,0,0,1-1.145,1.71c-.336.093-.469.695-.966.386a.947.947,0,0,1-.07-.55c.093-1.458.091-1.466-1.376-1.395a1.629,1.629,0,0,1-1.314-.524,1.17,1.17,0,0,0-1.71-.211,1.11,1.11,0,0,1-1.083.165A2.647,2.647,0,0,0,380.606,577.938Z" transform="translate(-361.227 -566.29)" fill="#f6f7fa"/><path d="M384.33,609.7c.041-.509.475-.839.6-1.322a.422.422,0,0,1,.578-.215,1.438,1.438,0,0,0,1.09-.006,1.092,1.092,0,0,1,1.068.2.829.829,0,0,0,1.135-.039,4.142,4.142,0,0,1,.479-.3,1.675,1.675,0,0,1,.483-.263c.226-.043.276.215.4.345a.914.914,0,0,0,.495.253c.152.032.327.1.35.251.061.4.318.4.642.43.591.052,1.093-.284,1.689-.316a2.389,2.389,0,0,1,.248,2.036,4.494,4.494,0,0,1-.143.544c-.015.048-.031.1-.046.144a.588.588,0,0,1-.23.193.805.805,0,0,1-.3.02c-.666-.374-1.118.074-1.6.417a1.742,1.742,0,0,1-.283.128,2.634,2.634,0,0,1-.608.154c-.38-.123-.829-.038-1.129-.411-.119-.148-.388-.262-.506-.153-1.026.955-1.969-.214-2.96-.093a.812.812,0,0,1-.916-.67,2.709,2.709,0,0,0-.536-1.1Z" transform="translate(-364.951 -598.056)" fill="#fbfafb"/><path d="M381.27,621.9a1.622,1.622,0,0,1,.813,1.144.467.467,0,0,0,.592.362c.283-.047.58.051.872-.09.1-.05.285.031.42.081.3.112.152.648.515.642.292,0,.352-.461.685-.516.257-.042.506-.124.762-.177.2-.042.427.032.465.217.123.606.624.516,1.029.615.12-.14.339-.081.456-.228h.228a2.378,2.378,0,0,0,2.051-.455,3.165,3.165,0,0,0,.228-.228c.318-.123.511-.5.912-.455a2.241,2.241,0,0,1-.729.975,1.262,1.262,0,0,0-.476.713c.22.14.353-.061.521-.1.091.071.1.179.124.278a.306.306,0,0,1,.1-.278c.125-.194.285-.189.481-.107a2.7,2.7,0,0,0,.431.107c.036-.248-.1-.526.13-.743.294.046.444.28.6.483.241.311.223.547-.027.921-.062.093-.146.171-.209.263-.3.441-.663.631-.989.331-.342-.315-.7-.24-1.041-.27-.3-.027-.583.043-.81-.241a1.051,1.051,0,0,0-.937-.29,1.694,1.694,0,0,1-1.286-.3.481.481,0,0,0-.417-.1c-.53.258-1.134.069-1.661.305a.9.9,0,0,1-.664.055c-.3-.1-.464.026-.674.236a1.367,1.367,0,0,1-1.969.1c-.379-.3-.752-.606-1.077-.868a.31.31,0,0,1,.152-.352,1.37,1.37,0,0,0,.433-1.808A.787.787,0,0,1,381.27,621.9Z" transform="translate(-361.891 -610.023)" fill="#f6f7fa"/><path d="M477.714,643.59c.026.014.077.031.075.04-.009.06-.013.152-.05.172a1.454,1.454,0,0,1-.3.087.931.931,0,0,1,.106-.183A.858.858,0,0,1,477.714,643.59Z" transform="translate(-443.704 -628.37)" fill="#e6f1f8"/><path d="M445.152,638.143c-.01.11,0,.282-.114.282s-.1-.172-.114-.282Z" transform="translate(-416.203 -623.763)" fill="#f6f7fa"/><path d="M555.318,629.21c-.148.343.037.507.245.694a.452.452,0,0,1,.028.741.223.223,0,0,1-.374-.027.856.856,0,0,1-.161-.292,2.931,2.931,0,0,0-.48-1.234c-.067-.083-.022-.29.024-.421a.306.306,0,0,1,.338-.232.469.469,0,0,1,.251.182A.571.571,0,0,1,555.318,629.21Z" transform="translate(-508.921 -615.549)" fill="#e9f3fa"/><path d="M520.267,614.992c-.067.072-.124.185-.212.22a.549.549,0,0,1-.691-.625c.022-.127.568-.3.578-.206C519.966,614.633,520.138,614.78,520.267,614.992Z" transform="translate(-479.159 -603.643)" fill="#d8edf6"/><path d="M430.717,629.885a2.277,2.277,0,0,1-.946.92c-.222.113-.435.139-.578-.113a.6.6,0,0,0-.527-.352c.116-.343.49-.427.692-.684a.442.442,0,0,1,.674-.079A1.148,1.148,0,0,0,430.717,629.885Z" transform="translate(-402.452 -616.416)" fill="#f6f7fa"/><path d="M424.689,635.189a.469.469,0,0,1-.456.228A.469.469,0,0,1,424.689,635.189Z" transform="translate(-398.702 -621.265)" fill="#f6f7fa"/><path d="M442.2,630.759l-.228.228Z" transform="translate(-413.703 -617.518)" fill="#f6f7fa"/><path d="M452.314,638.142l.1.052-.043.043Z" transform="translate(-422.453 -623.763)" fill="#f6f7fa"/></g><g transform="translate(62.668 12548.421)"><path d="M278.068,555.288a2.246,2.246,0,0,1,1.322-.755c.919-.253,1.859-.435,2.795-.625a3.553,3.553,0,0,1,.777-.025,1.363,1.363,0,0,0,.75-.16,1,1,0,0,1,.209.093c1.251.656,1.536.61,1.867-.906a.862.862,0,0,1,.063-.208,9.5,9.5,0,0,1,2.707-2.757.4.4,0,0,1,.214-.026c.49.075,1.013.451,1.43-.154a1.021,1.021,0,0,1,.191-.108c.463-.149.947-.218,1.4-.4a1.277,1.277,0,0,1,1.24.108c.6.366,1.358.3,1.974.655a.981.981,0,0,1,.392.763c.132-.3.276-.52.6-.442a.346.346,0,0,1,.164.132c-.21.692.571.428.736.759a.919.919,0,0,1,.086.178c.031.088.056.179.091.266.03.051.061.1.1.151s.086.086.133.127c.026.019.049.039.075.059a.988.988,0,0,1,.146.136.549.549,0,0,1,.063.506.577.577,0,0,1-.275.333.813.813,0,0,1-.541-.279c-.4-.334-.726-.788-1.373-.644-.178.04-.487-.12-.462-.334.063-.527-.474-.7-.528-1.209-.532.51-1.023.767-1.619.251-.209-.181-.509-.011-.761-.064-.07,0-.1-.134-.151-.089s.083.085.07.159c-.03.251-.115.49-.4.5-.473.023-.384-.47-.574-.709-.537.1-.522.978-1.213.835-.036-.007-.04.084-.057.132-.376,1.021-.879,1.216-1.838.711a.373.373,0,0,0-.215-.072c.091.051-.058,0-.023.021.887.44,1.091.933.079,1.441a3.8,3.8,0,0,0-1.189,1.107,1.3,1.3,0,0,1-1.394.541,8.546,8.546,0,0,0-4.781.589.822.822,0,0,0-.258,1.47,2.894,2.894,0,0,0,1.707.664,7.484,7.484,0,0,1,1.791.092c.234.066.4.042.5-.208a.337.337,0,0,1,.313-.2c.321-.02.883.772,1.055,1.44.133.515-.221.646-.572.758a7.71,7.71,0,0,0-1.726.469c-.354.213-.864.061-1.131.482a1.324,1.324,0,0,1-1.784-.1,1.754,1.754,0,0,0-1.444-.584.431.431,0,0,1-.519-.364c.077-.417-.235-.441-.513-.515-.328-.087-.844-.04-.721-.584.136-.6.613-.225,1.052-.187C277.853,557.41,277.105,556.332,278.068,555.288Z" transform="translate(-275.085 -548.688)" fill="#e9f2f9"/><path d="M480.565,615.976a.887.887,0,0,1,.629.311c.608.958.543,2.117.939,3.138a4.793,4.793,0,0,1-2.243,1.144c-.6.169-1.191.349-1.8.477a11.018,11.018,0,0,1-1.912.267,13.11,13.11,0,0,0-1.84.219,4.414,4.414,0,0,1-.768.081H471c-.337-.348-.205-.52.228-.581-.342-.456-.935-.194-1.329-.478-.075-.313.182-.319.361-.358a.784.784,0,0,0,.6-.408.736.736,0,0,1,.143-.164,1.867,1.867,0,0,1,1.256.236.783.783,0,0,0,.873-.1,3.064,3.064,0,0,1,.675-.388c.543-.259,1.046-.514,1.4.281a1.249,1.249,0,0,0,.518.461c.09.051.277.106.28.046.041-.876,1-.185,1.233-.733a.169.169,0,0,1,.212-.057c.78.6,1.345-.234,2.024-.308.438-.047.47-.841,1.083-.677.049-.309.03-.61-.348-.664-.531-.076-.811-.544-1.26-.745a.429.429,0,0,1-.27-.51.547.547,0,0,1,.573-.1A1.289,1.289,0,0,0,480.565,615.976Z" transform="translate(-447.485 -608.436)" fill="#dfeff8"/><path d="M340.351,644.825c-.088.574-.088.578-.623.624-.174.015-.355-.011-.474.159a.461.461,0,0,1-.73-.047c-.214-.3-.318.105-.472.016a.811.811,0,0,1-.2-.024,1.278,1.278,0,0,0-.386-.066,2.035,2.035,0,0,0-.578.151c-.05.017-.106.016-.152.036-.583.251-1.041-.73-1.741-.094-.466.424-1.255.243-1.873.452a.8.8,0,0,1-.225-.012.981.981,0,0,0-1.254.021c-.536.4-1.249.039-1.885.005-.438-.265-.817-.79-1.425-.3-.1.078-.266.108-.291.236-.126.651-.722.757-1.169,1.036h-.627a.452.452,0,0,1-.022-.371c.029-.115.261-.367-.144-.2-.121.05-.245-.1-.266-.229-.114-.708-.589-.588-1.055-.462a.826.826,0,0,1-1.021-.3c.072-.142.163-.307.335-.266.267.064.506-.09.762-.048l.1,0c.133-.013.266-.007.4-.008.094,0,.189,0,.283,0a1.338,1.338,0,0,0,.439-.076,1.377,1.377,0,0,1,.26-.058,1.462,1.462,0,0,0,.341-.081c.055-.025.112-.045.169-.065a1,1,0,0,0,.4-.241.929.929,0,0,1,1.052-.246c.646.182,1.306.545,2.01.157a.335.335,0,0,1,.363.075,1.922,1.922,0,0,0,1.428.215,3.954,3.954,0,0,1,1.161.068c.411.076.9.469,1.049-.323a.2.2,0,0,1,.186-.124c.733.116,1.512-.265,2.2.147a1.178,1.178,0,0,0,1.04.116c.734-.244,1.5-.392,2.226-.648a.527.527,0,0,1,.159.133C340.208,644.383,340.257,644.613,340.351,644.825Z" transform="translate(-316.835 -633.525)" fill="#e6f1f8"/><path d="M467.9,581.189a.322.322,0,0,1,.157-.313c.572-.376.883.115,1.262.378a.582.582,0,0,1,.091.518c.75-.8,1.683-.355,2.512-.442a4.351,4.351,0,0,0,1.311-.3,3.579,3.579,0,0,1,1.772,1.067,1.475,1.475,0,0,1,.417.815c-.224.4-.344,1.059-.94.249-.2-.278-.576-.063-.831.115-.189.132-.272.371-.454.517-.208.144-.15.329-.1.527s.148.447-.186.527a.662.662,0,0,1-.6-.534c-.1-.667-.767-1-.906-1.684-.074-.365-.69-.312-1.1-.12a1.969,1.969,0,0,1-2.2-.418,1,1,0,0,1-.287-.7A.278.278,0,0,1,467.9,581.189Z" transform="translate(-445.639 -576.936)" fill="#e0f0f8"/><path d="M445.705,551.095a.994.994,0,0,1-.42.442c-.205.116-.409.222-.648.051a.627.627,0,0,0-.517-.044c-.3.058-.61.043-.906.1a.526.526,0,0,1-.428-.083c-.2-.124-.234-.116-.317.144-.056.172-.169.158-.289.178-.366.062-.366.062-.4-.32,0-.051,0-.1,0-.155a1.7,1.7,0,0,1-.576-.889,1.829,1.829,0,0,0-1.479-1.473.827.827,0,0,1-.209-.095.882.882,0,0,1-.165-.167,1.089,1.089,0,0,1-.11-.209c-.207-.441-.617-.406-1-.4a1.262,1.262,0,0,1-1.22-.822,1.421,1.421,0,0,1,1-.016l.309.006a1.552,1.552,0,0,0,.164.15q.075,0,.15,0c.083.1.231.063.319.152l.308.01q.079.076.16.149c.051,0,.1,0,.153.006.048.056.109.1.161.15.051,0,.1,0,.152.005.082.1.228.062.312.154h0a1.489,1.489,0,0,0,.165.151,4.822,4.822,0,0,1,1.69,1.556.986.986,0,0,0,.969.48,3.992,3.992,0,0,1,2.5.633,1.426,1.426,0,0,0,.159.152Z" transform="translate(-418.109 -547.001)" fill="#d3ebf6"/><path d="M261.7,613.732a5.4,5.4,0,0,1,1.524-2.064.555.555,0,0,1,.35-.135c.675.092.388.509.192.754-.336.421-.671.77-.288,1.35.134.2-.054.446-.212.63-.4.46,0,.684.314.659a.882.882,0,0,1,.91.567.5.5,0,0,0,.418.406c.126.026.311,0,.362.11.5,1.017,1.572.685,2.362,1.008a1.358,1.358,0,0,0,.91-.005c.526-.155.766.155.675.791a8.5,8.5,0,0,1-1.311-.117c-.532-.086-1.078-.1-1.616-.188-.612-.1-1.219-.219-1.819-.378-.044-.012-.077-.066-.115-.1-.72-.767-1.4-1.578-2.155-2.3A1.445,1.445,0,0,1,261.7,613.732Z" transform="translate(-261.376 -604.464)" fill="#d6ebf6"/><path d="M516.51,601.644c.052-.054.133-.1.153-.164a.915.915,0,0,1,.989-.658c.412-.011.43-.028.586.4.026.07.032.166.129.134a.26.26,0,0,0,.149-.151c.053-.185.121-.336.346-.339.32.769.321.763,1.181.785a2.956,2.956,0,0,1,1.955.623c.056.049.1.113.158.156h0c-.31.688-.336.706-1.068.611-.273-.035-.543-.092-.815-.14l-.108,0a22.989,22.989,0,0,0-2.882-.485,1.035,1.035,0,0,1-.2-.069C516.837,602.152,516.161,602.316,516.51,601.644Z" transform="translate(-489.075 -594.885)" fill="#d8edf6"/><path d="M381.089,655.975a1.035,1.035,0,0,1,.627-.157c.081.1.228.066.313.157h0c.629.372.651.942.05,1.317a2.531,2.531,0,0,0-2.09-.186c-.084.039-.367.051-.149.282-.183.207-.431.147-.658.148q-1.99.01-3.98.008c-.65,0-1.3,0-1.951,0a.3.3,0,0,1-.07-.315.609.609,0,0,1,.136-.182.621.621,0,0,1,.2-.1,12.708,12.708,0,0,0,3.65-.5l.156,0a2.207,2.207,0,0,1,.972,0A4.705,4.705,0,0,0,381.089,655.975Z" transform="translate(-361.019 -644.047)" fill="#d0e9f5"/><path d="M291.655,650.627c.056-.34-.184-.521-.4-.692-.116-.09-.246.007-.323.121a.212.212,0,0,1-.308.1,3.669,3.669,0,0,0-.665-.151.543.543,0,0,0-.154,0,1.526,1.526,0,0,1-.992-.37,1.305,1.305,0,0,1-.956.015.283.283,0,0,1-.217-.286c.01-.377.012-.373-.237-.482s-.493-.174-.6-.444c.069-.121.145-.23.312-.156.023.168.1.289.284.3a2.248,2.248,0,0,0,.975-.105c.208.222.4.425.591.631a1.5,1.5,0,0,0,1.419.4.458.458,0,0,0,.336-.291c.1.027.224.025.289.087a.476.476,0,0,0,.572.066,2.076,2.076,0,0,1,1.059-.139.277.277,0,0,1,.257.245c.013.076.008.154.018.231.053.438.067.449.441.253a.973.973,0,0,1,.209-.094.173.173,0,0,1,.139.035c.023.021.026.113.009.123-.3.165-.347.491-.484.758h-1.154A.469.469,0,0,1,291.655,650.627Z" transform="translate(-283.811 -637.289)" fill="#e0eef7"/><path d="M359.159,547.875a3.089,3.089,0,0,1,1.049-.79,7.784,7.784,0,0,1,3.654-1.247,3.058,3.058,0,0,1,1.5.018c-.481.567-1.247.434-1.656.925h0a2.242,2.242,0,0,1-1.568.156h0a4.694,4.694,0,0,0-1.913,1.464c-.193.256-.331.64-.786.43C359.312,548.524,359.459,548.134,359.159,547.875Z" transform="translate(-348.499 -545.66)" fill="#d4ebf5"/><path d="M343.932,565.764c.15.012.321-.02.418.131a.455.455,0,0,1,.026.371c-.039.148-.083.293-.125.44.222.359-.034.638-.157.939-.128.25-.352.468-.373.751a.723.723,0,0,1-.751.723c-.455.04-.6-.333-.752-.659a.661.661,0,0,1-.006-.66,3.438,3.438,0,0,1,.821-1.207C343.291,566.276,343.491,565.887,343.932,565.764Z" transform="translate(-333.272 -563.549)" fill="#cfe8f5"/><path d="M402.067,546c.063-.366.208-.608.653-.57.272.023.447-.3.745-.351-.211-.006-.422-.015-.633-.019s-.408,0-.612,0c.089-.048.176-.134.266-.137a6.142,6.142,0,0,1,1.472.011,12.316,12.316,0,0,0,2.162.128c.227.01.474-.057.654.154h-.766c-.017.137.069.142.115.188.434.434.432.436.958.442.13,0,.26-.006.39,0,.551.038.661.161.71.78a.219.219,0,0,1-.314,0h0c-.1-.109-.254-.042-.361-.1-.235-.118-.423-.367-.736-.217-.4-.1-.792-.22-1.193-.3a2.52,2.52,0,0,1-1.256-.515c-.129-.116-.293-.119-.36.091-.06.188-.16.156-.282.072-.155-.106-.282-.111-.355.1-.034.1-.092.237-.2.181C402.748,545.745,402.42,546.036,402.067,546Z" transform="translate(-386.857 -544.875)" fill="#dceef7"/><path d="M273.928,611.5l-.312.156c-.1-.148-.213-.294-.312-.446-.064-.1-.16-.165-.258-.116-.249.125-.454-.054-.68-.069a.285.285,0,0,1-.306-.284c-.008-.18-.042-.377.177-.468a.543.543,0,0,0,.3-.233c.077-.141.148-.28.028-.431-.048-.061-.107-.115-.153-.177-.274-.372-.234-.674.169-.884a.781.781,0,0,0,.439-.406.7.7,0,0,0,.071-.291c-.015-.14-.142-.208-.26-.267.112-.171.306-.219.471-.311.05-.054.112-.1.159-.153l.154,0a1.1,1.1,0,0,1-.287.977.464.464,0,0,0-.04.566,4.026,4.026,0,0,0,.213.5c.162.211.31.391.211.688-.032.1.067.241.114.36.057.143.155.295,0,.422-.116.1-.242-.012-.362-.042a.63.63,0,0,1-.333-.183.2.2,0,0,0-.274-.05.3.3,0,0,0-.149.329.238.238,0,0,0,.22.185c.33.054.658.114.988.169.246.041.269.1.125.367C274.018,611.437,273.966,611.463,273.928,611.5Z" transform="translate(-270.63 -600.51)" fill="#e0eff8"/><path d="M258.967,632.266c.063.044.126.088.19.131.188.124-.04.369.137.489a3,3,0,0,1,.46.283c.122.121.15.374.282.439a.872.872,0,0,1,.529.512c.083.239.361.344.5.576a.9.9,0,0,0,.791.546c.105,0,.3-.054.258.157-.017.1-.146.135-.254.143-.077.006-.155.007-.233.01q-.078,0-.155-.006c-.084-.1-.231-.057-.316-.149a4.467,4.467,0,0,1-2.207-1.523,1.042,1.042,0,0,1-.139-1.3c.1-.081.063-.228.157-.31Z" transform="translate(-258.643 -622.998)" fill="#c9e6f3"/><path d="M455,655.338c.05-.011.138-.014.143-.035a7.115,7.115,0,0,0,.159-.794c.025-.211-.218-.267-.3-.422.207,0,.419.012.477-.264.015-.073.067-.137.152-.119.023.005.047.082.044.124-.022.261.127.372.356.4a3.552,3.552,0,0,0,.382.012,6.632,6.632,0,0,1,.774.009,1.033,1.033,0,0,1,.914.61.272.272,0,0,1-.039.212.145.145,0,0,1-.2.028c-.066-.039-.124-.092-.189-.134s-.142-.09-.2,0c-.022.032,0,.1.007.144.01.076.022.153.034.229a7.058,7.058,0,0,0-1.672.131,4.058,4.058,0,0,1-.993.023.126.126,0,0,1-.048-.116c.007-.042.016-.064.028-.064A.123.123,0,0,1,455,655.338Z" transform="translate(-433.993 -642.159)" fill="#daedf6"/><path d="M575.277,622.051c-.13-.022-.281-.057-.288-.2a2.563,2.563,0,0,0-.277-.952,1.984,1.984,0,0,1-.062-.838.574.574,0,0,0-.279-.585.94.94,0,0,1-.224-.21c-.126-.138-.073-.233.191-.348.306.186.625.355.917.561a1.513,1.513,0,0,1,.477,1.979C575.618,621.678,575.54,621.937,575.277,622.051Z" transform="translate(-540.63 -611.061)" fill="#cbe7f4"/><path d="M355.067,656.443v.314l-2.193,0c-.025-.113-.13-.244.068-.307.024-.008.052,0,.077-.007.45-.115.813-.3.814-.857,0-.24.1-.3.351-.276.207.023.353.014.422-.211s.208-.18.366-.108a1.6,1.6,0,0,1,.725.671,1.123,1.123,0,0,1-.47.627h0C355.168,656.335,355.122,656.393,355.067,656.443Z" transform="translate(-342.835 -643.263)" fill="#e0eef7"/><path d="M340.3,583.659c-.029.443.306.742.453,1.116a.257.257,0,0,0,.341.1,2.915,2.915,0,0,0,.509-.341.136.136,0,0,0-.007-.2c-.13-.117-.1-.224.008-.325a2.22,2.22,0,0,1,.578-.5.967.967,0,0,1-.147.941.763.763,0,0,0-.15.258c-.052.161.036.379-.178.474-.188.083-.344-.094-.52-.088a1.937,1.937,0,0,1-1.016-.327.379.379,0,0,1-.184-.319q0-.077,0-.155c.1-.083.059-.231.152-.316A.331.331,0,0,1,340.3,583.659Z" transform="translate(-331.36 -579.407)" fill="#dceef7"/><path d="M435.587,665.13l-.155,0c-.4.205-.855-.056-1.254.152l-.778.007-.3-.025c-.087-.171.085-.164.132-.233a1.453,1.453,0,0,1,.2-.237.373.373,0,0,1,.194-.115,2.932,2.932,0,0,1,1.821.26C435.512,664.979,435.542,665.066,435.587,665.13Z" transform="translate(-414.579 -651.951)" fill="#c4e3f3"/><path d="M443.453,669.313a.459.459,0,0,1,.411-.152h.842c0,.051,0,.1,0,.152Z" transform="translate(-423.854 -655.98)" fill="#d0e9f5"/><path d="M282.326,661.791a.321.321,0,0,1,.316.149A.321.321,0,0,1,282.326,661.791Z" transform="translate(-279.814 -649.392)" fill="#d6ebf6"/><path d="M452.633,549.7a.317.317,0,0,1-.319-.152A.336.336,0,0,1,452.633,549.7Z" transform="translate(-431.775 -549.049)" fill="#dceef7"/><path d="M464.451,554.153a.323.323,0,0,1-.312-.154A.317.317,0,0,1,464.451,554.153Z" transform="translate(-442.346 -553.031)" fill="#dceef7"/><path d="M260.365,632.266a.323.323,0,0,1-.157.31A.311.311,0,0,1,260.365,632.266Z" transform="translate(-260.042 -622.998)" fill="#d6ebf6"/><path d="M340.174,587.916a.322.322,0,0,1-.152.316A.322.322,0,0,1,340.174,587.916Z" transform="translate(-331.392 -583.352)" fill="#e9f2f9"/><path d="M283.975,607.154l-.159.153Z" transform="translate(-281.146 -600.549)" fill="#e9f2f9"/><path d="M517.5,582.206l-.159-.152Z" transform="translate(-489.901 -578.111)" fill="#e0f0f8"/><path d="M569.229,614.664l-.158-.156Z" transform="translate(-536.15 -607.123)" fill="#dfeff8"/><path d="M467.258,555.605l-.165-.151Z" transform="translate(-444.986 -554.332)" fill="#dceef7"/><path d="M461.342,552.683l-.161-.15Z" transform="translate(-439.701 -551.721)" fill="#dceef7"/><path d="M458.385,551.22l-.16-.149Z" transform="translate(-437.059 -550.414)" fill="#dceef7"/><path d="M449.521,548.24l-.164-.15Z" transform="translate(-429.131 -547.75)" fill="#dceef7"/><path d="M316.493,561.707q0,.078,0,.157c0,.447-.053.9.637.877.238-.009.245.228.162.419a.943.943,0,0,1-.242.4c-.582.4-.669,1.131-1.107,1.626a.737.737,0,0,0-.058,1.06c.315.352.663.208.973-.037a1.49,1.49,0,0,1,.867-.315,16.5,16.5,0,0,1,2.469-.152c.56.051.89.28.808.893-.047.348.2.65.152,1-.1.342-.359.3-.632.268a8.581,8.581,0,0,0-2.4.489c-.184.029-.288.209-.378.371h0a.3.3,0,0,1-.309-.332c0-.1,0-.2,0-.294-.318-.078-.318-.078-.373.217-.037.2-.139.279-.3.235a.51.51,0,0,1-.21-.09c-.134-.123-.229-.125-.4-.025a3.474,3.474,0,0,1-1.789.443c-.135,0-.289-.015-.327-.156-.087-.325-.385-.192-.573-.292a2.14,2.14,0,0,1-1.448.01c-.14-.045-.311.129-.319.276-.023.395-.135.525-.443.463a1.378,1.378,0,0,1-.5-.2c-.227-.157-.483.051-.672-.063a.521.521,0,0,0-.579.013.389.389,0,0,1-.372.028.73.73,0,0,0-.534-.059.457.457,0,0,1-.624-.272c-.094-.176-.173-.155-.364.021-.321.3-.432.315-.8.09-.087-.053-.176-.177-.262-.136-.4.188-.71-.024-1.022-.2a.44.44,0,0,0-.622.089,2.06,2.06,0,0,1-.308.235c-.127.141-.346.007-.47.156h0c-.085.091-.232.058-.314.156h-.313c-.127.141-.346.006-.47.156H302.7c-.125-.148-.342-.018-.47-.156h0c.172-.378.545-.351.864-.417a4.2,4.2,0,0,0,1.229-.317c.15-.082.266-.2.1-.36a.7.7,0,0,1-.163-.5c-.011-.106-.043-.215-.158-.246-.221-.06-.261-.2-.243-.41.012-.14-.12-.219-.266-.225-.161-.007-.234.092-.254.235-.017.125-.022.252-.03.362-.22.082-.307-.112-.455-.132-.206-.028-.41-.066-.616-.092a.683.683,0,0,0-.3,0,.887.887,0,0,1-.685-.013c-.133-.056-.253.012-.376.049a.619.619,0,0,1-.589-.105.906.906,0,0,0-.783-.262c-.127.028-.233-.108-.3-.217a1.109,1.109,0,0,0-.553-.517c-.22-.081-.27-.57-.063-.659.373-.16.453-.468.57-.785a.184.184,0,0,1,.313-.085.344.344,0,0,0,.542-.046,1.1,1.1,0,0,1,.621-.277c.445-.112.941-.057,1.331-.375a.394.394,0,0,1,.374-.022c.249.073.5.133.751.207a1.072,1.072,0,0,0,.694.017.919.919,0,0,1,.89.073.289.289,0,0,0,.41-.077,4.135,4.135,0,0,1,.8-.842c.27-.168.089-.69.579-.629.316.04.434-.336.731-.4.212-.046.244-.26.114-.429a3.876,3.876,0,0,0-.264-.288c-.146-.154-.292-.2-.46-.018-.064.07-.144.022-.192-.048a.156.156,0,0,1,0-.211c.137-.116.288-.215.446-.33.3.183.512.456.907.426a1.439,1.439,0,0,0,.859-.3c.154-.126.177-.238.063-.392a.934.934,0,0,1-.122-.2.25.25,0,0,1,.259-.361.387.387,0,0,1,.282.108c.129.136.283.077.29-.06.024-.447.342-.6.669-.77.112-.057.2-.222.335-.155.21.1.026.264.015.4a1.429,1.429,0,0,0-.007.233.338.338,0,0,0,.206.309c.158.061.24-.055.292-.179s.078-.245.116-.368c.317.056.6-.251.906-.116a4.422,4.422,0,0,1,.692.483c.017.012.048.005.111.01.283-.214.515-.556.911-.653a.271.271,0,0,1,.212.03c.063.055.005.134-.034.2-.1.155-.11.271.106.352.406.152.4.163.347.533-.008.05-.039.1-.048.148a.846.846,0,0,0,0,.145,1.024,1.024,0,0,0,1.021.132c.221-.052.26-.009.362.306.034.106.084.231.173.236C316.138,561.184,316.2,561.594,316.493,561.707Z" transform="translate(-294.23 -557.454)" fill="#eff5fb"/><path d="M461.183,562.816c.155,0,.312-.008.465.008a.525.525,0,0,1,.288.09c.3.276.6.563.882.861a.486.486,0,0,1,.152.345,1.116,1.116,0,0,0,.32.911.961.961,0,0,1,.087.292.521.521,0,0,1-.412-.184.9.9,0,0,0-.841-.286c-.006-.172.028-.358-.157-.47-.047-.057-.1-.1-.157-.156h0q-.076-.08-.157-.157h0c-.091-.085-.058-.232-.157-.313q0-.078,0-.156C461.516,563.289,461.184,563.118,461.183,562.816Z" transform="translate(-439.703 -560.912)" fill="#dceef7"/><path d="M360.683,558.853l.157-.939a.435.435,0,0,0,.349-.143c.179-.25.348-.507.517-.764.026-.04.021-.129.047-.138.6-.186.957-.774,1.564-.939.049-.013.124.067.186.1a2.617,2.617,0,0,1-.675.61,3.69,3.69,0,0,0-1.1,1.044.809.809,0,0,1-.262.276,1.021,1.021,0,0,0-.553.7C360.889,558.74,360.762,558.79,360.683,558.853Z" transform="translate(-349.862 -554.757)" fill="#dceef7"/><path d="M455.127,561.506c.08.178.365.113.4.285a1.424,1.424,0,0,1-.086.5,1.221,1.221,0,0,0-.292-.238c-.1-.04-.169.084-.244.151a.3.3,0,0,1-.29.05c-.149-.036-.266-.248-.172-.354a.657.657,0,0,0,.214-.549h.314a1.409,1.409,0,0,0,.157.156Z" transform="translate(-433.647 -559.603)" fill="#e0f0f8"/><path d="M387.285,555.492a5.5,5.5,0,0,1,1.568-.156c-.124.19-.244.383-.373.57-.109.158-.216.172-.352-.011a.325.325,0,0,0-.44-.148C387.475,555.825,387.37,555.657,387.285,555.492Z" transform="translate(-373.642 -554.214)" fill="#dceef7"/><path d="M446.4,556.672a.929.929,0,0,0,.273-.114c.087-.075.2-.144.245-.035.119.264.424.264.58.462-.432-.113-.44.316-.617.517-.245-.065-.176-.3-.274-.425A2.5,2.5,0,0,1,446.4,556.672Z" transform="translate(-426.487 -555.237)" fill="#e0f0f8"/><path d="M464.137,571.691a.322.322,0,0,1,.157.313A.322.322,0,0,1,464.137,571.691Z" transform="translate(-442.344 -568.847)" fill="#e0f0f8"/><path d="M467.094,576.121l.157.156Z" transform="translate(-444.987 -572.807)" fill="#e0f0f8"/><path d="M465.616,574.644l.157.157Z" transform="translate(-443.666 -571.487)" fill="#e0f0f8"/><path d="M416.292,562.279l-.065-.036.029-.029Z" transform="translate(-399.515 -560.375)" fill="#eff5fb"/><path d="M480.376,621.65a.518.518,0,0,1,.25-.528c.223-.141.432-.339.708-.22a.575.575,0,0,0,.565-.082,2.225,2.225,0,0,1,.412-.193c.312-.086.631-.244.953.019a.267.267,0,0,0,.4-.092.987.987,0,0,1,1.02-.22,13.187,13.187,0,0,0,2.546.467.436.436,0,0,0,.478-.165c.239-.3-.071-1.542-.442-1.648a.915.915,0,0,1-.665-.685c.5-.407.97-.03,1.451.059h0a1.228,1.228,0,0,0,.782.605c.157.055.284.113.33.29a.228.228,0,0,0,.3.172.51.51,0,0,1,.5.112c.16.117.3.222.176.437s.079.395.03.6c-.142.068-.243-.039-.358-.076-.3-.1-.363-.086-.421.227a.483.483,0,0,1-.511.464,1.792,1.792,0,0,0-1.06.438c-.33.28-.482.242-.858-.108-.079-.073-.145-.16-.262-.1-.1.051-.113.146-.128.257-.034.261-.049.262-.267.2-.175-.051-.345-.122-.522-.162-.122-.028-.2.051-.182.175.012.1.059.2.071.3,0,.038-.046.12-.07.12-.179,0-.358-.032-.536-.033-.246,0-.28-.188-.347-.358a.248.248,0,0,0-.309-.167c-.166.035-.252-.025-.215-.2a1.179,1.179,0,0,0,.052-.226.207.207,0,0,0-.272-.187,4.653,4.653,0,0,1-.981.409c-.135.024-.248.18-.366.281-.457.39-.675.413-1.159.055-.156-.115-.249-.133-.4-.008-.1.079-.191-.009-.243-.108C480.721,621.549,480.561,621.552,480.376,621.65Z" transform="translate(-456.859 -610.35)" fill="#e6f1f8"/><path d="M375.465,658.452a2.166,2.166,0,0,0,.147-.356.316.316,0,0,1,.323-.271,4.976,4.976,0,0,1,1.551.118.349.349,0,0,0,.444-.226c.067-.137.081-.311.274-.342a.71.71,0,0,1,.655.164,4.456,4.456,0,0,0,.367.288.665.665,0,0,1-.689.485c-.374,0-.749.147-1.1-.108a.263.263,0,0,0-.216.022,1.685,1.685,0,0,0-.318.215.77.77,0,0,1-.916.114A1.055,1.055,0,0,0,375.465,658.452Z" transform="translate(-363.076 -645.428)" fill="#d9ecf6"/><path d="M416.17,652.287c-.136.375-.142.416-.5.368-.238-.032-.287.227-.471.2a.488.488,0,0,0-.432.1.346.346,0,0,1-.365.072c-.346-.133-.729.066-1.045-.082a5.136,5.136,0,0,0-.949-.2,2.1,2.1,0,0,1,1.1-.307,1.1,1.1,0,0,0,1.135-.647.215.215,0,0,1,.267-.1.156.156,0,0,1,.11.182.244.244,0,0,0,.175.3A1.308,1.308,0,0,0,416.17,652.287Z" transform="translate(-396.101 -640.359)" fill="#dcedf7"/><path d="M351.817,651.593c.113-.185.3-.151.47-.156C352.174,651.621,351.989,651.588,351.817,651.593Z" transform="translate(-341.936 -640.136)" fill="#e9f2f9"/><path d="M334.083,654.386c.172.005.358-.028.47.156C334.381,654.537,334.2,654.571,334.083,654.386Z" transform="translate(-326.082 -642.772)" fill="#e9f2f9"/><path d="M341.469,654.546c.113-.184.3-.151.47-.156C341.827,654.574,341.641,654.541,341.469,654.546Z" transform="translate(-332.685 -642.776)" fill="#e9f2f9"/><path d="M454.107,656.017a.321.321,0,0,1-.313-.157A.321.321,0,0,1,454.107,656.017Z" transform="translate(-433.098 -644.09)" fill="#daedf6"/><path d="M348.86,653.066a.322.322,0,0,1,.314-.156A.322.322,0,0,1,348.86,653.066Z" transform="translate(-339.292 -641.453)" fill="#e9f2f9"/><path d="M467.466,590.059c.1.015.236.027.265.132.079.292.236.318.523.291a.469.469,0,0,1,.45.68.506.506,0,0,0,.147.68c.167.154.159.3-.023.456a4.2,4.2,0,0,0-.293.363c-.238.257-.379.266-.627-.012a.373.373,0,0,0-.538-.113.733.733,0,0,1-.861-.01,3.306,3.306,0,0,0-1.179-.368c-.27-.045-.55.14-.842.093a3.266,3.266,0,0,0-.148-.439.89.89,0,0,1-.068-.743c.106-.311-.054-.495-.379-.533a2.589,2.589,0,0,1-.774-.071.351.351,0,0,0-.473.144c-.111.158-.23.2-.378.051a.436.436,0,0,0-.434-.1c-.1.022-.2.1-.3.091a1.93,1.93,0,0,0-1.406.525.755.755,0,0,1-1.108-.34,1.081,1.081,0,0,1,.259-1.273c.075-.071.178-.113.249-.187.157-.163.236-.34.057-.548a.528.528,0,0,1-.089-.211.216.216,0,0,1,.223-.253.855.855,0,0,1,.227.053.209.209,0,0,0,.3-.15,2.11,2.11,0,0,0,.114-.289c.037-.19.4-.273.214-.505-.122-.156-.342-.019-.519-.014-.154,0-.225-.113-.253-.247a1.019,1.019,0,0,1,.138-.751c.046.06.125.116.132.18.032.3.072.577.484.543.066-.005.138.063.206.1.135.072.087.364.275.316.4-.1.841.163,1.2-.118a.913.913,0,0,1,1.2-.019c.066.046.192.006.3.006-.012.195-.025.372-.032.549a.285.285,0,0,0,.121.27,1.3,1.3,0,0,1,.674,1.115c.02.274.334.305.451.5a1.338,1.338,0,0,0,1.791.293C466.977,590.086,467.192,589.922,467.466,590.059Z" transform="translate(-437.68 -582.047)" fill="#e9f3fa"/><path d="M517.209,609.861c-.211.146-.468.181-.684.348a.888.888,0,0,1-1.011.158,1.06,1.06,0,0,0-.306-.039c-.419-.07-.419-.071-.506-.624a.207.207,0,0,0,.1-.259c-.067-.165-.169-.318-.219-.488-.067-.224.059-.331.276-.35.01.124-.023.26.071.362.111.121.233.006.351,0,.179,0,.181.139.136.35-.09.156-.069.2-.04.178s.033-.085.036-.139a.186.186,0,0,1,.074-.129c-.053.055-.115.1-.07.09.275-.1.482-.074.682-.156a.37.37,0,0,1,.218-.009c.12.031.08.278.241.227.114-.036.2-.156.344-.147.1.007.247-.016.3.041.283.312.652.256,1.006.276a.477.477,0,0,1,.414.3c-.269.052-.513.154-.782-.1A.445.445,0,0,0,517.209,609.861Z" transform="translate(-487.423 -601.849)" fill="#def0f8"/><path d="M459.863,561.508l-.157-.157Z" transform="translate(-438.383 -559.604)" fill="#dceef7"/><path d="M287.928,656.844c-.03.035-.054.091-.09.1-.059.016-.1-.033-.068-.084s.077-.055.119-.077A.676.676,0,0,1,287.928,656.844Z" transform="translate(-284.672 -644.916)" fill="#e0eef7"/><path d="M373.988,667.836l.157-.157Z" transform="translate(-361.756 -654.656)" fill="#d9ecf6"/><path d="M380.394,575.52c-.2-.112-.453-.168-.465-.466a.732.732,0,0,1,.385-.781.515.515,0,0,0,.278-.256.578.578,0,0,1,.608-.388c.069,0,.195-.045.2-.085.063-.364.465-.48.572-.81a.728.728,0,0,1,.548-.505,1.057,1.057,0,0,0,.862-1.06c.022-.3.1-.361.407-.323.223.028.408.06.536-.172.07-.128.2-.142.333-.17a1.572,1.572,0,0,0,.445-.138c.445-.251.807-.282,1.029.283.03.076.16.131.255.16.159.049.174.14.169.289a1.492,1.492,0,0,0,.1.371.318.318,0,0,0,.315.287,1.344,1.344,0,0,1,1.133.809,1.727,1.727,0,0,0,.175.256,1.093,1.093,0,0,1,.061,1.427,1.266,1.266,0,0,0-.26.879,1.01,1.01,0,0,1-.787,1.176c-.231.064-.322.478-.664.265a.651.651,0,0,1-.048-.379c.064-1,.063-1.008-.947-.959a1.121,1.121,0,0,1-.9-.36.8.8,0,0,0-1.176-.145.764.764,0,0,1-.745.114A1.821,1.821,0,0,0,380.394,575.52Z" transform="translate(-367.065 -567.508)" fill="#f6f7fa"/><path d="M384.33,609.093c.028-.35.327-.577.412-.909a.29.29,0,0,1,.4-.148.989.989,0,0,0,.75,0,.751.751,0,0,1,.735.134.57.57,0,0,0,.781-.027,2.858,2.858,0,0,1,.329-.206,1.152,1.152,0,0,1,.332-.181c.156-.029.19.148.275.237a.629.629,0,0,0,.34.174c.1.022.225.068.241.172.042.277.219.276.442.3.407.035.752-.2,1.162-.217a1.644,1.644,0,0,1,.171,1.4,3.1,3.1,0,0,1-.1.374l-.031.1a.406.406,0,0,1-.159.133.555.555,0,0,1-.208.014c-.458-.257-.769.051-1.1.287a1.209,1.209,0,0,1-.195.088,1.814,1.814,0,0,1-.418.106c-.261-.085-.57-.026-.776-.283-.082-.1-.267-.18-.348-.105-.706.657-1.355-.147-2.036-.064a.559.559,0,0,1-.63-.461,1.864,1.864,0,0,0-.369-.754Z" transform="translate(-371.001 -601.082)" fill="#fbfafb"/><path d="M381.1,621.9a1.116,1.116,0,0,1,.559.787.321.321,0,0,0,.407.249c.195-.033.4.035.6-.062.071-.034.2.022.289.056.209.077.1.445.354.441.2,0,.242-.317.471-.355.177-.029.348-.086.524-.122.141-.029.294.022.32.149.085.417.429.355.707.423.083-.1.233-.056.314-.157h.157a1.636,1.636,0,0,0,1.411-.313,2.212,2.212,0,0,0,.157-.157c.219-.085.351-.343.627-.313a1.542,1.542,0,0,1-.5.671.869.869,0,0,0-.327.491c.152.1.243-.042.358-.065.062.049.066.123.085.191a.211.211,0,0,1,.071-.191c.086-.133.2-.13.331-.074a1.859,1.859,0,0,0,.3.074c.024-.171-.066-.362.09-.511.2.032.305.193.413.332.166.214.153.376-.018.634-.043.064-.1.118-.144.181-.208.3-.456.434-.68.228s-.48-.165-.716-.186c-.207-.018-.4.03-.557-.166a.723.723,0,0,0-.644-.2,1.165,1.165,0,0,1-.885-.21.331.331,0,0,0-.287-.066c-.364.178-.78.048-1.142.21a.619.619,0,0,1-.457.038c-.209-.072-.319.018-.464.162a.94.94,0,0,1-1.355.066c-.261-.205-.517-.417-.741-.6a.214.214,0,0,1,.1-.242.942.942,0,0,0,.3-1.243A.538.538,0,0,1,381.1,621.9Z" transform="translate(-367.766 -613.731)" fill="#f6f7fa"/><path d="M477.628,643.59c.018.009.053.021.052.027-.006.042-.009.1-.034.118a1,1,0,0,1-.207.06.645.645,0,0,1,.073-.126A.588.588,0,0,1,477.628,643.59Z" transform="translate(-454.234 -633.121)" fill="#e6f1f8"/><path d="M445.081,638.143c-.007.076,0,.194-.078.194s-.072-.119-.078-.194Z" transform="translate(-425.169 -628.252)" fill="#f6f7fa"/><path d="M555.077,628.967c-.1.236.026.348.169.477a.311.311,0,0,1,.02.51.153.153,0,0,1-.257-.019.588.588,0,0,1-.111-.2,2.016,2.016,0,0,0-.33-.849c-.046-.057-.015-.2.017-.29a.21.21,0,0,1,.232-.159.324.324,0,0,1,.173.125A.393.393,0,0,1,555.077,628.967Z" transform="translate(-523.163 -619.571)" fill="#e9f3fa"/><path d="M519.982,614.794c-.046.05-.085.127-.146.152a.378.378,0,0,1-.475-.43c.015-.087.391-.2.4-.142C519.775,614.547,519.894,614.648,519.982,614.794Z" transform="translate(-491.707 -606.987)" fill="#d8edf6"/><path d="M430.077,629.751a1.566,1.566,0,0,1-.651.633c-.153.078-.3.1-.4-.077a.413.413,0,0,0-.363-.242c.08-.236.337-.294.476-.471a.3.3,0,0,1,.464-.055A.789.789,0,0,0,430.077,629.751Z" transform="translate(-410.635 -620.486)" fill="#f6f7fa"/><path d="M424.546,635.189a.322.322,0,0,1-.313.157A.322.322,0,0,1,424.546,635.189Z" transform="translate(-406.672 -625.611)" fill="#f6f7fa"/><path d="M442.125,630.759l-.157.157Z" transform="translate(-422.526 -621.651)" fill="#f6f7fa"/><path d="M452.314,638.142l.065.036-.029.029Z" transform="translate(-431.775 -628.251)" fill="#f6f7fa"/></g><path d="M-46.887,2.107c.565-8.091.141-17.278.6-25.263a44.924,44.924,0,0,1,7.031.459,3.01,3.01,0,0,1,2.085,1.8,22.723,22.723,0,0,1,.177,2.791,52.066,52.066,0,0,1-.53,6.643C-37.736-9.977-39.4-8.988-40.81-8.67l-2.332.177-.177,10.671Zm6.466-21.2c-.318-1.2-2.085-1.131-2.862-1.131,0,2.332.177,5.653.177,8.268.141,0,.318.035.495.035a2.54,2.54,0,0,0,1.908-.6,9.375,9.375,0,0,0,.565-3.781A11.31,11.31,0,0,0-40.421-19.093Zm2.3,13.709h.283c2.367,0,4.275-1.731,4.487-3.145a47.912,47.912,0,0,0,.53-6.784,24.245,24.245,0,0,0-.141-2.862c-.353-2.9-5.229-5.159-6.007-5.3-1.2-.212-6.254-.389-7.985-.424-.459,7.526-.318,18.868-.53,26.358a25.023,25.023,0,0,0,2.827,3.533l5.689-.283Zm10.989-12.084c.035,1.307.177,2.65.177,3.357,1.908-.247,3.392-.389,5.547-.495.141.813.283,1.8.318,2.367-1.979.53-3.463.813-5.653,1.272.212,5.689.424,10.035.565,13.638-1.2,0-2.65-.212-3.392-.283-.283-6.325-.247-12.861-.318-19.5Zm3.71,2.226c-.035-.565-.071-1.06-.141-1.837a26.314,26.314,0,0,1-3.286-1.2l-3.781.459c.071,5.865.177,15.652.353,21.023.565.813,1.1,1.7,2.014,2.933,1.979-.212,4.77-.565,6.36-.777-.318-5.477-.53-8.515-.636-12.791l4.629-1.449c.071-1.025.106-1.943.106-2.827s-.035-1.7-.035-2.544a29.056,29.056,0,0,1-3.251-1.2C-22.013-15.383-22.79-15.277-23.426-15.241Zm11.342-1.166c.389,5.759.53,11.872.813,18.408-.424.035-.954.035-1.59.035s-1.343,0-2.014.035c-.212-5.406-.318-11.271-.318-16.288V-16.3C-14.028-16.337-12.826-16.407-12.084-16.407Zm.459-6.537a3.7,3.7,0,0,1,.459,1.7,1.952,1.952,0,0,1-.742,1.661,2.313,2.313,0,0,1-2.473.389,2.73,2.73,0,0,1-1.449-2.332,3.151,3.151,0,0,1,.106-.777A2.237,2.237,0,0,1-13.5-23.863,2.09,2.09,0,0,1-11.625-22.944Zm4.1,2.12c-1.378-1.1-2.4-2.226-3.957-3.251a3.518,3.518,0,0,0-1.908-.565,4.011,4.011,0,0,0-1.8.459,3.329,3.329,0,0,0-1.413,2.827,2.5,2.5,0,0,0,.459,1.519,25.715,25.715,0,0,0,2.685,2.827c-.565,0-1.837.071-2.4.106-.035,4.558.106,13.921.318,19.5.636.883.954,1.413,1.908,2.968,1.731.247,4.523.495,5.795.53.247-7.173.6-14.38.813-20.882a20.045,20.045,0,0,0-2.721-1.59A2.986,2.986,0,0,0-7.067-19.3,2.811,2.811,0,0,0-7.527-20.824ZM7.949-16.337C6.536-10.931,4.557-4.288,3.073,2.142,1.731,2.107.635,2.036-.036,2.036c-1.449-6.254-2.9-12.4-4.24-18.373a5.237,5.237,0,0,1,2.685-.707c.813,3.251,1.8,8.657,2.756,12.932.106.177.212.071.247-.141.989-4.028,2.014-8.621,3.145-12.9A16.349,16.349,0,0,1,7.949-16.337ZM-.6,2.566C-.213,3.414.529,4.828,1.236,6.1c2.261-.212,4.593-.424,6.077-.565,1.343-7.137,2.721-14.875,3.71-20.74-.777-.6-1.59-1.237-2.438-1.837a43.1,43.1,0,0,0-4.452-.989c-.424,1.484-.848,2.756-1.413,5.194-.247-1.131-.53-2.685-.707-3.463-1.2-.671-2.155-1.131-3.427-1.7a31.794,31.794,0,0,0-3.6,1.131C-3.887-11.531-1.944-2.522-.6,2.566Zm23.037-17.1a43.234,43.234,0,0,1,.318,7.455c0,3.18,0,6.819.212,9.823-.777,0-1.484.035-2.12.035a6.466,6.466,0,0,1-1.2-.071L19.538.87a8.854,8.854,0,0,1-3.6,1.1,2.481,2.481,0,0,1-1.767-.636A4.927,4.927,0,0,1,12.9-2.31,5.623,5.623,0,0,1,13.532-5.1c.883-1.519,4.028-2.3,6.042-2.332-.071-1.8.106-5.653-.636-6.113-.919-.565-3.5-.636-4.452-.636-.035-.883-.141-1.307-.141-2.12,0-.212.035-.424.035-.671a16.971,16.971,0,0,1,1.943-.106,10.185,10.185,0,0,1,4.841.954A3.593,3.593,0,0,1,22.436-14.535ZM19.468-5.1a8.215,8.215,0,0,0-2.685.777,1.862,1.862,0,0,0-1.1,1.8c0,1.025.389,1.413,1.307,1.413a8.8,8.8,0,0,0,2.544-.565A28.2,28.2,0,0,0,19.468-5.1Zm.777,9.929,1.131,1.555c1.661-.106,3.039-.212,4.911-.389.177-3.427.318-6.183.495-9.611.141-2.721.212-4.77.212-7.491,0-2.085-2.3-3.851-3.5-4.7a10.652,10.652,0,0,0-6.537-1.979,18.085,18.085,0,0,0-3.215.212l.106,3.887c.353.883.919,2.226,1.343,3.18a11.143,11.143,0,0,1,3.639.742c.035.389,0,.954,0,1.625-4.593.53-5.759,2.226-6.148,2.968a5.53,5.53,0,0,0-.6,2.65,8.4,8.4,0,0,0,1.025,3.887c.6,1.166,2.261,4.381,4.558,4.2A4.558,4.558,0,0,0,20.245,4.828ZM38.194-16.655a10.672,10.672,0,0,1-.283,2.827c-1.943.071-3.5-.035-4.2,1.7a14.648,14.648,0,0,0-.424,4.311,27.778,27.778,0,0,0,.389,5.265c.389,1.449,1.519,2.155,3.993,2.4V.128a16.9,16.9,0,0,1-.318,2.791c-4.2-.459-5.123-1.449-6.219-3.145a14.259,14.259,0,0,1-1.2-4.629V-6.02c0-2.933.247-7.915,1.767-9.434a6.216,6.216,0,0,1,4.381-1.378A10.737,10.737,0,0,1,38.194-16.655Zm3.639,6.042.636-5.017A25.98,25.98,0,0,0,38.583-17.4a16.155,16.155,0,0,0-2.367-.177,9.64,9.64,0,0,0-4.028.777c-1.661.777-2.933,3.533-2.933,9.823A18.648,18.648,0,0,0,30.562.552c1.59,3.569,4.523,5.936,10.176,5.936a55.818,55.818,0,0,0,.6-5.724c-1.166-.671-2.191-1.2-3-1.59l-.813-.141a22.891,22.891,0,0,1-.071-7.1C37.982-10.507,39.325-10.719,41.834-10.613Zm2.615-5.512a14.116,14.116,0,0,1,2.685-.813c1.06,3.215,1.625,6.042,2.968,10,1.131-2.968,2.332-6.855,3.463-9.858.848.283,2.12.495,2.685.777C53.988-8.14,50.773,1.118,48.441,8.926c-.848-.318-1.484-.459-2.509-.883.565-2.721,1.661-7,2.332-9.717C47.027-6.479,45.437-11.743,44.448-16.125Zm.671,24.45c.565,1.131,1.2,2.509,1.519,2.968,1.06.495,4.381,1.237,5.865,1.731,2.155-7.95,4.346-19.115,6.431-27.312-.777-1.237-1.272-1.837-1.625-2.332-1.166-.353-4.134-1.06-4.311-1.166-.53,1.378-1.413,3.957-1.59,4.487l-.989-3.5c-1.413-.565-2.226-.707-3-1.025a24.329,24.329,0,0,0-3.922,1.131c.318,1.555,1.025,4.876,1.555,6.713.813,2.756,1.625,6.042,2.367,8.268C46.921.517,45.755,5.711,45.119,8.326ZM-37.559,37.44c.565-8.091.141-17.278.6-25.263a44.924,44.924,0,0,1,7.031.459,3.01,3.01,0,0,1,2.085,1.8,22.723,22.723,0,0,1,.177,2.791,52.065,52.065,0,0,1-.53,6.643c-.212,1.484-1.873,2.473-3.286,2.791l-2.332.177-.177,10.671Zm6.466-21.2c-.318-1.2-2.085-1.131-2.862-1.131,0,2.332.177,5.653.177,8.268.141,0,.318.035.495.035a2.54,2.54,0,0,0,1.908-.6,9.375,9.375,0,0,0,.565-3.781A11.31,11.31,0,0,0-31.094,16.24Zm2.3,13.709h.283c2.367,0,4.275-1.731,4.487-3.145a47.912,47.912,0,0,0,.53-6.784,24.245,24.245,0,0,0-.141-2.862c-.353-2.9-5.229-5.159-6.007-5.3-1.2-.212-6.254-.389-7.985-.424-.459,7.526-.318,18.868-.53,26.358a25.023,25.023,0,0,0,2.827,3.533l5.689-.283Zm17.278-9.929a10.308,10.308,0,0,1,.318,2.509c0,.6-.035,1.237-.071,2.049-.035,1.519-.106,3.71-.177,5.265-.141,2.968-.318,5.83-.777,6.713-.636,1.272-1.59,1.59-3.427,1.59-.318,0-.671-.035-1.025-.035-1.7-.071-3.427-.283-3.71-2.332a27.138,27.138,0,0,1-.177-3.427c0-1.237.035-2.509.035-3.675V27.017c0-2.191.141-4.24.283-6.431.106-1.625,1.166-2.4,3.109-2.4a9.129,9.129,0,0,1,1.131-.071C-14.31,18.113-11.872,18.5-11.519,20.021Zm-2.9,2.509a1.32,1.32,0,0,0-1.449-1.449,1.466,1.466,0,0,0-1.555,1.413c-.177,3.569-.6,11.377-.247,12.049a1.574,1.574,0,0,0,1.378.636,1.162,1.162,0,0,0,1.272-.919C-14.664,33.2-14.381,27.158-14.416,22.529Zm7.349,16.076c.177-2.968.283-7.773.283-10.706,0-1.837,0-3.675-.035-5.371-.035-1.272-4.1-4.735-8.021-5.088-.53-.035-.989-.071-1.449-.071-3.5,0-4.629,1.413-4.77,3.286-.177,2.438-.212,6.819-.212,9.293,0,2.155.035,6.042.459,7.455.283.919,4.417,4.2,7.385,4.311h.53C-9.646,41.715-7.209,40.8-7.067,38.606ZM.105,11.612C.035,18.254-.036,25.25.176,32.988c.035,1.449,1.873,1.131,3.109,1.2.035.919.141,1.767.141,2.544a9.334,9.334,0,0,1-.071,1.025H2.967c-2.049,0-5.583-.106-5.759-2.933C-2.969,31.575-3,28.854-3,26.133V11.824C-1.838,11.718-.884,11.682.105,11.612Zm4.1,22.3c.283-7.773.424-14.38.671-20.705A32.159,32.159,0,0,0,.459,10.728c-.813.035-3.18.318-4.134.424-.035,1.731-.035,3.5-.035,5.265v8.374c0,5.512.035,9.823.353,11.165C-2.721,38.571.777,41.4,6.218,41.4c.247,0,.53-.035.777-.035.071-.6.071-1.625.071-2.65V35.885A27.783,27.783,0,0,0,4.2,33.907Zm9.328-15.3c-.141,6.537-.353,12.473-.742,19.115-.848,0-1.7-.106-3.074-.106.106-6.183.141-12.72.318-18.938C11.2,18.713,12.79,18.572,13.532,18.607Zm.035-6.5a3.41,3.41,0,0,1,.353,1.519,2.1,2.1,0,0,1-.848,1.837,2.242,2.242,0,0,1-2.473.247,2.7,2.7,0,0,1-1.343-2.261,3.029,3.029,0,0,1,.177-.954,2.219,2.219,0,0,1,2.155-1.413A2.192,2.192,0,0,1,13.567,12.106Zm3.6,1.555a20.809,20.809,0,0,0-3.392-2.65,3.4,3.4,0,0,0-2.12-.707,4.02,4.02,0,0,0-1.59.353,3.349,3.349,0,0,0-1.59,2.933,2.7,2.7,0,0,0,.389,1.378,20.263,20.263,0,0,0,2.509,2.9c-.565-.035-1.555.141-2.12.141-.141,5.371-.141,14.628-.283,20,.53,1.06.954,2.332,1.484,3.215,1.731-.071,4.77-.035,6.961-.247-.071-6.819,0-13.921-.141-20.882-1.237-.883-1.1-.813-1.837-1.307a3.208,3.208,0,0,0,1.731-5.123ZM27.806,21.54c-1.237.318-3.109-.177-3.675,1.731a8.371,8.371,0,0,0-.177,1.873,33.05,33.05,0,0,0,.954,7.7c.671,1.378,2.155,1.484,3.5,1.7,0,.742.035,1.519.035,2.261,0,.389,0,.742-.035,1.131-2.155-.212-5.759-.495-6.678-2.544a9.985,9.985,0,0,1-.671-3c-.071-2.261-.283-4.558-.283-6.678a13.826,13.826,0,0,1,.707-4.982c.636-1.625,3.321-2.509,5.371-2.509a6.884,6.884,0,0,1,.883.071l.035,1.343Zm4.1,2.827-.071-5.441a11.753,11.753,0,0,0-4.664-1.413,9.728,9.728,0,0,0-4.558,1.025c-1.413.777-2.579,2.014-2.579,7.137,0,.424.035.883.035,1.343.141,3.745.353,7.844,1.2,9.328,1.731,3,4.169,4.7,10.918,4.735.035-.389.035-.954.035-1.625,0-1.307-.035-2.933-.035-3.675-1.166-.636-2.509-1.519-3.215-1.873-.671-.035-.671-.035-.954-.212a38.7,38.7,0,0,1-.424-6.572c0-2.085,1.413-2.827,3.215-2.827C31.163,24.3,31.516,24.331,31.9,24.367Zm2.367-4.911a20.673,20.673,0,0,1,2.933-.919c1.06,3.392,2.12,6.042,3.6,9.929.989-3.215,1.943-7.1,2.862-10.07a28.932,28.932,0,0,1,2.968.813c-2.014,7.95-4.735,17.172-6.784,25.051-.848-.283-1.661-.283-2.721-.671.495-2.721,1.59-7.985,2.155-10.741C37.77,28.748,35.686,23.837,34.272,19.455Zm2.085,24.45c.6,1.1,1.272,2.473,1.59,2.933,1.378.318,4.735.565,6.572.742,1.272-8.268,3.569-18.479,5.053-26.747a20.715,20.715,0,0,0-1.908-2.261c-1.166-.318-3.745-.848-4.593-1.06-.353,1.625-1.166,4.275-1.307,4.805l-1.237-4.134a14.637,14.637,0,0,0-3.145-.495c-1.343.389-3,.813-4.134,1.237.671,2.085,1.731,4.805,2.332,6.607.883,2.756,2.049,5.265,2.862,7.455C38.23,35.143,36.887,41.256,36.357,43.906Z" transform="translate(227.753 12554.837)" fill="#1ea4d9"/><path d="M14-11.27a1.18,1.18,0,0,1,1.166-1.184,1.184,1.184,0,0,1,1.184,1.184A1.18,1.18,0,0,1,15.171-10.1,1.176,1.176,0,0,1,14-11.27Zm-.813,0a1.991,1.991,0,0,0,.088.565c-.212.018-.406.018-.565.018H3.847A13.635,13.635,0,0,1,2.08-10.81v1.572c.459-.018,1.06-.053,1.767-.053h9.028A13.222,13.222,0,0,1,10.56-3.532,11.633,11.633,0,0,1,3.67.708l1.2,1.325a13.378,13.378,0,0,0,6.961-4.717A17.259,17.259,0,0,0,14.464-9.2.912.912,0,0,0,14.5-9.4a2.136,2.136,0,0,0,.671.106,1.991,1.991,0,0,0,2-1.979,2.006,2.006,0,0,0-2-2A1.991,1.991,0,0,0,13.192-11.27Zm8.339-.477v1.466c.477-.035,1.042-.053,1.59-.053h6.925c.6,0,1.2.018,1.625.053v-1.466a11,11,0,0,1-1.608.088H23.121A11.047,11.047,0,0,1,21.531-11.747Zm11.43,4.664-1.007-.636a2.347,2.347,0,0,1-.972.141h-9.31a16.7,16.7,0,0,1-1.731-.106V-6.2c.636-.035,1.307-.053,1.731-.053h9.381a9.031,9.031,0,0,1-2.1,3.9A11.772,11.772,0,0,1,22.732.885l1.1,1.254a12.793,12.793,0,0,0,6.325-3.692A12.167,12.167,0,0,0,32.731-6.57,3.089,3.089,0,0,1,32.961-7.083Zm3.675,2.12.707,1.378a34.9,34.9,0,0,0,6.731-2.88V.072a16.388,16.388,0,0,1-.106,1.89H45.7a13.331,13.331,0,0,1-.106-1.89V-7.383a28.9,28.9,0,0,0,4.77-3.94l-1.184-1.1a21.05,21.05,0,0,1-4.823,4.152A29.2,29.2,0,0,1,36.636-4.963Zm29.309-7.385-.936.389A20.188,20.188,0,0,1,66.439-9.5l.954-.424A20.386,20.386,0,0,0,65.944-12.347Zm1.943-.707-.936.389a16.828,16.828,0,0,1,1.466,2.438l.954-.424A20.543,20.543,0,0,0,67.887-13.054ZM56.281-3.9A23.2,23.2,0,0,1,53.56.9l1.5.636a25.621,25.621,0,0,0,2.6-4.858,38.738,38.738,0,0,0,1.608-5.53c.071-.371.212-.883.318-1.272l-1.572-.336A26.929,26.929,0,0,1,56.281-3.9Zm8.692-.671a52.943,52.943,0,0,1,2,6.077L68.541.991c-.459-1.59-1.4-4.293-2.12-6.042a57.114,57.114,0,0,0-2.579-5.583l-1.431.477A45.178,45.178,0,0,1,64.973-4.574Zm10.441-7.579-.795,1.184c1.042.6,2.95,1.873,3.8,2.509l.83-1.2C78.487-10.227,76.456-11.57,75.413-12.153ZM72.763.478l.813,1.431A21.993,21.993,0,0,0,79.441-.281a20.585,20.585,0,0,0,6.784-6.325l-.848-1.449a18.018,18.018,0,0,1-6.7,6.466A18.767,18.767,0,0,1,72.763.478Zm-.018-8.657-.777,1.2a38.723,38.723,0,0,1,3.851,2.42l.813-1.237C75.855-6.358,73.788-7.613,72.746-8.178ZM89.564-6.235V-4.5c.548-.053,1.484-.088,2.456-.088h9.7c.795,0,1.537.071,1.89.088V-6.235c-.389.035-1.025.088-1.908.088H92.02C91.031-6.146,90.094-6.2,89.564-6.235Zm29.2-5.406a1.123,1.123,0,0,1,1.113-1.131,1.142,1.142,0,0,1,1.148,1.131,1.131,1.131,0,0,1-1.148,1.131A1.112,1.112,0,0,1,118.767-11.641Zm-.813,0a1.919,1.919,0,0,0,1.926,1.926,1.923,1.923,0,0,0,1.943-1.926,1.949,1.949,0,0,0-1.943-1.943A1.945,1.945,0,0,0,117.954-11.641ZM115-12.206h-1.661a6.406,6.406,0,0,1,.124,1.254v1.82h-4.911a13.215,13.215,0,0,1-1.5-.088v1.484c.477-.035.972-.053,1.5-.053h4.911V.178c0,.459-.212.671-.689.671a12.566,12.566,0,0,1-2.032-.212l.124,1.413c.707.071,1.767.124,2.509.124,1.06,0,1.519-.477,1.519-1.413V-7.789h4.682c.424,0,.954,0,1.431.035V-9.22a13.556,13.556,0,0,1-1.449.088s-3.5.45-4.664,0,0-1.8,0-1.8A8.37,8.37,0,0,1,115-12.206Zm3.5,6.554-1.2.636a29.352,29.352,0,0,1,2.95,4.7l1.307-.724A37.9,37.9,0,0,0,118.5-5.652Zm-7.385.583-1.237-.6a18.863,18.863,0,0,1-3.374,4.629l1.219.813A25.6,25.6,0,0,0,111.117-5.069ZM136.8-11.994h-1.661a12.675,12.675,0,0,1,.088,1.537v2.791c0,3.339-.212,4.77-1.466,6.236A8.1,8.1,0,0,1,129.543.92l1.148,1.219A9.436,9.436,0,0,0,134.9-.44c1.272-1.519,1.855-2.915,1.855-7.155v-2.862C136.751-11.058,136.769-11.552,136.8-11.994Zm-8.2.141H127c.035.336.071.954.071,1.272V-4.7a11.577,11.577,0,0,1-.088,1.36h1.625c-.035-.318-.071-.9-.071-1.343v-5.9C128.536-11,128.572-11.517,128.607-11.853Zm17.472-.3-.795,1.184c1.042.6,2.95,1.873,3.8,2.509l.83-1.2C149.153-10.227,147.121-11.57,146.079-12.153ZM143.429.478l.813,1.431a21.993,21.993,0,0,0,5.865-2.191,20.585,20.585,0,0,0,6.784-6.325l-.848-1.449a18.018,18.018,0,0,1-6.7,6.466A18.767,18.767,0,0,1,143.429.478Zm-.018-8.657-.777,1.2a38.722,38.722,0,0,1,3.851,2.42l.813-1.237C146.521-6.358,144.454-7.613,143.412-8.178ZM160.23-6.235V-4.5c.548-.053,1.484-.088,2.456-.088h9.7c.795,0,1.537.071,1.89.088V-6.235c-.389.035-1.025.088-1.908.088h-9.681C161.7-6.146,160.76-6.2,160.23-6.235Z" transform="translate(144.583 12634.384)" fill="#262626"/><g transform="translate(212.824 12468.314)"><path d="M269.127,128.527h-2.012v-8.492a16.009,16.009,0,0,0-32.018,0v8.492h-2.011a1.689,1.689,0,0,0-1.684,1.683v24.8a1.691,1.691,0,0,0,1.684,1.686h36.041a1.69,1.69,0,0,0,1.683-1.686v-24.8A1.688,1.688,0,0,0,269.127,128.527Zm-8.188,0H241.273v-8.492a9.833,9.833,0,0,1,19.667,0Z" transform="translate(-231.402 -104.046)" fill="#1ea4d9"/><path d="M265.7,104.046a16.027,16.027,0,0,0-16.031,15.988v8.492h6.175v-8.492a9.833,9.833,0,0,1,19.667,0v8.492h6.175v-8.492A16.006,16.006,0,0,0,265.7,104.046Z" transform="translate(-245.977 -104.046)" fill="#d8f7ff"/><path d="M316.609,276.956v3.672a1.283,1.283,0,0,1-2.565,0v-3.672a3.422,3.422,0,1,1,2.565,0Z" transform="translate(-295.623 -236.726)" fill="#fff"/></g></g></g></svg>