<svg xmlns="http://www.w3.org/2000/svg" xmlns:xlink="http://www.w3.org/1999/xlink" viewBox="0 0 778 354"><defs><linearGradient id="a" x1="0.5" y1="1" x2="0.5" gradientUnits="objectBoundingBox"><stop offset="0" stop-color="#1e2971"/><stop offset="0.034" stop-color="#1d357c"/><stop offset="0.125" stop-color="#1c5397"/><stop offset="0.226" stop-color="#1c6bad"/><stop offset="0.34" stop-color="#1b7ebe"/><stop offset="0.475" stop-color="#1b8bca"/><stop offset="0.648" stop-color="#1b92d1"/><stop offset="1" stop-color="#1b95d4"/></linearGradient><radialGradient id="b" cx="0.492" cy="0.477" r="0.5" gradientUnits="objectBoundingBox"><stop offset="0" stop-color="#f7f8f8"/><stop offset="0.351" stop-color="#1b95d4"/><stop offset="1" stop-color="#1e2971"/></radialGradient><clipPath id="e"><path d="M72.432,62.3A28.367,28.367,0,1,1,44.065,33.931,28.367,28.367,0,0,1,72.432,62.3Z" transform="translate(-15.698 -33.931)" fill="none"/></clipPath><radialGradient id="f" cx="0.507" cy="0.486" r="0.491" gradientUnits="objectBoundingBox"><stop offset="0" stop-color="#5eb0e3"/><stop offset="0.23" stop-color="#5eb0e3"/><stop offset="0.397" stop-color="#5aabe0"/><stop offset="0.567" stop-color="#509fd7"/><stop offset="0.739" stop-color="#3f8bca"/><stop offset="0.911" stop-color="#276eb7"/><stop offset="1" stop-color="#195dab"/></radialGradient><radialGradient id="g" cx="0.5" cy="0.5" r="0.483" gradientTransform="translate(-0.038) scale(1.075 1)" gradientUnits="objectBoundingBox"><stop offset="0" stop-color="#c0dd98"/><stop offset="1" stop-color="#93c530"/></radialGradient><radialGradient id="h" cx="0.486" cy="0" r="0.991" gradientTransform="translate(-4.193) scale(0.86 1.125)" gradientUnits="objectBoundingBox"><stop offset="0" stop-color="#fff"/><stop offset="0.086" stop-color="#f7f7f7"/><stop offset="0.218" stop-color="#e2e1e1"/><stop offset="0.379" stop-color="#c0bfbf"/><stop offset="0.563" stop-color="#908e8e"/><stop offset="0.766" stop-color="#535050"/><stop offset="0.983" stop-color="#0a0606"/><stop offset="1" stop-color="#040000"/></radialGradient><radialGradient id="i" cx="0.497" cy="0.978" r="1.139" gradientTransform="translate(0.197) scale(0.603 1)" gradientUnits="objectBoundingBox"><stop offset="0" stop-color="#4875b9"/><stop offset="0.668" stop-color="#fff"/></radialGradient><clipPath id="j"><ellipse cx="44.234" cy="35.889" rx="44.234" ry="35.889" transform="matrix(0.035, -0.999, 0.999, 0.035, 0, 88.415)" fill="none"/></clipPath><linearGradient id="k" x1="0.915" y1="-0.085" x2="0.398" y2="1.145" gradientUnits="objectBoundingBox"><stop offset="0" stop-color="#1e2971"/><stop offset="0.698" stop-color="#1b95d4"/><stop offset="0.98" stop-color="#fff" stop-opacity="0"/></linearGradient></defs><g transform="translate(21280 6009)"><g transform="translate(-3731 -729)"><ellipse cx="389" cy="177" rx="389" ry="177" transform="translate(-17549 -5280)" fill="#fff"/><path d="M389,10C183.561,10,10,86.477,10,177S183.561,344,389,344s379-76.477,379-167S594.439,10,389,10m0-10C603.839,0,778,79.246,778,177S603.839,354,389,354,0,274.754,0,177,174.161,0,389,0Z" transform="translate(-17549 -5280)" fill="#1b95d4"/><g transform="translate(-17390.055 -5131.955)" style="isolation:isolate"><path d="M4.571,108.849a3.79,3.79,0,0,1-2.343-6.772c9.95-7.746,28.7-19.37,51.533-19.37,34.25,0,46.033,15.836,91.708,15.836s79.18-16.207,101.646-35.356c12.151-9.205,37.564-33.146,76.6-33.146,36.93,0,83.148,13.189,129.253,68.614a6.03,6.03,0,0,1-4.6,9.9Z" transform="translate(0.753 -0.939)" fill="url(#a)"/><ellipse cx="12.169" cy="12.169" rx="12.169" ry="12.169" transform="translate(288.971 33.651)" fill="url(#b)"/><ellipse cx="9.205" cy="9.205" rx="9.205" ry="9.205" transform="translate(284.195 57.974)" fill="url(#b)"/><ellipse cx="6.154" cy="6.154" rx="6.154" ry="6.154" transform="translate(269.601 71.063)" fill="url(#b)"/><path d="M33.613-2.122A35.679,35.679,0,1,1,19.707.682a35.679,35.679,0,0,1,13.906-2.8Zm0,63.129A27.381,27.381,0,1,0,14.261,52.99a27.381,27.381,0,0,0,19.352,8.017Z" transform="translate(176.567 31.159)" fill="#1e2971"/><path d="M90.066,33.877q0,.79-1.577.718H85.941q-1.016,0-1.206.437a10.085,10.085,0,0,0-.2,2.665V83.58q0,4.221-.063,4.93t-.38.715q-.38,0-.886-.88L75.1,73.415q-7.047-13.053-17.148-32.6V85.479a1.327,1.327,0,0,0,.962,1.321,20.863,20.863,0,0,0,4.3.362q.832,0,.835.639,0,.79-1.649.79-.57,0-3.618-.238-1.016-.078-1.972-.081.06,0-1.11.16a29.224,29.224,0,0,1-3.585.16h-.633q-1.462,0-1.459-.721t1.269-.721a9.917,9.917,0,0,0,4.339-.6q.6-.522.6-3.4V43.782q0-6.633-2.159-8.31a6.057,6.057,0,0,0-3.618-.79q-1.649,0-1.649-.841,0-.757.953-.757,1.269,0,3.235.16t2.111.151q.2,0,1.776-.078a33.655,33.655,0,0,0,4.062-.238l21.9,41.073V38.659q0-2.472-.063-2.991a1.052,1.052,0,0,0-.507-.79,8.744,8.744,0,0,0-3.048-.28q-2.282,0-2.282-.718,0-.79,1.508-.79H88.658q1.393,0,1.4.79Z" transform="translate(47.444 2.014)" fill="#1e2971"/><path d="M105.317,75.833q0,.32-.127,3.92t-.118,6.851v2.632q-6.22-.479-24.622-.479H72.509q-1.206,0-1.206-.642a.446.446,0,0,1,.38-.5q.2,0,2.412-.214,1.649-.16,2-.88a11.638,11.638,0,0,0,.35-3.76V37.794q0-2.319-.54-2.762a7.472,7.472,0,0,0-3.458-.44q-1.016,0-1.016-.678t1.4-.678h26.9a17.716,17.716,0,0,0,3.492-.32q.127,3.431.57,9.492l.256,3.428a6.993,6.993,0,0,1,.063,1.037q0,.79-.573.79-.7,0-1.016-2.005-1.206-7.237-3.944-9.154-2.032-1.444-10.662-1.444H82.727V58.523h1.508q7.1,0,8.663-1.357t2.126-7.888q.127-1.673.7-1.673.7,0,.7,1.435T96.3,53.262q-.13,2.792-.13,4.221,0,8.536.2,11.726.048.79.051,1.357,0,1.037-.693,1.037-.443,0-.6-.678T94.58,66.5q-.479-4.683-3.076-5.81a21.021,21.021,0,0,0-5.937-.479H82.724V86.923a97.732,97.732,0,0,0,16.37-.709q4.188-1.182,4.758-10.083.127-1.972.823-1.972.633,0,.636,1.673Z" transform="translate(69.314 1.857)" fill="#1e2971"/><path d="M192.111,75.833q0,.32-.127,3.92t-.127,6.863v2.632q-6.22-.479-24.622-.479H159.3q-1.206,0-1.206-.642a.446.446,0,0,1,.38-.5q.2,0,2.412-.214,1.649-.16,2-.88a11.637,11.637,0,0,0,.35-3.76V37.794q0-2.319-.54-2.762a7.472,7.472,0,0,0-3.458-.44q-1.016,0-1.016-.678t1.4-.678h26.908a17.719,17.719,0,0,0,3.492-.32q.127,3.431.57,9.492l.253,3.428a7.017,7.017,0,0,1,.063,1.037q0,.79-.573.79-.7,0-1.016-2.005-1.206-7.237-3.944-9.154-2.032-1.444-10.662-1.444h-5.2V58.523h1.508q7.1,0,8.663-1.357t2.126-7.888q.127-1.673.7-1.673.7,0,.7,1.435t-.127,4.221q-.13,2.792-.13,4.221,0,8.536.2,11.726.048.79.051,1.357,0,1.037-.693,1.037-.443,0-.6-.678t-.537-4.426q-.5-4.707-3.1-5.822a21.018,21.018,0,0,0-5.937-.479h-2.843V86.911a97.738,97.738,0,0,0,16.37-.709q4.188-1.182,4.758-10.083.127-1.972.823-1.972.633,0,.636,1.673Z" transform="translate(153.688 1.857)" fill="#1e2971"/><path d="M217.8,88.5q0,.681-.953.681A7.535,7.535,0,0,1,215.7,89.1l-8.06-.32-8.06.32a5.5,5.5,0,0,1-.953.078q-1.269,0-1.269-.835,0-.9,1.713-.9,5.584-.078,5.584-1.405a5.736,5.736,0,0,0-.13-.624L204.01,83.3l-.326-1.113q-.573-2.475-2.789-10.939H187.327a102.627,102.627,0,0,0-3.8,14.678q0,1.119.76,1.357.2.081,3.172.32,1.839.081,1.839.79,0,.8-1.649.79-2.919,0-6.79-.32-.953-.078-1.972-.081a7.3,7.3,0,0,0-1.972.265,3.436,3.436,0,0,1-.823.133q-.886,0-.886-.721t2-.8a5.144,5.144,0,0,0,2.889-.76,4.734,4.734,0,0,0,1.4-2.6q8.18-29.465,13.306-47.315a10.86,10.86,0,0,1,.6-2.111l.277-1.435c.127-.6.3-.877.507-.877q.19,0,.317.479.823,3.109,3.748,13,2.283,7.74,11.358,38.851a3.862,3.862,0,0,0,1.3,2.3,7.538,7.538,0,0,0,3.269.576q1.649.078,1.649.757ZM200.612,69.4,197.19,57.509l-3.051-11.066q-2.678,8.826-6.435,22.946h12.905Z" transform="translate(170.324 1.512)" fill="#1e2971"/><path d="M236.382,33.877q0,.79-1.577.718H232.26q-1.016,0-1.206.437a10.074,10.074,0,0,0-.2,2.665V83.58q0,4.221-.063,4.93t-.38.715q-.38,0-.886-.88l-8.111-14.928Q214.365,60.357,204.261,40.8V85.479a1.327,1.327,0,0,0,.962,1.321,20.861,20.861,0,0,0,4.3.362q.832,0,.835.639,0,.79-1.649.79-.57,0-3.618-.238-1.016-.078-1.972-.081.06,0-1.11.16a29.218,29.218,0,0,1-3.585.16h-.633q-1.462,0-1.459-.721t1.269-.721a9.918,9.918,0,0,0,4.339-.6q.6-.522.6-3.4V43.779q0-6.633-2.159-8.31a6.058,6.058,0,0,0-3.618-.79q-1.649,0-1.649-.841,0-.757.953-.757,1.269,0,3.235.16t2.1.16q.2,0,1.776-.078a33.669,33.669,0,0,0,4.062-.238l21.89,41.079v-35.5q0-2.472-.063-2.991a1.052,1.052,0,0,0-.507-.79,8.744,8.744,0,0,0-3.048-.28q-2.282,0-2.282-.718,0-.79,1.508-.79h10.216q1.393,0,1.4.79Z" transform="translate(189.682 2.014)" fill="#1e2971"/><path d="M162.089,71.13q0-.16-.127,2.153-.253,4.625-.253,8.934,0,.479.127,1.954t.127,3.549v.718c0,.69-.169,1.037-.507,1.037s-.636-.395-.887-1.206a8.58,8.58,0,0,0-1.776-3.428,14.325,14.325,0,0,1-10.978,5.026,18.589,18.589,0,0,1-15.453-8.177,33.439,33.439,0,0,1-6.124-20.618,34.629,34.629,0,0,1,5.62-20.458,17.069,17.069,0,0,1,14.5-7.936,16.092,16.092,0,0,1,5.174.678,20.035,20.035,0,0,1,4.791,2.762,4.249,4.249,0,0,0,2.1,1.037q.573,0,1.079-1.275.823-2.231,1.333-2.234t.51.639a6.777,6.777,0,0,1-.127,1.037,95.754,95.754,0,0,0-.7,14.358,4.22,4.22,0,0,1-.2,1.755.6.6,0,0,1-.507.238q-.636,0-.823-1.508a32.112,32.112,0,0,0-2.349-9.492,10.252,10.252,0,0,0-9.772-6.383,9.377,9.377,0,0,0-8.123,4.309q-5.394,7.74-5.394,22.653a40.054,40.054,0,0,0,4.432,20.66A11.648,11.648,0,0,0,148.065,88.3a9.86,9.86,0,0,0,6.03-2.032,12.918,12.918,0,0,0,4.188-5.545,38.155,38.155,0,0,0,2.349-8.853q.253-1.915.823-1.915.633,0,.636,1.206Z" transform="translate(122.694 1.613)" fill="#1e2971"/><path d="M166.629,63.188a2.17,2.17,0,0,1,.986-.262,1.86,1.86,0,0,1,1.369.742,5.744,5.744,0,0,0,.772.057c.8,0,3.92-.145,5.412-.247.208,0,.335-.118.6-.32s.528-.422.645-.422c.395,0,1.695,1.182,1.6,1.541-.042.175-.413.3-.6.38-.13.057-.2.16-.3.362a14.726,14.726,0,0,1-10.695,9.561l-.066-.247a15.347,15.347,0,0,0,8.771-9.721l.027-.1c.021-.087.015-.175-.13-.175h-.03c-1.972.087-4.625.537-5.06.582h-.2a1.124,1.124,0,0,1-.672-.22c-.118.464-.395,2.69-.467,2.958-.265,1.046-.47,1.526-1.082,1.526s-1.049-.8-.85-1.577c.048-.2.335-.757.395-1a6.238,6.238,0,0,0,.184-2.714.95.95,0,0,0-.642-.624l.021-.087Z" transform="translate(161.72 30.848)" fill="#fff"/><path d="M185.147,64.13a22.967,22.967,0,0,1-10.225,8.678c-.79.38-.832.772-1.206.772-.944,0-1.9-1.526-1.692-2.34a1.553,1.553,0,0,1,.675-1,.935.935,0,0,0,1.052,1.019,25.65,25.65,0,0,0,11.211-7.237l.2.118Zm-11.093-.974c2.237,0,4.3.654,3.92,2.2a1.508,1.508,0,0,1-1.411,1.1.9.9,0,0,1-.829-.8,3.594,3.594,0,0,0-1.776-2.295l.109-.2Z" transform="translate(167.213 31.254)" fill="#fff"/><path d="M180.466,66.4a2.183,2.183,0,0,1,2-1.6,1.206,1.206,0,0,1,1.206,1.6,2.183,2.183,0,0,1-2,1.6,1.206,1.206,0,0,1-1.206-1.6Z" transform="translate(175.379 32.851)" fill="#fff"/><path d="M186.555,65.392c.157.871.522.929,1.508.929,1.206,0,3-.2,4.089-.3.111-.377.226-.959.277-1.206.2-1.019.274-1.438.063-1.577a1.415,1.415,0,0,0-.877-.145,1.776,1.776,0,0,1,1.348-.742c.9,0,2.026.6,1.857,1.278-.084.335-.395.38-.73,1.393-.042.118-.2.727-.232.859,1.263-.118,1.616-.2,2.21-.757,1.242.2,2.023.624,1.866,1.233-.109.437-.663.494-.968.494-.567,0-1.152-.1-2.183-.1-.3,0-.712,0-1.173.042-.28,1.046-.491,2.005-.82,3.428-.088.407-.214,1.019-.353,1.628-.154.79-.1,1.073-.169,1.366-.235.932-1.1,1.948-1.842,1.948a.522.522,0,0,1-.555-.624c0-.6-.362-1.161-1.881-2.283l.124-.145a13.936,13.936,0,0,0,2.2.51c.13,0,.2-.042.268-.262.039-.1.739-2.472.9-3.284a19.958,19.958,0,0,1-7.791,4.04l-.078-.16a25.385,25.385,0,0,0,7.237-5.886c-.859.118-1.688.247-2.379.4-.624.118-.8.35-1.182.35a1.447,1.447,0,0,1-1.342-1.6,1.552,1.552,0,0,1,.513-.829h.085Z" transform="translate(178.505 30.474)" fill="#fff"/><path d="M197.171,67.052c-.944,0-2.928.087-3.486.16a5,5,0,0,0-1.055.262,2.2,2.2,0,0,1-.681.175,1.878,1.878,0,0,1-1.507-1.933,1.613,1.613,0,0,1,.573-1h.1c0,.959,1.095.959,2.111.959h6.1a15.828,15.828,0,0,0,1.707-.145h.03c.859.057,2.111.277,1.948.9-.1.407-.651.624-1.393.624h-4.429Z" transform="translate(185.145 32.774)" fill="#fff"/><path d="M198.423,73.95a2.225,2.225,0,0,1-1.616-2.237,1.507,1.507,0,0,1,.718-1.061c.048.727.38,1.031.9,1.031a2.309,2.309,0,0,0,.715-.13,26.592,26.592,0,0,0,10.535-6.742l.145.118A22.877,22.877,0,0,1,199.7,73.154a2.468,2.468,0,0,0-.546.32c-.16.118-.362.464-.7.479h-.03Zm-.82-7.758a9.609,9.609,0,0,1,1.091-.06c1.845,0,2.647.624,2.412,1.556a1.227,1.227,0,0,1-1.248.9c-.422,0-.573-.32-.73-.624a3.576,3.576,0,0,0-1.649-1.577Zm2.5-3.226c.28,0,.546-.03.808-.03,2.093,0,2.994.639,2.762,1.6a1.158,1.158,0,0,1-1.155.944c-.624,0-.763-.377-.941-.829a3.48,3.48,0,0,0-1.592-1.526l.127-.16Z" transform="translate(191.326 31.041)" fill="#fff"/><path d="M205.67,64.738a1.366,1.366,0,0,1,1.167-.757c.974,0,1.809.3,1.722.6-.021.087-.241.494-.265.6a12.219,12.219,0,0,0-.1,1.508c1.113-.262,2.225-.522,2.864-.7a1.266,1.266,0,0,0,.6-.3c.223-.2.341-.3.528-.3.32,0,1.291.932,1.206,1.278-.03.13-.178.2-.47.3a1.04,1.04,0,0,0-.495.3,15.578,15.578,0,0,1-3.066,2.252l-.145-.118a16.1,16.1,0,0,0,1.927-2.744c0-.042,0-.072-.039-.072-.1,0-2.047.567-2.9.841a36.5,36.5,0,0,0,.175,3.805,4.6,4.6,0,0,1,.151,1.073c-.2.757-.506,1.206-1.182,1.206-.495,0-.657-.22-.531-1.577.048-.6.169-2.454.157-4.143a10.271,10.271,0,0,0-1.7.681c-.329.2-.495.407-.754.407a1.293,1.293,0,0,1-1.116-1.411,1.394,1.394,0,0,1,.395-.651h.039c0,.2.021.6.706.6a14.249,14.249,0,0,0,2.412-.446c-.066-2.222-.356-2.279-.835-2.279a1.106,1.106,0,0,0-.413.087l-.021-.042Z" transform="translate(197.75 32.057)" fill="#fff"/><path d="M222.3,64.13a22.967,22.967,0,0,1-10.225,8.678c-.79.38-.832.772-1.206.772-.944,0-1.9-1.526-1.692-2.34a1.553,1.553,0,0,1,.675-1,.935.935,0,0,0,1.052,1.019,25.651,25.651,0,0,0,11.211-7.237l.2.118ZM211.2,63.156c2.237,0,4.3.654,3.92,2.2a1.507,1.507,0,0,1-1.411,1.1.9.9,0,0,1-.829-.8,3.6,3.6,0,0,0-1.776-2.295l.108-.2Z" transform="translate(203.329 31.254)" fill="#fff"/><g transform="translate(30.956 36.774)" clip-path="url(#e)"><path d="M72.432,62.3A28.367,28.367,0,1,1,44.065,33.931,28.367,28.367,0,0,1,72.432,62.3Z" transform="translate(-15.698 -33.931)" fill="url(#f)"/><path d="M44.092,90.78a28.442,28.442,0,1,1,20.118-8.319A28.442,28.442,0,0,1,44.092,90.78Zm0-56.734a28.292,28.292,0,1,0,20,8.283,28.291,28.291,0,0,0-20-8.283Z" transform="translate(-15.728 -33.967)" fill="#cde9f2"/><path d="M46.247,33.9c.16.13.042,0,.2,0a.377.377,0,0,1,.256.06c.066.066,0,.093-.036.109-.087.039-.118.066,0,.2a.455.455,0,0,0,.386.175,2.562,2.562,0,0,1,.639.072c.181.063.238.181.118.2s-.151-.054-.157.06.024.106-.235.106a3.475,3.475,0,0,0-.558-.015c-.175.03-.069.13-.247.145a1.089,1.089,0,0,0-.395.06.645.645,0,0,1-.3.072,3.625,3.625,0,0,1-.407-.024c-.139,0-.039.069-.139.06s-.148-.063-.2,0-.048.093-.265.1-.2-.036-.277.03-.181.054-.476.066a1.659,1.659,0,0,1-.525-.075c-.16-.027-.169-.042-.072-.084s.021-.124-.021-.072a.157.157,0,0,1-.184.03c-.06-.027-.051-.054-.039-.109s-.057-.027-.081.036-.087.039-.151.06.048.084-.13.121-.335.048-.329-.133.051-.181-.015-.3-.124-.106-.2-.054-.072-.072-.232-.069-.175,0-.151-.042.145-.066,0-.072a.549.549,0,0,1-.271-.066c-.051-.03-.081-.021-.136.015s-.118-.066-.048-.124.2-.1-.072-.124-.531,0-.157-.175a3.06,3.06,0,0,1,1-.175,11.781,11.781,0,0,1,2.111-.124c1.167,0,1.616-.021,1.776.109Zm2.071,1.028a1.772,1.772,0,0,0-.494,0,.618.618,0,0,1-.443.087,2.758,2.758,0,0,0-.709.054c-.256.039-.338.03-.458.063s-.148.106.093.175a3.458,3.458,0,0,0,.666.157c.268.03.344-.106.407-.027a.207.207,0,0,0,.232.106.461.461,0,0,1,.268.024.374.374,0,0,0,.268-.027c.087-.03.084-.087,0-.139s-.048-.133.078-.048.139.121.063.172-.03.163.2.112a1.366,1.366,0,0,1,.446-.054c.145,0,.042-.015.2-.084s.208-.027.2-.112-.024-.081-.145-.1-.247-.087-.175-.145.042.015.208.063.259.151.452.106a.283.283,0,0,1,.3.06c.1.1.133.166.244.151s.1-.1.054-.154.036-.1.154-.084.175.078.151.139-.03.06-.13.069-.084.13.09.175.2-.048.241.06.024.13.2.084.133-.13.2-.166.015-.139-.118-.16-.1-.042-.13-.112-.22-.06-.283-.1a3.452,3.452,0,0,0-.326-.22,3.639,3.639,0,0,0-.516-.172c-.214-.09-.2-.112-.395-.1s-.271.075-.118.118.214.075.4.124.3.09.277.151-.1.042-.32-.027a2.412,2.412,0,0,1-.431-.175.54.54,0,0,0-.344-.106,1.3,1.3,0,0,0-.386.048l-.2.021Zm.823.79c.106,0,.084-.063,0-.069s-.106.06,0,.06Zm.437-.244c-.081.021-.133.054-.081.124a.133.133,0,0,0,.2,0c.063-.048.154-.048.208-.112s-.03-.121-.169-.063a1.167,1.167,0,0,1-.154.03Zm.1.235c-.069.069-.084.133,0,.169a.2.2,0,0,0,.223-.036c.042-.048.06,0,.139,0s.1-.063.048-.106.036-.03.021-.081-.063-.06-.214-.06a.35.35,0,0,0-.223.1Zm.811.2c.078,0,.015-.042.084-.054s.087-.093-.048-.063S50.4,35.894,50.486,35.9Zm-.3-.169a.033.033,0,1,0,0-.063c-.087,0-.054.045,0,.051Zm.3.326c-.09,0-.054-.042-.154-.048s-.16.06-.09.063.042.036.139.075.075-.042.139-.042.1.048.181.112.09.015.133-.021.084-.015.027-.084-.1-.081-.244-.081C50.574,36.03,50.58,36.051,50.486,36.057Zm.6-.124c-.16.027-.106.112.021.124a1.418,1.418,0,0,0,.3.027c.112,0,.118-.069.166-.021s0,.1-.084.118-.03.09-.112.1-.06-.063-.118-.075,0,.075-.063.084-.124-.048-.175,0,.06.084.356.22a2.249,2.249,0,0,0,.494.2c.13.021.118-.112.09-.22s.066-.042.139-.021.069-.075-.015-.139-.124-.084-.084-.106.1.021.2.069.124,0,0-.078-.187-.069-.335-.16-.181-.145-.3-.22-.115-.066-.181,0a.6.6,0,0,1-.3.106Zm2.132-.22c.087.1.027.2-.208.208a1.23,1.23,0,0,1-.522-.021c-.133-.054-.1-.06-.241-.054s-.187.036-.048.106a1.679,1.679,0,0,0,.395.106c.166.042.332.021.386.175s-.078.187-.244.214-.166.06-.124.256.2.235.458.25a1.128,1.128,0,0,1,.458.133,1.206,1.206,0,0,0,.507.112c.277,0,.425.015.223-.112a1.87,1.87,0,0,0-.47-.223c-.124-.036-.06-.063.069-.048s.133,0,.124-.06.054,0,.13.054.112.048.2,0-.027-.084-.054-.151.106,0,.2.118.118.09.256.078.048-.078.069-.139.06.021.133.021.208-.03,0-.151a4.838,4.838,0,0,1-.5-.3c-.2-.139-.124-.124-.265-.265a.956.956,0,0,0-.271-.223c-.106-.06-.036-.2.172-.036a4.931,4.931,0,0,1,.446.437.6.6,0,0,0,.485.208c.25.03.507.054.283.069s-.169,0,.015.181.25.32.069.223-.395-.139-.3.021.145.181,0,.223-.151.151.048.181.244.145.154.2-.187.027-.356,0-.2.112.036.244.229.139.277.3a.51.51,0,0,0,.184.32c.133.133-.042.124-.2.214s-.1.106-.259.139-.054.181-.2.241-.118.2-.395.235-.271.106-.443.172-.1.22-.03.5.075.3.238.41.124.235,0,.332-.024.13.235.184a3.766,3.766,0,0,1,.6.118.6.6,0,0,0,.458,0c.2-.048.25-.036.247.151s-.166.265-.247.154-.148-.075-.229-.024,0,.2,0,.38.1.208.181.2c.139,0,.139-.1.25,0s.145.154.347.075.181-.124.235-.25.024-.244.154-.2.078.133.256.181.3.22.2.374-.139.106-.223.139-.042.124.106.226a.8.8,0,0,1,.3.38c.1.2.184.1.431.259a1.025,1.025,0,0,0,.446.229c.229.06.3-.048.516,0s.166.13.326.124.069-.175.241-.175.084-.1.235-.112.069-.042.214.09a3.179,3.179,0,0,1,.341.446c.124.16.081.106.106.326s.112.229.048.3-.1.081-.048.235.133.2.069.3-.124.09-.106.271.084.166.169.054,0-.13.03-.271a1.379,1.379,0,0,0,0-.277c0-.124.09-.124.048-.3s.048-.214-.015-.374-.1-.154-.112-.332-.106-.175-.16-.395a1.468,1.468,0,0,0-.175-.51c-.1-.139-.048-.1-.22-.16s-.2-.063-.259-.244.03-.259.166-.2.1.112.169.09.048-.081-.06-.223-.151-.175-.069-.2.106-.112-.054-.169-.3-.139-.244-.256.169-.112.22.021.09.139.181-.06.139-.1.139-.22.06-.139.169-.124.048-.036.145-.106.124-.042.329,0a1.143,1.143,0,0,0,.38,0,1.152,1.152,0,0,1,.549.154c.241.133.3,0,.549.133s.3.181.374.13,0-.078-.084-.154-.09-.139.042-.13.22.133.4.241.2.03.368.084.271.075.458.118a1.643,1.643,0,0,0,.51,0,.9.9,0,0,1,.6.3c.13.133,0,.16.3.362a9.9,9.9,0,0,1,1.14.92c.437.41,1.04.932,1.6,1.508a12.627,12.627,0,0,0,1,.944c.151.118.1,0-.1-.244s-.965-1.155-1.541-1.764-1.061-1.064-1.45-1.459a25.656,25.656,0,0,0-2.129-1.872,28.174,28.174,0,0,0-2.6-1.791,29.051,29.051,0,0,0-2.659-1.508c-1.055-.491-3.015-1.079-3.8-1.4s-1.055-.479-1.269-.534-.244-.021-.133.06.208.151-.03.066a3.824,3.824,0,0,0-.555-.166,3.055,3.055,0,0,0-.452-.048c-.265-.024-.3-.054-.386-.139s.13-.021.22,0,0-.118-.3-.145-.335-.118-.675-.145a5.8,5.8,0,0,1-.651-.1,5.183,5.183,0,0,1-.6-.13,1.315,1.315,0,0,0-.41-.075c-.3-.015-.356-.015-.145.063a4.894,4.894,0,0,1,.473.241c.2.09.229.015.3.133s.069.166.166.22.106.075.2.075.1-.048.015-.069,0-.063.16-.027.38.1.172.112-.229.075-.06.112.187,0,.229.063.048.069.166.09a2.259,2.259,0,0,0,.235.06c.13.015.235,0,.416.015a2.257,2.257,0,0,0,.443.036c.151,0,.3-.03.172-.1s-.042-.084.181-.069.3-.027.341.075.03.145-.1.2a1.043,1.043,0,0,1-.57.042,3.885,3.885,0,0,1-.4-.075c-.229-.048-.4-.069-.326.015s.124.06.347.139.139.069.229.139a1.02,1.02,0,0,0,.3.124c.124.048.356-.036.431.024s.06.139.172.118.118-.124.223-.145-.054-.112.16-.124a.54.54,0,0,1,.473.208Zm-1.637,5.325a2.32,2.32,0,0,0,.347-.3c.124-.139-.169-.235-.362-.069-.292.271-.069.446.021.371Zm11.458.693c.087,0,.024-.1-.169-.151a1.161,1.161,0,0,1-.44-.2c-.136-.106-.208-.066-.13.039a1.27,1.27,0,0,0,.736.3ZM60.18,43.188c.16,0-.03-.368-.241-.528s-.169-.133-.13.087c.048.271.208.431.368.44Zm-2.714.3c.241.039.2-.247.039-.256s-.286.208-.039.253Zm2.343,1.927c.093-.048.081-.118-.057-.072s-.039.115.057.066Zm-.081.265c.072.015.048.03.087.2s.078.039.093-.13-.033-.277-.184-.256-.072.169,0,.184Zm-.136.184c-.015.072.048.063.063.16s.063.208.106.063,0-.271-.112-.3c-.048,0-.039,0-.054.063Zm0,.494c.054.015.106-.1.048-.112s-.112.093-.054.109Zm-.087.184c.039.03.057-.066,0-.081s-.048.045,0,.078Zm-.2.214c-.048-.03-.087.015-.03.072s.078-.036.03-.075Zm-.13.271c.087-.039.036-.139-.039-.078s-.048.118.036.078Zm-.2-.106c0-.1-.106-.048-.112.072s0,.13-.048.169.087.081.13-.024A.57.57,0,0,0,58.983,46.924Zm-.35.528c.112-.039.1-.2,0-.169s-.109.205,0,.166Zm-.3.145c.1,0,.042-.133-.024-.106s-.069.109.027.1Zm-.823.256a.054.054,0,1,0,0-.106.05.05,0,1,0,0,.1Zm-.081.223c.081.015.072-.084,0-.072s-.078.054,0,.069Zm-.386-.054c0-.1-.045-.133-.078-.024s.072.118.081.021Zm-1.4.072c.121.03.127-.184.024-.175s-.139.142,0,.175Zm.32.1c.072,0,.048-.121-.024-.121s-.042.106.027.118Zm-2.454-.681c-.169-.16-.223-.093-.106.063.229.3.277.093.109-.066ZM52.15,45.7c.075.036,0-.106.075-.22s.09-.16.09,0,.036.133.154.1.048-.181.106-.3a.329.329,0,0,1,.51-.078c.2.175.22.13.208,0s.042-.139.1-.395.229-.3.3-.507.124-.139.2-.32.106-.133.326-.124.145-.13-.048-.259a4.8,4.8,0,0,1-.561-.38c-.112-.118-.093-.166-.015-.329s-.027-.172-.166-.3-.054-.2.015-.169.2.09.145-.015.066-.124.2.027.2.075.241-.027.22-.1.323,0,.1.09.3.13.338.069.407,0-.069-.214-.244-.341-.118-.09-.027-.154.084-.2-.1-.271-.223-.16-.491-.151-.283.063-.175.229-.06.021-.229-.13-.3-.078-.639-.151a5.5,5.5,0,0,0-.778,0,5.172,5.172,0,0,0-1.055-.042c-.485.03-.576.048-.6.25s-.112.175-.169.036-.214-.084-.259.063-.265.187-.561.22a.558.558,0,0,1-.528-.118,1.632,1.632,0,0,0-.458-.25.79.79,0,0,0-.751.13c-.3.175-.329.13-.437,0s-.235-.048-.356-.208a.38.38,0,0,0-.446-.151,1.457,1.457,0,0,1-.651-.084c-.238-.06-.3-.106-.2-.118s.166-.021.1-.151-.139-.06-.32-.175-.235.03-.223.229.078.09.027.3-.151.229-.386.3a.742.742,0,0,1-.522.048c-.154-.06-.154-.133-.271,0s-.03.244-.16.241-.256-.081-.332-.374.036-.13.1-.326-.09-.175-.374-.332-.419-.106-.446.075-.175.133-.395.1-.277-.075-.229-.124.1-.09-.09-.16a1.89,1.89,0,0,0-.51-.063c-.187-.021-.181-.157-.03-.181s.118-.1-.036-.133-.051-.169.06-.169a.494.494,0,0,0,.3-.154c.166-.133.084-.3-.063-.41s-.241,0-.41-.03.075-.13.03-.277-.2-.145-.425-.1-.347.208-.6.241-.151-.118-.38-.124-.4.021-.645.027a2.606,2.606,0,0,1-.443,0c-.3-.021-.4.03-.386.2s-.13.118-.332.078-.223-.175-.425-.2-.181,0-.347.241-.187.335-.277.3,0-.112.015-.271,0-.181-.139-.166-.133,0-.027-.112.145-.208,0-.229-.112.16-.35.244-.4.2-.5.139.021-.175.244-.241.3-.048.356-.166,0-.2-.154-.2-.181.112-.452.2-.38-.015-.639.054-.326.133-.555.443-.3.4-.368.256.021-.139.118-.335.118-.175.09-.341.021-.13.139-.283.03-.229-.124-.106a3.1,3.1,0,0,0-.419.4c-.208.226-.326.021-.223-.021s.154-.133.048-.151-.084.075-.172-.075-.223-.145-.06-.181.2-.106,0-.166-.229-.027-.347-.133-.283-.1-.175-.166.169-.036.3-.166.06-.22-.118-.1-.395.075-.6.235-.244.069-.332-.063-.208-.169-.332-.036-.265.235-.341.139.054-.139.175-.271-.069-.133-.2.036-.181.22-.25.16-.036-.112.066-.166.124-.1.3-.22.139-.133.335-.16a.7.7,0,0,0,.425-.181c.181-.133.422-.2.271-.048s-.2.181-.395.38,0,.22.259.2.166-.1.452-.214a1.912,1.912,0,0,1,.736-.106c.265,0,.283-.22.494-.3a1.833,1.833,0,0,1,.7-.163c.277,0,.181-.2.048-.3s-.2,0-.3-.027-.139-.048-.3.075-.395.166-.4.054.1-.075.2-.1.042-.154.145-.244.13-.09.214-.021.2-.1.332-.214.13-.187.13-.35.2-.124.084-.265-.3-.042-.51-.036-.362-.106-.654-.021-.516.075-.419,0,.145-.16,0-.175a1.459,1.459,0,0,0-.579.154,4.96,4.96,0,0,0-.693.241c-.335.166-.479.326-.73.425s-.3.024-.63.25-.507.154-.868.458-.084.356-.027.271a.621.621,0,0,1,.3-.25c.217-.124.3-.054.528-.09s.3-.2.479-.3a2.246,2.246,0,0,1,.751-.208c.208-.021.112.015.341.081s.25-.06.443-.081.214.084-.021.214-.208.106-.507.078-.244-.069-.5.015a2.647,2.647,0,0,0-.889.3c-.416.25-.443.335-.507.561s-.277.259-.4.386-.124-.154,0-.3.175-.154.1-.22-.208.021-.491.3-.283.124-.283.124c0-.063.169-.166.271-.277s-.151-.06-.362.084-.368.265-.416.2.118-.181.118-.181c.118-.1.4-.3.549-.419s-.1,0-1.206.7a35.838,35.838,0,0,0-4.375,3.4,13.342,13.342,0,0,0-1.942,2.05,9.72,9.72,0,0,0-1.095,1.508c-.106.28.136.078,0,.232a6.41,6.41,0,0,0-1.6,1.839,29.979,29.979,0,0,0-2.237,4.2,26.778,26.778,0,0,0-1.224,3.531,7.17,7.17,0,0,0-.47,2.056c.063.479.175.377.208.223s.015-.2.078-.039.247.087.3-.13.175-.13.241.015.175.184.208,0,.039-.247.087-.1.106.106.151-.1.13-.208.145-.087.121.015.169-.232.112-.32.169-.2.1.081.151-.13.208-.256.368-.488a1.776,1.776,0,0,0,.1-1.04,1.918,1.918,0,0,1,.3-1.095c.2-.377,0-.344-.169-.121s-.262.368-.368.2a.464.464,0,0,1-.1-.44,2.762,2.762,0,0,1,.3-.648c.112-.247,0-.2,0-.2a3.749,3.749,0,0,1,.175-.494,12.872,12.872,0,0,1,.51-1.263c.184-.32.3-.3.169.048a5.619,5.619,0,0,1-.3.751,2.638,2.638,0,0,0-.226,1.152c-.063.63.087.534.217.44s.145.106-.015.335-.112.344-.063.687.1.265.151.546.28.32.552.7.265.151.28.528a13.815,13.815,0,0,1-.039,1.429c-.039.6,0,.35-.048.886s.136.561.3.537.214.024.16.271a4.358,4.358,0,0,0-.32,1.085,12.781,12.781,0,0,0-.217,2.822,20.718,20.718,0,0,0,.127,2.635c.039.5.359.407.386.2s.3-.13.425.16.03.28-.039.986.039.654.265.639.3-.217.256-.639a7.215,7.215,0,0,0-.13-1.031,2.367,2.367,0,0,1-.151-.886,1.266,1.266,0,0,1,.265-.79A2.047,2.047,0,0,0,21.3,63.5c.024-.344.072-.5.2-.567s.106.048.2.072.03-.087.184-.087.121.072.256-.024,0-.256.136-.32.16-.054.395-.145a1.673,1.673,0,0,0,.528-.386c.226-.19.169-.2.537-.169s.431-.184.425-.395a.226.226,0,0,1,.368-.2c.151.13.048.112.329.223a1.522,1.522,0,0,1,.488.241c.3.2.3.169.407-.087s.151-.3.151-.121a6.878,6.878,0,0,0,.015.76c.03.44.121.495.223.576s.2.039.121.223-.03.232.03.395a2.077,2.077,0,0,1,.039.775c-.015.407-.048.223-.2.488s0,.265.121.479.265.169.359.072a3.528,3.528,0,0,1,.335-.232c.2-.145.374-.087.368.265s.015.814.039,1.224.169.16.145.51a4.173,4.173,0,0,0-.024.76c.024.271-.145.16-.151.495a1.308,1.308,0,0,1-.151.6.8.8,0,0,0,.039.63c.087.151.054-.087.136.081s.32.63.47.886.066.329.015.7a.817.817,0,0,0,.2.706c.145.208,0,.184.136.431s.431.576.3.455a2.456,2.456,0,0,0-.519-.359c-.208-.106-.214-.121-.344-.359a7.172,7.172,0,0,0-.576-.712.9.9,0,0,1-.241-.522c-.048-.208-.223-.175-.395-.223a.869.869,0,0,1-.44-.3c-.208-.205-.175.048-.054.383s.081.2.386.567.32.4.368.6.081.241.3.44a.672.672,0,0,1,.265.537c.024.232.03.241.3.663a6.466,6.466,0,0,1,.395.712c.223.407.087.329.28.712a5.894,5.894,0,0,0,.6.856,4.426,4.426,0,0,0,1.079.986c.3.184.344.175.329-.048a4.384,4.384,0,0,1,.145-.817c.03-.2.121-.121.265-.214s0-.184-.2-.344-.063-.226-.2-.4-.214-.145-.3.081-.16.106-.136-.087.03-.223-.1-.32a.986.986,0,0,0-.407-.169c-.184-.048-.184-.28-.087-.32s.112-.121.063-.3.063-.184.247-.16.214,0,.106-.121a.85.85,0,0,1-.208-.495c-.054-.3-.112-.175-.256-.47s-.024-.335,0-.672a.709.709,0,0,0-.2-.7c-.229-.256-.425-.639-.6-.814s-.247-.087-.362-.256-.063-.329-.072-.552-.13-.151-.136-.3a.431.431,0,0,0-.169-.377c-.136-.1-.078-.3-.03-.479a2.413,2.413,0,0,1,.3-.663.8.8,0,0,0,.184-.567c.015-.3.16-.3.3-.214s.106.16.054.383.247.175.395.247.081.2.2.3a.452.452,0,0,1,.184.395c.015.232,0,.241.151.3q.145.063.054.175c-.087.112.214.106.359.271s.226.247.054.63.106.368.214.241.13-.151.3-.16a.413.413,0,0,0,.416-.28c.081-.214.2-.175.425-.226a1.239,1.239,0,0,0,.706-.425,2.077,2.077,0,0,0,.145-.8,3.847,3.847,0,0,0-.087-1.031,1.022,1.022,0,0,0-.256-.537c-.151-.241-.256-.32-.416-.576a1.3,1.3,0,0,1-.175-.546c-.054-.208-.223-.1-.214-.32a.844.844,0,0,1,.3-.678c.232-.169.184-.232.425-.32s.226-.175.464-.241a.482.482,0,0,1,.479.151c.106.087.241.072.214.232s-.081.16.03.374-.121.208-.3.241-.256.072-.395.344.13.4.335.44.3-.03.47-.2.13-.214.271-.35,0-.2-.1-.395.063-.32.121-.479.112-.03.522-.048a2.021,2.021,0,0,0,.79-.151,2.277,2.277,0,0,0,.458-.208c.2-.121.2.106.552.081a1.348,1.348,0,0,0,.736-.265,2.9,2.9,0,0,0,.751-.561c.232-.265.271-.232.455-.28s.072-.208.136-.44.112-.232.3-.446.335-.256.552-.488.151-.3.271-.479a.79.79,0,0,0,.247-.528c.087-.431.078-.567,0-.7a.516.516,0,0,1-.039-.47,1.085,1.085,0,0,0,.039-.672c-.072-.3-.151-.44-.35-.32s-.232.072-.416-.136-.184-.265-.015-.407a3.159,3.159,0,0,1,.431-.407c.271-.2.47-.329.624-.247s.256.054.271-.081-.03-.232-.208-.232-.247-.015-.247-.175-.1-.256-.232-.081a1.1,1.1,0,0,1-.479.32c-.175.081-.208-.175-.048-.169s.121-.16,0-.208.03-.1-.078-.151-.247-.024-.247-.184.13-.256.3-.3.087-.223.368-.4a6.271,6.271,0,0,0,.537-.329c.235-.169.256-.081.329.063s.1.175-.136.35-.024.16-.106.3-.175.359-.024.28.151-.136.464-.3.528-.208.669-.13.3.081.386.175.072.226-.093.552c-.087.169-.024.253.09.274a.534.534,0,0,1,.4.283c.1.268-.148.244-.184.338s.066.118.124.229-.425.775-.347.9a.543.543,0,0,0,.522.093c.118-.033.2-.166.3-.2a1.083,1.083,0,0,0,.467-.163c.2-.106.332-.467.169-1.085a4.058,4.058,0,0,0-.6-.968A.277.277,0,0,1,41.7,55.7c.16-.121.329-.184.537-.335a.727.727,0,0,0,.368-.479c.048-.232.072-.223.2-.3a.4.4,0,0,0,.2-.2c.063-.1.087-.03.232-.16s.2-.208.3-.063a.3.3,0,0,0,.377.151,1.6,1.6,0,0,0,.727-.359,5.66,5.66,0,0,0,.47-.6c.232-.271.32-.335.494-.528a1.043,1.043,0,0,0,.3-.5,1.776,1.776,0,0,1,.359-.552,1.143,1.143,0,0,0,.175-.712,2.192,2.192,0,0,1,.106-.76c.1-.265.359-.1.44.265s.03.6.093.95a3.748,3.748,0,0,1,.015.986c-.024.359.145.238.145.072s0-.16.081-.175a.25.25,0,0,1,.3.145c.072.151.1.121.072-.048s-.1-.112-.184-.3-.256-.184-.28-.374.121-.359.16-.576.136-.175.271-.1.13.106.081-.106-.13-.16-.184-.395-.214-.416-.28-.63,0-.383-.066-.6-.015-.226-.078-.446-.175-.2-.214-.072.072.1.072.232-.087.169-.265.169-.2-.039-.377-.184-.16-.253-.425-.214-.136.329-.265.335-.184,0-.2-.175-.066-.136-.112,0-.2,0-.121-.151,0-.151-.175-.121-.256,0-.271-.1.1-.13.271-.223.238-.241.395-.368.256-.4.431-.47a.642.642,0,0,0,.377-.359c.03-.145.072-.2.256-.329s.3-.3.552-.32a3.182,3.182,0,0,1,.479-.039c.169.024.214-.081.35-.03s.407.024.464-.106.121-.136.265-.112.121.081.3.039.3.024.151.1-.048.184.087.169a.6.6,0,0,0,.3-.106c.078-.109.048-.109.229-.109s.214-.175.112-.2-.175.015-.175-.16a.579.579,0,0,1,.2-.416c.112-.121.1-.395.241-.5a.6.6,0,0,1,.425-.106c.16,0,.247-.015.241.106s.093.145.16.3.169,0,.271-.16a.555.555,0,0,0,.151-.482c-.039-.247.057-.247.078-.13a1.875,1.875,0,0,1,.136.446c.015.223-.072.175-.2.32s0,.223-.066.407-.13.151-.2.455-.175.3-.359.479-.054.2-.087.335a1.064,1.064,0,0,0-.13.552c0,.395.217.63.446,1.079a7.534,7.534,0,0,1,.47.944c.066.214.2.16.232-.039s.169-.2.223-.368-.121-.241-.093-.368a.223.223,0,0,1,.329-.175c.145.081.145-.024.03-.151a.356.356,0,0,1-.121-.32c0-.16.093-.232.271-.208s.214-.169.078-.271-.136-.184-.136-.335.048-.241.136-.16.106.039.1-.087-.1-.169-.2-.226-.112-.214-.106-.35-.121-.175-.175-.048-.136-.054-.169-.2.03-.175.054-.265a.3.3,0,0,0-.024-.265c-.066-.087,0-.127.063-.175a.2.2,0,0,1,.241-.018Zm.084.368c.03-.151-.118-.235-.175-.048-.133.44.148.2.181.045Zm3.4-3.335c.09-.03.063-.084.214-.09s.22-.054.151-.106a.455.455,0,0,0-.431.048c-.139.084-.021.181.069.151ZM46.639,40.7c.124.027.229,0,.262-.1s-.075-.118-.374-.139-.259.054-.1.154a.657.657,0,0,0,.208.078Zm-.8-.3c-.106-.015-.054-.069-.2-.09s-.069.075-.175.081-.06-.133-.2-.106a.253.253,0,0,0-.2.3c.054.13.112.133.259.187s.106-.048.214-.015.084-.03.16-.015a.338.338,0,0,0,.347-.112c.154-.151.133-.25-.084-.265-.075,0-.027.042-.133.027Zm-.92.166c.081,0,.084-.13,0-.124a.063.063,0,1,0,0,.124Zm-2.861-1.146c.078-.036.033-.139-.054-.084s-.027.124.054.087Zm-.69-.265c-.145.075-.106.124.042.09a1.665,1.665,0,0,1,.395,0c.172,0,.22-.048.2-.169s-.106-.241-.235-.16a4.561,4.561,0,0,1-.41.238Zm.494-.522c-.03-.066.021-.106.118-.133s.09-.063.112-.151-.139-.118-.265-.075-.208.1-.356.139-.169.036-.244.118,0,.145.075.13.054.048-.015.106.054.139.145.187a.214.214,0,0,0,.283-.06c.106-.106.145-.081.2-.16s-.015-.06-.036-.1ZM40.087,37.2c-.081-.054-.16-.048-.2.1s.015.22.118.172.09-.084.151,0,.112,0,.187.054.118.048.259,0,.027-.075-.112-.106,0-.151.133-.154.187-.09.106-.106a.482.482,0,0,0-.443.021c-.118.063-.124.081-.2.027Zm-.25-.154c-.151.2-.015.2.042.124s.118-.112.175-.069.036.084.133.069.133-.2.036-.3-.241-.021-.4.169Zm-.2-1.263a1.45,1.45,0,0,0-.561,0c-.332.054-.151.133.081.13s.3-.015.326.048-.078.081-.3.075-.3.081-.169.112a.678.678,0,0,0,.356-.03c.124-.03.208-.042.356-.084s.271-.03.145.024-.106.166.069.169a.431.431,0,0,0,.347-.078c.139-.09.063-.22.184-.3s.075-.22-.151-.2a1.84,1.84,0,0,0-.507.124c-.075.027-.054.021-.187,0ZM35.76,38.59a2.617,2.617,0,0,1,1.092-.265,2.958,2.958,0,0,1,1.14,0c.259.081.464.154.624.069s.066-.16-.208-.169-.1-.133-.63-.181a4.986,4.986,0,0,0-1.532.166c-.522.112-.811.175-.956.425s.027.3.2.151a1.061,1.061,0,0,1,.265-.2Zm-1.417.075c.1.015.118,0,.166-.081s.087-.148-.1-.09-.16.154-.066.169Zm17.1,11.44c.066-.078-.021-.181-.1-.042s-.03.139-.13.2-.075.181.03.172.139-.265.2-.332Zm-4.432,3.682c-.03.063.024.136,0,.223a.157.157,0,0,1-.256.039c-.087-.087-.175,0-.136.03s.057.087.1.136-.106.048-.208.145a.163.163,0,0,0,0,.271c.087.078.063.087.039.2s.054.175.106.078.039-.13.136-.1.208,0,.151-.081-.169-.072-.256-.145-.03-.16.054-.208.121-.054.13.063.093.078.16-.03.054-.121.2-.072a1.348,1.348,0,0,1,.35.232c.13.1.2.112.2.024a.519.519,0,0,1,.048-.238.374.374,0,0,1,.3-.241,1.1,1.1,0,0,0,.344-.087c.121-.054.078-.054-.039-.136s-.078-.121-.048-.208.093-.2-.015-.112a.416.416,0,0,1-.359.072,1.11,1.11,0,0,1-.494-.3c-.175-.145-.2-.3-.32-.35s-.13.039-.1.2a.986.986,0,0,1,.015.519c-.015.048-.039.024-.072.087Zm1.981-.519c-.039.112.03.13.13-.03s.1-.112.214-.214.072-.181-.13-.039a.67.67,0,0,0-.214.3Zm-.47.3c-.078.106-.024.16,0,.112a.741.741,0,0,1,.151-.2c.1-.087.072-.2-.015-.112a1.083,1.083,0,0,1-.139.2Zm1.031-.721c.072-.048.045-.157-.03-.106s-.042.16.021.106Zm.395-.3c.1-.121.1-.256-.015-.145s-.078.265.018.145Zm-3.259,2.527c-.057,0-.03.121-.057.184-.042.118-.1.048-.112.232s.048.208.081.32,0,.16-.1.368-.048.32-.16.44-.214.145-.256.256-.054.121-.2.214-.232.048-.3.151-.208.087-.223,0,.015-.184.1-.2.033-.13-.081-.106-.112.072-.121.241.024.112-.145.28-.121.232-.151.377-.223.121-.32.081a.3.3,0,0,0-.259,0c-.16.03-.44.039-.687.063s-.271.151-.386.28a.986.986,0,0,1-.425.28c-.175.063-.015.175.106.175s.2.048.28.015.063-.087.2-.106.232-.1.407-.121a.6.6,0,0,0,.3-.072.452.452,0,0,1,.35-.072c.145.03.226.063.136.2s-.093.2,0,.256,0,.121.112.151.2.063.2-.048,0-.078.087-.226.087-.112.214-.121.066-.063-.024-.136-.063-.106,0-.2.1-.121.1,0,.03.1.1.072.078-.081.106,0,.145.054.256.039.13,0,.214-.151.16-.121.151.063.087.106.106-.015.03-.175.13-.223.106.024.175-.136.169-.03.072.1-.054.2.054.136.121-.169.175-.223.1-.106,0-.2.03-.106.015-.3.106-.335.087-.534,0-.329.072-.374.1-.081.13-.271.169-.241.145-.455-.169-.28-.256-.395,0-.232-.024-.329A.1.1,0,0,0,46.862,55c-.054.072-.039.1.039.1s.066.054.024.136-.145.054-.16-.054c0-.021-.015-.106-.087-.1Zm-.727,1.655c.039-.048.045-.154-.024-.1s-.015.145.027.1Zm-2.138.9c.063,0,.106-.121,0-.112s-.06.106,0,.118Zm-.3,1.239a.4.4,0,0,0-.048.3c.015.184.184.2.2.13a.823.823,0,0,1,.112-.247c.048-.087.265-.145.3-.063s.112.087.13,0a.214.214,0,0,1,.13-.184c.112-.072.03-.16-.048-.175s-.13-.078-.238-.054-.136.136-.238.136a.3.3,0,0,0-.28.151Zm.926-.3c.048,0,.106-.157.039-.151s-.087.145-.033.145Zm-2.032.3c-.106-.015-.265.087-.223.145s.015.169.078.256.112.072.208.03.121.072.063.208a1.348,1.348,0,0,0-.087.386c-.03.2.1.3.13.121s.081-.106.072.054.1.13.145-.024.169-.136.2-.3a.626.626,0,0,1,.106-.359.353.353,0,0,0-.015-.395c-.054-.124-.2-.039-.271-.145s-.066-.139-.208,0c-.03.03-.078.048-.184.03Zm.241,1.719c.078-.054.1-.268.039-.232s-.112.283-.033.232ZM42,61.671c.087-.072.075-.229-.054-.121s-.027.187.06.118Zm-.63.8c.112-.2,0-.214-.112-.063s0,.259.118.06Zm-1.381.871c.063,0,.093-.151,0-.112s-.06.109,0,.109Zm-.648.2c.184.039.208-.184.03-.175s-.214.127-.03.166Zm-1.83.407c-.054.3.175.3.232.446s.136.2.151.054a.452.452,0,0,1,.1-.3,4.666,4.666,0,0,0,.335-.63c.136-.3.2-.528.072-.6s-.2-.015-.552.35a1.23,1.23,0,0,0-.335.669Zm-.13,3.253c-.054.2-.024.3-.106.3s-.087-.1-.151-.121-.054.16-.015.455.078.335.151.377.087.13.151.106.048-.136.121-.1.072.136-.054.2-.106.151-.03.208.151,0,.136.087.16.087.2,0,.169-.024.247-.054-.072-.1-.106-.241-.015-.265-.106-.32-.054-.136.03-.232.039-.241.151-.3a.54.54,0,0,0,.3-.232.371.371,0,0,0,0-.431.277.277,0,0,1-.015-.335c.063-.112.048-.241-.106-.13s-.175-.015-.3-.13-.4-.106-.446.335a3.47,3.47,0,0,1-.054.537Zm.145,2.207c.072.223.265.072.271-.087a.425.425,0,0,0-.265-.425c-.214-.121-.3-.1-.175.13a2.02,2.02,0,0,1,.163.383Zm-.446.259c.072-.106-.072-.359-.1-.3-.066.226.024.416.1.3Zm.926-.6c.066.039.066-.169,0-.175s-.063.145,0,.184Zm.03.425c.063,0,.054-.133,0-.13s-.063.136,0,.136Zm.3.063c.054-.015.03-.1-.03-.093s-.024.121.03.106Zm-.368.727c-.072.169.039.208.106.112s.112-.039.145.057.136.048.106-.039a.232.232,0,0,1,.13-.256c.106-.063.106-.151.024-.151a.437.437,0,0,1-.223-.087.869.869,0,0,1-.232-.2c-.063-.081-.042,0-.015.2a.624.624,0,0,1-.03.368Zm-1.414.015c-.13.112-.13.121-.3.271a5.429,5.429,0,0,0-.6.464c-.16.184-.121.543-.1.425a.488.488,0,0,1,.208-.35,4.614,4.614,0,0,1,.431-.3c.184-.112.16-.223.329-.3s.2-.13.359-.13.136-.072.03-.1-.13-.1-.121-.28-.063-.178-.136.087c-.024.087.015.121-.112.232Zm2.062-1.3c.057.112.024.145.121.223s.087.024.151.136.145.136.151.039,0-.112-.112-.175.015-.078-.121-.184-.039-.151.112-.16.072-.063-.072-.106-.2.136-.256.024-.015-.16-.112-.232-.136,0-.3.072-.121.112-.048.184.039.048.121.184.112.048.039-.112-.015-.184.087-.106a.657.657,0,0,1,.223.208Zm.552-.024c.078.015.036-.25-.039-.232s-.042.226.036.241Zm-.455.727c.039-.078.13.039.271.13s-.024-.145-.145-.256-.169-.2-.232-.03.048.232.1.151Zm.736.241a.139.139,0,0,1-.13.208c-.1,0-.1-.066-.072-.16s-.048-.121-.112.072.015.136.1.256.112.015.121.208,0,.184.13.184.072-.087.024-.184a.3.3,0,0,1-.048-.226c0-.151.087-.136.217-.048s.121-.048.048-.145-.024-.136-.015-.256,0-.13-.081-.241-.16-.048-.3-.081-.16-.081-.169.048.232.241.3.359Zm-.856.9c-.087.169-.106.121-.087-.039a.567.567,0,0,1,.175-.32c.072-.1.057-.232-.054-.247s-.145.054-.2.265-.072.232-.214.214-.066.145,0,.271.136.024.169.106.087.121.175.072.03-.081.072-.184a.724.724,0,0,1,.214-.3c.112-.1.106-.078.121-.256s-.093-.223-.151.03c-.03.136-.136.217-.223.386Zm.455.145c.2,0,.136-.277,0-.256-.259.048-.2.253,0,.262Zm.727-.2c.015-.13,0-.2-.087-.03s.072.172.087.042Zm.256.087c.03-.106-.042-.087-.072-.024s.036.139.072.036Zm-.377.44c-.039.1-.145.13-.2.054s-.106-.13-.136,0,0,.121-.169.145-.121.169-.3.145-.054-.16-.169-.232-.175,0-.247.112-.151.087-.3.121-.112.112-.151.265-.106.087-.106.214.063.024.13-.081.106-.247.2-.256.1.015.106.151.072.015.13-.1.072,0,.13.066.072-.112.145-.136.136.081.226.208.048.106-.024.3.024.265.184.386.256.223.329.121.1-.015.1.106.093.13.093.072,0-.072.087-.16.063-.1-.057-.238-.087-.2-.024-.232.106,0,.151-.1.054-.145.072.015.13.247.2.121a.748.748,0,0,0,.145-.3c.054-.214-.072-.175-.072-.32s.03-.121-.039-.16-.112-.136-.03-.16.072-.087-.039-.184-.112-.169-.214-.271-.169-.063-.13.072a.482.482,0,0,1,0,.247Zm-1.734,1.119c.1.024.078-.151-.03-.145s-.066.133.03.151Zm-.488.238c.087.015.087-.118,0-.13s-.09.124,0,.139Zm-.488.335c.121-.03.078-.2-.015-.16-.139.078-.109.205,0,.175Zm3.389.751c.03-.151-.042-.22-.112-.054s.078.22.109.069Zm-.678.3c.066,0,.063-.124,0-.112-.124.03-.069.118,0,.127Zm-4.276-2.1c-.081.024-.039-.136-.121-.16s-.024.121-.184.344-.063.214-.208.271-.112.175-.217.247-.145.024-.262,0-.175.13-.335.136-.087.039-.247.247-.32.368-.494.368-.464-.106-.624-.03-.072.175-.087.416-.184.16-.395.1a.691.691,0,0,1-.359-.265c-.1-.1-.169.087-.3.28s-.054.223.024.407.1.121.048.3.015.208.106.329.054.223.136.184.078-.066.145.024a1.414,1.414,0,0,1,.03.639c-.015.32.151.344.5.35s.3.015.335.16.106.184.16.078.121-.054.2.03.151-.024.217-.121.03.015.121.072a.4.4,0,0,0,.3.106.329.329,0,0,1,.344.329c.024.226.081.208.214.13a.9.9,0,0,1,.395-.121c.169-.024.106.169.184.208s.175-.087.184-.28-.106-.081-.112-.223.121-.112.151-.329-.087-.136-.054-.3.169-.2.32-.241.217-.066.151-.3a.4.4,0,0,1,.081-.416c.072-.112.28-.054.446-.015s.226-.054.169-.112-.145-.136-.329-.3-.208-.214-.145-.271.106-.072.03-.175-.121-.03-.145-.226a.727.727,0,0,1,.1-.528c.1-.1.208-.112.407-.054s.121-.078.03-.145-.241-.039-.265-.112.066-.13.247-.121.241.03.256-.039-.03-.106-.208-.2-.136-.106-.247-.208-.217-.054-.3-.151.039-.13-.024-.232-.121-.106-.121-.28-.078-.211-.145.024c-.015.054,0,.121-.087.145ZM31.3,72.6c0-.208-.06-.265-.121-.048s.118.265.118.069ZM31.116,76c.28.048.241-.365,0-.386a.2.2,0,0,0,0,.4ZM30.109,77.13c-.151-.024-.081.121.136.214s.169.039.265.145.015.13.271.184.169.121.455.265.3.03.669.121.3.175.654.335a2.692,2.692,0,0,0,.847.247c.335.054.136-.087.28,0s.377.184.567.3.081-.015.015-.1.112-.081.024-.145-.1-.184-.4-.247-.44-.112-.416-.226.169-.048.395-.039.232-.087-.112-.13a2.352,2.352,0,0,1-.745-.175c-.32-.121-.271-.214-.455-.265s-.081.121-.256.13a1.541,1.541,0,0,1-.567-.112c-.247-.081-.2-.175-.47-.3s-.464-.2-.706-.329-.356-.115-.28.054c.03.072-.024.106-.175.078Zm4.4,1.752c.066.048.024.106.136.112s0-.072.13-.1.024-.1-.208-.151-.13.1-.063.151Zm.687.256c.184,0,.148-.274-.015-.265-.247.03-.175.277,0,.277Zm.681.136c.223-.03.2-.054-.015-.145s-.259-.184-.386-.072c-.2.184.175.247.395.214Zm.169-.3c-.057-.078-.1-.03-.2-.039s-.078.1.039.13.2.024.28.13.112.063.223.081.214-.169.039-.2a1.31,1.31,0,0,1-.383-.1Zm.9.847c.136.1.136.184.329.175s-.015-.121-.169-.232-.241-.232-.464-.241-.2.115-.039.2c.072.039.208,0,.344.1Zm.8-.35c.247,0,.479-.13.2-.121a3.258,3.258,0,0,1-.751-.175c-.32-.063-.368.087-.265.151a6.2,6.2,0,0,0,.814.145Zm.7-.121c.072-.015.054-.112-.106-.106s-.112.13-.039.184.072-.066.145-.081Zm.2.087c.048.024.06-.112-.015-.1-.124.036-.036.081,0,.106Zm.775,0c.145,0,.093-.106-.16-.121s-.238.072-.13.112a2,2,0,0,0,.3,0Zm.76-.2c.16-.048,0-.124-.256-.039-.2.072.09.093.25.048Zm-.7.395c-.087.081-.175.087-.407.13s-.344.121-.329.329.232.145.446.054.241-.241.374-.335a.706.706,0,0,1,.488-.048c.184.015.112-.112.247-.112s.3-.106.175-.13a2.446,2.446,0,0,0-.6-.024.519.519,0,0,0-.386.136Zm-2-4.4c.226.066.344-.048.669.039s.3.13.494.184a.47.47,0,0,0,.494-.151c.072-.121.223-.136.28-.3s-.087-.16-.208,0a.5.5,0,0,1-.464.208c-.217,0-.145-.03-.368-.072a3.65,3.65,0,0,1-.494-.112c-.223-.063-.28.015-.368-.121s-.175-.175-.247-.024-.087.169-.3.2-.136.136-.169.329-.1.214-.16.407a1.577,1.577,0,0,0-.121.479c-.039.3-.015.106-.175.271s-.024.3.063.374.112-.024.226.106.048.329,0,.537,0,.383.184.416.2-.217.208-.431.015-.3.03-.47-.106-.169-.063-.271.121-.214.232-.208.2.13.151.329,0,.223.145.329.121.121.13.28a.134.134,0,0,0,.241.072c.057-.072.087-.1.223-.066s.169,0,.112-.106-.16-.112-.226-.3.057-.223-.072-.329a3.315,3.315,0,0,1-.335-.4c-.121-.136.057-.121.2-.16a.718.718,0,0,0,.3-.121c.087-.072.217-.241.087-.271s-.3.081-.431.066-.175-.066-.265.112-.2.072-.32.03,0-.136-.1-.208-.175-.145-.175-.214a.745.745,0,0,1,.145-.464.642.642,0,0,1,.44.024Zm.88.721a.791.791,0,0,1,.145.1c.1.072.084-.184-.072-.217s-.112.1-.072.118Zm.03.3c.121.024.2-.16,0-.16-.151,0-.127.139,0,.163Zm.232.087c.039.015.072-.157,0-.151s-.048.139,0,.157Zm-.16,1.161c0-.048-.039-.1-.106,0s.087.042.1,0Zm-.32.223c-.1.015-.081.169-.039.214s.063,0,.112-.072.048.063.024.2.106.112.106.054,0-.1.106-.106-.015-.106-.063-.184.048-.039.078-.1-.021,0-.145-.039a.862.862,0,0,0-.175.03Zm1.287-1.206c.151,0,.078-.13-.16-.151s-.226.072-.136.112a1.259,1.259,0,0,0,.286.042Zm.537.648c-.063.081.048.214.271.256s.32-.063.241-.121-.106-.169-.3-.175c0,0-.151-.039-.214.039Zm.8-.63c.169.048.2-.124,0-.169s-.178.124,0,.172Zm-.169-.663c-.1,0-.112.087-.039.151s.112,0,.136-.072c0,0,0-.072-.093-.081Zm.136-.208c0,.169.054.16.1.265a.329.329,0,0,0,.169.2c.072.03-.03-.1-.039-.184s-.121-.175-.106-.256,0-.184.121-.136.151.072.217.03.015-.087-.072-.121-.145-.151-.024-.145.13-.051.145-.151c.024-.16.024-.256-.072-.175s-.13.208-.241.271a1.885,1.885,0,0,0-.2.112c-.066.048-.039.1,0,.151a.16.16,0,0,1,0,.136Zm.446-1.022c.039-.13-.036-.142-.13,0s.078.133.118,0Zm-.455.576c.106.015.16-.072.16-.2s-.03-.274-.184-.1c-.106.121-.081.28.024.3ZM42,76.753c.16.024.121-.181-.015-.16-.259.042-.157.139,0,.163Zm-.636.534c.039.015,0,.072.151.093s.145.03.121-.048.015-.039.16,0a.835.835,0,0,1,.407.256c.16.151.184-.048.057-.2a.516.516,0,0,0-.362-.208.826.826,0,0,0-.368-.039c-.121,0-.256-.024-.464-.015s-.265.072-.16.112.087-.024.136.066,0,.13-.169.112.078.087.223.072.078-.136.169-.175a.128.128,0,0,1,.1-.024Zm1.167-1.655c.024-.087,0-.181-.081-.1s.045.187.069.1Zm-.425.3c.072.081.16.112.344.072s.13-.175-.03-.175c-.256,0-.386.024-.3.106Zm.087.344c.072.072,0,.072.151.175s.112.087.329.063.2.015.232.2.151.151.335.16a5.226,5.226,0,0,0,.712,0c.136-.024.063-.184.081-.368s-.039-.265-.256-.3-.3-.087-.561-.136-.3.121-.413.136-.175-.039-.232.054-.112.145-.136.081a.283.283,0,0,0-.2-.169c-.106-.03-.112.039-.039.112Zm1.508.8c-.121-.1-.175-.048-.3.048s-.072.03-.232-.03-.223.048-.106.112.057,0,.169.081a.431.431,0,0,1,.2.383c0,.214.247,0,.3-.184s.054,0,.223.136.175.039.35.136a2.762,2.762,0,0,0,.886.3,1.294,1.294,0,0,1,.862.44,1.251,1.251,0,0,1,.47.648c.106.226.03.169-.112.106a.35.35,0,0,0-.479.13c-.169.223-.3.247.024.3s.431.03.561-.087.329-.054.552-.015.247.335.546.425.121.024.271,0,.344.169.455.063a2.793,2.793,0,0,1,.3-.3c.151-.112.145.048.28-.015s.145-.184.2-.335.121-.072.2-.169.1-.1.214-.024a.935.935,0,0,0,.479.1c.2,0,.223.256.6.567s.479.3.687.28a6.032,6.032,0,0,1,.6.03c.111,0-.04.145.271.13.178,0,.217-.118.136-.175a1.381,1.381,0,0,0-.271-.1c-.178-.066-.121-.087-.247-.151s0-.169-.078-.214-.03.054-.3-.024-.169-.145-.416-.359-.256-.169-.368-.407-.078-.232.121-.214.256.048.265-.087-.151-.145-.407-.214-.247-.081-.479-.145-.087-.13-.16-.3-.2-.13-.528-.3a1.939,1.939,0,0,0-.959-.223c-.546-.054-.712-.32-1.007-.344a3.48,3.48,0,0,1-.817-.16c-.359-.106-.494-.247-.76-.247s-.2.13-.377.247-.265.024-.359.2a1.085,1.085,0,0,1-.368.344.356.356,0,0,1-.464-.063,2.165,2.165,0,0,1-.241-.3c-.063-.112-.13-.115-.2.024-.03.063-.072.136-.2.039Zm.522,1.993c.175.024.223-.208.13-.44s-.084-.383-.214-.145-.1.564.069.588Zm-1.743.265c0,.112-.054.024-.121.2s.106.112.16,0,.175-.136.256-.3,0-.208-.151-.063c0,0-.151.048-.145.16Zm-.654.1c.106.024.066-.151-.048-.151S41.727,79.407,41.829,79.431Zm3.115-3c.024.1.145.072.214.039s-.063-.151-.208-.241-.271-.054-.13.048a.278.278,0,0,1,.121.151Zm.241.3c.223,0,.093-.16-.247-.106-.235.039.027.1.25.1Zm5.4-.057c.3-.03.3-.121,0-.121s-.232.112-.03.13m1.918-.048c-.226-.112-.4-.042-.32.048s.2,0,.407.063a2.154,2.154,0,0,1,.6.271c.2.13.232.063.256.3s.2.3.2.072,0-.232-.3-.395a7.371,7.371,0,0,0-.838-.35Zm.51.7c-.063-.03-.136.063-.054.169s.072.063.223.13.16-.03.136-.151-.078-.223-.2-.16a.1.1,0,0,1-.112.015Zm-.455.624c-.136.1-.136.072-.35.106s-.47-.015-.766,0-.054.1.1.184.208.024.386.081a.488.488,0,0,0,.44-.048.932.932,0,0,1,.383-.169c.169-.03.1-.175.217-.214s.223.024.208-.063a.2.2,0,0,0-.238-.151c-.208.024-.232.184-.368.28Zm2.15.2a.154.154,0,0,0,.241.112q.121-.072-.024-.214c-.1-.1-.106-.112-.241-.265s-.256-.145-.145.106a.6.6,0,0,1,.169.265Zm.95.214c.145.039.271,0,.136-.039s-.087-.063-.3-.175-.329-.112-.136.063a.986.986,0,0,0,.3.148Zm1.167.271c.078-.048-.112-.2-.386-.265s-.241-.066-.048.106c.072.066.35.208.431.16Zm-.968.241c.106.1.175.081.175,0s-.13-.2-.28-.247-.271,0-.081.121a.534.534,0,0,1,.184.121Zm1.577.072c.226.184.241.054.13-.048s-.078-.078-.169-.241-.184-.3-.2-.015c0,0,0,.121.232.3Zm-.238.2c.121-.03-.015-.184-.3-.169s-.256.112-.024.169a.945.945,0,0,0,.311.012Zm.687.3c.087,0,.087-.121-.066-.151s-.344-.015-.2.087a1.028,1.028,0,0,0,.259.054Zm1.869,1.508a.2.2,0,0,0-.063-.3c-.121-.048-.06-.22-.13.03-.048.175.13.344.2.256Zm.112.256c.087.03.121-.145-.015-.136s-.072.093.015.127Zm.271.425c.112,0,.081-.184-.039-.151s-.075.151.036.142Zm-.054-.823c.081.024.087-.109,0-.1s-.081.063,0,.087Zm.247,1.182c.1,0,.087-.121,0-.106s-.1.078,0,.087Zm0,.256c.081,0,.078-.121-.024-.106s-.072.078,0,.087Zm3.287-1.719c-.232.232.112.16.368,0s.214-.386,0-.28a.76.76,0,0,0-.38.262Zm.6-.576c.048.054.169-.024.362-.2s.2-.25-.081-.136c-.151.066-.329.28-.28.335Zm-5.708,3.157c-.329-.241-.479-.265-.377,0s.395.265.681.395.534.087.238-.081l-.543-.3Zm.9-.136c.063-.054,0-.115-.072-.072s0,.112.06.054Zm.175,4.637a1.36,1.36,0,0,1-.464.335c-.223.106-.093.184.048.136s.087.054-.087.2-.208.151-.063.121a2.68,2.68,0,0,0,.712-.44c.407-.3.184-.169.344-.344s.35-.184.6-.35.175-.226.087-.214-.1.106-.3.223-.368.13-.3.024.03-.226-.066-.136-.13.16-.2.072.039-.1.072-.232-.078-.136-.2-.16-.121-.112-.136.063.121.265.121.359a.5.5,0,0,1-.145.35ZM57.6,89.071c-.488.256-1.07.446-1.616.76s-.552.374-.265.335a1.182,1.182,0,0,0,.727-.223c.455-.271.546-.32.546-.32l.431-.256a9.959,9.959,0,0,0,1.085-.657c.232-.2.175-.247.039-.2s-.16.106-.13.039-.024-.087-.208.039a1.547,1.547,0,0,1-.624.494Zm-8.141-6.935a2.8,2.8,0,0,1-.265-.145c-.184-.115-.2.121-.359-.048s-.16-.054-.112-.271.015-.2-.087-.35a1.811,1.811,0,0,1-.184-.344c-.081-.175.015-.3-.184-.3s-.2.16-.238.344-.175.169-.2.464a2.959,2.959,0,0,0-.072.663,1.14,1.14,0,0,1-.208.841c-.2.35-.35.455-.6.44a.543.543,0,0,1-.431-.232c-.121-.13-.32-.066-.549-.226s-.151-.145-.44-.2a.986.986,0,0,1-.522-.247c-.241-.16-.3-.175-.265-.3s.03-.121.13-.2.024-.2.121-.3a.823.823,0,0,1,.247-.235c.151-.087.265-.145.136-.223s-.151.054-.3.121-.112-.048-.32-.16-.136.048-.407,0a3.254,3.254,0,0,1-.546-.106c-.3-.1-.3-.136-.63-.247a1.182,1.182,0,0,0-.706-.054c-.329.03-.455.136-.4.223s.232,0,.488,0,.039-.106.208-.087a.54.54,0,0,1,.425.169c.106.136-.03.106-.28.1a1.137,1.137,0,0,0-.687.121c-.136.121-.28.214-.2.344s-.1.169-.3.3-.2.063-.344.232-.335.3-.386.13,0-.175-.169-.35-.175-.145-.395-.184-.063.081-.2.121-.048-.112-.2-.024-.063.121-.208.121-.226.078-.2.2-.184.048-.368.121.039.271-.054.395-.121-.066-.3-.121-.03.16,0,.32-.112.175-.214-.015-.16-.175-.32-.087-.106.223-.063.32,0,.151-.184.256-.048.2-.265.344-.169.072-.537.1a3.353,3.353,0,0,0-.76.112c-.241.066-.706-.087-.959,0s-.32.208-.549.208-.13.247-.223.232-.087-.223-.151-.184-.081.2.015.344-.039.169-.072.3.024.265.232.455.271.44.169.407-.226-.087-.106.087a6.455,6.455,0,0,0,.639.745c.28.3.112.184.3.479a1.694,1.694,0,0,0,.386.431A.887.887,0,0,1,36.36,88c-.024.223-.1,0-.13.087s.072.112.256.145.063.106.247.2a2.111,2.111,0,0,0,.9.112,1.576,1.576,0,0,0,.494-.2,3.157,3.157,0,0,1,.9.081c.241.048.431.151.7,0s.087-.175.335-.214.271,0,.431-.072.28.048.832,0a2.669,2.669,0,0,0,.543-.087c.217-.03.528,0,.7-.015a1.659,1.659,0,0,1,.6.136c.241.087.232-.024.35.063s.145.048.368.054.112.03.232.063.16.063.048.1.1.1.2.121.208.175.329.368.136.136.247,0a.8.8,0,0,1,.368-.223.657.657,0,0,0,.377-.214c.169-.175.13-.024.048.151s-.087.063-.112.2-.048.145-.214.169.106.072.265.024.054-.112.145-.175.13.072.175.2,0,.087-.151.136a.464.464,0,0,1-.329,0c-.169-.03-.223.024-.232.106s.106.03.344.024.081,0,.416-.13.169-.03.329.072a.341.341,0,0,1,.175.32c.015.136.208.16.416.208a4.878,4.878,0,0,0,.528.03.947.947,0,0,0,.63,0c.32-.106.359-.232.494-.151a.6.6,0,0,0,.519.169,1.182,1.182,0,0,0,.6-.271c.208-.13.377,0,.7-.13s.256-.3.488-.6a4.011,4.011,0,0,1,.823-.775,1.776,1.776,0,0,0,.6-.6,3.876,3.876,0,0,0,.383-.6c.112-.232.087-.214,0-.407s.03-.169.024-.44.039-.271.16-.359.136-.184.048-.247-.03.081-.145.2-.624-.232-.76-.35-.048-.184-.169-.374-.271.015-.446-.03-.169-.3-.265-.51-.407-.329-.745-.425-.5-.232-.543-.446,0-.271-.081-.407a.79.79,0,0,1-.175-.528.323.323,0,0,0-.2-.377Zm-4.17-.042a.109.109,0,0,0,0-.217c-.163-.024-.145.193,0,.2Zm3.281,8.216c-.277-.03-.223.075-.106.181s.042.139.235.3.341.021.534-.084a.9.9,0,0,0,.395-.329c.139-.2-.054-.124-.235-.066a2.366,2.366,0,0,1-.82,0Zm1.14-.214c.106,0,.087-.13-.021-.13s-.093.112,0,.112ZM15.531,59.482c-.13,1.022-.214,2.714-.084,1.96a19.9,19.9,0,0,1,.639-2.132c.084-.341-.226-.461-.323-1.324C15.763,57.99,15.657,58.46,15.531,59.482Z" transform="translate(-16.004 -34.037)" fill="url(#g)"/><ellipse cx="21.894" cy="18.827" rx="21.894" ry="18.827" transform="translate(6.522 -1.689)" fill="url(#h)" style="mix-blend-mode:screen;isolation:isolate"/><path d="M77.4,68.114c0,10.568-14.214,19.132-31.753,19.132s-31.75-8.569-31.75-19.132S28.106,48.982,45.645,48.982,77.4,57.548,77.4,68.114Z" transform="translate(-17.453 -19.3)" fill="url(#i)" style="mix-blend-mode:multiply;isolation:isolate"/></g><path d="M372.25,3.124H0V-1.061H372.25Z" transform="translate(42.893 19.322)" fill="#1e2971"/><path d="M4.474,21.813.1,34.088a1.689,1.689,0,0,0,1.592,2.255H37.469a1.68,1.68,0,0,0,.413-.051c1.122-.28,6.359-1.737,8.02-4.921,1.577-3.036-3.679-7.87-5.292-9.251a1.664,1.664,0,0,0-1.04-.395L6.1,20.7a1.689,1.689,0,0,0-1.643,1.122Z" transform="translate(0 -10.02)" fill="#1d2088"/><path d="M252.009,35.917l3.73-10.454a2.584,2.584,0,0,0-2.436-3.452H218.908a2.5,2.5,0,0,0-.63.078c-1.312.338-6.3,1.809-7.915,4.894-1.508,2.889,3.184,7.4,5.032,9.028a2.563,2.563,0,0,0,1.616.633l32.477,1A2.587,2.587,0,0,0,252,35.929Z" transform="translate(204.223 -8.743)" fill="#1d2088"/><g transform="translate(192.025 0)" clip-path="url(#j)"><path d="M115.982,64.1c.128.371-.029.653,0,.936.019.133,0,.291.165.341s.227-.091.291-.208a27.088,27.088,0,0,1,2.1-3.175c.437-.56.768-1.2,1.458-1.482.373-.147.706-.387,1.066-.547a5.162,5.162,0,0,0,2.306-2.767,10.858,10.858,0,0,1,1.893-2.434,7.755,7.755,0,0,1,2.914-2.023,8.1,8.1,0,0,0,1.866-1.245c1.938-1.432,3.6-3.218,5.663-4.5a6.573,6.573,0,0,0,1.1-.936,1.533,1.533,0,0,0,.477-1.557,5.647,5.647,0,0,1-.157-2.231.907.907,0,0,1,.165-.485c.08-.088.16-.187.291-.136s.1.147.1.248a1.729,1.729,0,0,0,.067.688c.045.112.112.211.245.216s.171-.12.224-.224a15.881,15.881,0,0,0,1.2-4.442,13.936,13.936,0,0,1,1.261-3.954c.421-.821.707-1.712,1.1-2.549,1.312-2.767,2.53-5.6,3.756-8.4a1.421,1.421,0,0,1,1.21-1.866A1.927,1.927,0,0,0,147.7,21a.8.8,0,0,1,.357-.184,10.95,10.95,0,0,1,5.583.091,8.014,8.014,0,0,1,3.239,2.253,16.416,16.416,0,0,0,1.893,2.186,1.842,1.842,0,0,1,.349,2.33c-.8,1.981-1.6,3.948-2.477,5.9a16.926,16.926,0,0,1-6.23,7.646A20.477,20.477,0,0,1,146.27,43.3c-1.154.416-2.3.874-3.466,1.3-.291.112-.437.363-.645.563-2.354,2.319-4.628,4.711-7.161,6.868a25.415,25.415,0,0,1-8.563,9.032,18.863,18.863,0,0,1-2.594,3.818c-.365.552-1.008.84-1.386,1.389-.507.728-.744,1.6-1.176,2.37a8.811,8.811,0,0,1-.981,1.538c-.866,1-1.573,2.133-2.5,3.09a12.932,12.932,0,0,1-1.24,1.285c-1.333,1.042-2.511,2.29-3.887,3.292a1.941,1.941,0,0,0-.85.994c-.067.237-.24.213-.416.192a37.38,37.38,0,0,1-4.226-.648,33.881,33.881,0,0,0-7.755-.9c-.962,0-1.392-.117-1.568-.837a6.2,6.2,0,0,0-.584-1.333,1.832,1.832,0,0,1-.112-1.866,19.659,19.659,0,0,0,1.6-4.716,8,8,0,0,1,.816-1.714.773.773,0,0,1,.453-.336,2.485,2.485,0,0,0,1.258-.96,6.985,6.985,0,0,1,1.621-1.3,16.123,16.123,0,0,0,2.767-2.426c.173-.171-.051-.981-.323-1.178s-.445.075-.621.232a18.032,18.032,0,0,1-2.591,1.842c-.1.059-.208.171-.307.069a.267.267,0,0,1,.029-.373c.944-.933,1.333-2.373,2.738-2.9a1.536,1.536,0,0,0,.752-.922c.059-.133.16-.309.341-.243s.075.237.064.363c-.024.267,0,.533.283.637s.352-.179.509-.3a4.647,4.647,0,0,0,1.165-1.992c.245-.56.4-1.218.648-1.818a5.1,5.1,0,0,1,.557-1.01,2.448,2.448,0,0,0,.451-2.029,1.575,1.575,0,0,1,.067-.97,7.862,7.862,0,0,0,.437-1.917,12.2,12.2,0,0,1,1.208-2.981c.224-.48.821-.693,1.165-1.165a13.067,13.067,0,0,0,1.64-3.042c.411-1.1.986-2.133,1.458-3.2.592-1.37,1.394-2.629,2.05-3.967a5.561,5.561,0,0,1,1.021-2.8,2.333,2.333,0,0,1,.821-.933c.616-.373.632-.592.115-1.109-.083-.083-.171-.155-.267-.237-.349-.347-.309-.512.173-.677.368-.123.944-.3.819-.643-.16-.437-.664,0-1.021.029a.866.866,0,0,0-.57.379,7.339,7.339,0,0,1-1.432,1.506.784.784,0,0,0-.253.568c-.016.125,0,.309-.171.317s-.216-.147-.291-.267a1.733,1.733,0,0,1,.437-1.866c1.034-1.165,2.1-2.287,3.106-3.466a8.377,8.377,0,0,0,1.77-3.81,5,5,0,0,1,1.008-2.311,27.108,27.108,0,0,1,2.578-8.027,33.055,33.055,0,0,1,4.084-6.244,12.4,12.4,0,0,0,1.368-1.962c.826-1.5,1.264-1.866,2.4-1.37a3.8,3.8,0,0,0,1.226.325,6.545,6.545,0,0,1,5.3,3.6,2.449,2.449,0,0,0,.584,1.434c.842.834.627,1.376-.24,2.373-.267.307-.475.648-.714.968-.5.674-.914,1.4-1.4,2.09-.728,1.034-1.437,2.087-2.2,3.1a19.872,19.872,0,0,1-2.157,2.527c-.632.605-1.2,1.333-1.791,1.991s-1.354,1.264-2.029,1.893a43.95,43.95,0,0,0-5.065,5.271,3.266,3.266,0,0,0-1.373,1.528c-.211.632-.752,1.066-1.005,1.674a24.527,24.527,0,0,1-2.426,4.044,18.8,18.8,0,0,0-2.186,5.5c-.5,1.842-.754,3.732-1.242,5.58-.187.706-.515,1.365-.746,2.058a26.124,26.124,0,0,0-.728,4.308,17.428,17.428,0,0,1-1.586,5.886,46.238,46.238,0,0,1-1.909,4.316c-.208.419-.533.768-.738,1.165a12.743,12.743,0,0,0-1.7,4.079c-.067.469.085.64.533.648a2.61,2.61,0,0,0,1.6-.693c1.616-1.224,3.263-2.4,4.841-3.788Z" transform="translate(-90.599 -3.031)" fill="url(#k)"/></g><path d="M33.613-2.122A35.679,35.679,0,1,1,19.707.682a35.679,35.679,0,0,1,13.906-2.8Zm0,63.129A27.381,27.381,0,1,0,14.261,52.99a27.381,27.381,0,0,0,19.352,8.017Z" transform="translate(25.909 31.159)" fill="#1e2971"/></g><path d="M-160.913-30.377c1.221,1.036,1.517,2.109,1.7,4.625a2.18,2.18,0,0,0,2.22,2.22,2.718,2.718,0,0,0,2.7-2.96c0-2.442-2.553-4.07-6.512-4.181C-161.024-30.673-161.1-30.525-160.913-30.377Zm.851,16.095A2.62,2.62,0,0,0-157.4-17.2c0-2-2.22-3.811-6.179-3.774-.222,0-.259.148-.111.3a5.215,5.215,0,0,1,1.517,4.07C-162.134-15.133-161.357-14.282-160.062-14.282Zm4.218,5.661c.629-3.663,2.183-11.174,3.885-19.2.037-.222-.333-.333-.407-.111-2.775,8.029-5.143,14.319-7.03,18.944-.518,1.258-.962,2-2.072,2-.37,0-.888-.037-1.369-.074-.222,0-.259.37-.037.444,2.072.777,2.96,2.072,2.96,3.515,0,1.073-.222,2.923-.222,3.774,0,1.406.74,2.442,2.664,2.442,2.035,0,3.293-1.184,3.293-2.923,0-1.887-1.85-4.033-1.85-6.142A14.078,14.078,0,0,1-155.844-8.621ZM-139.49-22.2v-6.586c1-.555,1.369-.814,1.369-1.221,0-.518-.444-.888-6.105-1.406A90.265,90.265,0,0,1-144-22.2h-2.923c-.407-.37-1.739-.777-5.106-1.406.148,1.739.148,3.219.148,5.476,0,3.959-.3,7.807-.3,8.621,0,.925.259,1.3,1.591,1.3,1.961,0,2.849-.444,2.849-1.48v-1.221h3.7C-144.115-1.369-144.3,1.332-144.3,2c0,1.184.333,1.332,1.961,1.332,2.072,0,3.071-.481,3.071-1.554,0-.629-.148-3.145-.222-12.691h4v1.073c0,1.147.37,1.406,2,1.406,2.035,0,2.886-.481,2.886-1.517,0-.777-.259-4.588-.259-8.51v-1.258c1.036-.851,1.184-1,1.184-1.332,0-.37-.148-.555-1.739-1.85-1.554-1.258-1.776-1.332-2.146-1.332-.333,0-.481.111-2.331,2.035Zm0,10.545v-9.8h4v9.8Zm-8.251,0v-9.4c.333-.185.592-.3.74-.407h3v5.439l-.037,4.366Zm25.974-12.432c1.184.814,1.739,2.553,1.924,4.625.111,1.258.592,2,1.85,2a2.263,2.263,0,0,0,2.183-2.4,3.7,3.7,0,0,0-1.554-3.034c1.48-1.739,2.812-3.367,4.218-5.069,1.369-.37,1.628-.555,1.628-1.147,0-.555-.555-.925-5.365-2.331a15.381,15.381,0,0,1-.222,1.7c-.481,2.479-.888,4.255-1.406,6.142a9.2,9.2,0,0,0-3.071-.851C-121.8-24.494-121.952-24.2-121.767-24.087ZM-112.7-9.324c.74.851,1.036,2.146.962,4.7-.037,1.443.629,2.072,1.591,2.072,1.184,0,2.072-.814,2.072-2.59,0-1.961-1.591-3.885-4.625-4.736V-12.4c.444-.333.592-.518.592-.814,0-.111-.037-.222-.3-.3l.814-.3v.7c-.037,1.406.629,2.072,1.628,2.072a2.148,2.148,0,0,0,2.146-2.442c0-2.109-1.85-3.922-4.884-4.662-.222-.037-.37.185-.222.333a4.486,4.486,0,0,1,1.258,2.923c-1.48.037-2.664.037-3.885,0,2.183-2.664,3.774-4.7,5.661-7.363,1.147-.259,1.517-.444,1.517-.888,0-.518-.333-.814-4.625-2.59a24.8,24.8,0,0,1-.777,2.405c-1.295,3.552-2.257,5.994-3.33,8.4-.74,0-1.554-.037-2.442-.074s-1.924-.111-2.812-.185c1.48,4.736,1.628,5.032,2.146,5.032.259,0,.407-.185.814-1.036,1.073-.333,2.035-.666,2.96-.962v3.922a27.461,27.461,0,0,0-3.811-1.48,20.055,20.055,0,0,1-.148,2.331,35.214,35.214,0,0,1-1.85,8.991c-.111.185.185.37.333.222a25.748,25.748,0,0,0,4.847-8.7,3.966,3.966,0,0,0,.629-.222c-.037,4.366-.185,8.214-.185,9.028,0,1.036.3,1.406,1.48,1.406,2.22,0,2.627-.7,2.627-1.739,0-.814-.185-4.551-.185-8.621Zm16.28,3.33h3.478v.444c0,1.147.3,1.369,1.406,1.369,2.183,0,2.96-.7,2.96-1.776,0-.814-.222-3.737-.222-5.735v-1.147c1.11-.888,1.184-1,1.184-1.332,0-.37-.185-.592-1.554-1.7-1.776-1.406-1.924-1.443-2.294-1.443-.333,0-.481.111-2,1.776h-2.96v-4.107h2.664v.259c0,.925.333,1.184,1.48,1.184,1.776,0,2.923-.444,2.923-1.665,0-.925-.222-3.774-.222-5.217v-2.035c.777-.555.851-.666.851-.962s-.074-.481-1.369-1.443c-1.739-1.3-1.85-1.332-2.22-1.332s-.481.074-1.85,1.739h-8.14c-.407-.333-1.48-.7-4.514-1.554.111,1.221.111,2.331.111,5.365,0,2.775-.185,6.142-.185,6.882,0,.925.148,1.073,1.221,1.073,1.924,0,2.775-.222,2.775-1.3v-1h2.479v4.107h-2.553c-.333-.37-1.369-.7-4.625-1.48.148,2.183.185,3.552.185,5.846,0,2.775-.185,5.661-.185,6.253,0,1.147.259,1.369,1.554,1.369,1.591,0,2.4-.481,2.4-1.924v-.518h3.145c-.037,3.293-.074,4.921-.074,5.4,0,2.849,1.073,3.478,6.808,3.478,6.4,0,7.4-.851,7.4-2.405a2.971,2.971,0,0,0-.555-1.628A2.659,2.659,0,0,1-87.32-2.96a25.708,25.708,0,0,1,.37-2.7c.037-.222-.185-.259-.3-.074a19.261,19.261,0,0,1-1.813,3.108c-.888,1.221-1.628,1.369-4.773,1.369-2.331,0-2.59-.185-2.59-1.295Zm-7.215-.74V-10.4h3.182l-.037,3.663Zm3.182-4.4h-3.182v-3.108a2.217,2.217,0,0,0,.666-.555h2.553Zm7.511-3.663v3.663h-3.478V-14.8Zm-3.478,8.066V-10.4h3.478v3.663ZM-102.9-24.013h2.479v3.626H-102.9Zm2.442-4.366c.037.555.037,1.48.037,3.626H-102.9v-3.182a2.8,2.8,0,0,0,.629-.444Zm6.7,0v3.626h-2.664v-2.886c.444-.3.555-.407.555-.74Zm-2.664,7.992v-3.626h2.664v3.626Zm38.739-10.471a3.73,3.73,0,0,1,1.517,2.886c.111,1.369.7,1.961,1.85,1.961a2.077,2.077,0,0,0,2.183-2.257c0-2.146-2.738-3.034-5.4-2.923C-57.757-31.191-57.868-30.969-57.683-30.858Zm11.359,5.217c.259-.037.407-.185.407-.407,0-.259-.148-.407-1.591-1.517-1.628-1.258-1.739-1.258-2.109-1.258-.3,0-.407.074-2.294,3.256l-5.994.851a15.816,15.816,0,0,1-1.147-3.922c.814-.37,1.073-.592,1.073-1.11,0-.444-.814-1.036-5.957-1.11a23.352,23.352,0,0,1,.851,3.441,21.391,21.391,0,0,0,.925,3.293l-1.739.259c-.777.111-2.627.3-4.588.37l.629,1.221a35.049,35.049,0,0,1,4.033-.851l1.961-.3a16.987,16.987,0,0,0,2.516,4.181,14.189,14.189,0,0,0,3,2.553l-.407.444H-67.969c-.259-.259-1.073-.555-3.441-1.11,1.073-.185,1.665-.592,1.665-1.369,0-.37-.037-1.591-.037-2.738V-23.9c.925-.37,1.073-.592,1.073-.851s-.333-.555-1.591-.777c.814-.851,1.554-1.7,2.257-2.59,1.332-.222,1.517-.444,1.517-.888s-.555-.851-5.476-2.442a20.1,20.1,0,0,1-.925,2.257c-2.4,4.884-5.55,8.843-7.585,10.434-.185.148.074.407.259.333A30.251,30.251,0,0,0-74-22.2l-.037.592c-.074,1.147-.222,2.664-.222,3.4,0,.629.37.851,1.073.888.111,1.591.111,3.478.111,6.549,0,2.553-.222,5.809-.222,6.956,0,.962.222,1.3,1.628,1.3,1.887,0,2.775-.407,2.96-1.406h.74a6.811,6.811,0,0,1-.962,1.036A27.513,27.513,0,0,1-79.846,2.923c-.222.037-.148.37.074.37A39.5,39.5,0,0,0-65.083-.185c1.48,0,1.887-.222,1.887-.7s-.3-.777-4.181-3.034H-56.5c.037.481.111.777.37.962-1.517-.148-3.367-.185-5.587-.185-.222,0-.259.407-.037.444a21.018,21.018,0,0,1,9.176,4.773c1.036.962,1.7,1.406,2.7,1.406a2.181,2.181,0,0,0,2.257-2.183c0-1.517-1.443-2.923-4.44-3.663-.666-.148-1.406-.3-2.257-.407,1.961-.074,2.664-.592,2.664-1.665,0-.925-.259-3.737-.259-7.067v-2.146a8.947,8.947,0,0,0,.925-.814,14.262,14.262,0,0,0,2.442.222c1.776,0,2.664-.814,2.664-2.146a2.048,2.048,0,0,0-.666-1.48,1.882,1.882,0,0,1-.777-1.554,18.167,18.167,0,0,1,.592-3.478c.037-.222-.185-.333-.3-.148-2,3.367-2.7,3.922-3.589,3.922a5.168,5.168,0,0,1-1.443-.259,8.977,8.977,0,0,1-4.366-3.034,8.3,8.3,0,0,1-1.147-1.591ZM-68.672-12.4v-2.627a2.194,2.194,0,0,0,.666-.481H-56.5V-12.4Zm0,3.848v-3.108H-56.5v3.108Zm0,.74H-56.5v3.145H-68.672Zm38.739-9.8,9.916-3.145c.259-.074.333-.185.333-.481,0-.259-.3-.444-1.887-1.332-1.813-1.036-2.035-1.073-2.294-1.073s-.333.222-1.924,3.885l-4.144,1.332v-8.251c1.11-.407,1.554-.7,1.554-1.258s-.962-.962-5.883-1.665c.185,1.665.185,3.034.185,9.842v2.627l-.814.259c-1.073.333-2.479.74-4.144,1.11l.74,1.036a35.58,35.58,0,0,1,3.626-1.406l.592-.185c-.037,4.366-.148,7.326-.148,8.288,0,3.4,1.258,4.218,5.291,4.218,5.513,0,7.215-1,7.215-2.886a2.21,2.21,0,0,0-.7-1.739c-.481-.592-.518-.888-.481-2.109.037-.851.111-1.739.259-3.4.037-.222-.185-.259-.3-.074a37.1,37.1,0,0,1-2.183,4.181A3.632,3.632,0,0,1-28.6-8.251c-1.073,0-1.332-.259-1.332-1.295Zm9.583-8.732a39.764,39.764,0,0,1-4.255-.259l.37,1.258A36,36,0,0,1-20.35-25.6h1.406c.259,10.1-.333,15.244-1.924,19.055a17.411,17.411,0,0,1-9.953,9.361c-.222.074-.111.444.111.407,5.735-1.11,10.767-4.4,13.135-8.251,2.368-3.811,3.515-8.88,3.478-19.647.74-.3.962-.555.962-.925h3.071c.037,11.84-.518,18.278-1,20.535-.518,2.516-1.295,3.034-2.405,3.182a19.709,19.709,0,0,1-4.255-.037c-.222,0-.222.333,0,.407,2.479.851,3.367,2.22,3.737,3.663.185.74.592,1.036,1.48,1.036,2.96,0,4.7-1.813,5.587-4.514,1.073-3.293,1.332-7.992,1.48-22.681.925-.7,1.073-.925,1.073-1.221,0-.333-.111-.592-1.443-1.7-1.7-1.443-1.924-1.48-2.294-1.48-.333,0-.518.111-2.294,2.072Zm37.925,2.516c1.258-1.369,2.294-2.627,3.774-4.366,1.332-.518,1.591-.74,1.591-1.3,0-.518-.259-.851-6.7-2.072,0,.7-.037,1.443-.074,1.887-.185,2.257-.444,4.033-.74,5.846h-.74c-.3-.481-1.443-1-5.587-1.924.148,2.183.148,3.663.148,13.061,0,9.62-.148,13.838-.148,14.43,0,1.147.333,1.369,1.887,1.369,2.109,0,3.034-.481,3.034-1.924V-.259H27.417V1.406c0,1.147.3,1.369,1.924,1.369,2.516,0,3.367-.7,3.367-1.776,0-.814-.222-3.959-.222-17.871V-21.5c1.147-1,1.221-1.073,1.221-1.443s-.074-.518-1.887-1.924-2-1.48-2.442-1.48c-.37,0-.518.074-2.516,2.516ZM14.023-1V-8.14H27.417V-1ZM27.417-15.614V-8.88H14.023v-6.734Zm0-7.474v6.734H14.023v-6.179a2.217,2.217,0,0,0,.666-.555ZM70.67-28.379c1.147.629,1.591,1.406,2.146,3.293.407,1.443,1.073,1.924,2.072,1.924a2.187,2.187,0,0,0,2.146-2.22c0-1.924-2.109-3.626-6.29-3.33C70.522-28.712,70.485-28.49,70.67-28.379ZM50.949-6.7a5.254,5.254,0,0,1-2.7,5.106A2.5,2.5,0,0,0,46.879.74a2.326,2.326,0,0,0,2.4,2.294c2.368,0,3.848-1.628,3.848-4.181a9.746,9.746,0,0,0-1.776-5.7C51.245-7.03,50.949-6.919,50.949-6.7Zm5.143.962c-.222-.074-.444.148-.3.3,1.11,1.258,1.147,3.515.962,4.884-.037.407-.111.888-.111,1.258a2.069,2.069,0,0,0,2.22,2.183A2.765,2.765,0,0,0,61.642-.185C61.642-2.257,60.088-4.588,56.092-5.735Zm6.882-.407c-.222-.037-.407.148-.259.3,1.85,1.739,2.109,3.626,2.146,6.179a2.218,2.218,0,0,0,2.368,2.442A2.779,2.779,0,0,0,69.893-.259C69.893-2.664,67.932-5.18,62.974-6.142Zm7.141.148c-.222,0-.407.259-.222.37A7.921,7.921,0,0,1,73.741.555a2.338,2.338,0,0,0,2.442,2.331,2.764,2.764,0,0,0,2.775-3C78.958-3.33,75.961-5.587,70.115-5.994Zm9.361-13.69a.361.361,0,0,0,.407-.37c0-.222-.074-.333-1.184-1.443-1.887-1.924-2.035-1.961-2.331-1.961s-.37.037-2.479,3.034H69.6c.074-.777.148-1.591.148-2.4.037-2.664.111-4.181.111-5.883,1-.481,1.184-.74,1.184-1.147,0-.518-.407-.962-5.55-1.517.111,1.221.185,2.664.185,6.438a34.686,34.686,0,0,1-.3,4.514H62.308c.333-.777.666-1.591.962-2.442,1.295-.925,1.369-1.036,1.369-1.332,0-.37-.111-.592-1.628-1.813-1.7-1.369-1.887-1.48-2.257-1.48s-.555.148-2.405,2.331H55.2c.666-1,1.3-2.035,1.85-3.071,1.147-.333,1.332-.481,1.332-.925,0-.481-.666-.851-6.031-2.257a10.588,10.588,0,0,1-.407,2.368c-1.221,5.365-4.218,11.063-6.734,13.653-.148.148.074.37.259.259a26.107,26.107,0,0,0,3.7-2.923,3.344,3.344,0,0,1,1.11,2.368,8.779,8.779,0,0,1,.111,1.665,1.651,1.651,0,0,0,1.776,1.7,1.814,1.814,0,0,0,1.184-.444A24.825,24.825,0,0,1,45.14-5.846c-.185.111-.037.407.185.333a25.957,25.957,0,0,0,16.65-14.171h3.293C64.158-12.8,60.717-8.066,55.019-6.253c-.222.074-.111.444.111.407,7.918-1.3,13.135-5.994,14.356-13.838h.074c-.185,4.292.555,6.771,1.443,8.584a11,11,0,0,0,4.181,4.773,2.03,2.03,0,0,0,1.073.407.737.737,0,0,0,.629-.407,7.256,7.256,0,0,1,3.478-3.256c.222-.074.259-.259.037-.333a20.067,20.067,0,0,1-6.512-3.7c-2.479-2.22-3.626-3.885-4-6.068Zm-29.933,1.3a41.623,41.623,0,0,0,3.219-3.478,2.328,2.328,0,0,1,.925,1.665,8.475,8.475,0,0,1,.111,1.443A1.377,1.377,0,0,0,55.315-17.2a1.636,1.636,0,0,0,.888-.259,31.445,31.445,0,0,1-2.146,3.7,2.825,2.825,0,0,0,.185-1C54.242-16.5,52.466-18.093,49.543-18.389Zm9.213-6.031a39.69,39.69,0,0,1-1.48,4.477c-.222-1.3-1.628-2.294-4.144-2.405.555-.666,1.073-1.369,1.554-2.072Zm61.864,3.515a.322.322,0,0,0,.37-.333c0-.333-.185-.518-1.517-1.85-1.961-2-2.072-2.035-2.442-2.035s-.444.074-2.96,3.478h-3.663v-7.178c1.147-.518,1.48-.777,1.48-1.221,0-.592-.666-.925-6.142-1.3a48.938,48.938,0,0,1,.3,6.586v3.108h-4.366a35.432,35.432,0,0,1-4.144-.259l.37,1.258a23.382,23.382,0,0,1,3.774-.259h2.22C102.638-14.8,99.345-7.326,96.274-4.033V-18.685c.925-.37,1.147-.629,1.147-.962,0-.407-.407-.74-2.553-1.554a50.727,50.727,0,0,0,3.589-6.142c1.332-.37,1.665-.666,1.665-1.184,0-.481-.666-.962-5.735-2.886a24.166,24.166,0,0,1-.851,3.552c-2.183,6.771-4.884,12.654-6.734,15.1-.148.185.148.444.333.3a31.876,31.876,0,0,0,4.847-4.884l-.111,10.8c-.074,5.143-.222,7.659-.222,8.621s.222,1.258,1.628,1.258c2,0,3.071-.555,3.071-1.591,0-.629-.037-1.813-.037-5.143a28.9,28.9,0,0,0,9.805-11.211l-.148,8.177h-.925a31.7,31.7,0,0,1-4.4-.259l.37,1.258a33.793,33.793,0,0,1,4.033-.259h.888c-.074,4.4-.148,6.7-.148,7.585,0,1.073.259,1.369,1.961,1.369,2.257,0,2.886-.481,2.886-1.591,0-.814-.074-2.664-.185-7.363h4c.333,0,.444-.148.444-.407,0-.222-.111-.37-.925-1.443-1.221-1.628-1.332-1.628-1.628-1.628-.259,0-.333.074-1.887,2.738l-.222-14.467h.148a38.575,38.575,0,0,0,3.663,12.358A19.137,19.137,0,0,0,117.7-3.552a1.332,1.332,0,0,0,.851.481,1.059,1.059,0,0,0,.814-.592,7.628,7.628,0,0,1,3.256-3.071c.222-.074.259-.3.074-.407a24.222,24.222,0,0,1-5.476-4.218,24.58,24.58,0,0,1-6.142-9.546Zm9.435,11.618a5.265,5.265,0,0,1-.777,4.477,3.78,3.78,0,0,0-.814,2.294,1.6,1.6,0,0,0,1.591,1.665c1.221,0,2.257-1.073,2.257-2.775A9.7,9.7,0,0,0,130.425-9.4C130.277-9.583,130.018-9.509,130.055-9.287ZM135.568-4.4a4.61,4.61,0,0,0-3.219-4.4c-.222-.074-.333,0-.185.185a4.669,4.669,0,0,1,.777,3.034c-.037.814-.111,1.3-.111,1.7,0,.962.444,1.517,1.147,1.517C134.865-2.368,135.568-3.219,135.568-4.4Zm.407-.888c.111.962.518,1.48,1.184,1.48.888,0,1.443-.7,1.443-1.7,0-1.554-1.036-3.367-4.07-3.885-.222-.037-.37.074-.185.222C135.013-8.621,135.753-7.511,135.975-5.291Zm7.844-13.246c-1.295-1.258-1.406-1.3-1.665-1.3-.3,0-.37.037-2.072,2.331h-.518v-4.884h4.7c.3,0,.444-.111.444-.37,0-.222-.074-.37-1.147-1.406-1.3-1.258-1.406-1.3-1.665-1.3-.3,0-.37.037-2.072,2.331h-.259v-4.181c.518-.148.74-.37.74-.7h4.847a.332.332,0,0,0,.37-.37c0-.222-.037-.333-1.147-1.369-1.443-1.369-1.554-1.406-1.85-1.406-.333,0-.407.074-2.294,2.4h-5.291c-.111-.444-.851-.74-4.736-1.7.148,2.035.148,3.145.148,8.954,0,4.884-.259,9.8-.259,10.545,0,1,.185,1.369,1.443,1.369,1.591,0,2.442-.444,2.479-1.517h6.771c0,.814,0,1.628-.037,2.368-.555-.851-1.85-1.406-4.107-1.406-.222,0-.3.148-.111.259a4.605,4.605,0,0,1,2.331,2.96c.259.74.518.962,1.147.962a.909.909,0,0,0,.555-.185,19.729,19.729,0,0,1-.592,3.293,1.941,1.941,0,0,1-1.665,1.628,27.308,27.308,0,0,1-4.4.111c-.222,0-.222.3,0,.37,1.813.666,2.553,1.517,2.849,2.775.3,1.11.481,1.258,1.369,1.258a5.11,5.11,0,0,0,4.773-3q1.332-2.442,1.665-9.768a5.159,5.159,0,0,0,.925-.925c-.037,1.184-.111,1.776-.111,2.22,0,.925.3,1.073,1.221,1.073,1.48,0,2.331-.3,2.331-1.369v-.7H150.7C149.776-2.553,146.224,1.48,141.266,3c-.222.074-.111.407.111.37,7.067-1,12.136-4.921,13.283-12.543h.111a17.416,17.416,0,0,0,1.406,7.4,11.672,11.672,0,0,0,3.4,4.514,1.1,1.1,0,0,0,.555.185c.3,0,.37-.037.666-.592.962-1.85,1.924-2.96,3.145-3.441a.208.208,0,0,0,0-.407,16.154,16.154,0,0,1-5.7-3.367,10.126,10.126,0,0,1-3-4.292h1.776v.3c0,.925.333,1.184,1.48,1.184,1.591,0,2.7-.444,2.7-1.665,0-.925-.222-2.59-.222-3.922v-.555c1-.814,1.036-.888,1.036-1.184s-.074-.444-1.406-1.48c-1.554-1.221-1.7-1.258-2.035-1.258s-.444.074-1.961,1.961h-1.739v-2.886c.629-.37.777-.555.777-.851h2.035c.259,0,.407-.148.407-.333,0-.222-.074-.333-1-1.332-1.11-1.184-1.221-1.221-1.443-1.221s-.333.037-1.776,2.146h-2.294a28.4,28.4,0,0,1-3.885-.259,26.834,26.834,0,0,0,6.4-7.992,19.651,19.651,0,0,0,3.4,7.252,11.94,11.94,0,0,0,3.219,2.886.808.808,0,0,0,.518.185c.222,0,.333-.111.481-.444a6.377,6.377,0,0,1,2.664-3.293c.185-.111.222-.3,0-.37a20.785,20.785,0,0,1-4.736-2.035A15.97,15.97,0,0,1,154.7-28.86c.777-.148,1.073-.333,1.073-.74,0-.518-.666-.851-5.7-2.109a23.407,23.407,0,0,1-.925,3.589c-1.406,4.218-3.515,8.029-5.143,9.768Zm4.144-.74a28.021,28.021,0,0,1,2.886-.259c.074.74.074,1.739.111,3.737h-1.48c-.37-.333-1.369-.74-4.033-1.369.111,1.221.111,2.109.111,3.959,0,.74,0,1.369-.037,1.887a9.267,9.267,0,0,0-1.221-1.184c-1.406-1.221-1.591-1.3-1.924-1.3-.3,0-.444.074-1.961,1.961h-.851v-4.921h4.958c.3,0,.444-.111.444-.37,0-.185-.037-.3-.666-.925a17.61,17.61,0,0,0,3.33-2.368Zm9.065,4.218v5.143h-2.294a20.662,20.662,0,0,0,.148-2.664v-2.479Zm-8.1,5.143v-4.736a3.773,3.773,0,0,0,.592-.407h1.443v2.146a26.224,26.224,0,0,1-.148,3ZM135.9-23.125h-1.887v-4.44c.3-.185.481-.333.629-.444h1.184c.074.777.074,1.554.074,2.294Zm-1.887,6.364H135.9v4.921h-1.887Zm1.887-.74h-1.887v-4.884H135.9ZM-184.556,35.943c2.368-1,4.181-1.813,6.253-2.849a12.975,12.975,0,0,1,3.441-1.147,1.27,1.27,0,0,0,1.073-1.369c0-.814-.592-1.554-2.368-3.108-1.813-1.591-2.479-1.924-2.849-1.924a1.482,1.482,0,0,0-1.036.37,4.365,4.365,0,0,1-1.369.333c-5.291.629-9.4,1-15.1,1.591-.851.074-1.258.148-2,.148a4.666,4.666,0,0,1-2.738-1.036.761.761,0,0,0-.333-.185c-.111,0-.148.111-.185.3a7.89,7.89,0,0,0-.111,1.369,3.5,3.5,0,0,0,1.258,2.146c1.295,1.3,1.887,1.628,2.442,1.628a2.2,2.2,0,0,0,1.036-.37,6.069,6.069,0,0,1,1.887-.629,101.659,101.659,0,0,1,14.06-1.924c.3,0,.444.074.444.259a1.079,1.079,0,0,1-.222.555,24.437,24.437,0,0,1-4,5A9.616,9.616,0,0,0-187,33.723a6.545,6.545,0,0,0-2.738-1.073c-.333,0-.777.148-1.924.888-.148.111-.222.148-.222.222s.037.111.259.222c1.406.74,1.739,1.184,1.739,1.924a27.656,27.656,0,0,1-1.887,8.325,24.5,24.5,0,0,1-7.1,10.138.264.264,0,0,0-.111.222c0,.111.111.185.259.185a.4.4,0,0,0,.185-.037,21.982,21.982,0,0,0,9.657-8.066A29.33,29.33,0,0,0-185.37,37.9a3.269,3.269,0,0,1,.481-1.11A1.464,1.464,0,0,0-184.556,35.943Zm42.735-9.879c-.3,0-.407.037-.444.148,0,.111.111.185.3.3a8.846,8.846,0,0,1,2.886,3.922c.37.925.888,1.258,1.517,1.258a1.6,1.6,0,0,0,1.739-1.628,3.237,3.237,0,0,0-1.85-2.738A8.537,8.537,0,0,0-141.821,26.064Zm3.663-3.145c-.259,0-.407.037-.407.148,0,.148.074.222.3.333a8.632,8.632,0,0,1,3.071,3.367c.407.851.814,1.221,1.554,1.221a1.544,1.544,0,0,0,1.628-1.665c0-1.036-.518-1.739-1.924-2.516A10.063,10.063,0,0,0-138.158,22.919Zm-9.324,13.468a12.777,12.777,0,0,1,5.069,4.551,3.187,3.187,0,0,0,2.479,1.665,2.392,2.392,0,0,0,2.4-2.479c0-2.627-3.478-4.847-9.953-4.847,0-1.406,0-2.849.037-4.292.037-2.368.3-2.7.518-3.034a1.743,1.743,0,0,0,.37-.925c0-.481-.333-.925-1.7-1.887a5.7,5.7,0,0,0-2.59-1.3,6.045,6.045,0,0,0-2.331.814c-.259.148-.3.185-.3.259,0,.111.074.185.3.3,1.295.74,1.7,1.295,1.739,2.479.037,1.628.037,4.107.037,8.769,0,4.477-.074,9.287-.222,11.1a3.547,3.547,0,0,1-.333,1.48,2.2,2.2,0,0,0-.259.962,5.2,5.2,0,0,0,.666,2.59c.74,1.48,1.517,1.961,2.479,1.961.925,0,1.7-.777,1.7-2.257,0-2.923-.037-5.032-.074-8.769C-147.482,39.976-147.482,38.755-147.482,36.387Zm48.211-7.4c-.3,0-.407.074-.407.185s.111.185.3.3a9.878,9.878,0,0,1,3.145,3.33c.555,1,.888,1.332,1.628,1.332a1.462,1.462,0,0,0,1.443-1.591,2.939,2.939,0,0,0-2-2.627A9.584,9.584,0,0,0-99.271,28.987Zm3-3.034c0,.148.037.185.3.3A7.045,7.045,0,0,1-92.8,29.283c.481.851.814,1.11,1.517,1.11a1.429,1.429,0,0,0,1.443-1.554c0-1.3-.666-1.887-1.961-2.516a7.848,7.848,0,0,0-3.108-.592C-95.941,25.731-96.274,25.842-96.274,25.953Zm5.994,21.5a1.88,1.88,0,0,0,2.109-1.924c0-1.11-1-3.145-3.663-4.588-.222-.074-.555-.185-1.258-.444a75.541,75.541,0,0,1-12.1-7.215,4.912,4.912,0,0,0-2.4-1.073,3.427,3.427,0,0,0-2.22.962c-1.887,1.554-4.181,3.441-7.326,5.883a1.507,1.507,0,0,1-1.036.444,3.144,3.144,0,0,1-1.591-.592c-.259-.148-.259-.148-.333-.148s-.148.074-.185.259a3.193,3.193,0,0,0-.074.925,2.5,2.5,0,0,0,1.184,1.961c1.924,1.554,2.775,1.887,3.478,1.887.555,0,.851-.222,1.591-1.073,2.368-2.7,3.922-4.625,5.661-6.364a2.624,2.624,0,0,1,.962-.74c.37,0,.962.407,1.776,1.11,2.812,2.442,6.179,5.4,8.843,7.4C-93.24,46.858-91.575,47.45-90.28,47.45ZM-64.9,33.242c0-2.664-3.108-4.662-8.214-4.662a11.385,11.385,0,0,0-1.221.074c-.185.037-.259.148-.259.222a.2.2,0,0,0,.111.185,12.046,12.046,0,0,1,4.588,5c.74,1.258,1.369,1.85,2.59,1.85A2.4,2.4,0,0,0-64.9,33.242Zm-4.44,17.723a1.579,1.579,0,0,0,1-.37c.444-.3.851-.629,1.443-1.036C-58.534,43.787-52.614,38.5-47.36,30.5a.222.222,0,0,0,.037-.148.253.253,0,0,0-.259-.259.457.457,0,0,0-.3.148A81.382,81.382,0,0,1-68.635,45.267a5.094,5.094,0,0,1-2.072.592,3.933,3.933,0,0,1-2.405-.851c-.222-.148-.333-.222-.407-.222-.148,0-.185.037-.222.3-.037.481-.074,1.147-.074,1.48a3.064,3.064,0,0,0,.777,1.517,19.04,19.04,0,0,0,2.479,2.405A1.721,1.721,0,0,0-69.338,50.965Zm39.59,3.7a18.53,18.53,0,0,0,9.324-8.4,24.388,24.388,0,0,0,2.4-8.214c1.591-.111,3.145-.185,4.477-.222,1.184,0,2.035,0,3.034.074a25.438,25.438,0,0,0,2.7.222c1.184,0,1.665-.333,1.665-1.221,0-.814-.407-1.332-2.146-2.22a4.811,4.811,0,0,0-2.4-.814,3.393,3.393,0,0,0-1.184.444,5.864,5.864,0,0,1-2.331.518c-1,.074-2.22.222-3.552.37.037-.814.037-1.11.111-1.665a2.163,2.163,0,0,0,.148-.7c0-.666-.185-.925-1.887-1.85a6.612,6.612,0,0,0-.888-.444c1.554-.407,3-.814,4.292-1.3.629-.222,1.48-.518,2.22-.74.7-.222.962-.518.962-1.036s-.37-1.036-2.257-2.22c-1.924-1.184-2.664-1.406-3.108-1.406a3.026,3.026,0,0,0-.777.111c-.222.074-.222.111-.222.185s0,.074.111.222a1.754,1.754,0,0,1,.518,1.073c0,.259-.148.444-.592.74a55.114,55.114,0,0,1-12.913,5.7.248.248,0,0,0-.148.259.253.253,0,0,0,.259.259,81.154,81.154,0,0,0,9.065-1.258,2.97,2.97,0,0,1,.777,2.442c0,.7,0,1.406-.037,2.072-2.479.3-4.921.592-6.919.814a27.584,27.584,0,0,1-3.219.3A4.724,4.724,0,0,1-35,36.128c-.185-.111-.185-.111-.259-.111s-.111.074-.148.185a3.828,3.828,0,0,0-.222.888c0,.222.222.666,1.221,1.628,1.332,1.332,1.887,1.7,2.479,1.7a1.757,1.757,0,0,0,.925-.259,6.009,6.009,0,0,1,2-.666c2.109-.444,4.44-.777,6.7-1.036a29.444,29.444,0,0,1-1.369,6.549c-1.3,3.626-3.737,7.437-6.29,9.287a.222.222,0,0,0-.111.222c0,.074.074.148.259.148Zm49.8-18.648a6.924,6.924,0,0,1-.148-1.369,2.056,2.056,0,0,1,.111-.555,2.031,2.031,0,0,0,.185-.629c0-.444-.555-.814-1.85-1.406a5.461,5.461,0,0,0-2.035-.592,4.263,4.263,0,0,0-2.035,1.184c-.111.111-.222.222-.222.333,0,.185.111.259.407.333,1.3.37,1.517.555,1.887,1.85.333,1.184.666,2.368,1,3.589-1.258.333-2.553.7-3.848,1.036a19.511,19.511,0,0,1-2.368.518A2.791,2.791,0,0,1,9.8,39.828.6.6,0,0,0,9.4,39.68c-.148,0-.185.111-.185.407a2.673,2.673,0,0,0,1.258,2.553c1,.777,1.517,1.073,2.072,1.073a.84.84,0,0,0,.666-.333,1.355,1.355,0,0,1,.592-.37q2.054-.888,4.218-1.665c.7,2.775,1.369,5.513,1.924,8.1a6.679,6.679,0,0,1,.259,1.591,4.386,4.386,0,0,0,.111.888c.666,1.628,1.591,2.7,2.812,2.7a1.41,1.41,0,0,0,1.332-1.554,8.324,8.324,0,0,0-.518-2.664c-.925-3.33-1.887-6.734-2.775-10.138,2-.666,4.033-1.258,5.957-1.813a.55.55,0,0,1,.222-.037c.111,0,.185.037.185.148a.55.55,0,0,1-.037.222,24.6,24.6,0,0,1-2.7,4.7.526.526,0,0,0-.074.222c0,.111.037.222.185.222a.871.871,0,0,0,.3-.074,55.515,55.515,0,0,0,5.291-3.293,8.611,8.611,0,0,1,1.739-.814c.851-.333,1-.555,1-1.147S32.745,37.5,31.3,36.35c-1.406-1.11-2.109-1.517-2.553-1.517-.37,0-.629.3-.888.555a1.8,1.8,0,0,1-.777.518c-2.183.666-4.366,1.3-6.549,1.961Zm52.54,1a9.679,9.679,0,0,0-1.406.111c-.962.111-1.332.148-2.257.222-5.069.333-8.14.555-14.541.888-.777.037-1.517.074-2.4.074a3.546,3.546,0,0,1-2.7-1.036c-.148-.111-.148-.111-.222-.111s-.148.074-.185.259a8.185,8.185,0,0,0-.148,1.406c0,.518.481,1.258,1.813,2.664a3.259,3.259,0,0,0,2,1.258,2.053,2.053,0,0,0,1.073-.3,3.833,3.833,0,0,1,1.85-.481c5.4-.592,11.1-.888,14.356-.888,1.443,0,3.848.037,4.773.037,1.221,0,2.183-.481,2.183-1.628,0-.777-.444-1.443-1.85-2.035A6.869,6.869,0,0,0,72.594,37.016ZM99.456,26.952c-.148,0-.259.037-.259.148,0,.074,0,.074.074.148a10.3,10.3,0,0,1,2.4,6.031c.148,1.517.962,2.183,2.22,2.183a2.5,2.5,0,0,0,2.368-2.7c0-2.886-2.59-5.069-6.7-5.809Zm-1.147,8.436c0-2.96-3.182-5.291-7.215-5.735-.222,0-.3.074-.3.185,0,.074,0,.074.074.148a9.179,9.179,0,0,1,2.775,5.624c.3,1.887,1.147,2.4,2.22,2.4A2.465,2.465,0,0,0,98.309,35.388Zm19.5-4.4c0-.629-.407-1.11-2.109-2.331a8.115,8.115,0,0,0-3.293-1.665,4.56,4.56,0,0,0-1.813.518c-.222.111-.222.148-.222.222s0,.111.222.259c1.11.74,1.517,1.48,1.517,2.035a6.591,6.591,0,0,1-.518,2.442c-4,9.657-8.769,16.28-14.319,21.09a.374.374,0,0,0-.148.259.262.262,0,0,0,.3.259A.535.535,0,0,0,97.68,54c7.067-3.589,12.913-8.695,18.463-20.054a5.633,5.633,0,0,1,1.073-1.7A1.692,1.692,0,0,0,117.808,30.985Zm32.116,4.958c2.368-1,4.181-1.813,6.253-2.849a12.975,12.975,0,0,1,3.441-1.147,1.27,1.27,0,0,0,1.073-1.369c0-.814-.592-1.554-2.368-3.108-1.813-1.591-2.479-1.924-2.849-1.924a1.482,1.482,0,0,0-1.036.37,4.365,4.365,0,0,1-1.369.333c-5.291.629-9.4,1-15.1,1.591-.851.074-1.258.148-2,.148a4.666,4.666,0,0,1-2.738-1.036.761.761,0,0,0-.333-.185c-.111,0-.148.111-.185.3a7.89,7.89,0,0,0-.111,1.369,3.5,3.5,0,0,0,1.258,2.146c1.295,1.3,1.887,1.628,2.442,1.628a2.2,2.2,0,0,0,1.036-.37,6.069,6.069,0,0,1,1.887-.629,101.659,101.659,0,0,1,14.06-1.924c.3,0,.444.074.444.259a1.079,1.079,0,0,1-.222.555,24.437,24.437,0,0,1-4,5,9.616,9.616,0,0,0-2.035-1.369,6.545,6.545,0,0,0-2.738-1.073c-.333,0-.777.148-1.924.888-.148.111-.222.148-.222.222s.037.111.259.222c1.406.74,1.739,1.184,1.739,1.924a27.656,27.656,0,0,1-1.887,8.325,24.5,24.5,0,0,1-7.1,10.138.264.264,0,0,0-.111.222c0,.111.111.185.259.185a.4.4,0,0,0,.185-.037,21.982,21.982,0,0,0,9.657-8.066A29.33,29.33,0,0,0,149.11,37.9a3.269,3.269,0,0,1,.481-1.11A1.464,1.464,0,0,0,149.924,35.943Zm48.1,1.073a9.678,9.678,0,0,0-1.406.111c-.962.111-1.332.148-2.257.222-5.069.333-8.14.555-14.541.888-.777.037-1.517.074-2.4.074a3.546,3.546,0,0,1-2.7-1.036c-.148-.111-.148-.111-.222-.111s-.148.074-.185.259a8.185,8.185,0,0,0-.148,1.406c0,.518.481,1.258,1.813,2.664a3.259,3.259,0,0,0,2,1.258,2.053,2.053,0,0,0,1.073-.3,3.833,3.833,0,0,1,1.85-.481c5.4-.592,11.1-.888,14.356-.888,1.443,0,3.848.037,4.773.037,1.221,0,2.183-.481,2.183-1.628,0-.777-.444-1.443-1.85-2.035A6.869,6.869,0,0,0,198.024,37.016Z" transform="translate(-17160 -5203)" fill="#383838"/><path d="M-164.128-26.634c6.578-.874,13.754-1.472,15.548-1.472.552,0,.736.092.736.46a6.706,6.706,0,0,1-.322,1.794C-151.8-13.57-156.86-5.29-163.576.46c-.184.184-.23.276-.23.414a.314.314,0,0,0,.322.322.567.567,0,0,0,.322-.092c8.832-4.508,15.41-11.316,20.746-25.622a3.215,3.215,0,0,1,1.426-2.024,1.454,1.454,0,0,0,.782-1.334c0-.736-.828-1.656-2.806-3.266-1.84-1.38-2.622-1.84-3.266-1.84a1.557,1.557,0,0,0-1.058.414,3.486,3.486,0,0,1-1.978.736c-4.692.414-10.81.966-17.112,1.564-1.978-1.058-2.622-1.242-3.4-1.242a5.546,5.546,0,0,0-1.656.322c-.276.092-.368.184-.368.276,0,.138,0,.138.276.368A5.56,5.56,0,0,1-169.6-28.06a13.318,13.318,0,0,1,.368,3.266c.046,1.426.046,1.794.046,4.324,0,1.012-.046,1.84-.046,2.254a4.929,4.929,0,0,0,1.334,2.622,2.567,2.567,0,0,0,1.794.874,1.8,1.8,0,0,0,1.564-.782c.46-.552.644-1.2.644-3.128C-163.9-19.412-164.036-22.862-164.128-26.634Zm57.454,2.07c0-3.312-3.864-5.8-10.212-5.8a14.154,14.154,0,0,0-1.518.092c-.23.046-.322.184-.322.276a.253.253,0,0,0,.138.23,14.976,14.976,0,0,1,5.7,6.21c.92,1.564,1.7,2.3,3.22,2.3C-107.64-21.252-106.674-22.816-106.674-24.564Zm-5.52,22.034a1.963,1.963,0,0,0,1.242-.46c.552-.368,1.058-.782,1.794-1.288,10.4-7.176,17.756-13.754,24.288-23.69a.277.277,0,0,0,.046-.184.314.314,0,0,0-.322-.322.568.568,0,0,0-.368.184A101.178,101.178,0,0,1-111.32-9.614a6.333,6.333,0,0,1-2.576.736,4.89,4.89,0,0,1-2.99-1.058c-.276-.184-.414-.276-.506-.276-.184,0-.23.046-.276.368-.046.6-.092,1.426-.092,1.84a3.809,3.809,0,0,0,.966,1.886,23.672,23.672,0,0,0,3.082,2.99A2.14,2.14,0,0,0-112.194-2.53ZM-49.91-14.536c0,2.944.046,7.176.046,8.786,0,.736-.276,1.058-1.242,1.058a29.189,29.189,0,0,1-5.8-.6c-.23,0-.276.092-.276.23,0,.092.046.23.276.368,1.7,1.058,2.622,1.794,3.5,2.438A10.1,10.1,0,0,1-50.83.414,2.184,2.184,0,0,0-48.944,1.7c.782,0,1.886-.368,2.944-1.978A7.622,7.622,0,0,0-44.666-4.37c-.138-2.024-.184-3.312-.368-8.05-.092-2.668-.184-6.026-.23-10.074.966-.046,1.794-.092,2.438-.092,1.288,0,2.714.046,4.186.138,1.38.092,2.576.138,3.266.138a1.409,1.409,0,0,0,1.38-1.564c0-.966-.368-1.656-1.978-2.484a7.266,7.266,0,0,0-3.082-1.058,2.977,2.977,0,0,0-1.472.506,6.848,6.848,0,0,1-2.346.644c-1.334.184-1.7.23-2.392.322v-1.242c0-2.484.092-3.22.552-3.772a1.942,1.942,0,0,0,.506-1.2c0-.6-.414-1.15-2.3-2.484a5.642,5.642,0,0,0-3.128-1.334,7.8,7.8,0,0,0-2.99,1.472c-.23.184-.322.276-.322.368,0,.138.138.184.368.276,1.564.6,2.392,1.2,2.438,2.576l.046,5.888c-2.76.322-5.52.6-8.05.828-3.22.276-5.244.46-6.394.46a5.75,5.75,0,0,1-3.5-1.1.611.611,0,0,0-.322-.138c-.092,0-.138,0-.23.322a5.407,5.407,0,0,0-.23,1.334c0,.644.782,1.518,1.518,2.254,1.472,1.426,2.254,2.024,3.082,2.024a3.319,3.319,0,0,0,1.472-.368,10.324,10.324,0,0,1,2.438-.736c2.254-.414,4.6-.782,6.9-1.1A53.187,53.187,0,0,1-71.024-3.772c-.23.138-.276.23-.276.368,0,.184.092.23.414.23A39.889,39.889,0,0,0-49.818-18.216Zm62.192-5.336a12.032,12.032,0,0,0-1.748.138c-1.2.138-1.656.184-2.806.276-6.3.414-10.12.69-18.078,1.1-.966.046-1.886.092-2.99.092A4.409,4.409,0,0,1-16.7-19.55c-.184-.138-.184-.138-.276-.138s-.184.092-.23.322a10.176,10.176,0,0,0-.184,1.748c0,.644.6,1.564,2.254,3.312a4.051,4.051,0,0,0,2.484,1.564,2.553,2.553,0,0,0,1.334-.368,4.765,4.765,0,0,1,2.3-.6c6.716-.736,13.8-1.1,17.848-1.1,1.794,0,4.784.046,5.934.046,1.518,0,2.714-.6,2.714-2.024,0-.966-.552-1.794-2.3-2.53A8.54,8.54,0,0,0,12.282-19.872ZM39.468-31.6a14.127,14.127,0,0,1,5.244,5.06,3.4,3.4,0,0,0,2.806,1.886,2.769,2.769,0,0,0,2.944-3.082c0-2.99-3.542-4.646-8.74-4.646a18.351,18.351,0,0,0-2.208.138c-.276.046-.368.138-.368.276S39.192-31.74,39.468-31.6Zm6.486,13.616c0-2.806-3.036-4.554-7.82-4.692H37.26a9.7,9.7,0,0,0-2.162.184c-.23.046-.322.138-.322.322,0,.138.092.276.368.414a11.421,11.421,0,0,1,4.738,4.37c1.012,1.61,1.886,2.208,3.266,2.208A2.609,2.609,0,0,0,45.954-17.986ZM43.194-1.334a2.126,2.126,0,0,0,1.564-.644C56.994-9.8,64.768-16.606,71.622-25.852a.415.415,0,0,0,.046-.23.308.308,0,0,0-.276-.322.636.636,0,0,0-.414.23A138.3,138.3,0,0,1,44.3-8.372a5.791,5.791,0,0,1-2.438.736c-.828,0-1.7-.276-3.036-1.656q-.276-.276-.414-.276c-.092,0-.184.138-.23.322a10.5,10.5,0,0,0-.368,2.53c0,.6.46,1.472,1.794,2.9C41.538-1.932,42.274-1.334,43.194-1.334ZM102.9-21.114a8.608,8.608,0,0,1-.184-1.7,2.556,2.556,0,0,1,.138-.69,2.524,2.524,0,0,0,.23-.782c0-.552-.69-1.012-2.3-1.748a6.789,6.789,0,0,0-2.53-.736,5.3,5.3,0,0,0-2.53,1.472c-.138.138-.276.276-.276.414,0,.23.138.322.506.414,1.61.46,1.886.69,2.346,2.3.414,1.472.828,2.944,1.242,4.462-1.564.414-3.174.874-4.784,1.288a24.258,24.258,0,0,1-2.944.644,3.47,3.47,0,0,1-1.656-.6.74.74,0,0,0-.506-.184c-.184,0-.23.138-.23.506a3.324,3.324,0,0,0,1.564,3.174c1.242.966,1.886,1.334,2.576,1.334a1.045,1.045,0,0,0,.828-.414,1.684,1.684,0,0,1,.736-.46q2.553-1.1,5.244-2.07c.874,3.45,1.7,6.854,2.392,10.074a8.3,8.3,0,0,1,.322,1.978,5.452,5.452,0,0,0,.138,1.1c.828,2.024,1.978,3.358,3.5,3.358A1.753,1.753,0,0,0,108.376.092a10.349,10.349,0,0,0-.644-3.312c-1.15-4.14-2.346-8.372-3.45-12.6,2.484-.828,5.014-1.564,7.406-2.254a.684.684,0,0,1,.276-.046c.138,0,.23.046.23.184a.684.684,0,0,1-.046.276,30.579,30.579,0,0,1-3.358,5.842.654.654,0,0,0-.092.276c0,.138.046.276.23.276a1.083,1.083,0,0,0,.368-.092,69.019,69.019,0,0,0,6.578-4.094,10.706,10.706,0,0,1,2.162-1.012c1.058-.414,1.242-.69,1.242-1.426s-.6-1.38-2.392-2.806c-1.748-1.38-2.622-1.886-3.174-1.886-.46,0-.782.368-1.1.69a2.239,2.239,0,0,1-.966.644c-2.714.828-5.428,1.61-8.142,2.438Zm50.324-3.45c0-3.312-3.864-5.8-10.212-5.8a14.155,14.155,0,0,0-1.518.092c-.23.046-.322.184-.322.276a.253.253,0,0,0,.138.23,14.976,14.976,0,0,1,5.7,6.21c.92,1.564,1.7,2.3,3.22,2.3C152.26-21.252,153.226-22.816,153.226-24.564ZM147.706-2.53a1.963,1.963,0,0,0,1.242-.46c.552-.368,1.058-.782,1.794-1.288,10.4-7.176,17.756-13.754,24.288-23.69a.277.277,0,0,0,.046-.184.314.314,0,0,0-.322-.322.568.568,0,0,0-.368.184A101.178,101.178,0,0,1,148.58-9.614,6.333,6.333,0,0,1,146-8.878a4.89,4.89,0,0,1-2.99-1.058c-.276-.184-.414-.276-.506-.276-.184,0-.23.046-.276.368-.046.6-.092,1.426-.092,1.84a3.809,3.809,0,0,0,.966,1.886,23.671,23.671,0,0,0,3.082,2.99A2.14,2.14,0,0,0,147.706-2.53Z" transform="translate(-17160 -4970)" fill="#383838"/></g></g></svg>