<svg xmlns="http://www.w3.org/2000/svg" xmlns:xlink="http://www.w3.org/1999/xlink" viewBox="0 0 400 80"><defs><linearGradient id="a" x1="0.5" y1="1" x2="0.5" gradientUnits="objectBoundingBox"><stop offset="0" stop-color="#1e2971"/><stop offset="0.034" stop-color="#1d357c"/><stop offset="0.125" stop-color="#1c5397"/><stop offset="0.226" stop-color="#1c6bad"/><stop offset="0.34" stop-color="#1b7ebe"/><stop offset="0.475" stop-color="#1b8bca"/><stop offset="0.648" stop-color="#1b92d1"/><stop offset="1" stop-color="#1b95d4"/></linearGradient><radialGradient id="b" cx="0.492" cy="0.477" r="0.5" gradientUnits="objectBoundingBox"><stop offset="0" stop-color="#f7f8f8"/><stop offset="0.351" stop-color="#1b95d4"/><stop offset="1" stop-color="#1e2971"/></radialGradient><clipPath id="e"><path d="M45.41,48.787A14.856,14.856,0,1,1,30.554,33.931,14.856,14.856,0,0,1,45.41,48.787Z" transform="translate(-15.698 -33.931)" fill="none"/></clipPath><radialGradient id="f" cx="0.507" cy="0.486" r="0.491" gradientUnits="objectBoundingBox"><stop offset="0" stop-color="#5eb0e3"/><stop offset="0.23" stop-color="#5eb0e3"/><stop offset="0.397" stop-color="#5aabe0"/><stop offset="0.567" stop-color="#509fd7"/><stop offset="0.739" stop-color="#3f8bca"/><stop offset="0.911" stop-color="#276eb7"/><stop offset="1" stop-color="#195dab"/></radialGradient><radialGradient id="g" cx="0.5" cy="0.5" r="0.483" gradientTransform="translate(-0.038) scale(1.075 1)" gradientUnits="objectBoundingBox"><stop offset="0" stop-color="#c0dd98"/><stop offset="1" stop-color="#93c530"/></radialGradient><radialGradient id="h" cx="0.486" cy="0" r="0.991" gradientTransform="translate(-4.193) scale(0.86 1.125)" gradientUnits="objectBoundingBox"><stop offset="0" stop-color="#fff"/><stop offset="0.086" stop-color="#f7f7f7"/><stop offset="0.218" stop-color="#e2e1e1"/><stop offset="0.379" stop-color="#c0bfbf"/><stop offset="0.563" stop-color="#908e8e"/><stop offset="0.766" stop-color="#535050"/><stop offset="0.983" stop-color="#0a0606"/><stop offset="1" stop-color="#040000"/></radialGradient><radialGradient id="i" cx="0.497" cy="0.978" r="1.139" gradientTransform="translate(0.197) scale(0.603 1)" gradientUnits="objectBoundingBox"><stop offset="0" stop-color="#4875b9"/><stop offset="0.668" stop-color="#fff"/></radialGradient><clipPath id="j"><ellipse cx="23.166" cy="18.795" rx="23.166" ry="18.795" transform="matrix(0.035, -0.999, 0.999, 0.035, 0, 46.303)" fill="none"/></clipPath><linearGradient id="k" x1="0.915" y1="-0.085" x2="0.398" y2="1.145" gradientUnits="objectBoundingBox"><stop offset="0" stop-color="#1e2971"/><stop offset="0.698" stop-color="#1b95d4"/><stop offset="0.98" stop-color="#fff" stop-opacity="0"/></linearGradient></defs><g transform="translate(22816 5337)"><rect width="400" height="80" transform="translate(-22816 -5337)" fill="#fff"/><path d="M3,3V77H397V3H3M0,0H400V80H0Z" transform="translate(-22816 -5337)" fill="#1ea4d9"/><g transform="translate(-518.562 -42.033)"><path d="M2.764,71.312a1.985,1.985,0,0,1-1.227-3.547c5.211-4.057,15.03-10.144,26.988-10.144,17.937,0,24.108,8.293,48.028,8.293s41.467-8.488,53.232-18.516c6.364-4.821,19.672-17.359,40.118-17.359,19.341,0,43.545,6.907,67.691,35.934a3.158,3.158,0,0,1-2.408,5.187Z" transform="translate(-22287.41 -5298.022)" fill="url(#a)"/><ellipse cx="6.373" cy="6.373" rx="6.373" ry="6.373" transform="translate(-22136.102 -5265.6)" fill="url(#b)"/><ellipse cx="4.821" cy="4.821" rx="4.821" ry="4.821" transform="translate(-22138.602 -5252.862)" fill="url(#b)"/><ellipse cx="3.223" cy="3.223" rx="3.223" ry="3.223" transform="translate(-22146.244 -5246.007)" fill="url(#b)"/><path d="M16.6-2.122A18.685,18.685,0,1,1,9.314-.653,18.685,18.685,0,0,1,16.6-2.122Zm0,33.061a14.34,14.34,0,1,0-10.135-4.2,14.34,14.34,0,0,0,10.135,4.2Z" transform="translate(-22193.961 -5265.894)" fill="#1e2971"/><path d="M70.413,33.5q0,.414-.826.376H68.253q-.532,0-.632.229a5.281,5.281,0,0,0-.1,1.4V59.526q0,2.211-.033,2.582t-.2.374q-.2,0-.464-.461L62.574,54.2q-3.69-6.836-8.98-17.075V60.521a.7.7,0,0,0,.5.692,10.926,10.926,0,0,0,2.25.189q.436,0,.437.335,0,.414-.864.414-.3,0-1.895-.125-.532-.041-1.033-.043.032,0-.581.084a15.305,15.305,0,0,1-1.878.084H50.2q-.766,0-.764-.377T50.1,61.4a5.194,5.194,0,0,0,2.272-.316q.316-.273.316-1.778V38.684q0-3.474-1.131-4.352a3.172,3.172,0,0,0-1.895-.414q-.864,0-.864-.441,0-.4.5-.4.665,0,1.694.084t1.105.079q.1,0,.93-.041a17.623,17.623,0,0,0,2.127-.125l11.467,21.51V36q0-1.295-.033-1.566a.551.551,0,0,0-.265-.414,4.579,4.579,0,0,0-1.6-.147q-1.2,0-1.2-.376,0-.414.79-.414h5.35q.73,0,.731.414Z" transform="translate(-22285.83 -5297.923)" fill="#1e2971"/><path d="M89.114,55.392q0,.167-.066,2.053t-.062,3.588v1.379q-3.258-.251-12.895-.251H71.932q-.632,0-.632-.336a.234.234,0,0,1,.2-.262q.1,0,1.263-.112.864-.084,1.047-.461a6.1,6.1,0,0,0,.183-1.969V35.47q0-1.214-.283-1.446a3.913,3.913,0,0,0-1.811-.231q-.532,0-.532-.355t.731-.355h14.09a9.278,9.278,0,0,0,1.829-.167q.066,1.8.3,4.971l.134,1.8a3.661,3.661,0,0,1,.033.543q0,.414-.3.414-.366,0-.532-1.05-.632-3.79-2.065-4.794-1.064-.756-5.584-.756H77.284V46.326h.789q3.719,0,4.537-.711t1.113-4.131q.066-.876.366-.876.366,0,.366.752t-.066,2.211q-.068,1.462-.068,2.211,0,4.47.1,6.141.025.414.027.711,0,.543-.363.543-.232,0-.316-.355T83.491,50.5q-.251-2.452-1.611-3.043a11.009,11.009,0,0,0-3.109-.251H77.282V61.2a51.183,51.183,0,0,0,8.573-.371q2.193-.619,2.492-5.28.066-1.033.431-1.033.332,0,.333.876Z" transform="translate(-22285.092 -5297.927)" fill="#1e2971"/><path d="M175.905,55.392q0,.167-.066,2.053t-.066,3.594v1.379q-3.258-.251-12.895-.251H158.72q-.632,0-.632-.336a.234.234,0,0,1,.2-.262q.1,0,1.263-.112.864-.084,1.047-.461a6.1,6.1,0,0,0,.183-1.969V35.47q0-1.214-.283-1.446a3.913,3.913,0,0,0-1.811-.231q-.532,0-.532-.355t.731-.355h14.092a9.282,9.282,0,0,0,1.829-.167q.066,1.8.3,4.971l.133,1.8a3.664,3.664,0,0,1,.033.543q0,.414-.3.414-.366,0-.532-1.05-.632-3.79-2.065-4.794-1.064-.756-5.584-.756h-2.724V46.326h.79q3.719,0,4.537-.711t1.113-4.131q.066-.876.366-.876.366,0,.366.752t-.066,2.211q-.068,1.462-.068,2.211,0,4.47.1,6.141.025.414.027.711,0,.543-.363.543-.232,0-.316-.355t-.281-2.318q-.264-2.465-1.622-3.049a11.007,11.007,0,0,0-3.109-.251h-1.489V61.193a51.185,51.185,0,0,0,8.573-.371q2.193-.619,2.492-5.28.066-1.033.431-1.033.332,0,.333.876Z" transform="translate(-22282.246 -5297.927)" fill="#1e2971"/><path d="M197.511,61.855q0,.357-.5.357a3.949,3.949,0,0,1-.6-.041L192.192,62l-4.221.167a2.884,2.884,0,0,1-.5.041q-.665,0-.665-.437,0-.474.9-.474,2.924-.041,2.924-.736a2.986,2.986,0,0,0-.068-.327l-.272-1.105-.171-.583q-.3-1.3-1.461-5.729h-7.106a53.738,53.738,0,0,0-1.991,7.687q0,.586.4.711.1.043,1.661.167.963.043.963.414,0,.418-.864.414-1.528,0-3.556-.167-.5-.041-1.033-.043a3.821,3.821,0,0,0-1.033.139,1.8,1.8,0,0,1-.431.069q-.464,0-.464-.377t1.047-.42a2.694,2.694,0,0,0,1.513-.4,2.479,2.479,0,0,0,.731-1.363q4.284-15.431,6.969-24.779a5.686,5.686,0,0,1,.316-1.105l.145-.752c.066-.316.158-.46.265-.46q.1,0,.166.251.431,1.628,1.963,6.809,1.2,4.054,5.948,20.346a2.023,2.023,0,0,0,.682,1.2,3.948,3.948,0,0,0,1.712.3q.864.041.864.4Zm-9-10-1.792-6.226-1.6-5.8q-1.4,4.622-3.37,12.017h6.759Z" transform="translate(-22281.684 -5297.938)" fill="#1e2971"/><path d="M216.726,33.5q0,.414-.826.376h-1.333q-.532,0-.632.229a5.274,5.274,0,0,0-.1,1.4V59.527q0,2.211-.033,2.582t-.2.374q-.2,0-.464-.461L208.889,54.2Q205.2,47.365,199.9,37.125v23.4a.7.7,0,0,0,.5.692,10.924,10.924,0,0,0,2.25.189q.436,0,.437.335,0,.414-.864.414-.3,0-1.895-.125-.532-.041-1.033-.043.032,0-.581.084a15.3,15.3,0,0,1-1.878.084h-.332q-.766,0-.764-.377t.665-.377a5.193,5.193,0,0,0,2.272-.316Q199,60.808,199,59.3V38.684q0-3.474-1.131-4.352a3.172,3.172,0,0,0-1.895-.414q-.864,0-.864-.441,0-.4.5-.4.665,0,1.694.084t1.1.084q.1,0,.93-.041a17.636,17.636,0,0,0,2.127-.125L212.925,54.6V36.007q0-1.295-.033-1.566a.551.551,0,0,0-.265-.414,4.579,4.579,0,0,0-1.6-.147q-1.2,0-1.2-.376,0-.414.789-.414h5.35q.73,0,.731.414Z" transform="translate(-22281.033 -5297.925)" fill="#1e2971"/><path d="M145,52.811q0-.084-.066,1.127-.133,2.422-.133,4.679,0,.251.066,1.023t.066,1.859v.376c0,.362-.088.543-.265.543s-.333-.207-.464-.632a4.494,4.494,0,0,0-.93-1.8,7.5,7.5,0,0,1-5.749,2.632,9.735,9.735,0,0,1-8.093-4.282,17.512,17.512,0,0,1-3.207-10.8,18.135,18.135,0,0,1,2.943-10.714,8.939,8.939,0,0,1,7.594-4.156,8.428,8.428,0,0,1,2.71.355,10.493,10.493,0,0,1,2.509,1.446,2.225,2.225,0,0,0,1.1.543q.3,0,.565-.668.431-1.169.7-1.17t.267.335a3.554,3.554,0,0,1-.066.543,50.143,50.143,0,0,0-.366,7.52,2.211,2.211,0,0,1-.1.919.316.316,0,0,1-.265.125q-.333,0-.431-.79a16.815,16.815,0,0,0-1.23-4.971,5.369,5.369,0,0,0-5.118-3.343,4.911,4.911,0,0,0-4.254,2.257q-2.825,4.053-2.825,11.864a20.977,20.977,0,0,0,2.321,10.82,6.1,6.1,0,0,0,5.385,3.343,5.164,5.164,0,0,0,3.158-1.064,6.765,6.765,0,0,0,2.193-2.9,19.983,19.983,0,0,0,1.23-4.636q.133-1,.431-1,.332,0,.333.632Z" transform="translate(-22283.295 -5297.938)" fill="#1e2971"/><path d="M166.5,62.973a1.136,1.136,0,0,1,.516-.137.974.974,0,0,1,.717.388,3.009,3.009,0,0,0,.4.03c.418,0,2.053-.076,2.834-.13.109,0,.175-.062.316-.167s.276-.221.338-.221c.207,0,.887.619.839.807-.022.092-.216.158-.316.2-.068.03-.1.084-.158.189a7.712,7.712,0,0,1-5.6,5.007l-.035-.13a8.037,8.037,0,0,0,4.594-5.091l.014-.052c.011-.046.008-.092-.068-.092h-.016c-1.033.046-2.422.281-2.65.3h-.1a.589.589,0,0,1-.352-.115c-.062.243-.207,1.409-.245,1.549-.139.548-.246.8-.567.8s-.549-.42-.445-.826c.025-.1.175-.4.207-.526a3.267,3.267,0,0,0,.1-1.421.5.5,0,0,0-.336-.327l.011-.046Z" transform="translate(-22281.979 -5296.949)" fill="#fff"/><path d="M178.883,63.666a12.028,12.028,0,0,1-5.355,4.545c-.414.2-.436.4-.632.4-.494,0-.993-.8-.886-1.225a.813.813,0,0,1,.354-.526.489.489,0,0,0,.551.534,13.433,13.433,0,0,0,5.871-3.79l.1.062Zm-5.809-.51c1.172,0,2.25.343,2.053,1.15a.79.79,0,0,1-.739.578.474.474,0,0,1-.434-.42,1.882,1.882,0,0,0-.93-1.2l.057-.1Z" transform="translate(-22281.785 -5296.937)" fill="#fff"/><path d="M180.435,65.636a1.143,1.143,0,0,1,1.049-.837.632.632,0,0,1,.632.837,1.143,1.143,0,0,1-1.049.837.632.632,0,0,1-.632-.837Z" transform="translate(-22281.514 -5296.882)" fill="#fff"/><path d="M185.155,63.943c.082.456.273.486.79.486.632,0,1.57-.1,2.141-.158.058-.2.118-.5.145-.632.1-.534.144-.753.033-.826a.741.741,0,0,0-.46-.076.93.93,0,0,1,.706-.388c.474,0,1.061.316.973.67-.044.175-.207.2-.382.73-.022.062-.1.381-.122.45.662-.062.846-.1,1.157-.4.651.1,1.06.327.978.646-.057.229-.347.259-.507.259-.3,0-.6-.052-1.143-.052-.158,0-.373,0-.614.022-.147.548-.257,1.05-.429,1.8-.046.213-.112.534-.185.853-.081.414-.051.562-.088.715-.123.488-.576,1.02-.965,1.02a.273.273,0,0,1-.291-.327c0-.316-.189-.608-.985-1.2l.065-.076a7.3,7.3,0,0,0,1.151.267c.068,0,.1-.022.141-.137.021-.052.387-1.295.474-1.72a10.453,10.453,0,0,1-4.08,2.116l-.041-.084a13.293,13.293,0,0,0,3.79-3.082c-.45.062-.884.129-1.246.207-.327.062-.42.183-.619.183a.758.758,0,0,1-.7-.837.813.813,0,0,1,.268-.434h.044Z" transform="translate(-22281.406 -5296.961)" fill="#fff"/><path d="M193.965,65.939c-.494,0-1.533.046-1.825.084a2.616,2.616,0,0,0-.553.137,1.152,1.152,0,0,1-.357.092.984.984,0,0,1-.79-1.012.845.845,0,0,1,.3-.524h.054c0,.5.573.5,1.105.5h3.2a8.286,8.286,0,0,0,.894-.076h.016c.45.03,1.105.145,1.02.474-.054.213-.341.327-.73.327h-2.32Z" transform="translate(-22281.18 -5296.882)" fill="#fff"/><path d="M197.652,68.7a1.165,1.165,0,0,1-.846-1.172.79.79,0,0,1,.376-.556c.025.381.2.54.474.54a1.209,1.209,0,0,0,.374-.068,13.926,13.926,0,0,0,5.517-3.531l.076.062a11.98,11.98,0,0,1-5.3,4.308,1.293,1.293,0,0,0-.286.167c-.084.062-.189.243-.368.251h-.016Zm-.43-4.063a5.029,5.029,0,0,1,.572-.032c.966,0,1.386.327,1.263.815a.643.643,0,0,1-.654.474c-.221,0-.3-.167-.382-.327a1.873,1.873,0,0,0-.864-.826Zm1.309-1.69c.147,0,.286-.016.423-.016,1.1,0,1.568.335,1.446.837a.606.606,0,0,1-.6.494c-.327,0-.4-.2-.493-.434a1.822,1.822,0,0,0-.834-.8l.066-.084Z" transform="translate(-22280.975 -5296.942)" fill="#fff"/><path d="M204.59,64.377a.715.715,0,0,1,.611-.4c.51,0,.947.158.9.316-.011.046-.126.259-.139.316a6.4,6.4,0,0,0-.052.79c.583-.137,1.165-.273,1.5-.366a.664.664,0,0,0,.316-.158c.117-.1.178-.158.276-.158.167,0,.676.488.632.67-.016.068-.093.1-.246.158a.546.546,0,0,0-.259.158,8.153,8.153,0,0,1-1.606,1.18l-.076-.062a8.429,8.429,0,0,0,1.009-1.437c0-.022,0-.038-.021-.038-.052,0-1.072.3-1.519.441a19.087,19.087,0,0,0,.092,1.993,2.411,2.411,0,0,1,.079.562c-.1.4-.265.632-.619.632-.259,0-.344-.115-.278-.826.025-.316.088-1.285.082-2.17a5.378,5.378,0,0,0-.889.357c-.172.1-.259.213-.395.213a.677.677,0,0,1-.584-.739.729.729,0,0,1,.207-.341h.02c0,.1.011.316.37.316a7.467,7.467,0,0,0,1.263-.234c-.035-1.164-.186-1.194-.437-1.194a.578.578,0,0,0-.216.046l-.011-.022Z" transform="translate(-22280.756 -5296.908)" fill="#fff"/><path d="M216.032,63.666a12.028,12.028,0,0,1-5.355,4.545c-.414.2-.436.4-.632.4-.494,0-.993-.8-.886-1.225a.813.813,0,0,1,.354-.526.489.489,0,0,0,.551.534,13.433,13.433,0,0,0,5.871-3.79l.1.062Zm-5.809-.51c1.172,0,2.25.343,2.053,1.15a.789.789,0,0,1-.739.578.474.474,0,0,1-.434-.42,1.884,1.884,0,0,0-.93-1.2l.057-.1Z" transform="translate(-22280.566 -5296.937)" fill="#fff"/><g transform="translate(-22271.225 -5263.964)" clip-path="url(#e)"><path d="M45.41,48.787A14.856,14.856,0,1,1,30.554,33.931,14.856,14.856,0,0,1,45.41,48.787Z" transform="translate(-15.698 -33.931)" fill="url(#f)"/><path d="M30.552,63.684a14.9,14.9,0,1,1,10.536-4.357A14.9,14.9,0,0,1,30.552,63.684Zm0-29.712A14.816,14.816,0,1,0,41.027,38.31a14.816,14.816,0,0,0-10.476-4.338Z" transform="translate(-15.697 -33.931)" fill="#cde9f2"/><path d="M31.546,33.858c.084.068.022,0,.1,0a.2.2,0,0,1,.134.032c.035.035,0,.049-.019.057-.046.021-.062.035,0,.1a.238.238,0,0,0,.2.092,1.342,1.342,0,0,1,.335.038c.095.033.125.095.062.1s-.079-.028-.082.032.013.055-.123.055a1.82,1.82,0,0,0-.292-.008c-.092.016-.036.068-.129.076a.57.57,0,0,0-.207.032.338.338,0,0,1-.158.038,1.9,1.9,0,0,1-.213-.013c-.073,0-.021.036-.073.032s-.077-.033-.1,0-.025.049-.139.051-.1-.019-.145.016-.095.028-.249.035a.869.869,0,0,1-.275-.039c-.084-.014-.088-.022-.038-.044s.011-.065-.011-.038a.082.082,0,0,1-.1.016c-.032-.014-.027-.028-.021-.057s-.03-.014-.043.019-.046.021-.079.032.025.044-.068.063-.175.025-.172-.069.027-.095-.008-.158-.065-.055-.1-.028-.038-.038-.122-.036-.092,0-.079-.022.076-.035,0-.038a.287.287,0,0,1-.142-.035c-.027-.016-.043-.011-.071.008s-.062-.035-.025-.065.1-.052-.038-.065-.278,0-.082-.092a1.6,1.6,0,0,1,.526-.092,6.17,6.17,0,0,1,1.105-.065c.611,0,.846-.011.93.057Zm1.085.538a.927.927,0,0,0-.259,0,.324.324,0,0,1-.232.046,1.445,1.445,0,0,0-.371.028c-.134.021-.177.016-.24.033s-.077.055.049.092a1.809,1.809,0,0,0,.349.082c.141.016.18-.055.213-.014a.109.109,0,0,0,.122.055.242.242,0,0,1,.141.013.2.2,0,0,0,.141-.014c.046-.016.044-.046,0-.073s-.025-.069.041-.025.073.063.033.09-.016.085.1.058a.715.715,0,0,1,.234-.028c.076,0,.022-.008.1-.044s.109-.014.1-.058-.013-.043-.076-.052-.129-.046-.092-.076.022.008.109.033.136.079.237.055a.148.148,0,0,1,.158.032c.051.052.069.087.128.079s.052-.052.028-.081.019-.051.081-.044.092.041.079.073-.016.032-.068.036-.044.068.047.092.1-.025.126.032.013.068.1.044.07-.068.1-.087.008-.073-.062-.084-.051-.022-.068-.058-.115-.032-.148-.052a1.808,1.808,0,0,0-.171-.115,1.908,1.908,0,0,0-.27-.09c-.112-.047-.1-.058-.207-.051s-.142.039-.062.062.112.039.212.065.158.047.145.079-.052.022-.167-.014a1.264,1.264,0,0,1-.226-.092.283.283,0,0,0-.18-.055.68.68,0,0,0-.2.025l-.1.011Zm.431.414c.055,0,.044-.033,0-.036s-.055.032,0,.032Zm.229-.128c-.043.011-.069.028-.043.065a.069.069,0,0,0,.1,0c.033-.025.081-.025.109-.058s-.016-.063-.088-.033a.613.613,0,0,1-.081.016Zm.051.123c-.036.036-.044.069,0,.088a.1.1,0,0,0,.117-.019c.022-.025.032,0,.073,0s.051-.033.025-.055.019-.016.011-.043-.033-.032-.112-.032a.183.183,0,0,0-.117.052Zm.425.1c.041,0,.008-.022.044-.028s.046-.049-.025-.033S33.723,34.9,33.766,34.908Zm-.158-.088a.017.017,0,1,0,0-.033c-.046,0-.028.024,0,.027Zm.158.171c-.047,0-.028-.022-.081-.025S33.6,35,33.638,35s.022.019.073.039.039-.022.073-.022.052.025.095.058.047.008.069-.011.044-.008.014-.044-.052-.043-.128-.043C33.812,34.976,33.815,34.987,33.766,34.99Zm.316-.065c-.084.014-.055.058.011.065a.743.743,0,0,0,.158.014c.058,0,.062-.036.087-.011s0,.052-.044.062-.016.047-.058.052-.032-.033-.062-.039,0,.039-.033.044-.065-.025-.092,0,.032.044.186.115a1.177,1.177,0,0,0,.259.1c.068.011.062-.058.047-.115s.035-.022.073-.011.036-.039-.008-.073-.065-.044-.044-.055.052.011.1.036.065,0,0-.041-.1-.036-.175-.084-.095-.076-.158-.115-.06-.035-.095,0a.316.316,0,0,1-.158.055ZM35.2,34.81c.046.052.014.1-.109.109a.644.644,0,0,1-.273-.011c-.069-.028-.054-.032-.126-.028s-.1.019-.025.055a.88.88,0,0,0,.207.055c.087.022.174.011.2.092s-.041.1-.128.112-.087.032-.065.134.1.123.24.131a.591.591,0,0,1,.24.069.631.631,0,0,0,.265.058c.145,0,.223.008.117-.058a.98.98,0,0,0-.246-.117c-.065-.019-.032-.033.036-.025s.069,0,.065-.032.028,0,.068.028.058.025.1,0-.014-.044-.028-.079.055,0,.1.062.062.047.134.041.025-.041.036-.073.032.011.069.011.109-.016,0-.079a2.531,2.531,0,0,1-.264-.158c-.1-.073-.065-.065-.139-.139a.5.5,0,0,0-.142-.117c-.055-.032-.019-.1.09-.019a2.582,2.582,0,0,1,.234.229.316.316,0,0,0,.254.109c.131.016.265.028.148.036s-.088,0,.008.095.131.167.036.117-.207-.073-.158.011.076.095,0,.117-.079.079.025.095.128.076.081.1-.1.014-.186,0-.1.058.019.128.12.073.145.158a.267.267,0,0,0,.1.167c.069.069-.022.065-.1.112s-.052.055-.136.073-.028.095-.1.126-.062.1-.207.123-.142.055-.232.09-.051.115-.016.262.039.158.125.215.065.123,0,.174-.013.068.123.1a1.972,1.972,0,0,1,.316.062.316.316,0,0,0,.24,0c.1-.025.131-.019.129.079s-.087.139-.129.081-.077-.039-.12-.013,0,.1,0,.2.051.109.095.1c.073,0,.073-.051.131,0s.076.081.182.04.095-.065.123-.131.013-.128.081-.1.041.069.134.095.158.115.1.2-.073.055-.117.073-.022.065.055.118a.42.42,0,0,1,.158.2c.052.1.1.052.226.136a.537.537,0,0,0,.234.12c.12.032.158-.025.27,0s.087.068.171.065.036-.092.126-.092.044-.052.123-.058.036-.022.112.047a1.665,1.665,0,0,1,.178.234c.065.084.043.055.055.171s.058.12.025.158-.051.043-.025.123.069.1.036.158-.065.047-.055.142.044.087.088.028,0-.068.016-.142a.723.723,0,0,0,0-.145c0-.065.047-.065.025-.158s.025-.112-.008-.2-.054-.081-.058-.174-.055-.092-.084-.207a.769.769,0,0,0-.092-.267c-.051-.073-.025-.052-.115-.084s-.1-.033-.136-.128.016-.136.087-.1.051.058.088.047.025-.043-.032-.117-.079-.092-.036-.1.055-.058-.028-.088-.158-.073-.128-.134.088-.058.115.011.047.073.095-.032.073-.051.073-.115.032-.073.088-.065.025-.019.076-.055.065-.022.172,0a.6.6,0,0,0,.2,0,.6.6,0,0,1,.287.081c.126.069.158,0,.287.069s.158.095.2.068,0-.041-.044-.081-.047-.073.022-.068.115.069.212.126.1.016.193.044.142.039.24.062a.86.86,0,0,0,.267,0,.474.474,0,0,1,.316.158c.068.069,0,.084.158.189a5.184,5.184,0,0,1,.6.482c.229.215.545.488.84.79a6.612,6.612,0,0,0,.524.494c.079.062.054,0-.052-.128s-.505-.6-.807-.924-.556-.557-.76-.764a13.437,13.437,0,0,0-1.115-.981,14.755,14.755,0,0,0-1.36-.938,15.213,15.213,0,0,0-1.393-.79c-.553-.257-1.579-.565-1.99-.731s-.553-.251-.665-.279-.128-.011-.069.032.109.079-.016.035a2,2,0,0,0-.291-.087,1.6,1.6,0,0,0-.237-.025c-.139-.013-.158-.028-.2-.073s.068-.011.115,0,0-.062-.158-.076-.175-.062-.354-.076A3.036,3.036,0,0,1,33.447,34a2.713,2.713,0,0,1-.316-.068.689.689,0,0,0-.215-.039c-.158-.008-.186-.008-.076.033a2.564,2.564,0,0,1,.248.126c.1.047.12.008.158.069s.036.087.087.115.055.039.1.039.051-.025.008-.036,0-.033.084-.014.2.052.09.058-.12.039-.032.058.1,0,.12.033.025.036.087.047a1.184,1.184,0,0,0,.123.032c.068.008.123,0,.218.008a1.183,1.183,0,0,0,.232.019c.079,0,.158-.016.09-.052s-.022-.044.095-.036.158-.014.178.039.016.076-.054.1a.546.546,0,0,1-.3.022,2.036,2.036,0,0,1-.212-.039c-.12-.025-.207-.036-.171.008s.065.032.182.073.073.036.12.073a.534.534,0,0,0,.158.065c.065.025.186-.019.226.013s.032.073.09.062.062-.065.117-.076-.028-.058.084-.065a.283.283,0,0,1,.248.109ZM34.341,37.6a1.215,1.215,0,0,0,.182-.158c.065-.073-.088-.123-.189-.036-.153.142-.036.234.011.194Zm6,.363c.046,0,.013-.051-.088-.079a.608.608,0,0,1-.231-.1c-.071-.055-.109-.035-.068.021a.665.665,0,0,0,.385.158Zm-1.5.763c.084,0-.016-.193-.126-.276s-.088-.069-.068.046c.025.142.109.226.193.231Zm-1.421.158c.126.021.1-.129.021-.134s-.15.109-.021.133Zm1.227,1.009c.049-.025.043-.062-.03-.038s-.021.06.03.035Zm-.043.139c.038.008.025.016.046.1s.041.021.049-.068-.017-.145-.1-.134-.038.088,0,.1Zm-.071.1c-.008.038.025.033.033.084s.033.109.055.033,0-.142-.058-.158c-.025,0-.021,0-.028.033Zm0,.259c.028.008.055-.051.025-.058s-.058.049-.028.057Zm-.046.1c.021.016.03-.035,0-.043s-.025.024,0,.041Zm-.1.112c-.025-.016-.046.008-.016.038s.041-.019.016-.039Zm-.068.142c.046-.021.019-.073-.021-.041s-.025.062.019.041Zm-.1-.055c0-.051-.055-.025-.058.038s0,.068-.025.088.046.043.068-.013A.3.3,0,0,0,38.216,40.681Zm-.183.276c.058-.021.052-.1,0-.088s-.057.107,0,.087Zm-.158.076c.051,0,.022-.069-.013-.055s-.036.057.014.052Zm-.431.134a.028.028,0,1,0,0-.055.026.026,0,1,0,0,.052Zm-.043.117c.043.008.038-.044,0-.038s-.041.028,0,.036Zm-.2-.028c0-.051-.024-.069-.041-.013s.038.062.043.011Zm-.733.038c.063.016.066-.1.013-.092s-.073.074,0,.092Zm.167.051c.038,0,.025-.063-.013-.063s-.022.055.014.062Zm-1.285-.357c-.088-.084-.117-.049-.055.033.12.158.145.049.057-.035Zm-.711-.947c.039.019,0-.055.039-.115s.047-.084.047,0,.019.069.081.052.025-.095.055-.158a.172.172,0,0,1,.267-.041c.1.092.115.068.109,0s.022-.073.051-.207.12-.158.158-.265.065-.073.1-.167.055-.069.171-.065.076-.068-.025-.136a2.517,2.517,0,0,1-.294-.2c-.058-.062-.049-.087-.008-.172s-.014-.09-.087-.158-.028-.1.008-.088.1.047.076-.008.035-.065.1.014.1.039.126-.014.115-.052.169,0,.051.047.158.068.177.036.213,0-.036-.112-.128-.178-.062-.047-.014-.081.044-.1-.054-.142-.117-.084-.257-.079-.148.033-.092.12-.032.011-.12-.068-.158-.041-.335-.079a2.881,2.881,0,0,0-.407,0,2.709,2.709,0,0,0-.553-.022c-.254.016-.3.025-.316.131s-.058.092-.088.019-.112-.044-.136.033-.139.1-.294.115a.292.292,0,0,1-.276-.062.855.855,0,0,0-.24-.131.414.414,0,0,0-.393.068c-.158.092-.172.068-.229,0s-.123-.025-.186-.109a.2.2,0,0,0-.234-.079.763.763,0,0,1-.341-.044c-.125-.032-.158-.055-.1-.062s.087-.011.051-.079-.073-.032-.167-.092-.123.016-.117.12.041.047.014.158-.079.12-.2.158a.388.388,0,0,1-.273.025c-.081-.032-.081-.069-.142,0s-.016.128-.084.126-.134-.043-.174-.2.019-.068.051-.171-.047-.092-.2-.174-.219-.055-.234.039-.092.069-.207.051-.145-.039-.12-.065.052-.047-.047-.084a.99.99,0,0,0-.267-.033c-.1-.011-.095-.082-.016-.095s.062-.052-.019-.069-.027-.088.032-.088a.259.259,0,0,0,.158-.081c.087-.069.044-.158-.033-.215s-.126,0-.215-.016.039-.068.016-.145-.1-.076-.223-.051-.182.109-.316.126-.079-.062-.2-.065-.212.011-.338.014a1.366,1.366,0,0,1-.232,0c-.158-.011-.207.016-.2.1s-.068.062-.174.041-.117-.092-.223-.1-.095,0-.182.126-.1.175-.145.158,0-.058.008-.142,0-.095-.073-.087-.069,0-.014-.058.076-.109,0-.12-.058.084-.183.128-.207.1-.262.073.011-.092.128-.126.158-.025.186-.087,0-.1-.081-.1-.095.058-.237.1-.2-.008-.335.028-.171.069-.291.232-.158.207-.193.134.011-.073.062-.175.062-.092.047-.178.011-.068.073-.148.016-.12-.065-.055a1.625,1.625,0,0,0-.219.212c-.109.118-.171.011-.117-.011s.081-.069.025-.079-.044.039-.09-.039-.117-.076-.032-.095.1-.055,0-.087-.12-.014-.182-.069-.148-.051-.092-.087.088-.019.158-.087.032-.115-.062-.051-.207.039-.316.123-.128.036-.174-.033-.109-.088-.174-.019-.139.123-.178.073.028-.073.092-.142-.036-.069-.1.019-.095.115-.131.084-.019-.058.035-.087.065-.052.158-.115.073-.069.175-.084a.368.368,0,0,0,.223-.095c.095-.069.221-.1.142-.025s-.1.095-.207.2,0,.115.136.1.087-.052.237-.112a1,1,0,0,1,.385-.055c.139,0,.148-.115.259-.158a.96.96,0,0,1,.366-.085c.145,0,.095-.1.025-.158s-.1,0-.158-.014-.073-.025-.158.039-.207.087-.212.028.051-.039.1-.051.022-.081.076-.128.068-.047.112-.011.1-.051.174-.112.068-.1.068-.183.1-.065.044-.139-.158-.022-.267-.019-.189-.055-.343-.011-.27.039-.219,0,.076-.084,0-.092a.764.764,0,0,0-.3.081,2.6,2.6,0,0,0-.363.126c-.175.087-.251.171-.382.223s-.158.013-.33.131-.265.081-.455.24-.044.186-.014.142a.325.325,0,0,1,.158-.131c.114-.065.158-.028.276-.047s.158-.1.251-.158a1.176,1.176,0,0,1,.393-.109c.109-.011.058.008.178.043s.131-.032.232-.043.112.044-.011.112-.109.055-.265.041-.128-.036-.262.008a1.386,1.386,0,0,0-.466.158c-.218.131-.232.175-.265.294s-.145.136-.207.2-.065-.081,0-.158.092-.081.052-.115-.109.011-.257.158-.148.065-.148.065c0-.033.088-.087.142-.145s-.079-.032-.189.044-.193.139-.218.1.062-.095.062-.095c.062-.051.207-.158.287-.22s-.051,0-.632.366a18.768,18.768,0,0,0-2.291,1.778,6.988,6.988,0,0,0-1.017,1.074,5.09,5.09,0,0,0-.573.79c-.055.147.071.041,0,.122a3.357,3.357,0,0,0-.837.963,15.7,15.7,0,0,0-1.172,2.2A14.023,14.023,0,0,0,16,45.013a3.755,3.755,0,0,0-.246,1.077c.033.251.092.2.109.117s.008-.1.041-.021.129.046.158-.068.092-.068.126.008.092.1.109,0,.021-.129.046-.051.055.055.079-.051.068-.109.076-.046.063.008.088-.122.058-.167.088-.1.054.043.079-.068.109-.134.193-.256A.93.93,0,0,0,17,44.886a1,1,0,0,1,.158-.573c.1-.2,0-.18-.088-.063s-.137.193-.193.1a.243.243,0,0,1-.051-.231,1.447,1.447,0,0,1,.158-.34c.058-.129,0-.1,0-.1a1.963,1.963,0,0,1,.092-.259,6.739,6.739,0,0,1,.267-.662c.1-.167.158-.158.088.025a2.943,2.943,0,0,1-.158.393,1.382,1.382,0,0,0-.118.6c-.033.33.046.279.114.231s.076.055-.008.175-.058.18-.033.36.054.139.079.286.147.167.289.365.139.079.147.276a7.23,7.23,0,0,1-.021.748c-.021.316,0,.183-.025.464s.071.294.158.281.112.013.084.142a2.282,2.282,0,0,0-.167.568,6.693,6.693,0,0,0-.114,1.478,10.85,10.85,0,0,0,.066,1.38c.021.264.188.213.2.1s.158-.068.223.084.016.147-.021.516.021.343.139.335.158-.114.134-.335a3.778,3.778,0,0,0-.068-.54,1.24,1.24,0,0,1-.079-.464.663.663,0,0,1,.139-.414,1.072,1.072,0,0,0,.088-.456c.013-.18.038-.264.1-.3s.055.025.1.038.016-.046.1-.046.063.038.134-.013,0-.134.071-.167.084-.028.207-.076a.877.877,0,0,0,.276-.2c.118-.1.088-.1.281-.088s.226-.1.223-.207a.118.118,0,0,1,.193-.1c.079.068.025.058.172.117a.8.8,0,0,1,.256.126c.158.1.158.088.213-.046s.079-.158.079-.063a3.6,3.6,0,0,0,.008.4c.016.231.063.259.117.3s.1.021.063.117-.016.122.016.207a1.088,1.088,0,0,1,.021.406c-.008.213-.025.117-.1.256s0,.139.063.251.139.088.188.038a1.846,1.846,0,0,1,.175-.122c.1-.076.2-.046.193.139s.008.426.021.641.088.084.076.267a2.186,2.186,0,0,0-.013.4c.013.142-.076.084-.079.259a.685.685,0,0,1-.079.316.42.42,0,0,0,.021.33c.046.079.028-.046.071.043s.167.33.246.464.035.172.008.365a.428.428,0,0,0,.1.369c.076.109,0,.1.071.226s.226.3.158.238a1.286,1.286,0,0,0-.272-.188c-.109-.055-.112-.063-.18-.188a3.756,3.756,0,0,0-.3-.373.474.474,0,0,1-.126-.273c-.025-.109-.117-.092-.207-.117a.455.455,0,0,1-.231-.158c-.109-.107-.092.025-.028.2s.043.1.2.3.167.207.193.316.043.126.158.231a.352.352,0,0,1,.139.281c.013.122.016.126.158.347a3.384,3.384,0,0,1,.207.373c.117.213.046.172.147.373a3.086,3.086,0,0,0,.316.448,2.318,2.318,0,0,0,.565.516c.158.1.18.092.172-.025a2.3,2.3,0,0,1,.076-.428c.016-.1.063-.063.139-.112s0-.1-.1-.18-.033-.118-.1-.207-.112-.076-.158.043-.084.055-.071-.046.016-.117-.051-.167a.516.516,0,0,0-.213-.088c-.1-.025-.1-.147-.046-.167s.058-.063.033-.158.033-.1.129-.084.112,0,.055-.063a.445.445,0,0,1-.109-.259c-.028-.158-.058-.092-.134-.246s-.013-.175,0-.352a.371.371,0,0,0-.1-.365c-.12-.134-.223-.335-.316-.426s-.129-.046-.19-.134-.033-.172-.038-.289-.068-.079-.071-.158a.226.226,0,0,0-.088-.2c-.071-.051-.041-.158-.016-.251a1.264,1.264,0,0,1,.158-.347.418.418,0,0,0,.1-.3c.008-.158.084-.158.158-.112s.055.084.028.2.129.092.207.129.043.1.1.158a.237.237,0,0,1,.1.207c.008.122,0,.126.079.158q.076.033.028.092c-.046.058.112.055.188.142s.118.129.028.33.055.193.112.126.068-.079.158-.084a.216.216,0,0,0,.218-.147c.043-.112.1-.092.223-.118a.649.649,0,0,0,.37-.223,1.088,1.088,0,0,0,.076-.418,2.014,2.014,0,0,0-.046-.54.535.535,0,0,0-.134-.281c-.079-.126-.134-.167-.218-.3a.681.681,0,0,1-.092-.286c-.028-.109-.117-.051-.112-.167a.442.442,0,0,1,.158-.355c.122-.088.1-.122.223-.167s.118-.092.243-.126a.253.253,0,0,1,.251.079c.055.046.126.038.112.122s-.043.084.016.2-.063.109-.158.126-.134.038-.207.18.068.207.175.231.158-.016.246-.1.068-.112.142-.183,0-.1-.051-.207.033-.167.063-.251.058-.016.273-.025a1.058,1.058,0,0,0,.414-.079,1.193,1.193,0,0,0,.24-.109c.1-.063.1.055.289.043a.706.706,0,0,0,.385-.139,1.517,1.517,0,0,0,.393-.294c.122-.139.142-.122.238-.147s.038-.109.071-.231.058-.122.158-.234.175-.134.289-.256.079-.158.142-.251a.414.414,0,0,0,.129-.276c.046-.226.041-.3,0-.365a.27.27,0,0,1-.021-.246.568.568,0,0,0,.021-.352c-.038-.158-.079-.231-.183-.167s-.122.038-.218-.071-.1-.139-.008-.213a1.655,1.655,0,0,1,.226-.213c.142-.1.246-.172.327-.129s.134.028.142-.043-.016-.122-.109-.122-.129-.008-.129-.092-.051-.134-.122-.043a.578.578,0,0,1-.251.167c-.092.043-.109-.092-.025-.088s.063-.084,0-.109.016-.051-.041-.079-.129-.013-.129-.1.068-.134.158-.158.046-.117.193-.207a3.285,3.285,0,0,0,.281-.172c.123-.088.134-.043.172.033s.051.092-.071.183-.013.084-.055.158-.092.188-.013.147.079-.071.243-.158.276-.109.351-.068.158.043.2.092.038.118-.049.289c-.046.088-.013.133.047.144a.279.279,0,0,1,.207.148c.052.141-.077.128-.1.177s.035.062.065.12-.223.406-.182.474a.284.284,0,0,0,.273.049c.062-.017.1-.087.158-.1a.567.567,0,0,0,.245-.085c.1-.055.174-.245.088-.568a2.125,2.125,0,0,0-.316-.507.145.145,0,0,1,.058-.18c.084-.063.172-.1.281-.175a.381.381,0,0,0,.193-.251c.025-.122.038-.117.1-.158a.207.207,0,0,0,.1-.1c.033-.054.046-.016.122-.084s.1-.109.158-.033a.158.158,0,0,0,.2.079.836.836,0,0,0,.381-.188,2.965,2.965,0,0,0,.246-.316c.122-.142.167-.175.259-.276a.546.546,0,0,0,.158-.264.93.93,0,0,1,.188-.289.6.6,0,0,0,.092-.373,1.148,1.148,0,0,1,.055-.4c.051-.139.188-.051.231.139s.016.316.049.5a1.963,1.963,0,0,1,.008.516c-.013.188.076.125.076.038s0-.084.043-.092a.131.131,0,0,1,.158.076c.038.079.051.063.038-.025s-.051-.058-.1-.158-.134-.1-.147-.2.063-.188.084-.3.071-.092.142-.051.068.055.043-.055-.068-.084-.1-.207-.112-.218-.147-.33,0-.2-.035-.316-.008-.118-.041-.234-.092-.1-.112-.038.038.051.038.122-.046.088-.139.088-.1-.021-.2-.1-.084-.133-.223-.112-.071.172-.139.175-.1,0-.1-.092-.035-.071-.058,0-.1,0-.063-.079,0-.079-.092-.063-.134,0-.142-.051.051-.068.142-.117.125-.126.207-.193.134-.207.226-.246a.336.336,0,0,0,.2-.188c.016-.076.038-.1.134-.172s.158-.158.289-.167a1.666,1.666,0,0,1,.251-.021c.088.013.112-.043.183-.016s.213.013.243-.055.063-.071.139-.058.063.043.158.021.158.013.079.051-.025.1.046.088a.316.316,0,0,0,.158-.055c.041-.057.025-.057.12-.057s.112-.092.058-.1-.092.008-.092-.084a.3.3,0,0,1,.1-.218c.058-.063.051-.207.126-.264a.316.316,0,0,1,.223-.055c.084,0,.129-.008.126.055s.049.076.084.158.088,0,.142-.084a.291.291,0,0,0,.079-.253c-.021-.129.03-.129.041-.068a.982.982,0,0,1,.071.234c.008.117-.038.092-.1.167s0,.117-.035.213-.068.079-.1.238-.092.158-.188.251-.028.1-.046.175a.557.557,0,0,0-.068.289c0,.207.114.33.234.565a3.944,3.944,0,0,1,.246.494c.035.112.1.084.122-.021s.088-.1.117-.193-.063-.126-.049-.193a.117.117,0,0,1,.172-.092c.076.043.076-.013.016-.079a.186.186,0,0,1-.063-.167c0-.084.049-.122.142-.109s.112-.088.041-.142-.071-.1-.071-.175.025-.126.071-.084.055.021.051-.046-.051-.088-.1-.118-.058-.112-.055-.183-.063-.092-.092-.025-.071-.028-.088-.1.016-.092.028-.139a.158.158,0,0,0-.013-.139c-.035-.046,0-.066.033-.092a.1.1,0,0,1,.126-.009Zm.044.193c.016-.079-.062-.123-.092-.025-.069.231.077.1.095.024Zm1.778-1.746c.047-.016.033-.044.112-.047s.115-.028.079-.055a.238.238,0,0,0-.226.025c-.073.044-.011.095.036.079Zm-4.709-1.064c.065.014.12,0,.137-.051s-.039-.062-.2-.073-.136.028-.051.081a.344.344,0,0,0,.109.041Zm-.418-.158c-.055-.008-.028-.036-.1-.047s-.036.039-.092.043-.032-.069-.1-.055a.133.133,0,0,0-.1.158c.028.068.058.069.136.1s.055-.025.112-.008.044-.016.084-.008a.177.177,0,0,0,.182-.058c.081-.079.069-.131-.044-.139-.039,0-.014.022-.069.014Zm-.482.087c.043,0,.044-.068,0-.065a.033.033,0,1,0,0,.065Zm-1.5-.6c.041-.019.017-.073-.028-.044s-.014.065.028.046Zm-.362-.139c-.076.039-.055.065.022.047a.875.875,0,0,1,.207,0c.09,0,.115-.025.1-.088s-.055-.126-.123-.084a2.392,2.392,0,0,1-.215.125Zm.259-.273c-.016-.035.011-.055.062-.069s.047-.033.058-.079-.073-.062-.139-.039-.109.051-.186.073-.088.019-.128.062,0,.076.039.068.028.025-.008.055.028.073.076.1a.112.112,0,0,0,.148-.032c.055-.055.076-.043.1-.084s-.008-.032-.019-.052Zm-.93-.752c-.043-.028-.084-.025-.1.052s.008.115.062.09.047-.044.079,0,.058,0,.1.028.062.025.136,0,.014-.039-.058-.055,0-.079.069-.081.1-.047.055-.055a.253.253,0,0,0-.232.011c-.062.033-.065.043-.1.014Zm-.131-.081c-.079.1-.008.1.022.065s.062-.058.092-.036.019.044.069.036.069-.1.019-.158-.126-.011-.207.088Zm-.1-.662a.76.76,0,0,0-.294,0c-.174.028-.079.069.043.068s.158-.008.171.025-.041.043-.158.039-.158.043-.088.058a.355.355,0,0,0,.186-.016c.065-.016.109-.022.186-.044s.142-.016.076.013-.055.087.036.088a.226.226,0,0,0,.182-.041c.073-.047.033-.115.1-.158s.039-.115-.079-.1a.964.964,0,0,0-.265.065c-.039.014-.028.011-.1,0Zm-2.032,1.472a1.371,1.371,0,0,1,.572-.139,1.549,1.549,0,0,1,.6,0c.136.043.243.081.327.036s.035-.084-.109-.088-.052-.069-.33-.095a2.612,2.612,0,0,0-.8.087c-.273.058-.425.092-.5.223s.014.158.1.079a.555.555,0,0,1,.139-.1Zm-.742.039c.051.008.062,0,.087-.043s.046-.077-.052-.047-.084.081-.035.088Zm8.953,5.991c.035-.041-.011-.095-.051-.022s-.016.073-.068.1-.039.095.016.09.073-.139.1-.174Zm-2.321,1.928c-.016.033.013.071,0,.117a.082.082,0,0,1-.134.021c-.046-.046-.092,0-.071.016s.03.046.051.071-.055.025-.109.076a.085.085,0,0,0,0,.142c.046.041.033.046.021.1s.028.092.055.041.021-.068.071-.051.109,0,.079-.043-.088-.038-.134-.076-.016-.084.028-.109.063-.028.068.033.049.041.084-.016.028-.063.1-.038a.706.706,0,0,1,.183.122c.068.051.1.058.1.013a.272.272,0,0,1,.025-.125.2.2,0,0,1,.158-.126.577.577,0,0,0,.18-.046c.063-.028.041-.028-.021-.071s-.041-.063-.025-.109.049-.1-.008-.058a.218.218,0,0,1-.188.038.581.581,0,0,1-.259-.158c-.092-.076-.1-.158-.167-.183s-.068.021-.051.1a.516.516,0,0,1,.008.272c-.008.025-.021.013-.038.046ZM32.981,44c-.021.058.016.068.068-.016s.051-.058.112-.112.038-.095-.068-.021a.351.351,0,0,0-.112.158Zm-.246.158c-.041.055-.013.084,0,.058a.388.388,0,0,1,.079-.1c.051-.046.038-.1-.008-.058a.568.568,0,0,1-.073.1Zm.54-.377c.038-.025.024-.082-.016-.055s-.022.084.011.055Zm.207-.158c.051-.063.054-.134-.008-.076s-.041.139.009.076Zm-1.707,1.323c-.03,0-.016.063-.03.1-.022.062-.051.025-.058.122s.025.109.043.167,0,.084-.051.193-.025.167-.084.231-.112.076-.134.134-.028.063-.1.112-.122.025-.158.079-.109.046-.117,0,.008-.1.051-.1.017-.068-.043-.055-.058.038-.063.126.013.058-.076.147-.063.122-.079.2-.117.063-.167.043a.158.158,0,0,0-.136,0c-.084.016-.231.021-.36.033s-.142.079-.2.147a.516.516,0,0,1-.223.147c-.092.033-.008.092.055.092s.1.025.147.008.033-.046.1-.055.122-.051.213-.063a.316.316,0,0,0,.158-.038.237.237,0,0,1,.183-.038c.076.016.118.033.071.1s-.049.1,0,.134,0,.063.058.079.1.033.1-.025,0-.041.046-.118.046-.058.112-.063.035-.033-.013-.071-.033-.055,0-.1.051-.063.051,0,.016.051.051.038.041-.043.055,0,.076.028.134.021.068,0,.112-.079.084-.063.079.033.046.055.055-.008.016-.092.068-.117.055.013.092-.071.088-.016.038.051-.028.1.028.071.063-.088.092-.117.051-.055,0-.1.016-.055.008-.158.055-.175.046-.279,0-.172.038-.2.051-.043.068-.142.088-.126.076-.238-.088-.147-.134-.207,0-.122-.013-.172a.052.052,0,0,0-.1-.021c-.028.038-.021.051.021.051s.035.028.013.071-.076.028-.084-.028c0-.011-.008-.055-.046-.051Zm-.381.867c.021-.025.024-.081-.013-.051s-.008.076.014.052Zm-1.12.474c.033,0,.055-.063,0-.058s-.032.055,0,.062Zm-.158.649a.207.207,0,0,0-.025.158c.008.1.1.1.1.068a.431.431,0,0,1,.058-.129c.025-.046.139-.076.158-.033s.058.046.068,0a.112.112,0,0,1,.068-.1c.058-.038.016-.084-.025-.092s-.068-.041-.125-.028-.071.071-.125.071a.158.158,0,0,0-.147.079Zm.485-.158c.025,0,.055-.082.021-.079s-.046.076-.017.076Zm-1.064.158c-.055-.008-.139.046-.117.076s.008.088.041.134.058.038.109.016.063.038.033.109a.706.706,0,0,0-.046.2c-.016.1.051.158.068.063s.043-.055.038.028.051.068.076-.013.088-.071.1-.158a.328.328,0,0,1,.055-.188A.185.185,0,0,0,29.889,47c-.028-.065-.1-.021-.142-.076s-.035-.073-.109,0c-.016.016-.041.025-.1.016Zm.126.9c.041-.028.052-.141.021-.122s-.058.148-.017.122Zm-.343.565c.046-.038.039-.12-.028-.063s-.014.1.032.062Zm-.33.42c.058-.1,0-.112-.058-.033s0,.136.062.032Zm-.723.456c.033,0,.049-.079,0-.058s-.032.057,0,.057Zm-.34.1c.1.021.109-.1.016-.092s-.112.066-.016.087Zm-.958.213c-.028.158.092.158.122.234s.071.1.079.028a.237.237,0,0,1,.051-.158,2.445,2.445,0,0,0,.175-.33c.071-.158.1-.276.038-.316s-.1-.008-.289.183a.644.644,0,0,0-.175.351ZM26.9,51.3c-.028.1-.013.158-.055.158s-.046-.051-.079-.063-.028.084-.008.238.041.175.079.2.046.068.079.055.025-.071.063-.051.038.071-.028.1-.055.079-.016.109.079,0,.071.046.084.046.1,0,.088-.013.129-.028-.038-.051-.055-.126-.008-.139-.055-.167-.028-.071.016-.122.021-.126.079-.158a.283.283,0,0,0,.158-.122.194.194,0,0,0,0-.226.145.145,0,0,1-.008-.175c.033-.058.025-.126-.055-.068s-.092-.008-.158-.068-.207-.055-.234.175a1.818,1.818,0,0,1-.028.281Zm.076,1.156c.038.117.139.038.142-.046a.223.223,0,0,0-.139-.223c-.112-.063-.158-.051-.092.068a1.059,1.059,0,0,1,.085.2Zm-.234.136c.038-.055-.038-.188-.051-.158-.035.118.013.218.051.159Zm.485-.316c.035.021.035-.088,0-.092s-.033.076,0,.1Zm.016.223c.033,0,.028-.069,0-.068s-.033.071,0,.071Zm.158.033c.028-.008.016-.054-.016-.049s-.013.063.016.055Zm-.193.381c-.038.088.021.109.055.058s.058-.021.076.03.071.025.055-.021a.122.122,0,0,1,.068-.134c.055-.033.055-.079.013-.079a.229.229,0,0,1-.117-.046.455.455,0,0,1-.122-.1c-.033-.043-.022,0-.008.1a.327.327,0,0,1-.016.193Zm-.741.008c-.068.058-.068.063-.158.142a2.842,2.842,0,0,0-.316.243c-.084.1-.063.284-.051.223a.256.256,0,0,1,.109-.183,2.415,2.415,0,0,1,.226-.158c.1-.058.084-.117.172-.158s.1-.068.188-.068.071-.038.016-.051-.068-.051-.063-.147-.033-.093-.071.046c-.013.046.008.063-.058.122Zm1.08-.682c.03.058.013.076.063.117s.046.013.079.071.076.071.079.021,0-.058-.058-.092.008-.041-.063-.1-.021-.079.058-.084.038-.033-.038-.055-.1.071-.134.013-.008-.084-.058-.122-.071,0-.158.038-.063.058-.025.1.021.025.063.1.058.025.021-.058-.008-.1.046-.055a.344.344,0,0,1,.117.109Zm.289-.013c.041.008.019-.131-.021-.122s-.022.118.019.126Zm-.238.381c.021-.041.068.021.142.068s-.013-.076-.076-.134-.088-.1-.122-.016.025.122.054.079Zm.385.126a.073.073,0,0,1-.068.109c-.051,0-.051-.035-.038-.084s-.025-.063-.058.038.008.071.051.134.058.008.063.109,0,.1.068.1.038-.046.013-.1a.158.158,0,0,1-.025-.118c0-.079.046-.071.114-.025s.063-.025.025-.076-.013-.071-.008-.134,0-.068-.043-.126-.084-.025-.158-.043-.084-.043-.088.025.122.126.158.188Zm-.448.474c-.046.088-.055.063-.046-.021a.3.3,0,0,1,.092-.167c.038-.051.03-.122-.028-.129s-.076.028-.1.139-.038.122-.112.112-.035.076,0,.142.071.013.088.055.046.063.092.038.016-.043.038-.1a.379.379,0,0,1,.112-.158c.058-.051.055-.041.063-.134s-.049-.117-.079.016c-.016.071-.071.114-.117.2Zm.238.076c.1,0,.071-.145,0-.134-.136.025-.106.133,0,.137Zm.381-.1c.008-.068,0-.1-.046-.016s.038.09.046.022Zm.134.046c.016-.055-.022-.046-.038-.013s.019.073.038.019Zm-.2.231c-.021.051-.076.068-.1.028s-.055-.068-.071,0,0,.063-.088.076-.063.088-.158.076-.028-.084-.088-.122-.092,0-.129.058-.079.046-.158.063-.058.058-.079.139-.055.046-.055.112.033.013.068-.043.055-.129.1-.134.051.008.055.079.038.008.068-.051.038,0,.068.035.038-.058.076-.071.071.043.118.109.025.055-.013.158.013.139.1.2.134.117.172.063.051-.008.051.055.049.068.049.038,0-.038.046-.084.033-.054-.03-.125-.046-.1-.013-.122.055,0,.079-.051.028-.076.038.008.068.129.1.063a.392.392,0,0,0,.076-.158c.028-.112-.038-.092-.038-.167s.016-.063-.021-.084-.058-.071-.016-.084.038-.046-.021-.1-.058-.088-.112-.142-.088-.033-.068.038a.253.253,0,0,1,0,.129Zm-.908.586c.051.013.041-.079-.016-.076s-.035.069.016.079Zm-.256.125c.046.008.046-.062,0-.068s-.047.065,0,.073Zm-.256.175c.063-.016.041-.1-.008-.084-.073.041-.057.107,0,.092Zm1.775.393c.016-.079-.022-.115-.058-.028s.041.115.057.036Zm-.355.158c.035,0,.033-.065,0-.058-.065.016-.036.062,0,.066Zm-2.239-1.1c-.043.013-.021-.071-.063-.084s-.013.063-.1.18-.033.112-.109.142-.058.092-.114.129-.076.013-.137,0-.092.068-.175.071-.046.021-.129.129-.167.193-.259.193-.243-.055-.327-.016-.038.092-.046.218-.1.084-.207.051A.362.362,0,0,1,24,54.67c-.051-.051-.088.046-.158.147s-.028.117.013.213.051.063.025.158.008.109.055.172.028.117.071.1.041-.035.076.013a.74.74,0,0,1,.016.335c-.008.167.079.18.264.183s.158.008.175.084.055.1.084.041.063-.028.1.016.079-.013.114-.063.016.008.063.038a.207.207,0,0,0,.158.055.172.172,0,0,1,.18.172c.013.118.043.109.112.068a.474.474,0,0,1,.207-.063c.088-.013.055.088.1.109s.092-.046.1-.147-.055-.043-.058-.117.063-.058.079-.172-.046-.071-.028-.158.088-.1.167-.126.114-.035.079-.158a.207.207,0,0,1,.043-.218c.038-.058.147-.028.234-.008s.118-.028.088-.058-.076-.071-.172-.158-.109-.112-.076-.142.055-.038.016-.092-.063-.016-.076-.118a.38.38,0,0,1,.051-.276c.051-.051.109-.058.213-.028s.063-.041.016-.076-.126-.021-.139-.058.035-.068.129-.063.126.016.134-.021-.016-.055-.109-.1-.071-.055-.129-.109-.114-.028-.158-.079.021-.068-.013-.122-.063-.055-.063-.147-.041-.111-.076.013c-.008.028,0,.063-.046.076Zm-2.135.335c0-.109-.032-.139-.063-.025s.062.139.062.036Zm-.1,1.776c.147.025.126-.191,0-.2a.1.1,0,0,0,0,.208Zm-.527.594c-.079-.013-.043.063.071.112s.088.021.139.076.008.068.142.1.088.063.238.139.158.016.351.063.158.092.343.175a1.41,1.41,0,0,0,.444.129c.175.028.071-.046.147,0s.2.1.3.158.043-.008.008-.051.058-.043.013-.076-.051-.1-.207-.129-.231-.058-.218-.118.088-.025.207-.021.122-.046-.058-.068a1.232,1.232,0,0,1-.39-.092c-.167-.063-.142-.112-.238-.139s-.043.063-.134.068a.807.807,0,0,1-.3-.058c-.129-.043-.1-.092-.246-.158s-.243-.1-.369-.172-.186-.06-.147.028c.016.038-.013.055-.092.041Zm2.3.917c.035.025.013.055.071.058s0-.038.068-.051.013-.052-.109-.079-.068.052-.033.079Zm.36.134c.1,0,.077-.144-.008-.139-.129.016-.092.145,0,.145Zm.357.071c.117-.016.1-.028-.008-.076s-.136-.1-.2-.038c-.1.1.092.129.207.112Zm.088-.158c-.03-.041-.051-.016-.1-.021s-.041.051.021.068.1.013.147.068.058.033.117.043.112-.088.021-.1a.686.686,0,0,1-.2-.051Zm.474.444c.071.051.071.1.172.092s-.008-.063-.088-.122-.126-.122-.243-.126-.1.06-.021.1c.038.021.109,0,.18.051Zm.418-.183c.129,0,.251-.068.1-.063a1.706,1.706,0,0,1-.393-.092c-.167-.033-.193.046-.139.079a3.245,3.245,0,0,0,.426.076Zm.365-.063c.038-.008.028-.058-.055-.055s-.058.068-.021.1.038-.035.076-.043Zm.1.046c.025.013.032-.058-.008-.051-.065.019-.019.043,0,.055Zm.406,0c.076,0,.049-.055-.084-.063s-.125.038-.068.058a1.048,1.048,0,0,0,.158,0Zm.4-.1c.084-.025,0-.065-.134-.021-.1.038.047.049.131.025ZM28,57.813c-.046.043-.092.046-.213.068s-.18.063-.172.172.122.076.234.028.126-.126.2-.175a.37.37,0,0,1,.256-.025c.1.008.058-.058.129-.058s.158-.055.092-.068a1.281,1.281,0,0,0-.316-.013.272.272,0,0,0-.2.071Zm-1.047-2.3c.118.035.18-.025.351.021s.158.068.259.1a.246.246,0,0,0,.259-.079c.038-.063.117-.071.147-.158s-.046-.084-.109,0a.26.26,0,0,1-.243.109c-.114,0-.076-.016-.193-.038a1.912,1.912,0,0,1-.259-.058c-.117-.033-.147.008-.193-.063s-.092-.092-.129-.013-.046.088-.158.1-.071.071-.088.172-.051.112-.084.213a.826.826,0,0,0-.063.251c-.021.158-.008.055-.092.142s-.013.158.033.2.058-.013.118.055.025.172,0,.281,0,.2.1.218.1-.114.109-.226.008-.158.016-.246-.055-.088-.033-.142.063-.112.122-.109.1.068.079.172,0,.117.076.172.063.063.068.147a.07.07,0,0,0,.126.038c.03-.038.046-.051.117-.035s.088,0,.058-.055-.084-.058-.118-.158.03-.117-.038-.172a1.736,1.736,0,0,1-.175-.207c-.063-.071.03-.063.1-.084a.376.376,0,0,0,.158-.063c.046-.038.114-.126.046-.142s-.158.043-.226.035-.092-.035-.139.058-.1.038-.167.016,0-.071-.051-.109-.092-.076-.092-.112a.39.39,0,0,1,.076-.243.336.336,0,0,1,.231.013Zm.461.377a.414.414,0,0,1,.076.051c.051.038.044-.1-.038-.114s-.058.054-.038.062Zm.016.158c.063.013.1-.084,0-.084-.079,0-.066.073,0,.085Zm.122.046c.021.008.038-.082,0-.079s-.025.073,0,.082Zm-.084.608c0-.025-.021-.054-.055,0s.046.022.051,0Zm-.167.117c-.051.008-.043.088-.021.112s.033,0,.058-.038.025.033.013.1.055.058.055.028,0-.051.055-.055-.008-.055-.033-.1.025-.021.041-.051-.011,0-.076-.021a.452.452,0,0,0-.092.016Zm.674-.632c.079,0,.041-.068-.084-.079s-.118.038-.071.058a.659.659,0,0,0,.15.022Zm.281.34c-.033.043.025.112.142.134s.167-.033.126-.063-.055-.088-.158-.092c0,0-.079-.021-.112.021Zm.418-.33c.088.025.1-.065,0-.088s-.093.065,0,.09Zm-.088-.347c-.051,0-.058.046-.021.079s.058,0,.071-.038c0,0,0-.038-.049-.043Zm.071-.109c0,.088.028.084.051.139a.172.172,0,0,0,.088.1c.038.016-.016-.051-.021-.1s-.063-.092-.055-.134,0-.1.063-.071.079.038.114.016.008-.046-.038-.063-.076-.079-.013-.076.068-.027.076-.079c.013-.084.013-.134-.038-.092s-.068.109-.126.142a.982.982,0,0,0-.1.058c-.035.025-.021.051,0,.079a.084.084,0,0,1,0,.071Zm.234-.535c.021-.068-.019-.074-.068,0s.041.069.062,0Zm-.238.3c.055.008.084-.038.084-.1s-.016-.144-.1-.051c-.055.063-.043.147.013.158Zm.674.8c.084.013.063-.095-.008-.084-.136.022-.082.073,0,.085Zm-.333.28c.021.008,0,.038.079.049s.076.016.063-.025.008-.021.084,0a.437.437,0,0,1,.213.134c.084.079.1-.025.03-.1a.27.27,0,0,0-.189-.109.432.432,0,0,0-.193-.021c-.063,0-.134-.013-.243-.008s-.139.038-.084.058.046-.013.071.035,0,.068-.088.058.041.046.117.038.041-.071.088-.092a.067.067,0,0,1,.051-.013Zm.611-.867c.013-.046,0-.095-.043-.051s.024.1.036.052Zm-.223.158c.038.043.084.058.18.038s.068-.092-.016-.092c-.134,0-.2.013-.158.055Zm.046.18c.038.038,0,.038.079.092s.058.046.172.033.1.008.122.1.079.079.175.084a2.738,2.738,0,0,0,.373,0c.071-.013.033-.1.043-.193s-.021-.139-.134-.158-.158-.046-.294-.071-.158.063-.216.071-.092-.021-.122.028-.058.076-.071.043a.148.148,0,0,0-.1-.088c-.055-.016-.058.021-.021.058Zm.79.418c-.063-.051-.092-.025-.158.025s-.038.016-.122-.016-.117.025-.055.058.03,0,.088.043a.226.226,0,0,1,.1.2c0,.112.129,0,.158-.1s.028,0,.117.071.092.021.183.071a1.447,1.447,0,0,0,.464.158.677.677,0,0,1,.452.231.655.655,0,0,1,.246.34c.055.118.016.088-.058.055a.183.183,0,0,0-.251.068c-.088.117-.158.129.013.158s.226.016.294-.046.172-.028.289-.008.129.175.286.223.063.013.142,0,.18.088.238.033a1.463,1.463,0,0,1,.158-.158c.079-.058.076.025.147-.008s.076-.1.1-.175.063-.038.1-.088.051-.051.112-.013a.489.489,0,0,0,.251.051c.1,0,.117.134.316.3s.251.158.36.147a3.157,3.157,0,0,1,.316.016c.058,0-.021.076.142.068.093,0,.114-.062.071-.092a.723.723,0,0,0-.142-.051c-.093-.035-.063-.046-.129-.079s0-.088-.041-.112-.016.028-.158-.013-.088-.076-.218-.188-.134-.088-.193-.213-.041-.122.063-.112.134.025.139-.046-.079-.076-.213-.112-.129-.043-.251-.076-.046-.068-.084-.158-.1-.068-.276-.158a1.015,1.015,0,0,0-.5-.117c-.286-.028-.373-.167-.527-.18a1.823,1.823,0,0,1-.428-.084c-.188-.055-.259-.129-.4-.129s-.1.068-.2.129-.139.013-.188.1a.569.569,0,0,1-.193.18.186.186,0,0,1-.243-.033,1.134,1.134,0,0,1-.126-.158c-.033-.058-.068-.06-.1.013-.016.033-.038.071-.1.021Zm.273,1.044c.092.013.117-.109.068-.231s-.044-.2-.112-.076-.054.3.036.308Zm-.913.139c0,.058-.028.013-.063.1s.055.058.084,0,.092-.071.134-.158,0-.109-.079-.033c0,0-.079.025-.076.084Zm-.343.051c.055.013.035-.079-.025-.079S29.179,57.693,29.232,57.705Zm1.631-1.57c.013.051.076.038.112.021s-.033-.079-.109-.126-.142-.028-.068.025a.145.145,0,0,1,.063.079Zm.126.158c.117,0,.049-.084-.129-.055-.123.021.014.054.131.054Zm2.827-.03c.158-.016.158-.063,0-.063s-.122.058-.016.068m1-.025c-.118-.058-.207-.022-.167.025s.1,0,.213.033a1.128,1.128,0,0,1,.316.142c.1.068.122.033.134.158s.1.158.1.038,0-.122-.158-.207a3.86,3.86,0,0,0-.439-.183Zm.267.368c-.033-.016-.071.033-.028.088s.038.033.117.068.084-.016.071-.079-.041-.117-.1-.084a.052.052,0,0,1-.058.008Zm-.238.327c-.071.051-.071.038-.183.055s-.246-.008-.4,0-.028.051.051.1.109.013.2.043a.256.256,0,0,0,.231-.025.488.488,0,0,1,.2-.088c.088-.016.051-.092.114-.112s.117.013.109-.033a.1.1,0,0,0-.125-.079c-.109.013-.122.1-.193.147Zm1.126.1a.081.081,0,0,0,.126.058q.063-.038-.013-.112c-.051-.051-.055-.058-.126-.139s-.134-.076-.076.055a.316.316,0,0,1,.088.139Zm.5.112c.076.021.142,0,.071-.021s-.046-.033-.158-.092-.172-.058-.071.033a.517.517,0,0,0,.158.077Zm.611.142c.041-.025-.058-.1-.2-.139s-.126-.035-.025.055c.038.035.183.109.226.084Zm-.507.126c.055.051.092.043.092,0s-.068-.1-.147-.129-.142,0-.043.063a.28.28,0,0,1,.1.063Zm.826.038c.118.1.126.028.068-.025s-.041-.041-.088-.126-.1-.158-.1-.008c0,0,0,.063.122.158Zm-.125.1c.063-.016-.008-.1-.158-.088s-.134.058-.013.088a.5.5,0,0,0,.163.006Zm.36.158c.046,0,.046-.063-.035-.079s-.18-.008-.1.046a.538.538,0,0,0,.136.028Zm.979.79a.1.1,0,0,0-.033-.158c-.063-.025-.032-.115-.068.016-.025.092.068.18.1.134Zm.058.134c.046.016.063-.076-.008-.071s-.038.049.008.066Zm.142.223c.058,0,.043-.1-.021-.079s-.039.079.019.074Zm-.028-.431c.043.013.046-.057,0-.051s-.043.033,0,.046Zm.129.619c.051,0,.046-.063,0-.055s-.051.041,0,.046Zm0,.134c.043,0,.041-.063-.013-.055s-.038.041,0,.046Zm1.721-.9c-.122.122.058.084.193,0s.112-.2,0-.147a.4.4,0,0,0-.2.137Zm.316-.3c.025.028.088-.013.189-.1s.1-.131-.043-.071c-.079.035-.172.147-.147.175ZM37.951,59.64c-.172-.126-.251-.139-.2,0s.207.139.357.207.279.046.125-.043l-.284-.158Zm.474-.071c.033-.028,0-.06-.038-.038s0,.058.032.028ZM38.516,62a.712.712,0,0,1-.243.175c-.117.055-.049.1.025.071s.046.028-.046.1-.109.079-.033.063a1.4,1.4,0,0,0,.373-.231c.213-.158.1-.088.18-.18s.183-.1.316-.183.092-.118.046-.112-.054.055-.158.117-.193.068-.158.013.016-.118-.035-.071-.068.084-.1.038.021-.051.038-.122-.041-.071-.1-.084-.063-.058-.071.033.063.139.063.188a.259.259,0,0,1-.076.183Zm-1.025.756c-.256.134-.561.234-.846.4s-.289.2-.139.175a.619.619,0,0,0,.381-.117c.238-.142.286-.167.286-.167l.226-.134a5.221,5.221,0,0,0,.568-.344c.122-.1.092-.129.021-.1s-.084.055-.068.021-.013-.046-.109.021a.81.81,0,0,1-.327.259Zm-4.264-3.632a1.471,1.471,0,0,1-.139-.076c-.1-.06-.1.063-.188-.025s-.084-.028-.058-.142.008-.1-.046-.183a.949.949,0,0,1-.1-.18c-.043-.092.008-.158-.1-.158s-.1.084-.125.18-.092.088-.1.243a1.55,1.55,0,0,0-.038.347.6.6,0,0,1-.109.441c-.1.183-.183.238-.316.231a.284.284,0,0,1-.226-.122c-.063-.068-.167-.035-.287-.118s-.079-.076-.231-.1a.517.517,0,0,1-.273-.129c-.126-.084-.158-.092-.139-.158s.016-.063.068-.1.013-.1.063-.158a.431.431,0,0,1,.129-.123c.079-.046.139-.076.071-.117s-.079.028-.158.063-.058-.025-.167-.084-.071.025-.213,0a1.7,1.7,0,0,1-.286-.055c-.158-.051-.158-.071-.33-.129a.619.619,0,0,0-.37-.028c-.172.016-.238.071-.207.117s.122,0,.256,0,.021-.055.109-.046a.283.283,0,0,1,.223.088c.055.071-.016.055-.147.051a.6.6,0,0,0-.36.063c-.071.063-.147.112-.1.18s-.051.088-.158.158-.1.033-.18.122-.175.158-.2.068,0-.092-.088-.183-.092-.076-.207-.1-.033.043-.1.063-.025-.058-.1-.013-.033.063-.109.063-.118.041-.1.1-.1.025-.193.063.021.142-.028.207-.063-.035-.158-.063-.016.084,0,.167-.058.092-.112-.008-.084-.092-.167-.046-.055.117-.033.167,0,.079-.1.134-.025.1-.139.18-.088.038-.281.051a1.756,1.756,0,0,0-.4.058c-.126.035-.37-.046-.5,0s-.167.109-.287.109-.068.129-.117.122-.046-.117-.079-.1-.043.1.008.18-.021.088-.038.158.013.139.122.238.142.231.088.213-.118-.046-.055.046a3.379,3.379,0,0,0,.335.39c.147.158.058.1.158.251a.887.887,0,0,0,.2.226.464.464,0,0,1,.055.273c-.013.117-.051,0-.068.046s.038.058.134.076.033.055.129.1a1.106,1.106,0,0,0,.474.058.825.825,0,0,0,.259-.1,1.653,1.653,0,0,1,.474.043c.126.025.226.079.365,0s.046-.092.175-.112.142,0,.226-.038.147.025.436,0a1.4,1.4,0,0,0,.284-.046c.114-.016.276,0,.365-.008a.869.869,0,0,1,.316.071c.126.046.122-.013.183.033s.076.025.193.028.058.016.122.033.084.033.025.051.054.054.1.063.109.092.172.193.071.071.129,0a.422.422,0,0,1,.193-.117.344.344,0,0,0,.2-.112c.088-.092.068-.013.025.079s-.046.033-.058.1-.025.076-.112.088.055.038.139.013.028-.058.076-.092.068.038.092.1,0,.046-.079.071a.243.243,0,0,1-.172,0c-.088-.016-.117.013-.122.055s.055.016.18.013.043,0,.218-.068.088-.016.172.038a.178.178,0,0,1,.092.167c.008.071.109.084.218.109a2.552,2.552,0,0,0,.276.016.5.5,0,0,0,.33,0c.167-.055.188-.122.259-.079a.316.316,0,0,0,.272.088.619.619,0,0,0,.316-.142c.109-.068.2,0,.368-.068s.134-.158.256-.316a2.1,2.1,0,0,1,.431-.406.93.93,0,0,0,.316-.316,2.028,2.028,0,0,0,.2-.316c.058-.122.046-.112,0-.213s.016-.088.013-.231.021-.142.084-.188.071-.1.025-.129-.016.043-.076.1-.327-.122-.4-.183-.025-.1-.088-.2-.142.008-.234-.016-.088-.158-.139-.267-.213-.172-.39-.223-.264-.122-.284-.234,0-.142-.043-.213a.414.414,0,0,1-.092-.276.169.169,0,0,0-.1-.2ZM31.044,59.1a.057.057,0,1,0,0-.114c-.085-.013-.076.1,0,.106Zm1.718,4.3c-.145-.016-.117.039-.055.095s.022.073.123.158.178.011.279-.044a.474.474,0,0,0,.207-.172c.073-.1-.028-.065-.123-.035a1.239,1.239,0,0,1-.43,0Zm.6-.112c.055,0,.046-.068-.011-.068s-.049.058,0,.058ZM15.46,47.258c-.068.535-.112,1.421-.044,1.026a10.423,10.423,0,0,1,.335-1.116c.044-.178-.118-.242-.169-.693C15.581,46.476,15.526,46.723,15.46,47.258Z" transform="translate(-15.708 -33.932)" fill="url(#g)"/><ellipse cx="11.466" cy="9.86" rx="11.466" ry="9.86" transform="translate(3.416 -0.884)" fill="url(#h)" style="mix-blend-mode:screen;isolation:isolate"/><path d="M47.149,59c0,5.535-7.444,10.019-16.629,10.019S13.892,64.533,13.892,59s7.444-10.019,16.629-10.019S47.149,53.468,47.149,59Z" transform="translate(-15.757 -33.438)" fill="url(#i)" style="mix-blend-mode:multiply;isolation:isolate"/></g><path d="M194.949,1.131H0V-1.061H194.949Z" transform="translate(-22264.971 -5272.599)" fill="#1e2971"/><path d="M2.343,21.283.052,27.711a.884.884,0,0,0,.834,1.181H19.623a.879.879,0,0,0,.216-.027c.587-.147,3.33-.91,4.2-2.577.826-1.59-1.926-4.121-2.771-4.845a.872.872,0,0,0-.545-.207L3.2,20.7a.884.884,0,0,0-.861.587Z" transform="translate(-22287.438 -5298.33)" fill="#1d2088"/><path d="M232.033,29.294l1.953-5.475a1.353,1.353,0,0,0-1.276-1.808H214.7a1.31,1.31,0,0,0-.33.041c-.687.177-3.3.947-4.145,2.563-.79,1.513,1.667,3.877,2.635,4.728a1.342,1.342,0,0,0,.846.332l17.008.524a1.355,1.355,0,0,0,1.317-.9Z" transform="translate(-22280.541 -5298.286)" fill="#1d2088"/><g transform="translate(-22186.873 -5283.223)" clip-path="url(#j)"><path d="M106.922,34.523c.067.194-.015.342,0,.49.01.07,0,.152.087.179s.119-.047.152-.109a14.184,14.184,0,0,1,1.1-1.663c.229-.293.4-.628.764-.776.2-.077.37-.2.559-.286a2.7,2.7,0,0,0,1.208-1.449,5.686,5.686,0,0,1,.991-1.275,4.062,4.062,0,0,1,1.526-1.06,4.243,4.243,0,0,0,.977-.652c1.015-.75,1.883-1.685,2.965-2.355a3.442,3.442,0,0,0,.574-.49.8.8,0,0,0,.25-.815,2.958,2.958,0,0,1-.082-1.169.475.475,0,0,1,.087-.254c.042-.046.084-.1.152-.071s.054.077.054.13a.9.9,0,0,0,.035.36c.024.059.059.11.128.113s.089-.063.117-.117a8.318,8.318,0,0,0,.63-2.326,7.3,7.3,0,0,1,.66-2.071c.221-.43.37-.9.578-1.335.687-1.449,1.325-2.932,1.967-4.4a.744.744,0,0,1,.634-.977,1.009,1.009,0,0,0,.5-.2.418.418,0,0,1,.187-.1,5.734,5.734,0,0,1,2.924.047,4.2,4.2,0,0,1,1.7,1.18,8.6,8.6,0,0,0,.991,1.145.965.965,0,0,1,.183,1.22c-.419,1.037-.838,2.068-1.3,3.088a8.864,8.864,0,0,1-3.263,4,10.723,10.723,0,0,1-2.17,1.088c-.6.218-1.2.458-1.815.681-.152.059-.229.19-.338.295-1.233,1.215-2.424,2.467-3.75,3.6a13.309,13.309,0,0,1-4.485,4.73,9.879,9.879,0,0,1-1.359,2c-.191.289-.528.44-.726.727-.265.381-.39.838-.616,1.241a4.614,4.614,0,0,1-.514.806c-.454.524-.824,1.117-1.308,1.618a6.773,6.773,0,0,1-.649.673c-.7.546-1.315,1.2-2.036,1.724a1.017,1.017,0,0,0-.445.521c-.035.124-.126.112-.218.1A19.575,19.575,0,0,1,102.313,42a17.744,17.744,0,0,0-4.062-.473c-.5,0-.729-.061-.821-.438a3.247,3.247,0,0,0-.306-.7.959.959,0,0,1-.059-.977,10.3,10.3,0,0,0,.838-2.47,4.188,4.188,0,0,1,.427-.9.4.4,0,0,1,.237-.176,1.3,1.3,0,0,0,.659-.5,3.658,3.658,0,0,1,.849-.68,8.444,8.444,0,0,0,1.449-1.271c.091-.089-.026-.514-.169-.617s-.233.039-.325.121a9.443,9.443,0,0,1-1.357.965c-.05.031-.109.089-.161.036a.14.14,0,0,1,.015-.2c.494-.489.7-1.243,1.434-1.516a.8.8,0,0,0,.394-.483c.031-.07.084-.162.179-.127s.039.124.033.19c-.013.14,0,.279.148.334s.184-.094.267-.159a2.434,2.434,0,0,0,.61-1.043c.128-.293.208-.638.339-.952a2.67,2.67,0,0,1,.292-.529,1.282,1.282,0,0,0,.236-1.062.825.825,0,0,1,.035-.508,4.114,4.114,0,0,0,.229-1,6.392,6.392,0,0,1,.632-1.561c.117-.251.43-.363.61-.61a6.842,6.842,0,0,0,.859-1.593c.215-.575.517-1.117.764-1.675.31-.718.73-1.377,1.074-2.078a2.912,2.912,0,0,1,.535-1.466,1.222,1.222,0,0,1,.43-.489c.323-.2.331-.31.06-.581-.043-.043-.089-.081-.14-.124-.183-.182-.162-.268.091-.355.193-.064.494-.158.429-.336-.084-.229-.348,0-.535.015a.453.453,0,0,0-.3.2,3.845,3.845,0,0,1-.75.789.41.41,0,0,0-.133.3c-.008.066,0,.162-.089.166s-.113-.077-.152-.14a.908.908,0,0,1,.229-.977c.542-.61,1.1-1.2,1.627-1.815a4.387,4.387,0,0,0,.927-2,2.62,2.62,0,0,1,.528-1.21,14.2,14.2,0,0,1,1.35-4.2,17.312,17.312,0,0,1,2.139-3.27,6.492,6.492,0,0,0,.716-1.028c.433-.785.662-.977,1.257-.718a1.988,1.988,0,0,0,.642.17A3.428,3.428,0,0,1,119.3,4.167a1.283,1.283,0,0,0,.306.751c.441.437.328.72-.126,1.243-.14.161-.249.339-.374.507-.262.353-.479.736-.732,1.095-.381.542-.753,1.093-1.15,1.625a10.41,10.41,0,0,1-1.13,1.324c-.331.317-.628.7-.938,1.043s-.709.662-1.062.991a23.018,23.018,0,0,0-2.653,2.76,1.71,1.71,0,0,0-.719.8c-.11.331-.394.558-.526.877a12.84,12.84,0,0,1-1.271,2.118,9.843,9.843,0,0,0-1.145,2.88c-.264.965-.4,1.955-.651,2.922-.1.37-.269.715-.391,1.078a13.689,13.689,0,0,0-.381,2.256,9.127,9.127,0,0,1-.831,3.083,24.215,24.215,0,0,1-1,2.26c-.109.219-.279.4-.387.61a6.674,6.674,0,0,0-.892,2.136c-.035.246.045.335.279.339a1.367,1.367,0,0,0,.838-.363c.846-.641,1.709-1.257,2.535-1.984Z" transform="translate(-93.629 -2.54)" fill="url(#k)"/></g><path d="M16.6-2.122A18.685,18.685,0,1,1,9.314-.653,18.685,18.685,0,0,1,16.6-2.122Zm0,33.061a14.34,14.34,0,1,0-10.135-4.2,14.34,14.34,0,0,0,10.135,4.2Z" transform="translate(-22272.859 -5265.894)" fill="#1e2971"/></g><path d="M-53.671-9.9c.352.3.437.608.49,1.333a.628.628,0,0,0,.64.64.783.783,0,0,0,.778-.853c0-.7-.736-1.173-1.876-1.2C-53.7-9.986-53.724-9.943-53.671-9.9Zm.245,4.637a.755.755,0,0,0,.768-.842c0-.576-.64-1.1-1.78-1.087-.064,0-.075.043-.032.085a1.5,1.5,0,0,1,.437,1.173C-54.023-5.508-53.8-5.263-53.426-5.263Zm1.215,1.631c.181-1.055.629-3.22,1.119-5.533.011-.064-.1-.1-.117-.032-.8,2.313-1.482,4.126-2.026,5.458-.149.362-.277.576-.6.576-.107,0-.256-.011-.394-.021-.064,0-.075.107-.011.128a1.1,1.1,0,0,1,.853,1.013c0,.309-.064.842-.064,1.087,0,.405.213.7.768.7a.844.844,0,0,0,.949-.842c0-.544-.533-1.162-.533-1.77A4.056,4.056,0,0,1-52.21-3.632ZM-47.5-7.544v-1.9c.288-.16.394-.235.394-.352,0-.149-.128-.256-1.759-.405A26.007,26.007,0,0,1-48.8-7.544h-.842a4.2,4.2,0,0,0-1.471-.405c.043.5.043.927.043,1.578,0,1.141-.085,2.249-.085,2.484,0,.267.075.373.458.373.565,0,.821-.128.821-.426v-.352h1.066c-.021,2.75-.075,3.529-.075,3.721,0,.341.1.384.565.384.6,0,.885-.139.885-.448,0-.181-.043-.906-.064-3.657h1.151v.309c0,.33.107.405.576.405.586,0,.832-.139.832-.437,0-.224-.075-1.322-.075-2.452V-6.83c.3-.245.341-.288.341-.384s-.043-.16-.5-.533-.512-.384-.618-.384-.139.032-.672.586Zm0,3.038V-7.331h1.151v2.825Zm-2.377,0V-7.214c.1-.053.171-.085.213-.117h.864v1.567l-.011,1.258Zm7.484-3.582a1.769,1.769,0,0,1,.554,1.333c.032.362.171.576.533.576a.652.652,0,0,0,.629-.693,1.065,1.065,0,0,0-.448-.874c.426-.5.81-.97,1.215-1.461.394-.107.469-.16.469-.33s-.16-.267-1.546-.672a4.431,4.431,0,0,1-.064.49c-.139.714-.256,1.226-.405,1.77a2.65,2.65,0,0,0-.885-.245C-42.4-8.205-42.445-8.12-42.392-8.088Zm2.612,4.254A1.9,1.9,0,0,1-39.5-2.48c-.011.416.181.6.458.6.341,0,.6-.235.6-.746,0-.565-.458-1.119-1.333-1.365v-.725c.128-.1.171-.149.171-.235,0-.032-.011-.064-.085-.085l.235-.085v.2c-.011.405.181.6.469.6a.619.619,0,0,0,.618-.7c0-.608-.533-1.13-1.407-1.343-.064-.011-.107.053-.064.1a1.292,1.292,0,0,1,.362.842c-.426.011-.768.011-1.119,0,.629-.768,1.087-1.354,1.631-2.121.33-.075.437-.128.437-.256,0-.149-.1-.235-1.333-.746a7.146,7.146,0,0,1-.224.693c-.373,1.023-.65,1.727-.959,2.42-.213,0-.448-.011-.7-.021s-.554-.032-.81-.053c.426,1.365.469,1.45.618,1.45.075,0,.117-.053.235-.3.309-.1.586-.192.853-.277v1.13a7.912,7.912,0,0,0-1.1-.426A5.778,5.778,0,0,1-42-3.269,10.146,10.146,0,0,1-42.53-.679c-.032.053.053.107.1.064a7.419,7.419,0,0,0,1.4-2.505,1.143,1.143,0,0,0,.181-.064c-.011,1.258-.053,2.367-.053,2.6,0,.3.085.405.426.405.64,0,.757-.2.757-.5,0-.235-.053-1.311-.053-2.484Zm4.691.959h1v.128c0,.33.085.394.405.394.629,0,.853-.2.853-.512,0-.235-.064-1.077-.064-1.652v-.33c.32-.256.341-.288.341-.384s-.053-.171-.448-.49c-.512-.405-.554-.416-.661-.416s-.139.032-.576.512h-.853V-6.809h.768v.075c0,.267.1.341.426.341.512,0,.842-.128.842-.48,0-.267-.064-1.087-.064-1.5v-.586c.224-.16.245-.192.245-.277s-.021-.139-.394-.416c-.5-.373-.533-.384-.64-.384s-.139.021-.533.5h-2.345a4.979,4.979,0,0,0-1.3-.448c.032.352.032.672.032,1.546,0,.8-.053,1.77-.053,1.983,0,.267.043.309.352.309.554,0,.8-.064.8-.373v-.288h.714v1.183h-.736c-.1-.107-.394-.2-1.333-.426.043.629.053,1.023.053,1.684,0,.8-.053,1.631-.053,1.8,0,.33.075.394.448.394.458,0,.693-.139.693-.554v-.149h.906c-.011.949-.021,1.418-.021,1.556,0,.821.309,1,1.962,1,1.844,0,2.132-.245,2.132-.693a.856.856,0,0,0-.16-.469A.766.766,0,0,1-32.467-2a7.407,7.407,0,0,1,.107-.778c.011-.064-.053-.075-.085-.021a5.549,5.549,0,0,1-.522.9c-.256.352-.469.394-1.375.394-.672,0-.746-.053-.746-.373Zm-2.079-.213V-4.143h.917l-.011,1.055Zm.917-1.269h-.917v-.9a.639.639,0,0,0,.192-.16h.736Zm2.164-1.055v1.055h-1V-5.412Zm-1,2.324V-4.143h1v1.055Zm-1.866-4.978h.714v1.045h-.714Zm.7-1.258c.011.16.011.426.011,1.045,0,0-.536.229-.714,0s0-.917,0-.917a.806.806,0,0,0,.181-.128Zm1.93,0V-8.28h-.768v-.832c.128-.085.16-.117.16-.213Zm-.768,2.3V-8.067h.768v1.045Zm11.162-3.017a1.075,1.075,0,0,1,.437.832c.032.394.2.565.533.565a.6.6,0,0,0,.629-.65c0-.618-.789-.874-1.556-.842C-23.949-10.135-23.981-10.071-23.928-10.039Zm3.273,1.5c.075-.011.117-.053.117-.117S-20.58-8.77-21-9.09c-.469-.362-.5-.362-.608-.362-.085,0-.117.021-.661.938l-1.727.245a4.557,4.557,0,0,1-.33-1.13c.235-.107.309-.171.309-.32,0-.128-.235-.3-1.716-.32a6.729,6.729,0,0,1,.245.991,6.163,6.163,0,0,0,.267.949l-.5.075c-.224.032-.757.085-1.322.107l.181.352A10.1,10.1,0,0,1-25.7-7.811l.565-.085a4.894,4.894,0,0,0,.725,1.2,4.088,4.088,0,0,0,.864.736l-.117.128h-3.23a2.811,2.811,0,0,0-.991-.32c.309-.053.48-.171.48-.394,0-.107-.011-.458-.011-.789v-.7c.267-.107.309-.171.309-.245s-.1-.16-.458-.224c.235-.245.448-.49.65-.746.384-.064.437-.128.437-.256s-.16-.245-1.578-.7a5.792,5.792,0,0,1-.267.65,9.582,9.582,0,0,1-2.185,3.006c-.053.043.021.117.075.1a8.716,8.716,0,0,0,1.8-1.087l-.011.171c-.021.33-.064.768-.064.981,0,.181.107.245.309.256.032.458.032,1,.032,1.887,0,.736-.064,1.674-.064,2,0,.277.064.373.469.373.544,0,.8-.117.853-.405h.213a1.962,1.962,0,0,1-.277.3A7.927,7.927,0,0,1-30.313-.306c-.064.011-.043.107.021.107a11.381,11.381,0,0,0,4.232-1c.426,0,.544-.064.544-.2s-.085-.224-1.2-.874h3.134c.011.139.032.224.107.277-.437-.043-.97-.053-1.61-.053-.064,0-.075.117-.011.128A6.056,6.056,0,0,1-22.456-.551a1.1,1.1,0,0,0,.778.405.628.628,0,0,0,.65-.629c0-.437-.416-.842-1.279-1.055-.192-.043-.405-.085-.65-.117.565-.021.768-.171.768-.48,0-.267-.075-1.077-.075-2.036v-.618A2.578,2.578,0,0,0-22-5.316a4.109,4.109,0,0,0,.7.064c.512,0,.768-.235.768-.618a.59.59,0,0,0-.192-.426.542.542,0,0,1-.224-.448,5.234,5.234,0,0,1,.171-1c.011-.064-.053-.1-.085-.043-.576.97-.778,1.13-1.034,1.13a1.489,1.489,0,0,1-.416-.075,2.587,2.587,0,0,1-1.258-.874,2.392,2.392,0,0,1-.33-.458Zm-6.439,3.816v-.757a.632.632,0,0,0,.192-.139h3.315v.9Zm0,1.109v-.9h3.507v.9Zm0,.213h3.507v.906h-3.507Zm11.162-2.825,2.857-.906c.075-.021.1-.053.1-.139s-.085-.128-.544-.384c-.522-.3-.586-.309-.661-.309s-.1.064-.554,1.119l-1.194.384V-8.834c.32-.117.448-.2.448-.362s-.277-.277-1.7-.48a28,28,0,0,1,.053,2.836v.757l-.235.075c-.309.1-.714.213-1.194.32l.213.3A10.252,10.252,0,0,1-17.3-5.8l.171-.053c-.011,1.258-.043,2.111-.043,2.388,0,.981.362,1.215,1.524,1.215,1.588,0,2.079-.288,2.079-.832a.637.637,0,0,0-.2-.5c-.139-.171-.149-.256-.139-.608.011-.245.032-.5.075-.981.011-.064-.053-.075-.085-.021a10.69,10.69,0,0,1-.629,1.2,1.046,1.046,0,0,1-1,.458c-.309,0-.384-.075-.384-.373Zm2.761-2.516A11.457,11.457,0,0,1-14.4-8.813l.107.362a10.372,10.372,0,0,1,1.119-.075h.405c.075,2.91-.1,4.392-.554,5.49a5.017,5.017,0,0,1-2.868,2.7c-.064.021-.032.128.032.117A5.822,5.822,0,0,0-12.372-2.6c.682-1.1,1.013-2.559,1-5.661.213-.085.277-.16.277-.267h.885A36.355,36.355,0,0,1-10.5-2.608c-.149.725-.373.874-.693.917A5.679,5.679,0,0,1-12.414-1.7c-.064,0-.064.1,0,.117A1.458,1.458,0,0,1-11.337-.53c.053.213.171.3.426.3a1.64,1.64,0,0,0,1.61-1.3c.309-.949.384-2.3.426-6.535.267-.2.309-.267.309-.352s-.032-.171-.416-.49c-.49-.416-.554-.426-.661-.426s-.149.032-.661.6Zm10.927.725c.362-.394.661-.757,1.087-1.258.384-.149.458-.213.458-.373s-.075-.245-1.93-.6c0,.2-.011.416-.021.544-.053.65-.128,1.162-.213,1.684h-.213c-.085-.139-.416-.288-1.61-.554.043.629.043,1.055.043,3.763,0,2.772-.043,3.987-.043,4.158,0,.33.1.394.544.394.608,0,.874-.139.874-.554v-.416H.592v.48c0,.33.085.394.554.394.725,0,.97-.2.97-.512,0-.235-.064-1.141-.064-5.149V-7.342c.33-.288.352-.309.352-.416s-.021-.149-.544-.554-.576-.426-.7-.426c-.107,0-.149.021-.725.725ZM-3.267-1.436V-3.493H.592v2.057ZM.592-5.647v1.94H-3.267v-1.94Zm0-2.153v1.94H-3.267V-7.64a.639.639,0,0,0,.192-.16ZM13.054-9.325c.33.181.458.405.618.949.117.416.309.554.6.554a.63.63,0,0,0,.618-.64c0-.554-.608-1.045-1.812-.959C13.011-9.42,13-9.357,13.054-9.325ZM7.372-3.077a1.514,1.514,0,0,1-.778,1.471A.719.719,0,0,0,6.2-.935a.67.67,0,0,0,.693.661A1.08,1.08,0,0,0,8-1.478,2.808,2.808,0,0,0,7.489-3.12C7.457-3.173,7.372-3.141,7.372-3.077ZM8.854-2.8c-.064-.021-.128.043-.085.085a1.911,1.911,0,0,1,.277,1.407c-.011.117-.032.256-.032.362a.6.6,0,0,0,.64.629.8.8,0,0,0,.8-.885C10.453-1.8,10.005-2.47,8.854-2.8Zm1.983-.117c-.064-.011-.117.043-.075.085a2.182,2.182,0,0,1,.618,1.78.639.639,0,0,0,.682.7.8.8,0,0,0,.768-.874C12.83-1.915,12.265-2.64,10.837-2.918Zm2.057.043c-.064,0-.117.075-.064.107a2.282,2.282,0,0,1,1.109,1.78.674.674,0,0,0,.7.672.8.8,0,0,0,.8-.864C15.442-2.107,14.578-2.758,12.894-2.875Zm2.7-3.944a.1.1,0,0,0,.117-.107c0-.064-.021-.1-.341-.416-.544-.554-.586-.565-.672-.565s-.107.011-.714.874H12.745c.021-.224.043-.458.043-.693.011-.768.032-1.2.032-1.7.288-.139.341-.213.341-.33,0-.149-.117-.277-1.6-.437.032.352.053.768.053,1.855a9.994,9.994,0,0,1-.085,1.3h-.885c.1-.224.192-.458.277-.7.373-.267.394-.3.394-.384,0-.107-.032-.171-.469-.522-.49-.394-.544-.426-.65-.426s-.16.043-.693.672H8.6c.192-.288.373-.586.533-.885.33-.1.384-.139.384-.267s-.192-.245-1.738-.65a3.051,3.051,0,0,1-.117.682,9.365,9.365,0,0,1-1.94,3.934c-.043.043.021.107.075.075A7.522,7.522,0,0,0,6.86-6.35a.964.964,0,0,1,.32.682,2.529,2.529,0,0,1,.032.48.476.476,0,0,0,.512.49.523.523,0,0,0,.341-.128A7.153,7.153,0,0,1,5.7-2.832c-.053.032-.011.117.053.1a7.479,7.479,0,0,0,4.8-4.083H11.5A4.431,4.431,0,0,1,8.545-2.95c-.064.021-.032.128.032.117a4.584,4.584,0,0,0,4.136-3.987h.021a4.85,4.85,0,0,0,.416,2.473,3.169,3.169,0,0,0,1.2,1.375.585.585,0,0,0,.309.117.212.212,0,0,0,.181-.117,2.091,2.091,0,0,1,1-.938c.064-.021.075-.075.011-.1a5.782,5.782,0,0,1-1.876-1.066A2.965,2.965,0,0,1,12.83-6.819Zm-8.624.373a11.993,11.993,0,0,0,.927-1,.671.671,0,0,1,.267.48,2.442,2.442,0,0,1,.032.416.4.4,0,0,0,.437.448.472.472,0,0,0,.256-.075,9.06,9.06,0,0,1-.618,1.066A.814.814,0,0,0,8.321-5.4C8.321-5.9,7.809-6.361,6.967-6.446ZM9.621-8.184a11.436,11.436,0,0,1-.426,1.29C9.131-7.267,8.726-7.555,8-7.587c.16-.192.309-.394.448-.6ZM27.446-7.171a.093.093,0,0,0,.107-.1c0-.1-.053-.149-.437-.533-.565-.576-.6-.586-.7-.586s-.128.021-.853,1H24.5V-9.452c.33-.149.426-.224.426-.352,0-.171-.192-.267-1.77-.373a14.1,14.1,0,0,1,.085,1.9v.9H21.988a10.209,10.209,0,0,1-1.194-.075L20.9-7.1a6.737,6.737,0,0,1,1.087-.075h.64a11.805,11.805,0,0,1-2.2,4.861V-6.531c.267-.107.33-.181.33-.277,0-.117-.117-.213-.736-.448a14.616,14.616,0,0,0,1.034-1.77c.384-.107.48-.192.48-.341s-.192-.277-1.652-.832a6.963,6.963,0,0,1-.245,1.023,17.446,17.446,0,0,1-1.94,4.35c-.043.053.043.128.1.085a9.184,9.184,0,0,0,1.4-1.407l-.032,3.113C19.141-1.553,19.1-.828,19.1-.551s.064.362.469.362c.576,0,.885-.16.885-.458,0-.181-.011-.522-.011-1.482a8.327,8.327,0,0,0,2.825-3.23L23.224-3h-.267a9.134,9.134,0,0,1-1.269-.075l.107.362a9.737,9.737,0,0,1,1.162-.075h.256c-.021,1.269-.043,1.93-.043,2.185,0,.309.075.394.565.394.65,0,.832-.139.832-.458,0-.235-.021-.768-.053-2.121h1.151c.1,0,.128-.043.128-.117s-.032-.107-.267-.416c-.352-.469-.384-.469-.469-.469s-.1.021-.544.789L24.45-7.171h.043A11.114,11.114,0,0,0,25.548-3.61,5.514,5.514,0,0,0,26.6-2.171a.384.384,0,0,0,.245.139.305.305,0,0,0,.235-.171,2.2,2.2,0,0,1,.938-.885c.064-.021.075-.085.021-.117a6.979,6.979,0,0,1-1.578-1.215,7.082,7.082,0,0,1-1.77-2.75Zm2.718,3.347a1.517,1.517,0,0,1-.224,1.29,1.089,1.089,0,0,0-.235.661.46.46,0,0,0,.458.48.712.712,0,0,0,.65-.8,2.8,2.8,0,0,0-.544-1.663C30.228-3.909,30.154-3.888,30.164-3.824Zm1.588,1.407a1.328,1.328,0,0,0-.927-1.269c-.064-.021-.1,0-.053.053A1.345,1.345,0,0,1,31-2.758c-.011.235-.032.373-.032.49,0,.277.128.437.33.437C31.55-1.83,31.753-2.075,31.753-2.416Zm.117-.256c.032.277.149.426.341.426.256,0,.416-.2.416-.49,0-.448-.3-.97-1.173-1.119-.064-.011-.107.021-.053.064A1.587,1.587,0,0,1,31.87-2.672Zm2.26-3.816c-.373-.362-.405-.373-.48-.373s-.107.011-.6.672H32.9V-7.6h1.354c.085,0,.128-.032.128-.107s-.021-.107-.33-.405c-.373-.362-.405-.373-.48-.373s-.107.011-.6.672H32.9v-1.2c.149-.043.213-.107.213-.2h1.4a.1.1,0,0,0,.107-.107c0-.064-.011-.1-.33-.394-.416-.394-.448-.405-.533-.405s-.117.021-.661.693H31.571c-.032-.128-.245-.213-1.365-.49.043.586.043.906.043,2.58,0,1.407-.075,2.825-.075,3.038,0,.288.053.394.416.394.458,0,.7-.128.714-.437h1.951c0,.235,0,.469-.011.682-.16-.245-.533-.405-1.183-.405-.064,0-.085.043-.032.075a1.327,1.327,0,0,1,.672.853c.075.213.149.277.33.277a.262.262,0,0,0,.16-.053,5.684,5.684,0,0,1-.171.949.559.559,0,0,1-.48.469,7.868,7.868,0,0,1-1.269.032c-.064,0-.064.085,0,.107.522.192.736.437.821.8.085.32.139.362.394.362a1.472,1.472,0,0,0,1.375-.864,7.476,7.476,0,0,0,.48-2.814,1.486,1.486,0,0,0,.267-.267c-.011.341-.032.512-.032.64,0,.267.085.309.352.309.426,0,.672-.085.672-.394v-.2h.512A3.931,3.931,0,0,1,33.394-.284c-.064.021-.032.117.032.107a4.089,4.089,0,0,0,3.827-3.614h.032a5.018,5.018,0,0,0,.405,2.132,3.363,3.363,0,0,0,.981,1.3.317.317,0,0,0,.16.053c.085,0,.107-.011.192-.171a1.9,1.9,0,0,1,.906-.991.06.06,0,0,0,0-.117,4.654,4.654,0,0,1-1.642-.97,2.918,2.918,0,0,1-.864-1.237h.512v.085c0,.267.1.341.426.341.458,0,.778-.128.778-.48,0-.267-.064-.746-.064-1.13v-.16c.288-.235.3-.256.3-.341S39.354-5.6,38.97-5.9c-.448-.352-.49-.362-.586-.362s-.128.021-.565.565h-.5v-.832c.181-.107.224-.16.224-.245h.586c.075,0,.117-.043.117-.1s-.021-.1-.288-.384c-.32-.341-.352-.352-.416-.352s-.1.011-.512.618h-.661a8.183,8.183,0,0,1-1.119-.075,7.731,7.731,0,0,0,1.844-2.3,5.662,5.662,0,0,0,.981,2.089A3.44,3.44,0,0,0,39-6.446a.233.233,0,0,0,.149.053c.064,0,.1-.032.139-.128a1.837,1.837,0,0,1,.768-.949c.053-.032.064-.085,0-.107a5.989,5.989,0,0,1-1.365-.586,4.6,4.6,0,0,1-1.429-1.3c.224-.043.309-.1.309-.213,0-.149-.192-.245-1.642-.608a6.744,6.744,0,0,1-.267,1.034,8.562,8.562,0,0,1-1.482,2.814ZM35.324-6.7a8.073,8.073,0,0,1,.832-.075c.021.213.021.5.032,1.077h-.426A3.238,3.238,0,0,0,34.6-6.094c.032.352.032.608.032,1.141,0,.213,0,.394-.011.544a2.67,2.67,0,0,0-.352-.341c-.405-.352-.458-.373-.554-.373s-.128.021-.565.565H32.9V-5.977h1.429c.085,0,.128-.032.128-.107,0-.053-.011-.085-.192-.267a5.074,5.074,0,0,0,.959-.682Zm2.612,1.215V-4h-.661a5.953,5.953,0,0,0,.043-.768v-.714ZM35.6-4V-5.369a1.087,1.087,0,0,0,.171-.117h.416v.618A7.555,7.555,0,0,1,36.145-4ZM31.849-7.811H31.3V-9.09c.085-.053.139-.1.181-.128h.341c.021.224.021.448.021.661ZM31.3-5.977h.544v1.418H31.3Zm.544-.213H31.3V-7.6h.544ZM-60.483,9.04c.682-.288,1.2-.522,1.8-.821a3.738,3.738,0,0,1,.991-.33.366.366,0,0,0,.309-.394c0-.235-.171-.448-.682-.9s-.714-.554-.821-.554a.427.427,0,0,0-.3.107,1.258,1.258,0,0,1-.394.1c-1.524.181-2.708.288-4.35.458-.245.021-.362.043-.576.043a1.344,1.344,0,0,1-.789-.3.219.219,0,0,0-.1-.053c-.032,0-.043.032-.053.085a2.273,2.273,0,0,0-.032.394,1.008,1.008,0,0,0,.362.618c.373.373.544.469.7.469a.635.635,0,0,0,.3-.107,1.748,1.748,0,0,1,.544-.181,29.29,29.29,0,0,1,4.051-.554c.085,0,.128.021.128.075a.311.311,0,0,1-.064.16A7.041,7.041,0,0,1-60.6,8.795a2.771,2.771,0,0,0-.586-.394,1.886,1.886,0,0,0-.789-.309c-.1,0-.224.043-.554.256-.043.032-.064.043-.064.064s.011.032.075.064c.405.213.5.341.5.554a7.968,7.968,0,0,1-.544,2.4,7.06,7.06,0,0,1-2.047,2.921.076.076,0,0,0-.032.064c0,.032.032.053.075.053a.116.116,0,0,0,.053-.011,6.334,6.334,0,0,0,2.782-2.324,8.451,8.451,0,0,0,1.013-2.527.942.942,0,0,1,.139-.32A.422.422,0,0,0-60.483,9.04ZM-48.17,6.194c-.085,0-.117.011-.128.043s.032.053.085.085a2.549,2.549,0,0,1,.832,1.13c.107.267.256.362.437.362a.462.462,0,0,0,.5-.469.933.933,0,0,0-.533-.789A2.46,2.46,0,0,0-48.17,6.194Zm1.055-.906c-.075,0-.117.011-.117.043s.021.064.085.1a2.487,2.487,0,0,1,.885.97c.117.245.235.352.448.352a.445.445,0,0,0,.469-.48c0-.3-.149-.5-.554-.725A2.9,2.9,0,0,0-47.114,5.288ZM-49.8,9.168a3.681,3.681,0,0,1,1.461,1.311.918.918,0,0,0,.714.48.689.689,0,0,0,.693-.714c0-.757-1-1.4-2.868-1.4,0-.405,0-.821.011-1.237.011-.682.085-.778.149-.874a.5.5,0,0,0,.107-.267c0-.139-.1-.267-.49-.544a1.641,1.641,0,0,0-.746-.373,1.742,1.742,0,0,0-.672.235c-.075.043-.085.053-.085.075s.021.053.085.085c.373.213.49.373.5.714.011.469.011,1.183.011,2.527,0,1.29-.021,2.676-.064,3.2a1.022,1.022,0,0,1-.1.426.633.633,0,0,0-.075.277,1.5,1.5,0,0,0,.192.746c.213.426.437.565.714.565s.49-.224.49-.65c0-.842-.011-1.45-.021-2.527C-49.8,10.2-49.8,9.85-49.8,9.168ZM-35.91,7.036c-.085,0-.117.021-.117.053s.032.053.085.085a2.846,2.846,0,0,1,.906.959c.16.288.256.384.469.384a.421.421,0,0,0,.416-.458.847.847,0,0,0-.576-.757A2.761,2.761,0,0,0-35.91,7.036Zm.864-.874c0,.043.011.053.085.085a2.03,2.03,0,0,1,.917.874c.139.245.235.32.437.32a.412.412,0,0,0,.416-.448c0-.373-.192-.544-.565-.725a2.261,2.261,0,0,0-.9-.171C-34.951,6.1-35.047,6.13-35.047,6.162Zm1.727,6.194a.542.542,0,0,0,.608-.554,1.773,1.773,0,0,0-1.055-1.322c-.064-.021-.16-.053-.362-.128a21.765,21.765,0,0,1-3.486-2.079,1.415,1.415,0,0,0-.693-.309.987.987,0,0,0-.64.277c-.544.448-1.2.991-2.111,1.7a.434.434,0,0,1-.3.128.906.906,0,0,1-.458-.171c-.075-.043-.075-.043-.1-.043s-.043.021-.053.075a.92.92,0,0,0-.021.267.719.719,0,0,0,.341.565c.554.448.8.544,1,.544.16,0,.245-.064.458-.309.682-.778,1.13-1.333,1.631-1.834a.756.756,0,0,1,.277-.213c.107,0,.277.117.512.32.81.7,1.78,1.556,2.548,2.132C-34.172,12.185-33.693,12.356-33.32,12.356Zm7.313-4.094c0-.768-.9-1.343-2.367-1.343a3.28,3.28,0,0,0-.352.021c-.053.011-.075.043-.075.064a.059.059,0,0,0,.032.053A3.471,3.471,0,0,1-27.446,8.5c.213.362.394.533.746.533A.691.691,0,0,0-26.006,8.262Zm-1.279,5.106A.455.455,0,0,0-27,13.262c.128-.085.245-.181.416-.3a19.223,19.223,0,0,0,5.629-5.49.064.064,0,0,0,.011-.043.073.073,0,0,0-.075-.075A.132.132,0,0,0-21.1,7.4a23.448,23.448,0,0,1-5.981,4.328,1.468,1.468,0,0,1-.6.171,1.133,1.133,0,0,1-.693-.245c-.064-.043-.1-.064-.117-.064-.043,0-.053.011-.064.085-.011.139-.021.33-.021.426a.883.883,0,0,0,.224.437,5.486,5.486,0,0,0,.714.693A.5.5,0,0,0-27.286,13.368Zm11.407,1.066a5.339,5.339,0,0,0,2.686-2.42A7.027,7.027,0,0,0-12.5,9.648c.458-.032.906-.053,1.29-.064.341,0,.586,0,.874.021a7.329,7.329,0,0,0,.778.064c.341,0,.48-.1.48-.352,0-.235-.117-.384-.618-.64a1.386,1.386,0,0,0-.693-.235.978.978,0,0,0-.341.128,1.689,1.689,0,0,1-.672.149c-.288.021-.64.064-1.023.107.011-.235.011-.32.032-.48a.623.623,0,0,0,.043-.2c0-.192-.053-.267-.544-.533a1.905,1.905,0,0,0-.256-.128c.448-.117.864-.235,1.237-.373.181-.064.426-.149.64-.213S-11,6.748-11,6.6s-.107-.3-.65-.64a2.031,2.031,0,0,0-.9-.405.872.872,0,0,0-.224.032c-.064.021-.064.032-.064.053s0,.021.032.064a.505.505,0,0,1,.149.309c0,.075-.043.128-.171.213A15.88,15.88,0,0,1-16.54,7.867a.071.071,0,0,0-.043.075.073.073,0,0,0,.075.075A23.383,23.383,0,0,0-13.9,7.654a.856.856,0,0,1,.224.7c0,.2,0,.405-.011.6-.714.085-1.418.171-1.994.235a7.948,7.948,0,0,1-.927.085,1.361,1.361,0,0,1-.789-.181c-.053-.032-.053-.032-.075-.032s-.032.021-.043.053a1.1,1.1,0,0,0-.064.256c0,.064.064.192.352.469.384.384.544.49.714.49a.506.506,0,0,0,.267-.075,1.731,1.731,0,0,1,.576-.192c.608-.128,1.279-.224,1.93-.3a8.484,8.484,0,0,1-.394,1.887,6.025,6.025,0,0,1-1.812,2.676.064.064,0,0,0-.032.064c0,.021.021.043.075.043ZM-1.53,9.061a2,2,0,0,1-.043-.394.592.592,0,0,1,.032-.16.585.585,0,0,0,.053-.181c0-.128-.16-.235-.533-.405a1.573,1.573,0,0,0-.586-.171,1.228,1.228,0,0,0-.586.341c-.032.032-.064.064-.064.1,0,.053.032.075.117.1.373.107.437.16.544.533.1.341.192.682.288,1.034-.362.1-.736.2-1.109.3A5.622,5.622,0,0,1-4.1,10.3a.8.8,0,0,1-.384-.139.172.172,0,0,0-.117-.043c-.043,0-.053.032-.053.117a.77.77,0,0,0,.362.736c.288.224.437.309.6.309a.242.242,0,0,0,.192-.1.39.39,0,0,1,.171-.107q.592-.256,1.215-.48c.2.8.394,1.588.554,2.335a1.924,1.924,0,0,1,.075.458,1.264,1.264,0,0,0,.032.256c.192.469.458.778.81.778a.406.406,0,0,0,.384-.448,2.4,2.4,0,0,0-.149-.768c-.267-.959-.544-1.94-.8-2.921C-.634,10.1-.048,9.925.506,9.765A.158.158,0,0,1,.57,9.754c.032,0,.053.011.053.043a.158.158,0,0,1-.011.064,7.086,7.086,0,0,1-.778,1.354.152.152,0,0,0-.021.064c0,.032.011.064.053.064a.251.251,0,0,0,.085-.021,16,16,0,0,0,1.524-.949,2.481,2.481,0,0,1,.5-.235c.245-.1.288-.16.288-.33s-.139-.32-.554-.65S1.1,8.72.976,8.72c-.107,0-.181.085-.256.16A.519.519,0,0,1,.5,9.029c-.629.192-1.258.373-1.887.565Zm15.138.288a2.788,2.788,0,0,0-.405.032c-.277.032-.384.043-.65.064-1.461.1-2.345.16-4.19.256-.224.011-.437.021-.693.021a1.022,1.022,0,0,1-.778-.3c-.043-.032-.043-.032-.064-.032s-.043.021-.053.075a2.358,2.358,0,0,0-.043.405c0,.149.139.362.522.768A.939.939,0,0,0,7.83,11a.592.592,0,0,0,.309-.085,1.1,1.1,0,0,1,.533-.139c1.556-.171,3.2-.256,4.136-.256.416,0,1.109.011,1.375.011.352,0,.629-.139.629-.469,0-.224-.128-.416-.533-.586A1.979,1.979,0,0,0,13.608,9.349Zm7.74-2.9c-.043,0-.075.011-.075.043s0,.021.021.043a2.966,2.966,0,0,1,.693,1.738c.043.437.277.629.64.629a.72.72,0,0,0,.682-.778c0-.832-.746-1.461-1.93-1.674Zm-.33,2.431c0-.853-.917-1.524-2.079-1.652-.064,0-.085.021-.085.053s0,.021.021.043a2.645,2.645,0,0,1,.8,1.62c.085.544.33.693.64.693A.71.71,0,0,0,21.017,8.88Zm5.618-1.269c0-.181-.117-.32-.608-.672a2.338,2.338,0,0,0-.949-.48,1.314,1.314,0,0,0-.522.149c-.064.032-.064.043-.064.064s0,.032.064.075c.32.213.437.426.437.586a1.9,1.9,0,0,1-.149.7,15.658,15.658,0,0,1-4.126,6.077.108.108,0,0,0-.043.075.076.076,0,0,0,.085.075.154.154,0,0,0,.075-.021c2.036-1.034,3.721-2.505,5.32-5.778a1.623,1.623,0,0,1,.309-.49A.488.488,0,0,0,26.636,7.612ZM35.889,9.04c.682-.288,1.2-.522,1.8-.821a3.738,3.738,0,0,1,.991-.33.366.366,0,0,0,.309-.394c0-.235-.171-.448-.682-.9s-.714-.554-.821-.554a.427.427,0,0,0-.3.107,1.258,1.258,0,0,1-.394.1c-1.524.181-2.708.288-4.35.458-.245.021-.362.043-.576.043a1.344,1.344,0,0,1-.789-.3.219.219,0,0,0-.1-.053c-.032,0-.043.032-.053.085a2.273,2.273,0,0,0-.032.394,1.008,1.008,0,0,0,.362.618c.373.373.544.469.7.469a.635.635,0,0,0,.3-.107,1.748,1.748,0,0,1,.544-.181,29.29,29.29,0,0,1,4.051-.554c.085,0,.128.021.128.075a.311.311,0,0,1-.064.16,7.041,7.041,0,0,1-1.151,1.439,2.771,2.771,0,0,0-.586-.394,1.886,1.886,0,0,0-.789-.309c-.1,0-.224.043-.554.256-.043.032-.064.043-.064.064s.011.032.075.064c.405.213.5.341.5.554a7.968,7.968,0,0,1-.544,2.4,7.06,7.06,0,0,1-2.047,2.921.076.076,0,0,0-.032.064c0,.032.032.053.075.053a.116.116,0,0,0,.053-.011,6.334,6.334,0,0,0,2.782-2.324,8.451,8.451,0,0,0,1.013-2.527.942.942,0,0,1,.139-.32A.422.422,0,0,0,35.889,9.04Zm13.859.309a2.788,2.788,0,0,0-.405.032c-.277.032-.384.043-.65.064-1.46.1-2.345.16-4.19.256-.224.011-.437.021-.693.021a1.022,1.022,0,0,1-.778-.3c-.043-.032-.043-.032-.064-.032s-.043.021-.053.075a2.359,2.359,0,0,0-.043.405c0,.149.139.362.522.768A.939.939,0,0,0,43.97,11a.592.592,0,0,0,.309-.085,1.1,1.1,0,0,1,.533-.139c1.556-.171,3.2-.256,4.136-.256.416,0,1.109.011,1.375.011.352,0,.629-.139.629-.469,0-.224-.128-.416-.533-.586A1.979,1.979,0,0,0,49.748,9.349Z" transform="translate(-22484.527 -5310.19)" fill="#383838"/><path d="M-60.895-10.131c2.228-.3,4.658-.5,5.266-.5.187,0,.249.031.249.156a2.271,2.271,0,0,1-.109.608c-1.231,4.16-2.945,6.964-5.219,8.912-.062.062-.078.093-.078.14a.106.106,0,0,0,.109.109.192.192,0,0,0,.109-.031c2.991-1.527,5.219-3.833,7.026-8.678a1.089,1.089,0,0,1,.483-.686.493.493,0,0,0,.265-.452c0-.249-.28-.561-.95-1.106-.623-.467-.888-.623-1.106-.623a.527.527,0,0,0-.358.14,1.181,1.181,0,0,1-.67.249c-1.589.14-3.661.327-5.8.53a2.343,2.343,0,0,0-1.153-.421,1.878,1.878,0,0,0-.561.109c-.093.031-.125.062-.125.093,0,.047,0,.047.093.125a1.883,1.883,0,0,1,.67.841,4.511,4.511,0,0,1,.125,1.106c.016.483.016.608.016,1.464,0,.343-.016.623-.016.763a1.669,1.669,0,0,0,.452.888.869.869,0,0,0,.608.3.611.611,0,0,0,.53-.265c.156-.187.218-.405.218-1.059C-60.817-7.685-60.863-8.854-60.895-10.131Zm19.459.7c0-1.122-1.309-1.963-3.459-1.963a4.794,4.794,0,0,0-.514.031c-.078.016-.109.062-.109.093a.086.086,0,0,0,.047.078,5.072,5.072,0,0,1,1.932,2.1c.312.53.576.779,1.091.779A1.01,1.01,0,0,0-41.436-9.43Zm-1.87,7.463a.665.665,0,0,0,.421-.156c.187-.125.358-.265.608-.436a28.093,28.093,0,0,0,8.226-8.024.094.094,0,0,0,.016-.062.106.106,0,0,0-.109-.109.192.192,0,0,0-.125.062,34.268,34.268,0,0,1-8.74,6.325,2.145,2.145,0,0,1-.872.249,1.656,1.656,0,0,1-1.013-.358c-.093-.062-.14-.093-.171-.093-.062,0-.078.016-.093.125-.016.2-.031.483-.031.623a1.29,1.29,0,0,0,.327.639A8.017,8.017,0,0,0-43.819-2.17.725.725,0,0,0-43.305-1.968ZM-22.21-6.034c0,1,.016,2.43.016,2.976,0,.249-.093.358-.421.358a9.886,9.886,0,0,1-1.963-.2c-.078,0-.093.031-.093.078,0,.031.016.078.093.125.576.358.888.608,1.184.826a3.42,3.42,0,0,1,.872.9.74.74,0,0,0,.639.436,1.216,1.216,0,0,0,1-.67,2.581,2.581,0,0,0,.452-1.387c-.047-.686-.062-1.122-.125-2.726-.031-.9-.062-2.041-.078-3.412.327-.016.608-.031.826-.031.436,0,.919.016,1.418.047.467.031.872.047,1.106.047a.477.477,0,0,0,.467-.53c0-.327-.125-.561-.67-.841a2.461,2.461,0,0,0-1.044-.358,1.008,1.008,0,0,0-.5.171,2.319,2.319,0,0,1-.795.218c-.452.062-.576.078-.81.109v-.421c0-.841.031-1.091.187-1.278A.658.658,0,0,0-20.278-12c0-.2-.14-.389-.779-.841a1.911,1.911,0,0,0-1.059-.452,2.641,2.641,0,0,0-1.013.5c-.078.062-.109.093-.109.125,0,.047.047.062.125.093.53.2.81.405.826.872l.016,1.994c-.935.109-1.87.2-2.726.28-1.091.093-1.776.156-2.166.156a1.948,1.948,0,0,1-1.184-.374.207.207,0,0,0-.109-.047c-.031,0-.047,0-.078.109a1.831,1.831,0,0,0-.078.452c0,.218.265.514.514.763.5.483.763.686,1.044.686a1.124,1.124,0,0,0,.5-.125,3.5,3.5,0,0,1,.826-.249c.763-.14,1.558-.265,2.337-.374a18.014,18.014,0,0,1-5.967,6.045c-.078.047-.093.078-.093.125,0,.062.031.078.14.078A13.51,13.51,0,0,0-22.179-7.28ZM-1.147-7.841a4.075,4.075,0,0,0-.592.047c-.405.047-.561.062-.95.093-2.134.14-3.428.234-6.123.374-.327.016-.639.031-1.013.031a1.493,1.493,0,0,1-1.137-.436c-.062-.047-.062-.047-.093-.047s-.062.031-.078.109a3.447,3.447,0,0,0-.062.592c0,.218.2.53.763,1.122a1.372,1.372,0,0,0,.841.53.865.865,0,0,0,.452-.125,1.614,1.614,0,0,1,.779-.2C-6.085-6-3.686-6.127-2.315-6.127c.608,0,1.62.016,2.01.016.514,0,.919-.2.919-.686,0-.327-.187-.608-.779-.857A2.892,2.892,0,0,0-1.147-7.841Zm9.208-3.973A4.785,4.785,0,0,1,9.837-10.1a1.151,1.151,0,0,0,.95.639.938.938,0,0,0,1-1.044c0-1.013-1.2-1.574-2.96-1.574a6.215,6.215,0,0,0-.748.047c-.093.016-.125.047-.125.093S7.968-11.861,8.061-11.814Zm2.2,4.612c0-.95-1.028-1.542-2.649-1.589h-.3a3.286,3.286,0,0,0-.732.062c-.078.016-.109.047-.109.109,0,.047.031.093.125.14A3.868,3.868,0,0,1,8.2-7c.343.545.639.748,1.106.748A.884.884,0,0,0,10.258-7.2Zm-.935,5.64a.72.72,0,0,0,.53-.218,31.587,31.587,0,0,0,9.1-8.086.14.14,0,0,0,.016-.078.1.1,0,0,0-.093-.109.215.215,0,0,0-.14.078A46.842,46.842,0,0,1,9.7-3.946a1.961,1.961,0,0,1-.826.249,1.382,1.382,0,0,1-1.028-.561q-.093-.093-.14-.093c-.031,0-.062.047-.078.109a3.557,3.557,0,0,0-.125.857c0,.2.156.5.608.982C8.762-1.765,9.011-1.563,9.323-1.563Zm20.222-6.7a2.915,2.915,0,0,1-.062-.576.866.866,0,0,1,.047-.234.855.855,0,0,0,.078-.265c0-.187-.234-.343-.779-.592a2.3,2.3,0,0,0-.857-.249,1.8,1.8,0,0,0-.857.5c-.047.047-.093.093-.093.14,0,.078.047.109.171.14.545.156.639.234.795.779.14.5.28,1,.421,1.511-.53.14-1.075.3-1.62.436a8.216,8.216,0,0,1-1,.218,1.175,1.175,0,0,1-.561-.2.251.251,0,0,0-.171-.062c-.062,0-.078.047-.078.171a1.126,1.126,0,0,0,.53,1.075c.421.327.639.452.872.452a.354.354,0,0,0,.28-.14.57.57,0,0,1,.249-.156q.865-.374,1.776-.7c.3,1.168.576,2.321.81,3.412a2.812,2.812,0,0,1,.109.67,1.847,1.847,0,0,0,.047.374c.28.686.67,1.137,1.184,1.137A.594.594,0,0,0,31.4-1.08,3.505,3.505,0,0,0,31.181-2.2c-.389-1.4-.795-2.836-1.168-4.269.841-.28,1.7-.53,2.508-.763a.232.232,0,0,1,.093-.016c.047,0,.078.016.078.062a.232.232,0,0,1-.016.093A10.356,10.356,0,0,1,31.54-5.115a.221.221,0,0,0-.031.093c0,.047.016.093.078.093a.367.367,0,0,0,.125-.031,23.376,23.376,0,0,0,2.228-1.387,3.626,3.626,0,0,1,.732-.343c.358-.14.421-.234.421-.483s-.2-.467-.81-.95c-.592-.467-.888-.639-1.075-.639-.156,0-.265.125-.374.234a.758.758,0,0,1-.327.218c-.919.28-1.838.545-2.758.826ZM46.59-9.43c0-1.122-1.309-1.963-3.459-1.963a4.794,4.794,0,0,0-.514.031c-.078.016-.109.062-.109.093a.086.086,0,0,0,.047.078,5.072,5.072,0,0,1,1.932,2.1c.312.53.576.779,1.091.779A1.01,1.01,0,0,0,46.59-9.43ZM44.72-1.968a.665.665,0,0,0,.421-.156c.187-.125.358-.265.608-.436a28.093,28.093,0,0,0,8.226-8.024.094.094,0,0,0,.016-.062.106.106,0,0,0-.109-.109.192.192,0,0,0-.125.062,34.268,34.268,0,0,1-8.74,6.325,2.145,2.145,0,0,1-.872.249,1.656,1.656,0,0,1-1.013-.358c-.093-.062-.14-.093-.171-.093-.062,0-.078.016-.093.125-.016.2-.031.483-.031.623a1.29,1.29,0,0,0,.327.639A8.017,8.017,0,0,0,44.206-2.17.725.725,0,0,0,44.72-1.968Z" transform="translate(-22486.488 -5273.101)" fill="#383838"/></g></svg>