<svg xmlns="http://www.w3.org/2000/svg" xmlns:xlink="http://www.w3.org/1999/xlink" width="399" height="80" viewBox="0 0 399 80"><defs><linearGradient id="a" x1="0.5" y1="1" x2="0.5" gradientUnits="objectBoundingBox"><stop offset="0" stop-color="#1e2971"/><stop offset="0.034" stop-color="#1d357c"/><stop offset="0.125" stop-color="#1c5397"/><stop offset="0.226" stop-color="#1c6bad"/><stop offset="0.34" >stop-color="#1b7ebe"/><stop offset="0.475" stop-color="#1b8bca"/><stop offset="0.648" stop-color="#1b92d1"/><stop offset="1" stop-color="#1b95d4"/></linearGradient><radialGradient id="b" cx="0.492" cy="0.477" r="0.5" gradientUnits="objectBoundingBox"><stop offset="0" stop-color="#f7f8f8"/><stop offset="0.351" stop-color="#1b95d4"/><stop offset="1" stop-color="#1e2971"/></radialGradient><clipPath id="e"><path d="M42.27,47.217A13.286,13.286,0,1,1,28.984,33.931,13.286,13.286,0,0,1,42.27,47.217Z" transform="translate(-15.698 -33.931)" fill="none"/></clipPath><radialGradient id="f" cx="0.507" cy="0.486" r="0.491" gradientUnits="objectBoundingBox"><stop offset="0" stop-color="#5eb0e3"/><stop offset="0.23" stop-color="#5eb0e3"/><stop offset="0.397" stop-color="#5aabe0"/><stop offset="0.567" stop-color="#509fd7"/><stop offset="0.739" stop-color="#3f8bca"/><stop offset="0.911" stop-color="#276eb7"/><stop offset="1" stop-color="#195dab"/></radialGradient><radialGradient id="g" cx="0.5" cy="0.5" r="0.483" gradientTransform="translate(-0.038) scale(1.075 1)" gradientUnits="objectBoundingBox"><stop offset="0" stop-color="#c0dd98"/><stop offset="1" stop-color="#93c530"/></radialGradient><radialGradient id="h" cx="0.486" cy="0" r="0.991" gradientTransform="translate(-4.193) scale(0.86 1.125)" gradientUnits="objectBoundingBox"><stop offset="0" stop-color="#fff"/><stop offset="0.086" stop-color="#f7f7f7"/><stop offset="0.218" stop-color="#e2e1e1"/><stop offset="0.379" stop-color="#c0bfbf"/><stop offset="0.563" stop-color="#908e8e"/><stop offset="0.766" stop-color="#535050"/><stop offset="0.983" stop-color="#0a0606"/><stop offset="1" stop-color="#040000"/></radialGradient><radialGradient id="i" cx="0.497" cy="0.978" r="1.139" gradientTransform="translate(0.197) scale(0.603 1)" gradientUnits="objectBoundingBox"><stop offset="0" stop-color="#4875b9"/><stop offset="0.668" stop-color="#fff"/></radialGradient><clipPath id="j"><ellipse cx="20.718" cy="16.809" rx="20.718" ry="16.809" transform="matrix(0.035, -0.999, 0.999, 0.035, 0, 41.41)" fill="none"/></clipPath><linearGradient id="k" x1="0.915" y1="-0.085" x2="0.398" y2="1.145" gradientUnits="objectBoundingBox"><stop offset="0" stop-color="#1e2971"/><stop offset="0.698" stop-color="#1b95d4"/><stop offset="0.98" stop-color="#fff" stop-opacity="0"/></linearGradient></defs><g transform="translate(-60 -9177)"><rect width="399" height="80" transform="translate(60 9177)" fill="#fff"/><path d="M4,4V76H395V4H4M0,0H399V80H0Z" transform="translate(60 9177)" fill="#1b95d4"/><g transform="translate(78.549 9189.355)" style="isolation:isolate"><path d="M2.554,66.951a1.775,1.775,0,0,1-1.1-3.172c4.66-3.628,13.442-9.072,24.136-9.072,16.041,0,21.56,7.417,42.953,7.417s37.085-7.591,47.607-16.56c5.691-4.312,17.593-15.525,35.879-15.525,17.3,0,38.943,6.177,60.538,32.136a2.824,2.824,0,0,1-2.154,4.639Z" transform="translate(-0.06 -16.41)" fill="url(#a)"/><ellipse cx="5.7" cy="5.7" rx="5.7" ry="5.7" transform="translate(135.344 15.761)" fill="url(#b)"/><ellipse cx="4.312" cy="4.312" rx="4.312" ry="4.312" transform="translate(133.107 27.153)" fill="url(#b)"/><ellipse cx="2.882" cy="2.882" rx="2.882" ry="2.882" transform="translate(126.272 33.284)" fill="url(#b)"/><path d="M14.619-2.122A16.711,16.711,0,1,1,8.106-.809a16.711,16.711,0,0,1,6.513-1.313Zm0,29.568a12.824,12.824,0,1,0-9.064-3.755,12.824,12.824,0,0,0,9.064,3.755Z" transform="translate(83.822 15.722)" fill="#1e2971"/><path d="M68.129,33.452q0,.37-.739.336H66.2q-.476,0-.565.2a4.724,4.724,0,0,0-.092,1.248v21.49q0,1.977-.03,2.309t-.178.335q-.178,0-.415-.412l-3.8-6.992q-3.3-6.113-8.031-15.27V57.621a.621.621,0,0,0,.451.619,9.771,9.771,0,0,0,2.012.169q.39,0,.391.3,0,.37-.772.37-.267,0-1.695-.112-.476-.037-.924-.038.028,0-.52.075a13.686,13.686,0,0,1-1.679.075h-.3q-.685,0-.684-.338t.595-.338A4.645,4.645,0,0,0,52,58.121q.282-.244.282-1.59V38.091q0-3.107-1.011-3.892a2.837,2.837,0,0,0-1.695-.37q-.772,0-.772-.394,0-.354.446-.354.595,0,1.515.075t.989.071q.092,0,.832-.037a15.763,15.763,0,0,0,1.9-.112L64.743,52.315V35.692q0-1.158-.03-1.4a.493.493,0,0,0-.237-.37,4.1,4.1,0,0,0-1.428-.131q-1.069,0-1.069-.336,0-.37.706-.37H67.47q.652,0,.654.37Z" transform="translate(-3.724 -16.642)" fill="#1e2971"/><path d="M87.232,53.016q0,.15-.059,1.836t-.055,3.209v1.233q-2.913-.225-11.532-.225h-3.72q-.565,0-.565-.3a.209.209,0,0,1,.178-.234q.092,0,1.13-.1.772-.075.936-.412a5.45,5.45,0,0,0,.164-1.761V35.2q0-1.086-.253-1.294a3.5,3.5,0,0,0-1.62-.206q-.476,0-.476-.318t.654-.318h12.6a8.3,8.3,0,0,0,1.635-.15q.059,1.607.267,4.446l.12,1.606a3.274,3.274,0,0,1,.03.486q0,.37-.268.37-.328,0-.476-.939-.565-3.389-1.847-4.287-.952-.676-4.994-.676h-2.43v10.99h.706q3.326,0,4.057-.636t1-3.694q.059-.784.328-.784.328,0,.328.672t-.059,1.977q-.061,1.308-.061,1.977,0,4,.092,5.492.023.37.024.636,0,.486-.325.486-.208,0-.282-.318T82.2,48.644q-.225-2.193-1.44-2.721a9.846,9.846,0,0,0-2.781-.225H76.65V58.211a45.774,45.774,0,0,0,7.667-.332q1.962-.554,2.228-4.722.059-.924.386-.924.3,0,.3.784Z" transform="translate(-5.441 -16.629)" fill="#1e2971"/><path d="M174.023,53.016q0,.15-.059,1.836t-.059,3.214V59.3q-2.913-.225-11.532-.225h-3.718q-.565,0-.565-.3a.209.209,0,0,1,.178-.234q.092,0,1.13-.1.772-.075.936-.412a5.45,5.45,0,0,0,.164-1.761V35.2q0-1.086-.253-1.294a3.5,3.5,0,0,0-1.62-.206q-.476,0-.476-.318t.654-.318h12.6a8.3,8.3,0,0,0,1.635-.15q.059,1.607.267,4.446l.119,1.606a3.286,3.286,0,0,1,.03.486q0,.37-.268.37-.328,0-.476-.939-.565-3.389-1.847-4.287-.952-.676-4.994-.676h-2.436v10.99h.706q3.326,0,4.057-.636t1-3.694q.059-.784.328-.784.328,0,.328.672t-.059,1.977q-.061,1.308-.061,1.977,0,4,.092,5.492.023.37.024.635,0,.486-.325.486-.208,0-.282-.318t-.251-2.073q-.236-2.2-1.45-2.727a9.844,9.844,0,0,0-2.781-.225h-1.332V58.205a45.777,45.777,0,0,0,7.667-.332q1.962-.554,2.228-4.722.059-.924.386-.924.3,0,.3.784Z" transform="translate(-12.063 -16.629)" fill="#1e2971"/><path d="M195.153,58.759q0,.319-.446.319a3.53,3.53,0,0,1-.535-.037l-3.775-.15-3.775.15a2.575,2.575,0,0,1-.446.037q-.594,0-.595-.391,0-.424.8-.424Q189,58.226,189,57.605a2.683,2.683,0,0,0-.061-.292l-.243-.989-.153-.521q-.268-1.159-1.306-5.124h-6.355a48.065,48.065,0,0,0-1.781,6.875q0,.524.356.636.092.038,1.486.15.861.038.861.37,0,.374-.772.37-1.367,0-3.18-.15-.446-.037-.924-.038a3.417,3.417,0,0,0-.924.124,1.609,1.609,0,0,1-.386.062q-.415,0-.415-.338t.936-.376a2.409,2.409,0,0,0,1.353-.356,2.217,2.217,0,0,0,.654-1.219q3.831-13.8,6.232-22.161a5.085,5.085,0,0,1,.282-.989l.13-.672c.059-.282.141-.411.237-.411q.089,0,.148.225.386,1.456,1.755,6.089,1.069,3.625,5.32,18.2a1.809,1.809,0,0,0,.61,1.076,3.53,3.53,0,0,0,1.531.27q.772.037.772.354Zm-8.05-8.946-1.6-5.568-1.429-5.183q-1.254,4.134-3.014,10.747H187.1Z" transform="translate(-13.37 -16.601)" fill="#1e2971"/><path d="M214.442,33.454q0,.37-.739.336h-1.192q-.476,0-.565.2a4.718,4.718,0,0,0-.092,1.248v21.49q0,1.977-.03,2.309t-.178.335q-.178,0-.415-.412l-3.8-6.992q-3.3-6.116-8.036-15.275V57.623a.621.621,0,0,0,.451.619,9.771,9.771,0,0,0,2.012.169q.39,0,.391.3,0,.37-.772.37-.267,0-1.695-.112-.476-.037-.924-.038.028,0-.52.075a13.684,13.684,0,0,1-1.679.075h-.3q-.685,0-.684-.338t.595-.338a4.645,4.645,0,0,0,2.032-.282q.282-.244.282-1.59V38.092q0-3.107-1.011-3.892a2.837,2.837,0,0,0-1.695-.37q-.772,0-.772-.394,0-.354.446-.354.595,0,1.515.075t.982.075q.092,0,.832-.037a15.769,15.769,0,0,0,1.9-.112l10.253,19.24V35.7q0-1.158-.03-1.4a.493.493,0,0,0-.237-.37,4.1,4.1,0,0,0-1.428-.131q-1.069,0-1.069-.336,0-.37.706-.37h4.785q.652,0,.654.37Z" transform="translate(-14.889 -16.644)" fill="#1e2971"/><path d="M143.012,50.682q0-.075-.059,1.008-.119,2.166-.119,4.184,0,.225.059.915t.059,1.662v.336c0,.323-.079.486-.237.486s-.3-.185-.415-.565a4.019,4.019,0,0,0-.832-1.606,6.709,6.709,0,0,1-5.142,2.354,8.706,8.706,0,0,1-7.238-3.83,15.661,15.661,0,0,1-2.868-9.657,16.219,16.219,0,0,1,2.632-9.582,8,8,0,0,1,6.791-3.717,7.537,7.537,0,0,1,2.423.318,9.383,9.383,0,0,1,2.244,1.294,1.99,1.99,0,0,0,.982.486q.268,0,.506-.6.386-1.045.624-1.046t.239.3a3.174,3.174,0,0,1-.059.486,44.849,44.849,0,0,0-.328,6.725,1.977,1.977,0,0,1-.092.822.282.282,0,0,1-.237.112q-.3,0-.386-.706a15.04,15.04,0,0,0-1.1-4.446,4.8,4.8,0,0,0-4.577-2.99,4.392,4.392,0,0,0-3.8,2.018q-2.527,3.625-2.527,10.61a18.76,18.76,0,0,0,2.076,9.677,5.455,5.455,0,0,0,4.816,2.99,4.618,4.618,0,0,0,2.824-.952,6.05,6.05,0,0,0,1.962-2.6,17.87,17.87,0,0,0,1.1-4.146q.119-.9.386-.9.3,0,.3.565Z" transform="translate(-9.63 -16.612)" fill="#1e2971"/><path d="M166.482,62.948a1.016,1.016,0,0,1,.462-.123.871.871,0,0,1,.641.347,2.69,2.69,0,0,0,.362.027c.374,0,1.836-.068,2.535-.116.1,0,.157-.055.282-.15s.247-.2.3-.2c.185,0,.794.554.75.722-.02.082-.193.141-.282.178-.061.027-.092.075-.141.169a6.9,6.9,0,0,1-5.009,4.478l-.031-.116a7.188,7.188,0,0,0,4.108-4.553l.013-.047c.01-.041.007-.082-.061-.082H170.4c-.924.041-2.166.251-2.37.273h-.092a.527.527,0,0,1-.315-.1c-.055.217-.185,1.26-.219,1.385-.124.49-.22.715-.507.715s-.491-.376-.4-.739c.023-.092.157-.354.185-.47a2.922,2.922,0,0,0,.086-1.271.445.445,0,0,0-.3-.292l.01-.041Z" transform="translate(-12.694 -18.905)" fill="#fff"/><path d="M178.156,63.612a10.757,10.757,0,0,1-4.789,4.064c-.37.178-.39.362-.565.362-.442,0-.888-.715-.792-1.1a.727.727,0,0,1,.316-.47.438.438,0,0,0,.493.477,12.014,12.014,0,0,0,5.251-3.389l.092.055Zm-5.2-.456c1.048,0,2.012.306,1.836,1.028a.706.706,0,0,1-.661.517.424.424,0,0,1-.388-.376,1.683,1.683,0,0,0-.832-1.075l.051-.092Z" transform="translate(-13.123 -18.938)" fill="#fff"/><path d="M180.431,65.548a1.023,1.023,0,0,1,.938-.748.565.565,0,0,1,.565.748A1.023,1.023,0,0,1,181,66.3a.565.565,0,0,1-.565-.748Z" transform="translate(-13.766 -19.063)" fill="#fff"/><path d="M184.992,63.775c.073.408.244.435.706.435.565,0,1.4-.092,1.915-.141.052-.177.106-.449.13-.565.092-.477.128-.674.03-.739a.663.663,0,0,0-.411-.068.832.832,0,0,1,.631-.347c.424,0,.949.282.87.6-.04.157-.185.178-.342.652-.02.055-.092.34-.109.4.592-.055.757-.092,1.035-.354.582.092.948.292.874.578-.051.2-.311.232-.453.232-.265,0-.539-.047-1.022-.047-.141,0-.333,0-.549.02-.131.49-.23.939-.384,1.606-.041.191-.1.477-.165.763-.072.37-.045.5-.079.64-.11.436-.515.912-.863.912a.244.244,0,0,1-.26-.292c0-.282-.169-.544-.881-1.069l.058-.068a6.526,6.526,0,0,0,1.03.239c.061,0,.092-.02.126-.123.018-.047.346-1.158.424-1.538a9.347,9.347,0,0,1-3.649,1.892l-.037-.075A11.89,11.89,0,0,0,187,64.562c-.4.055-.791.116-1.114.185-.292.055-.376.164-.554.164a.678.678,0,0,1-.628-.748.727.727,0,0,1,.24-.388h.04Z" transform="translate(-14.011 -18.874)" fill="#fff"/><path d="M193.592,65.809c-.442,0-1.371.041-1.633.075a2.339,2.339,0,0,0-.494.123,1.031,1.031,0,0,1-.319.082.88.88,0,0,1-.706-.905.755.755,0,0,1,.268-.469h.048c0,.449.513.449.989.449H194.6a7.414,7.414,0,0,0,.8-.068h.014c.4.027.989.13.912.424-.048.191-.305.292-.652.292H193.6Z" transform="translate(-14.529 -19.055)" fill="#fff"/><path d="M197.562,68.094a1.042,1.042,0,0,1-.757-1.048.706.706,0,0,1,.336-.5c.023.34.178.483.424.483a1.082,1.082,0,0,0,.335-.061,12.455,12.455,0,0,0,4.934-3.158l.068.055a10.715,10.715,0,0,1-4.742,3.853,1.155,1.155,0,0,0-.256.15c-.075.055-.169.217-.329.225h-.014Zm-.384-3.634a4.5,4.5,0,0,1,.511-.028c.864,0,1.24.292,1.13.729a.575.575,0,0,1-.585.424c-.2,0-.268-.15-.342-.292a1.675,1.675,0,0,0-.772-.739Zm1.171-1.511c.131,0,.256-.014.378-.014.98,0,1.4.3,1.294.748a.542.542,0,0,1-.541.442c-.292,0-.357-.177-.441-.388a1.63,1.63,0,0,0-.746-.715l.059-.075Z" transform="translate(-15.018 -18.92)" fill="#fff"/><path d="M204.464,64.335a.64.64,0,0,1,.547-.354c.456,0,.847.141.806.282-.01.041-.113.232-.124.282a5.723,5.723,0,0,0-.047.706c.521-.123,1.042-.244,1.342-.328a.593.593,0,0,0,.282-.141c.1-.092.16-.141.247-.141.15,0,.6.436.565.6-.014.061-.083.092-.22.141a.487.487,0,0,0-.232.141,7.3,7.3,0,0,1-1.436,1.055l-.068-.055a7.54,7.54,0,0,0,.9-1.285c0-.02,0-.034-.018-.034-.047,0-.959.266-1.359.394a17.091,17.091,0,0,0,.082,1.782,2.155,2.155,0,0,1,.071.5c-.092.354-.237.565-.554.565-.232,0-.308-.1-.249-.739.023-.282.079-1.15.073-1.94a4.811,4.811,0,0,0-.8.319c-.154.092-.232.191-.353.191a.606.606,0,0,1-.522-.661.653.653,0,0,1,.185-.305h.018c0,.092.01.282.33.282a6.674,6.674,0,0,0,1.13-.209c-.031-1.041-.167-1.068-.391-1.068a.518.518,0,0,0-.193.041l-.01-.02Z" transform="translate(-15.517 -19)" fill="#fff"/><path d="M215.3,63.612a10.757,10.757,0,0,1-4.789,4.064c-.37.178-.39.362-.565.362-.442,0-.888-.715-.792-1.1a.727.727,0,0,1,.316-.47.438.438,0,0,0,.493.477,12.014,12.014,0,0,0,5.251-3.389l.092.055Zm-5.2-.456c1.048,0,2.012.306,1.836,1.028a.706.706,0,0,1-.661.517.424.424,0,0,1-.388-.376,1.685,1.685,0,0,0-.832-1.075l.051-.092Z" transform="translate(-15.957 -18.938)" fill="#fff"/><g transform="translate(14.499 17.224)" clip-path="url(#e)"><path d="M42.27,47.217A13.286,13.286,0,1,1,28.984,33.931,13.286,13.286,0,0,1,42.27,47.217Z" transform="translate(-15.698 -33.931)" fill="url(#f)"/><path d="M28.978,60.536a13.321,13.321,0,1,1,9.422-3.9,13.321,13.321,0,0,1-9.422,3.9Zm0-26.572a13.251,13.251,0,1,0,9.369,3.879,13.251,13.251,0,0,0-9.369-3.879Z" transform="translate(-15.694 -33.927)" fill="#cde9f2"/><path d="M29.838,33.854c.075.061.02,0,.092,0a.177.177,0,0,1,.12.028c.031.031,0,.044-.017.051-.041.018-.055.031,0,.092a.213.213,0,0,0,.181.082,1.2,1.2,0,0,1,.3.034c.085.03.112.085.055.092s-.071-.025-.073.028.011.049-.11.049a1.628,1.628,0,0,0-.261-.007c-.082.014-.032.061-.116.068a.51.51,0,0,0-.185.028.3.3,0,0,1-.141.034,1.7,1.7,0,0,1-.191-.011c-.065,0-.018.032-.065.028s-.069-.03-.092,0-.023.044-.124.045-.092-.017-.13.014-.085.025-.223.031a.777.777,0,0,1-.246-.035c-.075-.013-.079-.02-.034-.04s.01-.058-.01-.034a.073.073,0,0,1-.086.014c-.028-.013-.024-.025-.018-.051s-.027-.013-.038.017-.041.018-.071.028.023.04-.061.056-.157.023-.154-.062.024-.085-.007-.141-.058-.049-.092-.025-.034-.034-.109-.032-.082,0-.071-.02.068-.031,0-.034a.257.257,0,0,1-.127-.031c-.024-.014-.038-.01-.064.007s-.055-.031-.023-.058.092-.047-.034-.058-.249,0-.073-.082a1.433,1.433,0,0,1,.47-.082A5.518,5.518,0,0,1,29,33.82c.547,0,.757-.01.832.051Zm.97.482a.83.83,0,0,0-.232,0,.29.29,0,0,1-.208.041,1.292,1.292,0,0,0-.332.025c-.12.018-.158.014-.215.03s-.069.049.044.082a1.62,1.62,0,0,0,.312.073c.126.014.161-.049.191-.013a.1.1,0,0,0,.109.049.216.216,0,0,1,.126.011.175.175,0,0,0,.126-.013c.041-.014.04-.041,0-.065s-.023-.062.037-.023.065.056.03.08-.014.076.092.052a.64.64,0,0,1,.209-.025c.068,0,.02-.007.092-.04s.1-.013.092-.052-.011-.038-.068-.047-.116-.041-.082-.068.02.007.1.03.121.071.212.049a.133.133,0,0,1,.141.028c.045.047.062.078.114.071s.047-.047.025-.072.017-.045.072-.04.082.037.071.065-.014.028-.061.032-.04.061.042.082.092-.023.113.028.011.061.092.04.062-.061.092-.078.007-.065-.055-.075-.045-.02-.061-.052-.1-.028-.133-.047a1.615,1.615,0,0,0-.153-.1,1.7,1.7,0,0,0-.241-.08c-.1-.042-.092-.052-.185-.045s-.127.035-.055.055.1.035.189.058.141.042.13.071-.047.02-.15-.013a1.13,1.13,0,0,1-.2-.082.253.253,0,0,0-.161-.049.608.608,0,0,0-.181.023l-.092.01Zm.386.37c.049,0,.04-.03,0-.032s-.049.028,0,.028Zm.2-.114c-.038.01-.062.025-.038.058a.062.062,0,0,0,.092,0c.03-.023.072-.023.1-.052s-.014-.056-.079-.03a.546.546,0,0,1-.072.014Zm.045.11c-.032.032-.04.062,0,.079a.092.092,0,0,0,.1-.017c.02-.023.028,0,.065,0s.045-.03.023-.049.017-.014.01-.038-.03-.028-.1-.028a.164.164,0,0,0-.1.047Zm.38.092c.037,0,.007-.02.04-.025s.041-.044-.023-.03S31.785,34.79,31.823,34.793Zm-.141-.079a.016.016,0,1,0,0-.03c-.041,0-.025.021,0,.024Zm.141.153c-.042,0-.025-.02-.072-.023s-.075.028-.042.03.02.017.065.035.035-.02.065-.02.047.023.085.052.042.007.062-.01.04-.007.013-.04-.047-.038-.114-.038C31.864,34.854,31.867,34.863,31.823,34.866Zm.282-.058c-.075.013-.049.052.01.058a.664.664,0,0,0,.141.013c.052,0,.055-.032.078-.01s0,.047-.04.055-.014.042-.052.047-.028-.03-.055-.035,0,.035-.03.04-.058-.023-.082,0,.028.04.167.1a1.053,1.053,0,0,0,.232.092c.061.01.055-.052.042-.1s.031-.02.065-.01.032-.035-.007-.065-.058-.04-.04-.049.047.01.092.032.058,0,0-.037-.088-.032-.157-.075-.085-.068-.141-.1-.054-.031-.085,0a.283.283,0,0,1-.141.049Zm1-.1c.041.047.013.092-.1.1a.576.576,0,0,1-.244-.01c-.062-.025-.048-.028-.113-.025s-.088.017-.023.049a.786.786,0,0,0,.185.049c.078.02.155.01.181.082s-.037.088-.114.1-.078.028-.058.12.092.11.215.117a.528.528,0,0,1,.215.062.565.565,0,0,0,.237.052c.13,0,.2.007.1-.052a.876.876,0,0,0-.22-.1c-.058-.017-.028-.03.032-.023s.062,0,.058-.028.025,0,.061.025.052.023.092,0-.013-.04-.025-.071.049,0,.092.055.055.042.12.037.023-.037.032-.065.028.01.062.01.1-.014,0-.071a2.265,2.265,0,0,1-.236-.141c-.092-.065-.058-.058-.124-.124a.448.448,0,0,0-.127-.1c-.049-.028-.017-.092.081-.017a2.311,2.311,0,0,1,.209.2.282.282,0,0,0,.227.1c.117.014.237.025.133.032s-.079,0,.007.085.117.15.032.1-.185-.065-.141.01.068.085,0,.1-.071.071.023.085.114.068.072.092-.088.013-.167,0-.092.052.017.114.107.065.13.141a.239.239,0,0,0,.086.15c.062.062-.02.058-.092.1s-.047.049-.121.065-.025.085-.092.113-.055.092-.185.11-.127.049-.208.08-.045.1-.014.234.035.141.112.192.058.11,0,.155-.011.061.11.086a1.764,1.764,0,0,1,.282.055.282.282,0,0,0,.215,0c.092-.023.117-.017.116.071s-.078.124-.116.072-.069-.035-.107-.011,0,.092,0,.178.045.1.085.092c.065,0,.065-.045.117,0s.068.072.162.035.085-.058.11-.117.011-.114.072-.092.037.062.12.085.141.1.092.175-.065.049-.1.065-.02.058.049.106a.376.376,0,0,1,.141.178c.047.092.086.047.2.121a.48.48,0,0,0,.209.107c.107.028.141-.023.241,0s.078.061.153.058.032-.082.113-.082.04-.047.11-.052.032-.02.1.042a1.489,1.489,0,0,1,.16.209c.058.075.038.049.049.153s.052.107.023.141-.045.038-.023.11.062.092.032.141-.058.042-.049.127.04.078.079.025,0-.061.014-.127a.646.646,0,0,0,0-.13c0-.058.042-.058.023-.141s.023-.1-.007-.175-.048-.072-.052-.155-.049-.082-.075-.185a.688.688,0,0,0-.082-.239c-.045-.065-.023-.047-.1-.075s-.092-.03-.121-.114.014-.121.078-.092.045.052.079.042.023-.038-.028-.1-.071-.082-.032-.092.049-.052-.025-.079-.141-.065-.114-.12.079-.052.1.01.042.065.085-.028.065-.045.065-.1.028-.065.079-.058.023-.017.068-.049.058-.02.154,0a.535.535,0,0,0,.178,0,.539.539,0,0,1,.257.072c.113.062.141,0,.257.062s.141.085.175.061,0-.037-.04-.072-.042-.065.02-.061.1.062.189.113.092.014.172.04.127.035.215.055a.769.769,0,0,0,.239,0,.424.424,0,0,1,.282.141c.061.062,0,.075.141.169a4.638,4.638,0,0,1,.534.431c.2.192.487.436.751.706a5.916,5.916,0,0,0,.469.442c.071.055.048,0-.047-.114s-.452-.541-.722-.826-.5-.5-.679-.684a12.016,12.016,0,0,0-1-.877,13.2,13.2,0,0,0-1.216-.839,13.606,13.606,0,0,0-1.246-.706c-.494-.23-1.412-.506-1.779-.654s-.494-.225-.595-.25-.114-.01-.062.028.1.071-.014.031a1.791,1.791,0,0,0-.26-.078,1.431,1.431,0,0,0-.212-.023c-.124-.011-.141-.025-.181-.065s.061-.01.1,0,0-.055-.141-.068-.157-.055-.316-.068a2.717,2.717,0,0,1-.305-.045,2.427,2.427,0,0,1-.282-.061.616.616,0,0,0-.192-.035c-.141-.007-.167-.007-.068.03a2.293,2.293,0,0,1,.222.113c.092.042.107.007.141.062s.032.078.078.1.049.035.092.035.045-.023.007-.032,0-.03.075-.013.178.047.08.052-.107.035-.028.052.088,0,.107.03.023.032.078.042a1.06,1.06,0,0,0,.11.028c.061.007.11,0,.195.007a1.057,1.057,0,0,0,.208.017c.071,0,.141-.014.081-.047s-.02-.04.085-.032.141-.013.16.035.014.068-.048.092a.489.489,0,0,1-.267.02,1.818,1.818,0,0,1-.189-.035c-.107-.023-.185-.032-.153.007s.058.028.162.065.065.032.107.065a.478.478,0,0,0,.141.058c.058.023.167-.017.2.011s.028.065.08.055.055-.058.1-.068-.025-.052.075-.058a.253.253,0,0,1,.222.1ZM32.337,37.2a1.087,1.087,0,0,0,.162-.141c.058-.065-.079-.11-.169-.032-.137.127-.032.209.01.174Zm5.366.325c.041,0,.011-.045-.079-.071a.544.544,0,0,1-.206-.092c-.064-.049-.1-.031-.061.018a.6.6,0,0,0,.345.141Zm-1.34.682c.075,0-.014-.172-.113-.247s-.079-.062-.061.041c.023.127.1.2.172.206Zm-1.271.141c.113.018.092-.116.018-.12s-.134.1-.018.119Zm1.1.9c.044-.023.038-.055-.027-.034s-.018.054.027.031Zm-.038.124c.034.007.023.014.041.092s.037.018.044-.061-.016-.13-.086-.12-.034.079,0,.086Zm-.064.086c-.007.034.023.03.03.075s.03.1.049.03,0-.127-.052-.141c-.023,0-.018,0-.025.03Zm0,.232c.025.007.049-.045.023-.052s-.052.044-.025.051Zm-.041.086c.018.014.027-.031,0-.038s-.023.021,0,.037Zm-.092.1c-.023-.014-.041.007-.014.034s.037-.017.014-.035Zm-.061.127c.041-.018.017-.065-.018-.037s-.023.055.017.037Zm-.092-.049c0-.045-.049-.023-.052.034s0,.061-.023.079.041.038.061-.011A.267.267,0,0,0,35.8,39.956Zm-.164.247c.052-.018.047-.092,0-.079s-.051.1,0,.078Zm-.141.068c.045,0,.02-.062-.011-.049s-.032.051.013.047Zm-.386.12a.025.025,0,1,0,0-.049.024.024,0,1,0,0,.047Zm-.038.1c.038.007.034-.04,0-.034s-.037.025,0,.032Zm-.181-.025c0-.045-.021-.062-.037-.011s.034.055.038.01Zm-.655.034c.056.014.059-.086.011-.082s-.065.066,0,.082Zm.15.045c.034,0,.023-.056-.011-.056s-.02.049.013.055Zm-1.15-.319c-.079-.075-.1-.044-.049.03.107.141.13.044.051-.031Zm-.635-.847c.035.017,0-.049.035-.1s.042-.075.042,0,.017.062.072.047.023-.085.049-.141a.154.154,0,0,1,.239-.037c.092.082.1.061.1,0s.02-.065.045-.185.107-.141.141-.237.058-.065.092-.15.049-.062.153-.058.068-.061-.023-.121a2.25,2.25,0,0,1-.263-.178c-.052-.055-.044-.078-.007-.154s-.013-.081-.078-.141-.025-.092.007-.079.092.042.068-.007.031-.058.092.013.092.035.113-.013.1-.047.151,0,.045.042.141.061.158.032.191,0-.032-.1-.114-.16-.055-.042-.013-.072.04-.092-.048-.127-.1-.075-.23-.071-.133.03-.082.107-.028.01-.107-.061-.141-.037-.3-.071a2.577,2.577,0,0,0-.364,0,2.422,2.422,0,0,0-.494-.02c-.227.014-.27.023-.282.117s-.052.082-.079.017-.1-.04-.121.03-.124.088-.263.1a.261.261,0,0,1-.247-.055A.764.764,0,0,0,31,37.52a.37.37,0,0,0-.352.061c-.141.082-.154.061-.2,0s-.11-.023-.167-.1a.178.178,0,0,0-.209-.071.682.682,0,0,1-.305-.04c-.112-.028-.141-.049-.092-.055s.078-.01.045-.071-.065-.028-.15-.082-.11.014-.1.107.037.042.013.141-.071.107-.181.141a.347.347,0,0,1-.244.023c-.072-.028-.072-.062-.127,0s-.014.114-.075.113-.12-.038-.155-.175.017-.061.045-.153-.042-.082-.175-.155-.2-.049-.209.035-.082.062-.185.045-.13-.035-.107-.058.047-.042-.042-.075a.885.885,0,0,0-.239-.03c-.088-.01-.085-.073-.014-.085s.055-.047-.017-.062-.024-.079.028-.079a.232.232,0,0,0,.141-.072c.078-.062.04-.141-.03-.192s-.113,0-.192-.014.035-.061.014-.13-.092-.068-.2-.045-.162.1-.282.113-.071-.055-.178-.058-.189.01-.3.013a1.221,1.221,0,0,1-.208,0c-.141-.01-.185.014-.181.092s-.061.055-.155.037-.1-.082-.2-.092-.085,0-.162.113-.088.157-.13.141,0-.052.007-.127,0-.085-.065-.078-.062,0-.013-.052.068-.1,0-.107-.052.075-.164.114-.185.092-.234.065.01-.082.114-.113.141-.023.167-.078,0-.092-.072-.092-.085.052-.212.092-.178-.007-.3.025-.153.062-.26.208-.141.185-.172.12.01-.065.055-.157.055-.082.042-.16.01-.061.065-.133.014-.107-.058-.049a1.454,1.454,0,0,0-.2.189c-.1.106-.153.01-.1-.01s.072-.062.023-.071-.04.035-.08-.035-.1-.068-.028-.085.092-.049,0-.078-.107-.013-.162-.062-.133-.045-.082-.078.079-.017.141-.078.028-.1-.055-.045-.185.035-.282.11-.114.032-.155-.03-.1-.079-.155-.017-.124.11-.16.065.025-.065.082-.127-.032-.062-.092.017-.085.1-.117.075-.017-.052.031-.078.058-.047.141-.1.065-.062.157-.075a.329.329,0,0,0,.2-.085c.085-.062.2-.092.127-.023s-.092.085-.185.178,0,.1.121.092.078-.047.212-.1a.9.9,0,0,1,.345-.049c.124,0,.133-.1.232-.141a.859.859,0,0,1,.328-.076c.13,0,.085-.092.023-.141s-.092,0-.141-.013-.065-.023-.141.035-.185.078-.189.025.045-.035.092-.045.02-.072.068-.114.061-.042.1-.01.092-.045.155-.1.061-.088.061-.164.092-.058.04-.124-.141-.02-.239-.017-.169-.049-.306-.01-.241.035-.2,0,.068-.075,0-.082a.683.683,0,0,0-.271.072,2.323,2.323,0,0,0-.325.113c-.157.078-.225.153-.342.2s-.141.011-.3.117-.237.072-.407.215-.04.167-.013.127a.291.291,0,0,1,.141-.117c.1-.058.141-.025.247-.042s.141-.092.225-.141a1.052,1.052,0,0,1,.352-.1c.1-.01.052.007.16.038s.117-.028.208-.038.1.04-.01.1-.1.049-.237.037-.114-.032-.234.007a1.24,1.24,0,0,0-.417.141c-.195.117-.208.157-.237.263s-.13.121-.185.181-.058-.072,0-.141.082-.072.047-.1-.1.01-.23.141-.133.058-.133.058c0-.03.079-.078.127-.13s-.071-.028-.169.04-.172.124-.195.092.055-.085.055-.085c.055-.045.185-.141.257-.2s-.045,0-.565.328a16.785,16.785,0,0,0-2.049,1.59,6.249,6.249,0,0,0-.909.96,4.552,4.552,0,0,0-.513.706c-.049.131.064.037,0,.109a3,3,0,0,0-.748.861,14.041,14.041,0,0,0-1.048,1.967,12.542,12.542,0,0,0-.573,1.654,3.358,3.358,0,0,0-.22.963c.03.225.082.177.1.1s.007-.092.037-.018.116.041.141-.061.082-.061.113.007.082.086.1,0,.018-.116.041-.045.049.049.071-.045.061-.1.068-.041.056.007.079-.109.052-.15.079-.092.048.038.071-.061.1-.12.172-.229a.832.832,0,0,0,.045-.487.9.9,0,0,1,.141-.513c.092-.177,0-.161-.079-.056s-.123.172-.172.092a.217.217,0,0,1-.045-.206,1.294,1.294,0,0,1,.141-.3c.052-.116,0-.092,0-.092a1.756,1.756,0,0,1,.082-.232,6.029,6.029,0,0,1,.239-.592c.086-.15.141-.141.079.023a2.632,2.632,0,0,1-.141.352,1.236,1.236,0,0,0-.106.539c-.03.3.041.25.1.206s.068.049-.007.157-.052.161-.03.322.048.124.071.256.131.15.258.326.124.071.131.247a6.47,6.47,0,0,1-.018.669c-.018.282,0,.164-.023.415s.064.263.141.251.1.011.075.127a2.041,2.041,0,0,0-.15.508,5.986,5.986,0,0,0-.1,1.322,9.7,9.7,0,0,0,.059,1.234c.018.236.168.191.181.092s.141-.061.2.075.014.131-.018.462.018.306.124.3.141-.1.12-.3a3.38,3.38,0,0,0-.061-.483,1.109,1.109,0,0,1-.071-.415.593.593,0,0,1,.124-.37.959.959,0,0,0,.079-.408c.011-.161.034-.236.092-.265s.049.023.092.034.014-.041.086-.041.056.034.12-.011,0-.12.064-.15.075-.025.185-.068a.784.784,0,0,0,.247-.181c.106-.089.079-.092.251-.079s.2-.086.2-.185a.106.106,0,0,1,.172-.092c.071.061.023.052.154.1a.713.713,0,0,1,.229.113c.141.092.141.079.191-.041s.071-.141.071-.056a3.221,3.221,0,0,0,.007.356c.014.206.056.232.1.27s.092.018.056.1-.014.109.014.185a.973.973,0,0,1,.018.363c-.007.191-.023.1-.092.229s0,.124.056.225.124.079.168.034a1.652,1.652,0,0,1,.157-.109c.092-.068.175-.041.172.124s.007.381.018.573.079.075.068.239a1.955,1.955,0,0,0-.011.356c.011.127-.068.075-.071.232a.613.613,0,0,1-.071.282.376.376,0,0,0,.018.3c.041.071.025-.041.064.038s.15.3.22.415.031.154.007.326a.383.383,0,0,0,.092.33c.068.1,0,.086.064.2s.2.27.141.213a1.15,1.15,0,0,0-.243-.168c-.1-.049-.1-.056-.161-.168a3.359,3.359,0,0,0-.27-.333.424.424,0,0,1-.113-.244c-.023-.1-.1-.082-.185-.1a.407.407,0,0,1-.206-.141c-.1-.1-.082.023-.025.179s.038.092.181.266.15.185.172.282.038.113.141.206a.315.315,0,0,1,.124.251c.011.109.014.113.141.311a3.027,3.027,0,0,1,.185.333c.1.191.041.154.131.333a2.76,2.76,0,0,0,.282.4,2.073,2.073,0,0,0,.506.462c.141.086.161.082.154-.023a2.053,2.053,0,0,1,.068-.383c.014-.092.056-.056.124-.1s0-.086-.092-.161-.03-.106-.092-.185-.1-.068-.141.038-.075.049-.064-.041.014-.1-.045-.15a.462.462,0,0,0-.191-.079c-.086-.023-.086-.131-.041-.15s.052-.056.03-.141.03-.086.116-.075.1,0,.049-.056a.4.4,0,0,1-.1-.232c-.025-.141-.052-.082-.12-.22s-.011-.157,0-.315a.332.332,0,0,0-.092-.326c-.107-.12-.2-.3-.282-.381s-.116-.041-.169-.12-.03-.154-.034-.258-.061-.071-.064-.141a.2.2,0,0,0-.079-.177c-.064-.045-.037-.141-.014-.225a1.13,1.13,0,0,1,.141-.311.374.374,0,0,0,.086-.265c.007-.141.075-.141.141-.1s.049.075.025.179.116.082.185.116.038.092.092.141a.212.212,0,0,1,.086.185c.007.109,0,.113.071.141q.068.03.025.082c-.041.052.1.049.168.127s.106.116.025.3.049.172.1.113.061-.071.141-.075a.193.193,0,0,0,.195-.131c.038-.1.092-.082.2-.106a.58.58,0,0,0,.33-.2.973.973,0,0,0,.068-.374,1.8,1.8,0,0,0-.041-.483.479.479,0,0,0-.12-.251c-.071-.113-.12-.15-.195-.27a.609.609,0,0,1-.082-.256c-.025-.1-.1-.045-.1-.15a.4.4,0,0,1,.141-.318c.109-.079.086-.109.2-.15s.106-.082.217-.113a.226.226,0,0,1,.225.071c.049.041.113.034.1.109s-.038.075.014.175-.056.1-.141.113-.12.034-.185.161.061.185.157.206.141-.014.22-.092.061-.1.127-.164,0-.092-.045-.185.03-.15.056-.225.052-.014.244-.023a.947.947,0,0,0,.37-.071,1.067,1.067,0,0,0,.215-.1c.092-.056.092.049.258.038a.631.631,0,0,0,.345-.124,1.357,1.357,0,0,0,.352-.263c.109-.124.127-.109.213-.131s.034-.1.064-.206.052-.109.141-.209.157-.12.258-.229.071-.141.127-.225a.37.37,0,0,0,.116-.247c.041-.2.037-.265,0-.326a.242.242,0,0,1-.018-.22.508.508,0,0,0,.018-.315c-.034-.141-.071-.206-.164-.15s-.109.034-.195-.064-.086-.124-.007-.191a1.479,1.479,0,0,1,.2-.191c.127-.092.22-.154.292-.116s.12.025.127-.038-.014-.109-.1-.109-.116-.007-.116-.082-.045-.12-.109-.038a.517.517,0,0,1-.225.15c-.082.038-.1-.082-.023-.079s.056-.075,0-.1.014-.045-.037-.071-.116-.011-.116-.086.061-.12.141-.141.041-.1.172-.185a2.937,2.937,0,0,0,.251-.154c.11-.079.12-.038.154.03s.045.082-.064.164-.011.075-.049.141-.082.168-.011.131.071-.064.217-.141.247-.1.314-.061.141.038.181.082.034.106-.044.258c-.041.079-.011.119.042.129a.25.25,0,0,1,.185.133c.047.126-.069.114-.086.158s.031.055.058.107-.2.363-.162.424a.254.254,0,0,0,.244.044c.055-.016.092-.078.141-.092a.507.507,0,0,0,.219-.076c.092-.049.155-.219.079-.508a1.9,1.9,0,0,0-.282-.453.13.13,0,0,1,.052-.161c.075-.056.154-.086.251-.157a.34.34,0,0,0,.172-.225c.023-.109.034-.1.092-.141a.185.185,0,0,0,.092-.092c.03-.048.041-.014.109-.075s.092-.1.141-.03a.141.141,0,0,0,.177.071.747.747,0,0,0,.34-.168,2.651,2.651,0,0,0,.22-.282c.109-.127.15-.157.232-.247a.489.489,0,0,0,.141-.236.832.832,0,0,1,.168-.258.535.535,0,0,0,.082-.333,1.027,1.027,0,0,1,.049-.356c.045-.124.168-.045.206.124s.014.282.044.445a1.755,1.755,0,0,1,.007.462c-.011.168.068.112.068.034s0-.075.038-.082a.117.117,0,0,1,.141.068c.034.071.045.057.034-.023s-.045-.052-.086-.141-.12-.086-.131-.175.056-.168.075-.27.064-.082.127-.045.061.049.038-.049-.061-.075-.086-.185-.1-.195-.131-.3,0-.179-.031-.282-.007-.106-.037-.209-.082-.092-.1-.034.034.045.034.109-.041.079-.124.079-.092-.018-.177-.086-.075-.119-.2-.1-.064.154-.124.157-.086,0-.092-.082-.031-.064-.052,0-.092,0-.056-.071,0-.071-.082-.056-.12,0-.127-.045.045-.061.127-.1.112-.113.185-.172.12-.185.2-.22a.3.3,0,0,0,.177-.168c.014-.068.034-.092.12-.154s.141-.141.258-.15a1.491,1.491,0,0,1,.225-.018c.079.011.1-.038.164-.014s.191.011.217-.049.056-.064.124-.052.056.038.141.018.141.011.071.045-.023.086.041.079a.282.282,0,0,0,.141-.049c.037-.051.023-.051.107-.051s.1-.082.052-.092-.082.007-.082-.075a.271.271,0,0,1,.092-.195c.052-.056.045-.185.113-.236a.282.282,0,0,1,.2-.049c.075,0,.116-.007.113.049s.044.068.075.141.079,0,.127-.075a.26.26,0,0,0,.071-.226c-.018-.116.027-.116.037-.061a.878.878,0,0,1,.064.209c.007.1-.034.082-.092.15s0,.1-.031.191-.061.071-.092.213-.082.141-.168.225-.025.092-.041.157a.5.5,0,0,0-.061.258c0,.185.1.3.209.506a3.529,3.529,0,0,1,.22.442c.031.1.092.075.109-.018s.079-.092.1-.172-.056-.113-.044-.172a.1.1,0,0,1,.154-.082c.068.038.068-.011.014-.071a.167.167,0,0,1-.056-.15c0-.075.044-.109.127-.1s.1-.079.037-.127-.064-.086-.064-.157.023-.113.064-.075.049.018.045-.041-.045-.079-.092-.106-.052-.1-.049-.164-.056-.082-.082-.023-.064-.025-.079-.092.014-.082.025-.124a.141.141,0,0,0-.011-.124c-.031-.041,0-.059.03-.082a.092.092,0,0,1,.113-.008Zm.04.172c.014-.071-.055-.11-.082-.023-.062.206.069.092.085.021Zm1.59-1.562c.042-.014.03-.04.1-.042s.1-.025.071-.049a.213.213,0,0,0-.2.023c-.065.04-.01.085.032.071Zm-4.211-.952c.058.013.107,0,.123-.045s-.035-.055-.175-.065-.121.025-.045.072a.308.308,0,0,0,.1.037Zm-.374-.141c-.049-.007-.025-.032-.092-.042s-.032.035-.082.038-.028-.062-.092-.049a.119.119,0,0,0-.092.141c.025.061.052.062.121.088s.049-.023.1-.007.04-.014.075-.007a.158.158,0,0,0,.162-.052c.072-.071.062-.117-.04-.124-.035,0-.013.02-.062.013Zm-.431.078c.038,0,.04-.061,0-.058a.03.03,0,1,0,0,.058Zm-1.34-.537c.037-.017.016-.065-.025-.04s-.013.058.025.041Zm-.323-.124c-.068.035-.049.058.02.042a.78.78,0,0,1,.185,0c.081,0,.1-.023.092-.079s-.049-.113-.11-.075a2.136,2.136,0,0,1-.192.112Zm.232-.244c-.014-.031.01-.049.055-.062s.042-.03.052-.071-.065-.055-.124-.035-.1.045-.167.065-.079.017-.114.055,0,.068.035.061.025.023-.007.049.025.065.068.088a.1.1,0,0,0,.133-.028c.049-.049.068-.038.092-.075s-.007-.028-.017-.047Zm-.832-.672c-.038-.025-.075-.023-.092.047s.007.1.055.08.042-.04.071,0,.052,0,.088.025.055.023.121,0,.013-.035-.052-.049,0-.071.062-.072.088-.042.049-.049a.226.226,0,0,0-.208.01c-.055.03-.058.038-.092.013Zm-.117-.072c-.071.092-.007.092.02.058s.055-.052.082-.032.017.04.062.032.062-.092.017-.141-.113-.01-.185.079Zm-.092-.592a.679.679,0,0,0-.263,0c-.155.025-.071.062.038.061s.141-.007.153.023-.037.038-.141.035-.141.038-.079.052a.318.318,0,0,0,.167-.014c.058-.014.1-.02.167-.04s.127-.014.068.011-.049.078.032.079a.2.2,0,0,0,.162-.037c.065-.042.03-.1.086-.141s.035-.1-.071-.092a.862.862,0,0,0-.237.058c-.035.013-.025.01-.088,0Zm-1.818,1.316a1.226,1.226,0,0,1,.511-.124,1.385,1.385,0,0,1,.534,0c.121.038.217.072.292.032s.031-.075-.1-.079-.047-.062-.3-.085a2.335,2.335,0,0,0-.717.078c-.244.052-.38.082-.448.2s.013.141.092.071a.5.5,0,0,1,.124-.092Zm-.664.035c.045.007.055,0,.078-.038s.041-.069-.047-.042-.075.072-.031.079Zm8.007,5.358c.031-.037-.01-.085-.045-.02s-.014.065-.061.092-.035.085.014.08.065-.124.092-.155ZM30.194,43.17c-.014.03.011.064,0,.1a.073.073,0,0,1-.12.018c-.041-.041-.082,0-.064.014s.027.041.045.064-.049.023-.1.068a.076.076,0,0,0,0,.127c.041.037.03.041.018.092s.025.082.049.037.018-.061.064-.045.1,0,.071-.038-.079-.034-.12-.068-.014-.075.025-.1.056-.025.061.03.044.037.075-.014.025-.056.092-.034a.632.632,0,0,1,.164.109c.061.045.092.052.092.011a.243.243,0,0,1,.023-.112.175.175,0,0,1,.141-.113.515.515,0,0,0,.161-.041c.056-.025.037-.025-.018-.064s-.037-.056-.023-.1.044-.092-.007-.052a.2.2,0,0,1-.168.034.52.52,0,0,1-.232-.141c-.082-.068-.092-.141-.15-.164s-.061.018-.045.092a.462.462,0,0,1,.007.243c-.007.023-.018.011-.034.041Zm.928-.243c-.018.052.014.061.061-.014s.045-.052.1-.1.034-.085-.061-.018a.314.314,0,0,0-.1.141Zm-.22.141c-.037.049-.011.075,0,.052a.347.347,0,0,1,.071-.092c.045-.041.034-.092-.007-.052a.507.507,0,0,1-.065.093Zm.483-.338c.034-.023.021-.073-.014-.049s-.02.075.01.049Zm.185-.141c.045-.056.048-.12-.007-.068s-.037.124.008.068Zm-1.527,1.183c-.027,0-.014.056-.027.086-.02.055-.045.023-.052.109s.023.1.038.15,0,.075-.045.172-.023.15-.075.206-.1.068-.12.12-.025.056-.092.1-.109.023-.141.071-.1.041-.1,0,.007-.086.045-.092.016-.061-.038-.049-.052.034-.056.113.011.052-.068.131-.056.109-.071.177-.1.056-.15.038a.141.141,0,0,0-.121,0c-.075.014-.206.018-.322.03s-.127.071-.181.131a.462.462,0,0,1-.2.131c-.082.03-.007.082.049.082s.092.023.131.007.03-.041.092-.049.109-.045.191-.056a.282.282,0,0,0,.141-.034.212.212,0,0,1,.164-.034c.068.014.106.03.064.092s-.044.092,0,.12,0,.056.052.071.092.03.092-.023,0-.037.041-.106.041-.052.1-.056.031-.03-.011-.064-.03-.049,0-.092.045-.056.045,0,.014.045.045.034.037-.038.049,0,.068.025.12.018.061,0,.1-.071.075-.056.071.03.041.049.049-.007.014-.082.061-.1.049.011.082-.064.079-.014.034.045-.025.092.025.064.056-.079.082-.1.045-.049,0-.092.014-.049.007-.141.049-.157.041-.25,0-.154.034-.175.045-.038.061-.127.079-.113.068-.213-.079-.131-.12-.185,0-.109-.011-.154a.047.047,0,0,0-.086-.018c-.025.034-.018.045.018.045s.031.025.011.064-.068.025-.075-.025c0-.01-.007-.049-.041-.045Zm-.34.775c.018-.023.021-.072-.011-.045s-.007.068.013.047Zm-1,.424c.03,0,.049-.056,0-.052s-.028.049,0,.055Zm-.141.58a.185.185,0,0,0-.023.141c.007.086.086.092.092.061a.385.385,0,0,1,.052-.116c.023-.041.124-.068.141-.03s.052.041.061,0a.1.1,0,0,1,.061-.086c.052-.034.014-.075-.023-.082s-.061-.037-.112-.025-.064.064-.112.064a.141.141,0,0,0-.131.071Zm.434-.141c.023,0,.049-.073.018-.071s-.041.068-.016.068Zm-.952.141c-.049-.007-.124.041-.1.068s.007.079.037.12.052.034.1.014.056.034.03.1a.631.631,0,0,0-.041.181c-.014.092.045.141.061.056s.038-.049.034.025.045.061.068-.011.079-.064.092-.141a.293.293,0,0,1,.049-.168.165.165,0,0,0-.007-.185c-.025-.058-.092-.018-.127-.068s-.031-.065-.1,0c-.014.014-.037.023-.086.014Zm.113.8c.037-.025.047-.126.018-.109s-.052.133-.016.109Zm-.306.506c.041-.034.035-.107-.025-.056s-.013.088.028.055Zm-.3.376c.052-.092,0-.1-.052-.03s0,.121.055.028Zm-.647.408c.03,0,.044-.071,0-.052s-.028.051,0,.051Zm-.3.092c.086.018.1-.086.014-.082s-.1.059-.014.078Zm-.857.191c-.025.141.082.141.109.209s.064.092.071.025a.212.212,0,0,1,.045-.141,2.185,2.185,0,0,0,.157-.3c.064-.141.092-.247.034-.282s-.092-.007-.258.164a.576.576,0,0,0-.157.313Zm-.061,1.524c-.025.092-.011.141-.049.141s-.041-.045-.071-.056-.025.075-.007.213.037.157.071.177.041.061.071.049.023-.064.056-.045.034.064-.025.092-.049.071-.014.1.071,0,.064.041.075.041.092,0,.079-.011.116-.025-.034-.045-.049-.113-.007-.124-.049-.15-.025-.064.014-.109.018-.113.071-.141a.253.253,0,0,0,.141-.109.174.174,0,0,0,0-.2.13.13,0,0,1-.007-.157c.03-.052.023-.113-.049-.061s-.082-.007-.141-.061-.185-.049-.209.157a1.625,1.625,0,0,1-.025.251Zm.068,1.034c.034.1.124.034.127-.041a.2.2,0,0,0-.124-.2c-.1-.056-.141-.045-.082.061a.946.946,0,0,1,.076.179Zm-.209.121c.034-.049-.034-.168-.045-.141-.031.106.011.195.045.143Zm.434-.282c.031.018.031-.079,0-.082s-.03.068,0,.086Zm.014.2c.03,0,.025-.062,0-.061s-.03.064,0,.064Zm.141.03c.025-.007.014-.048-.014-.044s-.011.056.014.049Zm-.172.34c-.034.079.018.1.049.052s.052-.018.068.027.064.023.049-.018a.109.109,0,0,1,.061-.12c.049-.03.049-.071.011-.071a.2.2,0,0,1-.1-.041.407.407,0,0,1-.109-.092c-.03-.038-.02,0-.007.092a.292.292,0,0,1-.014.172ZM25.3,50.9c-.061.052-.061.056-.141.127a2.543,2.543,0,0,0-.282.217c-.075.086-.056.254-.045.2a.229.229,0,0,1,.1-.164,2.161,2.161,0,0,1,.2-.141c.086-.052.075-.1.154-.141s.092-.061.168-.061.064-.034.014-.045-.061-.045-.056-.131-.03-.083-.064.041c-.011.041.007.056-.052.109Zm.966-.61c.027.052.011.068.056.1s.041.011.071.064.068.064.071.018,0-.052-.052-.082.007-.037-.056-.086-.018-.071.052-.075.034-.03-.034-.049-.092.064-.12.011-.007-.075-.052-.109-.064,0-.141.034-.056.052-.023.086.018.023.056.086.052.023.018-.052-.007-.086.041-.049a.308.308,0,0,1,.1.1Zm.258-.011c.037.007.017-.117-.018-.109s-.02.106.017.113Zm-.213.34c.018-.037.061.018.127.061s-.011-.068-.068-.12-.079-.092-.109-.014.023.109.048.071Zm.345.113a.065.065,0,0,1-.061.1c-.045,0-.045-.031-.034-.075s-.023-.057-.052.034.007.064.045.12.052.007.056.1,0,.086.061.086.034-.041.011-.086a.141.141,0,0,1-.023-.106c0-.071.041-.064.1-.023s.056-.023.023-.068-.011-.064-.007-.12,0-.061-.038-.113-.075-.023-.141-.038-.075-.038-.079.023.109.113.141.168Zm-.4.424c-.041.079-.049.056-.041-.018a.266.266,0,0,1,.082-.15c.034-.045.027-.109-.025-.116s-.068.025-.092.124-.034.109-.1.1-.031.068,0,.127.064.011.079.049.041.056.082.034.014-.038.034-.086a.339.339,0,0,1,.1-.141c.052-.045.049-.037.056-.12s-.044-.1-.071.014c-.014.064-.064.1-.1.181Zm.213.068c.092,0,.064-.13,0-.12-.121.023-.095.119,0,.123Zm.34-.092c.007-.061,0-.092-.041-.014s.034.08.041.02Zm.12.041c.014-.049-.02-.041-.034-.011s.017.065.034.017Zm-.177.206c-.018.045-.068.061-.092.025s-.049-.061-.064,0,0,.056-.079.068-.056.079-.141.068-.025-.075-.079-.109-.082,0-.116.052-.071.041-.141.056-.052.052-.071.124-.049.041-.049.1.03.011.061-.038.049-.116.092-.12.045.007.049.071.034.007.061-.045.034,0,.061.031.034-.052.068-.064.064.038.106.1.023.049-.011.141.011.124.086.181.12.1.154.056.045-.007.045.049.044.061.044.034,0-.034.041-.075.03-.048-.027-.112-.041-.092-.011-.109.049,0,.071-.045.025-.068.034.007.061.116.092.056A.35.35,0,0,0,27,51.742c.025-.1-.034-.082-.034-.15s.014-.056-.018-.075-.052-.064-.014-.075.034-.041-.018-.086-.052-.079-.1-.127-.079-.03-.061.034a.226.226,0,0,1,0,.116Zm-.812.524c.045.011.037-.071-.014-.068s-.031.062.014.071Zm-.229.112c.041.007.041-.055,0-.061s-.042.058,0,.065Zm-.229.157c.056-.014.037-.092-.007-.075-.065.037-.051.1,0,.082Zm1.587.352c.014-.071-.02-.1-.052-.025s.037.1.051.032Zm-.318.141c.031,0,.03-.058,0-.052-.058.014-.032.055,0,.059Zm-2-.981c-.038.011-.018-.064-.056-.075s-.011.056-.086.161-.03.1-.1.127-.052.082-.1.116-.068.011-.123,0-.082.061-.157.064-.041.018-.116.116-.15.172-.232.172-.217-.049-.292-.014-.034.082-.041.195-.086.075-.185.045a.323.323,0,0,1-.168-.124c-.045-.045-.079.041-.141.131s-.025.1.011.191.045.056.023.141.007.1.049.154.025.1.064.086.037-.031.068.011a.662.662,0,0,1,.014.3c-.007.15.071.161.236.164s.141.007.157.075.049.086.075.037.056-.025.092.014.071-.011.1-.056.014.007.056.034a.185.185,0,0,0,.141.049.154.154,0,0,1,.161.154c.011.106.038.1.1.061a.424.424,0,0,1,.185-.056c.079-.011.049.079.086.1s.082-.041.086-.131-.049-.038-.052-.1.056-.052.071-.154-.041-.064-.025-.141.079-.092.15-.113.1-.031.071-.141a.185.185,0,0,1,.038-.195c.034-.052.131-.025.209-.007s.106-.025.079-.052-.068-.064-.154-.141-.1-.1-.068-.127.049-.034.014-.082-.056-.014-.068-.106a.34.34,0,0,1,.045-.247c.045-.045.1-.052.191-.025s.056-.037.014-.068-.113-.018-.124-.052.031-.061.116-.056.113.014.12-.018-.014-.049-.1-.092-.064-.049-.116-.1-.1-.025-.141-.071.018-.061-.011-.109-.056-.049-.056-.131-.037-.1-.068.011c-.007.025,0,.056-.041.068Zm-1.909.3c0-.1-.028-.124-.056-.023s.055.124.055.032Zm-.086,1.589c.131.023.113-.171,0-.181a.093.093,0,0,0,0,.186Zm-.472.531c-.071-.011-.038.056.064.1s.079.018.124.068.007.061.127.086.079.056.213.124.141.014.314.056.141.082.306.157a1.26,1.26,0,0,0,.4.116c.157.025.064-.041.131,0s.177.086.265.141.038-.007.007-.045.052-.038.011-.068-.045-.086-.185-.116-.206-.052-.195-.106.079-.023.185-.018.109-.041-.052-.061a1.1,1.1,0,0,1-.349-.082c-.15-.056-.127-.1-.213-.124s-.038.056-.12.061a.722.722,0,0,1-.265-.052c-.116-.038-.092-.082-.22-.141s-.217-.092-.33-.154-.167-.054-.131.025c.014.034-.011.049-.082.037Zm2.059.821c.031.023.011.049.064.052s0-.034.061-.045.011-.047-.1-.071-.061.047-.03.071Zm.322.12c.086,0,.069-.129-.007-.124-.116.014-.082.13,0,.13Zm.319.064c.1-.014.092-.025-.007-.068s-.121-.086-.181-.034c-.092.086.082.116.185.1Zm.079-.141c-.027-.037-.045-.014-.092-.018s-.037.045.018.061.092.011.131.061.052.03.1.038.1-.079.018-.092a.613.613,0,0,1-.179-.045Zm.424.4c.064.045.064.086.154.082s-.007-.056-.079-.109-.113-.109-.217-.113-.092.054-.018.092c.034.018.1,0,.161.045Zm.374-.164c.116,0,.225-.061.092-.056a1.526,1.526,0,0,1-.352-.082c-.15-.03-.172.041-.124.071a2.9,2.9,0,0,0,.381.068Zm.326-.056c.034-.007.025-.052-.049-.049s-.052.061-.018.086.034-.031.068-.038Zm.092.041c.023.011.028-.052-.007-.045-.058.017-.017.038,0,.049Zm.363,0c.068,0,.044-.049-.075-.056s-.112.034-.061.052a.938.938,0,0,0,.141,0Zm.356-.092c.075-.023,0-.058-.12-.018-.092.034.042.044.117.023Zm-.329.185c-.041.038-.082.041-.191.061s-.161.057-.154.154.109.068.209.025.113-.113.175-.157a.331.331,0,0,1,.229-.023c.086.007.052-.052.116-.052s.141-.049.082-.061a1.145,1.145,0,0,0-.282-.011.243.243,0,0,0-.181.064Zm-.936-2.059c.106.031.161-.023.314.018s.141.061.232.086a.22.22,0,0,0,.232-.071c.034-.056.1-.064.131-.141s-.041-.075-.1,0a.233.233,0,0,1-.217.1c-.1,0-.068-.014-.172-.034a1.709,1.709,0,0,1-.232-.052c-.1-.03-.131.007-.172-.056s-.082-.082-.116-.011-.041.079-.141.092-.064.064-.079.154-.045.1-.075.191a.739.739,0,0,0-.056.225c-.018.141-.007.049-.082.127s-.011.141.03.175.052-.011.106.049.023.154,0,.251,0,.179.086.195.092-.1.1-.2.007-.141.014-.22-.049-.079-.03-.127.056-.1.109-.1.092.061.071.154,0,.1.068.154.056.056.061.131a.063.063,0,0,0,.113.034c.027-.034.041-.045.1-.031s.079,0,.052-.049-.075-.052-.106-.141.027-.1-.034-.154a1.553,1.553,0,0,1-.157-.185c-.056-.064.027-.056.092-.075a.336.336,0,0,0,.141-.056c.041-.034.1-.113.041-.127s-.141.038-.2.031-.082-.031-.124.052-.092.034-.15.014,0-.064-.045-.1-.082-.068-.082-.1a.349.349,0,0,1,.068-.217.3.3,0,0,1,.206.011Zm.412.338a.371.371,0,0,1,.068.045c.045.034.04-.086-.034-.1s-.052.048-.034.055Zm.014.141c.056.011.092-.075,0-.075-.071,0-.059.065,0,.076Zm.109.041c.018.007.034-.073,0-.071s-.023.065,0,.073Zm-.075.544c0-.023-.018-.048-.049,0s.041.02.045,0Zm-.15.1c-.045.007-.038.079-.018.1s.03,0,.052-.034.023.03.011.092.049.052.049.025,0-.045.049-.049-.007-.049-.03-.086.023-.018.037-.045-.01,0-.068-.018a.4.4,0,0,0-.082.014Zm.6-.565c.071,0,.037-.061-.075-.071s-.106.034-.064.052a.59.59,0,0,0,.134.02Zm.251.3c-.03.038.023.1.127.12s.15-.03.113-.056-.049-.079-.141-.082c0,0-.071-.018-.1.018Zm.374-.3c.079.023.092-.058,0-.079s-.083.058,0,.08Zm-.079-.311c-.045,0-.052.041-.018.071s.052,0,.064-.034c0,0,0-.034-.044-.038Zm.064-.1c0,.079.025.075.045.124a.154.154,0,0,0,.079.092c.034.014-.014-.045-.018-.086s-.056-.082-.049-.12,0-.086.056-.064.071.034.1.014.007-.041-.034-.056-.068-.071-.011-.068.061-.024.068-.071c.011-.075.011-.12-.034-.082s-.061.1-.113.127a.882.882,0,0,0-.092.052c-.031.023-.018.045,0,.071a.075.075,0,0,1,0,.064Zm.209-.479c.018-.061-.017-.066-.061,0s.037.062.055,0Zm-.213.27c.049.007.075-.034.075-.092s-.014-.129-.086-.045c-.049.057-.038.131.011.141Zm.6.715c.075.011.056-.085-.007-.075-.121.02-.073.065,0,.076Zm-.3.25c.018.007,0,.034.071.044s.068.014.056-.023.007-.018.075,0a.391.391,0,0,1,.191.12c.075.071.086-.023.027-.092a.241.241,0,0,0-.169-.1.387.387,0,0,0-.172-.018c-.056,0-.12-.011-.217-.007s-.124.034-.075.052.041-.011.064.031,0,.061-.079.052.037.041.1.034.037-.064.079-.082a.06.06,0,0,1,.045-.011ZM28.1,53.4c.011-.041,0-.085-.038-.045s.021.088.032.047Zm-.2.141c.034.038.075.052.161.034s.061-.082-.014-.082c-.12,0-.181.011-.141.049Zm.041.161c.034.034,0,.034.071.082s.052.041.154.03.092.007.109.092.071.071.157.075a2.446,2.446,0,0,0,.333,0c.064-.011.03-.086.038-.172s-.018-.124-.12-.141-.141-.041-.263-.064-.141.056-.193.064-.082-.018-.109.025-.052.068-.064.038a.133.133,0,0,0-.092-.079c-.049-.014-.052.018-.018.052Zm.706.374c-.056-.045-.082-.023-.141.023s-.034.014-.109-.014-.1.023-.049.052.027,0,.079.038a.2.2,0,0,1,.092.179c0,.1.116,0,.141-.086s.025,0,.1.064.082.018.164.064a1.294,1.294,0,0,0,.415.141.606.606,0,0,1,.4.206.586.586,0,0,1,.22.3c.049.106.014.079-.052.049a.164.164,0,0,0-.225.061c-.079.1-.141.116.011.141s.2.014.263-.041.154-.025.258-.007.116.157.256.2.056.011.127,0,.161.079.213.03a1.308,1.308,0,0,1,.141-.141c.071-.052.068.023.131-.007s.068-.086.092-.157.056-.034.092-.079.045-.045.1-.011a.438.438,0,0,0,.225.045c.092,0,.1.12.282.265s.225.141.322.131a2.825,2.825,0,0,1,.283.014c.052,0-.019.068.127.061.083,0,.1-.055.064-.082a.647.647,0,0,0-.127-.045c-.083-.031-.056-.041-.116-.071s0-.079-.037-.1-.014.025-.141-.011-.079-.068-.195-.168-.12-.079-.172-.191-.037-.109.056-.1.12.023.124-.041-.071-.068-.191-.1-.116-.038-.225-.068-.041-.061-.075-.141-.092-.061-.247-.141a.908.908,0,0,0-.449-.1c-.256-.025-.333-.15-.472-.161A1.63,1.63,0,0,1,30.03,54c-.168-.049-.232-.116-.356-.116s-.092.061-.177.116-.124.011-.168.092a.508.508,0,0,1-.172.161.167.167,0,0,1-.217-.03,1.013,1.013,0,0,1-.113-.141c-.03-.052-.061-.054-.092.011-.014.03-.034.064-.092.018Zm.244.933c.082.011.1-.1.061-.206s-.04-.179-.1-.068-.048.264.032.275Zm-.816.124c0,.052-.025.011-.056.092s.049.052.075,0,.082-.064.12-.141,0-.1-.071-.03c0,0-.071.023-.068.075Zm-.306.045c.049.011.031-.071-.023-.071S27.721,55.17,27.769,55.181Zm1.459-1.4c.011.045.068.034.1.018s-.03-.071-.1-.113-.127-.025-.061.023a.13.13,0,0,1,.056.071Zm.113.141c.1,0,.044-.075-.116-.049-.11.018.013.048.117.048Zm2.528-.027c.141-.014.141-.056,0-.056s-.109.052-.014.061m.9-.023c-.106-.052-.185-.02-.15.023s.092,0,.191.03a1.009,1.009,0,0,1,.282.127c.092.061.109.03.12.141s.092.141.092.034,0-.109-.141-.185a3.451,3.451,0,0,0-.393-.164Zm.239.329c-.03-.014-.064.03-.025.079s.034.03.1.061.075-.014.064-.071-.037-.1-.092-.075a.047.047,0,0,1-.052.007Zm-.213.292c-.064.045-.064.034-.164.049s-.22-.007-.359,0-.025.045.045.086.1.011.181.038a.229.229,0,0,0,.206-.023.436.436,0,0,1,.179-.079c.079-.014.045-.082.1-.1s.1.011.1-.03a.092.092,0,0,0-.112-.071c-.1.011-.109.086-.172.131Zm1.007.092a.072.072,0,0,0,.113.052q.056-.034-.011-.1c-.045-.045-.049-.052-.113-.124s-.12-.068-.068.049a.282.282,0,0,1,.079.124Zm.445.1c.068.018.127,0,.064-.018s-.041-.03-.141-.082-.154-.052-.064.03a.462.462,0,0,0,.141.069Zm.547.127c.037-.023-.052-.092-.181-.124s-.113-.031-.023.049c.034.031.164.1.2.075Zm-.453.113c.049.045.082.038.082,0s-.061-.092-.131-.116-.127,0-.038.056a.25.25,0,0,1,.086.056Zm.739.034c.106.086.113.025.061-.023s-.037-.037-.079-.113-.086-.141-.092-.007c0,0,0,.056.109.141Zm-.112.092c.056-.014-.007-.086-.141-.079s-.12.052-.011.079a.442.442,0,0,0,.145.006Zm.322.141c.041,0,.041-.057-.031-.071s-.161-.007-.092.041a.481.481,0,0,0,.121.025Zm.876.706a.092.092,0,0,0-.03-.141c-.056-.023-.028-.1-.061.014-.023.082.061.161.092.12Zm.052.12c.041.014.056-.068-.007-.064s-.034.044.007.059Zm.127.2c.052,0,.038-.086-.018-.071s-.035.071.017.066Zm-.025-.386c.038.011.041-.051,0-.045s-.038.03,0,.041Zm.116.554c.045,0,.041-.056,0-.049s-.045.037,0,.041Zm0,.12c.038,0,.037-.056-.011-.049s-.034.037,0,.041Zm1.539-.8c-.109.109.052.075.172,0s.1-.181,0-.131a.356.356,0,0,0-.178.123Zm.282-.27c.023.025.079-.011.169-.092s.092-.117-.038-.064c-.071.031-.154.131-.131.157Zm-2.673,1.479c-.154-.113-.225-.124-.177,0s.185.124.319.185.25.041.112-.038l-.254-.141Zm.424-.064c.03-.025,0-.054-.034-.034s0,.052.028.025Zm.082,2.172a.637.637,0,0,1-.217.157c-.1.049-.044.086.023.064s.041.025-.041.092-.1.071-.03.056a1.255,1.255,0,0,0,.333-.206c.191-.141.086-.079.161-.161s.164-.086.282-.164.082-.106.041-.1-.048.049-.141.1-.172.061-.141.011.014-.106-.031-.064-.061.075-.092.034.018-.045.034-.109-.037-.064-.092-.075-.056-.052-.064.03.056.124.056.168a.232.232,0,0,1-.068.164Zm-.917.676c-.229.12-.5.209-.757.356s-.258.175-.124.157a.554.554,0,0,0,.34-.1c.213-.127.256-.15.256-.15l.2-.12a4.667,4.667,0,0,0,.508-.308c.109-.092.082-.116.018-.092s-.075.049-.061.018-.011-.041-.1.018a.724.724,0,0,1-.292.232Zm-3.813-3.248a1.313,1.313,0,0,1-.124-.068c-.086-.054-.092.056-.168-.023s-.075-.025-.052-.127.007-.092-.041-.164a.848.848,0,0,1-.086-.161c-.038-.082.007-.141-.086-.141s-.092.075-.112.161-.082.079-.092.217a1.385,1.385,0,0,0-.034.311.534.534,0,0,1-.1.394c-.092.164-.164.213-.282.206a.254.254,0,0,1-.2-.109c-.056-.061-.15-.031-.257-.106s-.071-.068-.206-.092a.462.462,0,0,1-.244-.116c-.113-.075-.141-.082-.124-.141s.014-.056.061-.092.011-.092.056-.141a.386.386,0,0,1,.116-.11c.071-.041.124-.068.064-.1s-.071.025-.141.056-.052-.023-.15-.075-.064.023-.191,0a1.524,1.524,0,0,1-.256-.049c-.141-.045-.141-.064-.3-.116a.554.554,0,0,0-.33-.025c-.154.014-.213.064-.185.1s.109,0,.229,0,.018-.049.1-.041a.253.253,0,0,1,.2.079c.049.064-.014.049-.131.045a.532.532,0,0,0-.322.056c-.064.056-.131.1-.092.161s-.045.079-.141.141-.092.03-.161.109-.157.141-.181.061,0-.082-.079-.164-.082-.068-.185-.086-.03.038-.092.056-.023-.052-.092-.011-.03.056-.1.056-.106.037-.092.092-.086.023-.172.056.018.127-.025.185-.056-.031-.141-.056-.014.075,0,.15-.052.082-.1-.007-.075-.082-.15-.041-.049.1-.03.15,0,.071-.086.12-.023.092-.124.161-.079.034-.251.045a1.571,1.571,0,0,0-.356.052c-.113.031-.33-.041-.449,0s-.15.1-.257.1-.061.116-.1.109-.041-.1-.071-.086-.038.092.007.161-.018.079-.034.141.011.124.109.213.127.206.079.191-.106-.041-.049.041a3.024,3.024,0,0,0,.3.349c.131.141.052.086.141.225a.793.793,0,0,0,.181.2.415.415,0,0,1,.049.244c-.011.1-.045,0-.061.041s.034.052.12.068.03.049.116.092a.989.989,0,0,0,.424.052.738.738,0,0,0,.232-.092,1.479,1.479,0,0,1,.424.038c.113.023.2.071.326,0s.041-.082.157-.1.127,0,.2-.034.131.023.39,0a1.25,1.25,0,0,0,.254-.041c.1-.014.247,0,.326-.007a.777.777,0,0,1,.282.064c.113.041.109-.011.164.03s.068.023.172.025.052.014.109.03.075.03.023.045.048.048.092.056.1.082.154.172.064.064.116,0a.377.377,0,0,1,.172-.1.308.308,0,0,0,.177-.1c.079-.082.061-.011.023.071s-.041.03-.052.092-.023.068-.1.079.049.034.124.011.025-.052.068-.082.061.034.082.092,0,.041-.071.064a.217.217,0,0,1-.154,0c-.079-.014-.1.011-.109.049s.049.014.161.011.038,0,.195-.061.079-.014.154.034a.16.16,0,0,1,.082.15c.007.064.1.075.195.1a2.284,2.284,0,0,0,.247.014.443.443,0,0,0,.3,0c.15-.049.168-.109.232-.071a.282.282,0,0,0,.243.079.554.554,0,0,0,.282-.127c.1-.061.177,0,.329-.061s.12-.141.229-.282a1.879,1.879,0,0,1,.386-.363.832.832,0,0,0,.282-.282,1.816,1.816,0,0,0,.179-.282c.052-.109.041-.1,0-.191s.014-.079.011-.206.018-.127.075-.168.064-.086.023-.116-.014.038-.068.092-.292-.109-.356-.164-.023-.086-.079-.175-.127.007-.209-.014-.079-.141-.124-.239-.191-.154-.349-.2-.236-.109-.254-.209,0-.127-.038-.191a.37.37,0,0,1-.082-.247.151.151,0,0,0-.092-.177Zm-1.953-.02a.051.051,0,0,0,0-.1c-.076-.011-.068.09,0,.095Zm1.536,3.848c-.13-.014-.1.035-.049.085s.02.065.11.141.16.01.25-.04a.424.424,0,0,0,.185-.154c.065-.092-.025-.058-.11-.031a1.108,1.108,0,0,1-.384,0Zm.534-.1c.049,0,.041-.061-.01-.061s-.044.052,0,.052ZM15.451,45.838c-.061.479-.1,1.271-.04.918a9.322,9.322,0,0,1,.3-1c.04-.16-.106-.216-.151-.62C15.56,45.139,15.511,45.359,15.451,45.838Z" transform="translate(-15.673 -33.92)" fill="url(#g)"/><ellipse cx="10.254" cy="8.818" rx="10.254" ry="8.818" transform="translate(3.055 -0.791)" fill="url(#h)" style="mix-blend-mode:screen;isolation:isolate"/><path d="M43.635,57.943c0,4.95-6.657,8.961-14.872,8.961S13.892,62.89,13.892,57.943s6.657-8.961,14.872-8.961S43.635,52.994,43.635,57.943Z" transform="translate(-15.56 -35.08)" fill="url(#i)" style="mix-blend-mode:multiply;isolation:isolate"/></g><path d="M174.349.9H0v-1.96H174.349Z" transform="translate(20.09 9.614)" fill="#1e2971"/><path d="M2.1,21.221.046,26.97a.791.791,0,0,0,.746,1.056H17.549A.787.787,0,0,0,17.743,28c.525-.131,2.978-.813,3.757-2.3.739-1.422-1.723-3.686-2.478-4.333a.78.78,0,0,0-.487-.185L2.858,20.7a.791.791,0,0,0-.77.525Z" transform="translate(0 -15.698)" fill="#1d2088"/><path d="M229.712,28.524l1.747-4.9a1.21,1.21,0,0,0-1.141-1.617H214.208a1.171,1.171,0,0,0-.3.037c-.614.158-2.952.847-3.707,2.292-.706,1.353,1.491,3.467,2.357,4.228a1.2,1.2,0,0,0,.757.3l15.211.469a1.212,1.212,0,0,0,1.178-.8Z" transform="translate(-16.029 -15.797)" fill="#1d2088"/><g transform="translate(89.938)" clip-path="url(#j)"><path d="M105.869,31.086c.06.174-.014.306,0,.438.009.062,0,.136.077.16s.106-.042.136-.1a12.687,12.687,0,0,1,.981-1.487c.2-.262.36-.562.683-.694.175-.069.331-.181.5-.256a2.418,2.418,0,0,0,1.08-1.3,5.086,5.086,0,0,1,.887-1.14,3.632,3.632,0,0,1,1.365-.948,3.793,3.793,0,0,0,.874-.583c.908-.671,1.684-1.507,2.652-2.106a3.078,3.078,0,0,0,.513-.438.718.718,0,0,0,.223-.729,2.645,2.645,0,0,1-.074-1.045.425.425,0,0,1,.077-.227c.038-.041.075-.087.136-.064s.049.069.049.116a.81.81,0,0,0,.031.322c.021.052.052.1.115.1s.08-.056.1-.1a7.438,7.438,0,0,0,.563-2.08,6.527,6.527,0,0,1,.591-1.852c.2-.385.331-.8.517-1.194.614-1.3,1.185-2.622,1.759-3.932a.665.665,0,0,1,.567-.874.9.9,0,0,0,.447-.175.375.375,0,0,1,.167-.086,5.128,5.128,0,0,1,2.615.042,3.753,3.753,0,0,1,1.517,1.055,7.689,7.689,0,0,0,.887,1.024.863.863,0,0,1,.164,1.091c-.375.928-.749,1.849-1.16,2.762A7.928,7.928,0,0,1,122,20.37a9.59,9.59,0,0,1-1.94.973c-.541.195-1.078.41-1.623.609-.136.052-.2.17-.3.263-1.1,1.086-2.168,2.206-3.354,3.217a11.9,11.9,0,0,1-4.011,4.23,8.835,8.835,0,0,1-1.215,1.788c-.171.258-.472.393-.649.651-.237.341-.348.749-.551,1.11a4.126,4.126,0,0,1-.46.72c-.406.468-.737,1-1.17,1.447a6.056,6.056,0,0,1-.581.6c-.624.488-1.176,1.073-1.821,1.542a.909.909,0,0,0-.4.466c-.031.111-.112.1-.195.09a17.507,17.507,0,0,1-1.979-.3,15.869,15.869,0,0,0-3.632-.423c-.451,0-.652-.055-.734-.392a2.9,2.9,0,0,0-.273-.624.858.858,0,0,1-.052-.874,9.208,9.208,0,0,0,.749-2.209,3.747,3.747,0,0,1,.382-.8.362.362,0,0,1,.212-.157,1.164,1.164,0,0,0,.589-.45,3.272,3.272,0,0,1,.759-.608,7.552,7.552,0,0,0,1.3-1.136c.081-.08-.024-.46-.151-.552s-.209.035-.291.109a8.446,8.446,0,0,1-1.214.863c-.045.027-.1.08-.144.032a.125.125,0,0,1,.014-.175c.442-.437.624-1.111,1.282-1.356a.719.719,0,0,0,.352-.432c.027-.062.075-.145.16-.114s.035.111.03.17c-.011.125,0,.25.132.3s.165-.084.238-.142a2.177,2.177,0,0,0,.546-.933c.115-.262.186-.571.3-.852a2.387,2.387,0,0,1,.261-.473,1.147,1.147,0,0,0,.211-.95.738.738,0,0,1,.031-.455,3.682,3.682,0,0,0,.2-.9,5.714,5.714,0,0,1,.566-1.4c.1-.225.385-.325.546-.546a6.12,6.12,0,0,0,.768-1.425c.192-.514.462-1,.683-1.5.277-.642.653-1.231.96-1.858a2.6,2.6,0,0,1,.478-1.311,1.093,1.093,0,0,1,.385-.437c.288-.175.3-.277.054-.519-.039-.039-.08-.072-.125-.111-.164-.162-.145-.24.081-.317.172-.057.442-.141.383-.3-.075-.2-.311,0-.478.014a.406.406,0,0,0-.267.177,3.437,3.437,0,0,1-.671.705.367.367,0,0,0-.119.266c-.008.059,0,.145-.08.149s-.1-.069-.136-.125a.812.812,0,0,1,.2-.874c.485-.546.985-1.071,1.455-1.623a3.923,3.923,0,0,0,.829-1.784A2.344,2.344,0,0,1,109,10.342a12.7,12.7,0,0,1,1.207-3.76,15.482,15.482,0,0,1,1.913-2.924,5.808,5.808,0,0,0,.641-.919c.387-.7.592-.874,1.124-.642a1.778,1.778,0,0,0,.574.152,3.065,3.065,0,0,1,2.484,1.688,1.147,1.147,0,0,0,.273.672c.395.391.293.644-.112,1.111-.125.144-.222.3-.335.453-.235.316-.428.658-.654.979-.341.484-.673.978-1.029,1.453a9.308,9.308,0,0,1-1.01,1.184c-.3.283-.562.624-.839.933s-.634.592-.95.887a20.585,20.585,0,0,0-2.372,2.469,1.53,1.53,0,0,0-.643.715c-.1.3-.352.5-.471.784a11.487,11.487,0,0,1-1.136,1.894,8.8,8.8,0,0,0-1.024,2.576c-.236.863-.353,1.748-.582,2.613-.087.331-.241.639-.35.964a12.236,12.236,0,0,0-.341,2.018,8.163,8.163,0,0,1-.743,2.757,21.654,21.654,0,0,1-.894,2.022c-.1.2-.25.36-.346.546a5.968,5.968,0,0,0-.8,1.91c-.031.22.04.3.25.3a1.222,1.222,0,0,0,.749-.325c.757-.573,1.528-1.124,2.268-1.774Z" transform="translate(-93.981 -2.483)" fill="url(#k)"/></g><path d="M14.619-2.122A16.711,16.711,0,1,1,8.106-.809a16.711,16.711,0,0,1,6.513-1.313Zm0,29.568a12.824,12.824,0,1,0-9.064-3.755,12.824,12.824,0,0,0,9.064,3.755Z" transform="translate(13.259 15.722)" fill="#1e2971"/></g><text transform="translate(370 9202)" fill="#383838" font-size="11" font-family="YuMin-Extrabold, YuMincho" font-weight="800" letter-spacing="0.13em"><tspan x="-49.005" y="0"></tspan><tspan x="-61.435" y="16"></tspan></text><text transform="translate(374 9238)" fill="#383838" font-size="16" font-family="YuMin-Extrabold, YuMincho" font-weight="800" letter-spacing="0.13em"><tspan x="-62.24" y="0"></tspan></text></g></svg>